%TF.GenerationSoftware,KiCad,Pcbnew,(6.0.2)*%
%TF.CreationDate,2022-02-27T07:15:14-05:00*%
%TF.ProjectId,breakout_slime,62726561-6b6f-4757-945f-736c696d652e,0.1*%
%TF.SameCoordinates,Original*%
%TF.FileFunction,Legend,Bot*%
%TF.FilePolarity,Positive*%
%FSLAX46Y46*%
G04 Gerber Fmt 4.6, Leading zero omitted, Abs format (unit mm)*
G04 Created by KiCad (PCBNEW (6.0.2)) date 2022-02-27 07:15:14*
%MOMM*%
%LPD*%
G01*
G04 APERTURE LIST*
G04 Aperture macros list*
%AMRoundRect*
0 Rectangle with rounded corners*
0 $1 Rounding radius*
0 $2 $3 $4 $5 $6 $7 $8 $9 X,Y pos of 4 corners*
0 Add a 4 corners polygon primitive as box body*
4,1,4,$2,$3,$4,$5,$6,$7,$8,$9,$2,$3,0*
0 Add four circle primitives for the rounded corners*
1,1,$1+$1,$2,$3*
1,1,$1+$1,$4,$5*
1,1,$1+$1,$6,$7*
1,1,$1+$1,$8,$9*
0 Add four rect primitives between the rounded corners*
20,1,$1+$1,$2,$3,$4,$5,0*
20,1,$1+$1,$4,$5,$6,$7,0*
20,1,$1+$1,$6,$7,$8,$9,0*
20,1,$1+$1,$8,$9,$2,$3,0*%
G04 Aperture macros list end*
%ADD10C,0.125000*%
%ADD11C,0.150000*%
%ADD12C,0.120000*%
%ADD13C,1.600000*%
%ADD14O,1.600000X1.600000*%
%ADD15C,1.651000*%
%ADD16R,1.651000X1.651000*%
%ADD17R,2.000000X2.000000*%
%ADD18O,2.000000X1.600000*%
%ADD19R,2.200000X2.200000*%
%ADD20O,2.200000X2.200000*%
%ADD21R,1.000000X1.500000*%
%ADD22RoundRect,0.250000X0.350000X0.625000X-0.350000X0.625000X-0.350000X-0.625000X0.350000X-0.625000X0*%
%ADD23O,1.200000X1.750000*%
%ADD24O,2.200000X3.500000*%
%ADD25R,1.500000X2.500000*%
%ADD26O,1.500000X2.500000*%
%ADD27RoundRect,0.250000X-0.625000X0.350000X-0.625000X-0.350000X0.625000X-0.350000X0.625000X0.350000X0*%
%ADD28O,1.750000X1.200000*%
G04 APERTURE END LIST*
D10*
X101942234Y-33100424D02*
X102323186Y-33100424D01*
X102323186Y-32300424D01*
X101675567Y-33100424D02*
X101675567Y-32567091D01*
X101675567Y-32300424D02*
X101713662Y-32338520D01*
X101675567Y-32376615D01*
X101637472Y-32338520D01*
X101675567Y-32300424D01*
X101675567Y-32376615D01*
X100951758Y-33062329D02*
X101027948Y-33100424D01*
X101180329Y-33100424D01*
X101256520Y-33062329D01*
X101294615Y-33024234D01*
X101332710Y-32948043D01*
X101332710Y-32719472D01*
X101294615Y-32643281D01*
X101256520Y-32605186D01*
X101180329Y-32567091D01*
X101027948Y-32567091D01*
X100951758Y-32605186D01*
X100304139Y-33062329D02*
X100380329Y-33100424D01*
X100532710Y-33100424D01*
X100608900Y-33062329D01*
X100646996Y-32986139D01*
X100646996Y-32681377D01*
X100608900Y-32605186D01*
X100532710Y-32567091D01*
X100380329Y-32567091D01*
X100304139Y-32605186D01*
X100266043Y-32681377D01*
X100266043Y-32757567D01*
X100646996Y-32833758D01*
X99923186Y-32567091D02*
X99923186Y-33100424D01*
X99923186Y-32643281D02*
X99885091Y-32605186D01*
X99808900Y-32567091D01*
X99694615Y-32567091D01*
X99618424Y-32605186D01*
X99580329Y-32681377D01*
X99580329Y-33100424D01*
X99237472Y-33062329D02*
X99161281Y-33100424D01*
X99008900Y-33100424D01*
X98932710Y-33062329D01*
X98894615Y-32986139D01*
X98894615Y-32948043D01*
X98932710Y-32871853D01*
X99008900Y-32833758D01*
X99123186Y-32833758D01*
X99199377Y-32795662D01*
X99237472Y-32719472D01*
X99237472Y-32681377D01*
X99199377Y-32605186D01*
X99123186Y-32567091D01*
X99008900Y-32567091D01*
X98932710Y-32605186D01*
X98246996Y-33062329D02*
X98323186Y-33100424D01*
X98475567Y-33100424D01*
X98551758Y-33062329D01*
X98589853Y-32986139D01*
X98589853Y-32681377D01*
X98551758Y-32605186D01*
X98475567Y-32567091D01*
X98323186Y-32567091D01*
X98246996Y-32605186D01*
X98208900Y-32681377D01*
X98208900Y-32757567D01*
X98589853Y-32833758D01*
X97866043Y-33024234D02*
X97827948Y-33062329D01*
X97866043Y-33100424D01*
X97904139Y-33062329D01*
X97866043Y-33024234D01*
X97866043Y-33100424D01*
X97866043Y-32605186D02*
X97827948Y-32643281D01*
X97866043Y-32681377D01*
X97904139Y-32643281D01*
X97866043Y-32605186D01*
X97866043Y-32681377D01*
X96418424Y-33024234D02*
X96456520Y-33062329D01*
X96570805Y-33100424D01*
X96646996Y-33100424D01*
X96761281Y-33062329D01*
X96837472Y-32986139D01*
X96875567Y-32909948D01*
X96913662Y-32757567D01*
X96913662Y-32643281D01*
X96875567Y-32490900D01*
X96837472Y-32414710D01*
X96761281Y-32338520D01*
X96646996Y-32300424D01*
X96570805Y-32300424D01*
X96456520Y-32338520D01*
X96418424Y-32376615D01*
X96075567Y-32681377D02*
X95808900Y-32681377D01*
X95694615Y-33100424D02*
X96075567Y-33100424D01*
X96075567Y-32300424D01*
X95694615Y-32300424D01*
X94894615Y-33100424D02*
X95161281Y-32719472D01*
X95351758Y-33100424D02*
X95351758Y-32300424D01*
X95046996Y-32300424D01*
X94970805Y-32338520D01*
X94932710Y-32376615D01*
X94894615Y-32452805D01*
X94894615Y-32567091D01*
X94932710Y-32643281D01*
X94970805Y-32681377D01*
X95046996Y-32719472D01*
X95351758Y-32719472D01*
X94551758Y-33100424D02*
X94551758Y-32300424D01*
X94094615Y-33100424D01*
X94094615Y-32300424D01*
X93713662Y-32795662D02*
X93104139Y-32795662D01*
X92570805Y-32300424D02*
X92418424Y-32300424D01*
X92342234Y-32338520D01*
X92266043Y-32414710D01*
X92227948Y-32567091D01*
X92227948Y-32833758D01*
X92266043Y-32986139D01*
X92342234Y-33062329D01*
X92418424Y-33100424D01*
X92570805Y-33100424D01*
X92646996Y-33062329D01*
X92723186Y-32986139D01*
X92761281Y-32833758D01*
X92761281Y-32567091D01*
X92723186Y-32414710D01*
X92646996Y-32338520D01*
X92570805Y-32300424D01*
X91885091Y-33100424D02*
X91885091Y-32300424D01*
X91885091Y-32681377D02*
X91427948Y-32681377D01*
X91427948Y-33100424D02*
X91427948Y-32300424D01*
X90666043Y-33100424D02*
X91046996Y-33100424D01*
X91046996Y-32300424D01*
X90399377Y-32795662D02*
X89789853Y-32795662D01*
X89408900Y-33100424D02*
X89408900Y-32300424D01*
X89104139Y-32300424D01*
X89027948Y-32338520D01*
X88989853Y-32376615D01*
X88951758Y-32452805D01*
X88951758Y-32567091D01*
X88989853Y-32643281D01*
X89027948Y-32681377D01*
X89104139Y-32719472D01*
X89408900Y-32719472D01*
X88075567Y-32567091D02*
X87885091Y-33100424D01*
X87694615Y-32567091D01*
X87427948Y-32376615D02*
X87389853Y-32338520D01*
X87313662Y-32300424D01*
X87123186Y-32300424D01*
X87046996Y-32338520D01*
X87008900Y-32376615D01*
X86970805Y-32452805D01*
X86970805Y-32528996D01*
X87008900Y-32643281D01*
X87466043Y-33100424D01*
X86970805Y-33100424D01*
X85904139Y-33100424D02*
X85980329Y-33062329D01*
X86018424Y-33024234D01*
X86056520Y-32948043D01*
X86056520Y-32719472D01*
X86018424Y-32643281D01*
X85980329Y-32605186D01*
X85904139Y-32567091D01*
X85789853Y-32567091D01*
X85713662Y-32605186D01*
X85675567Y-32643281D01*
X85637472Y-32719472D01*
X85637472Y-32948043D01*
X85675567Y-33024234D01*
X85713662Y-33062329D01*
X85789853Y-33100424D01*
X85904139Y-33100424D01*
X85294615Y-33100424D02*
X85294615Y-32567091D01*
X85294615Y-32719472D02*
X85256520Y-32643281D01*
X85218424Y-32605186D01*
X85142234Y-32567091D01*
X85066043Y-32567091D01*
X84075567Y-33100424D02*
X84151758Y-33062329D01*
X84189853Y-32986139D01*
X84189853Y-32300424D01*
X83427948Y-33100424D02*
X83427948Y-32681377D01*
X83466043Y-32605186D01*
X83542234Y-32567091D01*
X83694615Y-32567091D01*
X83770805Y-32605186D01*
X83427948Y-33062329D02*
X83504139Y-33100424D01*
X83694615Y-33100424D01*
X83770805Y-33062329D01*
X83808900Y-32986139D01*
X83808900Y-32909948D01*
X83770805Y-32833758D01*
X83694615Y-32795662D01*
X83504139Y-32795662D01*
X83427948Y-32757567D01*
X83161281Y-32567091D02*
X82856520Y-32567091D01*
X83046996Y-32300424D02*
X83046996Y-32986139D01*
X83008900Y-33062329D01*
X82932710Y-33100424D01*
X82856520Y-33100424D01*
X82285091Y-33062329D02*
X82361281Y-33100424D01*
X82513662Y-33100424D01*
X82589853Y-33062329D01*
X82627948Y-32986139D01*
X82627948Y-32681377D01*
X82589853Y-32605186D01*
X82513662Y-32567091D01*
X82361281Y-32567091D01*
X82285091Y-32605186D01*
X82246996Y-32681377D01*
X82246996Y-32757567D01*
X82627948Y-32833758D01*
X81904139Y-33100424D02*
X81904139Y-32567091D01*
X81904139Y-32719472D02*
X81866043Y-32643281D01*
X81827948Y-32605186D01*
X81751758Y-32567091D01*
X81675567Y-32567091D01*
X102113662Y-33855091D02*
X102113662Y-34502710D01*
X102151758Y-34578900D01*
X102189853Y-34616996D01*
X102266043Y-34655091D01*
X102380329Y-34655091D01*
X102456520Y-34616996D01*
X102113662Y-34350329D02*
X102189853Y-34388424D01*
X102342234Y-34388424D01*
X102418424Y-34350329D01*
X102456520Y-34312234D01*
X102494615Y-34236043D01*
X102494615Y-34007472D01*
X102456520Y-33931281D01*
X102418424Y-33893186D01*
X102342234Y-33855091D01*
X102189853Y-33855091D01*
X102113662Y-33893186D01*
X101732710Y-34388424D02*
X101732710Y-33855091D01*
X101732710Y-33588424D02*
X101770805Y-33626520D01*
X101732710Y-33664615D01*
X101694615Y-33626520D01*
X101732710Y-33588424D01*
X101732710Y-33664615D01*
X101466043Y-33855091D02*
X101161281Y-33855091D01*
X101351758Y-33588424D02*
X101351758Y-34274139D01*
X101313662Y-34350329D01*
X101237472Y-34388424D01*
X101161281Y-34388424D01*
X100894615Y-34388424D02*
X100894615Y-33588424D01*
X100551758Y-34388424D02*
X100551758Y-33969377D01*
X100589853Y-33893186D01*
X100666043Y-33855091D01*
X100780329Y-33855091D01*
X100856520Y-33893186D01*
X100894615Y-33931281D01*
X99827948Y-33855091D02*
X99827948Y-34388424D01*
X100170805Y-33855091D02*
X100170805Y-34274139D01*
X100132710Y-34350329D01*
X100056520Y-34388424D01*
X99942234Y-34388424D01*
X99866043Y-34350329D01*
X99827948Y-34312234D01*
X99446996Y-34388424D02*
X99446996Y-33588424D01*
X99446996Y-33893186D02*
X99370805Y-33855091D01*
X99218424Y-33855091D01*
X99142234Y-33893186D01*
X99104139Y-33931281D01*
X99066043Y-34007472D01*
X99066043Y-34236043D01*
X99104139Y-34312234D01*
X99142234Y-34350329D01*
X99218424Y-34388424D01*
X99370805Y-34388424D01*
X99446996Y-34350329D01*
X98723186Y-34312234D02*
X98685091Y-34350329D01*
X98723186Y-34388424D01*
X98761281Y-34350329D01*
X98723186Y-34312234D01*
X98723186Y-34388424D01*
X97999377Y-34350329D02*
X98075567Y-34388424D01*
X98227948Y-34388424D01*
X98304139Y-34350329D01*
X98342234Y-34312234D01*
X98380329Y-34236043D01*
X98380329Y-34007472D01*
X98342234Y-33931281D01*
X98304139Y-33893186D01*
X98227948Y-33855091D01*
X98075567Y-33855091D01*
X97999377Y-33893186D01*
X97542234Y-34388424D02*
X97618424Y-34350329D01*
X97656520Y-34312234D01*
X97694615Y-34236043D01*
X97694615Y-34007472D01*
X97656520Y-33931281D01*
X97618424Y-33893186D01*
X97542234Y-33855091D01*
X97427948Y-33855091D01*
X97351758Y-33893186D01*
X97313662Y-33931281D01*
X97275567Y-34007472D01*
X97275567Y-34236043D01*
X97313662Y-34312234D01*
X97351758Y-34350329D01*
X97427948Y-34388424D01*
X97542234Y-34388424D01*
X96932710Y-34388424D02*
X96932710Y-33855091D01*
X96932710Y-33931281D02*
X96894615Y-33893186D01*
X96818424Y-33855091D01*
X96704139Y-33855091D01*
X96627948Y-33893186D01*
X96589853Y-33969377D01*
X96589853Y-34388424D01*
X96589853Y-33969377D02*
X96551758Y-33893186D01*
X96475567Y-33855091D01*
X96361281Y-33855091D01*
X96285091Y-33893186D01*
X96246996Y-33969377D01*
X96246996Y-34388424D01*
X95294615Y-33550329D02*
X95980329Y-34578900D01*
X95142234Y-33588424D02*
X94685091Y-33588424D01*
X94913662Y-34388424D02*
X94913662Y-33588424D01*
X94418424Y-34388424D02*
X94418424Y-33588424D01*
X94075567Y-34388424D02*
X94075567Y-33969377D01*
X94113662Y-33893186D01*
X94189853Y-33855091D01*
X94304139Y-33855091D01*
X94380329Y-33893186D01*
X94418424Y-33931281D01*
X93389853Y-34350329D02*
X93466043Y-34388424D01*
X93618424Y-34388424D01*
X93694615Y-34350329D01*
X93732710Y-34274139D01*
X93732710Y-33969377D01*
X93694615Y-33893186D01*
X93618424Y-33855091D01*
X93466043Y-33855091D01*
X93389853Y-33893186D01*
X93351758Y-33969377D01*
X93351758Y-34045567D01*
X93732710Y-34121758D01*
X92742234Y-33969377D02*
X92627948Y-34007472D01*
X92589853Y-34045567D01*
X92551758Y-34121758D01*
X92551758Y-34236043D01*
X92589853Y-34312234D01*
X92627948Y-34350329D01*
X92704139Y-34388424D01*
X93008900Y-34388424D01*
X93008900Y-33588424D01*
X92742234Y-33588424D01*
X92666043Y-33626520D01*
X92627948Y-33664615D01*
X92589853Y-33740805D01*
X92589853Y-33816996D01*
X92627948Y-33893186D01*
X92666043Y-33931281D01*
X92742234Y-33969377D01*
X93008900Y-33969377D01*
X91866043Y-33855091D02*
X91866043Y-34388424D01*
X92208900Y-33855091D02*
X92208900Y-34274139D01*
X92170805Y-34350329D01*
X92094615Y-34388424D01*
X91980329Y-34388424D01*
X91904139Y-34350329D01*
X91866043Y-34312234D01*
X91599377Y-33855091D02*
X91294615Y-33855091D01*
X91485091Y-33588424D02*
X91485091Y-34274139D01*
X91446996Y-34350329D01*
X91370805Y-34388424D01*
X91294615Y-34388424D01*
X90913662Y-34388424D02*
X90989853Y-34350329D01*
X91027948Y-34274139D01*
X91027948Y-33588424D01*
X90266043Y-34388424D02*
X90266043Y-33969377D01*
X90304139Y-33893186D01*
X90380329Y-33855091D01*
X90532710Y-33855091D01*
X90608900Y-33893186D01*
X90266043Y-34350329D02*
X90342234Y-34388424D01*
X90532710Y-34388424D01*
X90608900Y-34350329D01*
X90646996Y-34274139D01*
X90646996Y-34197948D01*
X90608900Y-34121758D01*
X90532710Y-34083662D01*
X90342234Y-34083662D01*
X90266043Y-34045567D01*
X89885091Y-34388424D02*
X89885091Y-33588424D01*
X89542234Y-34388424D02*
X89542234Y-33969377D01*
X89580329Y-33893186D01*
X89656520Y-33855091D01*
X89770805Y-33855091D01*
X89846996Y-33893186D01*
X89885091Y-33931281D01*
X88589853Y-33550329D02*
X89275567Y-34578900D01*
X88361281Y-34350329D02*
X88285091Y-34388424D01*
X88132710Y-34388424D01*
X88056520Y-34350329D01*
X88018424Y-34274139D01*
X88018424Y-34236043D01*
X88056520Y-34159853D01*
X88132710Y-34121758D01*
X88246996Y-34121758D01*
X88323186Y-34083662D01*
X88361281Y-34007472D01*
X88361281Y-33969377D01*
X88323186Y-33893186D01*
X88246996Y-33855091D01*
X88132710Y-33855091D01*
X88056520Y-33893186D01*
X87561281Y-34388424D02*
X87637472Y-34350329D01*
X87675567Y-34274139D01*
X87675567Y-33588424D01*
X87256520Y-34388424D02*
X87256520Y-33855091D01*
X87256520Y-33588424D02*
X87294615Y-33626520D01*
X87256520Y-33664615D01*
X87218424Y-33626520D01*
X87256520Y-33588424D01*
X87256520Y-33664615D01*
X86875567Y-34388424D02*
X86875567Y-33855091D01*
X86875567Y-33931281D02*
X86837472Y-33893186D01*
X86761281Y-33855091D01*
X86646996Y-33855091D01*
X86570805Y-33893186D01*
X86532710Y-33969377D01*
X86532710Y-34388424D01*
X86532710Y-33969377D02*
X86494615Y-33893186D01*
X86418424Y-33855091D01*
X86304139Y-33855091D01*
X86227948Y-33893186D01*
X86189853Y-33969377D01*
X86189853Y-34388424D01*
X85504139Y-34350329D02*
X85580329Y-34388424D01*
X85732710Y-34388424D01*
X85808900Y-34350329D01*
X85846996Y-34274139D01*
X85846996Y-33969377D01*
X85808900Y-33893186D01*
X85732710Y-33855091D01*
X85580329Y-33855091D01*
X85504139Y-33893186D01*
X85466043Y-33969377D01*
X85466043Y-34045567D01*
X85846996Y-34121758D01*
X85199377Y-33855091D02*
X85008900Y-34388424D01*
X84818424Y-33855091D01*
X84513662Y-34388424D02*
X84513662Y-33855091D01*
X84513662Y-34007472D02*
X84475567Y-33931281D01*
X84437472Y-33893186D01*
X84361281Y-33855091D01*
X84285091Y-33855091D01*
X84208900Y-34464615D02*
X83599377Y-34464615D01*
X83408900Y-33855091D02*
X83408900Y-34655091D01*
X83408900Y-33893186D02*
X83332710Y-33855091D01*
X83180329Y-33855091D01*
X83104139Y-33893186D01*
X83066043Y-33931281D01*
X83027948Y-34007472D01*
X83027948Y-34236043D01*
X83066043Y-34312234D01*
X83104139Y-34350329D01*
X83180329Y-34388424D01*
X83332710Y-34388424D01*
X83408900Y-34350329D01*
X82342234Y-34350329D02*
X82418424Y-34388424D01*
X82570805Y-34388424D01*
X82646996Y-34350329D01*
X82685091Y-34312234D01*
X82723186Y-34236043D01*
X82723186Y-34007472D01*
X82685091Y-33931281D01*
X82646996Y-33893186D01*
X82570805Y-33855091D01*
X82418424Y-33855091D01*
X82342234Y-33893186D01*
X81999377Y-34388424D02*
X81999377Y-33588424D01*
X81999377Y-33893186D02*
X81923186Y-33855091D01*
X81770805Y-33855091D01*
X81694615Y-33893186D01*
X81656520Y-33931281D01*
X81618424Y-34007472D01*
X81618424Y-34236043D01*
X81656520Y-34312234D01*
X81694615Y-34350329D01*
X81770805Y-34388424D01*
X81923186Y-34388424D01*
X81999377Y-34350329D01*
D11*
%TO.C,D2*%
X85174615Y-57202900D02*
X85174615Y-56202900D01*
X84936520Y-56202900D01*
X84793662Y-56250520D01*
X84698424Y-56345758D01*
X84650805Y-56440996D01*
X84603186Y-56631472D01*
X84603186Y-56774329D01*
X84650805Y-56964805D01*
X84698424Y-57060043D01*
X84793662Y-57155281D01*
X84936520Y-57202900D01*
X85174615Y-57202900D01*
X84222234Y-56298139D02*
X84174615Y-56250520D01*
X84079377Y-56202900D01*
X83841281Y-56202900D01*
X83746043Y-56250520D01*
X83698424Y-56298139D01*
X83650805Y-56393377D01*
X83650805Y-56488615D01*
X83698424Y-56631472D01*
X84269853Y-57202900D01*
X83650805Y-57202900D01*
%TO.C,JP2*%
X65457853Y-52624900D02*
X65457853Y-53339186D01*
X65505472Y-53482043D01*
X65600710Y-53577281D01*
X65743567Y-53624900D01*
X65838805Y-53624900D01*
X64981662Y-53624900D02*
X64981662Y-52624900D01*
X64600710Y-52624900D01*
X64505472Y-52672520D01*
X64457853Y-52720139D01*
X64410234Y-52815377D01*
X64410234Y-52958234D01*
X64457853Y-53053472D01*
X64505472Y-53101091D01*
X64600710Y-53148710D01*
X64981662Y-53148710D01*
X64029281Y-52720139D02*
X63981662Y-52672520D01*
X63886424Y-52624900D01*
X63648329Y-52624900D01*
X63553091Y-52672520D01*
X63505472Y-52720139D01*
X63457853Y-52815377D01*
X63457853Y-52910615D01*
X63505472Y-53053472D01*
X64076900Y-53624900D01*
X63457853Y-53624900D01*
%TO.C,JP1*%
X69521853Y-52624900D02*
X69521853Y-53339186D01*
X69569472Y-53482043D01*
X69664710Y-53577281D01*
X69807567Y-53624900D01*
X69902805Y-53624900D01*
X69045662Y-53624900D02*
X69045662Y-52624900D01*
X68664710Y-52624900D01*
X68569472Y-52672520D01*
X68521853Y-52720139D01*
X68474234Y-52815377D01*
X68474234Y-52958234D01*
X68521853Y-53053472D01*
X68569472Y-53101091D01*
X68664710Y-53148710D01*
X69045662Y-53148710D01*
X67521853Y-53624900D02*
X68093281Y-53624900D01*
X67807567Y-53624900D02*
X67807567Y-52624900D01*
X67902805Y-52767758D01*
X67998043Y-52862996D01*
X68093281Y-52910615D01*
%TO.C,J1*%
X67497853Y-57044900D02*
X67497853Y-57759186D01*
X67545472Y-57902043D01*
X67640710Y-57997281D01*
X67783567Y-58044900D01*
X67878805Y-58044900D01*
X66497853Y-58044900D02*
X67069281Y-58044900D01*
X66783567Y-58044900D02*
X66783567Y-57044900D01*
X66878805Y-57187758D01*
X66974043Y-57282996D01*
X67069281Y-57330615D01*
%TO.C,D1*%
X80348615Y-60504900D02*
X80348615Y-59504900D01*
X80110520Y-59504900D01*
X79967662Y-59552520D01*
X79872424Y-59647758D01*
X79824805Y-59742996D01*
X79777186Y-59933472D01*
X79777186Y-60076329D01*
X79824805Y-60266805D01*
X79872424Y-60362043D01*
X79967662Y-60457281D01*
X80110520Y-60504900D01*
X80348615Y-60504900D01*
X78824805Y-60504900D02*
X79396234Y-60504900D01*
X79110520Y-60504900D02*
X79110520Y-59504900D01*
X79205758Y-59647758D01*
X79300996Y-59742996D01*
X79396234Y-59790615D01*
%TO.C,SW1*%
X56683853Y-57619281D02*
X56540996Y-57666900D01*
X56302900Y-57666900D01*
X56207662Y-57619281D01*
X56160043Y-57571662D01*
X56112424Y-57476424D01*
X56112424Y-57381186D01*
X56160043Y-57285948D01*
X56207662Y-57238329D01*
X56302900Y-57190710D01*
X56493377Y-57143091D01*
X56588615Y-57095472D01*
X56636234Y-57047853D01*
X56683853Y-56952615D01*
X56683853Y-56857377D01*
X56636234Y-56762139D01*
X56588615Y-56714520D01*
X56493377Y-56666900D01*
X56255281Y-56666900D01*
X56112424Y-56714520D01*
X55779091Y-56666900D02*
X55540996Y-57666900D01*
X55350520Y-56952615D01*
X55160043Y-57666900D01*
X54921948Y-56666900D01*
X54017186Y-57666900D02*
X54588615Y-57666900D01*
X54302900Y-57666900D02*
X54302900Y-56666900D01*
X54398139Y-56809758D01*
X54493377Y-56904996D01*
X54588615Y-56952615D01*
%TO.C,BT1*%
X93335091Y-57234805D02*
X93382710Y-57377662D01*
X93430329Y-57425281D01*
X93525567Y-57472900D01*
X93668424Y-57472900D01*
X93763662Y-57425281D01*
X93811281Y-57377662D01*
X93858900Y-57282424D01*
X93858900Y-56901472D01*
X92858900Y-56901472D01*
X92858900Y-57234805D01*
X92906520Y-57330043D01*
X92954139Y-57377662D01*
X93049377Y-57425281D01*
X93144615Y-57425281D01*
X93239853Y-57377662D01*
X93287472Y-57330043D01*
X93335091Y-57234805D01*
X93335091Y-56901472D01*
X92858900Y-57758615D02*
X92858900Y-58330043D01*
X93858900Y-58044329D02*
X92858900Y-58044329D01*
X93858900Y-59187186D02*
X93858900Y-58615758D01*
X93858900Y-58901472D02*
X92858900Y-58901472D01*
X93001758Y-58806234D01*
X93096996Y-58710996D01*
X93144615Y-58615758D01*
D12*
%TO.C,D2*%
X86390520Y-55280520D02*
X86390520Y-58220520D01*
X81970520Y-55280520D02*
X87410520Y-55280520D01*
X86510520Y-55280520D02*
X86510520Y-58220520D01*
X88430520Y-56750520D02*
X87410520Y-56750520D01*
X80950520Y-56750520D02*
X81970520Y-56750520D01*
X81970520Y-58220520D02*
X81970520Y-55280520D01*
X86630520Y-55280520D02*
X86630520Y-58220520D01*
X87410520Y-55280520D02*
X87410520Y-58220520D01*
X87410520Y-58220520D02*
X81970520Y-58220520D01*
%TO.C,JP2*%
X63224520Y-55972520D02*
X66024520Y-55972520D01*
X66024520Y-53972520D02*
X63224520Y-53972520D01*
X66024520Y-55972520D02*
X66024520Y-53972520D01*
X63224520Y-53972520D02*
X63224520Y-55972520D01*
%TO.C,JP1*%
X70088520Y-53972520D02*
X67288520Y-53972520D01*
X67288520Y-53972520D02*
X67288520Y-55972520D01*
X67288520Y-55972520D02*
X70088520Y-55972520D01*
X70088520Y-55972520D02*
X70088520Y-53972520D01*
%TO.C,J1*%
X61104520Y-66502520D02*
X61104520Y-58682520D01*
X62864520Y-62642520D02*
X61864520Y-62642520D01*
X71464520Y-62642520D02*
X72464520Y-62642520D01*
X71464520Y-64242520D02*
X71464520Y-62642520D01*
X72464520Y-62642520D02*
X72464520Y-64242520D01*
X72304520Y-60282520D02*
X72304520Y-58682520D01*
X73224520Y-58682520D02*
X73224520Y-66502520D01*
X73224520Y-60282520D02*
X72304520Y-60282520D01*
X62864520Y-64242520D02*
X62864520Y-62642520D01*
X70664520Y-66502520D02*
X70664520Y-62142520D01*
X61864520Y-62642520D02*
X61864520Y-64242520D01*
X70664520Y-62142520D02*
X63664520Y-62142520D01*
X72304520Y-58682520D02*
X73224520Y-58682520D01*
X71964520Y-64242520D02*
X71964520Y-66502520D01*
X72464520Y-64242520D02*
X71464520Y-64242520D01*
X72024520Y-60282520D02*
X72024520Y-59067520D01*
X63664520Y-62142520D02*
X63664520Y-66502520D01*
X61104520Y-58682520D02*
X62024520Y-58682520D01*
X73224520Y-66502520D02*
X61104520Y-66502520D01*
X71464520Y-64242520D02*
X71464520Y-66502520D01*
X62024520Y-60282520D02*
X62304520Y-60282520D01*
X61864520Y-64242520D02*
X62864520Y-64242520D01*
X72024520Y-60282520D02*
X72304520Y-60282520D01*
X62024520Y-58682520D02*
X62024520Y-60282520D01*
X61104520Y-60282520D02*
X62024520Y-60282520D01*
%TO.C,D1*%
X77398520Y-61522520D02*
X77398520Y-58582520D01*
X81818520Y-58582520D02*
X81818520Y-61522520D01*
X77398520Y-58582520D02*
X82838520Y-58582520D01*
X81938520Y-58582520D02*
X81938520Y-61522520D01*
X76378520Y-60052520D02*
X77398520Y-60052520D01*
X82838520Y-61522520D02*
X77398520Y-61522520D01*
X82058520Y-58582520D02*
X82058520Y-61522520D01*
X82838520Y-58582520D02*
X82838520Y-61522520D01*
X83858520Y-60052520D02*
X82838520Y-60052520D01*
D11*
%TO.C,SW1*%
X59050520Y-58514520D02*
X50450520Y-58514520D01*
X52750520Y-63114520D02*
X50450520Y-63114520D01*
X59050520Y-63114520D02*
X56850520Y-63114520D01*
D12*
%TO.C,BT1*%
X96096520Y-54960520D02*
X96096520Y-55880520D01*
X96096520Y-55880520D02*
X94496520Y-55880520D01*
X98456520Y-56720520D02*
X98456520Y-55720520D01*
X102316520Y-57520520D02*
X97956520Y-57520520D01*
X100056520Y-55720520D02*
X100056520Y-56720520D01*
X100056520Y-56720520D02*
X98456520Y-56720520D01*
X94496520Y-61080520D02*
X94496520Y-60160520D01*
X96096520Y-56160520D02*
X94881520Y-56160520D01*
X102316520Y-61080520D02*
X94496520Y-61080520D01*
X94496520Y-55880520D02*
X94496520Y-54960520D01*
X96096520Y-56160520D02*
X96096520Y-55880520D01*
X102316520Y-54960520D02*
X102316520Y-61080520D01*
X94496520Y-60160520D02*
X96096520Y-60160520D01*
X100056520Y-59320520D02*
X98456520Y-59320520D01*
X98456520Y-59320520D02*
X98456520Y-60320520D01*
X94496520Y-54960520D02*
X102316520Y-54960520D01*
X96096520Y-61080520D02*
X96096520Y-60160520D01*
X97956520Y-57520520D02*
X97956520Y-58520520D01*
X97956520Y-58520520D02*
X102316520Y-58520520D01*
X98456520Y-55720520D02*
X100056520Y-55720520D01*
X100056520Y-56220520D02*
X102316520Y-56220520D01*
X96096520Y-60160520D02*
X96096520Y-59880520D01*
X98456520Y-60320520D02*
X100056520Y-60320520D01*
X100056520Y-60320520D02*
X100056520Y-59320520D01*
X100056520Y-56720520D02*
X102316520Y-56720520D01*
%TD*%
%LPC*%
D13*
%TO.C,R1*%
X76816520Y-57258520D03*
D14*
X76816520Y-47098520D03*
%TD*%
D15*
%TO.C,U3*%
X89506048Y-62860980D03*
X102206048Y-62860980D03*
X92046048Y-62860980D03*
X99793048Y-62860980D03*
D16*
X79346048Y-62860980D03*
D15*
X81886048Y-62860980D03*
X84426048Y-62860980D03*
X86966048Y-62860980D03*
X94586048Y-62860980D03*
X97126048Y-62860980D03*
%TD*%
D17*
%TO.C,U2*%
X50631520Y-38208520D03*
D18*
X50631520Y-40748520D03*
X50631520Y-43288520D03*
X50631520Y-45828520D03*
X50631520Y-48368520D03*
X50631520Y-50908520D03*
X50631520Y-53448520D03*
X50631520Y-55988520D03*
X73491520Y-55988520D03*
X73491520Y-53448520D03*
X73491520Y-50908520D03*
X73491520Y-48368520D03*
X73491520Y-45828520D03*
X73491520Y-43288520D03*
X73491520Y-40748520D03*
X73491520Y-38208520D03*
%TD*%
D17*
%TO.C,U1*%
X101641026Y-44670590D03*
X101641026Y-30700590D03*
X78781026Y-30700590D03*
X78781026Y-33748590D03*
X78781026Y-41622590D03*
X78781026Y-44670590D03*
%TD*%
D19*
%TO.C,D2*%
X89770520Y-56750520D03*
D20*
X79610520Y-56750520D03*
%TD*%
D21*
%TO.C,JP2*%
X65274520Y-54972520D03*
X63974520Y-54972520D03*
%TD*%
%TO.C,JP1*%
X69338520Y-54972520D03*
X68038520Y-54972520D03*
%TD*%
D22*
%TO.C,J1*%
X71164520Y-60142520D03*
D23*
X69164520Y-60142520D03*
X67164520Y-60142520D03*
X65164520Y-60142520D03*
X63164520Y-60142520D03*
%TD*%
D19*
%TO.C,D1*%
X85198520Y-60052520D03*
D20*
X75038520Y-60052520D03*
%TD*%
D24*
%TO.C,SW1*%
X58850520Y-60814520D03*
X50650520Y-60814520D03*
D25*
X56750520Y-60814520D03*
D26*
X54750520Y-60814520D03*
X52750520Y-60814520D03*
%TD*%
D27*
%TO.C,BT1*%
X95956520Y-57020520D03*
D28*
X95956520Y-59020520D03*
%TD*%
M02*
