%TF.GenerationSoftware,KiCad,Pcbnew,(6.0.2)*%
%TF.CreationDate,2022-02-27T07:15:14-05:00*%
%TF.ProjectId,breakout_slime,62726561-6b6f-4757-945f-736c696d652e,0.1*%
%TF.SameCoordinates,Original*%
%TF.FileFunction,Soldermask,Bot*%
%TF.FilePolarity,Negative*%
%FSLAX46Y46*%
G04 Gerber Fmt 4.6, Leading zero omitted, Abs format (unit mm)*
G04 Created by KiCad (PCBNEW (6.0.2)) date 2022-02-27 07:15:14*
%MOMM*%
%LPD*%
G01*
G04 APERTURE LIST*
G04 Aperture macros list*
%AMRoundRect*
0 Rectangle with rounded corners*
0 $1 Rounding radius*
0 $2 $3 $4 $5 $6 $7 $8 $9 X,Y pos of 4 corners*
0 Add a 4 corners polygon primitive as box body*
4,1,4,$2,$3,$4,$5,$6,$7,$8,$9,$2,$3,0*
0 Add four circle primitives for the rounded corners*
1,1,$1+$1,$2,$3*
1,1,$1+$1,$4,$5*
1,1,$1+$1,$6,$7*
1,1,$1+$1,$8,$9*
0 Add four rect primitives between the rounded corners*
20,1,$1+$1,$2,$3,$4,$5,0*
20,1,$1+$1,$4,$5,$6,$7,0*
20,1,$1+$1,$6,$7,$8,$9,0*
20,1,$1+$1,$8,$9,$2,$3,0*%
G04 Aperture macros list end*
%ADD10C,1.600000*%
%ADD11O,1.600000X1.600000*%
%ADD12C,1.651000*%
%ADD13R,1.651000X1.651000*%
%ADD14R,2.000000X2.000000*%
%ADD15O,2.000000X1.600000*%
%ADD16R,2.200000X2.200000*%
%ADD17O,2.200000X2.200000*%
%ADD18R,1.000000X1.500000*%
%ADD19RoundRect,0.250000X0.350000X0.625000X-0.350000X0.625000X-0.350000X-0.625000X0.350000X-0.625000X0*%
%ADD20O,1.200000X1.750000*%
%ADD21O,2.200000X3.500000*%
%ADD22R,1.500000X2.500000*%
%ADD23O,1.500000X2.500000*%
%ADD24RoundRect,0.250000X-0.625000X0.350000X-0.625000X-0.350000X0.625000X-0.350000X0.625000X0.350000X0*%
%ADD25O,1.750000X1.200000*%
G04 APERTURE END LIST*
D10*
%TO.C,R1*%
X76816520Y-57258520D03*
D11*
X76816520Y-47098520D03*
%TD*%
D12*
%TO.C,U3*%
X89506048Y-62860980D03*
X102206048Y-62860980D03*
X92046048Y-62860980D03*
X99793048Y-62860980D03*
D13*
X79346048Y-62860980D03*
D12*
X81886048Y-62860980D03*
X84426048Y-62860980D03*
X86966048Y-62860980D03*
X94586048Y-62860980D03*
X97126048Y-62860980D03*
%TD*%
D14*
%TO.C,U2*%
X50631520Y-38208520D03*
D15*
X50631520Y-40748520D03*
X50631520Y-43288520D03*
X50631520Y-45828520D03*
X50631520Y-48368520D03*
X50631520Y-50908520D03*
X50631520Y-53448520D03*
X50631520Y-55988520D03*
X73491520Y-55988520D03*
X73491520Y-53448520D03*
X73491520Y-50908520D03*
X73491520Y-48368520D03*
X73491520Y-45828520D03*
X73491520Y-43288520D03*
X73491520Y-40748520D03*
X73491520Y-38208520D03*
%TD*%
D14*
%TO.C,U1*%
X101641026Y-44670590D03*
X101641026Y-30700590D03*
X78781026Y-30700590D03*
X78781026Y-33748590D03*
X78781026Y-41622590D03*
X78781026Y-44670590D03*
%TD*%
D16*
%TO.C,D2*%
X89770520Y-56750520D03*
D17*
X79610520Y-56750520D03*
%TD*%
D18*
%TO.C,JP2*%
X65274520Y-54972520D03*
X63974520Y-54972520D03*
%TD*%
%TO.C,JP1*%
X69338520Y-54972520D03*
X68038520Y-54972520D03*
%TD*%
D19*
%TO.C,J1*%
X71164520Y-60142520D03*
D20*
X69164520Y-60142520D03*
X67164520Y-60142520D03*
X65164520Y-60142520D03*
X63164520Y-60142520D03*
%TD*%
D16*
%TO.C,D1*%
X85198520Y-60052520D03*
D17*
X75038520Y-60052520D03*
%TD*%
D21*
%TO.C,SW1*%
X58850520Y-60814520D03*
X50650520Y-60814520D03*
D22*
X56750520Y-60814520D03*
D23*
X54750520Y-60814520D03*
X52750520Y-60814520D03*
%TD*%
D24*
%TO.C,BT1*%
X95956520Y-57020520D03*
D25*
X95956520Y-59020520D03*
%TD*%
M02*
