%TF.GenerationSoftware,KiCad,Pcbnew,(6.0.2)*%
%TF.CreationDate,2022-02-27T07:15:14-05:00*%
%TF.ProjectId,breakout_slime,62726561-6b6f-4757-945f-736c696d652e,0.1*%
%TF.SameCoordinates,Original*%
%TF.FileFunction,Copper,L1,Top*%
%TF.FilePolarity,Positive*%
%FSLAX46Y46*%
G04 Gerber Fmt 4.6, Leading zero omitted, Abs format (unit mm)*
G04 Created by KiCad (PCBNEW (6.0.2)) date 2022-02-27 07:15:14*
%MOMM*%
%LPD*%
G01*
G04 APERTURE LIST*
G04 Aperture macros list*
%AMRoundRect*
0 Rectangle with rounded corners*
0 $1 Rounding radius*
0 $2 $3 $4 $5 $6 $7 $8 $9 X,Y pos of 4 corners*
0 Add a 4 corners polygon primitive as box body*
4,1,4,$2,$3,$4,$5,$6,$7,$8,$9,$2,$3,0*
0 Add four circle primitives for the rounded corners*
1,1,$1+$1,$2,$3*
1,1,$1+$1,$4,$5*
1,1,$1+$1,$6,$7*
1,1,$1+$1,$8,$9*
0 Add four rect primitives between the rounded corners*
20,1,$1+$1,$2,$3,$4,$5,0*
20,1,$1+$1,$4,$5,$6,$7,0*
20,1,$1+$1,$6,$7,$8,$9,0*
20,1,$1+$1,$8,$9,$2,$3,0*%
G04 Aperture macros list end*
%TA.AperFunction,ComponentPad*%
%ADD10C,1.600000*%
%TD*%
%TA.AperFunction,ComponentPad*%
%ADD11O,1.600000X1.600000*%
%TD*%
%TA.AperFunction,ComponentPad*%
%ADD12C,1.651000*%
%TD*%
%TA.AperFunction,ComponentPad*%
%ADD13R,1.651000X1.651000*%
%TD*%
%TA.AperFunction,ComponentPad*%
%ADD14R,2.000000X2.000000*%
%TD*%
%TA.AperFunction,ComponentPad*%
%ADD15O,2.000000X1.600000*%
%TD*%
%TA.AperFunction,ComponentPad*%
%ADD16R,2.200000X2.200000*%
%TD*%
%TA.AperFunction,ComponentPad*%
%ADD17O,2.200000X2.200000*%
%TD*%
%TA.AperFunction,ComponentPad*%
%ADD18RoundRect,0.250000X0.350000X0.625000X-0.350000X0.625000X-0.350000X-0.625000X0.350000X-0.625000X0*%
%TD*%
%TA.AperFunction,ComponentPad*%
%ADD19O,1.200000X1.750000*%
%TD*%
%TA.AperFunction,ComponentPad*%
%ADD20O,2.200000X3.500000*%
%TD*%
%TA.AperFunction,ComponentPad*%
%ADD21R,1.500000X2.500000*%
%TD*%
%TA.AperFunction,ComponentPad*%
%ADD22O,1.500000X2.500000*%
%TD*%
%TA.AperFunction,ComponentPad*%
%ADD23RoundRect,0.250000X-0.625000X0.350000X-0.625000X-0.350000X0.625000X-0.350000X0.625000X0.350000X0*%
%TD*%
%TA.AperFunction,ComponentPad*%
%ADD24O,1.750000X1.200000*%
%TD*%
%TA.AperFunction,ViaPad*%
%ADD25C,0.800000*%
%TD*%
%TA.AperFunction,Conductor*%
%ADD26C,0.500000*%
%TD*%
%TA.AperFunction,Conductor*%
%ADD27C,0.250000*%
%TD*%
G04 APERTURE END LIST*
D10*
%TO.P,R1,1*%
%TO.N,Net-(R1-Pad1)*%
X76816520Y-57258520D03*
D11*
%TO.P,R1,2*%
%TO.N,/B+*%
X76816520Y-47098520D03*
%TD*%
D12*
%TO.P,U3,*%
%TO.N,*%
X89506048Y-62860980D03*
X102206048Y-62860980D03*
X92046048Y-62860980D03*
X99793048Y-62860980D03*
D13*
%TO.P,U3,1,VCC*%
%TO.N,+3V3*%
X79346048Y-62860980D03*
D12*
%TO.P,U3,2,GND*%
%TO.N,GND*%
X81886048Y-62860980D03*
%TO.P,U3,3,SCL*%
%TO.N,/SCL*%
X84426048Y-62860980D03*
%TO.P,U3,4,SDA*%
%TO.N,/SDA*%
X86966048Y-62860980D03*
%TO.P,U3,5,AD0_BNO*%
%TO.N,Net-(JP1-Pad1)*%
X94586048Y-62860980D03*
%TO.P,U3,6,INT/AD0_MPU*%
%TO.N,/INT1*%
X97126048Y-62860980D03*
%TD*%
D14*
%TO.P,U2,1,~{RST}*%
%TO.N,unconnected-(U2-Pad1)*%
X50631520Y-38208520D03*
D15*
%TO.P,U2,2,A0*%
%TO.N,Net-(R1-Pad1)*%
X50631520Y-40748520D03*
%TO.P,U2,3,D0*%
%TO.N,unconnected-(U2-Pad3)*%
X50631520Y-43288520D03*
%TO.P,U2,4,SCK/D5*%
%TO.N,/INT1*%
X50631520Y-45828520D03*
%TO.P,U2,5,MISO/D6*%
%TO.N,/INT2*%
X50631520Y-48368520D03*
%TO.P,U2,6,MOSI/D7*%
%TO.N,unconnected-(U2-Pad6)*%
X50631520Y-50908520D03*
%TO.P,U2,7,CS/D8*%
%TO.N,unconnected-(U2-Pad7)*%
X50631520Y-53448520D03*
%TO.P,U2,8,3V3*%
%TO.N,+3V3*%
X50631520Y-55988520D03*
%TO.P,U2,9,5V*%
%TO.N,/5V*%
X73491520Y-55988520D03*
%TO.P,U2,10,GND*%
%TO.N,GND*%
X73491520Y-53448520D03*
%TO.P,U2,11,D4*%
%TO.N,unconnected-(U2-Pad11)*%
X73491520Y-50908520D03*
%TO.P,U2,12,D3*%
%TO.N,unconnected-(U2-Pad12)*%
X73491520Y-48368520D03*
%TO.P,U2,13,SDA/D2*%
%TO.N,/SDA*%
X73491520Y-45828520D03*
%TO.P,U2,14,SCL/D1*%
%TO.N,/SCL*%
X73491520Y-43288520D03*
%TO.P,U2,15,RX*%
%TO.N,unconnected-(U2-Pad15)*%
X73491520Y-40748520D03*
%TO.P,U2,16,TX*%
%TO.N,unconnected-(U2-Pad16)*%
X73491520Y-38208520D03*
%TD*%
D14*
%TO.P,U1,1,In+*%
%TO.N,Net-(D1-Pad2)*%
X101641026Y-44670590D03*
%TO.P,U1,2,In-*%
%TO.N,unconnected-(U1-Pad2)*%
X101641026Y-30700590D03*
%TO.P,U1,3,Out-*%
%TO.N,Net-(SW1-Pad3)*%
X78781026Y-30700590D03*
%TO.P,U1,4,B-*%
%TO.N,Net-(BT1-Pad2)*%
X78781026Y-33748590D03*
%TO.P,U1,5,B+*%
%TO.N,/B+*%
X78781026Y-41622590D03*
%TO.P,U1,6,Out+*%
%TO.N,Net-(D2-Pad2)*%
X78781026Y-44670590D03*
%TD*%
D16*
%TO.P,D2,1,K*%
%TO.N,/5V*%
X89770520Y-56750520D03*
D17*
%TO.P,D2,2,A*%
%TO.N,Net-(D2-Pad2)*%
X79610520Y-56750520D03*
%TD*%
D18*
%TO.P,J1,1,Pin_1*%
%TO.N,/SDA*%
X71164520Y-60142520D03*
D19*
%TO.P,J1,2,Pin_2*%
%TO.N,+3V3*%
X69164520Y-60142520D03*
%TO.P,J1,3,Pin_3*%
%TO.N,/INT2*%
X67164520Y-60142520D03*
%TO.P,J1,4,Pin_4*%
%TO.N,GND*%
X65164520Y-60142520D03*
%TO.P,J1,5,Pin_5*%
%TO.N,/SCL*%
X63164520Y-60142520D03*
%TD*%
D16*
%TO.P,D1,1,K*%
%TO.N,/5V*%
X85198520Y-60052520D03*
D17*
%TO.P,D1,2,A*%
%TO.N,Net-(D1-Pad2)*%
X75038520Y-60052520D03*
%TD*%
D20*
%TO.P,SW1,*%
%TO.N,*%
X58850520Y-60814520D03*
X50650520Y-60814520D03*
D21*
%TO.P,SW1,1,A*%
%TO.N,unconnected-(SW1-Pad1)*%
X56750520Y-60814520D03*
D22*
%TO.P,SW1,2,B*%
%TO.N,GND*%
X54750520Y-60814520D03*
%TO.P,SW1,3,C*%
%TO.N,Net-(SW1-Pad3)*%
X52750520Y-60814520D03*
%TD*%
D23*
%TO.P,BT1,1,+*%
%TO.N,/B+*%
X95956520Y-57020520D03*
D24*
%TO.P,BT1,2,-*%
%TO.N,Net-(BT1-Pad2)*%
X95956520Y-59020520D03*
%TD*%
D25*
%TO.N,Net-(D1-Pad2)*%
X88754520Y-49130520D03*
X83166520Y-56496520D03*
%TO.N,+3V3*%
X69196520Y-51416520D03*
%TO.N,GND*%
X80880520Y-60814520D03*
X77070520Y-50654520D03*
%TO.N,/INT1*%
X65386520Y-51670520D03*
%TO.N,Net-(R1-Pad1)*%
X76816520Y-52686520D03*
%TO.N,Net-(SW1-Pad3)*%
X52750520Y-51226520D03*
X52750520Y-43617209D03*
%TD*%
D26*
%TO.N,Net-(D1-Pad2)*%
X93214450Y-44670590D02*
X88754520Y-49130520D01*
X101641026Y-44670590D02*
X93214450Y-44670590D01*
X83166520Y-56496520D02*
X79610520Y-60052520D01*
X79610520Y-60052520D02*
X75038520Y-60052520D01*
D27*
%TO.N,/SDA*%
X76816520Y-49384520D02*
X78594520Y-49384520D01*
X72244520Y-45828520D02*
X73491520Y-45828520D01*
X84944520Y-53956520D02*
X86966048Y-55978048D01*
X71164520Y-46908520D02*
X72244520Y-45828520D01*
X86966048Y-55978048D02*
X86966048Y-62860980D01*
X71164520Y-60142520D02*
X71164520Y-46908520D01*
X78594520Y-49384520D02*
X83166520Y-53956520D01*
X73491520Y-46059520D02*
X76816520Y-49384520D01*
X83166520Y-53956520D02*
X84944520Y-53956520D01*
D26*
%TO.N,+3V3*%
X69164520Y-51448520D02*
X69164520Y-60142520D01*
X69196520Y-51416520D02*
X69164520Y-51448520D01*
D27*
%TO.N,/INT2*%
X50631520Y-48368520D02*
X57004520Y-48368520D01*
X59798520Y-51162520D02*
X59798520Y-57004520D01*
X57004520Y-48368520D02*
X59798520Y-51162520D01*
X59798520Y-57004520D02*
X61068520Y-58274520D01*
X67164520Y-60142520D02*
X65296520Y-58274520D01*
X61068520Y-58274520D02*
X65296520Y-58274520D01*
D26*
%TO.N,GND*%
X84016031Y-57933009D02*
X81134520Y-60814520D01*
X81134520Y-60814520D02*
X80880520Y-60814520D01*
X78525911Y-50654520D02*
X84016031Y-56144640D01*
X77070520Y-50654520D02*
X78525911Y-50654520D01*
X84016031Y-56144640D02*
X84016031Y-57933009D01*
D27*
%TO.N,/SCL*%
X70212520Y-61576520D02*
X69196520Y-62592520D01*
X65614520Y-62592520D02*
X69196520Y-62592520D01*
X83141588Y-61576520D02*
X70212520Y-61576520D01*
X68240000Y-48540040D02*
X73491520Y-43288520D01*
X84426048Y-62860980D02*
X83141588Y-61576520D01*
X69196520Y-62592520D02*
X68240000Y-61636000D01*
X63164520Y-60142520D02*
X65614520Y-62592520D01*
X68240000Y-61636000D02*
X68240000Y-48540040D01*
%TO.N,/INT1*%
X65132520Y-51416520D02*
X65386520Y-51670520D01*
X87738520Y-49638520D02*
X81099934Y-49638520D01*
X50631520Y-45828520D02*
X59544520Y-45828520D01*
X92818520Y-54718520D02*
X87738520Y-49638520D01*
X97126048Y-62860980D02*
X92806054Y-58540986D01*
X63209040Y-42164000D02*
X59544520Y-45828520D01*
X92818520Y-58528520D02*
X92806054Y-58540986D01*
X92818520Y-54718520D02*
X92818520Y-58528520D01*
X59544520Y-45828520D02*
X65132520Y-51416520D01*
X81099934Y-49638520D02*
X77456515Y-45995101D01*
X74168000Y-42164000D02*
X63209040Y-42164000D01*
X77456515Y-45452515D02*
X74168000Y-42164000D01*
X77456515Y-45995101D02*
X77456515Y-45452515D01*
%TO.N,Net-(R1-Pad1)*%
X76816520Y-57258520D02*
X76816520Y-52686520D01*
%TO.N,Net-(SW1-Pad3)*%
X52750520Y-60814520D02*
X52750520Y-51226520D01*
X76562520Y-35922520D02*
X75401040Y-37084000D01*
X57367040Y-37084000D02*
X52750520Y-41700520D01*
X52750520Y-41700520D02*
X52750520Y-43617209D01*
X78736450Y-30700590D02*
X76562520Y-32874520D01*
X75401040Y-37084000D02*
X57367040Y-37084000D01*
X76562520Y-32874520D02*
X76562520Y-35922520D01*
%TD*%
M02*
