%FSLAX45Y45*%
G04 Gerber Fmt 4.5, Leading zero omitted, Abs format (unit mm)*
G04 Created by KiCad (PCBNEW (6.0.2)) date 2022-02-27 07:15:40*
%MOMM*%
%LPD*%
G01*
G04 APERTURE LIST*
%TA.AperFunction,Profile*%
%ADD10C,0.100000*%
%TD*%
%ADD11C,0.200000*%
%ADD12C,0.040000*%
%ADD13C,0.075000*%
%ADD14C,0.080000*%
%ADD15C,0.088900*%
%ADD16C,0.090000*%
%ADD17C,0.100000*%
%ADD18C,0.110000*%
%ADD19C,0.150000*%
G04 APERTURE END LIST*
D10*
X10348652Y-2881052D02*
X4887652Y-2881052D01*
X4887652Y-2881052D02*
X4887652Y-6437052D01*
X4887652Y-6437052D02*
X10348652Y-6437052D01*
X10348652Y-6437052D02*
X10348652Y-2881052D01*
D11*
D12*
X5255052Y-4341721D02*
X5295052Y-4381721D01*
X5295052Y-4341721D02*
X5255052Y-4381721D01*
X5255052Y-5102652D02*
X5295052Y-5142652D01*
X5295052Y-5102652D02*
X5255052Y-5142652D01*
X6518652Y-5147052D02*
X6558652Y-5187052D01*
X6558652Y-5147052D02*
X6518652Y-5187052D01*
X6899652Y-5121652D02*
X6939652Y-5161652D01*
X6939652Y-5121652D02*
X6899652Y-5161652D01*
X7661652Y-5248652D02*
X7701652Y-5288652D01*
X7701652Y-5248652D02*
X7661652Y-5288652D01*
X7687052Y-5045452D02*
X7727052Y-5085452D01*
X7727052Y-5045452D02*
X7687052Y-5085452D01*
X8068052Y-6061452D02*
X8108052Y-6101452D01*
X8108052Y-6061452D02*
X8068052Y-6101452D01*
X8296652Y-5629652D02*
X8336652Y-5669652D01*
X8336652Y-5629652D02*
X8296652Y-5669652D01*
X8855452Y-4893052D02*
X8895452Y-4933052D01*
X8895452Y-4893052D02*
X8855452Y-4933052D01*
D13*
X6353952Y-6014252D02*
G75*
G03*
X6353952Y-6014252I-37500J0D01*
G01*
X6553952Y-6014252D02*
G75*
G03*
X6553952Y-6014252I-37500J0D01*
G01*
X6753952Y-6014252D02*
G75*
G03*
X6753952Y-6014252I-37500J0D01*
G01*
X6953952Y-6014252D02*
G75*
G03*
X6953952Y-6014252I-37500J0D01*
G01*
X7153952Y-6014252D02*
G75*
G03*
X7153952Y-6014252I-37500J0D01*
G01*
X9633152Y-5702052D02*
G75*
G03*
X9633152Y-5702052I-37500J0D01*
G01*
X9633152Y-5902052D02*
G75*
G03*
X9633152Y-5902052I-37500J0D01*
G01*
D14*
X7681652Y-4669852D02*
X7681652Y-4749852D01*
X7641652Y-4709852D02*
X7721652Y-4709852D01*
X7681652Y-5685852D02*
X7681652Y-5765852D01*
X7641652Y-5725852D02*
X7721652Y-5725852D01*
D15*
X7966036Y-6317529D02*
X7966036Y-6254667D01*
X7903174Y-6254667D01*
X7903174Y-6317529D01*
X7966036Y-6317529D01*
X8220036Y-6317529D02*
X8220036Y-6254667D01*
X8157174Y-6254667D01*
X8157174Y-6317529D01*
X8220036Y-6317529D01*
X8474036Y-6317529D02*
X8474036Y-6254667D01*
X8411174Y-6254667D01*
X8411174Y-6317529D01*
X8474036Y-6317529D01*
X8728036Y-6317529D02*
X8728036Y-6254667D01*
X8665174Y-6254667D01*
X8665174Y-6317529D01*
X8728036Y-6317529D01*
X8982036Y-6317529D02*
X8982036Y-6254667D01*
X8919174Y-6254667D01*
X8919174Y-6317529D01*
X8982036Y-6317529D01*
X9236036Y-6317529D02*
X9236036Y-6254667D01*
X9173174Y-6254667D01*
X9173174Y-6317529D01*
X9236036Y-6317529D01*
X9490036Y-6317529D02*
X9490036Y-6254667D01*
X9427174Y-6254667D01*
X9427174Y-6317529D01*
X9490036Y-6317529D01*
X9744036Y-6317529D02*
X9744036Y-6254667D01*
X9681174Y-6254667D01*
X9681174Y-6317529D01*
X9744036Y-6317529D01*
X10010736Y-6317529D02*
X10010736Y-6254667D01*
X9947874Y-6254667D01*
X9947874Y-6317529D01*
X10010736Y-6317529D01*
X10252036Y-6317529D02*
X10252036Y-6254667D01*
X10189174Y-6254667D01*
X10189174Y-6317529D01*
X10252036Y-6317529D01*
D16*
X5275052Y-6126452D02*
X5320052Y-6081452D01*
X5275052Y-6036452D01*
X5230052Y-6081452D01*
X5275052Y-6126452D01*
X5475052Y-6126452D02*
X5520052Y-6081452D01*
X5475052Y-6036452D01*
X5430052Y-6081452D01*
X5475052Y-6126452D01*
X5675052Y-6126452D02*
X5720052Y-6081452D01*
X5675052Y-6036452D01*
X5630052Y-6081452D01*
X5675052Y-6126452D01*
D17*
X5013152Y-3770852D02*
X5113152Y-3870852D01*
X5113152Y-3770852D02*
X5013152Y-3870852D01*
X5113152Y-3820852D02*
G75*
G03*
X5113152Y-3820852I-50000J0D01*
G01*
X5013152Y-4024852D02*
X5113152Y-4124852D01*
X5113152Y-4024852D02*
X5013152Y-4124852D01*
X5113152Y-4074852D02*
G75*
G03*
X5113152Y-4074852I-50000J0D01*
G01*
X5013152Y-4278852D02*
X5113152Y-4378852D01*
X5113152Y-4278852D02*
X5013152Y-4378852D01*
X5113152Y-4328852D02*
G75*
G03*
X5113152Y-4328852I-50000J0D01*
G01*
X5013152Y-4532852D02*
X5113152Y-4632852D01*
X5113152Y-4532852D02*
X5013152Y-4632852D01*
X5113152Y-4582852D02*
G75*
G03*
X5113152Y-4582852I-50000J0D01*
G01*
X5013152Y-4786852D02*
X5113152Y-4886852D01*
X5113152Y-4786852D02*
X5013152Y-4886852D01*
X5113152Y-4836852D02*
G75*
G03*
X5113152Y-4836852I-50000J0D01*
G01*
X5013152Y-5040852D02*
X5113152Y-5140852D01*
X5113152Y-5040852D02*
X5013152Y-5140852D01*
X5113152Y-5090852D02*
G75*
G03*
X5113152Y-5090852I-50000J0D01*
G01*
X5013152Y-5294852D02*
X5113152Y-5394852D01*
X5113152Y-5294852D02*
X5013152Y-5394852D01*
X5113152Y-5344852D02*
G75*
G03*
X5113152Y-5344852I-50000J0D01*
G01*
X5013152Y-5548852D02*
X5113152Y-5648852D01*
X5113152Y-5548852D02*
X5013152Y-5648852D01*
X5113152Y-5598852D02*
G75*
G03*
X5113152Y-5598852I-50000J0D01*
G01*
X7299152Y-3770852D02*
X7399152Y-3870852D01*
X7399152Y-3770852D02*
X7299152Y-3870852D01*
X7399152Y-3820852D02*
G75*
G03*
X7399152Y-3820852I-50000J0D01*
G01*
X7299152Y-4024852D02*
X7399152Y-4124852D01*
X7399152Y-4024852D02*
X7299152Y-4124852D01*
X7399152Y-4074852D02*
G75*
G03*
X7399152Y-4074852I-50000J0D01*
G01*
X7299152Y-4278852D02*
X7399152Y-4378852D01*
X7399152Y-4278852D02*
X7299152Y-4378852D01*
X7399152Y-4328852D02*
G75*
G03*
X7399152Y-4328852I-50000J0D01*
G01*
X7299152Y-4532852D02*
X7399152Y-4632852D01*
X7399152Y-4532852D02*
X7299152Y-4632852D01*
X7399152Y-4582852D02*
G75*
G03*
X7399152Y-4582852I-50000J0D01*
G01*
X7299152Y-4786852D02*
X7399152Y-4886852D01*
X7399152Y-4786852D02*
X7299152Y-4886852D01*
X7399152Y-4836852D02*
G75*
G03*
X7399152Y-4836852I-50000J0D01*
G01*
X7299152Y-5040852D02*
X7399152Y-5140852D01*
X7399152Y-5040852D02*
X7299152Y-5140852D01*
X7399152Y-5090852D02*
G75*
G03*
X7399152Y-5090852I-50000J0D01*
G01*
X7299152Y-5294852D02*
X7399152Y-5394852D01*
X7399152Y-5294852D02*
X7299152Y-5394852D01*
X7399152Y-5344852D02*
G75*
G03*
X7399152Y-5344852I-50000J0D01*
G01*
X7299152Y-5548852D02*
X7399152Y-5648852D01*
X7399152Y-5548852D02*
X7299152Y-5648852D01*
X7399152Y-5598852D02*
G75*
G03*
X7399152Y-5598852I-50000J0D01*
G01*
D18*
X7448852Y-5950252D02*
X7558852Y-6060252D01*
X7558852Y-5950252D02*
X7448852Y-6060252D01*
X7503852Y-5950252D02*
X7503852Y-6060252D01*
X7448852Y-6005252D02*
X7558852Y-6005252D01*
X7906052Y-5620052D02*
X8016052Y-5730052D01*
X8016052Y-5620052D02*
X7906052Y-5730052D01*
X7961052Y-5620052D02*
X7961052Y-5730052D01*
X7906052Y-5675052D02*
X8016052Y-5675052D01*
X8464852Y-5950252D02*
X8574852Y-6060252D01*
X8574852Y-5950252D02*
X8464852Y-6060252D01*
X8519852Y-5950252D02*
X8519852Y-6060252D01*
X8464852Y-6005252D02*
X8574852Y-6005252D01*
X8922052Y-5620052D02*
X9032052Y-5730052D01*
X9032052Y-5620052D02*
X8922052Y-5730052D01*
X8977052Y-5620052D02*
X8977052Y-5730052D01*
X8922052Y-5675052D02*
X9032052Y-5675052D01*
D19*
X4990052Y-6006452D02*
X5140052Y-6156452D01*
X5140052Y-6006452D02*
X4990052Y-6156452D01*
X5118086Y-6134485D02*
X5118086Y-6028418D01*
X5012019Y-6028418D01*
X5012019Y-6134485D01*
X5118086Y-6134485D01*
X5810052Y-6006452D02*
X5960052Y-6156452D01*
X5960052Y-6006452D02*
X5810052Y-6156452D01*
X5938085Y-6134485D02*
X5938085Y-6028418D01*
X5832018Y-6028418D01*
X5832018Y-6134485D01*
X5938085Y-6134485D01*
X7803103Y-2995059D02*
X7953103Y-3145059D01*
X7953103Y-2995059D02*
X7803103Y-3145059D01*
X7931136Y-3123092D02*
X7931136Y-3017025D01*
X7825069Y-3017025D01*
X7825069Y-3123092D01*
X7931136Y-3123092D01*
X7803103Y-3299859D02*
X7953103Y-3449859D01*
X7953103Y-3299859D02*
X7803103Y-3449859D01*
X7931136Y-3427892D02*
X7931136Y-3321825D01*
X7825069Y-3321825D01*
X7825069Y-3427892D01*
X7931136Y-3427892D01*
X7803103Y-4087259D02*
X7953103Y-4237259D01*
X7953103Y-4087259D02*
X7803103Y-4237259D01*
X7931136Y-4215293D02*
X7931136Y-4109225D01*
X7825069Y-4109225D01*
X7825069Y-4215293D01*
X7931136Y-4215293D01*
X7803103Y-4392059D02*
X7953103Y-4542059D01*
X7953103Y-4392059D02*
X7803103Y-4542059D01*
X7931136Y-4520093D02*
X7931136Y-4414026D01*
X7825069Y-4414026D01*
X7825069Y-4520093D01*
X7931136Y-4520093D01*
X10089103Y-2995059D02*
X10239103Y-3145059D01*
X10239103Y-2995059D02*
X10089103Y-3145059D01*
X10217136Y-3123092D02*
X10217136Y-3017025D01*
X10111069Y-3017025D01*
X10111069Y-3123092D01*
X10217136Y-3123092D01*
X10089103Y-4392059D02*
X10239103Y-4542059D01*
X10239103Y-4392059D02*
X10089103Y-4542059D01*
X10217136Y-4520093D02*
X10217136Y-4414026D01*
X10111069Y-4414026D01*
X10111069Y-4520093D01*
X10217136Y-4520093D01*
D11*
X5140271Y-6752528D02*
X5140271Y-6552528D01*
X5187890Y-6552528D01*
X5216462Y-6562052D01*
X5235509Y-6581100D01*
X5245033Y-6600147D01*
X5254557Y-6638242D01*
X5254557Y-6666814D01*
X5245033Y-6704909D01*
X5235509Y-6723957D01*
X5216462Y-6743004D01*
X5187890Y-6752528D01*
X5140271Y-6752528D01*
X5340271Y-6752528D02*
X5340271Y-6619195D01*
X5340271Y-6657290D02*
X5349795Y-6638242D01*
X5359319Y-6628719D01*
X5378366Y-6619195D01*
X5397414Y-6619195D01*
X5464081Y-6752528D02*
X5464081Y-6619195D01*
X5464081Y-6552528D02*
X5454557Y-6562052D01*
X5464081Y-6571576D01*
X5473604Y-6562052D01*
X5464081Y-6552528D01*
X5464081Y-6571576D01*
X5587890Y-6752528D02*
X5568842Y-6743004D01*
X5559319Y-6723957D01*
X5559319Y-6552528D01*
X5692652Y-6752528D02*
X5673604Y-6743004D01*
X5664080Y-6723957D01*
X5664080Y-6552528D01*
X5921223Y-6752528D02*
X5921223Y-6552528D01*
X5987890Y-6695385D01*
X6054557Y-6552528D01*
X6054557Y-6752528D01*
X6235509Y-6752528D02*
X6235509Y-6647766D01*
X6225985Y-6628719D01*
X6206938Y-6619195D01*
X6168842Y-6619195D01*
X6149795Y-6628719D01*
X6235509Y-6743004D02*
X6216461Y-6752528D01*
X6168842Y-6752528D01*
X6149795Y-6743004D01*
X6140271Y-6723957D01*
X6140271Y-6704909D01*
X6149795Y-6685861D01*
X6168842Y-6676338D01*
X6216461Y-6676338D01*
X6235509Y-6666814D01*
X6330747Y-6619195D02*
X6330747Y-6819195D01*
X6330747Y-6628719D02*
X6349795Y-6619195D01*
X6387890Y-6619195D01*
X6406938Y-6628719D01*
X6416461Y-6638242D01*
X6425985Y-6657290D01*
X6425985Y-6714433D01*
X6416461Y-6733480D01*
X6406938Y-6743004D01*
X6387890Y-6752528D01*
X6349795Y-6752528D01*
X6330747Y-6743004D01*
X6511700Y-6733480D02*
X6521223Y-6743004D01*
X6511700Y-6752528D01*
X6502176Y-6743004D01*
X6511700Y-6733480D01*
X6511700Y-6752528D01*
X6511700Y-6628719D02*
X6521223Y-6638242D01*
X6511700Y-6647766D01*
X6502176Y-6638242D01*
X6511700Y-6628719D01*
X6511700Y-6647766D01*
D12*
X4842652Y-7062052D02*
X4882652Y-7102052D01*
X4882652Y-7062052D02*
X4842652Y-7102052D01*
D11*
X5178366Y-6972528D02*
X5197414Y-6972528D01*
X5216462Y-6982052D01*
X5225985Y-6991576D01*
X5235509Y-7010623D01*
X5245033Y-7048719D01*
X5245033Y-7096338D01*
X5235509Y-7134433D01*
X5225985Y-7153480D01*
X5216462Y-7163004D01*
X5197414Y-7172528D01*
X5178366Y-7172528D01*
X5159319Y-7163004D01*
X5149795Y-7153480D01*
X5140271Y-7134433D01*
X5130747Y-7096338D01*
X5130747Y-7048719D01*
X5140271Y-7010623D01*
X5149795Y-6991576D01*
X5159319Y-6982052D01*
X5178366Y-6972528D01*
X5330747Y-7153480D02*
X5340271Y-7163004D01*
X5330747Y-7172528D01*
X5321223Y-7163004D01*
X5330747Y-7153480D01*
X5330747Y-7172528D01*
X5511700Y-7039195D02*
X5511700Y-7172528D01*
X5464081Y-6963004D02*
X5416462Y-7105861D01*
X5540271Y-7105861D01*
X5654557Y-6972528D02*
X5673604Y-6972528D01*
X5692652Y-6982052D01*
X5702176Y-6991576D01*
X5711700Y-7010623D01*
X5721223Y-7048719D01*
X5721223Y-7096338D01*
X5711700Y-7134433D01*
X5702176Y-7153480D01*
X5692652Y-7163004D01*
X5673604Y-7172528D01*
X5654557Y-7172528D01*
X5635509Y-7163004D01*
X5625985Y-7153480D01*
X5616461Y-7134433D01*
X5606938Y-7096338D01*
X5606938Y-7048719D01*
X5616461Y-7010623D01*
X5625985Y-6991576D01*
X5635509Y-6982052D01*
X5654557Y-6972528D01*
X5845033Y-6972528D02*
X5864080Y-6972528D01*
X5883128Y-6982052D01*
X5892652Y-6991576D01*
X5902176Y-7010623D01*
X5911700Y-7048719D01*
X5911700Y-7096338D01*
X5902176Y-7134433D01*
X5892652Y-7153480D01*
X5883128Y-7163004D01*
X5864080Y-7172528D01*
X5845033Y-7172528D01*
X5825985Y-7163004D01*
X5816461Y-7153480D01*
X5806938Y-7134433D01*
X5797414Y-7096338D01*
X5797414Y-7048719D01*
X5806938Y-7010623D01*
X5816461Y-6991576D01*
X5825985Y-6982052D01*
X5845033Y-6972528D01*
X5997414Y-7172528D02*
X5997414Y-7039195D01*
X5997414Y-7058242D02*
X6006938Y-7048719D01*
X6025985Y-7039195D01*
X6054557Y-7039195D01*
X6073604Y-7048719D01*
X6083128Y-7067766D01*
X6083128Y-7172528D01*
X6083128Y-7067766D02*
X6092652Y-7048719D01*
X6111700Y-7039195D01*
X6140271Y-7039195D01*
X6159319Y-7048719D01*
X6168842Y-7067766D01*
X6168842Y-7172528D01*
X6264080Y-7172528D02*
X6264080Y-7039195D01*
X6264080Y-7058242D02*
X6273604Y-7048719D01*
X6292652Y-7039195D01*
X6321223Y-7039195D01*
X6340271Y-7048719D01*
X6349795Y-7067766D01*
X6349795Y-7172528D01*
X6349795Y-7067766D02*
X6359319Y-7048719D01*
X6378366Y-7039195D01*
X6406938Y-7039195D01*
X6425985Y-7048719D01*
X6435509Y-7067766D01*
X6435509Y-7172528D01*
X6825985Y-6963004D02*
X6654557Y-7220147D01*
X7083128Y-6972528D02*
X7102176Y-6972528D01*
X7121223Y-6982052D01*
X7130747Y-6991576D01*
X7140271Y-7010623D01*
X7149795Y-7048719D01*
X7149795Y-7096338D01*
X7140271Y-7134433D01*
X7130747Y-7153480D01*
X7121223Y-7163004D01*
X7102176Y-7172528D01*
X7083128Y-7172528D01*
X7064080Y-7163004D01*
X7054557Y-7153480D01*
X7045033Y-7134433D01*
X7035509Y-7096338D01*
X7035509Y-7048719D01*
X7045033Y-7010623D01*
X7054557Y-6991576D01*
X7064080Y-6982052D01*
X7083128Y-6972528D01*
X7235509Y-7153480D02*
X7245033Y-7163004D01*
X7235509Y-7172528D01*
X7225985Y-7163004D01*
X7235509Y-7153480D01*
X7235509Y-7172528D01*
X7368842Y-6972528D02*
X7387890Y-6972528D01*
X7406938Y-6982052D01*
X7416461Y-6991576D01*
X7425985Y-7010623D01*
X7435509Y-7048719D01*
X7435509Y-7096338D01*
X7425985Y-7134433D01*
X7416461Y-7153480D01*
X7406938Y-7163004D01*
X7387890Y-7172528D01*
X7368842Y-7172528D01*
X7349795Y-7163004D01*
X7340271Y-7153480D01*
X7330747Y-7134433D01*
X7321223Y-7096338D01*
X7321223Y-7048719D01*
X7330747Y-7010623D01*
X7340271Y-6991576D01*
X7349795Y-6982052D01*
X7368842Y-6972528D01*
X7625985Y-7172528D02*
X7511700Y-7172528D01*
X7568842Y-7172528D02*
X7568842Y-6972528D01*
X7549795Y-7001100D01*
X7530747Y-7020147D01*
X7511700Y-7029671D01*
X7806938Y-6972528D02*
X7711700Y-6972528D01*
X7702176Y-7067766D01*
X7711700Y-7058242D01*
X7730747Y-7048719D01*
X7778366Y-7048719D01*
X7797414Y-7058242D01*
X7806938Y-7067766D01*
X7816461Y-7086814D01*
X7816461Y-7134433D01*
X7806938Y-7153480D01*
X7797414Y-7163004D01*
X7778366Y-7172528D01*
X7730747Y-7172528D01*
X7711700Y-7163004D01*
X7702176Y-7153480D01*
X7883128Y-6972528D02*
X8016461Y-6972528D01*
X7930747Y-7172528D01*
X8083128Y-6972528D02*
X8083128Y-7010623D01*
X8159319Y-6972528D02*
X8159319Y-7010623D01*
X8454557Y-7248719D02*
X8445033Y-7239195D01*
X8425985Y-7210623D01*
X8416462Y-7191576D01*
X8406938Y-7163004D01*
X8397414Y-7115385D01*
X8397414Y-7077290D01*
X8406938Y-7029671D01*
X8416462Y-7001100D01*
X8425985Y-6982052D01*
X8445033Y-6953480D01*
X8454557Y-6943957D01*
X8540271Y-7172528D02*
X8578366Y-7172528D01*
X8597414Y-7163004D01*
X8606938Y-7153480D01*
X8625985Y-7124909D01*
X8635509Y-7086814D01*
X8635509Y-7010623D01*
X8625985Y-6991576D01*
X8616462Y-6982052D01*
X8597414Y-6972528D01*
X8559319Y-6972528D01*
X8540271Y-6982052D01*
X8530747Y-6991576D01*
X8521223Y-7010623D01*
X8521223Y-7058242D01*
X8530747Y-7077290D01*
X8540271Y-7086814D01*
X8559319Y-7096338D01*
X8597414Y-7096338D01*
X8616462Y-7086814D01*
X8625985Y-7077290D01*
X8635509Y-7058242D01*
X8873604Y-7172528D02*
X8873604Y-6972528D01*
X8959319Y-7172528D02*
X8959319Y-7067766D01*
X8949795Y-7048719D01*
X8930747Y-7039195D01*
X8902176Y-7039195D01*
X8883128Y-7048719D01*
X8873604Y-7058242D01*
X9083128Y-7172528D02*
X9064081Y-7163004D01*
X9054557Y-7153480D01*
X9045033Y-7134433D01*
X9045033Y-7077290D01*
X9054557Y-7058242D01*
X9064081Y-7048719D01*
X9083128Y-7039195D01*
X9111700Y-7039195D01*
X9130747Y-7048719D01*
X9140271Y-7058242D01*
X9149795Y-7077290D01*
X9149795Y-7134433D01*
X9140271Y-7153480D01*
X9130747Y-7163004D01*
X9111700Y-7172528D01*
X9083128Y-7172528D01*
X9264081Y-7172528D02*
X9245033Y-7163004D01*
X9235509Y-7143957D01*
X9235509Y-6972528D01*
X9416462Y-7163004D02*
X9397414Y-7172528D01*
X9359319Y-7172528D01*
X9340271Y-7163004D01*
X9330747Y-7143957D01*
X9330747Y-7067766D01*
X9340271Y-7048719D01*
X9359319Y-7039195D01*
X9397414Y-7039195D01*
X9416462Y-7048719D01*
X9425985Y-7067766D01*
X9425985Y-7086814D01*
X9330747Y-7105861D01*
X9502176Y-7163004D02*
X9521223Y-7172528D01*
X9559319Y-7172528D01*
X9578366Y-7163004D01*
X9587890Y-7143957D01*
X9587890Y-7134433D01*
X9578366Y-7115385D01*
X9559319Y-7105861D01*
X9530747Y-7105861D01*
X9511700Y-7096338D01*
X9502176Y-7077290D01*
X9502176Y-7067766D01*
X9511700Y-7048719D01*
X9530747Y-7039195D01*
X9559319Y-7039195D01*
X9578366Y-7048719D01*
X9654557Y-7248719D02*
X9664081Y-7239195D01*
X9683128Y-7210623D01*
X9692652Y-7191576D01*
X9702176Y-7163004D01*
X9711700Y-7115385D01*
X9711700Y-7077290D01*
X9702176Y-7029671D01*
X9692652Y-7001100D01*
X9683128Y-6982052D01*
X9664081Y-6953480D01*
X9654557Y-6943957D01*
D13*
X4882652Y-7346052D02*
G75*
G03*
X4882652Y-7346052I-37500J0D01*
G01*
D11*
X5178366Y-7236528D02*
X5197414Y-7236528D01*
X5216462Y-7246052D01*
X5225985Y-7255576D01*
X5235509Y-7274623D01*
X5245033Y-7312719D01*
X5245033Y-7360338D01*
X5235509Y-7398433D01*
X5225985Y-7417480D01*
X5216462Y-7427004D01*
X5197414Y-7436528D01*
X5178366Y-7436528D01*
X5159319Y-7427004D01*
X5149795Y-7417480D01*
X5140271Y-7398433D01*
X5130747Y-7360338D01*
X5130747Y-7312719D01*
X5140271Y-7274623D01*
X5149795Y-7255576D01*
X5159319Y-7246052D01*
X5178366Y-7236528D01*
X5330747Y-7417480D02*
X5340271Y-7427004D01*
X5330747Y-7436528D01*
X5321223Y-7427004D01*
X5330747Y-7417480D01*
X5330747Y-7436528D01*
X5406938Y-7236528D02*
X5540271Y-7236528D01*
X5454557Y-7436528D01*
X5711700Y-7236528D02*
X5616461Y-7236528D01*
X5606938Y-7331766D01*
X5616461Y-7322242D01*
X5635509Y-7312719D01*
X5683128Y-7312719D01*
X5702176Y-7322242D01*
X5711700Y-7331766D01*
X5721223Y-7350814D01*
X5721223Y-7398433D01*
X5711700Y-7417480D01*
X5702176Y-7427004D01*
X5683128Y-7436528D01*
X5635509Y-7436528D01*
X5616461Y-7427004D01*
X5606938Y-7417480D01*
X5845033Y-7236528D02*
X5864080Y-7236528D01*
X5883128Y-7246052D01*
X5892652Y-7255576D01*
X5902176Y-7274623D01*
X5911700Y-7312719D01*
X5911700Y-7360338D01*
X5902176Y-7398433D01*
X5892652Y-7417480D01*
X5883128Y-7427004D01*
X5864080Y-7436528D01*
X5845033Y-7436528D01*
X5825985Y-7427004D01*
X5816461Y-7417480D01*
X5806938Y-7398433D01*
X5797414Y-7360338D01*
X5797414Y-7312719D01*
X5806938Y-7274623D01*
X5816461Y-7255576D01*
X5825985Y-7246052D01*
X5845033Y-7236528D01*
X5997414Y-7436528D02*
X5997414Y-7303195D01*
X5997414Y-7322242D02*
X6006938Y-7312719D01*
X6025985Y-7303195D01*
X6054557Y-7303195D01*
X6073604Y-7312719D01*
X6083128Y-7331766D01*
X6083128Y-7436528D01*
X6083128Y-7331766D02*
X6092652Y-7312719D01*
X6111700Y-7303195D01*
X6140271Y-7303195D01*
X6159319Y-7312719D01*
X6168842Y-7331766D01*
X6168842Y-7436528D01*
X6264080Y-7436528D02*
X6264080Y-7303195D01*
X6264080Y-7322242D02*
X6273604Y-7312719D01*
X6292652Y-7303195D01*
X6321223Y-7303195D01*
X6340271Y-7312719D01*
X6349795Y-7331766D01*
X6349795Y-7436528D01*
X6349795Y-7331766D02*
X6359319Y-7312719D01*
X6378366Y-7303195D01*
X6406938Y-7303195D01*
X6425985Y-7312719D01*
X6435509Y-7331766D01*
X6435509Y-7436528D01*
X6825985Y-7227004D02*
X6654557Y-7484147D01*
X7083128Y-7236528D02*
X7102176Y-7236528D01*
X7121223Y-7246052D01*
X7130747Y-7255576D01*
X7140271Y-7274623D01*
X7149795Y-7312719D01*
X7149795Y-7360338D01*
X7140271Y-7398433D01*
X7130747Y-7417480D01*
X7121223Y-7427004D01*
X7102176Y-7436528D01*
X7083128Y-7436528D01*
X7064080Y-7427004D01*
X7054557Y-7417480D01*
X7045033Y-7398433D01*
X7035509Y-7360338D01*
X7035509Y-7312719D01*
X7045033Y-7274623D01*
X7054557Y-7255576D01*
X7064080Y-7246052D01*
X7083128Y-7236528D01*
X7235509Y-7417480D02*
X7245033Y-7427004D01*
X7235509Y-7436528D01*
X7225985Y-7427004D01*
X7235509Y-7417480D01*
X7235509Y-7436528D01*
X7368842Y-7236528D02*
X7387890Y-7236528D01*
X7406938Y-7246052D01*
X7416461Y-7255576D01*
X7425985Y-7274623D01*
X7435509Y-7312719D01*
X7435509Y-7360338D01*
X7425985Y-7398433D01*
X7416461Y-7417480D01*
X7406938Y-7427004D01*
X7387890Y-7436528D01*
X7368842Y-7436528D01*
X7349795Y-7427004D01*
X7340271Y-7417480D01*
X7330747Y-7398433D01*
X7321223Y-7360338D01*
X7321223Y-7312719D01*
X7330747Y-7274623D01*
X7340271Y-7255576D01*
X7349795Y-7246052D01*
X7368842Y-7236528D01*
X7511700Y-7255576D02*
X7521223Y-7246052D01*
X7540271Y-7236528D01*
X7587890Y-7236528D01*
X7606938Y-7246052D01*
X7616461Y-7255576D01*
X7625985Y-7274623D01*
X7625985Y-7293671D01*
X7616461Y-7322242D01*
X7502176Y-7436528D01*
X7625985Y-7436528D01*
X7721223Y-7436528D02*
X7759319Y-7436528D01*
X7778366Y-7427004D01*
X7787890Y-7417480D01*
X7806938Y-7388909D01*
X7816461Y-7350814D01*
X7816461Y-7274623D01*
X7806938Y-7255576D01*
X7797414Y-7246052D01*
X7778366Y-7236528D01*
X7740271Y-7236528D01*
X7721223Y-7246052D01*
X7711700Y-7255576D01*
X7702176Y-7274623D01*
X7702176Y-7322242D01*
X7711700Y-7341290D01*
X7721223Y-7350814D01*
X7740271Y-7360338D01*
X7778366Y-7360338D01*
X7797414Y-7350814D01*
X7806938Y-7341290D01*
X7816461Y-7322242D01*
X7997414Y-7236528D02*
X7902176Y-7236528D01*
X7892652Y-7331766D01*
X7902176Y-7322242D01*
X7921223Y-7312719D01*
X7968842Y-7312719D01*
X7987890Y-7322242D01*
X7997414Y-7331766D01*
X8006938Y-7350814D01*
X8006938Y-7398433D01*
X7997414Y-7417480D01*
X7987890Y-7427004D01*
X7968842Y-7436528D01*
X7921223Y-7436528D01*
X7902176Y-7427004D01*
X7892652Y-7417480D01*
X8083128Y-7236528D02*
X8083128Y-7274623D01*
X8159319Y-7236528D02*
X8159319Y-7274623D01*
X8454557Y-7512719D02*
X8445033Y-7503195D01*
X8425985Y-7474623D01*
X8416462Y-7455576D01*
X8406938Y-7427004D01*
X8397414Y-7379385D01*
X8397414Y-7341290D01*
X8406938Y-7293671D01*
X8416462Y-7265100D01*
X8425985Y-7246052D01*
X8445033Y-7217480D01*
X8454557Y-7207957D01*
X8511700Y-7236528D02*
X8645033Y-7236528D01*
X8559319Y-7436528D01*
X8873604Y-7436528D02*
X8873604Y-7236528D01*
X8959319Y-7436528D02*
X8959319Y-7331766D01*
X8949795Y-7312719D01*
X8930747Y-7303195D01*
X8902176Y-7303195D01*
X8883128Y-7312719D01*
X8873604Y-7322242D01*
X9083128Y-7436528D02*
X9064081Y-7427004D01*
X9054557Y-7417480D01*
X9045033Y-7398433D01*
X9045033Y-7341290D01*
X9054557Y-7322242D01*
X9064081Y-7312719D01*
X9083128Y-7303195D01*
X9111700Y-7303195D01*
X9130747Y-7312719D01*
X9140271Y-7322242D01*
X9149795Y-7341290D01*
X9149795Y-7398433D01*
X9140271Y-7417480D01*
X9130747Y-7427004D01*
X9111700Y-7436528D01*
X9083128Y-7436528D01*
X9264081Y-7436528D02*
X9245033Y-7427004D01*
X9235509Y-7407957D01*
X9235509Y-7236528D01*
X9416462Y-7427004D02*
X9397414Y-7436528D01*
X9359319Y-7436528D01*
X9340271Y-7427004D01*
X9330747Y-7407957D01*
X9330747Y-7331766D01*
X9340271Y-7312719D01*
X9359319Y-7303195D01*
X9397414Y-7303195D01*
X9416462Y-7312719D01*
X9425985Y-7331766D01*
X9425985Y-7350814D01*
X9330747Y-7369861D01*
X9502176Y-7427004D02*
X9521223Y-7436528D01*
X9559319Y-7436528D01*
X9578366Y-7427004D01*
X9587890Y-7407957D01*
X9587890Y-7398433D01*
X9578366Y-7379385D01*
X9559319Y-7369861D01*
X9530747Y-7369861D01*
X9511700Y-7360338D01*
X9502176Y-7341290D01*
X9502176Y-7331766D01*
X9511700Y-7312719D01*
X9530747Y-7303195D01*
X9559319Y-7303195D01*
X9578366Y-7312719D01*
X9654557Y-7512719D02*
X9664081Y-7503195D01*
X9683128Y-7474623D01*
X9692652Y-7455576D01*
X9702176Y-7427004D01*
X9711700Y-7379385D01*
X9711700Y-7341290D01*
X9702176Y-7293671D01*
X9692652Y-7265100D01*
X9683128Y-7246052D01*
X9664081Y-7217480D01*
X9654557Y-7207957D01*
D14*
X4842652Y-7570052D02*
X4842652Y-7650052D01*
X4802652Y-7610052D02*
X4882652Y-7610052D01*
D11*
X5178366Y-7500528D02*
X5197414Y-7500528D01*
X5216462Y-7510052D01*
X5225985Y-7519576D01*
X5235509Y-7538623D01*
X5245033Y-7576719D01*
X5245033Y-7624338D01*
X5235509Y-7662433D01*
X5225985Y-7681480D01*
X5216462Y-7691004D01*
X5197414Y-7700528D01*
X5178366Y-7700528D01*
X5159319Y-7691004D01*
X5149795Y-7681480D01*
X5140271Y-7662433D01*
X5130747Y-7624338D01*
X5130747Y-7576719D01*
X5140271Y-7538623D01*
X5149795Y-7519576D01*
X5159319Y-7510052D01*
X5178366Y-7500528D01*
X5330747Y-7681480D02*
X5340271Y-7691004D01*
X5330747Y-7700528D01*
X5321223Y-7691004D01*
X5330747Y-7681480D01*
X5330747Y-7700528D01*
X5454557Y-7586242D02*
X5435509Y-7576719D01*
X5425985Y-7567195D01*
X5416462Y-7548147D01*
X5416462Y-7538623D01*
X5425985Y-7519576D01*
X5435509Y-7510052D01*
X5454557Y-7500528D01*
X5492652Y-7500528D01*
X5511700Y-7510052D01*
X5521223Y-7519576D01*
X5530747Y-7538623D01*
X5530747Y-7548147D01*
X5521223Y-7567195D01*
X5511700Y-7576719D01*
X5492652Y-7586242D01*
X5454557Y-7586242D01*
X5435509Y-7595766D01*
X5425985Y-7605290D01*
X5416462Y-7624338D01*
X5416462Y-7662433D01*
X5425985Y-7681480D01*
X5435509Y-7691004D01*
X5454557Y-7700528D01*
X5492652Y-7700528D01*
X5511700Y-7691004D01*
X5521223Y-7681480D01*
X5530747Y-7662433D01*
X5530747Y-7624338D01*
X5521223Y-7605290D01*
X5511700Y-7595766D01*
X5492652Y-7586242D01*
X5654557Y-7500528D02*
X5673604Y-7500528D01*
X5692652Y-7510052D01*
X5702176Y-7519576D01*
X5711700Y-7538623D01*
X5721223Y-7576719D01*
X5721223Y-7624338D01*
X5711700Y-7662433D01*
X5702176Y-7681480D01*
X5692652Y-7691004D01*
X5673604Y-7700528D01*
X5654557Y-7700528D01*
X5635509Y-7691004D01*
X5625985Y-7681480D01*
X5616461Y-7662433D01*
X5606938Y-7624338D01*
X5606938Y-7576719D01*
X5616461Y-7538623D01*
X5625985Y-7519576D01*
X5635509Y-7510052D01*
X5654557Y-7500528D01*
X5845033Y-7500528D02*
X5864080Y-7500528D01*
X5883128Y-7510052D01*
X5892652Y-7519576D01*
X5902176Y-7538623D01*
X5911700Y-7576719D01*
X5911700Y-7624338D01*
X5902176Y-7662433D01*
X5892652Y-7681480D01*
X5883128Y-7691004D01*
X5864080Y-7700528D01*
X5845033Y-7700528D01*
X5825985Y-7691004D01*
X5816461Y-7681480D01*
X5806938Y-7662433D01*
X5797414Y-7624338D01*
X5797414Y-7576719D01*
X5806938Y-7538623D01*
X5816461Y-7519576D01*
X5825985Y-7510052D01*
X5845033Y-7500528D01*
X5997414Y-7700528D02*
X5997414Y-7567195D01*
X5997414Y-7586242D02*
X6006938Y-7576719D01*
X6025985Y-7567195D01*
X6054557Y-7567195D01*
X6073604Y-7576719D01*
X6083128Y-7595766D01*
X6083128Y-7700528D01*
X6083128Y-7595766D02*
X6092652Y-7576719D01*
X6111700Y-7567195D01*
X6140271Y-7567195D01*
X6159319Y-7576719D01*
X6168842Y-7595766D01*
X6168842Y-7700528D01*
X6264080Y-7700528D02*
X6264080Y-7567195D01*
X6264080Y-7586242D02*
X6273604Y-7576719D01*
X6292652Y-7567195D01*
X6321223Y-7567195D01*
X6340271Y-7576719D01*
X6349795Y-7595766D01*
X6349795Y-7700528D01*
X6349795Y-7595766D02*
X6359319Y-7576719D01*
X6378366Y-7567195D01*
X6406938Y-7567195D01*
X6425985Y-7576719D01*
X6435509Y-7595766D01*
X6435509Y-7700528D01*
X6825985Y-7491004D02*
X6654557Y-7748147D01*
X7083128Y-7500528D02*
X7102176Y-7500528D01*
X7121223Y-7510052D01*
X7130747Y-7519576D01*
X7140271Y-7538623D01*
X7149795Y-7576719D01*
X7149795Y-7624338D01*
X7140271Y-7662433D01*
X7130747Y-7681480D01*
X7121223Y-7691004D01*
X7102176Y-7700528D01*
X7083128Y-7700528D01*
X7064080Y-7691004D01*
X7054557Y-7681480D01*
X7045033Y-7662433D01*
X7035509Y-7624338D01*
X7035509Y-7576719D01*
X7045033Y-7538623D01*
X7054557Y-7519576D01*
X7064080Y-7510052D01*
X7083128Y-7500528D01*
X7235509Y-7681480D02*
X7245033Y-7691004D01*
X7235509Y-7700528D01*
X7225985Y-7691004D01*
X7235509Y-7681480D01*
X7235509Y-7700528D01*
X7368842Y-7500528D02*
X7387890Y-7500528D01*
X7406938Y-7510052D01*
X7416461Y-7519576D01*
X7425985Y-7538623D01*
X7435509Y-7576719D01*
X7435509Y-7624338D01*
X7425985Y-7662433D01*
X7416461Y-7681480D01*
X7406938Y-7691004D01*
X7387890Y-7700528D01*
X7368842Y-7700528D01*
X7349795Y-7691004D01*
X7340271Y-7681480D01*
X7330747Y-7662433D01*
X7321223Y-7624338D01*
X7321223Y-7576719D01*
X7330747Y-7538623D01*
X7340271Y-7519576D01*
X7349795Y-7510052D01*
X7368842Y-7500528D01*
X7502176Y-7500528D02*
X7625985Y-7500528D01*
X7559319Y-7576719D01*
X7587890Y-7576719D01*
X7606938Y-7586242D01*
X7616461Y-7595766D01*
X7625985Y-7614814D01*
X7625985Y-7662433D01*
X7616461Y-7681480D01*
X7606938Y-7691004D01*
X7587890Y-7700528D01*
X7530747Y-7700528D01*
X7511700Y-7691004D01*
X7502176Y-7681480D01*
X7816461Y-7700528D02*
X7702176Y-7700528D01*
X7759319Y-7700528D02*
X7759319Y-7500528D01*
X7740271Y-7529100D01*
X7721223Y-7548147D01*
X7702176Y-7557671D01*
X7997414Y-7500528D02*
X7902176Y-7500528D01*
X7892652Y-7595766D01*
X7902176Y-7586242D01*
X7921223Y-7576719D01*
X7968842Y-7576719D01*
X7987890Y-7586242D01*
X7997414Y-7595766D01*
X8006938Y-7614814D01*
X8006938Y-7662433D01*
X7997414Y-7681480D01*
X7987890Y-7691004D01*
X7968842Y-7700528D01*
X7921223Y-7700528D01*
X7902176Y-7691004D01*
X7892652Y-7681480D01*
X8083128Y-7500528D02*
X8083128Y-7538623D01*
X8159319Y-7500528D02*
X8159319Y-7538623D01*
X8454557Y-7776719D02*
X8445033Y-7767195D01*
X8425985Y-7738623D01*
X8416462Y-7719576D01*
X8406938Y-7691004D01*
X8397414Y-7643385D01*
X8397414Y-7605290D01*
X8406938Y-7557671D01*
X8416462Y-7529100D01*
X8425985Y-7510052D01*
X8445033Y-7481480D01*
X8454557Y-7471957D01*
X8521223Y-7519576D02*
X8530747Y-7510052D01*
X8549795Y-7500528D01*
X8597414Y-7500528D01*
X8616462Y-7510052D01*
X8625985Y-7519576D01*
X8635509Y-7538623D01*
X8635509Y-7557671D01*
X8625985Y-7586242D01*
X8511700Y-7700528D01*
X8635509Y-7700528D01*
X8873604Y-7700528D02*
X8873604Y-7500528D01*
X8959319Y-7700528D02*
X8959319Y-7595766D01*
X8949795Y-7576719D01*
X8930747Y-7567195D01*
X8902176Y-7567195D01*
X8883128Y-7576719D01*
X8873604Y-7586242D01*
X9083128Y-7700528D02*
X9064081Y-7691004D01*
X9054557Y-7681480D01*
X9045033Y-7662433D01*
X9045033Y-7605290D01*
X9054557Y-7586242D01*
X9064081Y-7576719D01*
X9083128Y-7567195D01*
X9111700Y-7567195D01*
X9130747Y-7576719D01*
X9140271Y-7586242D01*
X9149795Y-7605290D01*
X9149795Y-7662433D01*
X9140271Y-7681480D01*
X9130747Y-7691004D01*
X9111700Y-7700528D01*
X9083128Y-7700528D01*
X9264081Y-7700528D02*
X9245033Y-7691004D01*
X9235509Y-7671957D01*
X9235509Y-7500528D01*
X9416462Y-7691004D02*
X9397414Y-7700528D01*
X9359319Y-7700528D01*
X9340271Y-7691004D01*
X9330747Y-7671957D01*
X9330747Y-7595766D01*
X9340271Y-7576719D01*
X9359319Y-7567195D01*
X9397414Y-7567195D01*
X9416462Y-7576719D01*
X9425985Y-7595766D01*
X9425985Y-7614814D01*
X9330747Y-7633861D01*
X9502176Y-7691004D02*
X9521223Y-7700528D01*
X9559319Y-7700528D01*
X9578366Y-7691004D01*
X9587890Y-7671957D01*
X9587890Y-7662433D01*
X9578366Y-7643385D01*
X9559319Y-7633861D01*
X9530747Y-7633861D01*
X9511700Y-7624338D01*
X9502176Y-7605290D01*
X9502176Y-7595766D01*
X9511700Y-7576719D01*
X9530747Y-7567195D01*
X9559319Y-7567195D01*
X9578366Y-7576719D01*
X9654557Y-7776719D02*
X9664081Y-7767195D01*
X9683128Y-7738623D01*
X9692652Y-7719576D01*
X9702176Y-7691004D01*
X9711700Y-7643385D01*
X9711700Y-7605290D01*
X9702176Y-7557671D01*
X9692652Y-7529100D01*
X9683128Y-7510052D01*
X9664081Y-7481480D01*
X9654557Y-7471957D01*
D15*
X4869633Y-7905483D02*
X4869633Y-7842621D01*
X4806771Y-7842621D01*
X4806771Y-7905483D01*
X4869633Y-7905483D01*
D11*
X5178366Y-7764528D02*
X5197414Y-7764528D01*
X5216462Y-7774052D01*
X5225985Y-7783576D01*
X5235509Y-7802623D01*
X5245033Y-7840719D01*
X5245033Y-7888338D01*
X5235509Y-7926433D01*
X5225985Y-7945480D01*
X5216462Y-7955004D01*
X5197414Y-7964528D01*
X5178366Y-7964528D01*
X5159319Y-7955004D01*
X5149795Y-7945480D01*
X5140271Y-7926433D01*
X5130747Y-7888338D01*
X5130747Y-7840719D01*
X5140271Y-7802623D01*
X5149795Y-7783576D01*
X5159319Y-7774052D01*
X5178366Y-7764528D01*
X5330747Y-7945480D02*
X5340271Y-7955004D01*
X5330747Y-7964528D01*
X5321223Y-7955004D01*
X5330747Y-7945480D01*
X5330747Y-7964528D01*
X5454557Y-7850242D02*
X5435509Y-7840719D01*
X5425985Y-7831195D01*
X5416462Y-7812147D01*
X5416462Y-7802623D01*
X5425985Y-7783576D01*
X5435509Y-7774052D01*
X5454557Y-7764528D01*
X5492652Y-7764528D01*
X5511700Y-7774052D01*
X5521223Y-7783576D01*
X5530747Y-7802623D01*
X5530747Y-7812147D01*
X5521223Y-7831195D01*
X5511700Y-7840719D01*
X5492652Y-7850242D01*
X5454557Y-7850242D01*
X5435509Y-7859766D01*
X5425985Y-7869290D01*
X5416462Y-7888338D01*
X5416462Y-7926433D01*
X5425985Y-7945480D01*
X5435509Y-7955004D01*
X5454557Y-7964528D01*
X5492652Y-7964528D01*
X5511700Y-7955004D01*
X5521223Y-7945480D01*
X5530747Y-7926433D01*
X5530747Y-7888338D01*
X5521223Y-7869290D01*
X5511700Y-7859766D01*
X5492652Y-7850242D01*
X5645033Y-7850242D02*
X5625985Y-7840719D01*
X5616461Y-7831195D01*
X5606938Y-7812147D01*
X5606938Y-7802623D01*
X5616461Y-7783576D01*
X5625985Y-7774052D01*
X5645033Y-7764528D01*
X5683128Y-7764528D01*
X5702176Y-7774052D01*
X5711700Y-7783576D01*
X5721223Y-7802623D01*
X5721223Y-7812147D01*
X5711700Y-7831195D01*
X5702176Y-7840719D01*
X5683128Y-7850242D01*
X5645033Y-7850242D01*
X5625985Y-7859766D01*
X5616461Y-7869290D01*
X5606938Y-7888338D01*
X5606938Y-7926433D01*
X5616461Y-7945480D01*
X5625985Y-7955004D01*
X5645033Y-7964528D01*
X5683128Y-7964528D01*
X5702176Y-7955004D01*
X5711700Y-7945480D01*
X5721223Y-7926433D01*
X5721223Y-7888338D01*
X5711700Y-7869290D01*
X5702176Y-7859766D01*
X5683128Y-7850242D01*
X5816461Y-7964528D02*
X5854557Y-7964528D01*
X5873604Y-7955004D01*
X5883128Y-7945480D01*
X5902176Y-7916909D01*
X5911700Y-7878814D01*
X5911700Y-7802623D01*
X5902176Y-7783576D01*
X5892652Y-7774052D01*
X5873604Y-7764528D01*
X5835509Y-7764528D01*
X5816461Y-7774052D01*
X5806938Y-7783576D01*
X5797414Y-7802623D01*
X5797414Y-7850242D01*
X5806938Y-7869290D01*
X5816461Y-7878814D01*
X5835509Y-7888338D01*
X5873604Y-7888338D01*
X5892652Y-7878814D01*
X5902176Y-7869290D01*
X5911700Y-7850242D01*
X5997414Y-7964528D02*
X5997414Y-7831195D01*
X5997414Y-7850242D02*
X6006938Y-7840719D01*
X6025985Y-7831195D01*
X6054557Y-7831195D01*
X6073604Y-7840719D01*
X6083128Y-7859766D01*
X6083128Y-7964528D01*
X6083128Y-7859766D02*
X6092652Y-7840719D01*
X6111700Y-7831195D01*
X6140271Y-7831195D01*
X6159319Y-7840719D01*
X6168842Y-7859766D01*
X6168842Y-7964528D01*
X6264080Y-7964528D02*
X6264080Y-7831195D01*
X6264080Y-7850242D02*
X6273604Y-7840719D01*
X6292652Y-7831195D01*
X6321223Y-7831195D01*
X6340271Y-7840719D01*
X6349795Y-7859766D01*
X6349795Y-7964528D01*
X6349795Y-7859766D02*
X6359319Y-7840719D01*
X6378366Y-7831195D01*
X6406938Y-7831195D01*
X6425985Y-7840719D01*
X6435509Y-7859766D01*
X6435509Y-7964528D01*
X6825985Y-7755004D02*
X6654557Y-8012147D01*
X7083128Y-7764528D02*
X7102176Y-7764528D01*
X7121223Y-7774052D01*
X7130747Y-7783576D01*
X7140271Y-7802623D01*
X7149795Y-7840719D01*
X7149795Y-7888338D01*
X7140271Y-7926433D01*
X7130747Y-7945480D01*
X7121223Y-7955004D01*
X7102176Y-7964528D01*
X7083128Y-7964528D01*
X7064080Y-7955004D01*
X7054557Y-7945480D01*
X7045033Y-7926433D01*
X7035509Y-7888338D01*
X7035509Y-7840719D01*
X7045033Y-7802623D01*
X7054557Y-7783576D01*
X7064080Y-7774052D01*
X7083128Y-7764528D01*
X7235509Y-7945480D02*
X7245033Y-7955004D01*
X7235509Y-7964528D01*
X7225985Y-7955004D01*
X7235509Y-7945480D01*
X7235509Y-7964528D01*
X7368842Y-7764528D02*
X7387890Y-7764528D01*
X7406938Y-7774052D01*
X7416461Y-7783576D01*
X7425985Y-7802623D01*
X7435509Y-7840719D01*
X7435509Y-7888338D01*
X7425985Y-7926433D01*
X7416461Y-7945480D01*
X7406938Y-7955004D01*
X7387890Y-7964528D01*
X7368842Y-7964528D01*
X7349795Y-7955004D01*
X7340271Y-7945480D01*
X7330747Y-7926433D01*
X7321223Y-7888338D01*
X7321223Y-7840719D01*
X7330747Y-7802623D01*
X7340271Y-7783576D01*
X7349795Y-7774052D01*
X7368842Y-7764528D01*
X7502176Y-7764528D02*
X7625985Y-7764528D01*
X7559319Y-7840719D01*
X7587890Y-7840719D01*
X7606938Y-7850242D01*
X7616461Y-7859766D01*
X7625985Y-7878814D01*
X7625985Y-7926433D01*
X7616461Y-7945480D01*
X7606938Y-7955004D01*
X7587890Y-7964528D01*
X7530747Y-7964528D01*
X7511700Y-7955004D01*
X7502176Y-7945480D01*
X7806938Y-7764528D02*
X7711700Y-7764528D01*
X7702176Y-7859766D01*
X7711700Y-7850242D01*
X7730747Y-7840719D01*
X7778366Y-7840719D01*
X7797414Y-7850242D01*
X7806938Y-7859766D01*
X7816461Y-7878814D01*
X7816461Y-7926433D01*
X7806938Y-7945480D01*
X7797414Y-7955004D01*
X7778366Y-7964528D01*
X7730747Y-7964528D01*
X7711700Y-7955004D01*
X7702176Y-7945480D01*
X7940271Y-7764528D02*
X7959319Y-7764528D01*
X7978366Y-7774052D01*
X7987890Y-7783576D01*
X7997414Y-7802623D01*
X8006938Y-7840719D01*
X8006938Y-7888338D01*
X7997414Y-7926433D01*
X7987890Y-7945480D01*
X7978366Y-7955004D01*
X7959319Y-7964528D01*
X7940271Y-7964528D01*
X7921223Y-7955004D01*
X7911700Y-7945480D01*
X7902176Y-7926433D01*
X7892652Y-7888338D01*
X7892652Y-7840719D01*
X7902176Y-7802623D01*
X7911700Y-7783576D01*
X7921223Y-7774052D01*
X7940271Y-7764528D01*
X8083128Y-7764528D02*
X8083128Y-7802623D01*
X8159319Y-7764528D02*
X8159319Y-7802623D01*
X8454557Y-8040719D02*
X8445033Y-8031195D01*
X8425985Y-8002623D01*
X8416462Y-7983576D01*
X8406938Y-7955004D01*
X8397414Y-7907385D01*
X8397414Y-7869290D01*
X8406938Y-7821671D01*
X8416462Y-7793100D01*
X8425985Y-7774052D01*
X8445033Y-7745480D01*
X8454557Y-7735957D01*
X8635509Y-7964528D02*
X8521223Y-7964528D01*
X8578366Y-7964528D02*
X8578366Y-7764528D01*
X8559319Y-7793100D01*
X8540271Y-7812147D01*
X8521223Y-7821671D01*
X8759319Y-7764528D02*
X8778366Y-7764528D01*
X8797414Y-7774052D01*
X8806938Y-7783576D01*
X8816462Y-7802623D01*
X8825985Y-7840719D01*
X8825985Y-7888338D01*
X8816462Y-7926433D01*
X8806938Y-7945480D01*
X8797414Y-7955004D01*
X8778366Y-7964528D01*
X8759319Y-7964528D01*
X8740271Y-7955004D01*
X8730747Y-7945480D01*
X8721223Y-7926433D01*
X8711700Y-7888338D01*
X8711700Y-7840719D01*
X8721223Y-7802623D01*
X8730747Y-7783576D01*
X8740271Y-7774052D01*
X8759319Y-7764528D01*
X9064081Y-7964528D02*
X9064081Y-7764528D01*
X9149795Y-7964528D02*
X9149795Y-7859766D01*
X9140271Y-7840719D01*
X9121223Y-7831195D01*
X9092652Y-7831195D01*
X9073604Y-7840719D01*
X9064081Y-7850242D01*
X9273604Y-7964528D02*
X9254557Y-7955004D01*
X9245033Y-7945480D01*
X9235509Y-7926433D01*
X9235509Y-7869290D01*
X9245033Y-7850242D01*
X9254557Y-7840719D01*
X9273604Y-7831195D01*
X9302176Y-7831195D01*
X9321223Y-7840719D01*
X9330747Y-7850242D01*
X9340271Y-7869290D01*
X9340271Y-7926433D01*
X9330747Y-7945480D01*
X9321223Y-7955004D01*
X9302176Y-7964528D01*
X9273604Y-7964528D01*
X9454557Y-7964528D02*
X9435509Y-7955004D01*
X9425985Y-7935957D01*
X9425985Y-7764528D01*
X9606938Y-7955004D02*
X9587890Y-7964528D01*
X9549795Y-7964528D01*
X9530747Y-7955004D01*
X9521223Y-7935957D01*
X9521223Y-7859766D01*
X9530747Y-7840719D01*
X9549795Y-7831195D01*
X9587890Y-7831195D01*
X9606938Y-7840719D01*
X9616462Y-7859766D01*
X9616462Y-7878814D01*
X9521223Y-7897861D01*
X9692652Y-7955004D02*
X9711700Y-7964528D01*
X9749795Y-7964528D01*
X9768842Y-7955004D01*
X9778366Y-7935957D01*
X9778366Y-7926433D01*
X9768842Y-7907385D01*
X9749795Y-7897861D01*
X9721223Y-7897861D01*
X9702176Y-7888338D01*
X9692652Y-7869290D01*
X9692652Y-7859766D01*
X9702176Y-7840719D01*
X9721223Y-7831195D01*
X9749795Y-7831195D01*
X9768842Y-7840719D01*
X9845033Y-8040719D02*
X9854557Y-8031195D01*
X9873604Y-8002623D01*
X9883128Y-7983576D01*
X9892652Y-7955004D01*
X9902176Y-7907385D01*
X9902176Y-7869290D01*
X9892652Y-7821671D01*
X9883128Y-7793100D01*
X9873604Y-7774052D01*
X9854557Y-7745480D01*
X9845033Y-7735957D01*
D16*
X4837652Y-8183052D02*
X4882652Y-8138052D01*
X4837652Y-8093052D01*
X4792652Y-8138052D01*
X4837652Y-8183052D01*
D11*
X5178366Y-8028528D02*
X5197414Y-8028528D01*
X5216462Y-8038052D01*
X5225985Y-8047576D01*
X5235509Y-8066623D01*
X5245033Y-8104719D01*
X5245033Y-8152338D01*
X5235509Y-8190433D01*
X5225985Y-8209480D01*
X5216462Y-8219004D01*
X5197414Y-8228528D01*
X5178366Y-8228528D01*
X5159319Y-8219004D01*
X5149795Y-8209480D01*
X5140271Y-8190433D01*
X5130747Y-8152338D01*
X5130747Y-8104719D01*
X5140271Y-8066623D01*
X5149795Y-8047576D01*
X5159319Y-8038052D01*
X5178366Y-8028528D01*
X5330747Y-8209480D02*
X5340271Y-8219004D01*
X5330747Y-8228528D01*
X5321223Y-8219004D01*
X5330747Y-8209480D01*
X5330747Y-8228528D01*
X5435509Y-8228528D02*
X5473604Y-8228528D01*
X5492652Y-8219004D01*
X5502176Y-8209480D01*
X5521223Y-8180909D01*
X5530747Y-8142814D01*
X5530747Y-8066623D01*
X5521223Y-8047576D01*
X5511700Y-8038052D01*
X5492652Y-8028528D01*
X5454557Y-8028528D01*
X5435509Y-8038052D01*
X5425985Y-8047576D01*
X5416462Y-8066623D01*
X5416462Y-8114242D01*
X5425985Y-8133290D01*
X5435509Y-8142814D01*
X5454557Y-8152338D01*
X5492652Y-8152338D01*
X5511700Y-8142814D01*
X5521223Y-8133290D01*
X5530747Y-8114242D01*
X5654557Y-8028528D02*
X5673604Y-8028528D01*
X5692652Y-8038052D01*
X5702176Y-8047576D01*
X5711700Y-8066623D01*
X5721223Y-8104719D01*
X5721223Y-8152338D01*
X5711700Y-8190433D01*
X5702176Y-8209480D01*
X5692652Y-8219004D01*
X5673604Y-8228528D01*
X5654557Y-8228528D01*
X5635509Y-8219004D01*
X5625985Y-8209480D01*
X5616461Y-8190433D01*
X5606938Y-8152338D01*
X5606938Y-8104719D01*
X5616461Y-8066623D01*
X5625985Y-8047576D01*
X5635509Y-8038052D01*
X5654557Y-8028528D01*
X5845033Y-8028528D02*
X5864080Y-8028528D01*
X5883128Y-8038052D01*
X5892652Y-8047576D01*
X5902176Y-8066623D01*
X5911700Y-8104719D01*
X5911700Y-8152338D01*
X5902176Y-8190433D01*
X5892652Y-8209480D01*
X5883128Y-8219004D01*
X5864080Y-8228528D01*
X5845033Y-8228528D01*
X5825985Y-8219004D01*
X5816461Y-8209480D01*
X5806938Y-8190433D01*
X5797414Y-8152338D01*
X5797414Y-8104719D01*
X5806938Y-8066623D01*
X5816461Y-8047576D01*
X5825985Y-8038052D01*
X5845033Y-8028528D01*
X5997414Y-8228528D02*
X5997414Y-8095195D01*
X5997414Y-8114242D02*
X6006938Y-8104719D01*
X6025985Y-8095195D01*
X6054557Y-8095195D01*
X6073604Y-8104719D01*
X6083128Y-8123766D01*
X6083128Y-8228528D01*
X6083128Y-8123766D02*
X6092652Y-8104719D01*
X6111700Y-8095195D01*
X6140271Y-8095195D01*
X6159319Y-8104719D01*
X6168842Y-8123766D01*
X6168842Y-8228528D01*
X6264080Y-8228528D02*
X6264080Y-8095195D01*
X6264080Y-8114242D02*
X6273604Y-8104719D01*
X6292652Y-8095195D01*
X6321223Y-8095195D01*
X6340271Y-8104719D01*
X6349795Y-8123766D01*
X6349795Y-8228528D01*
X6349795Y-8123766D02*
X6359319Y-8104719D01*
X6378366Y-8095195D01*
X6406938Y-8095195D01*
X6425985Y-8104719D01*
X6435509Y-8123766D01*
X6435509Y-8228528D01*
X6825985Y-8019004D02*
X6654557Y-8276147D01*
X7083128Y-8028528D02*
X7102176Y-8028528D01*
X7121223Y-8038052D01*
X7130747Y-8047576D01*
X7140271Y-8066623D01*
X7149795Y-8104719D01*
X7149795Y-8152338D01*
X7140271Y-8190433D01*
X7130747Y-8209480D01*
X7121223Y-8219004D01*
X7102176Y-8228528D01*
X7083128Y-8228528D01*
X7064080Y-8219004D01*
X7054557Y-8209480D01*
X7045033Y-8190433D01*
X7035509Y-8152338D01*
X7035509Y-8104719D01*
X7045033Y-8066623D01*
X7054557Y-8047576D01*
X7064080Y-8038052D01*
X7083128Y-8028528D01*
X7235509Y-8209480D02*
X7245033Y-8219004D01*
X7235509Y-8228528D01*
X7225985Y-8219004D01*
X7235509Y-8209480D01*
X7235509Y-8228528D01*
X7368842Y-8028528D02*
X7387890Y-8028528D01*
X7406938Y-8038052D01*
X7416461Y-8047576D01*
X7425985Y-8066623D01*
X7435509Y-8104719D01*
X7435509Y-8152338D01*
X7425985Y-8190433D01*
X7416461Y-8209480D01*
X7406938Y-8219004D01*
X7387890Y-8228528D01*
X7368842Y-8228528D01*
X7349795Y-8219004D01*
X7340271Y-8209480D01*
X7330747Y-8190433D01*
X7321223Y-8152338D01*
X7321223Y-8104719D01*
X7330747Y-8066623D01*
X7340271Y-8047576D01*
X7349795Y-8038052D01*
X7368842Y-8028528D01*
X7502176Y-8028528D02*
X7625985Y-8028528D01*
X7559319Y-8104719D01*
X7587890Y-8104719D01*
X7606938Y-8114242D01*
X7616461Y-8123766D01*
X7625985Y-8142814D01*
X7625985Y-8190433D01*
X7616461Y-8209480D01*
X7606938Y-8219004D01*
X7587890Y-8228528D01*
X7530747Y-8228528D01*
X7511700Y-8219004D01*
X7502176Y-8209480D01*
X7806938Y-8028528D02*
X7711700Y-8028528D01*
X7702176Y-8123766D01*
X7711700Y-8114242D01*
X7730747Y-8104719D01*
X7778366Y-8104719D01*
X7797414Y-8114242D01*
X7806938Y-8123766D01*
X7816461Y-8142814D01*
X7816461Y-8190433D01*
X7806938Y-8209480D01*
X7797414Y-8219004D01*
X7778366Y-8228528D01*
X7730747Y-8228528D01*
X7711700Y-8219004D01*
X7702176Y-8209480D01*
X7987890Y-8095195D02*
X7987890Y-8228528D01*
X7940271Y-8019004D02*
X7892652Y-8161861D01*
X8016461Y-8161861D01*
X8083128Y-8028528D02*
X8083128Y-8066623D01*
X8159319Y-8028528D02*
X8159319Y-8066623D01*
X8454557Y-8304719D02*
X8445033Y-8295195D01*
X8425985Y-8266623D01*
X8416462Y-8247576D01*
X8406938Y-8219004D01*
X8397414Y-8171385D01*
X8397414Y-8133290D01*
X8406938Y-8085671D01*
X8416462Y-8057100D01*
X8425985Y-8038052D01*
X8445033Y-8009480D01*
X8454557Y-7999957D01*
X8511700Y-8028528D02*
X8635509Y-8028528D01*
X8568842Y-8104719D01*
X8597414Y-8104719D01*
X8616462Y-8114242D01*
X8625985Y-8123766D01*
X8635509Y-8142814D01*
X8635509Y-8190433D01*
X8625985Y-8209480D01*
X8616462Y-8219004D01*
X8597414Y-8228528D01*
X8540271Y-8228528D01*
X8521223Y-8219004D01*
X8511700Y-8209480D01*
X8873604Y-8228528D02*
X8873604Y-8028528D01*
X8959319Y-8228528D02*
X8959319Y-8123766D01*
X8949795Y-8104719D01*
X8930747Y-8095195D01*
X8902176Y-8095195D01*
X8883128Y-8104719D01*
X8873604Y-8114242D01*
X9083128Y-8228528D02*
X9064081Y-8219004D01*
X9054557Y-8209480D01*
X9045033Y-8190433D01*
X9045033Y-8133290D01*
X9054557Y-8114242D01*
X9064081Y-8104719D01*
X9083128Y-8095195D01*
X9111700Y-8095195D01*
X9130747Y-8104719D01*
X9140271Y-8114242D01*
X9149795Y-8133290D01*
X9149795Y-8190433D01*
X9140271Y-8209480D01*
X9130747Y-8219004D01*
X9111700Y-8228528D01*
X9083128Y-8228528D01*
X9264081Y-8228528D02*
X9245033Y-8219004D01*
X9235509Y-8199957D01*
X9235509Y-8028528D01*
X9416462Y-8219004D02*
X9397414Y-8228528D01*
X9359319Y-8228528D01*
X9340271Y-8219004D01*
X9330747Y-8199957D01*
X9330747Y-8123766D01*
X9340271Y-8104719D01*
X9359319Y-8095195D01*
X9397414Y-8095195D01*
X9416462Y-8104719D01*
X9425985Y-8123766D01*
X9425985Y-8142814D01*
X9330747Y-8161861D01*
X9502176Y-8219004D02*
X9521223Y-8228528D01*
X9559319Y-8228528D01*
X9578366Y-8219004D01*
X9587890Y-8199957D01*
X9587890Y-8190433D01*
X9578366Y-8171385D01*
X9559319Y-8161861D01*
X9530747Y-8161861D01*
X9511700Y-8152338D01*
X9502176Y-8133290D01*
X9502176Y-8123766D01*
X9511700Y-8104719D01*
X9530747Y-8095195D01*
X9559319Y-8095195D01*
X9578366Y-8104719D01*
X9654557Y-8304719D02*
X9664081Y-8295195D01*
X9683128Y-8266623D01*
X9692652Y-8247576D01*
X9702176Y-8219004D01*
X9711700Y-8171385D01*
X9711700Y-8133290D01*
X9702176Y-8085671D01*
X9692652Y-8057100D01*
X9683128Y-8038052D01*
X9664081Y-8009480D01*
X9654557Y-7999957D01*
D17*
X4782652Y-8352052D02*
X4882652Y-8452052D01*
X4882652Y-8352052D02*
X4782652Y-8452052D01*
X4882652Y-8402052D02*
G75*
G03*
X4882652Y-8402052I-50000J0D01*
G01*
D11*
X5245033Y-8492528D02*
X5130747Y-8492528D01*
X5187890Y-8492528D02*
X5187890Y-8292528D01*
X5168842Y-8321100D01*
X5149795Y-8340147D01*
X5130747Y-8349671D01*
X5330747Y-8473481D02*
X5340271Y-8483004D01*
X5330747Y-8492528D01*
X5321223Y-8483004D01*
X5330747Y-8473481D01*
X5330747Y-8492528D01*
X5464081Y-8292528D02*
X5483128Y-8292528D01*
X5502176Y-8302052D01*
X5511700Y-8311576D01*
X5521223Y-8330623D01*
X5530747Y-8368719D01*
X5530747Y-8416338D01*
X5521223Y-8454433D01*
X5511700Y-8473481D01*
X5502176Y-8483004D01*
X5483128Y-8492528D01*
X5464081Y-8492528D01*
X5445033Y-8483004D01*
X5435509Y-8473481D01*
X5425985Y-8454433D01*
X5416462Y-8416338D01*
X5416462Y-8368719D01*
X5425985Y-8330623D01*
X5435509Y-8311576D01*
X5445033Y-8302052D01*
X5464081Y-8292528D01*
X5654557Y-8292528D02*
X5673604Y-8292528D01*
X5692652Y-8302052D01*
X5702176Y-8311576D01*
X5711700Y-8330623D01*
X5721223Y-8368719D01*
X5721223Y-8416338D01*
X5711700Y-8454433D01*
X5702176Y-8473481D01*
X5692652Y-8483004D01*
X5673604Y-8492528D01*
X5654557Y-8492528D01*
X5635509Y-8483004D01*
X5625985Y-8473481D01*
X5616461Y-8454433D01*
X5606938Y-8416338D01*
X5606938Y-8368719D01*
X5616461Y-8330623D01*
X5625985Y-8311576D01*
X5635509Y-8302052D01*
X5654557Y-8292528D01*
X5845033Y-8292528D02*
X5864080Y-8292528D01*
X5883128Y-8302052D01*
X5892652Y-8311576D01*
X5902176Y-8330623D01*
X5911700Y-8368719D01*
X5911700Y-8416338D01*
X5902176Y-8454433D01*
X5892652Y-8473481D01*
X5883128Y-8483004D01*
X5864080Y-8492528D01*
X5845033Y-8492528D01*
X5825985Y-8483004D01*
X5816461Y-8473481D01*
X5806938Y-8454433D01*
X5797414Y-8416338D01*
X5797414Y-8368719D01*
X5806938Y-8330623D01*
X5816461Y-8311576D01*
X5825985Y-8302052D01*
X5845033Y-8292528D01*
X5997414Y-8492528D02*
X5997414Y-8359195D01*
X5997414Y-8378242D02*
X6006938Y-8368719D01*
X6025985Y-8359195D01*
X6054557Y-8359195D01*
X6073604Y-8368719D01*
X6083128Y-8387766D01*
X6083128Y-8492528D01*
X6083128Y-8387766D02*
X6092652Y-8368719D01*
X6111700Y-8359195D01*
X6140271Y-8359195D01*
X6159319Y-8368719D01*
X6168842Y-8387766D01*
X6168842Y-8492528D01*
X6264080Y-8492528D02*
X6264080Y-8359195D01*
X6264080Y-8378242D02*
X6273604Y-8368719D01*
X6292652Y-8359195D01*
X6321223Y-8359195D01*
X6340271Y-8368719D01*
X6349795Y-8387766D01*
X6349795Y-8492528D01*
X6349795Y-8387766D02*
X6359319Y-8368719D01*
X6378366Y-8359195D01*
X6406938Y-8359195D01*
X6425985Y-8368719D01*
X6435509Y-8387766D01*
X6435509Y-8492528D01*
X6825985Y-8283004D02*
X6654557Y-8540147D01*
X7083128Y-8292528D02*
X7102176Y-8292528D01*
X7121223Y-8302052D01*
X7130747Y-8311576D01*
X7140271Y-8330623D01*
X7149795Y-8368719D01*
X7149795Y-8416338D01*
X7140271Y-8454433D01*
X7130747Y-8473481D01*
X7121223Y-8483004D01*
X7102176Y-8492528D01*
X7083128Y-8492528D01*
X7064080Y-8483004D01*
X7054557Y-8473481D01*
X7045033Y-8454433D01*
X7035509Y-8416338D01*
X7035509Y-8368719D01*
X7045033Y-8330623D01*
X7054557Y-8311576D01*
X7064080Y-8302052D01*
X7083128Y-8292528D01*
X7235509Y-8473481D02*
X7245033Y-8483004D01*
X7235509Y-8492528D01*
X7225985Y-8483004D01*
X7235509Y-8473481D01*
X7235509Y-8492528D01*
X7368842Y-8292528D02*
X7387890Y-8292528D01*
X7406938Y-8302052D01*
X7416461Y-8311576D01*
X7425985Y-8330623D01*
X7435509Y-8368719D01*
X7435509Y-8416338D01*
X7425985Y-8454433D01*
X7416461Y-8473481D01*
X7406938Y-8483004D01*
X7387890Y-8492528D01*
X7368842Y-8492528D01*
X7349795Y-8483004D01*
X7340271Y-8473481D01*
X7330747Y-8454433D01*
X7321223Y-8416338D01*
X7321223Y-8368719D01*
X7330747Y-8330623D01*
X7340271Y-8311576D01*
X7349795Y-8302052D01*
X7368842Y-8292528D01*
X7502176Y-8292528D02*
X7625985Y-8292528D01*
X7559319Y-8368719D01*
X7587890Y-8368719D01*
X7606938Y-8378242D01*
X7616461Y-8387766D01*
X7625985Y-8406814D01*
X7625985Y-8454433D01*
X7616461Y-8473481D01*
X7606938Y-8483004D01*
X7587890Y-8492528D01*
X7530747Y-8492528D01*
X7511700Y-8483004D01*
X7502176Y-8473481D01*
X7721223Y-8492528D02*
X7759319Y-8492528D01*
X7778366Y-8483004D01*
X7787890Y-8473481D01*
X7806938Y-8444909D01*
X7816461Y-8406814D01*
X7816461Y-8330623D01*
X7806938Y-8311576D01*
X7797414Y-8302052D01*
X7778366Y-8292528D01*
X7740271Y-8292528D01*
X7721223Y-8302052D01*
X7711700Y-8311576D01*
X7702176Y-8330623D01*
X7702176Y-8378242D01*
X7711700Y-8397290D01*
X7721223Y-8406814D01*
X7740271Y-8416338D01*
X7778366Y-8416338D01*
X7797414Y-8406814D01*
X7806938Y-8397290D01*
X7816461Y-8378242D01*
X7987890Y-8359195D02*
X7987890Y-8492528D01*
X7940271Y-8283004D02*
X7892652Y-8425862D01*
X8016461Y-8425862D01*
X8083128Y-8292528D02*
X8083128Y-8330623D01*
X8159319Y-8292528D02*
X8159319Y-8330623D01*
X8454557Y-8568719D02*
X8445033Y-8559195D01*
X8425985Y-8530623D01*
X8416462Y-8511576D01*
X8406938Y-8483004D01*
X8397414Y-8435385D01*
X8397414Y-8397290D01*
X8406938Y-8349671D01*
X8416462Y-8321100D01*
X8425985Y-8302052D01*
X8445033Y-8273480D01*
X8454557Y-8263957D01*
X8635509Y-8492528D02*
X8521223Y-8492528D01*
X8578366Y-8492528D02*
X8578366Y-8292528D01*
X8559319Y-8321100D01*
X8540271Y-8340147D01*
X8521223Y-8349671D01*
X8806938Y-8292528D02*
X8768842Y-8292528D01*
X8749795Y-8302052D01*
X8740271Y-8311576D01*
X8721223Y-8340147D01*
X8711700Y-8378242D01*
X8711700Y-8454433D01*
X8721223Y-8473481D01*
X8730747Y-8483004D01*
X8749795Y-8492528D01*
X8787890Y-8492528D01*
X8806938Y-8483004D01*
X8816462Y-8473481D01*
X8825985Y-8454433D01*
X8825985Y-8406814D01*
X8816462Y-8387766D01*
X8806938Y-8378242D01*
X8787890Y-8368719D01*
X8749795Y-8368719D01*
X8730747Y-8378242D01*
X8721223Y-8387766D01*
X8711700Y-8406814D01*
X9064081Y-8492528D02*
X9064081Y-8292528D01*
X9149795Y-8492528D02*
X9149795Y-8387766D01*
X9140271Y-8368719D01*
X9121223Y-8359195D01*
X9092652Y-8359195D01*
X9073604Y-8368719D01*
X9064081Y-8378242D01*
X9273604Y-8492528D02*
X9254557Y-8483004D01*
X9245033Y-8473481D01*
X9235509Y-8454433D01*
X9235509Y-8397290D01*
X9245033Y-8378242D01*
X9254557Y-8368719D01*
X9273604Y-8359195D01*
X9302176Y-8359195D01*
X9321223Y-8368719D01*
X9330747Y-8378242D01*
X9340271Y-8397290D01*
X9340271Y-8454433D01*
X9330747Y-8473481D01*
X9321223Y-8483004D01*
X9302176Y-8492528D01*
X9273604Y-8492528D01*
X9454557Y-8492528D02*
X9435509Y-8483004D01*
X9425985Y-8463957D01*
X9425985Y-8292528D01*
X9606938Y-8483004D02*
X9587890Y-8492528D01*
X9549795Y-8492528D01*
X9530747Y-8483004D01*
X9521223Y-8463957D01*
X9521223Y-8387766D01*
X9530747Y-8368719D01*
X9549795Y-8359195D01*
X9587890Y-8359195D01*
X9606938Y-8368719D01*
X9616462Y-8387766D01*
X9616462Y-8406814D01*
X9521223Y-8425862D01*
X9692652Y-8483004D02*
X9711700Y-8492528D01*
X9749795Y-8492528D01*
X9768842Y-8483004D01*
X9778366Y-8463957D01*
X9778366Y-8454433D01*
X9768842Y-8435385D01*
X9749795Y-8425862D01*
X9721223Y-8425862D01*
X9702176Y-8416338D01*
X9692652Y-8397290D01*
X9692652Y-8387766D01*
X9702176Y-8368719D01*
X9721223Y-8359195D01*
X9749795Y-8359195D01*
X9768842Y-8368719D01*
X9845033Y-8568719D02*
X9854557Y-8559195D01*
X9873604Y-8530623D01*
X9883128Y-8511576D01*
X9892652Y-8483004D01*
X9902176Y-8435385D01*
X9902176Y-8397290D01*
X9892652Y-8349671D01*
X9883128Y-8321100D01*
X9873604Y-8302052D01*
X9854557Y-8273480D01*
X9845033Y-8263957D01*
D18*
X4772652Y-8611052D02*
X4882652Y-8721052D01*
X4882652Y-8611052D02*
X4772652Y-8721052D01*
X4827652Y-8611052D02*
X4827652Y-8721052D01*
X4772652Y-8666052D02*
X4882652Y-8666052D01*
D11*
X5245033Y-8756528D02*
X5130747Y-8756528D01*
X5187890Y-8756528D02*
X5187890Y-8556528D01*
X5168842Y-8585100D01*
X5149795Y-8604147D01*
X5130747Y-8613671D01*
X5330747Y-8737481D02*
X5340271Y-8747004D01*
X5330747Y-8756528D01*
X5321223Y-8747004D01*
X5330747Y-8737481D01*
X5330747Y-8756528D01*
X5530747Y-8756528D02*
X5416462Y-8756528D01*
X5473604Y-8756528D02*
X5473604Y-8556528D01*
X5454557Y-8585100D01*
X5435509Y-8604147D01*
X5416462Y-8613671D01*
X5654557Y-8556528D02*
X5673604Y-8556528D01*
X5692652Y-8566052D01*
X5702176Y-8575576D01*
X5711700Y-8594623D01*
X5721223Y-8632719D01*
X5721223Y-8680338D01*
X5711700Y-8718433D01*
X5702176Y-8737481D01*
X5692652Y-8747004D01*
X5673604Y-8756528D01*
X5654557Y-8756528D01*
X5635509Y-8747004D01*
X5625985Y-8737481D01*
X5616461Y-8718433D01*
X5606938Y-8680338D01*
X5606938Y-8632719D01*
X5616461Y-8594623D01*
X5625985Y-8575576D01*
X5635509Y-8566052D01*
X5654557Y-8556528D01*
X5845033Y-8556528D02*
X5864080Y-8556528D01*
X5883128Y-8566052D01*
X5892652Y-8575576D01*
X5902176Y-8594623D01*
X5911700Y-8632719D01*
X5911700Y-8680338D01*
X5902176Y-8718433D01*
X5892652Y-8737481D01*
X5883128Y-8747004D01*
X5864080Y-8756528D01*
X5845033Y-8756528D01*
X5825985Y-8747004D01*
X5816461Y-8737481D01*
X5806938Y-8718433D01*
X5797414Y-8680338D01*
X5797414Y-8632719D01*
X5806938Y-8594623D01*
X5816461Y-8575576D01*
X5825985Y-8566052D01*
X5845033Y-8556528D01*
X5997414Y-8756528D02*
X5997414Y-8623195D01*
X5997414Y-8642242D02*
X6006938Y-8632719D01*
X6025985Y-8623195D01*
X6054557Y-8623195D01*
X6073604Y-8632719D01*
X6083128Y-8651766D01*
X6083128Y-8756528D01*
X6083128Y-8651766D02*
X6092652Y-8632719D01*
X6111700Y-8623195D01*
X6140271Y-8623195D01*
X6159319Y-8632719D01*
X6168842Y-8651766D01*
X6168842Y-8756528D01*
X6264080Y-8756528D02*
X6264080Y-8623195D01*
X6264080Y-8642242D02*
X6273604Y-8632719D01*
X6292652Y-8623195D01*
X6321223Y-8623195D01*
X6340271Y-8632719D01*
X6349795Y-8651766D01*
X6349795Y-8756528D01*
X6349795Y-8651766D02*
X6359319Y-8632719D01*
X6378366Y-8623195D01*
X6406938Y-8623195D01*
X6425985Y-8632719D01*
X6435509Y-8651766D01*
X6435509Y-8756528D01*
X6825985Y-8547004D02*
X6654557Y-8804147D01*
X7083128Y-8556528D02*
X7102176Y-8556528D01*
X7121223Y-8566052D01*
X7130747Y-8575576D01*
X7140271Y-8594623D01*
X7149795Y-8632719D01*
X7149795Y-8680338D01*
X7140271Y-8718433D01*
X7130747Y-8737481D01*
X7121223Y-8747004D01*
X7102176Y-8756528D01*
X7083128Y-8756528D01*
X7064080Y-8747004D01*
X7054557Y-8737481D01*
X7045033Y-8718433D01*
X7035509Y-8680338D01*
X7035509Y-8632719D01*
X7045033Y-8594623D01*
X7054557Y-8575576D01*
X7064080Y-8566052D01*
X7083128Y-8556528D01*
X7235509Y-8737481D02*
X7245033Y-8747004D01*
X7235509Y-8756528D01*
X7225985Y-8747004D01*
X7235509Y-8737481D01*
X7235509Y-8756528D01*
X7368842Y-8556528D02*
X7387890Y-8556528D01*
X7406938Y-8566052D01*
X7416461Y-8575576D01*
X7425985Y-8594623D01*
X7435509Y-8632719D01*
X7435509Y-8680338D01*
X7425985Y-8718433D01*
X7416461Y-8737481D01*
X7406938Y-8747004D01*
X7387890Y-8756528D01*
X7368842Y-8756528D01*
X7349795Y-8747004D01*
X7340271Y-8737481D01*
X7330747Y-8718433D01*
X7321223Y-8680338D01*
X7321223Y-8632719D01*
X7330747Y-8594623D01*
X7340271Y-8575576D01*
X7349795Y-8566052D01*
X7368842Y-8556528D01*
X7606938Y-8623195D02*
X7606938Y-8756528D01*
X7559319Y-8547004D02*
X7511700Y-8689862D01*
X7635509Y-8689862D01*
X7692652Y-8556528D02*
X7816461Y-8556528D01*
X7749795Y-8632719D01*
X7778366Y-8632719D01*
X7797414Y-8642242D01*
X7806938Y-8651766D01*
X7816461Y-8670814D01*
X7816461Y-8718433D01*
X7806938Y-8737481D01*
X7797414Y-8747004D01*
X7778366Y-8756528D01*
X7721223Y-8756528D01*
X7702176Y-8747004D01*
X7692652Y-8737481D01*
X7883128Y-8556528D02*
X8006938Y-8556528D01*
X7940271Y-8632719D01*
X7968842Y-8632719D01*
X7987890Y-8642242D01*
X7997414Y-8651766D01*
X8006938Y-8670814D01*
X8006938Y-8718433D01*
X7997414Y-8737481D01*
X7987890Y-8747004D01*
X7968842Y-8756528D01*
X7911700Y-8756528D01*
X7892652Y-8747004D01*
X7883128Y-8737481D01*
X8083128Y-8556528D02*
X8083128Y-8594623D01*
X8159319Y-8556528D02*
X8159319Y-8594623D01*
X8454557Y-8832719D02*
X8445033Y-8823195D01*
X8425985Y-8794623D01*
X8416462Y-8775576D01*
X8406938Y-8747004D01*
X8397414Y-8699385D01*
X8397414Y-8661290D01*
X8406938Y-8613671D01*
X8416462Y-8585100D01*
X8425985Y-8566052D01*
X8445033Y-8537481D01*
X8454557Y-8527957D01*
X8616462Y-8623195D02*
X8616462Y-8756528D01*
X8568842Y-8547004D02*
X8521223Y-8689862D01*
X8645033Y-8689862D01*
X8873604Y-8756528D02*
X8873604Y-8556528D01*
X8959319Y-8756528D02*
X8959319Y-8651766D01*
X8949795Y-8632719D01*
X8930747Y-8623195D01*
X8902176Y-8623195D01*
X8883128Y-8632719D01*
X8873604Y-8642242D01*
X9083128Y-8756528D02*
X9064081Y-8747004D01*
X9054557Y-8737481D01*
X9045033Y-8718433D01*
X9045033Y-8661290D01*
X9054557Y-8642242D01*
X9064081Y-8632719D01*
X9083128Y-8623195D01*
X9111700Y-8623195D01*
X9130747Y-8632719D01*
X9140271Y-8642242D01*
X9149795Y-8661290D01*
X9149795Y-8718433D01*
X9140271Y-8737481D01*
X9130747Y-8747004D01*
X9111700Y-8756528D01*
X9083128Y-8756528D01*
X9264081Y-8756528D02*
X9245033Y-8747004D01*
X9235509Y-8727957D01*
X9235509Y-8556528D01*
X9416462Y-8747004D02*
X9397414Y-8756528D01*
X9359319Y-8756528D01*
X9340271Y-8747004D01*
X9330747Y-8727957D01*
X9330747Y-8651766D01*
X9340271Y-8632719D01*
X9359319Y-8623195D01*
X9397414Y-8623195D01*
X9416462Y-8632719D01*
X9425985Y-8651766D01*
X9425985Y-8670814D01*
X9330747Y-8689862D01*
X9502176Y-8747004D02*
X9521223Y-8756528D01*
X9559319Y-8756528D01*
X9578366Y-8747004D01*
X9587890Y-8727957D01*
X9587890Y-8718433D01*
X9578366Y-8699385D01*
X9559319Y-8689862D01*
X9530747Y-8689862D01*
X9511700Y-8680338D01*
X9502176Y-8661290D01*
X9502176Y-8651766D01*
X9511700Y-8632719D01*
X9530747Y-8623195D01*
X9559319Y-8623195D01*
X9578366Y-8632719D01*
X9654557Y-8832719D02*
X9664081Y-8823195D01*
X9683128Y-8794623D01*
X9692652Y-8775576D01*
X9702176Y-8747004D01*
X9711700Y-8699385D01*
X9711700Y-8661290D01*
X9702176Y-8613671D01*
X9692652Y-8585100D01*
X9683128Y-8566052D01*
X9664081Y-8537481D01*
X9654557Y-8527957D01*
D19*
X4732652Y-8855052D02*
X4882652Y-9005052D01*
X4882652Y-8855052D02*
X4732652Y-9005052D01*
X4860686Y-8983086D02*
X4860686Y-8877019D01*
X4754619Y-8877019D01*
X4754619Y-8983086D01*
X4860686Y-8983086D01*
D11*
X5245033Y-9020528D02*
X5130747Y-9020528D01*
X5187890Y-9020528D02*
X5187890Y-8820528D01*
X5168842Y-8849100D01*
X5149795Y-8868147D01*
X5130747Y-8877671D01*
X5330747Y-9001481D02*
X5340271Y-9011004D01*
X5330747Y-9020528D01*
X5321223Y-9011004D01*
X5330747Y-9001481D01*
X5330747Y-9020528D01*
X5521223Y-8820528D02*
X5425985Y-8820528D01*
X5416462Y-8915766D01*
X5425985Y-8906242D01*
X5445033Y-8896719D01*
X5492652Y-8896719D01*
X5511700Y-8906242D01*
X5521223Y-8915766D01*
X5530747Y-8934814D01*
X5530747Y-8982433D01*
X5521223Y-9001481D01*
X5511700Y-9011004D01*
X5492652Y-9020528D01*
X5445033Y-9020528D01*
X5425985Y-9011004D01*
X5416462Y-9001481D01*
X5654557Y-8820528D02*
X5673604Y-8820528D01*
X5692652Y-8830052D01*
X5702176Y-8839576D01*
X5711700Y-8858623D01*
X5721223Y-8896719D01*
X5721223Y-8944338D01*
X5711700Y-8982433D01*
X5702176Y-9001481D01*
X5692652Y-9011004D01*
X5673604Y-9020528D01*
X5654557Y-9020528D01*
X5635509Y-9011004D01*
X5625985Y-9001481D01*
X5616461Y-8982433D01*
X5606938Y-8944338D01*
X5606938Y-8896719D01*
X5616461Y-8858623D01*
X5625985Y-8839576D01*
X5635509Y-8830052D01*
X5654557Y-8820528D01*
X5845033Y-8820528D02*
X5864080Y-8820528D01*
X5883128Y-8830052D01*
X5892652Y-8839576D01*
X5902176Y-8858623D01*
X5911700Y-8896719D01*
X5911700Y-8944338D01*
X5902176Y-8982433D01*
X5892652Y-9001481D01*
X5883128Y-9011004D01*
X5864080Y-9020528D01*
X5845033Y-9020528D01*
X5825985Y-9011004D01*
X5816461Y-9001481D01*
X5806938Y-8982433D01*
X5797414Y-8944338D01*
X5797414Y-8896719D01*
X5806938Y-8858623D01*
X5816461Y-8839576D01*
X5825985Y-8830052D01*
X5845033Y-8820528D01*
X5997414Y-9020528D02*
X5997414Y-8887195D01*
X5997414Y-8906242D02*
X6006938Y-8896719D01*
X6025985Y-8887195D01*
X6054557Y-8887195D01*
X6073604Y-8896719D01*
X6083128Y-8915766D01*
X6083128Y-9020528D01*
X6083128Y-8915766D02*
X6092652Y-8896719D01*
X6111700Y-8887195D01*
X6140271Y-8887195D01*
X6159319Y-8896719D01*
X6168842Y-8915766D01*
X6168842Y-9020528D01*
X6264080Y-9020528D02*
X6264080Y-8887195D01*
X6264080Y-8906242D02*
X6273604Y-8896719D01*
X6292652Y-8887195D01*
X6321223Y-8887195D01*
X6340271Y-8896719D01*
X6349795Y-8915766D01*
X6349795Y-9020528D01*
X6349795Y-8915766D02*
X6359319Y-8896719D01*
X6378366Y-8887195D01*
X6406938Y-8887195D01*
X6425985Y-8896719D01*
X6435509Y-8915766D01*
X6435509Y-9020528D01*
X6825985Y-8811004D02*
X6654557Y-9068147D01*
X7083128Y-8820528D02*
X7102176Y-8820528D01*
X7121223Y-8830052D01*
X7130747Y-8839576D01*
X7140271Y-8858623D01*
X7149795Y-8896719D01*
X7149795Y-8944338D01*
X7140271Y-8982433D01*
X7130747Y-9001481D01*
X7121223Y-9011004D01*
X7102176Y-9020528D01*
X7083128Y-9020528D01*
X7064080Y-9011004D01*
X7054557Y-9001481D01*
X7045033Y-8982433D01*
X7035509Y-8944338D01*
X7035509Y-8896719D01*
X7045033Y-8858623D01*
X7054557Y-8839576D01*
X7064080Y-8830052D01*
X7083128Y-8820528D01*
X7235509Y-9001481D02*
X7245033Y-9011004D01*
X7235509Y-9020528D01*
X7225985Y-9011004D01*
X7235509Y-9001481D01*
X7235509Y-9020528D01*
X7368842Y-8820528D02*
X7387890Y-8820528D01*
X7406938Y-8830052D01*
X7416461Y-8839576D01*
X7425985Y-8858623D01*
X7435509Y-8896719D01*
X7435509Y-8944338D01*
X7425985Y-8982433D01*
X7416461Y-9001481D01*
X7406938Y-9011004D01*
X7387890Y-9020528D01*
X7368842Y-9020528D01*
X7349795Y-9011004D01*
X7340271Y-9001481D01*
X7330747Y-8982433D01*
X7321223Y-8944338D01*
X7321223Y-8896719D01*
X7330747Y-8858623D01*
X7340271Y-8839576D01*
X7349795Y-8830052D01*
X7368842Y-8820528D01*
X7616461Y-8820528D02*
X7521223Y-8820528D01*
X7511700Y-8915766D01*
X7521223Y-8906242D01*
X7540271Y-8896719D01*
X7587890Y-8896719D01*
X7606938Y-8906242D01*
X7616461Y-8915766D01*
X7625985Y-8934814D01*
X7625985Y-8982433D01*
X7616461Y-9001481D01*
X7606938Y-9011004D01*
X7587890Y-9020528D01*
X7540271Y-9020528D01*
X7521223Y-9011004D01*
X7511700Y-9001481D01*
X7721223Y-9020528D02*
X7759319Y-9020528D01*
X7778366Y-9011004D01*
X7787890Y-9001481D01*
X7806938Y-8972909D01*
X7816461Y-8934814D01*
X7816461Y-8858623D01*
X7806938Y-8839576D01*
X7797414Y-8830052D01*
X7778366Y-8820528D01*
X7740271Y-8820528D01*
X7721223Y-8830052D01*
X7711700Y-8839576D01*
X7702176Y-8858623D01*
X7702176Y-8906242D01*
X7711700Y-8925290D01*
X7721223Y-8934814D01*
X7740271Y-8944338D01*
X7778366Y-8944338D01*
X7797414Y-8934814D01*
X7806938Y-8925290D01*
X7816461Y-8906242D01*
X8006938Y-9020528D02*
X7892652Y-9020528D01*
X7949795Y-9020528D02*
X7949795Y-8820528D01*
X7930747Y-8849100D01*
X7911700Y-8868147D01*
X7892652Y-8877671D01*
X8083128Y-8820528D02*
X8083128Y-8858623D01*
X8159319Y-8820528D02*
X8159319Y-8858623D01*
X8454557Y-9096719D02*
X8445033Y-9087195D01*
X8425985Y-9058623D01*
X8416462Y-9039576D01*
X8406938Y-9011004D01*
X8397414Y-8963385D01*
X8397414Y-8925290D01*
X8406938Y-8877671D01*
X8416462Y-8849100D01*
X8425985Y-8830052D01*
X8445033Y-8801481D01*
X8454557Y-8791957D01*
X8559319Y-8906242D02*
X8540271Y-8896719D01*
X8530747Y-8887195D01*
X8521223Y-8868147D01*
X8521223Y-8858623D01*
X8530747Y-8839576D01*
X8540271Y-8830052D01*
X8559319Y-8820528D01*
X8597414Y-8820528D01*
X8616462Y-8830052D01*
X8625985Y-8839576D01*
X8635509Y-8858623D01*
X8635509Y-8868147D01*
X8625985Y-8887195D01*
X8616462Y-8896719D01*
X8597414Y-8906242D01*
X8559319Y-8906242D01*
X8540271Y-8915766D01*
X8530747Y-8925290D01*
X8521223Y-8944338D01*
X8521223Y-8982433D01*
X8530747Y-9001481D01*
X8540271Y-9011004D01*
X8559319Y-9020528D01*
X8597414Y-9020528D01*
X8616462Y-9011004D01*
X8625985Y-9001481D01*
X8635509Y-8982433D01*
X8635509Y-8944338D01*
X8625985Y-8925290D01*
X8616462Y-8915766D01*
X8597414Y-8906242D01*
X8873604Y-9020528D02*
X8873604Y-8820528D01*
X8959319Y-9020528D02*
X8959319Y-8915766D01*
X8949795Y-8896719D01*
X8930747Y-8887195D01*
X8902176Y-8887195D01*
X8883128Y-8896719D01*
X8873604Y-8906242D01*
X9083128Y-9020528D02*
X9064081Y-9011004D01*
X9054557Y-9001481D01*
X9045033Y-8982433D01*
X9045033Y-8925290D01*
X9054557Y-8906242D01*
X9064081Y-8896719D01*
X9083128Y-8887195D01*
X9111700Y-8887195D01*
X9130747Y-8896719D01*
X9140271Y-8906242D01*
X9149795Y-8925290D01*
X9149795Y-8982433D01*
X9140271Y-9001481D01*
X9130747Y-9011004D01*
X9111700Y-9020528D01*
X9083128Y-9020528D01*
X9264081Y-9020528D02*
X9245033Y-9011004D01*
X9235509Y-8991957D01*
X9235509Y-8820528D01*
X9416462Y-9011004D02*
X9397414Y-9020528D01*
X9359319Y-9020528D01*
X9340271Y-9011004D01*
X9330747Y-8991957D01*
X9330747Y-8915766D01*
X9340271Y-8896719D01*
X9359319Y-8887195D01*
X9397414Y-8887195D01*
X9416462Y-8896719D01*
X9425985Y-8915766D01*
X9425985Y-8934814D01*
X9330747Y-8953862D01*
X9502176Y-9011004D02*
X9521223Y-9020528D01*
X9559319Y-9020528D01*
X9578366Y-9011004D01*
X9587890Y-8991957D01*
X9587890Y-8982433D01*
X9578366Y-8963385D01*
X9559319Y-8953862D01*
X9530747Y-8953862D01*
X9511700Y-8944338D01*
X9502176Y-8925290D01*
X9502176Y-8915766D01*
X9511700Y-8896719D01*
X9530747Y-8887195D01*
X9559319Y-8887195D01*
X9578366Y-8896719D01*
X9654557Y-9096719D02*
X9664081Y-9087195D01*
X9683128Y-9058623D01*
X9692652Y-9039576D01*
X9702176Y-9011004D01*
X9711700Y-8963385D01*
X9711700Y-8925290D01*
X9702176Y-8877671D01*
X9692652Y-8849100D01*
X9683128Y-8830052D01*
X9664081Y-8801481D01*
X9654557Y-8791957D01*
M02*
