M48
; DRILL file {KiCad (6.0.2)} date Sun Feb 27 07:15:39 2022
; FORMAT={-:-/ absolute / metric / decimal}
; #@! TF.CreationDate,2022-02-27T07:15:39-05:00
; #@! TF.GenerationSoftware,Kicad,Pcbnew,(6.0.2)
; #@! TF.FileFunction,Plated,1,2,PTH
FMAT,2
METRIC
; #@! TA.AperFunction,Plated,PTH,ViaDrill
T1C0.400
; #@! TA.AperFunction,Plated,PTH,ComponentDrill
T2C0.750
; #@! TA.AperFunction,Plated,PTH,ComponentDrill
T3C0.800
; #@! TA.AperFunction,Plated,PTH,ComponentDrill
T4C0.889
; #@! TA.AperFunction,Plated,PTH,ComponentDrill
T5C0.900
; #@! TA.AperFunction,Plated,PTH,ComponentDrill
T6C1.000
; #@! TA.AperFunction,Plated,PTH,ComponentDrill
T7C1.100
; #@! TA.AperFunction,Plated,PTH,ComponentDrill
T8C1.500
%
G90
G05
T1
X52.751Y-43.617
X52.751Y-51.227
X65.387Y-51.671
X69.197Y-51.417
X76.817Y-52.687
X77.071Y-50.655
X80.881Y-60.815
X83.167Y-56.497
X88.755Y-49.131
T2
X63.165Y-60.143
X65.165Y-60.143
X67.165Y-60.143
X69.165Y-60.143
X71.165Y-60.143
X95.957Y-57.021
X95.957Y-59.021
T3
X76.817Y-47.099
X76.817Y-57.259
T4
X79.346Y-62.861
X81.886Y-62.861
X84.426Y-62.861
X86.966Y-62.861
X89.506Y-62.861
X92.046Y-62.861
X94.586Y-62.861
X97.126Y-62.861
X99.793Y-62.861
X102.206Y-62.861
T5
X52.751Y-60.815
X54.751Y-60.815
X56.751Y-60.815
T6
X50.632Y-38.209
X50.632Y-40.749
X50.632Y-43.289
X50.632Y-45.829
X50.632Y-48.369
X50.632Y-50.909
X50.632Y-53.449
X50.632Y-55.989
X73.492Y-38.209
X73.492Y-40.749
X73.492Y-43.289
X73.492Y-45.829
X73.492Y-48.369
X73.492Y-50.909
X73.492Y-53.449
X73.492Y-55.989
T7
X75.039Y-60.053
X79.611Y-56.751
X85.199Y-60.053
X89.771Y-56.751
T8
X50.651Y-60.815
X58.851Y-60.815
X78.781Y-30.701
X78.781Y-33.749
X78.781Y-41.623
X78.781Y-44.671
X101.641Y-30.701
X101.641Y-44.671
T0
M30
