%TF.GenerationSoftware,KiCad,Pcbnew,(6.0.2)*%
%TF.CreationDate,2022-03-15T02:09:27-04:00*%
%TF.ProjectId,ferrous_slime,66657272-6f75-4735-9f73-6c696d652e6b,v0.0.1*%
%TF.SameCoordinates,Original*%
%TF.FileFunction,AssemblyDrawing,Top*%
%FSLAX46Y46*%
G04 Gerber Fmt 4.6, Leading zero omitted, Abs format (unit mm)*
G04 Created by KiCad (PCBNEW (6.0.2)) date 2022-03-15 02:09:27*
%MOMM*%
%LPD*%
G01*
G04 APERTURE LIST*
%ADD10C,0.060000*%
%ADD11C,0.150000*%
%ADD12C,0.050000*%
%ADD13C,0.200000*%
%ADD14C,0.076200*%
%ADD15C,0.100000*%
%ADD16C,0.120000*%
G04 APERTURE END LIST*
D10*
X89658857Y-53721952D02*
X89525523Y-53531476D01*
X89430285Y-53721952D02*
X89430285Y-53321952D01*
X89582666Y-53321952D01*
X89620761Y-53341000D01*
X89639809Y-53360047D01*
X89658857Y-53398142D01*
X89658857Y-53455285D01*
X89639809Y-53493380D01*
X89620761Y-53512428D01*
X89582666Y-53531476D01*
X89430285Y-53531476D01*
X90039809Y-53721952D02*
X89811238Y-53721952D01*
X89925523Y-53721952D02*
X89925523Y-53321952D01*
X89887428Y-53379095D01*
X89849333Y-53417190D01*
X89811238Y-53436238D01*
X90420761Y-53721952D02*
X90192190Y-53721952D01*
X90306476Y-53721952D02*
X90306476Y-53321952D01*
X90268380Y-53379095D01*
X90230285Y-53417190D01*
X90192190Y-53436238D01*
X84070857Y-63081857D02*
X84051809Y-63100904D01*
X83994666Y-63119952D01*
X83956571Y-63119952D01*
X83899428Y-63100904D01*
X83861333Y-63062809D01*
X83842285Y-63024714D01*
X83823238Y-62948523D01*
X83823238Y-62891380D01*
X83842285Y-62815190D01*
X83861333Y-62777095D01*
X83899428Y-62739000D01*
X83956571Y-62719952D01*
X83994666Y-62719952D01*
X84051809Y-62739000D01*
X84070857Y-62758047D01*
X84451809Y-63119952D02*
X84223238Y-63119952D01*
X84337523Y-63119952D02*
X84337523Y-62719952D01*
X84299428Y-62777095D01*
X84261333Y-62815190D01*
X84223238Y-62834238D01*
X84699428Y-62719952D02*
X84737523Y-62719952D01*
X84775619Y-62739000D01*
X84794666Y-62758047D01*
X84813714Y-62796142D01*
X84832761Y-62872333D01*
X84832761Y-62967571D01*
X84813714Y-63043761D01*
X84794666Y-63081857D01*
X84775619Y-63100904D01*
X84737523Y-63119952D01*
X84699428Y-63119952D01*
X84661333Y-63100904D01*
X84642285Y-63081857D01*
X84623238Y-63043761D01*
X84604190Y-62967571D01*
X84604190Y-62872333D01*
X84623238Y-62796142D01*
X84642285Y-62758047D01*
X84661333Y-62739000D01*
X84699428Y-62719952D01*
X71173952Y-55248142D02*
X70983476Y-55381476D01*
X71173952Y-55476714D02*
X70773952Y-55476714D01*
X70773952Y-55324333D01*
X70793000Y-55286238D01*
X70812047Y-55267190D01*
X70850142Y-55248142D01*
X70907285Y-55248142D01*
X70945380Y-55267190D01*
X70964428Y-55286238D01*
X70983476Y-55324333D01*
X70983476Y-55476714D01*
X71173952Y-54867190D02*
X71173952Y-55095761D01*
X71173952Y-54981476D02*
X70773952Y-54981476D01*
X70831095Y-55019571D01*
X70869190Y-55057666D01*
X70888238Y-55095761D01*
X70773952Y-54619571D02*
X70773952Y-54581476D01*
X70793000Y-54543380D01*
X70812047Y-54524333D01*
X70850142Y-54505285D01*
X70926333Y-54486238D01*
X71021571Y-54486238D01*
X71097761Y-54505285D01*
X71135857Y-54524333D01*
X71154904Y-54543380D01*
X71173952Y-54581476D01*
X71173952Y-54619571D01*
X71154904Y-54657666D01*
X71135857Y-54676714D01*
X71097761Y-54695761D01*
X71021571Y-54714809D01*
X70926333Y-54714809D01*
X70850142Y-54695761D01*
X70812047Y-54676714D01*
X70793000Y-54657666D01*
X70773952Y-54619571D01*
X73929857Y-51882666D02*
X73948904Y-51901714D01*
X73967952Y-51958857D01*
X73967952Y-51996952D01*
X73948904Y-52054095D01*
X73910809Y-52092190D01*
X73872714Y-52111238D01*
X73796523Y-52130285D01*
X73739380Y-52130285D01*
X73663190Y-52111238D01*
X73625095Y-52092190D01*
X73587000Y-52054095D01*
X73567952Y-51996952D01*
X73567952Y-51958857D01*
X73587000Y-51901714D01*
X73606047Y-51882666D01*
X73567952Y-51749333D02*
X73567952Y-51501714D01*
X73720333Y-51635047D01*
X73720333Y-51577904D01*
X73739380Y-51539809D01*
X73758428Y-51520761D01*
X73796523Y-51501714D01*
X73891761Y-51501714D01*
X73929857Y-51520761D01*
X73948904Y-51539809D01*
X73967952Y-51577904D01*
X73967952Y-51692190D01*
X73948904Y-51730285D01*
X73929857Y-51749333D01*
D11*
X85352095Y-63915380D02*
X85923523Y-63915380D01*
X85637809Y-64915380D02*
X85637809Y-63915380D01*
X86256857Y-64915380D02*
X86256857Y-63915380D01*
X86637809Y-63915380D01*
X86733047Y-63963000D01*
X86780666Y-64010619D01*
X86828285Y-64105857D01*
X86828285Y-64248714D01*
X86780666Y-64343952D01*
X86733047Y-64391571D01*
X86637809Y-64439190D01*
X86256857Y-64439190D01*
X87161619Y-63915380D02*
X87780666Y-63915380D01*
X87447333Y-64296333D01*
X87590190Y-64296333D01*
X87685428Y-64343952D01*
X87733047Y-64391571D01*
X87780666Y-64486809D01*
X87780666Y-64724904D01*
X87733047Y-64820142D01*
X87685428Y-64867761D01*
X87590190Y-64915380D01*
X87304476Y-64915380D01*
X87209238Y-64867761D01*
X87161619Y-64820142D01*
D10*
X72697952Y-55057666D02*
X72507476Y-55191000D01*
X72697952Y-55286238D02*
X72297952Y-55286238D01*
X72297952Y-55133857D01*
X72317000Y-55095761D01*
X72336047Y-55076714D01*
X72374142Y-55057666D01*
X72431285Y-55057666D01*
X72469380Y-55076714D01*
X72488428Y-55095761D01*
X72507476Y-55133857D01*
X72507476Y-55286238D01*
X72697952Y-54867190D02*
X72697952Y-54791000D01*
X72678904Y-54752904D01*
X72659857Y-54733857D01*
X72602714Y-54695761D01*
X72526523Y-54676714D01*
X72374142Y-54676714D01*
X72336047Y-54695761D01*
X72317000Y-54714809D01*
X72297952Y-54752904D01*
X72297952Y-54829095D01*
X72317000Y-54867190D01*
X72336047Y-54886238D01*
X72374142Y-54905285D01*
X72469380Y-54905285D01*
X72507476Y-54886238D01*
X72526523Y-54867190D01*
X72545571Y-54829095D01*
X72545571Y-54752904D01*
X72526523Y-54714809D01*
X72507476Y-54695761D01*
X72469380Y-54676714D01*
X83078952Y-33541666D02*
X82888476Y-33675000D01*
X83078952Y-33770238D02*
X82678952Y-33770238D01*
X82678952Y-33617857D01*
X82698000Y-33579761D01*
X82717047Y-33560714D01*
X82755142Y-33541666D01*
X82812285Y-33541666D01*
X82850380Y-33560714D01*
X82869428Y-33579761D01*
X82888476Y-33617857D01*
X82888476Y-33770238D01*
X82678952Y-33179761D02*
X82678952Y-33370238D01*
X82869428Y-33389285D01*
X82850380Y-33370238D01*
X82831333Y-33332142D01*
X82831333Y-33236904D01*
X82850380Y-33198809D01*
X82869428Y-33179761D01*
X82907523Y-33160714D01*
X83002761Y-33160714D01*
X83040857Y-33179761D01*
X83059904Y-33198809D01*
X83078952Y-33236904D01*
X83078952Y-33332142D01*
X83059904Y-33370238D01*
X83040857Y-33389285D01*
X83270761Y-43561952D02*
X83270761Y-43161952D01*
X83366000Y-43161952D01*
X83423142Y-43181000D01*
X83461238Y-43219095D01*
X83480285Y-43257190D01*
X83499333Y-43333380D01*
X83499333Y-43390523D01*
X83480285Y-43466714D01*
X83461238Y-43504809D01*
X83423142Y-43542904D01*
X83366000Y-43561952D01*
X83270761Y-43561952D01*
X83861238Y-43161952D02*
X83670761Y-43161952D01*
X83651714Y-43352428D01*
X83670761Y-43333380D01*
X83708857Y-43314333D01*
X83804095Y-43314333D01*
X83842190Y-43333380D01*
X83861238Y-43352428D01*
X83880285Y-43390523D01*
X83880285Y-43485761D01*
X83861238Y-43523857D01*
X83842190Y-43542904D01*
X83804095Y-43561952D01*
X83708857Y-43561952D01*
X83670761Y-43542904D01*
X83651714Y-43523857D01*
D11*
X80272095Y-60740380D02*
X80843523Y-60740380D01*
X80557809Y-61740380D02*
X80557809Y-60740380D01*
X81176857Y-61740380D02*
X81176857Y-60740380D01*
X81557809Y-60740380D01*
X81653047Y-60788000D01*
X81700666Y-60835619D01*
X81748285Y-60930857D01*
X81748285Y-61073714D01*
X81700666Y-61168952D01*
X81653047Y-61216571D01*
X81557809Y-61264190D01*
X81176857Y-61264190D01*
X82700666Y-61740380D02*
X82129238Y-61740380D01*
X82414952Y-61740380D02*
X82414952Y-60740380D01*
X82319714Y-60883238D01*
X82224476Y-60978476D01*
X82129238Y-61026095D01*
D10*
X83685761Y-31115952D02*
X83685761Y-30715952D01*
X83781000Y-30715952D01*
X83838142Y-30735000D01*
X83876238Y-30773095D01*
X83895285Y-30811190D01*
X83914333Y-30887380D01*
X83914333Y-30944523D01*
X83895285Y-31020714D01*
X83876238Y-31058809D01*
X83838142Y-31096904D01*
X83781000Y-31115952D01*
X83685761Y-31115952D01*
X84047666Y-30715952D02*
X84295285Y-30715952D01*
X84161952Y-30868333D01*
X84219095Y-30868333D01*
X84257190Y-30887380D01*
X84276238Y-30906428D01*
X84295285Y-30944523D01*
X84295285Y-31039761D01*
X84276238Y-31077857D01*
X84257190Y-31096904D01*
X84219095Y-31115952D01*
X84104809Y-31115952D01*
X84066714Y-31096904D01*
X84047666Y-31077857D01*
X81975333Y-49456952D02*
X81842000Y-49266476D01*
X81746761Y-49456952D02*
X81746761Y-49056952D01*
X81899142Y-49056952D01*
X81937238Y-49076000D01*
X81956285Y-49095047D01*
X81975333Y-49133142D01*
X81975333Y-49190285D01*
X81956285Y-49228380D01*
X81937238Y-49247428D01*
X81899142Y-49266476D01*
X81746761Y-49266476D01*
X82108666Y-49056952D02*
X82375333Y-49056952D01*
X82203904Y-49456952D01*
D12*
X85519238Y-48999476D02*
X85504000Y-49029952D01*
X85473523Y-49060428D01*
X85427809Y-49106142D01*
X85412571Y-49136619D01*
X85412571Y-49167095D01*
X85488761Y-49151857D02*
X85473523Y-49182333D01*
X85443047Y-49212809D01*
X85382095Y-49228047D01*
X85275428Y-49228047D01*
X85214476Y-49212809D01*
X85184000Y-49182333D01*
X85168761Y-49151857D01*
X85168761Y-49090904D01*
X85184000Y-49060428D01*
X85214476Y-49029952D01*
X85275428Y-49014714D01*
X85382095Y-49014714D01*
X85443047Y-49029952D01*
X85473523Y-49060428D01*
X85488761Y-49090904D01*
X85488761Y-49151857D01*
X85488761Y-48709952D02*
X85488761Y-48892809D01*
X85488761Y-48801380D02*
X85168761Y-48801380D01*
X85214476Y-48831857D01*
X85244952Y-48862333D01*
X85260190Y-48892809D01*
D11*
X83793904Y-46319380D02*
X83793904Y-45319380D01*
X84032000Y-45319380D01*
X84174857Y-45367000D01*
X84270095Y-45462238D01*
X84317714Y-45557476D01*
X84365333Y-45747952D01*
X84365333Y-45890809D01*
X84317714Y-46081285D01*
X84270095Y-46176523D01*
X84174857Y-46271761D01*
X84032000Y-46319380D01*
X83793904Y-46319380D01*
X84746285Y-45414619D02*
X84793904Y-45367000D01*
X84889142Y-45319380D01*
X85127238Y-45319380D01*
X85222476Y-45367000D01*
X85270095Y-45414619D01*
X85317714Y-45509857D01*
X85317714Y-45605095D01*
X85270095Y-45747952D01*
X84698666Y-46319380D01*
X85317714Y-46319380D01*
D10*
X85277333Y-51943952D02*
X85144000Y-51753476D01*
X85048761Y-51943952D02*
X85048761Y-51543952D01*
X85201142Y-51543952D01*
X85239238Y-51563000D01*
X85258285Y-51582047D01*
X85277333Y-51620142D01*
X85277333Y-51677285D01*
X85258285Y-51715380D01*
X85239238Y-51734428D01*
X85201142Y-51753476D01*
X85048761Y-51753476D01*
X85620190Y-51677285D02*
X85620190Y-51943952D01*
X85524952Y-51524904D02*
X85429714Y-51810619D01*
X85677333Y-51810619D01*
X81975333Y-51143857D02*
X81956285Y-51162904D01*
X81899142Y-51181952D01*
X81861047Y-51181952D01*
X81803904Y-51162904D01*
X81765809Y-51124809D01*
X81746761Y-51086714D01*
X81727714Y-51010523D01*
X81727714Y-50953380D01*
X81746761Y-50877190D01*
X81765809Y-50839095D01*
X81803904Y-50801000D01*
X81861047Y-50781952D01*
X81899142Y-50781952D01*
X81956285Y-50801000D01*
X81975333Y-50820047D01*
X82165809Y-51181952D02*
X82242000Y-51181952D01*
X82280095Y-51162904D01*
X82299142Y-51143857D01*
X82337238Y-51086714D01*
X82356285Y-51010523D01*
X82356285Y-50858142D01*
X82337238Y-50820047D01*
X82318190Y-50801000D01*
X82280095Y-50781952D01*
X82203904Y-50781952D01*
X82165809Y-50801000D01*
X82146761Y-50820047D01*
X82127714Y-50858142D01*
X82127714Y-50953380D01*
X82146761Y-50991476D01*
X82165809Y-51010523D01*
X82203904Y-51029571D01*
X82280095Y-51029571D01*
X82318190Y-51010523D01*
X82337238Y-50991476D01*
X82356285Y-50953380D01*
X59890333Y-57038857D02*
X59871285Y-57057904D01*
X59814142Y-57076952D01*
X59776047Y-57076952D01*
X59718904Y-57057904D01*
X59680809Y-57019809D01*
X59661761Y-56981714D01*
X59642714Y-56905523D01*
X59642714Y-56848380D01*
X59661761Y-56772190D01*
X59680809Y-56734095D01*
X59718904Y-56696000D01*
X59776047Y-56676952D01*
X59814142Y-56676952D01*
X59871285Y-56696000D01*
X59890333Y-56715047D01*
X60252238Y-56676952D02*
X60061761Y-56676952D01*
X60042714Y-56867428D01*
X60061761Y-56848380D01*
X60099857Y-56829333D01*
X60195095Y-56829333D01*
X60233190Y-56848380D01*
X60252238Y-56867428D01*
X60271285Y-56905523D01*
X60271285Y-57000761D01*
X60252238Y-57038857D01*
X60233190Y-57057904D01*
X60195095Y-57076952D01*
X60099857Y-57076952D01*
X60061761Y-57057904D01*
X60042714Y-57038857D01*
D13*
X78755714Y-48516609D02*
X78755714Y-49516609D01*
X78517619Y-49516609D01*
X78374761Y-49468990D01*
X78279523Y-49373751D01*
X78231904Y-49278513D01*
X78184285Y-49088037D01*
X78184285Y-48945180D01*
X78231904Y-48754704D01*
X78279523Y-48659466D01*
X78374761Y-48564228D01*
X78517619Y-48516609D01*
X78755714Y-48516609D01*
X77755714Y-48516609D02*
X77755714Y-49516609D01*
X77184285Y-48516609D01*
X77184285Y-49516609D01*
X76708095Y-48516609D02*
X76708095Y-49516609D01*
X76327142Y-49516609D01*
X76231904Y-49468990D01*
X76184285Y-49421370D01*
X76136666Y-49326132D01*
X76136666Y-49183275D01*
X76184285Y-49088037D01*
X76231904Y-49040418D01*
X76327142Y-48992799D01*
X76708095Y-48992799D01*
D10*
X89527574Y-58570126D02*
X89851383Y-58570126D01*
X89889479Y-58551079D01*
X89908526Y-58532031D01*
X89927574Y-58493936D01*
X89927574Y-58417745D01*
X89908526Y-58379650D01*
X89889479Y-58360603D01*
X89851383Y-58341555D01*
X89527574Y-58341555D01*
X89660907Y-57979650D02*
X89927574Y-57979650D01*
X89508526Y-58074888D02*
X89794241Y-58170126D01*
X89794241Y-57922507D01*
X89658857Y-55499952D02*
X89525523Y-55309476D01*
X89430285Y-55499952D02*
X89430285Y-55099952D01*
X89582666Y-55099952D01*
X89620761Y-55119000D01*
X89639809Y-55138047D01*
X89658857Y-55176142D01*
X89658857Y-55233285D01*
X89639809Y-55271380D01*
X89620761Y-55290428D01*
X89582666Y-55309476D01*
X89430285Y-55309476D01*
X90039809Y-55499952D02*
X89811238Y-55499952D01*
X89925523Y-55499952D02*
X89925523Y-55099952D01*
X89887428Y-55157095D01*
X89849333Y-55195190D01*
X89811238Y-55214238D01*
X90192190Y-55138047D02*
X90211238Y-55119000D01*
X90249333Y-55099952D01*
X90344571Y-55099952D01*
X90382666Y-55119000D01*
X90401714Y-55138047D01*
X90420761Y-55176142D01*
X90420761Y-55214238D01*
X90401714Y-55271380D01*
X90173142Y-55499952D01*
X90420761Y-55499952D01*
X74310857Y-55057666D02*
X74329904Y-55076714D01*
X74348952Y-55133857D01*
X74348952Y-55171952D01*
X74329904Y-55229095D01*
X74291809Y-55267190D01*
X74253714Y-55286238D01*
X74177523Y-55305285D01*
X74120380Y-55305285D01*
X74044190Y-55286238D01*
X74006095Y-55267190D01*
X73968000Y-55229095D01*
X73948952Y-55171952D01*
X73948952Y-55133857D01*
X73968000Y-55076714D01*
X73987047Y-55057666D01*
X74348952Y-54676714D02*
X74348952Y-54905285D01*
X74348952Y-54791000D02*
X73948952Y-54791000D01*
X74006095Y-54829095D01*
X74044190Y-54867190D01*
X74063238Y-54905285D01*
X88064952Y-33531674D02*
X87874476Y-33665008D01*
X88064952Y-33760246D02*
X87664952Y-33760246D01*
X87664952Y-33607865D01*
X87684000Y-33569769D01*
X87703047Y-33550722D01*
X87741142Y-33531674D01*
X87798285Y-33531674D01*
X87836380Y-33550722D01*
X87855428Y-33569769D01*
X87874476Y-33607865D01*
X87874476Y-33760246D01*
X87836380Y-33303103D02*
X87817333Y-33341198D01*
X87798285Y-33360246D01*
X87760190Y-33379293D01*
X87741142Y-33379293D01*
X87703047Y-33360246D01*
X87684000Y-33341198D01*
X87664952Y-33303103D01*
X87664952Y-33226912D01*
X87684000Y-33188817D01*
X87703047Y-33169769D01*
X87741142Y-33150722D01*
X87760190Y-33150722D01*
X87798285Y-33169769D01*
X87817333Y-33188817D01*
X87836380Y-33226912D01*
X87836380Y-33303103D01*
X87855428Y-33341198D01*
X87874476Y-33360246D01*
X87912571Y-33379293D01*
X87988761Y-33379293D01*
X88026857Y-33360246D01*
X88045904Y-33341198D01*
X88064952Y-33303103D01*
X88064952Y-33226912D01*
X88045904Y-33188817D01*
X88026857Y-33169769D01*
X87988761Y-33150722D01*
X87912571Y-33150722D01*
X87874476Y-33169769D01*
X87855428Y-33188817D01*
X87836380Y-33226912D01*
X86447952Y-33744738D02*
X86047952Y-33744738D01*
X86047952Y-33649500D01*
X86067000Y-33592357D01*
X86105095Y-33554261D01*
X86143190Y-33535214D01*
X86219380Y-33516166D01*
X86276523Y-33516166D01*
X86352714Y-33535214D01*
X86390809Y-33554261D01*
X86428904Y-33592357D01*
X86447952Y-33649500D01*
X86447952Y-33744738D01*
X86181285Y-33173309D02*
X86447952Y-33173309D01*
X86028904Y-33268547D02*
X86314619Y-33363785D01*
X86314619Y-33116166D01*
D14*
X88781981Y-37486435D02*
X88273981Y-37486435D01*
X88273981Y-37365483D01*
X88298172Y-37292911D01*
X88346552Y-37244530D01*
X88394933Y-37220340D01*
X88491695Y-37196149D01*
X88564267Y-37196149D01*
X88661029Y-37220340D01*
X88709410Y-37244530D01*
X88757791Y-37292911D01*
X88781981Y-37365483D01*
X88781981Y-37486435D01*
X88273981Y-37026816D02*
X88273981Y-36688149D01*
X88781981Y-36905863D01*
X88975809Y-39948939D02*
X88467809Y-39948939D01*
X88467809Y-39827987D01*
X88492000Y-39755415D01*
X88540380Y-39707034D01*
X88588761Y-39682844D01*
X88685523Y-39658653D01*
X88758095Y-39658653D01*
X88854857Y-39682844D01*
X88903238Y-39707034D01*
X88951619Y-39755415D01*
X88975809Y-39827987D01*
X88975809Y-39948939D01*
X88467809Y-39223225D02*
X88467809Y-39319987D01*
X88492000Y-39368367D01*
X88516190Y-39392558D01*
X88588761Y-39440939D01*
X88685523Y-39465129D01*
X88879047Y-39465129D01*
X88927428Y-39440939D01*
X88951619Y-39416748D01*
X88975809Y-39368367D01*
X88975809Y-39271606D01*
X88951619Y-39223225D01*
X88927428Y-39199034D01*
X88879047Y-39174844D01*
X88758095Y-39174844D01*
X88709714Y-39199034D01*
X88685523Y-39223225D01*
X88661333Y-39271606D01*
X88661333Y-39368367D01*
X88685523Y-39416748D01*
X88709714Y-39440939D01*
X88758095Y-39465129D01*
D11*
X91463904Y-44140380D02*
X91463904Y-43140380D01*
X91702000Y-43140380D01*
X91844857Y-43188000D01*
X91940095Y-43283238D01*
X91987714Y-43378476D01*
X92035333Y-43568952D01*
X92035333Y-43711809D01*
X91987714Y-43902285D01*
X91940095Y-43997523D01*
X91844857Y-44092761D01*
X91702000Y-44140380D01*
X91463904Y-44140380D01*
X92606761Y-43568952D02*
X92511523Y-43521333D01*
X92463904Y-43473714D01*
X92416285Y-43378476D01*
X92416285Y-43330857D01*
X92463904Y-43235619D01*
X92511523Y-43188000D01*
X92606761Y-43140380D01*
X92797238Y-43140380D01*
X92892476Y-43188000D01*
X92940095Y-43235619D01*
X92987714Y-43330857D01*
X92987714Y-43378476D01*
X92940095Y-43473714D01*
X92892476Y-43521333D01*
X92797238Y-43568952D01*
X92606761Y-43568952D01*
X92511523Y-43616571D01*
X92463904Y-43664190D01*
X92416285Y-43759428D01*
X92416285Y-43949904D01*
X92463904Y-44045142D01*
X92511523Y-44092761D01*
X92606761Y-44140380D01*
X92797238Y-44140380D01*
X92892476Y-44092761D01*
X92940095Y-44045142D01*
X92987714Y-43949904D01*
X92987714Y-43759428D01*
X92940095Y-43664190D01*
X92892476Y-43616571D01*
X92797238Y-43568952D01*
X91463904Y-42087380D02*
X91463904Y-41087380D01*
X91702000Y-41087380D01*
X91844857Y-41135000D01*
X91940095Y-41230238D01*
X91987714Y-41325476D01*
X92035333Y-41515952D01*
X92035333Y-41658809D01*
X91987714Y-41849285D01*
X91940095Y-41944523D01*
X91844857Y-42039761D01*
X91702000Y-42087380D01*
X91463904Y-42087380D01*
X92606761Y-41515952D02*
X92511523Y-41468333D01*
X92463904Y-41420714D01*
X92416285Y-41325476D01*
X92416285Y-41277857D01*
X92463904Y-41182619D01*
X92511523Y-41135000D01*
X92606761Y-41087380D01*
X92797238Y-41087380D01*
X92892476Y-41135000D01*
X92940095Y-41182619D01*
X92987714Y-41277857D01*
X92987714Y-41325476D01*
X92940095Y-41420714D01*
X92892476Y-41468333D01*
X92797238Y-41515952D01*
X92606761Y-41515952D01*
X92511523Y-41563571D01*
X92463904Y-41611190D01*
X92416285Y-41706428D01*
X92416285Y-41896904D01*
X92463904Y-41992142D01*
X92511523Y-42039761D01*
X92606761Y-42087380D01*
X92797238Y-42087380D01*
X92892476Y-42039761D01*
X92940095Y-41992142D01*
X92987714Y-41896904D01*
X92987714Y-41706428D01*
X92940095Y-41611190D01*
X92892476Y-41563571D01*
X92797238Y-41515952D01*
X69406095Y-32620673D02*
X69882285Y-32620673D01*
X69310857Y-32906387D02*
X69644190Y-31906387D01*
X69977523Y-32906387D01*
X70310857Y-32239721D02*
X70310857Y-32906387D01*
X70310857Y-32334959D02*
X70358476Y-32287340D01*
X70453714Y-32239721D01*
X70596571Y-32239721D01*
X70691809Y-32287340D01*
X70739428Y-32382578D01*
X70739428Y-32906387D01*
X71072761Y-32239721D02*
X71453714Y-32239721D01*
X71215619Y-31906387D02*
X71215619Y-32763530D01*
X71263238Y-32858768D01*
X71358476Y-32906387D01*
X71453714Y-32906387D01*
X72168000Y-32858768D02*
X72072761Y-32906387D01*
X71882285Y-32906387D01*
X71787047Y-32858768D01*
X71739428Y-32763530D01*
X71739428Y-32382578D01*
X71787047Y-32287340D01*
X71882285Y-32239721D01*
X72072761Y-32239721D01*
X72168000Y-32287340D01*
X72215619Y-32382578D01*
X72215619Y-32477816D01*
X71739428Y-32573054D01*
X72644190Y-32239721D02*
X72644190Y-32906387D01*
X72644190Y-32334959D02*
X72691809Y-32287340D01*
X72787047Y-32239721D01*
X72929904Y-32239721D01*
X73025142Y-32287340D01*
X73072761Y-32382578D01*
X73072761Y-32906387D01*
X73548952Y-32239721D02*
X73548952Y-32906387D01*
X73548952Y-32334959D02*
X73596571Y-32287340D01*
X73691809Y-32239721D01*
X73834666Y-32239721D01*
X73929904Y-32287340D01*
X73977523Y-32382578D01*
X73977523Y-32906387D01*
X74882285Y-32906387D02*
X74882285Y-32382578D01*
X74834666Y-32287340D01*
X74739428Y-32239721D01*
X74548952Y-32239721D01*
X74453714Y-32287340D01*
X74882285Y-32858768D02*
X74787047Y-32906387D01*
X74548952Y-32906387D01*
X74453714Y-32858768D01*
X74406095Y-32763530D01*
X74406095Y-32668292D01*
X74453714Y-32573054D01*
X74548952Y-32525435D01*
X74787047Y-32525435D01*
X74882285Y-32477816D01*
X76072761Y-32620673D02*
X76548952Y-32620673D01*
X75977523Y-32906387D02*
X76310857Y-31906387D01*
X76644190Y-32906387D01*
X76977523Y-32906387D02*
X76977523Y-32239721D01*
X76977523Y-32430197D02*
X77025142Y-32334959D01*
X77072761Y-32287340D01*
X77168000Y-32239721D01*
X77263238Y-32239721D01*
X77977523Y-32858768D02*
X77882285Y-32906387D01*
X77691809Y-32906387D01*
X77596571Y-32858768D01*
X77548952Y-32763530D01*
X77548952Y-32382578D01*
X77596571Y-32287340D01*
X77691809Y-32239721D01*
X77882285Y-32239721D01*
X77977523Y-32287340D01*
X78025142Y-32382578D01*
X78025142Y-32477816D01*
X77548952Y-32573054D01*
X78882285Y-32906387D02*
X78882285Y-32382578D01*
X78834666Y-32287340D01*
X78739428Y-32239721D01*
X78548952Y-32239721D01*
X78453714Y-32287340D01*
X78882285Y-32858768D02*
X78787047Y-32906387D01*
X78548952Y-32906387D01*
X78453714Y-32858768D01*
X78406095Y-32763530D01*
X78406095Y-32668292D01*
X78453714Y-32573054D01*
X78548952Y-32525435D01*
X78787047Y-32525435D01*
X78882285Y-32477816D01*
X73406162Y-36790380D02*
X73406162Y-37599904D01*
X73453781Y-37695142D01*
X73501400Y-37742761D01*
X73596638Y-37790380D01*
X73787114Y-37790380D01*
X73882352Y-37742761D01*
X73929971Y-37695142D01*
X73977590Y-37599904D01*
X73977590Y-36790380D01*
X74406162Y-36885619D02*
X74453781Y-36838000D01*
X74549019Y-36790380D01*
X74787114Y-36790380D01*
X74882352Y-36838000D01*
X74929971Y-36885619D01*
X74977590Y-36980857D01*
X74977590Y-37076095D01*
X74929971Y-37218952D01*
X74358543Y-37790380D01*
X74977590Y-37790380D01*
X93940380Y-35586323D02*
X94654666Y-35586323D01*
X94797523Y-35633942D01*
X94892761Y-35729180D01*
X94940380Y-35872037D01*
X94940380Y-35967275D01*
X94273714Y-34681561D02*
X94940380Y-34681561D01*
X93892761Y-34919656D02*
X94607047Y-35157751D01*
X94607047Y-34538704D01*
X57658095Y-42579370D02*
X57658095Y-43388894D01*
X57705714Y-43484132D01*
X57753333Y-43531751D01*
X57848571Y-43579370D01*
X58039047Y-43579370D01*
X58134285Y-43531751D01*
X58181904Y-43484132D01*
X58229523Y-43388894D01*
X58229523Y-42579370D01*
X59229523Y-43579370D02*
X58658095Y-43579370D01*
X58943809Y-43579370D02*
X58943809Y-42579370D01*
X58848571Y-42722228D01*
X58753333Y-42817466D01*
X58658095Y-42865085D01*
X94496095Y-41637380D02*
X95067523Y-41637380D01*
X94781809Y-42637380D02*
X94781809Y-41637380D01*
X95400857Y-42637380D02*
X95400857Y-41637380D01*
X95781809Y-41637380D01*
X95877047Y-41685000D01*
X95924666Y-41732619D01*
X95972285Y-41827857D01*
X95972285Y-41970714D01*
X95924666Y-42065952D01*
X95877047Y-42113571D01*
X95781809Y-42161190D01*
X95400857Y-42161190D01*
X96353238Y-41732619D02*
X96400857Y-41685000D01*
X96496095Y-41637380D01*
X96734190Y-41637380D01*
X96829428Y-41685000D01*
X96877047Y-41732619D01*
X96924666Y-41827857D01*
X96924666Y-41923095D01*
X96877047Y-42065952D01*
X96305619Y-42637380D01*
X96924666Y-42637380D01*
D10*
X89645857Y-62827857D02*
X89626809Y-62846904D01*
X89569666Y-62865952D01*
X89531571Y-62865952D01*
X89474428Y-62846904D01*
X89436333Y-62808809D01*
X89417285Y-62770714D01*
X89398238Y-62694523D01*
X89398238Y-62637380D01*
X89417285Y-62561190D01*
X89436333Y-62523095D01*
X89474428Y-62485000D01*
X89531571Y-62465952D01*
X89569666Y-62465952D01*
X89626809Y-62485000D01*
X89645857Y-62504047D01*
X90026809Y-62865952D02*
X89798238Y-62865952D01*
X89912523Y-62865952D02*
X89912523Y-62465952D01*
X89874428Y-62523095D01*
X89836333Y-62561190D01*
X89798238Y-62580238D01*
X90179190Y-62504047D02*
X90198238Y-62485000D01*
X90236333Y-62465952D01*
X90331571Y-62465952D01*
X90369666Y-62485000D01*
X90388714Y-62504047D01*
X90407761Y-62542142D01*
X90407761Y-62580238D01*
X90388714Y-62637380D01*
X90160142Y-62865952D01*
X90407761Y-62865952D01*
D11*
X93433903Y-40755380D02*
X93433903Y-39755380D01*
X93671999Y-39755380D01*
X93814856Y-39803000D01*
X93910094Y-39898238D01*
X93957713Y-39993476D01*
X94005332Y-40183952D01*
X94005332Y-40326809D01*
X93957713Y-40517285D01*
X93910094Y-40612523D01*
X93814856Y-40707761D01*
X93671999Y-40755380D01*
X93433903Y-40755380D01*
X94481522Y-40755380D02*
X94671999Y-40755380D01*
X94767237Y-40707761D01*
X94814856Y-40660142D01*
X94910094Y-40517285D01*
X94957713Y-40326809D01*
X94957713Y-39945857D01*
X94910094Y-39850619D01*
X94862475Y-39803000D01*
X94767237Y-39755380D01*
X94576760Y-39755380D01*
X94481522Y-39803000D01*
X94433903Y-39850619D01*
X94386284Y-39945857D01*
X94386284Y-40183952D01*
X94433903Y-40279190D01*
X94481522Y-40326809D01*
X94576760Y-40374428D01*
X94767237Y-40374428D01*
X94862475Y-40326809D01*
X94910094Y-40279190D01*
X94957713Y-40183952D01*
D10*
X74094952Y-48834666D02*
X73904476Y-48968000D01*
X74094952Y-49063238D02*
X73694952Y-49063238D01*
X73694952Y-48910857D01*
X73714000Y-48872761D01*
X73733047Y-48853714D01*
X73771142Y-48834666D01*
X73828285Y-48834666D01*
X73866380Y-48853714D01*
X73885428Y-48872761D01*
X73904476Y-48910857D01*
X73904476Y-49063238D01*
X74094952Y-48453714D02*
X74094952Y-48682285D01*
X74094952Y-48568000D02*
X73694952Y-48568000D01*
X73752095Y-48606095D01*
X73790190Y-48644190D01*
X73809238Y-48682285D01*
D11*
X84299333Y-39555656D02*
X85092666Y-39555656D01*
X85186000Y-39508990D01*
X85232666Y-39462323D01*
X85279333Y-39368990D01*
X85279333Y-39182323D01*
X85232666Y-39088990D01*
X85186000Y-39042323D01*
X85092666Y-38995656D01*
X84299333Y-38995656D01*
X84299333Y-38622323D02*
X84299333Y-38015656D01*
X84672666Y-38342323D01*
X84672666Y-38202323D01*
X84719333Y-38108990D01*
X84766000Y-38062323D01*
X84859333Y-38015656D01*
X85092666Y-38015656D01*
X85186000Y-38062323D01*
X85232666Y-38108990D01*
X85279333Y-38202323D01*
X85279333Y-38482323D01*
X85232666Y-38575656D01*
X85186000Y-38622323D01*
D10*
X86864857Y-31115952D02*
X86731523Y-30925476D01*
X86636285Y-31115952D02*
X86636285Y-30715952D01*
X86788666Y-30715952D01*
X86826761Y-30735000D01*
X86845809Y-30754047D01*
X86864857Y-30792142D01*
X86864857Y-30849285D01*
X86845809Y-30887380D01*
X86826761Y-30906428D01*
X86788666Y-30925476D01*
X86636285Y-30925476D01*
X87245809Y-31115952D02*
X87017238Y-31115952D01*
X87131523Y-31115952D02*
X87131523Y-30715952D01*
X87093428Y-30773095D01*
X87055333Y-30811190D01*
X87017238Y-30830238D01*
X87379142Y-30715952D02*
X87626761Y-30715952D01*
X87493428Y-30868333D01*
X87550571Y-30868333D01*
X87588666Y-30887380D01*
X87607714Y-30906428D01*
X87626761Y-30944523D01*
X87626761Y-31039761D01*
X87607714Y-31077857D01*
X87588666Y-31096904D01*
X87550571Y-31115952D01*
X87436285Y-31115952D01*
X87398190Y-31096904D01*
X87379142Y-31077857D01*
D11*
X63428666Y-55511380D02*
X63428666Y-56225666D01*
X63381047Y-56368523D01*
X63285809Y-56463761D01*
X63142952Y-56511380D01*
X63047714Y-56511380D01*
X63904857Y-56511380D02*
X63904857Y-55511380D01*
X64285809Y-55511380D01*
X64381047Y-55559000D01*
X64428666Y-55606619D01*
X64476285Y-55701857D01*
X64476285Y-55844714D01*
X64428666Y-55939952D01*
X64381047Y-55987571D01*
X64285809Y-56035190D01*
X63904857Y-56035190D01*
X64809619Y-55511380D02*
X65428666Y-55511380D01*
X65095333Y-55892333D01*
X65238190Y-55892333D01*
X65333428Y-55939952D01*
X65381047Y-55987571D01*
X65428666Y-56082809D01*
X65428666Y-56320904D01*
X65381047Y-56416142D01*
X65333428Y-56463761D01*
X65238190Y-56511380D01*
X64952476Y-56511380D01*
X64857238Y-56463761D01*
X64809619Y-56416142D01*
D10*
X85017952Y-33541666D02*
X84827476Y-33675000D01*
X85017952Y-33770238D02*
X84617952Y-33770238D01*
X84617952Y-33617857D01*
X84637000Y-33579761D01*
X84656047Y-33560714D01*
X84694142Y-33541666D01*
X84751285Y-33541666D01*
X84789380Y-33560714D01*
X84808428Y-33579761D01*
X84827476Y-33617857D01*
X84827476Y-33770238D01*
X84617952Y-33198809D02*
X84617952Y-33275000D01*
X84637000Y-33313095D01*
X84656047Y-33332142D01*
X84713190Y-33370238D01*
X84789380Y-33389285D01*
X84941761Y-33389285D01*
X84979857Y-33370238D01*
X84998904Y-33351190D01*
X85017952Y-33313095D01*
X85017952Y-33236904D01*
X84998904Y-33198809D01*
X84979857Y-33179761D01*
X84941761Y-33160714D01*
X84846523Y-33160714D01*
X84808428Y-33179761D01*
X84789380Y-33198809D01*
X84770333Y-33236904D01*
X84770333Y-33313095D01*
X84789380Y-33351190D01*
X84808428Y-33370238D01*
X84846523Y-33389285D01*
X89645857Y-61303857D02*
X89626809Y-61322904D01*
X89569666Y-61341952D01*
X89531571Y-61341952D01*
X89474428Y-61322904D01*
X89436333Y-61284809D01*
X89417285Y-61246714D01*
X89398238Y-61170523D01*
X89398238Y-61113380D01*
X89417285Y-61037190D01*
X89436333Y-60999095D01*
X89474428Y-60961000D01*
X89531571Y-60941952D01*
X89569666Y-60941952D01*
X89626809Y-60961000D01*
X89645857Y-60980047D01*
X90026809Y-61341952D02*
X89798238Y-61341952D01*
X89912523Y-61341952D02*
X89912523Y-60941952D01*
X89874428Y-60999095D01*
X89836333Y-61037190D01*
X89798238Y-61056238D01*
X90407761Y-61341952D02*
X90179190Y-61341952D01*
X90293476Y-61341952D02*
X90293476Y-60941952D01*
X90255380Y-60999095D01*
X90217285Y-61037190D01*
X90179190Y-61056238D01*
X67656057Y-48783866D02*
X67675104Y-48802914D01*
X67694152Y-48860057D01*
X67694152Y-48898152D01*
X67675104Y-48955295D01*
X67637009Y-48993390D01*
X67598914Y-49012438D01*
X67522723Y-49031485D01*
X67465580Y-49031485D01*
X67389390Y-49012438D01*
X67351295Y-48993390D01*
X67313200Y-48955295D01*
X67294152Y-48898152D01*
X67294152Y-48860057D01*
X67313200Y-48802914D01*
X67332247Y-48783866D01*
X67427485Y-48441009D02*
X67694152Y-48441009D01*
X67275104Y-48536247D02*
X67560819Y-48631485D01*
X67560819Y-48383866D01*
X72278857Y-48834666D02*
X72297904Y-48853714D01*
X72316952Y-48910857D01*
X72316952Y-48948952D01*
X72297904Y-49006095D01*
X72259809Y-49044190D01*
X72221714Y-49063238D01*
X72145523Y-49082285D01*
X72088380Y-49082285D01*
X72012190Y-49063238D01*
X71974095Y-49044190D01*
X71936000Y-49006095D01*
X71916952Y-48948952D01*
X71916952Y-48910857D01*
X71936000Y-48853714D01*
X71955047Y-48834666D01*
X71955047Y-48682285D02*
X71936000Y-48663238D01*
X71916952Y-48625142D01*
X71916952Y-48529904D01*
X71936000Y-48491809D01*
X71955047Y-48472761D01*
X71993142Y-48453714D01*
X72031238Y-48453714D01*
X72088380Y-48472761D01*
X72316952Y-48701333D01*
X72316952Y-48453714D01*
X86547333Y-43561952D02*
X86414000Y-43371476D01*
X86318761Y-43561952D02*
X86318761Y-43161952D01*
X86471142Y-43161952D01*
X86509238Y-43181000D01*
X86528285Y-43200047D01*
X86547333Y-43238142D01*
X86547333Y-43295285D01*
X86528285Y-43333380D01*
X86509238Y-43352428D01*
X86471142Y-43371476D01*
X86318761Y-43371476D01*
X86699714Y-43200047D02*
X86718761Y-43181000D01*
X86756857Y-43161952D01*
X86852095Y-43161952D01*
X86890190Y-43181000D01*
X86909238Y-43200047D01*
X86928285Y-43238142D01*
X86928285Y-43276238D01*
X86909238Y-43333380D01*
X86680666Y-43561952D01*
X86928285Y-43561952D01*
D11*
X84526380Y-57517656D02*
X84526380Y-57993847D01*
X83526380Y-57993847D01*
X84526380Y-56660513D02*
X84526380Y-57231942D01*
X84526380Y-56946228D02*
X83526380Y-56946228D01*
X83669238Y-57041466D01*
X83764476Y-57136704D01*
X83812095Y-57231942D01*
X57237380Y-42370333D02*
X57951666Y-42370333D01*
X58094523Y-42417952D01*
X58189761Y-42513190D01*
X58237380Y-42656047D01*
X58237380Y-42751285D01*
X57332619Y-41941761D02*
X57285000Y-41894142D01*
X57237380Y-41798904D01*
X57237380Y-41560809D01*
X57285000Y-41465571D01*
X57332619Y-41417952D01*
X57427857Y-41370333D01*
X57523095Y-41370333D01*
X57665952Y-41417952D01*
X58237380Y-41989380D01*
X58237380Y-41370333D01*
D10*
X90928857Y-41783952D02*
X90795523Y-41593476D01*
X90700285Y-41783952D02*
X90700285Y-41383952D01*
X90852666Y-41383952D01*
X90890761Y-41403000D01*
X90909809Y-41422047D01*
X90928857Y-41460142D01*
X90928857Y-41517285D01*
X90909809Y-41555380D01*
X90890761Y-41574428D01*
X90852666Y-41593476D01*
X90700285Y-41593476D01*
X91309809Y-41783952D02*
X91081238Y-41783952D01*
X91195523Y-41783952D02*
X91195523Y-41383952D01*
X91157428Y-41441095D01*
X91119333Y-41479190D01*
X91081238Y-41498238D01*
X91652666Y-41517285D02*
X91652666Y-41783952D01*
X91557428Y-41364904D02*
X91462190Y-41650619D01*
X91709809Y-41650619D01*
X89042857Y-42431666D02*
X89061904Y-42450714D01*
X89080952Y-42507857D01*
X89080952Y-42545952D01*
X89061904Y-42603095D01*
X89023809Y-42641190D01*
X88985714Y-42660238D01*
X88909523Y-42679285D01*
X88852380Y-42679285D01*
X88776190Y-42660238D01*
X88738095Y-42641190D01*
X88700000Y-42603095D01*
X88680952Y-42545952D01*
X88680952Y-42507857D01*
X88700000Y-42450714D01*
X88719047Y-42431666D01*
X88852380Y-42203095D02*
X88833333Y-42241190D01*
X88814285Y-42260238D01*
X88776190Y-42279285D01*
X88757142Y-42279285D01*
X88719047Y-42260238D01*
X88700000Y-42241190D01*
X88680952Y-42203095D01*
X88680952Y-42126904D01*
X88700000Y-42088809D01*
X88719047Y-42069761D01*
X88757142Y-42050714D01*
X88776190Y-42050714D01*
X88814285Y-42069761D01*
X88833333Y-42088809D01*
X88852380Y-42126904D01*
X88852380Y-42203095D01*
X88871428Y-42241190D01*
X88890476Y-42260238D01*
X88928571Y-42279285D01*
X89004761Y-42279285D01*
X89042857Y-42260238D01*
X89061904Y-42241190D01*
X89080952Y-42203095D01*
X89080952Y-42126904D01*
X89061904Y-42088809D01*
X89042857Y-42069761D01*
X89004761Y-42050714D01*
X88928571Y-42050714D01*
X88890476Y-42069761D01*
X88871428Y-42088809D01*
X88852380Y-42126904D01*
D11*
X70556380Y-51535095D02*
X69556380Y-51535095D01*
X69556380Y-51297000D01*
X69604000Y-51154142D01*
X69699238Y-51058904D01*
X69794476Y-51011285D01*
X69984952Y-50963666D01*
X70127809Y-50963666D01*
X70318285Y-51011285D01*
X70413523Y-51058904D01*
X70508761Y-51154142D01*
X70556380Y-51297000D01*
X70556380Y-51535095D01*
X70556380Y-50011285D02*
X70556380Y-50582714D01*
X70556380Y-50297000D02*
X69556380Y-50297000D01*
X69699238Y-50392238D01*
X69794476Y-50487476D01*
X69842095Y-50582714D01*
D15*
X68156008Y-57017000D02*
X67456008Y-57017000D01*
X78656008Y-57017000D02*
X78656008Y-58617000D01*
X67456008Y-64617000D02*
X79356008Y-64617000D01*
X79356008Y-57017000D02*
X78656008Y-57017000D01*
X69406008Y-59242000D02*
X68906008Y-59742000D01*
X78656008Y-58617000D02*
X68156008Y-58617000D01*
X69906008Y-59742000D02*
X69406008Y-59242000D01*
X68906008Y-59742000D02*
X69906008Y-59742000D01*
X68156008Y-58617000D02*
X68156008Y-57017000D01*
X67456008Y-57017000D02*
X67456008Y-64617000D01*
X79356008Y-64617000D02*
X79356008Y-57017000D01*
X90716000Y-53128500D02*
X90716000Y-53953500D01*
X89116000Y-53128500D02*
X90716000Y-53128500D01*
X89116000Y-53953500D02*
X89116000Y-53128500D01*
X90716000Y-53953500D02*
X89116000Y-53953500D01*
X85128000Y-63339000D02*
X83528000Y-63339000D01*
X83528000Y-63339000D02*
X83528000Y-62539000D01*
X85128000Y-62539000D02*
X85128000Y-63339000D01*
X83528000Y-62539000D02*
X85128000Y-62539000D01*
X71405500Y-55791000D02*
X70580500Y-55791000D01*
X70580500Y-54191000D02*
X71405500Y-54191000D01*
X70580500Y-55791000D02*
X70580500Y-54191000D01*
X71405500Y-54191000D02*
X71405500Y-55791000D01*
X76670000Y-55223500D02*
X76670000Y-54398500D01*
X76670000Y-54398500D02*
X78270000Y-54398500D01*
X78270000Y-55223500D02*
X76670000Y-55223500D01*
X78270000Y-54398500D02*
X78270000Y-55223500D01*
X73387000Y-52616000D02*
X73387000Y-51016000D01*
X74187000Y-52616000D02*
X73387000Y-52616000D01*
X73387000Y-51016000D02*
X74187000Y-51016000D01*
X74187000Y-51016000D02*
X74187000Y-52616000D01*
X72929500Y-54191000D02*
X72929500Y-55791000D01*
X72104500Y-55791000D02*
X72104500Y-54191000D01*
X72929500Y-55791000D02*
X72104500Y-55791000D01*
X72104500Y-54191000D02*
X72929500Y-54191000D01*
X83216500Y-34275000D02*
X82391500Y-34275000D01*
X82391500Y-32675000D02*
X83216500Y-32675000D01*
X83216500Y-32675000D02*
X83216500Y-34275000D01*
X82391500Y-34275000D02*
X82391500Y-32675000D01*
X83066000Y-42981000D02*
X82766000Y-43281000D01*
X82766000Y-43281000D02*
X82766000Y-43781000D01*
X84366000Y-43781000D02*
X84366000Y-42981000D01*
X82766000Y-43781000D02*
X84366000Y-43781000D01*
X84366000Y-42981000D02*
X83066000Y-42981000D01*
X84781000Y-30535000D02*
X83481000Y-30535000D01*
X83181000Y-31335000D02*
X84781000Y-31335000D01*
X84781000Y-31335000D02*
X84781000Y-30535000D01*
X83181000Y-30835000D02*
X83181000Y-31335000D01*
X83481000Y-30535000D02*
X83181000Y-30835000D01*
X82842000Y-48863500D02*
X82842000Y-49688500D01*
X81242000Y-48863500D02*
X82842000Y-48863500D01*
X82842000Y-49688500D02*
X81242000Y-49688500D01*
X81242000Y-49688500D02*
X81242000Y-48863500D01*
X86794000Y-49619000D02*
X83894000Y-49619000D01*
X86794000Y-48644000D02*
X86794000Y-49619000D01*
X86469000Y-48319000D02*
X86794000Y-48644000D01*
X83894000Y-48319000D02*
X86469000Y-48319000D01*
X83894000Y-49619000D02*
X83894000Y-48319000D01*
X83182000Y-46567000D02*
X83182000Y-44767000D01*
X83182000Y-44767000D02*
X85982000Y-44767000D01*
X84232000Y-45667000D02*
X84232000Y-46217000D01*
X84232000Y-45667000D02*
X84832000Y-45267000D01*
X84832000Y-46067000D02*
X84232000Y-45667000D01*
X83832000Y-45667000D02*
X84232000Y-45667000D01*
X85982000Y-46567000D02*
X83182000Y-46567000D01*
X84832000Y-45267000D02*
X84832000Y-46067000D01*
X84232000Y-45667000D02*
X84232000Y-45117000D01*
X85982000Y-44767000D02*
X85982000Y-46567000D01*
X84832000Y-45667000D02*
X85332000Y-45667000D01*
X86144000Y-52175500D02*
X84544000Y-52175500D01*
X84544000Y-51350500D02*
X86144000Y-51350500D01*
X84544000Y-52175500D02*
X84544000Y-51350500D01*
X86144000Y-51350500D02*
X86144000Y-52175500D01*
X82842000Y-50601000D02*
X82842000Y-51401000D01*
X81242000Y-50601000D02*
X82842000Y-50601000D01*
X82842000Y-51401000D02*
X81242000Y-51401000D01*
X81242000Y-51401000D02*
X81242000Y-50601000D01*
X60757000Y-57296000D02*
X59157000Y-57296000D01*
X60757000Y-56496000D02*
X60757000Y-57296000D01*
X59157000Y-57296000D02*
X59157000Y-56496000D01*
X59157000Y-56496000D02*
X60757000Y-56496000D01*
X79070000Y-49718990D02*
X79070000Y-48218990D01*
X75870000Y-49718990D02*
X75870000Y-48218990D01*
X79070000Y-48218990D02*
X75870000Y-48218990D01*
X79070000Y-49718990D02*
X75870000Y-49718990D01*
X91196622Y-57465365D02*
X91196622Y-59065365D01*
X88296622Y-57465365D02*
X91196622Y-57465365D01*
X88696622Y-59065365D02*
X88296622Y-58665365D01*
X91196622Y-59065365D02*
X88696622Y-59065365D01*
X88296622Y-58665365D02*
X88296622Y-57465365D01*
X95200800Y-51226000D02*
X95200800Y-45326000D01*
X87600800Y-50526000D02*
X87600800Y-51226000D01*
X90325800Y-48776000D02*
X89825800Y-49276000D01*
X89200800Y-50526000D02*
X87600800Y-50526000D01*
X87600800Y-46026000D02*
X89200800Y-46026000D01*
X95200800Y-45326000D02*
X87600800Y-45326000D01*
X90325800Y-49776000D02*
X90325800Y-48776000D01*
X89200800Y-46026000D02*
X89200800Y-50526000D01*
X87600800Y-51226000D02*
X95200800Y-51226000D01*
X87600800Y-45326000D02*
X87600800Y-46026000D01*
X89825800Y-49276000D02*
X90325800Y-49776000D01*
X89116000Y-55731500D02*
X89116000Y-54906500D01*
X90716000Y-54906500D02*
X90716000Y-55731500D01*
X90716000Y-55731500D02*
X89116000Y-55731500D01*
X89116000Y-54906500D02*
X90716000Y-54906500D01*
X73768000Y-54191000D02*
X74568000Y-54191000D01*
X74568000Y-55791000D02*
X73768000Y-55791000D01*
X73768000Y-55791000D02*
X73768000Y-54191000D01*
X74568000Y-54191000D02*
X74568000Y-55791000D01*
X87471500Y-32665008D02*
X88296500Y-32665008D01*
X87471500Y-34265008D02*
X87471500Y-32665008D01*
X88296500Y-34265008D02*
X87471500Y-34265008D01*
X88296500Y-32665008D02*
X88296500Y-34265008D01*
X86367000Y-32649500D02*
X85867000Y-32649500D01*
X85867000Y-32649500D02*
X85867000Y-34249500D01*
X85867000Y-34249500D02*
X86667000Y-34249500D01*
X86667000Y-32949500D02*
X86367000Y-32649500D01*
X86667000Y-34249500D02*
X86667000Y-32949500D01*
X88552173Y-37111489D02*
X88552173Y-37261489D01*
X88102173Y-37561489D02*
X88102173Y-36261489D01*
X88102173Y-36261489D02*
X89002173Y-36261489D01*
X89002173Y-37561489D02*
X88102173Y-37561489D01*
X88752173Y-37111489D02*
X88352173Y-37111489D01*
X88552173Y-37111489D02*
X88752173Y-36811489D01*
X88352173Y-36811489D02*
X88552173Y-37111489D01*
X89002173Y-36261489D02*
X89002173Y-37561489D01*
X88552173Y-36811489D02*
X88552173Y-36661489D01*
X88752173Y-36811489D02*
X88352173Y-36811489D01*
X88446000Y-39424000D02*
X88846000Y-39424000D01*
X88646000Y-39724000D02*
X88646000Y-39874000D01*
X88846000Y-39724000D02*
X88646000Y-39424000D01*
X89096000Y-40274000D02*
X88196000Y-40274000D01*
X88196000Y-38974000D02*
X89096000Y-38974000D01*
X88196000Y-40274000D02*
X88196000Y-38974000D01*
X89096000Y-38974000D02*
X89096000Y-40274000D01*
X88646000Y-39424000D02*
X88646000Y-39274000D01*
X88646000Y-39424000D02*
X88446000Y-39724000D01*
X88446000Y-39724000D02*
X88846000Y-39724000D01*
X93602000Y-42735000D02*
X93602000Y-44535000D01*
X91852000Y-43635000D02*
X91852000Y-44185000D01*
X91852000Y-43635000D02*
X91852000Y-43085000D01*
X93602000Y-44535000D02*
X90802000Y-44535000D01*
X90802000Y-42735000D02*
X93602000Y-42735000D01*
X92452000Y-43235000D02*
X92452000Y-44035000D01*
X91452000Y-43635000D02*
X91852000Y-43635000D01*
X90802000Y-44535000D02*
X90802000Y-42735000D01*
X91852000Y-43635000D02*
X92452000Y-43235000D01*
X92452000Y-43635000D02*
X92952000Y-43635000D01*
X92452000Y-44035000D02*
X91852000Y-43635000D01*
X100466004Y-60112986D02*
X96466004Y-60112986D01*
X92066004Y-62412986D02*
X92066004Y-53812986D01*
X96466004Y-62412986D02*
X96466004Y-53812986D01*
X96466004Y-58112986D02*
X100466004Y-58112986D01*
X100466004Y-58112986D02*
X100466004Y-60112986D01*
X96466004Y-53812986D02*
X92066004Y-53812986D01*
X92066004Y-62412986D02*
X96466004Y-62412986D01*
D16*
X68368000Y-35404007D02*
X67568000Y-36204007D01*
X67568000Y-35504007D02*
X67568000Y-30104007D01*
D11*
X67568000Y-46604007D02*
X80768000Y-46604007D01*
D16*
X80768000Y-35504007D02*
X80768000Y-30104007D01*
D11*
X67568000Y-35409007D02*
X67568000Y-46604007D01*
X80768000Y-35404007D02*
X67568000Y-35409007D01*
X80768000Y-46604007D02*
X80768000Y-35409007D01*
D16*
X80768000Y-30104007D02*
X67568000Y-30104007D01*
D15*
X98163000Y-30782990D02*
X90813000Y-30782990D01*
X98163000Y-39722990D02*
X98163000Y-30782990D01*
X90813000Y-39722990D02*
X98163000Y-39722990D01*
X90813000Y-39722990D02*
X90813000Y-30782990D01*
X89103000Y-63085000D02*
X89103000Y-62285000D01*
X89103000Y-62285000D02*
X90703000Y-62285000D01*
X90703000Y-63085000D02*
X89103000Y-63085000D01*
X90703000Y-62285000D02*
X90703000Y-63085000D01*
X93971999Y-41803000D02*
X93971999Y-41403000D01*
X94271999Y-41403000D02*
X93971999Y-41603000D01*
X94821999Y-41153000D02*
X94821999Y-42053000D01*
X94821999Y-42053000D02*
X93521999Y-42053000D01*
X93971999Y-41603000D02*
X94271999Y-41803000D01*
X93521999Y-42053000D02*
X93521999Y-41153000D01*
X93971999Y-41603000D02*
X93821999Y-41603000D01*
X94271999Y-41803000D02*
X94271999Y-41403000D01*
X94271999Y-41603000D02*
X94421999Y-41603000D01*
X93521999Y-41153000D02*
X94821999Y-41153000D01*
X74326500Y-49568000D02*
X73501500Y-49568000D01*
X74326500Y-47968000D02*
X74326500Y-49568000D01*
X73501500Y-47968000D02*
X74326500Y-47968000D01*
X73501500Y-49568000D02*
X73501500Y-47968000D01*
X82386000Y-39783990D02*
X82386000Y-36858990D01*
X87286000Y-40758990D02*
X83361000Y-40758990D01*
X83361000Y-40758990D02*
X82386000Y-39783990D01*
X87286000Y-36858990D02*
X87286000Y-40758990D01*
X82386000Y-36858990D02*
X87286000Y-36858990D01*
X86322000Y-31347500D02*
X86322000Y-30522500D01*
X87922000Y-30522500D02*
X87922000Y-31347500D01*
X87922000Y-31347500D02*
X86322000Y-31347500D01*
X86322000Y-30522500D02*
X87922000Y-30522500D01*
X85155500Y-32675000D02*
X85155500Y-34275000D01*
X84330500Y-32675000D02*
X85155500Y-32675000D01*
X85155500Y-34275000D02*
X84330500Y-34275000D01*
X84330500Y-34275000D02*
X84330500Y-32675000D01*
X89103000Y-60761000D02*
X90703000Y-60761000D01*
X89103000Y-61561000D02*
X89103000Y-60761000D01*
X90703000Y-61561000D02*
X89103000Y-61561000D01*
X90703000Y-60761000D02*
X90703000Y-61561000D01*
X67113200Y-49517200D02*
X67113200Y-47917200D01*
X67913200Y-49517200D02*
X67113200Y-49517200D01*
X67113200Y-47917200D02*
X67913200Y-47917200D01*
X67913200Y-47917200D02*
X67913200Y-49517200D01*
X75800000Y-52817000D02*
X75800000Y-51217000D01*
X76600000Y-51217000D02*
X76600000Y-52817000D01*
X76600000Y-52817000D02*
X75800000Y-52817000D01*
X75800000Y-51217000D02*
X76600000Y-51217000D01*
X72536000Y-47968000D02*
X72536000Y-49568000D01*
X71736000Y-49568000D02*
X71736000Y-47968000D01*
X72536000Y-49568000D02*
X71736000Y-49568000D01*
X71736000Y-47968000D02*
X72536000Y-47968000D01*
X85814000Y-42968500D02*
X87414000Y-42968500D01*
X87414000Y-43793500D02*
X85814000Y-43793500D01*
X85814000Y-43793500D02*
X85814000Y-42968500D01*
X87414000Y-42968500D02*
X87414000Y-43793500D01*
X80424000Y-61000990D02*
X80424000Y-53700990D01*
X87724000Y-61000990D02*
X85474000Y-61000990D01*
X80424000Y-53700990D02*
X82674000Y-53700990D01*
X87724000Y-53700990D02*
X85474000Y-53700990D01*
X87724000Y-53700990D02*
X87724000Y-61000990D01*
X80424000Y-61000990D02*
X82674000Y-61000990D01*
X81784000Y-55060990D02*
G75*
G03*
X81784000Y-59640990I2290000J-2290000D01*
G01*
X86364000Y-59640990D02*
G75*
G03*
X86364000Y-55060990I-2290000J2290000D01*
G01*
X56515000Y-50927000D02*
X56515000Y-33782000D01*
X56515000Y-33782000D02*
X57150000Y-33147000D01*
X59055000Y-33147000D02*
X59055000Y-50927000D01*
X59055000Y-50927000D02*
X56515000Y-50927000D01*
X57150000Y-33147000D02*
X59055000Y-33147000D01*
X79140000Y-51217000D02*
X79140000Y-52817000D01*
X79140000Y-52817000D02*
X78340000Y-52817000D01*
X78340000Y-52817000D02*
X78340000Y-51217000D01*
X78340000Y-51217000D02*
X79140000Y-51217000D01*
X90386000Y-41190500D02*
X91986000Y-41190500D01*
X90386000Y-42015500D02*
X90386000Y-41190500D01*
X91986000Y-42015500D02*
X90386000Y-42015500D01*
X91986000Y-41190500D02*
X91986000Y-42015500D01*
X88500000Y-43165000D02*
X88500000Y-41565000D01*
X89300000Y-43165000D02*
X88500000Y-43165000D01*
X88500000Y-41565000D02*
X89300000Y-41565000D01*
X89300000Y-41565000D02*
X89300000Y-43165000D01*
X70104000Y-50547000D02*
X70104000Y-50297000D01*
X70454000Y-50547000D02*
X70104000Y-51047000D01*
X69404000Y-51647000D02*
X69404000Y-49847000D01*
X70804000Y-51647000D02*
X69404000Y-51647000D01*
X70804000Y-49847000D02*
X70804000Y-51647000D01*
X69404000Y-49847000D02*
X70804000Y-49847000D01*
X70104000Y-51047000D02*
X70104000Y-51247000D01*
X70104000Y-51047000D02*
X69754000Y-50547000D01*
X69754000Y-50547000D02*
X70454000Y-50547000D01*
X69754000Y-51047000D02*
X70454000Y-51047000D01*
M02*
