%TF.GenerationSoftware,KiCad,Pcbnew,(6.0.2)*%
%TF.CreationDate,2022-03-15T02:09:27-04:00*%
%TF.ProjectId,ferrous_slime,66657272-6f75-4735-9f73-6c696d652e6b,v0.0.1*%
%TF.SameCoordinates,Original*%
%TF.FileFunction,Other,User*%
%FSLAX46Y46*%
G04 Gerber Fmt 4.6, Leading zero omitted, Abs format (unit mm)*
G04 Created by KiCad (PCBNEW (6.0.2)) date 2022-03-15 02:09:27*
%MOMM*%
%LPD*%
G01*
G04 APERTURE LIST*
%ADD10C,0.050000*%
G04 APERTURE END LIST*
D10*
X66956008Y-56517000D02*
X66956008Y-65117000D01*
X79856008Y-65117000D02*
X79856008Y-56517000D01*
X79856008Y-56517000D02*
X66956008Y-56517000D01*
X66956008Y-65117000D02*
X79856008Y-65117000D01*
X91396000Y-54271000D02*
X88436000Y-54271000D01*
X88436000Y-54271000D02*
X88436000Y-52811000D01*
X88436000Y-52811000D02*
X91396000Y-52811000D01*
X91396000Y-52811000D02*
X91396000Y-54271000D01*
X82848000Y-62209000D02*
X85808000Y-62209000D01*
X82848000Y-63669000D02*
X82848000Y-62209000D01*
X85808000Y-63669000D02*
X82848000Y-63669000D01*
X85808000Y-62209000D02*
X85808000Y-63669000D01*
X70263000Y-56471000D02*
X70263000Y-53511000D01*
X71723000Y-53511000D02*
X71723000Y-56471000D01*
X70263000Y-53511000D02*
X71723000Y-53511000D01*
X71723000Y-56471000D02*
X70263000Y-56471000D01*
X78950000Y-54081000D02*
X78950000Y-55541000D01*
X78950000Y-55541000D02*
X75990000Y-55541000D01*
X75990000Y-55541000D02*
X75990000Y-54081000D01*
X75990000Y-54081000D02*
X78950000Y-54081000D01*
X74517000Y-53296000D02*
X73057000Y-53296000D01*
X73057000Y-50336000D02*
X74517000Y-50336000D01*
X74517000Y-50336000D02*
X74517000Y-53296000D01*
X73057000Y-53296000D02*
X73057000Y-50336000D01*
X88122000Y-62685000D02*
G75*
G03*
X88122000Y-62685000I-1000000J0D01*
G01*
X73247000Y-53511000D02*
X73247000Y-56471000D01*
X71787000Y-56471000D02*
X71787000Y-53511000D01*
X73247000Y-56471000D02*
X71787000Y-56471000D01*
X71787000Y-53511000D02*
X73247000Y-53511000D01*
X83534000Y-34955000D02*
X82074000Y-34955000D01*
X82074000Y-31995000D02*
X83534000Y-31995000D01*
X83534000Y-31995000D02*
X83534000Y-34955000D01*
X82074000Y-34955000D02*
X82074000Y-31995000D01*
X85046000Y-44111000D02*
X82086000Y-44111000D01*
X85046000Y-42651000D02*
X85046000Y-44111000D01*
X82086000Y-42651000D02*
X85046000Y-42651000D01*
X82086000Y-44111000D02*
X82086000Y-42651000D01*
X82534000Y-62738000D02*
G75*
G03*
X82534000Y-62738000I-1000000J0D01*
G01*
X82501000Y-30205000D02*
X85461000Y-30205000D01*
X82501000Y-31665000D02*
X82501000Y-30205000D01*
X85461000Y-31665000D02*
X82501000Y-31665000D01*
X85461000Y-30205000D02*
X85461000Y-31665000D01*
X83522000Y-50006000D02*
X80562000Y-50006000D01*
X80562000Y-48546000D02*
X83522000Y-48546000D01*
X83522000Y-48546000D02*
X83522000Y-50006000D01*
X80562000Y-50006000D02*
X80562000Y-48546000D01*
X87044000Y-47049000D02*
X83644000Y-47049000D01*
X83644000Y-47049000D02*
X83644000Y-50889000D01*
X83644000Y-50889000D02*
X87044000Y-50889000D01*
X87044000Y-50889000D02*
X87044000Y-47049000D01*
X82232000Y-44517000D02*
X86932000Y-44517000D01*
X86932000Y-46817000D02*
X82232000Y-46817000D01*
X86932000Y-44517000D02*
X86932000Y-46817000D01*
X82232000Y-44517000D02*
X82232000Y-46817000D01*
X86824000Y-52493000D02*
X83864000Y-52493000D01*
X86824000Y-51033000D02*
X86824000Y-52493000D01*
X83864000Y-52493000D02*
X83864000Y-51033000D01*
X83864000Y-51033000D02*
X86824000Y-51033000D01*
X83522000Y-51731000D02*
X80562000Y-51731000D01*
X80562000Y-51731000D02*
X80562000Y-50271000D01*
X83522000Y-50271000D02*
X83522000Y-51731000D01*
X80562000Y-50271000D02*
X83522000Y-50271000D01*
X58477000Y-56166000D02*
X61437000Y-56166000D01*
X61437000Y-56166000D02*
X61437000Y-57626000D01*
X61437000Y-57626000D02*
X58477000Y-57626000D01*
X58477000Y-57626000D02*
X58477000Y-56166000D01*
X79470000Y-47818990D02*
X75470000Y-47818990D01*
X79470000Y-50118990D02*
X75470000Y-50118990D01*
X79470000Y-50118990D02*
X79470000Y-47818990D01*
X75470000Y-50118990D02*
X75470000Y-47818990D01*
X91446622Y-56215365D02*
X88046622Y-56215365D01*
X88046622Y-60315365D02*
X91446622Y-60315365D01*
X88046622Y-56215365D02*
X88046622Y-60315365D01*
X91446622Y-60315365D02*
X91446622Y-56215365D01*
X87100800Y-51726000D02*
X95700800Y-51726000D01*
X95700800Y-51726000D02*
X95700800Y-44826000D01*
X95700800Y-44826000D02*
X87100800Y-44826000D01*
X87100800Y-44826000D02*
X87100800Y-51726000D01*
X88436000Y-56049000D02*
X88436000Y-54589000D01*
X91396000Y-54589000D02*
X91396000Y-56049000D01*
X88436000Y-54589000D02*
X91396000Y-54589000D01*
X91396000Y-56049000D02*
X88436000Y-56049000D01*
X74898000Y-56471000D02*
X73438000Y-56471000D01*
X73438000Y-56471000D02*
X73438000Y-53511000D01*
X74898000Y-53511000D02*
X74898000Y-56471000D01*
X73438000Y-53511000D02*
X74898000Y-53511000D01*
X88614000Y-31985008D02*
X88614000Y-34945008D01*
X88614000Y-34945008D02*
X87154000Y-34945008D01*
X87154000Y-34945008D02*
X87154000Y-31985008D01*
X87154000Y-31985008D02*
X88614000Y-31985008D01*
X85537000Y-31969500D02*
X86997000Y-31969500D01*
X86997000Y-31969500D02*
X86997000Y-34929500D01*
X85537000Y-34929500D02*
X85537000Y-31969500D01*
X86997000Y-34929500D02*
X85537000Y-34929500D01*
X89252173Y-35661489D02*
X89252173Y-38161489D01*
X89252173Y-38161489D02*
X87852173Y-38161489D01*
X87852173Y-35661489D02*
X89252173Y-35661489D01*
X87852173Y-38161489D02*
X87852173Y-35661489D01*
X89346000Y-40874000D02*
X87946000Y-40874000D01*
X87946000Y-40874000D02*
X87946000Y-38374000D01*
X89346000Y-38374000D02*
X89346000Y-40874000D01*
X87946000Y-38374000D02*
X89346000Y-38374000D01*
X89852000Y-42485000D02*
X89852000Y-44785000D01*
X89852000Y-42485000D02*
X94552000Y-42485000D01*
X94552000Y-44785000D02*
X89852000Y-44785000D01*
X94552000Y-42485000D02*
X94552000Y-44785000D01*
X91566004Y-52412986D02*
X100966004Y-52412986D01*
X91566004Y-63812986D02*
X91566004Y-52412986D01*
X100966004Y-63812986D02*
X91566004Y-63812986D01*
X100966004Y-52412986D02*
X100966004Y-63812986D01*
X67368000Y-46804007D02*
X67368000Y-29904007D01*
X80968000Y-29904007D02*
X80968000Y-46804007D01*
X80968000Y-46804007D02*
X67368000Y-46804007D01*
X67368000Y-29904007D02*
X80968000Y-29904007D01*
X61228000Y-62665000D02*
X56628000Y-62665000D01*
X61228000Y-62665000D02*
X61228000Y-60165000D01*
X56628000Y-60165000D02*
X56628000Y-62665000D01*
X56628000Y-60165000D02*
X61228000Y-60165000D01*
X89738000Y-29932990D02*
X98668000Y-29932990D01*
X98668000Y-29932990D02*
X98668000Y-40572990D01*
X98668000Y-40572990D02*
X89738000Y-40572990D01*
X89738000Y-40572990D02*
X89738000Y-29932990D01*
X66390000Y-56036990D02*
X50520000Y-56036990D01*
X50520000Y-56036990D02*
X50520000Y-30276990D01*
X50520000Y-30276990D02*
X66390000Y-30276990D01*
X66390000Y-30276990D02*
X66390000Y-56036990D01*
X96758000Y-43635000D02*
G75*
G03*
X96758000Y-43635000I-1000000J0D01*
G01*
X91383000Y-63415000D02*
X88423000Y-63415000D01*
X88423000Y-63415000D02*
X88423000Y-61955000D01*
X91383000Y-61955000D02*
X91383000Y-63415000D01*
X88423000Y-61955000D02*
X91383000Y-61955000D01*
X92921999Y-40903000D02*
X95421999Y-40903000D01*
X92921999Y-42303000D02*
X92921999Y-40903000D01*
X95421999Y-42303000D02*
X92921999Y-42303000D01*
X95421999Y-40903000D02*
X95421999Y-42303000D01*
X73184000Y-50248000D02*
X73184000Y-47288000D01*
X74644000Y-47288000D02*
X74644000Y-50248000D01*
X74644000Y-50248000D02*
X73184000Y-50248000D01*
X73184000Y-47288000D02*
X74644000Y-47288000D01*
X82136000Y-42508990D02*
X87536000Y-42508990D01*
X87536000Y-42508990D02*
X87536000Y-35108990D01*
X87536000Y-35108990D02*
X82136000Y-35108990D01*
X82136000Y-35108990D02*
X82136000Y-42508990D01*
X85642000Y-30205000D02*
X88602000Y-30205000D01*
X85642000Y-31665000D02*
X85642000Y-30205000D01*
X88602000Y-31665000D02*
X85642000Y-31665000D01*
X88602000Y-30205000D02*
X88602000Y-31665000D01*
X66562000Y-59109000D02*
X66562000Y-56609000D01*
X61962000Y-56609000D02*
X61962000Y-59109000D01*
X61962000Y-56609000D02*
X66562000Y-56609000D01*
X66562000Y-59109000D02*
X61962000Y-59109000D01*
X85473000Y-31995000D02*
X85473000Y-34955000D01*
X84013000Y-31995000D02*
X85473000Y-31995000D01*
X84013000Y-34955000D02*
X84013000Y-31995000D01*
X85473000Y-34955000D02*
X84013000Y-34955000D01*
X91383000Y-60431000D02*
X91383000Y-61891000D01*
X88423000Y-61891000D02*
X88423000Y-60431000D01*
X88423000Y-60431000D02*
X91383000Y-60431000D01*
X91383000Y-61891000D02*
X88423000Y-61891000D01*
X61962000Y-60165000D02*
X66562000Y-60165000D01*
X61962000Y-60165000D02*
X61962000Y-62665000D01*
X66562000Y-62665000D02*
X66562000Y-60165000D01*
X66562000Y-62665000D02*
X61962000Y-62665000D01*
X68243200Y-47237200D02*
X68243200Y-50197200D01*
X68243200Y-50197200D02*
X66783200Y-50197200D01*
X66783200Y-50197200D02*
X66783200Y-47237200D01*
X66783200Y-47237200D02*
X68243200Y-47237200D01*
X75470000Y-50537000D02*
X76930000Y-50537000D01*
X76930000Y-53497000D02*
X75470000Y-53497000D01*
X76930000Y-50537000D02*
X76930000Y-53497000D01*
X75470000Y-53497000D02*
X75470000Y-50537000D01*
X72866000Y-47288000D02*
X72866000Y-50248000D01*
X71406000Y-50248000D02*
X71406000Y-47288000D01*
X72866000Y-50248000D02*
X71406000Y-50248000D01*
X71406000Y-47288000D02*
X72866000Y-47288000D01*
X85134000Y-44111000D02*
X85134000Y-42651000D01*
X88094000Y-44111000D02*
X85134000Y-44111000D01*
X88094000Y-42651000D02*
X88094000Y-44111000D01*
X85134000Y-42651000D02*
X88094000Y-42651000D01*
X87974000Y-53150990D02*
X80174000Y-53150990D01*
X80174000Y-53150990D02*
X80174000Y-61550990D01*
X87974000Y-61550990D02*
X87974000Y-53150990D01*
X80174000Y-61550990D02*
X87974000Y-61550990D01*
X59585000Y-32617000D02*
X55985000Y-32617000D01*
X59585000Y-51467000D02*
X59585000Y-32617000D01*
X55985000Y-32617000D02*
X55985000Y-51467000D01*
X55985000Y-51467000D02*
X59585000Y-51467000D01*
X79470000Y-50537000D02*
X79470000Y-53497000D01*
X79470000Y-53497000D02*
X78010000Y-53497000D01*
X78010000Y-53497000D02*
X78010000Y-50537000D01*
X78010000Y-50537000D02*
X79470000Y-50537000D01*
X89706000Y-40873000D02*
X92666000Y-40873000D01*
X92666000Y-42333000D02*
X89706000Y-42333000D01*
X92666000Y-40873000D02*
X92666000Y-42333000D01*
X89706000Y-42333000D02*
X89706000Y-40873000D01*
X88170000Y-40885000D02*
X89630000Y-40885000D01*
X89630000Y-40885000D02*
X89630000Y-43845000D01*
X89630000Y-43845000D02*
X88170000Y-43845000D01*
X88170000Y-43845000D02*
X88170000Y-40885000D01*
X71054000Y-52747000D02*
X71054000Y-48747000D01*
X69154000Y-52747000D02*
X71054000Y-52747000D01*
X69154000Y-52747000D02*
X69154000Y-48747000D01*
X69154000Y-48747000D02*
X71054000Y-48747000D01*
M02*
