%FSLAX45Y45*%
G04 Gerber Fmt 4.5, Leading zero omitted, Abs format (unit mm)*
G04 Created by KiCad (PCBNEW (6.0.2)) date 2022-03-07 06:31:46*
%MOMM*%
%LPD*%
G01*
G04 APERTURE LIST*
%TA.AperFunction,Profile*%
%ADD10C,0.050000*%
%TD*%
%ADD11C,0.200000*%
%ADD12C,0.065000*%
G04 APERTURE END LIST*
D10*
X9702800Y-4490500D02*
X9525000Y-4490500D01*
X9525000Y-4490500D02*
X9525000Y-5201700D01*
X9525000Y-5201700D02*
X9702800Y-5201700D01*
X9702800Y-5201700D02*
X9702800Y-6395500D01*
X9702800Y-6395500D02*
X5562600Y-6395500D01*
X5562600Y-6395500D02*
X5562600Y-2991900D01*
X5562600Y-2991900D02*
X6731000Y-2991900D01*
X6731000Y-2991900D02*
X8077200Y-2991900D01*
X8077200Y-2991900D02*
X9702800Y-2991900D01*
X9702800Y-2991900D02*
X9702800Y-4490500D01*
D11*
D12*
X9155800Y-3203799D02*
X9220800Y-3268799D01*
X9220800Y-3203799D02*
X9155800Y-3268799D01*
X9155800Y-3781799D02*
X9220800Y-3846799D01*
X9220800Y-3781799D02*
X9155800Y-3846799D01*
D11*
X5817719Y-6708476D02*
X5817719Y-6508476D01*
X5865338Y-6508476D01*
X5893909Y-6518000D01*
X5912957Y-6537048D01*
X5922481Y-6556095D01*
X5932005Y-6594190D01*
X5932005Y-6622762D01*
X5922481Y-6660857D01*
X5912957Y-6679905D01*
X5893909Y-6698952D01*
X5865338Y-6708476D01*
X5817719Y-6708476D01*
X6017719Y-6708476D02*
X6017719Y-6575143D01*
X6017719Y-6613238D02*
X6027243Y-6594190D01*
X6036767Y-6584667D01*
X6055814Y-6575143D01*
X6074862Y-6575143D01*
X6141528Y-6708476D02*
X6141528Y-6575143D01*
X6141528Y-6508476D02*
X6132005Y-6518000D01*
X6141528Y-6527524D01*
X6151052Y-6518000D01*
X6141528Y-6508476D01*
X6141528Y-6527524D01*
X6265338Y-6708476D02*
X6246290Y-6698952D01*
X6236767Y-6679905D01*
X6236767Y-6508476D01*
X6370100Y-6708476D02*
X6351052Y-6698952D01*
X6341528Y-6679905D01*
X6341528Y-6508476D01*
X6598671Y-6708476D02*
X6598671Y-6508476D01*
X6665338Y-6651333D01*
X6732005Y-6508476D01*
X6732005Y-6708476D01*
X6912957Y-6708476D02*
X6912957Y-6603714D01*
X6903433Y-6584667D01*
X6884386Y-6575143D01*
X6846290Y-6575143D01*
X6827243Y-6584667D01*
X6912957Y-6698952D02*
X6893909Y-6708476D01*
X6846290Y-6708476D01*
X6827243Y-6698952D01*
X6817719Y-6679905D01*
X6817719Y-6660857D01*
X6827243Y-6641809D01*
X6846290Y-6632286D01*
X6893909Y-6632286D01*
X6912957Y-6622762D01*
X7008195Y-6575143D02*
X7008195Y-6775143D01*
X7008195Y-6584667D02*
X7027243Y-6575143D01*
X7065338Y-6575143D01*
X7084386Y-6584667D01*
X7093909Y-6594190D01*
X7103433Y-6613238D01*
X7103433Y-6670381D01*
X7093909Y-6689428D01*
X7084386Y-6698952D01*
X7065338Y-6708476D01*
X7027243Y-6708476D01*
X7008195Y-6698952D01*
X7189148Y-6689428D02*
X7198671Y-6698952D01*
X7189148Y-6708476D01*
X7179624Y-6698952D01*
X7189148Y-6689428D01*
X7189148Y-6708476D01*
X7189148Y-6584667D02*
X7198671Y-6594190D01*
X7189148Y-6603714D01*
X7179624Y-6594190D01*
X7189148Y-6584667D01*
X7189148Y-6603714D01*
D12*
X5495100Y-7005500D02*
X5560100Y-7070500D01*
X5560100Y-7005500D02*
X5495100Y-7070500D01*
D11*
X5855814Y-6928476D02*
X5874862Y-6928476D01*
X5893909Y-6938000D01*
X5903433Y-6947524D01*
X5912957Y-6966571D01*
X5922481Y-7004667D01*
X5922481Y-7052286D01*
X5912957Y-7090381D01*
X5903433Y-7109428D01*
X5893909Y-7118952D01*
X5874862Y-7128476D01*
X5855814Y-7128476D01*
X5836767Y-7118952D01*
X5827243Y-7109428D01*
X5817719Y-7090381D01*
X5808195Y-7052286D01*
X5808195Y-7004667D01*
X5817719Y-6966571D01*
X5827243Y-6947524D01*
X5836767Y-6938000D01*
X5855814Y-6928476D01*
X6008195Y-7109428D02*
X6017719Y-7118952D01*
X6008195Y-7128476D01*
X5998671Y-7118952D01*
X6008195Y-7109428D01*
X6008195Y-7128476D01*
X6189148Y-6928476D02*
X6151052Y-6928476D01*
X6132005Y-6938000D01*
X6122481Y-6947524D01*
X6103433Y-6976095D01*
X6093909Y-7014190D01*
X6093909Y-7090381D01*
X6103433Y-7109428D01*
X6112957Y-7118952D01*
X6132005Y-7128476D01*
X6170100Y-7128476D01*
X6189148Y-7118952D01*
X6198671Y-7109428D01*
X6208195Y-7090381D01*
X6208195Y-7042762D01*
X6198671Y-7023714D01*
X6189148Y-7014190D01*
X6170100Y-7004667D01*
X6132005Y-7004667D01*
X6112957Y-7014190D01*
X6103433Y-7023714D01*
X6093909Y-7042762D01*
X6389148Y-6928476D02*
X6293909Y-6928476D01*
X6284386Y-7023714D01*
X6293909Y-7014190D01*
X6312957Y-7004667D01*
X6360576Y-7004667D01*
X6379624Y-7014190D01*
X6389148Y-7023714D01*
X6398671Y-7042762D01*
X6398671Y-7090381D01*
X6389148Y-7109428D01*
X6379624Y-7118952D01*
X6360576Y-7128476D01*
X6312957Y-7128476D01*
X6293909Y-7118952D01*
X6284386Y-7109428D01*
X6522481Y-6928476D02*
X6541528Y-6928476D01*
X6560576Y-6938000D01*
X6570100Y-6947524D01*
X6579624Y-6966571D01*
X6589148Y-7004667D01*
X6589148Y-7052286D01*
X6579624Y-7090381D01*
X6570100Y-7109428D01*
X6560576Y-7118952D01*
X6541528Y-7128476D01*
X6522481Y-7128476D01*
X6503433Y-7118952D01*
X6493909Y-7109428D01*
X6484386Y-7090381D01*
X6474862Y-7052286D01*
X6474862Y-7004667D01*
X6484386Y-6966571D01*
X6493909Y-6947524D01*
X6503433Y-6938000D01*
X6522481Y-6928476D01*
X6674862Y-7128476D02*
X6674862Y-6995143D01*
X6674862Y-7014190D02*
X6684386Y-7004667D01*
X6703433Y-6995143D01*
X6732005Y-6995143D01*
X6751052Y-7004667D01*
X6760576Y-7023714D01*
X6760576Y-7128476D01*
X6760576Y-7023714D02*
X6770100Y-7004667D01*
X6789148Y-6995143D01*
X6817719Y-6995143D01*
X6836767Y-7004667D01*
X6846290Y-7023714D01*
X6846290Y-7128476D01*
X6941528Y-7128476D02*
X6941528Y-6995143D01*
X6941528Y-7014190D02*
X6951052Y-7004667D01*
X6970100Y-6995143D01*
X6998671Y-6995143D01*
X7017719Y-7004667D01*
X7027243Y-7023714D01*
X7027243Y-7128476D01*
X7027243Y-7023714D02*
X7036767Y-7004667D01*
X7055814Y-6995143D01*
X7084386Y-6995143D01*
X7103433Y-7004667D01*
X7112957Y-7023714D01*
X7112957Y-7128476D01*
X7503433Y-6918952D02*
X7332005Y-7176095D01*
X7760576Y-6928476D02*
X7779624Y-6928476D01*
X7798671Y-6938000D01*
X7808195Y-6947524D01*
X7817719Y-6966571D01*
X7827243Y-7004667D01*
X7827243Y-7052286D01*
X7817719Y-7090381D01*
X7808195Y-7109428D01*
X7798671Y-7118952D01*
X7779624Y-7128476D01*
X7760576Y-7128476D01*
X7741528Y-7118952D01*
X7732005Y-7109428D01*
X7722481Y-7090381D01*
X7712957Y-7052286D01*
X7712957Y-7004667D01*
X7722481Y-6966571D01*
X7732005Y-6947524D01*
X7741528Y-6938000D01*
X7760576Y-6928476D01*
X7912957Y-7109428D02*
X7922481Y-7118952D01*
X7912957Y-7128476D01*
X7903433Y-7118952D01*
X7912957Y-7109428D01*
X7912957Y-7128476D01*
X8046290Y-6928476D02*
X8065338Y-6928476D01*
X8084386Y-6938000D01*
X8093909Y-6947524D01*
X8103433Y-6966571D01*
X8112957Y-7004667D01*
X8112957Y-7052286D01*
X8103433Y-7090381D01*
X8093909Y-7109428D01*
X8084386Y-7118952D01*
X8065338Y-7128476D01*
X8046290Y-7128476D01*
X8027243Y-7118952D01*
X8017719Y-7109428D01*
X8008195Y-7090381D01*
X7998671Y-7052286D01*
X7998671Y-7004667D01*
X8008195Y-6966571D01*
X8017719Y-6947524D01*
X8027243Y-6938000D01*
X8046290Y-6928476D01*
X8189148Y-6947524D02*
X8198671Y-6938000D01*
X8217719Y-6928476D01*
X8265338Y-6928476D01*
X8284386Y-6938000D01*
X8293909Y-6947524D01*
X8303433Y-6966571D01*
X8303433Y-6985619D01*
X8293909Y-7014190D01*
X8179624Y-7128476D01*
X8303433Y-7128476D01*
X8484386Y-6928476D02*
X8389148Y-6928476D01*
X8379624Y-7023714D01*
X8389148Y-7014190D01*
X8408195Y-7004667D01*
X8455814Y-7004667D01*
X8474862Y-7014190D01*
X8484386Y-7023714D01*
X8493910Y-7042762D01*
X8493910Y-7090381D01*
X8484386Y-7109428D01*
X8474862Y-7118952D01*
X8455814Y-7128476D01*
X8408195Y-7128476D01*
X8389148Y-7118952D01*
X8379624Y-7109428D01*
X8665338Y-6928476D02*
X8627243Y-6928476D01*
X8608195Y-6938000D01*
X8598671Y-6947524D01*
X8579624Y-6976095D01*
X8570100Y-7014190D01*
X8570100Y-7090381D01*
X8579624Y-7109428D01*
X8589148Y-7118952D01*
X8608195Y-7128476D01*
X8646290Y-7128476D01*
X8665338Y-7118952D01*
X8674862Y-7109428D01*
X8684386Y-7090381D01*
X8684386Y-7042762D01*
X8674862Y-7023714D01*
X8665338Y-7014190D01*
X8646290Y-7004667D01*
X8608195Y-7004667D01*
X8589148Y-7014190D01*
X8579624Y-7023714D01*
X8570100Y-7042762D01*
X8760576Y-6928476D02*
X8760576Y-6966571D01*
X8836767Y-6928476D02*
X8836767Y-6966571D01*
X9132005Y-7204667D02*
X9122481Y-7195143D01*
X9103433Y-7166571D01*
X9093910Y-7147524D01*
X9084386Y-7118952D01*
X9074862Y-7071333D01*
X9074862Y-7033238D01*
X9084386Y-6985619D01*
X9093910Y-6957048D01*
X9103433Y-6938000D01*
X9122481Y-6909428D01*
X9132005Y-6899905D01*
X9198671Y-6947524D02*
X9208195Y-6938000D01*
X9227243Y-6928476D01*
X9274862Y-6928476D01*
X9293910Y-6938000D01*
X9303433Y-6947524D01*
X9312957Y-6966571D01*
X9312957Y-6985619D01*
X9303433Y-7014190D01*
X9189148Y-7128476D01*
X9312957Y-7128476D01*
X9551052Y-7128476D02*
X9551052Y-6928476D01*
X9636767Y-7128476D02*
X9636767Y-7023714D01*
X9627243Y-7004667D01*
X9608195Y-6995143D01*
X9579624Y-6995143D01*
X9560576Y-7004667D01*
X9551052Y-7014190D01*
X9760576Y-7128476D02*
X9741529Y-7118952D01*
X9732005Y-7109428D01*
X9722481Y-7090381D01*
X9722481Y-7033238D01*
X9732005Y-7014190D01*
X9741529Y-7004667D01*
X9760576Y-6995143D01*
X9789148Y-6995143D01*
X9808195Y-7004667D01*
X9817719Y-7014190D01*
X9827243Y-7033238D01*
X9827243Y-7090381D01*
X9817719Y-7109428D01*
X9808195Y-7118952D01*
X9789148Y-7128476D01*
X9760576Y-7128476D01*
X9941529Y-7128476D02*
X9922481Y-7118952D01*
X9912957Y-7099905D01*
X9912957Y-6928476D01*
X10093910Y-7118952D02*
X10074862Y-7128476D01*
X10036767Y-7128476D01*
X10017719Y-7118952D01*
X10008195Y-7099905D01*
X10008195Y-7023714D01*
X10017719Y-7004667D01*
X10036767Y-6995143D01*
X10074862Y-6995143D01*
X10093910Y-7004667D01*
X10103433Y-7023714D01*
X10103433Y-7042762D01*
X10008195Y-7061809D01*
X10179624Y-7118952D02*
X10198671Y-7128476D01*
X10236767Y-7128476D01*
X10255814Y-7118952D01*
X10265338Y-7099905D01*
X10265338Y-7090381D01*
X10255814Y-7071333D01*
X10236767Y-7061809D01*
X10208195Y-7061809D01*
X10189148Y-7052286D01*
X10179624Y-7033238D01*
X10179624Y-7023714D01*
X10189148Y-7004667D01*
X10208195Y-6995143D01*
X10236767Y-6995143D01*
X10255814Y-7004667D01*
X10332005Y-7204667D02*
X10341529Y-7195143D01*
X10360576Y-7166571D01*
X10370100Y-7147524D01*
X10379624Y-7118952D01*
X10389148Y-7071333D01*
X10389148Y-7033238D01*
X10379624Y-6985619D01*
X10370100Y-6957048D01*
X10360576Y-6938000D01*
X10341529Y-6909428D01*
X10332005Y-6899905D01*
X10693910Y-7204667D02*
X10684386Y-7195143D01*
X10665338Y-7166571D01*
X10655814Y-7147524D01*
X10646290Y-7118952D01*
X10636767Y-7071333D01*
X10636767Y-7033238D01*
X10646290Y-6985619D01*
X10655814Y-6957048D01*
X10665338Y-6938000D01*
X10684386Y-6909428D01*
X10693910Y-6899905D01*
X10770100Y-6995143D02*
X10770100Y-7128476D01*
X10770100Y-7014190D02*
X10779624Y-7004667D01*
X10798671Y-6995143D01*
X10827243Y-6995143D01*
X10846290Y-7004667D01*
X10855814Y-7023714D01*
X10855814Y-7128476D01*
X10979624Y-7128476D02*
X10960576Y-7118952D01*
X10951052Y-7109428D01*
X10941529Y-7090381D01*
X10941529Y-7033238D01*
X10951052Y-7014190D01*
X10960576Y-7004667D01*
X10979624Y-6995143D01*
X11008195Y-6995143D01*
X11027243Y-7004667D01*
X11036767Y-7014190D01*
X11046290Y-7033238D01*
X11046290Y-7090381D01*
X11036767Y-7109428D01*
X11027243Y-7118952D01*
X11008195Y-7128476D01*
X10979624Y-7128476D01*
X11103433Y-6995143D02*
X11179624Y-6995143D01*
X11132005Y-6928476D02*
X11132005Y-7099905D01*
X11141529Y-7118952D01*
X11160576Y-7128476D01*
X11179624Y-7128476D01*
X11398671Y-6995143D02*
X11398671Y-7195143D01*
X11398671Y-7004667D02*
X11417719Y-6995143D01*
X11455814Y-6995143D01*
X11474862Y-7004667D01*
X11484386Y-7014190D01*
X11493909Y-7033238D01*
X11493909Y-7090381D01*
X11484386Y-7109428D01*
X11474862Y-7118952D01*
X11455814Y-7128476D01*
X11417719Y-7128476D01*
X11398671Y-7118952D01*
X11608195Y-7128476D02*
X11589148Y-7118952D01*
X11579624Y-7099905D01*
X11579624Y-6928476D01*
X11770100Y-7128476D02*
X11770100Y-7023714D01*
X11760576Y-7004667D01*
X11741528Y-6995143D01*
X11703433Y-6995143D01*
X11684386Y-7004667D01*
X11770100Y-7118952D02*
X11751052Y-7128476D01*
X11703433Y-7128476D01*
X11684386Y-7118952D01*
X11674862Y-7099905D01*
X11674862Y-7080857D01*
X11684386Y-7061809D01*
X11703433Y-7052286D01*
X11751052Y-7052286D01*
X11770100Y-7042762D01*
X11836767Y-6995143D02*
X11912957Y-6995143D01*
X11865338Y-6928476D02*
X11865338Y-7099905D01*
X11874862Y-7118952D01*
X11893909Y-7128476D01*
X11912957Y-7128476D01*
X12055814Y-7118952D02*
X12036767Y-7128476D01*
X11998671Y-7128476D01*
X11979624Y-7118952D01*
X11970100Y-7099905D01*
X11970100Y-7023714D01*
X11979624Y-7004667D01*
X11998671Y-6995143D01*
X12036767Y-6995143D01*
X12055814Y-7004667D01*
X12065338Y-7023714D01*
X12065338Y-7042762D01*
X11970100Y-7061809D01*
X12236767Y-7128476D02*
X12236767Y-6928476D01*
X12236767Y-7118952D02*
X12217719Y-7128476D01*
X12179624Y-7128476D01*
X12160576Y-7118952D01*
X12151052Y-7109428D01*
X12141528Y-7090381D01*
X12141528Y-7033238D01*
X12151052Y-7014190D01*
X12160576Y-7004667D01*
X12179624Y-6995143D01*
X12217719Y-6995143D01*
X12236767Y-7004667D01*
X12312957Y-7204667D02*
X12322481Y-7195143D01*
X12341528Y-7166571D01*
X12351052Y-7147524D01*
X12360576Y-7118952D01*
X12370100Y-7071333D01*
X12370100Y-7033238D01*
X12360576Y-6985619D01*
X12351052Y-6957048D01*
X12341528Y-6938000D01*
X12322481Y-6909428D01*
X12312957Y-6899905D01*
M02*
