%FSLAX45Y45*%
G04 Gerber Fmt 4.5, Leading zero omitted, Abs format (unit mm)*
G04 Created by KiCad (PCBNEW (6.0.2)) date 2022-03-07 06:31:46*
%MOMM*%
%LPD*%
G01*
G04 APERTURE LIST*
%TA.AperFunction,Profile*%
%ADD10C,0.050000*%
%TD*%
%ADD11C,0.200000*%
%ADD12C,0.030000*%
%ADD13C,0.040000*%
%ADD14C,0.060000*%
%ADD15C,0.075000*%
%ADD16C,0.088900*%
%ADD17C,0.090000*%
%ADD18C,0.150000*%
G04 APERTURE END LIST*
D10*
X9702800Y-4490500D02*
X9525000Y-4490500D01*
X9525000Y-4490500D02*
X9525000Y-5201700D01*
X9525000Y-5201700D02*
X9702800Y-5201700D01*
X9702800Y-5201700D02*
X9702800Y-6395500D01*
X9702800Y-6395500D02*
X5562600Y-6395500D01*
X5562600Y-6395500D02*
X5562600Y-2991900D01*
X5562600Y-2991900D02*
X6731000Y-2991900D01*
X6731000Y-2991900D02*
X8077200Y-2991900D01*
X8077200Y-2991900D02*
X9702800Y-2991900D01*
X9702800Y-2991900D02*
X9702800Y-4490500D01*
D11*
D12*
X7579600Y-5141200D02*
X7609600Y-5171200D01*
X7609600Y-5141200D02*
X7579600Y-5171200D01*
X8840989Y-3605750D02*
X8870989Y-3635750D01*
X8870989Y-3605750D02*
X8840989Y-3635750D01*
D13*
X6014400Y-5359400D02*
G75*
G03*
X6014400Y-5359400I-20000J0D01*
G01*
X6039800Y-6096000D02*
G75*
G03*
X6039800Y-6096000I-20000J0D01*
G01*
X6141400Y-5257800D02*
G75*
G03*
X6141400Y-5257800I-20000J0D01*
G01*
X6344600Y-5537200D02*
G75*
G03*
X6344600Y-5537200I-20000J0D01*
G01*
X6446200Y-5678550D02*
G75*
G03*
X6446200Y-5678550I-20000J0D01*
G01*
X6446200Y-5994400D02*
G75*
G03*
X6446200Y-5994400I-20000J0D01*
G01*
X6598600Y-5994400D02*
G75*
G03*
X6598600Y-5994400I-20000J0D01*
G01*
X6700200Y-3860800D02*
G75*
G03*
X6700200Y-3860800I-20000J0D01*
G01*
X6827200Y-4267200D02*
G75*
G03*
X6827200Y-4267200I-20000J0D01*
G01*
X6852600Y-3632200D02*
G75*
G03*
X6852600Y-3632200I-20000J0D01*
G01*
X6852600Y-4597400D02*
G75*
G03*
X6852600Y-4597400I-20000J0D01*
G01*
X6903400Y-5638800D02*
G75*
G03*
X6903400Y-5638800I-20000J0D01*
G01*
X6928800Y-4775200D02*
G75*
G03*
X6928800Y-4775200I-20000J0D01*
G01*
X6954200Y-4470400D02*
G75*
G03*
X6954200Y-4470400I-20000J0D01*
G01*
X7005000Y-5378200D02*
G75*
G03*
X7005000Y-5378200I-20000J0D01*
G01*
X7005000Y-5537200D02*
G75*
G03*
X7005000Y-5537200I-20000J0D01*
G01*
X7081200Y-4470400D02*
G75*
G03*
X7081200Y-4470400I-20000J0D01*
G01*
X7116568Y-4588508D02*
G75*
G03*
X7116568Y-4588508I-20000J0D01*
G01*
X7233600Y-4954300D02*
G75*
G03*
X7233600Y-4954300I-20000J0D01*
G01*
X7256400Y-5108000D02*
G75*
G03*
X7256400Y-5108000I-20000J0D01*
G01*
X7401850Y-4968850D02*
G75*
G03*
X7401850Y-4968850I-20000J0D01*
G01*
X7411400Y-4794300D02*
G75*
G03*
X7411400Y-4794300I-20000J0D01*
G01*
X7412700Y-5180300D02*
G75*
G03*
X7412700Y-5180300I-20000J0D01*
G01*
X7412700Y-5383500D02*
G75*
G03*
X7412700Y-5383500I-20000J0D01*
G01*
X7436800Y-4089400D02*
G75*
G03*
X7436800Y-4089400I-20000J0D01*
G01*
X7642000Y-4896900D02*
G75*
G03*
X7642000Y-4896900I-20000J0D01*
G01*
X7676950Y-4573199D02*
G75*
G03*
X7676950Y-4573199I-20000J0D01*
G01*
X7817800Y-4724400D02*
G75*
G03*
X7817800Y-4724400I-20000J0D01*
G01*
X7843200Y-5638800D02*
G75*
G03*
X7843200Y-5638800I-20000J0D01*
G01*
X7894000Y-4470400D02*
G75*
G03*
X7894000Y-4470400I-20000J0D01*
G01*
X7894000Y-4876800D02*
G75*
G03*
X7894000Y-4876800I-20000J0D01*
G01*
X7894000Y-5130800D02*
G75*
G03*
X7894000Y-5130800I-20000J0D01*
G01*
X8021000Y-3606800D02*
G75*
G03*
X8021000Y-3606800I-20000J0D01*
G01*
X8021000Y-4597400D02*
G75*
G03*
X8021000Y-4597400I-20000J0D01*
G01*
X8097200Y-4749800D02*
G75*
G03*
X8097200Y-4749800I-20000J0D01*
G01*
X8097200Y-5918200D02*
G75*
G03*
X8097200Y-5918200I-20000J0D01*
G01*
X8122600Y-5105400D02*
G75*
G03*
X8122600Y-5105400I-20000J0D01*
G01*
X8148000Y-5308600D02*
G75*
G03*
X8148000Y-5308600I-20000J0D01*
G01*
X8167200Y-4159400D02*
G75*
G03*
X8167200Y-4159400I-20000J0D01*
G01*
X8173400Y-4013200D02*
G75*
G03*
X8173400Y-4013200I-20000J0D01*
G01*
X8173400Y-4419600D02*
G75*
G03*
X8173400Y-4419600I-20000J0D01*
G01*
X8325800Y-4572000D02*
G75*
G03*
X8325800Y-4572000I-20000J0D01*
G01*
X8351200Y-5410200D02*
G75*
G03*
X8351200Y-5410200I-20000J0D01*
G01*
X8376600Y-6299200D02*
G75*
G03*
X8376600Y-6299200I-20000J0D01*
G01*
X8452800Y-4800600D02*
G75*
G03*
X8452800Y-4800600I-20000J0D01*
G01*
X8452800Y-5181600D02*
G75*
G03*
X8452800Y-5181600I-20000J0D01*
G01*
X8473300Y-5415100D02*
G75*
G03*
X8473300Y-5415100I-20000J0D01*
G01*
X8529000Y-6299200D02*
G75*
G03*
X8529000Y-6299200I-20000J0D01*
G01*
X8554400Y-4990650D02*
G75*
G03*
X8554400Y-4990650I-20000J0D01*
G01*
X8579800Y-4140200D02*
G75*
G03*
X8579800Y-4140200I-20000J0D01*
G01*
X8681400Y-3606800D02*
G75*
G03*
X8681400Y-3606800I-20000J0D01*
G01*
X8783000Y-4343400D02*
G75*
G03*
X8783000Y-4343400I-20000J0D01*
G01*
X8804900Y-3267300D02*
G75*
G03*
X8804900Y-3267300I-20000J0D01*
G01*
X8874800Y-3889900D02*
G75*
G03*
X8874800Y-3889900I-20000J0D01*
G01*
X8884600Y-4495800D02*
G75*
G03*
X8884600Y-4495800I-20000J0D01*
G01*
X8899662Y-5940286D02*
G75*
G03*
X8899662Y-5940286I-20000J0D01*
G01*
X8908000Y-4316000D02*
G75*
G03*
X8908000Y-4316000I-20000J0D01*
G01*
X8910000Y-4038600D02*
G75*
G03*
X8910000Y-4038600I-20000J0D01*
G01*
X8921907Y-3279043D02*
G75*
G03*
X8921907Y-3279043I-20000J0D01*
G01*
X8935400Y-3073400D02*
G75*
G03*
X8935400Y-3073400I-20000J0D01*
G01*
X8938268Y-3381068D02*
G75*
G03*
X8938268Y-3381068I-20000J0D01*
G01*
X8994180Y-5942601D02*
G75*
G03*
X8994180Y-5942601I-20000J0D01*
G01*
X9079051Y-3853670D02*
G75*
G03*
X9079051Y-3853670I-20000J0D01*
G01*
X9087800Y-4495800D02*
G75*
G03*
X9087800Y-4495800I-20000J0D01*
G01*
X9087800Y-6121400D02*
G75*
G03*
X9087800Y-6121400I-20000J0D01*
G01*
X9113200Y-5537200D02*
G75*
G03*
X9113200Y-5537200I-20000J0D01*
G01*
X9214800Y-4165600D02*
G75*
G03*
X9214800Y-4165600I-20000J0D01*
G01*
X9494200Y-4165600D02*
G75*
G03*
X9494200Y-4165600I-20000J0D01*
G01*
D14*
X9138300Y-3063299D02*
X9138300Y-3123299D01*
X9108300Y-3093299D02*
X9168300Y-3093299D01*
D11*
X9083300Y-3113299D02*
X9193300Y-3113299D01*
X9083300Y-3073299D02*
X9193300Y-3073299D01*
X9193300Y-3113299D02*
G75*
G03*
X9193300Y-3073299I0J20000D01*
G01*
X9083300Y-3073299D02*
G75*
G03*
X9083300Y-3113299I0J-20000D01*
G01*
D14*
X9138300Y-3927299D02*
X9138300Y-3987299D01*
X9108300Y-3957299D02*
X9168300Y-3957299D01*
D11*
X9083300Y-3977299D02*
X9193300Y-3977299D01*
X9083300Y-3937299D02*
X9193300Y-3937299D01*
X9193300Y-3977299D02*
G75*
G03*
X9193300Y-3937299I0J20000D01*
G01*
X9083300Y-3937299D02*
G75*
G03*
X9083300Y-3977299I0J-20000D01*
G01*
D14*
X9556300Y-3063299D02*
X9556300Y-3123299D01*
X9526300Y-3093299D02*
X9586300Y-3093299D01*
D11*
X9526300Y-3113299D02*
X9586300Y-3113299D01*
X9526300Y-3073299D02*
X9586300Y-3073299D01*
X9586300Y-3113299D02*
G75*
G03*
X9586300Y-3073299I0J20000D01*
G01*
X9526300Y-3073299D02*
G75*
G03*
X9526300Y-3113299I0J-20000D01*
G01*
D14*
X9556300Y-3927299D02*
X9556300Y-3987299D01*
X9526300Y-3957299D02*
X9586300Y-3957299D01*
D11*
X9526300Y-3977299D02*
X9586300Y-3977299D01*
X9526300Y-3937299D02*
X9586300Y-3937299D01*
X9586300Y-3977299D02*
G75*
G03*
X9586300Y-3937299I0J20000D01*
G01*
X9526300Y-3937299D02*
G75*
G03*
X9526300Y-3977299I0J-20000D01*
G01*
D15*
X6967118Y-5863217D02*
X6967118Y-5810183D01*
X6914084Y-5810183D01*
X6914084Y-5863217D01*
X6967118Y-5863217D01*
X7167118Y-5863217D02*
X7167118Y-5810183D01*
X7114084Y-5810183D01*
X7114084Y-5863217D01*
X7167118Y-5863217D01*
X7367118Y-5863217D02*
X7367118Y-5810183D01*
X7314084Y-5810183D01*
X7314084Y-5863217D01*
X7367118Y-5863217D01*
X7567118Y-5863217D02*
X7567118Y-5810183D01*
X7514084Y-5810183D01*
X7514084Y-5863217D01*
X7567118Y-5863217D01*
X7767118Y-5863217D02*
X7767118Y-5810183D01*
X7714084Y-5810183D01*
X7714084Y-5863217D01*
X7767118Y-5863217D01*
X8925517Y-4772617D02*
X8925517Y-4719583D01*
X8872483Y-4719583D01*
X8872483Y-4772617D01*
X8925517Y-4772617D01*
X8925517Y-4972617D02*
X8925517Y-4919583D01*
X8872483Y-4919583D01*
X8872483Y-4972617D01*
X8925517Y-4972617D01*
D16*
X6503846Y-3215197D02*
X6548296Y-3170747D01*
X6503846Y-3126297D01*
X6459396Y-3170747D01*
X6503846Y-3215197D01*
X6503846Y-3456497D02*
X6548296Y-3412047D01*
X6503846Y-3367597D01*
X6459396Y-3412047D01*
X6503846Y-3456497D01*
X6503846Y-3723197D02*
X6548296Y-3678747D01*
X6503846Y-3634297D01*
X6459396Y-3678747D01*
X6503846Y-3723197D01*
X6503846Y-3977197D02*
X6548296Y-3932747D01*
X6503846Y-3888297D01*
X6459396Y-3932747D01*
X6503846Y-3977197D01*
X6503846Y-4231197D02*
X6548296Y-4186747D01*
X6503846Y-4142297D01*
X6459396Y-4186747D01*
X6503846Y-4231197D01*
X6503846Y-4485197D02*
X6548296Y-4440747D01*
X6503846Y-4396297D01*
X6459396Y-4440747D01*
X6503846Y-4485197D01*
X6503846Y-4739197D02*
X6548296Y-4694747D01*
X6503846Y-4650297D01*
X6459396Y-4694747D01*
X6503846Y-4739197D01*
X6503846Y-4993197D02*
X6548296Y-4948747D01*
X6503846Y-4904297D01*
X6459396Y-4948747D01*
X6503846Y-4993197D01*
X6503846Y-5247197D02*
X6548296Y-5202747D01*
X6503846Y-5158297D01*
X6459396Y-5202747D01*
X6503846Y-5247197D01*
X6503846Y-5501197D02*
X6548296Y-5456747D01*
X6503846Y-5412297D01*
X6459396Y-5456747D01*
X6503846Y-5501197D01*
D17*
X9381600Y-5566299D02*
X9471600Y-5656299D01*
X9471600Y-5566299D02*
X9381600Y-5656299D01*
X9471600Y-5611299D02*
G75*
G03*
X9471600Y-5611299I-45000J0D01*
G01*
X9381600Y-5766299D02*
X9471600Y-5856299D01*
X9471600Y-5766299D02*
X9381600Y-5856299D01*
X9471600Y-5811299D02*
G75*
G03*
X9471600Y-5811299I-45000J0D01*
G01*
X9381600Y-5966299D02*
X9471600Y-6056299D01*
X9471600Y-5966299D02*
X9381600Y-6056299D01*
X9471600Y-6011299D02*
G75*
G03*
X9471600Y-6011299I-45000J0D01*
G01*
D18*
X9351600Y-5326299D02*
X9501600Y-5476299D01*
X9501600Y-5326299D02*
X9351600Y-5476299D01*
X9426600Y-5326299D02*
X9426600Y-5476299D01*
X9351600Y-5401299D02*
X9501600Y-5401299D01*
X9351600Y-6146299D02*
X9501600Y-6296299D01*
X9501600Y-6146299D02*
X9351600Y-6296299D01*
X9426600Y-6146299D02*
X9426600Y-6296299D01*
X9351600Y-6221299D02*
X9501600Y-6221299D01*
D11*
X5817719Y-6708476D02*
X5817719Y-6508476D01*
X5865338Y-6508476D01*
X5893909Y-6518000D01*
X5912957Y-6537048D01*
X5922481Y-6556095D01*
X5932005Y-6594190D01*
X5932005Y-6622762D01*
X5922481Y-6660857D01*
X5912957Y-6679905D01*
X5893909Y-6698952D01*
X5865338Y-6708476D01*
X5817719Y-6708476D01*
X6017719Y-6708476D02*
X6017719Y-6575143D01*
X6017719Y-6613238D02*
X6027243Y-6594190D01*
X6036767Y-6584667D01*
X6055814Y-6575143D01*
X6074862Y-6575143D01*
X6141528Y-6708476D02*
X6141528Y-6575143D01*
X6141528Y-6508476D02*
X6132005Y-6518000D01*
X6141528Y-6527524D01*
X6151052Y-6518000D01*
X6141528Y-6508476D01*
X6141528Y-6527524D01*
X6265338Y-6708476D02*
X6246290Y-6698952D01*
X6236767Y-6679905D01*
X6236767Y-6508476D01*
X6370100Y-6708476D02*
X6351052Y-6698952D01*
X6341528Y-6679905D01*
X6341528Y-6508476D01*
X6598671Y-6708476D02*
X6598671Y-6508476D01*
X6665338Y-6651333D01*
X6732005Y-6508476D01*
X6732005Y-6708476D01*
X6912957Y-6708476D02*
X6912957Y-6603714D01*
X6903433Y-6584667D01*
X6884386Y-6575143D01*
X6846290Y-6575143D01*
X6827243Y-6584667D01*
X6912957Y-6698952D02*
X6893909Y-6708476D01*
X6846290Y-6708476D01*
X6827243Y-6698952D01*
X6817719Y-6679905D01*
X6817719Y-6660857D01*
X6827243Y-6641809D01*
X6846290Y-6632286D01*
X6893909Y-6632286D01*
X6912957Y-6622762D01*
X7008195Y-6575143D02*
X7008195Y-6775143D01*
X7008195Y-6584667D02*
X7027243Y-6575143D01*
X7065338Y-6575143D01*
X7084386Y-6584667D01*
X7093909Y-6594190D01*
X7103433Y-6613238D01*
X7103433Y-6670381D01*
X7093909Y-6689428D01*
X7084386Y-6698952D01*
X7065338Y-6708476D01*
X7027243Y-6708476D01*
X7008195Y-6698952D01*
X7189148Y-6689428D02*
X7198671Y-6698952D01*
X7189148Y-6708476D01*
X7179624Y-6698952D01*
X7189148Y-6689428D01*
X7189148Y-6708476D01*
X7189148Y-6584667D02*
X7198671Y-6594190D01*
X7189148Y-6603714D01*
X7179624Y-6594190D01*
X7189148Y-6584667D01*
X7189148Y-6603714D01*
D12*
X5530100Y-7023000D02*
X5560100Y-7053000D01*
X5560100Y-7023000D02*
X5530100Y-7053000D01*
D11*
X5855814Y-6928476D02*
X5874862Y-6928476D01*
X5893909Y-6938000D01*
X5903433Y-6947524D01*
X5912957Y-6966571D01*
X5922481Y-7004667D01*
X5922481Y-7052286D01*
X5912957Y-7090381D01*
X5903433Y-7109428D01*
X5893909Y-7118952D01*
X5874862Y-7128476D01*
X5855814Y-7128476D01*
X5836767Y-7118952D01*
X5827243Y-7109428D01*
X5817719Y-7090381D01*
X5808195Y-7052286D01*
X5808195Y-7004667D01*
X5817719Y-6966571D01*
X5827243Y-6947524D01*
X5836767Y-6938000D01*
X5855814Y-6928476D01*
X6008195Y-7109428D02*
X6017719Y-7118952D01*
X6008195Y-7128476D01*
X5998671Y-7118952D01*
X6008195Y-7109428D01*
X6008195Y-7128476D01*
X6084386Y-6928476D02*
X6208195Y-6928476D01*
X6141528Y-7004667D01*
X6170100Y-7004667D01*
X6189148Y-7014190D01*
X6198671Y-7023714D01*
X6208195Y-7042762D01*
X6208195Y-7090381D01*
X6198671Y-7109428D01*
X6189148Y-7118952D01*
X6170100Y-7128476D01*
X6112957Y-7128476D01*
X6093909Y-7118952D01*
X6084386Y-7109428D01*
X6332005Y-6928476D02*
X6351052Y-6928476D01*
X6370100Y-6938000D01*
X6379624Y-6947524D01*
X6389148Y-6966571D01*
X6398671Y-7004667D01*
X6398671Y-7052286D01*
X6389148Y-7090381D01*
X6379624Y-7109428D01*
X6370100Y-7118952D01*
X6351052Y-7128476D01*
X6332005Y-7128476D01*
X6312957Y-7118952D01*
X6303433Y-7109428D01*
X6293909Y-7090381D01*
X6284386Y-7052286D01*
X6284386Y-7004667D01*
X6293909Y-6966571D01*
X6303433Y-6947524D01*
X6312957Y-6938000D01*
X6332005Y-6928476D01*
X6522481Y-6928476D02*
X6541528Y-6928476D01*
X6560576Y-6938000D01*
X6570100Y-6947524D01*
X6579624Y-6966571D01*
X6589148Y-7004667D01*
X6589148Y-7052286D01*
X6579624Y-7090381D01*
X6570100Y-7109428D01*
X6560576Y-7118952D01*
X6541528Y-7128476D01*
X6522481Y-7128476D01*
X6503433Y-7118952D01*
X6493909Y-7109428D01*
X6484386Y-7090381D01*
X6474862Y-7052286D01*
X6474862Y-7004667D01*
X6484386Y-6966571D01*
X6493909Y-6947524D01*
X6503433Y-6938000D01*
X6522481Y-6928476D01*
X6674862Y-7128476D02*
X6674862Y-6995143D01*
X6674862Y-7014190D02*
X6684386Y-7004667D01*
X6703433Y-6995143D01*
X6732005Y-6995143D01*
X6751052Y-7004667D01*
X6760576Y-7023714D01*
X6760576Y-7128476D01*
X6760576Y-7023714D02*
X6770100Y-7004667D01*
X6789148Y-6995143D01*
X6817719Y-6995143D01*
X6836767Y-7004667D01*
X6846290Y-7023714D01*
X6846290Y-7128476D01*
X6941528Y-7128476D02*
X6941528Y-6995143D01*
X6941528Y-7014190D02*
X6951052Y-7004667D01*
X6970100Y-6995143D01*
X6998671Y-6995143D01*
X7017719Y-7004667D01*
X7027243Y-7023714D01*
X7027243Y-7128476D01*
X7027243Y-7023714D02*
X7036767Y-7004667D01*
X7055814Y-6995143D01*
X7084386Y-6995143D01*
X7103433Y-7004667D01*
X7112957Y-7023714D01*
X7112957Y-7128476D01*
X7503433Y-6918952D02*
X7332005Y-7176095D01*
X7760576Y-6928476D02*
X7779624Y-6928476D01*
X7798671Y-6938000D01*
X7808195Y-6947524D01*
X7817719Y-6966571D01*
X7827243Y-7004667D01*
X7827243Y-7052286D01*
X7817719Y-7090381D01*
X7808195Y-7109428D01*
X7798671Y-7118952D01*
X7779624Y-7128476D01*
X7760576Y-7128476D01*
X7741528Y-7118952D01*
X7732005Y-7109428D01*
X7722481Y-7090381D01*
X7712957Y-7052286D01*
X7712957Y-7004667D01*
X7722481Y-6966571D01*
X7732005Y-6947524D01*
X7741528Y-6938000D01*
X7760576Y-6928476D01*
X7912957Y-7109428D02*
X7922481Y-7118952D01*
X7912957Y-7128476D01*
X7903433Y-7118952D01*
X7912957Y-7109428D01*
X7912957Y-7128476D01*
X8046290Y-6928476D02*
X8065338Y-6928476D01*
X8084386Y-6938000D01*
X8093909Y-6947524D01*
X8103433Y-6966571D01*
X8112957Y-7004667D01*
X8112957Y-7052286D01*
X8103433Y-7090381D01*
X8093909Y-7109428D01*
X8084386Y-7118952D01*
X8065338Y-7128476D01*
X8046290Y-7128476D01*
X8027243Y-7118952D01*
X8017719Y-7109428D01*
X8008195Y-7090381D01*
X7998671Y-7052286D01*
X7998671Y-7004667D01*
X8008195Y-6966571D01*
X8017719Y-6947524D01*
X8027243Y-6938000D01*
X8046290Y-6928476D01*
X8303433Y-7128476D02*
X8189148Y-7128476D01*
X8246290Y-7128476D02*
X8246290Y-6928476D01*
X8227243Y-6957048D01*
X8208195Y-6976095D01*
X8189148Y-6985619D01*
X8493910Y-7128476D02*
X8379624Y-7128476D01*
X8436767Y-7128476D02*
X8436767Y-6928476D01*
X8417719Y-6957048D01*
X8398671Y-6976095D01*
X8379624Y-6985619D01*
X8608195Y-7014190D02*
X8589148Y-7004667D01*
X8579624Y-6995143D01*
X8570100Y-6976095D01*
X8570100Y-6966571D01*
X8579624Y-6947524D01*
X8589148Y-6938000D01*
X8608195Y-6928476D01*
X8646290Y-6928476D01*
X8665338Y-6938000D01*
X8674862Y-6947524D01*
X8684386Y-6966571D01*
X8684386Y-6976095D01*
X8674862Y-6995143D01*
X8665338Y-7004667D01*
X8646290Y-7014190D01*
X8608195Y-7014190D01*
X8589148Y-7023714D01*
X8579624Y-7033238D01*
X8570100Y-7052286D01*
X8570100Y-7090381D01*
X8579624Y-7109428D01*
X8589148Y-7118952D01*
X8608195Y-7128476D01*
X8646290Y-7128476D01*
X8665338Y-7118952D01*
X8674862Y-7109428D01*
X8684386Y-7090381D01*
X8684386Y-7052286D01*
X8674862Y-7033238D01*
X8665338Y-7023714D01*
X8646290Y-7014190D01*
X8760576Y-6928476D02*
X8760576Y-6966571D01*
X8836767Y-6928476D02*
X8836767Y-6966571D01*
X9132005Y-7204667D02*
X9122481Y-7195143D01*
X9103433Y-7166571D01*
X9093910Y-7147524D01*
X9084386Y-7118952D01*
X9074862Y-7071333D01*
X9074862Y-7033238D01*
X9084386Y-6985619D01*
X9093910Y-6957048D01*
X9103433Y-6938000D01*
X9122481Y-6909428D01*
X9132005Y-6899905D01*
X9198671Y-6947524D02*
X9208195Y-6938000D01*
X9227243Y-6928476D01*
X9274862Y-6928476D01*
X9293910Y-6938000D01*
X9303433Y-6947524D01*
X9312957Y-6966571D01*
X9312957Y-6985619D01*
X9303433Y-7014190D01*
X9189148Y-7128476D01*
X9312957Y-7128476D01*
X9551052Y-7128476D02*
X9551052Y-6928476D01*
X9636767Y-7128476D02*
X9636767Y-7023714D01*
X9627243Y-7004667D01*
X9608195Y-6995143D01*
X9579624Y-6995143D01*
X9560576Y-7004667D01*
X9551052Y-7014190D01*
X9760576Y-7128476D02*
X9741529Y-7118952D01*
X9732005Y-7109428D01*
X9722481Y-7090381D01*
X9722481Y-7033238D01*
X9732005Y-7014190D01*
X9741529Y-7004667D01*
X9760576Y-6995143D01*
X9789148Y-6995143D01*
X9808195Y-7004667D01*
X9817719Y-7014190D01*
X9827243Y-7033238D01*
X9827243Y-7090381D01*
X9817719Y-7109428D01*
X9808195Y-7118952D01*
X9789148Y-7128476D01*
X9760576Y-7128476D01*
X9941529Y-7128476D02*
X9922481Y-7118952D01*
X9912957Y-7099905D01*
X9912957Y-6928476D01*
X10093910Y-7118952D02*
X10074862Y-7128476D01*
X10036767Y-7128476D01*
X10017719Y-7118952D01*
X10008195Y-7099905D01*
X10008195Y-7023714D01*
X10017719Y-7004667D01*
X10036767Y-6995143D01*
X10074862Y-6995143D01*
X10093910Y-7004667D01*
X10103433Y-7023714D01*
X10103433Y-7042762D01*
X10008195Y-7061809D01*
X10179624Y-7118952D02*
X10198671Y-7128476D01*
X10236767Y-7128476D01*
X10255814Y-7118952D01*
X10265338Y-7099905D01*
X10265338Y-7090381D01*
X10255814Y-7071333D01*
X10236767Y-7061809D01*
X10208195Y-7061809D01*
X10189148Y-7052286D01*
X10179624Y-7033238D01*
X10179624Y-7023714D01*
X10189148Y-7004667D01*
X10208195Y-6995143D01*
X10236767Y-6995143D01*
X10255814Y-7004667D01*
X10332005Y-7204667D02*
X10341529Y-7195143D01*
X10360576Y-7166571D01*
X10370100Y-7147524D01*
X10379624Y-7118952D01*
X10389148Y-7071333D01*
X10389148Y-7033238D01*
X10379624Y-6985619D01*
X10370100Y-6957048D01*
X10360576Y-6938000D01*
X10341529Y-6909428D01*
X10332005Y-6899905D01*
D13*
X5560100Y-7302000D02*
G75*
G03*
X5560100Y-7302000I-20000J0D01*
G01*
D11*
X5855814Y-7192476D02*
X5874862Y-7192476D01*
X5893909Y-7202000D01*
X5903433Y-7211524D01*
X5912957Y-7230571D01*
X5922481Y-7268667D01*
X5922481Y-7316286D01*
X5912957Y-7354381D01*
X5903433Y-7373428D01*
X5893909Y-7382952D01*
X5874862Y-7392476D01*
X5855814Y-7392476D01*
X5836767Y-7382952D01*
X5827243Y-7373428D01*
X5817719Y-7354381D01*
X5808195Y-7316286D01*
X5808195Y-7268667D01*
X5817719Y-7230571D01*
X5827243Y-7211524D01*
X5836767Y-7202000D01*
X5855814Y-7192476D01*
X6008195Y-7373428D02*
X6017719Y-7382952D01*
X6008195Y-7392476D01*
X5998671Y-7382952D01*
X6008195Y-7373428D01*
X6008195Y-7392476D01*
X6189148Y-7259143D02*
X6189148Y-7392476D01*
X6141528Y-7182952D02*
X6093909Y-7325809D01*
X6217719Y-7325809D01*
X6332005Y-7192476D02*
X6351052Y-7192476D01*
X6370100Y-7202000D01*
X6379624Y-7211524D01*
X6389148Y-7230571D01*
X6398671Y-7268667D01*
X6398671Y-7316286D01*
X6389148Y-7354381D01*
X6379624Y-7373428D01*
X6370100Y-7382952D01*
X6351052Y-7392476D01*
X6332005Y-7392476D01*
X6312957Y-7382952D01*
X6303433Y-7373428D01*
X6293909Y-7354381D01*
X6284386Y-7316286D01*
X6284386Y-7268667D01*
X6293909Y-7230571D01*
X6303433Y-7211524D01*
X6312957Y-7202000D01*
X6332005Y-7192476D01*
X6522481Y-7192476D02*
X6541528Y-7192476D01*
X6560576Y-7202000D01*
X6570100Y-7211524D01*
X6579624Y-7230571D01*
X6589148Y-7268667D01*
X6589148Y-7316286D01*
X6579624Y-7354381D01*
X6570100Y-7373428D01*
X6560576Y-7382952D01*
X6541528Y-7392476D01*
X6522481Y-7392476D01*
X6503433Y-7382952D01*
X6493909Y-7373428D01*
X6484386Y-7354381D01*
X6474862Y-7316286D01*
X6474862Y-7268667D01*
X6484386Y-7230571D01*
X6493909Y-7211524D01*
X6503433Y-7202000D01*
X6522481Y-7192476D01*
X6674862Y-7392476D02*
X6674862Y-7259143D01*
X6674862Y-7278190D02*
X6684386Y-7268667D01*
X6703433Y-7259143D01*
X6732005Y-7259143D01*
X6751052Y-7268667D01*
X6760576Y-7287714D01*
X6760576Y-7392476D01*
X6760576Y-7287714D02*
X6770100Y-7268667D01*
X6789148Y-7259143D01*
X6817719Y-7259143D01*
X6836767Y-7268667D01*
X6846290Y-7287714D01*
X6846290Y-7392476D01*
X6941528Y-7392476D02*
X6941528Y-7259143D01*
X6941528Y-7278190D02*
X6951052Y-7268667D01*
X6970100Y-7259143D01*
X6998671Y-7259143D01*
X7017719Y-7268667D01*
X7027243Y-7287714D01*
X7027243Y-7392476D01*
X7027243Y-7287714D02*
X7036767Y-7268667D01*
X7055814Y-7259143D01*
X7084386Y-7259143D01*
X7103433Y-7268667D01*
X7112957Y-7287714D01*
X7112957Y-7392476D01*
X7503433Y-7182952D02*
X7332005Y-7440095D01*
X7760576Y-7192476D02*
X7779624Y-7192476D01*
X7798671Y-7202000D01*
X7808195Y-7211524D01*
X7817719Y-7230571D01*
X7827243Y-7268667D01*
X7827243Y-7316286D01*
X7817719Y-7354381D01*
X7808195Y-7373428D01*
X7798671Y-7382952D01*
X7779624Y-7392476D01*
X7760576Y-7392476D01*
X7741528Y-7382952D01*
X7732005Y-7373428D01*
X7722481Y-7354381D01*
X7712957Y-7316286D01*
X7712957Y-7268667D01*
X7722481Y-7230571D01*
X7732005Y-7211524D01*
X7741528Y-7202000D01*
X7760576Y-7192476D01*
X7912957Y-7373428D02*
X7922481Y-7382952D01*
X7912957Y-7392476D01*
X7903433Y-7382952D01*
X7912957Y-7373428D01*
X7912957Y-7392476D01*
X8046290Y-7192476D02*
X8065338Y-7192476D01*
X8084386Y-7202000D01*
X8093909Y-7211524D01*
X8103433Y-7230571D01*
X8112957Y-7268667D01*
X8112957Y-7316286D01*
X8103433Y-7354381D01*
X8093909Y-7373428D01*
X8084386Y-7382952D01*
X8065338Y-7392476D01*
X8046290Y-7392476D01*
X8027243Y-7382952D01*
X8017719Y-7373428D01*
X8008195Y-7354381D01*
X7998671Y-7316286D01*
X7998671Y-7268667D01*
X8008195Y-7230571D01*
X8017719Y-7211524D01*
X8027243Y-7202000D01*
X8046290Y-7192476D01*
X8303433Y-7392476D02*
X8189148Y-7392476D01*
X8246290Y-7392476D02*
X8246290Y-7192476D01*
X8227243Y-7221048D01*
X8208195Y-7240095D01*
X8189148Y-7249619D01*
X8484386Y-7192476D02*
X8389148Y-7192476D01*
X8379624Y-7287714D01*
X8389148Y-7278190D01*
X8408195Y-7268667D01*
X8455814Y-7268667D01*
X8474862Y-7278190D01*
X8484386Y-7287714D01*
X8493910Y-7306762D01*
X8493910Y-7354381D01*
X8484386Y-7373428D01*
X8474862Y-7382952D01*
X8455814Y-7392476D01*
X8408195Y-7392476D01*
X8389148Y-7382952D01*
X8379624Y-7373428D01*
X8560576Y-7192476D02*
X8693910Y-7192476D01*
X8608195Y-7392476D01*
X8760576Y-7192476D02*
X8760576Y-7230571D01*
X8836767Y-7192476D02*
X8836767Y-7230571D01*
X9132005Y-7468667D02*
X9122481Y-7459143D01*
X9103433Y-7430571D01*
X9093910Y-7411524D01*
X9084386Y-7382952D01*
X9074862Y-7335333D01*
X9074862Y-7297238D01*
X9084386Y-7249619D01*
X9093910Y-7221048D01*
X9103433Y-7202000D01*
X9122481Y-7173428D01*
X9132005Y-7163905D01*
X9293910Y-7192476D02*
X9255814Y-7192476D01*
X9236767Y-7202000D01*
X9227243Y-7211524D01*
X9208195Y-7240095D01*
X9198671Y-7278190D01*
X9198671Y-7354381D01*
X9208195Y-7373428D01*
X9217719Y-7382952D01*
X9236767Y-7392476D01*
X9274862Y-7392476D01*
X9293910Y-7382952D01*
X9303433Y-7373428D01*
X9312957Y-7354381D01*
X9312957Y-7306762D01*
X9303433Y-7287714D01*
X9293910Y-7278190D01*
X9274862Y-7268667D01*
X9236767Y-7268667D01*
X9217719Y-7278190D01*
X9208195Y-7287714D01*
X9198671Y-7306762D01*
X9427243Y-7278190D02*
X9408195Y-7268667D01*
X9398671Y-7259143D01*
X9389148Y-7240095D01*
X9389148Y-7230571D01*
X9398671Y-7211524D01*
X9408195Y-7202000D01*
X9427243Y-7192476D01*
X9465338Y-7192476D01*
X9484386Y-7202000D01*
X9493910Y-7211524D01*
X9503433Y-7230571D01*
X9503433Y-7240095D01*
X9493910Y-7259143D01*
X9484386Y-7268667D01*
X9465338Y-7278190D01*
X9427243Y-7278190D01*
X9408195Y-7287714D01*
X9398671Y-7297238D01*
X9389148Y-7316286D01*
X9389148Y-7354381D01*
X9398671Y-7373428D01*
X9408195Y-7382952D01*
X9427243Y-7392476D01*
X9465338Y-7392476D01*
X9484386Y-7382952D01*
X9493910Y-7373428D01*
X9503433Y-7354381D01*
X9503433Y-7316286D01*
X9493910Y-7297238D01*
X9484386Y-7287714D01*
X9465338Y-7278190D01*
X9741529Y-7392476D02*
X9741529Y-7192476D01*
X9827243Y-7392476D02*
X9827243Y-7287714D01*
X9817719Y-7268667D01*
X9798671Y-7259143D01*
X9770100Y-7259143D01*
X9751052Y-7268667D01*
X9741529Y-7278190D01*
X9951052Y-7392476D02*
X9932005Y-7382952D01*
X9922481Y-7373428D01*
X9912957Y-7354381D01*
X9912957Y-7297238D01*
X9922481Y-7278190D01*
X9932005Y-7268667D01*
X9951052Y-7259143D01*
X9979624Y-7259143D01*
X9998671Y-7268667D01*
X10008195Y-7278190D01*
X10017719Y-7297238D01*
X10017719Y-7354381D01*
X10008195Y-7373428D01*
X9998671Y-7382952D01*
X9979624Y-7392476D01*
X9951052Y-7392476D01*
X10132005Y-7392476D02*
X10112957Y-7382952D01*
X10103433Y-7363905D01*
X10103433Y-7192476D01*
X10284386Y-7382952D02*
X10265338Y-7392476D01*
X10227243Y-7392476D01*
X10208195Y-7382952D01*
X10198671Y-7363905D01*
X10198671Y-7287714D01*
X10208195Y-7268667D01*
X10227243Y-7259143D01*
X10265338Y-7259143D01*
X10284386Y-7268667D01*
X10293910Y-7287714D01*
X10293910Y-7306762D01*
X10198671Y-7325809D01*
X10370100Y-7382952D02*
X10389148Y-7392476D01*
X10427243Y-7392476D01*
X10446290Y-7382952D01*
X10455814Y-7363905D01*
X10455814Y-7354381D01*
X10446290Y-7335333D01*
X10427243Y-7325809D01*
X10398671Y-7325809D01*
X10379624Y-7316286D01*
X10370100Y-7297238D01*
X10370100Y-7287714D01*
X10379624Y-7268667D01*
X10398671Y-7259143D01*
X10427243Y-7259143D01*
X10446290Y-7268667D01*
X10522481Y-7468667D02*
X10532005Y-7459143D01*
X10551052Y-7430571D01*
X10560576Y-7411524D01*
X10570100Y-7382952D01*
X10579624Y-7335333D01*
X10579624Y-7297238D01*
X10570100Y-7249619D01*
X10560576Y-7221048D01*
X10551052Y-7202000D01*
X10532005Y-7173428D01*
X10522481Y-7163905D01*
D14*
X5530100Y-7536000D02*
X5530100Y-7596000D01*
X5500100Y-7566000D02*
X5560100Y-7566000D01*
D11*
X5855814Y-7456476D02*
X5874862Y-7456476D01*
X5893909Y-7466000D01*
X5903433Y-7475524D01*
X5912957Y-7494571D01*
X5922481Y-7532667D01*
X5922481Y-7580286D01*
X5912957Y-7618381D01*
X5903433Y-7637428D01*
X5893909Y-7646952D01*
X5874862Y-7656476D01*
X5855814Y-7656476D01*
X5836767Y-7646952D01*
X5827243Y-7637428D01*
X5817719Y-7618381D01*
X5808195Y-7580286D01*
X5808195Y-7532667D01*
X5817719Y-7494571D01*
X5827243Y-7475524D01*
X5836767Y-7466000D01*
X5855814Y-7456476D01*
X6008195Y-7637428D02*
X6017719Y-7646952D01*
X6008195Y-7656476D01*
X5998671Y-7646952D01*
X6008195Y-7637428D01*
X6008195Y-7656476D01*
X6189148Y-7456476D02*
X6151052Y-7456476D01*
X6132005Y-7466000D01*
X6122481Y-7475524D01*
X6103433Y-7504095D01*
X6093909Y-7542190D01*
X6093909Y-7618381D01*
X6103433Y-7637428D01*
X6112957Y-7646952D01*
X6132005Y-7656476D01*
X6170100Y-7656476D01*
X6189148Y-7646952D01*
X6198671Y-7637428D01*
X6208195Y-7618381D01*
X6208195Y-7570762D01*
X6198671Y-7551714D01*
X6189148Y-7542190D01*
X6170100Y-7532667D01*
X6132005Y-7532667D01*
X6112957Y-7542190D01*
X6103433Y-7551714D01*
X6093909Y-7570762D01*
X6332005Y-7456476D02*
X6351052Y-7456476D01*
X6370100Y-7466000D01*
X6379624Y-7475524D01*
X6389148Y-7494571D01*
X6398671Y-7532667D01*
X6398671Y-7580286D01*
X6389148Y-7618381D01*
X6379624Y-7637428D01*
X6370100Y-7646952D01*
X6351052Y-7656476D01*
X6332005Y-7656476D01*
X6312957Y-7646952D01*
X6303433Y-7637428D01*
X6293909Y-7618381D01*
X6284386Y-7580286D01*
X6284386Y-7532667D01*
X6293909Y-7494571D01*
X6303433Y-7475524D01*
X6312957Y-7466000D01*
X6332005Y-7456476D01*
X6522481Y-7456476D02*
X6541528Y-7456476D01*
X6560576Y-7466000D01*
X6570100Y-7475524D01*
X6579624Y-7494571D01*
X6589148Y-7532667D01*
X6589148Y-7580286D01*
X6579624Y-7618381D01*
X6570100Y-7637428D01*
X6560576Y-7646952D01*
X6541528Y-7656476D01*
X6522481Y-7656476D01*
X6503433Y-7646952D01*
X6493909Y-7637428D01*
X6484386Y-7618381D01*
X6474862Y-7580286D01*
X6474862Y-7532667D01*
X6484386Y-7494571D01*
X6493909Y-7475524D01*
X6503433Y-7466000D01*
X6522481Y-7456476D01*
X6674862Y-7656476D02*
X6674862Y-7523143D01*
X6674862Y-7542190D02*
X6684386Y-7532667D01*
X6703433Y-7523143D01*
X6732005Y-7523143D01*
X6751052Y-7532667D01*
X6760576Y-7551714D01*
X6760576Y-7656476D01*
X6760576Y-7551714D02*
X6770100Y-7532667D01*
X6789148Y-7523143D01*
X6817719Y-7523143D01*
X6836767Y-7532667D01*
X6846290Y-7551714D01*
X6846290Y-7656476D01*
X6941528Y-7656476D02*
X6941528Y-7523143D01*
X6941528Y-7542190D02*
X6951052Y-7532667D01*
X6970100Y-7523143D01*
X6998671Y-7523143D01*
X7017719Y-7532667D01*
X7027243Y-7551714D01*
X7027243Y-7656476D01*
X7027243Y-7551714D02*
X7036767Y-7532667D01*
X7055814Y-7523143D01*
X7084386Y-7523143D01*
X7103433Y-7532667D01*
X7112957Y-7551714D01*
X7112957Y-7656476D01*
X7503433Y-7446952D02*
X7332005Y-7704095D01*
X7760576Y-7456476D02*
X7779624Y-7456476D01*
X7798671Y-7466000D01*
X7808195Y-7475524D01*
X7817719Y-7494571D01*
X7827243Y-7532667D01*
X7827243Y-7580286D01*
X7817719Y-7618381D01*
X7808195Y-7637428D01*
X7798671Y-7646952D01*
X7779624Y-7656476D01*
X7760576Y-7656476D01*
X7741528Y-7646952D01*
X7732005Y-7637428D01*
X7722481Y-7618381D01*
X7712957Y-7580286D01*
X7712957Y-7532667D01*
X7722481Y-7494571D01*
X7732005Y-7475524D01*
X7741528Y-7466000D01*
X7760576Y-7456476D01*
X7912957Y-7637428D02*
X7922481Y-7646952D01*
X7912957Y-7656476D01*
X7903433Y-7646952D01*
X7912957Y-7637428D01*
X7912957Y-7656476D01*
X8046290Y-7456476D02*
X8065338Y-7456476D01*
X8084386Y-7466000D01*
X8093909Y-7475524D01*
X8103433Y-7494571D01*
X8112957Y-7532667D01*
X8112957Y-7580286D01*
X8103433Y-7618381D01*
X8093909Y-7637428D01*
X8084386Y-7646952D01*
X8065338Y-7656476D01*
X8046290Y-7656476D01*
X8027243Y-7646952D01*
X8017719Y-7637428D01*
X8008195Y-7618381D01*
X7998671Y-7580286D01*
X7998671Y-7532667D01*
X8008195Y-7494571D01*
X8017719Y-7475524D01*
X8027243Y-7466000D01*
X8046290Y-7456476D01*
X8189148Y-7475524D02*
X8198671Y-7466000D01*
X8217719Y-7456476D01*
X8265338Y-7456476D01*
X8284386Y-7466000D01*
X8293909Y-7475524D01*
X8303433Y-7494571D01*
X8303433Y-7513619D01*
X8293909Y-7542190D01*
X8179624Y-7656476D01*
X8303433Y-7656476D01*
X8370100Y-7456476D02*
X8493910Y-7456476D01*
X8427243Y-7532667D01*
X8455814Y-7532667D01*
X8474862Y-7542190D01*
X8484386Y-7551714D01*
X8493910Y-7570762D01*
X8493910Y-7618381D01*
X8484386Y-7637428D01*
X8474862Y-7646952D01*
X8455814Y-7656476D01*
X8398671Y-7656476D01*
X8379624Y-7646952D01*
X8370100Y-7637428D01*
X8665338Y-7456476D02*
X8627243Y-7456476D01*
X8608195Y-7466000D01*
X8598671Y-7475524D01*
X8579624Y-7504095D01*
X8570100Y-7542190D01*
X8570100Y-7618381D01*
X8579624Y-7637428D01*
X8589148Y-7646952D01*
X8608195Y-7656476D01*
X8646290Y-7656476D01*
X8665338Y-7646952D01*
X8674862Y-7637428D01*
X8684386Y-7618381D01*
X8684386Y-7570762D01*
X8674862Y-7551714D01*
X8665338Y-7542190D01*
X8646290Y-7532667D01*
X8608195Y-7532667D01*
X8589148Y-7542190D01*
X8579624Y-7551714D01*
X8570100Y-7570762D01*
X8760576Y-7456476D02*
X8760576Y-7494571D01*
X8836767Y-7456476D02*
X8836767Y-7494571D01*
X9132005Y-7732667D02*
X9122481Y-7723143D01*
X9103433Y-7694571D01*
X9093910Y-7675524D01*
X9084386Y-7646952D01*
X9074862Y-7599333D01*
X9074862Y-7561238D01*
X9084386Y-7513619D01*
X9093910Y-7485048D01*
X9103433Y-7466000D01*
X9122481Y-7437428D01*
X9132005Y-7427905D01*
X9246290Y-7456476D02*
X9265338Y-7456476D01*
X9284386Y-7466000D01*
X9293910Y-7475524D01*
X9303433Y-7494571D01*
X9312957Y-7532667D01*
X9312957Y-7580286D01*
X9303433Y-7618381D01*
X9293910Y-7637428D01*
X9284386Y-7646952D01*
X9265338Y-7656476D01*
X9246290Y-7656476D01*
X9227243Y-7646952D01*
X9217719Y-7637428D01*
X9208195Y-7618381D01*
X9198671Y-7580286D01*
X9198671Y-7532667D01*
X9208195Y-7494571D01*
X9217719Y-7475524D01*
X9227243Y-7466000D01*
X9246290Y-7456476D01*
X9551052Y-7656476D02*
X9551052Y-7456476D01*
X9636767Y-7656476D02*
X9636767Y-7551714D01*
X9627243Y-7532667D01*
X9608195Y-7523143D01*
X9579624Y-7523143D01*
X9560576Y-7532667D01*
X9551052Y-7542190D01*
X9760576Y-7656476D02*
X9741529Y-7646952D01*
X9732005Y-7637428D01*
X9722481Y-7618381D01*
X9722481Y-7561238D01*
X9732005Y-7542190D01*
X9741529Y-7532667D01*
X9760576Y-7523143D01*
X9789148Y-7523143D01*
X9808195Y-7532667D01*
X9817719Y-7542190D01*
X9827243Y-7561238D01*
X9827243Y-7618381D01*
X9817719Y-7637428D01*
X9808195Y-7646952D01*
X9789148Y-7656476D01*
X9760576Y-7656476D01*
X9941529Y-7656476D02*
X9922481Y-7646952D01*
X9912957Y-7627905D01*
X9912957Y-7456476D01*
X10093910Y-7646952D02*
X10074862Y-7656476D01*
X10036767Y-7656476D01*
X10017719Y-7646952D01*
X10008195Y-7627905D01*
X10008195Y-7551714D01*
X10017719Y-7532667D01*
X10036767Y-7523143D01*
X10074862Y-7523143D01*
X10093910Y-7532667D01*
X10103433Y-7551714D01*
X10103433Y-7570762D01*
X10008195Y-7589809D01*
X10179624Y-7646952D02*
X10198671Y-7656476D01*
X10236767Y-7656476D01*
X10255814Y-7646952D01*
X10265338Y-7627905D01*
X10265338Y-7618381D01*
X10255814Y-7599333D01*
X10236767Y-7589809D01*
X10208195Y-7589809D01*
X10189148Y-7580286D01*
X10179624Y-7561238D01*
X10179624Y-7551714D01*
X10189148Y-7532667D01*
X10208195Y-7523143D01*
X10236767Y-7523143D01*
X10255814Y-7532667D01*
X10503433Y-7580286D02*
X10655814Y-7580286D01*
X10579624Y-7656476D02*
X10579624Y-7504095D01*
X10989148Y-7523143D02*
X10989148Y-7656476D01*
X10941529Y-7446952D02*
X10893910Y-7589809D01*
X11017719Y-7589809D01*
X11236767Y-7646952D02*
X11255814Y-7656476D01*
X11293909Y-7656476D01*
X11312957Y-7646952D01*
X11322481Y-7627905D01*
X11322481Y-7618381D01*
X11312957Y-7599333D01*
X11293909Y-7589809D01*
X11265338Y-7589809D01*
X11246290Y-7580286D01*
X11236767Y-7561238D01*
X11236767Y-7551714D01*
X11246290Y-7532667D01*
X11265338Y-7523143D01*
X11293909Y-7523143D01*
X11312957Y-7532667D01*
X11436767Y-7656476D02*
X11417719Y-7646952D01*
X11408195Y-7627905D01*
X11408195Y-7456476D01*
X11541528Y-7656476D02*
X11522481Y-7646952D01*
X11512957Y-7637428D01*
X11503433Y-7618381D01*
X11503433Y-7561238D01*
X11512957Y-7542190D01*
X11522481Y-7532667D01*
X11541528Y-7523143D01*
X11570100Y-7523143D01*
X11589148Y-7532667D01*
X11598671Y-7542190D01*
X11608195Y-7561238D01*
X11608195Y-7618381D01*
X11598671Y-7637428D01*
X11589148Y-7646952D01*
X11570100Y-7656476D01*
X11541528Y-7656476D01*
X11665338Y-7523143D02*
X11741528Y-7523143D01*
X11693909Y-7456476D02*
X11693909Y-7627905D01*
X11703433Y-7646952D01*
X11722481Y-7656476D01*
X11741528Y-7656476D01*
X11798671Y-7646952D02*
X11817719Y-7656476D01*
X11855814Y-7656476D01*
X11874862Y-7646952D01*
X11884386Y-7627905D01*
X11884386Y-7618381D01*
X11874862Y-7599333D01*
X11855814Y-7589809D01*
X11827243Y-7589809D01*
X11808195Y-7580286D01*
X11798671Y-7561238D01*
X11798671Y-7551714D01*
X11808195Y-7532667D01*
X11827243Y-7523143D01*
X11855814Y-7523143D01*
X11874862Y-7532667D01*
X11951052Y-7732667D02*
X11960576Y-7723143D01*
X11979624Y-7694571D01*
X11989148Y-7675524D01*
X11998671Y-7646952D01*
X12008195Y-7599333D01*
X12008195Y-7561238D01*
X11998671Y-7513619D01*
X11989148Y-7485048D01*
X11979624Y-7466000D01*
X11960576Y-7437428D01*
X11951052Y-7427905D01*
D15*
X5549117Y-7856517D02*
X5549117Y-7803483D01*
X5496083Y-7803483D01*
X5496083Y-7856517D01*
X5549117Y-7856517D01*
D11*
X5855814Y-7720476D02*
X5874862Y-7720476D01*
X5893909Y-7730000D01*
X5903433Y-7739524D01*
X5912957Y-7758571D01*
X5922481Y-7796667D01*
X5922481Y-7844286D01*
X5912957Y-7882381D01*
X5903433Y-7901428D01*
X5893909Y-7910952D01*
X5874862Y-7920476D01*
X5855814Y-7920476D01*
X5836767Y-7910952D01*
X5827243Y-7901428D01*
X5817719Y-7882381D01*
X5808195Y-7844286D01*
X5808195Y-7796667D01*
X5817719Y-7758571D01*
X5827243Y-7739524D01*
X5836767Y-7730000D01*
X5855814Y-7720476D01*
X6008195Y-7901428D02*
X6017719Y-7910952D01*
X6008195Y-7920476D01*
X5998671Y-7910952D01*
X6008195Y-7901428D01*
X6008195Y-7920476D01*
X6084386Y-7720476D02*
X6217719Y-7720476D01*
X6132005Y-7920476D01*
X6389148Y-7720476D02*
X6293909Y-7720476D01*
X6284386Y-7815714D01*
X6293909Y-7806190D01*
X6312957Y-7796667D01*
X6360576Y-7796667D01*
X6379624Y-7806190D01*
X6389148Y-7815714D01*
X6398671Y-7834762D01*
X6398671Y-7882381D01*
X6389148Y-7901428D01*
X6379624Y-7910952D01*
X6360576Y-7920476D01*
X6312957Y-7920476D01*
X6293909Y-7910952D01*
X6284386Y-7901428D01*
X6522481Y-7720476D02*
X6541528Y-7720476D01*
X6560576Y-7730000D01*
X6570100Y-7739524D01*
X6579624Y-7758571D01*
X6589148Y-7796667D01*
X6589148Y-7844286D01*
X6579624Y-7882381D01*
X6570100Y-7901428D01*
X6560576Y-7910952D01*
X6541528Y-7920476D01*
X6522481Y-7920476D01*
X6503433Y-7910952D01*
X6493909Y-7901428D01*
X6484386Y-7882381D01*
X6474862Y-7844286D01*
X6474862Y-7796667D01*
X6484386Y-7758571D01*
X6493909Y-7739524D01*
X6503433Y-7730000D01*
X6522481Y-7720476D01*
X6674862Y-7920476D02*
X6674862Y-7787143D01*
X6674862Y-7806190D02*
X6684386Y-7796667D01*
X6703433Y-7787143D01*
X6732005Y-7787143D01*
X6751052Y-7796667D01*
X6760576Y-7815714D01*
X6760576Y-7920476D01*
X6760576Y-7815714D02*
X6770100Y-7796667D01*
X6789148Y-7787143D01*
X6817719Y-7787143D01*
X6836767Y-7796667D01*
X6846290Y-7815714D01*
X6846290Y-7920476D01*
X6941528Y-7920476D02*
X6941528Y-7787143D01*
X6941528Y-7806190D02*
X6951052Y-7796667D01*
X6970100Y-7787143D01*
X6998671Y-7787143D01*
X7017719Y-7796667D01*
X7027243Y-7815714D01*
X7027243Y-7920476D01*
X7027243Y-7815714D02*
X7036767Y-7796667D01*
X7055814Y-7787143D01*
X7084386Y-7787143D01*
X7103433Y-7796667D01*
X7112957Y-7815714D01*
X7112957Y-7920476D01*
X7503433Y-7710952D02*
X7332005Y-7968095D01*
X7760576Y-7720476D02*
X7779624Y-7720476D01*
X7798671Y-7730000D01*
X7808195Y-7739524D01*
X7817719Y-7758571D01*
X7827243Y-7796667D01*
X7827243Y-7844286D01*
X7817719Y-7882381D01*
X7808195Y-7901428D01*
X7798671Y-7910952D01*
X7779624Y-7920476D01*
X7760576Y-7920476D01*
X7741528Y-7910952D01*
X7732005Y-7901428D01*
X7722481Y-7882381D01*
X7712957Y-7844286D01*
X7712957Y-7796667D01*
X7722481Y-7758571D01*
X7732005Y-7739524D01*
X7741528Y-7730000D01*
X7760576Y-7720476D01*
X7912957Y-7901428D02*
X7922481Y-7910952D01*
X7912957Y-7920476D01*
X7903433Y-7910952D01*
X7912957Y-7901428D01*
X7912957Y-7920476D01*
X8046290Y-7720476D02*
X8065338Y-7720476D01*
X8084386Y-7730000D01*
X8093909Y-7739524D01*
X8103433Y-7758571D01*
X8112957Y-7796667D01*
X8112957Y-7844286D01*
X8103433Y-7882381D01*
X8093909Y-7901428D01*
X8084386Y-7910952D01*
X8065338Y-7920476D01*
X8046290Y-7920476D01*
X8027243Y-7910952D01*
X8017719Y-7901428D01*
X8008195Y-7882381D01*
X7998671Y-7844286D01*
X7998671Y-7796667D01*
X8008195Y-7758571D01*
X8017719Y-7739524D01*
X8027243Y-7730000D01*
X8046290Y-7720476D01*
X8189148Y-7739524D02*
X8198671Y-7730000D01*
X8217719Y-7720476D01*
X8265338Y-7720476D01*
X8284386Y-7730000D01*
X8293909Y-7739524D01*
X8303433Y-7758571D01*
X8303433Y-7777619D01*
X8293909Y-7806190D01*
X8179624Y-7920476D01*
X8303433Y-7920476D01*
X8398671Y-7920476D02*
X8436767Y-7920476D01*
X8455814Y-7910952D01*
X8465338Y-7901428D01*
X8484386Y-7872857D01*
X8493910Y-7834762D01*
X8493910Y-7758571D01*
X8484386Y-7739524D01*
X8474862Y-7730000D01*
X8455814Y-7720476D01*
X8417719Y-7720476D01*
X8398671Y-7730000D01*
X8389148Y-7739524D01*
X8379624Y-7758571D01*
X8379624Y-7806190D01*
X8389148Y-7825238D01*
X8398671Y-7834762D01*
X8417719Y-7844286D01*
X8455814Y-7844286D01*
X8474862Y-7834762D01*
X8484386Y-7825238D01*
X8493910Y-7806190D01*
X8674862Y-7720476D02*
X8579624Y-7720476D01*
X8570100Y-7815714D01*
X8579624Y-7806190D01*
X8598671Y-7796667D01*
X8646290Y-7796667D01*
X8665338Y-7806190D01*
X8674862Y-7815714D01*
X8684386Y-7834762D01*
X8684386Y-7882381D01*
X8674862Y-7901428D01*
X8665338Y-7910952D01*
X8646290Y-7920476D01*
X8598671Y-7920476D01*
X8579624Y-7910952D01*
X8570100Y-7901428D01*
X8760576Y-7720476D02*
X8760576Y-7758571D01*
X8836767Y-7720476D02*
X8836767Y-7758571D01*
X9132005Y-7996667D02*
X9122481Y-7987143D01*
X9103433Y-7958571D01*
X9093910Y-7939524D01*
X9084386Y-7910952D01*
X9074862Y-7863333D01*
X9074862Y-7825238D01*
X9084386Y-7777619D01*
X9093910Y-7749048D01*
X9103433Y-7730000D01*
X9122481Y-7701428D01*
X9132005Y-7691905D01*
X9189148Y-7720476D02*
X9322481Y-7720476D01*
X9236767Y-7920476D01*
X9551052Y-7920476D02*
X9551052Y-7720476D01*
X9636767Y-7920476D02*
X9636767Y-7815714D01*
X9627243Y-7796667D01*
X9608195Y-7787143D01*
X9579624Y-7787143D01*
X9560576Y-7796667D01*
X9551052Y-7806190D01*
X9760576Y-7920476D02*
X9741529Y-7910952D01*
X9732005Y-7901428D01*
X9722481Y-7882381D01*
X9722481Y-7825238D01*
X9732005Y-7806190D01*
X9741529Y-7796667D01*
X9760576Y-7787143D01*
X9789148Y-7787143D01*
X9808195Y-7796667D01*
X9817719Y-7806190D01*
X9827243Y-7825238D01*
X9827243Y-7882381D01*
X9817719Y-7901428D01*
X9808195Y-7910952D01*
X9789148Y-7920476D01*
X9760576Y-7920476D01*
X9941529Y-7920476D02*
X9922481Y-7910952D01*
X9912957Y-7891905D01*
X9912957Y-7720476D01*
X10093910Y-7910952D02*
X10074862Y-7920476D01*
X10036767Y-7920476D01*
X10017719Y-7910952D01*
X10008195Y-7891905D01*
X10008195Y-7815714D01*
X10017719Y-7796667D01*
X10036767Y-7787143D01*
X10074862Y-7787143D01*
X10093910Y-7796667D01*
X10103433Y-7815714D01*
X10103433Y-7834762D01*
X10008195Y-7853809D01*
X10179624Y-7910952D02*
X10198671Y-7920476D01*
X10236767Y-7920476D01*
X10255814Y-7910952D01*
X10265338Y-7891905D01*
X10265338Y-7882381D01*
X10255814Y-7863333D01*
X10236767Y-7853809D01*
X10208195Y-7853809D01*
X10189148Y-7844286D01*
X10179624Y-7825238D01*
X10179624Y-7815714D01*
X10189148Y-7796667D01*
X10208195Y-7787143D01*
X10236767Y-7787143D01*
X10255814Y-7796667D01*
X10332005Y-7996667D02*
X10341529Y-7987143D01*
X10360576Y-7958571D01*
X10370100Y-7939524D01*
X10379624Y-7910952D01*
X10389148Y-7863333D01*
X10389148Y-7825238D01*
X10379624Y-7777619D01*
X10370100Y-7749048D01*
X10360576Y-7730000D01*
X10341529Y-7701428D01*
X10332005Y-7691905D01*
D16*
X5515650Y-8138450D02*
X5560100Y-8094000D01*
X5515650Y-8049550D01*
X5471200Y-8094000D01*
X5515650Y-8138450D01*
D11*
X5855814Y-7984476D02*
X5874862Y-7984476D01*
X5893909Y-7994000D01*
X5903433Y-8003524D01*
X5912957Y-8022571D01*
X5922481Y-8060667D01*
X5922481Y-8108286D01*
X5912957Y-8146381D01*
X5903433Y-8165428D01*
X5893909Y-8174952D01*
X5874862Y-8184476D01*
X5855814Y-8184476D01*
X5836767Y-8174952D01*
X5827243Y-8165428D01*
X5817719Y-8146381D01*
X5808195Y-8108286D01*
X5808195Y-8060667D01*
X5817719Y-8022571D01*
X5827243Y-8003524D01*
X5836767Y-7994000D01*
X5855814Y-7984476D01*
X6008195Y-8165428D02*
X6017719Y-8174952D01*
X6008195Y-8184476D01*
X5998671Y-8174952D01*
X6008195Y-8165428D01*
X6008195Y-8184476D01*
X6132005Y-8070190D02*
X6112957Y-8060667D01*
X6103433Y-8051143D01*
X6093909Y-8032095D01*
X6093909Y-8022571D01*
X6103433Y-8003524D01*
X6112957Y-7994000D01*
X6132005Y-7984476D01*
X6170100Y-7984476D01*
X6189148Y-7994000D01*
X6198671Y-8003524D01*
X6208195Y-8022571D01*
X6208195Y-8032095D01*
X6198671Y-8051143D01*
X6189148Y-8060667D01*
X6170100Y-8070190D01*
X6132005Y-8070190D01*
X6112957Y-8079714D01*
X6103433Y-8089238D01*
X6093909Y-8108286D01*
X6093909Y-8146381D01*
X6103433Y-8165428D01*
X6112957Y-8174952D01*
X6132005Y-8184476D01*
X6170100Y-8184476D01*
X6189148Y-8174952D01*
X6198671Y-8165428D01*
X6208195Y-8146381D01*
X6208195Y-8108286D01*
X6198671Y-8089238D01*
X6189148Y-8079714D01*
X6170100Y-8070190D01*
X6322481Y-8070190D02*
X6303433Y-8060667D01*
X6293909Y-8051143D01*
X6284386Y-8032095D01*
X6284386Y-8022571D01*
X6293909Y-8003524D01*
X6303433Y-7994000D01*
X6322481Y-7984476D01*
X6360576Y-7984476D01*
X6379624Y-7994000D01*
X6389148Y-8003524D01*
X6398671Y-8022571D01*
X6398671Y-8032095D01*
X6389148Y-8051143D01*
X6379624Y-8060667D01*
X6360576Y-8070190D01*
X6322481Y-8070190D01*
X6303433Y-8079714D01*
X6293909Y-8089238D01*
X6284386Y-8108286D01*
X6284386Y-8146381D01*
X6293909Y-8165428D01*
X6303433Y-8174952D01*
X6322481Y-8184476D01*
X6360576Y-8184476D01*
X6379624Y-8174952D01*
X6389148Y-8165428D01*
X6398671Y-8146381D01*
X6398671Y-8108286D01*
X6389148Y-8089238D01*
X6379624Y-8079714D01*
X6360576Y-8070190D01*
X6493909Y-8184476D02*
X6532005Y-8184476D01*
X6551052Y-8174952D01*
X6560576Y-8165428D01*
X6579624Y-8136857D01*
X6589148Y-8098762D01*
X6589148Y-8022571D01*
X6579624Y-8003524D01*
X6570100Y-7994000D01*
X6551052Y-7984476D01*
X6512957Y-7984476D01*
X6493909Y-7994000D01*
X6484386Y-8003524D01*
X6474862Y-8022571D01*
X6474862Y-8070190D01*
X6484386Y-8089238D01*
X6493909Y-8098762D01*
X6512957Y-8108286D01*
X6551052Y-8108286D01*
X6570100Y-8098762D01*
X6579624Y-8089238D01*
X6589148Y-8070190D01*
X6674862Y-8184476D02*
X6674862Y-8051143D01*
X6674862Y-8070190D02*
X6684386Y-8060667D01*
X6703433Y-8051143D01*
X6732005Y-8051143D01*
X6751052Y-8060667D01*
X6760576Y-8079714D01*
X6760576Y-8184476D01*
X6760576Y-8079714D02*
X6770100Y-8060667D01*
X6789148Y-8051143D01*
X6817719Y-8051143D01*
X6836767Y-8060667D01*
X6846290Y-8079714D01*
X6846290Y-8184476D01*
X6941528Y-8184476D02*
X6941528Y-8051143D01*
X6941528Y-8070190D02*
X6951052Y-8060667D01*
X6970100Y-8051143D01*
X6998671Y-8051143D01*
X7017719Y-8060667D01*
X7027243Y-8079714D01*
X7027243Y-8184476D01*
X7027243Y-8079714D02*
X7036767Y-8060667D01*
X7055814Y-8051143D01*
X7084386Y-8051143D01*
X7103433Y-8060667D01*
X7112957Y-8079714D01*
X7112957Y-8184476D01*
X7503433Y-7974952D02*
X7332005Y-8232095D01*
X7760576Y-7984476D02*
X7779624Y-7984476D01*
X7798671Y-7994000D01*
X7808195Y-8003524D01*
X7817719Y-8022571D01*
X7827243Y-8060667D01*
X7827243Y-8108286D01*
X7817719Y-8146381D01*
X7808195Y-8165428D01*
X7798671Y-8174952D01*
X7779624Y-8184476D01*
X7760576Y-8184476D01*
X7741528Y-8174952D01*
X7732005Y-8165428D01*
X7722481Y-8146381D01*
X7712957Y-8108286D01*
X7712957Y-8060667D01*
X7722481Y-8022571D01*
X7732005Y-8003524D01*
X7741528Y-7994000D01*
X7760576Y-7984476D01*
X7912957Y-8165428D02*
X7922481Y-8174952D01*
X7912957Y-8184476D01*
X7903433Y-8174952D01*
X7912957Y-8165428D01*
X7912957Y-8184476D01*
X8046290Y-7984476D02*
X8065338Y-7984476D01*
X8084386Y-7994000D01*
X8093909Y-8003524D01*
X8103433Y-8022571D01*
X8112957Y-8060667D01*
X8112957Y-8108286D01*
X8103433Y-8146381D01*
X8093909Y-8165428D01*
X8084386Y-8174952D01*
X8065338Y-8184476D01*
X8046290Y-8184476D01*
X8027243Y-8174952D01*
X8017719Y-8165428D01*
X8008195Y-8146381D01*
X7998671Y-8108286D01*
X7998671Y-8060667D01*
X8008195Y-8022571D01*
X8017719Y-8003524D01*
X8027243Y-7994000D01*
X8046290Y-7984476D01*
X8179624Y-7984476D02*
X8303433Y-7984476D01*
X8236767Y-8060667D01*
X8265338Y-8060667D01*
X8284386Y-8070190D01*
X8293909Y-8079714D01*
X8303433Y-8098762D01*
X8303433Y-8146381D01*
X8293909Y-8165428D01*
X8284386Y-8174952D01*
X8265338Y-8184476D01*
X8208195Y-8184476D01*
X8189148Y-8174952D01*
X8179624Y-8165428D01*
X8484386Y-7984476D02*
X8389148Y-7984476D01*
X8379624Y-8079714D01*
X8389148Y-8070190D01*
X8408195Y-8060667D01*
X8455814Y-8060667D01*
X8474862Y-8070190D01*
X8484386Y-8079714D01*
X8493910Y-8098762D01*
X8493910Y-8146381D01*
X8484386Y-8165428D01*
X8474862Y-8174952D01*
X8455814Y-8184476D01*
X8408195Y-8184476D01*
X8389148Y-8174952D01*
X8379624Y-8165428D01*
X8617719Y-7984476D02*
X8636767Y-7984476D01*
X8655814Y-7994000D01*
X8665338Y-8003524D01*
X8674862Y-8022571D01*
X8684386Y-8060667D01*
X8684386Y-8108286D01*
X8674862Y-8146381D01*
X8665338Y-8165428D01*
X8655814Y-8174952D01*
X8636767Y-8184476D01*
X8617719Y-8184476D01*
X8598671Y-8174952D01*
X8589148Y-8165428D01*
X8579624Y-8146381D01*
X8570100Y-8108286D01*
X8570100Y-8060667D01*
X8579624Y-8022571D01*
X8589148Y-8003524D01*
X8598671Y-7994000D01*
X8617719Y-7984476D01*
X8760576Y-7984476D02*
X8760576Y-8022571D01*
X8836767Y-7984476D02*
X8836767Y-8022571D01*
X9132005Y-8260667D02*
X9122481Y-8251143D01*
X9103433Y-8222571D01*
X9093910Y-8203524D01*
X9084386Y-8174952D01*
X9074862Y-8127333D01*
X9074862Y-8089238D01*
X9084386Y-8041619D01*
X9093910Y-8013048D01*
X9103433Y-7994000D01*
X9122481Y-7965428D01*
X9132005Y-7955905D01*
X9312957Y-8184476D02*
X9198671Y-8184476D01*
X9255814Y-8184476D02*
X9255814Y-7984476D01*
X9236767Y-8013048D01*
X9217719Y-8032095D01*
X9198671Y-8041619D01*
X9436767Y-7984476D02*
X9455814Y-7984476D01*
X9474862Y-7994000D01*
X9484386Y-8003524D01*
X9493910Y-8022571D01*
X9503433Y-8060667D01*
X9503433Y-8108286D01*
X9493910Y-8146381D01*
X9484386Y-8165428D01*
X9474862Y-8174952D01*
X9455814Y-8184476D01*
X9436767Y-8184476D01*
X9417719Y-8174952D01*
X9408195Y-8165428D01*
X9398671Y-8146381D01*
X9389148Y-8108286D01*
X9389148Y-8060667D01*
X9398671Y-8022571D01*
X9408195Y-8003524D01*
X9417719Y-7994000D01*
X9436767Y-7984476D01*
X9741529Y-8184476D02*
X9741529Y-7984476D01*
X9827243Y-8184476D02*
X9827243Y-8079714D01*
X9817719Y-8060667D01*
X9798671Y-8051143D01*
X9770100Y-8051143D01*
X9751052Y-8060667D01*
X9741529Y-8070190D01*
X9951052Y-8184476D02*
X9932005Y-8174952D01*
X9922481Y-8165428D01*
X9912957Y-8146381D01*
X9912957Y-8089238D01*
X9922481Y-8070190D01*
X9932005Y-8060667D01*
X9951052Y-8051143D01*
X9979624Y-8051143D01*
X9998671Y-8060667D01*
X10008195Y-8070190D01*
X10017719Y-8089238D01*
X10017719Y-8146381D01*
X10008195Y-8165428D01*
X9998671Y-8174952D01*
X9979624Y-8184476D01*
X9951052Y-8184476D01*
X10132005Y-8184476D02*
X10112957Y-8174952D01*
X10103433Y-8155905D01*
X10103433Y-7984476D01*
X10284386Y-8174952D02*
X10265338Y-8184476D01*
X10227243Y-8184476D01*
X10208195Y-8174952D01*
X10198671Y-8155905D01*
X10198671Y-8079714D01*
X10208195Y-8060667D01*
X10227243Y-8051143D01*
X10265338Y-8051143D01*
X10284386Y-8060667D01*
X10293910Y-8079714D01*
X10293910Y-8098762D01*
X10198671Y-8117809D01*
X10370100Y-8174952D02*
X10389148Y-8184476D01*
X10427243Y-8184476D01*
X10446290Y-8174952D01*
X10455814Y-8155905D01*
X10455814Y-8146381D01*
X10446290Y-8127333D01*
X10427243Y-8117809D01*
X10398671Y-8117809D01*
X10379624Y-8108286D01*
X10370100Y-8089238D01*
X10370100Y-8079714D01*
X10379624Y-8060667D01*
X10398671Y-8051143D01*
X10427243Y-8051143D01*
X10446290Y-8060667D01*
X10522481Y-8260667D02*
X10532005Y-8251143D01*
X10551052Y-8222571D01*
X10560576Y-8203524D01*
X10570100Y-8174952D01*
X10579624Y-8127333D01*
X10579624Y-8089238D01*
X10570100Y-8041619D01*
X10560576Y-8013048D01*
X10551052Y-7994000D01*
X10532005Y-7965428D01*
X10522481Y-7955905D01*
D17*
X5470100Y-8313000D02*
X5560100Y-8403000D01*
X5560100Y-8313000D02*
X5470100Y-8403000D01*
X5560100Y-8358000D02*
G75*
G03*
X5560100Y-8358000I-45000J0D01*
G01*
D11*
X5855814Y-8248476D02*
X5874862Y-8248476D01*
X5893909Y-8258000D01*
X5903433Y-8267524D01*
X5912957Y-8286571D01*
X5922481Y-8324667D01*
X5922481Y-8372286D01*
X5912957Y-8410381D01*
X5903433Y-8429429D01*
X5893909Y-8438952D01*
X5874862Y-8448476D01*
X5855814Y-8448476D01*
X5836767Y-8438952D01*
X5827243Y-8429429D01*
X5817719Y-8410381D01*
X5808195Y-8372286D01*
X5808195Y-8324667D01*
X5817719Y-8286571D01*
X5827243Y-8267524D01*
X5836767Y-8258000D01*
X5855814Y-8248476D01*
X6008195Y-8429429D02*
X6017719Y-8438952D01*
X6008195Y-8448476D01*
X5998671Y-8438952D01*
X6008195Y-8429429D01*
X6008195Y-8448476D01*
X6112957Y-8448476D02*
X6151052Y-8448476D01*
X6170100Y-8438952D01*
X6179624Y-8429429D01*
X6198671Y-8400857D01*
X6208195Y-8362762D01*
X6208195Y-8286571D01*
X6198671Y-8267524D01*
X6189148Y-8258000D01*
X6170100Y-8248476D01*
X6132005Y-8248476D01*
X6112957Y-8258000D01*
X6103433Y-8267524D01*
X6093909Y-8286571D01*
X6093909Y-8334190D01*
X6103433Y-8353238D01*
X6112957Y-8362762D01*
X6132005Y-8372286D01*
X6170100Y-8372286D01*
X6189148Y-8362762D01*
X6198671Y-8353238D01*
X6208195Y-8334190D01*
X6332005Y-8248476D02*
X6351052Y-8248476D01*
X6370100Y-8258000D01*
X6379624Y-8267524D01*
X6389148Y-8286571D01*
X6398671Y-8324667D01*
X6398671Y-8372286D01*
X6389148Y-8410381D01*
X6379624Y-8429429D01*
X6370100Y-8438952D01*
X6351052Y-8448476D01*
X6332005Y-8448476D01*
X6312957Y-8438952D01*
X6303433Y-8429429D01*
X6293909Y-8410381D01*
X6284386Y-8372286D01*
X6284386Y-8324667D01*
X6293909Y-8286571D01*
X6303433Y-8267524D01*
X6312957Y-8258000D01*
X6332005Y-8248476D01*
X6522481Y-8248476D02*
X6541528Y-8248476D01*
X6560576Y-8258000D01*
X6570100Y-8267524D01*
X6579624Y-8286571D01*
X6589148Y-8324667D01*
X6589148Y-8372286D01*
X6579624Y-8410381D01*
X6570100Y-8429429D01*
X6560576Y-8438952D01*
X6541528Y-8448476D01*
X6522481Y-8448476D01*
X6503433Y-8438952D01*
X6493909Y-8429429D01*
X6484386Y-8410381D01*
X6474862Y-8372286D01*
X6474862Y-8324667D01*
X6484386Y-8286571D01*
X6493909Y-8267524D01*
X6503433Y-8258000D01*
X6522481Y-8248476D01*
X6674862Y-8448476D02*
X6674862Y-8315143D01*
X6674862Y-8334190D02*
X6684386Y-8324667D01*
X6703433Y-8315143D01*
X6732005Y-8315143D01*
X6751052Y-8324667D01*
X6760576Y-8343714D01*
X6760576Y-8448476D01*
X6760576Y-8343714D02*
X6770100Y-8324667D01*
X6789148Y-8315143D01*
X6817719Y-8315143D01*
X6836767Y-8324667D01*
X6846290Y-8343714D01*
X6846290Y-8448476D01*
X6941528Y-8448476D02*
X6941528Y-8315143D01*
X6941528Y-8334190D02*
X6951052Y-8324667D01*
X6970100Y-8315143D01*
X6998671Y-8315143D01*
X7017719Y-8324667D01*
X7027243Y-8343714D01*
X7027243Y-8448476D01*
X7027243Y-8343714D02*
X7036767Y-8324667D01*
X7055814Y-8315143D01*
X7084386Y-8315143D01*
X7103433Y-8324667D01*
X7112957Y-8343714D01*
X7112957Y-8448476D01*
X7503433Y-8238952D02*
X7332005Y-8496095D01*
X7760576Y-8248476D02*
X7779624Y-8248476D01*
X7798671Y-8258000D01*
X7808195Y-8267524D01*
X7817719Y-8286571D01*
X7827243Y-8324667D01*
X7827243Y-8372286D01*
X7817719Y-8410381D01*
X7808195Y-8429429D01*
X7798671Y-8438952D01*
X7779624Y-8448476D01*
X7760576Y-8448476D01*
X7741528Y-8438952D01*
X7732005Y-8429429D01*
X7722481Y-8410381D01*
X7712957Y-8372286D01*
X7712957Y-8324667D01*
X7722481Y-8286571D01*
X7732005Y-8267524D01*
X7741528Y-8258000D01*
X7760576Y-8248476D01*
X7912957Y-8429429D02*
X7922481Y-8438952D01*
X7912957Y-8448476D01*
X7903433Y-8438952D01*
X7912957Y-8429429D01*
X7912957Y-8448476D01*
X8046290Y-8248476D02*
X8065338Y-8248476D01*
X8084386Y-8258000D01*
X8093909Y-8267524D01*
X8103433Y-8286571D01*
X8112957Y-8324667D01*
X8112957Y-8372286D01*
X8103433Y-8410381D01*
X8093909Y-8429429D01*
X8084386Y-8438952D01*
X8065338Y-8448476D01*
X8046290Y-8448476D01*
X8027243Y-8438952D01*
X8017719Y-8429429D01*
X8008195Y-8410381D01*
X7998671Y-8372286D01*
X7998671Y-8324667D01*
X8008195Y-8286571D01*
X8017719Y-8267524D01*
X8027243Y-8258000D01*
X8046290Y-8248476D01*
X8179624Y-8248476D02*
X8303433Y-8248476D01*
X8236767Y-8324667D01*
X8265338Y-8324667D01*
X8284386Y-8334190D01*
X8293909Y-8343714D01*
X8303433Y-8362762D01*
X8303433Y-8410381D01*
X8293909Y-8429429D01*
X8284386Y-8438952D01*
X8265338Y-8448476D01*
X8208195Y-8448476D01*
X8189148Y-8438952D01*
X8179624Y-8429429D01*
X8484386Y-8248476D02*
X8389148Y-8248476D01*
X8379624Y-8343714D01*
X8389148Y-8334190D01*
X8408195Y-8324667D01*
X8455814Y-8324667D01*
X8474862Y-8334190D01*
X8484386Y-8343714D01*
X8493910Y-8362762D01*
X8493910Y-8410381D01*
X8484386Y-8429429D01*
X8474862Y-8438952D01*
X8455814Y-8448476D01*
X8408195Y-8448476D01*
X8389148Y-8438952D01*
X8379624Y-8429429D01*
X8665338Y-8315143D02*
X8665338Y-8448476D01*
X8617719Y-8238952D02*
X8570100Y-8381809D01*
X8693910Y-8381809D01*
X8760576Y-8248476D02*
X8760576Y-8286571D01*
X8836767Y-8248476D02*
X8836767Y-8286571D01*
X9132005Y-8524667D02*
X9122481Y-8515143D01*
X9103433Y-8486571D01*
X9093910Y-8467524D01*
X9084386Y-8438952D01*
X9074862Y-8391333D01*
X9074862Y-8353238D01*
X9084386Y-8305619D01*
X9093910Y-8277048D01*
X9103433Y-8258000D01*
X9122481Y-8229428D01*
X9132005Y-8219905D01*
X9189148Y-8248476D02*
X9312957Y-8248476D01*
X9246290Y-8324667D01*
X9274862Y-8324667D01*
X9293910Y-8334190D01*
X9303433Y-8343714D01*
X9312957Y-8362762D01*
X9312957Y-8410381D01*
X9303433Y-8429429D01*
X9293910Y-8438952D01*
X9274862Y-8448476D01*
X9217719Y-8448476D01*
X9198671Y-8438952D01*
X9189148Y-8429429D01*
X9551052Y-8448476D02*
X9551052Y-8248476D01*
X9636767Y-8448476D02*
X9636767Y-8343714D01*
X9627243Y-8324667D01*
X9608195Y-8315143D01*
X9579624Y-8315143D01*
X9560576Y-8324667D01*
X9551052Y-8334190D01*
X9760576Y-8448476D02*
X9741529Y-8438952D01*
X9732005Y-8429429D01*
X9722481Y-8410381D01*
X9722481Y-8353238D01*
X9732005Y-8334190D01*
X9741529Y-8324667D01*
X9760576Y-8315143D01*
X9789148Y-8315143D01*
X9808195Y-8324667D01*
X9817719Y-8334190D01*
X9827243Y-8353238D01*
X9827243Y-8410381D01*
X9817719Y-8429429D01*
X9808195Y-8438952D01*
X9789148Y-8448476D01*
X9760576Y-8448476D01*
X9941529Y-8448476D02*
X9922481Y-8438952D01*
X9912957Y-8419905D01*
X9912957Y-8248476D01*
X10093910Y-8438952D02*
X10074862Y-8448476D01*
X10036767Y-8448476D01*
X10017719Y-8438952D01*
X10008195Y-8419905D01*
X10008195Y-8343714D01*
X10017719Y-8324667D01*
X10036767Y-8315143D01*
X10074862Y-8315143D01*
X10093910Y-8324667D01*
X10103433Y-8343714D01*
X10103433Y-8362762D01*
X10008195Y-8381809D01*
X10179624Y-8438952D02*
X10198671Y-8448476D01*
X10236767Y-8448476D01*
X10255814Y-8438952D01*
X10265338Y-8419905D01*
X10265338Y-8410381D01*
X10255814Y-8391333D01*
X10236767Y-8381809D01*
X10208195Y-8381809D01*
X10189148Y-8372286D01*
X10179624Y-8353238D01*
X10179624Y-8343714D01*
X10189148Y-8324667D01*
X10208195Y-8315143D01*
X10236767Y-8315143D01*
X10255814Y-8324667D01*
X10332005Y-8524667D02*
X10341529Y-8515143D01*
X10360576Y-8486571D01*
X10370100Y-8467524D01*
X10379624Y-8438952D01*
X10389148Y-8391333D01*
X10389148Y-8353238D01*
X10379624Y-8305619D01*
X10370100Y-8277048D01*
X10360576Y-8258000D01*
X10341529Y-8229428D01*
X10332005Y-8219905D01*
D18*
X5410100Y-8547000D02*
X5560100Y-8697000D01*
X5560100Y-8547000D02*
X5410100Y-8697000D01*
X5485100Y-8547000D02*
X5485100Y-8697000D01*
X5410100Y-8622000D02*
X5560100Y-8622000D01*
D11*
X5922481Y-8712476D02*
X5808195Y-8712476D01*
X5865338Y-8712476D02*
X5865338Y-8512476D01*
X5846290Y-8541048D01*
X5827243Y-8560095D01*
X5808195Y-8569619D01*
X6008195Y-8693429D02*
X6017719Y-8702952D01*
X6008195Y-8712476D01*
X5998671Y-8702952D01*
X6008195Y-8693429D01*
X6008195Y-8712476D01*
X6198671Y-8512476D02*
X6103433Y-8512476D01*
X6093909Y-8607714D01*
X6103433Y-8598190D01*
X6122481Y-8588667D01*
X6170100Y-8588667D01*
X6189148Y-8598190D01*
X6198671Y-8607714D01*
X6208195Y-8626762D01*
X6208195Y-8674381D01*
X6198671Y-8693429D01*
X6189148Y-8702952D01*
X6170100Y-8712476D01*
X6122481Y-8712476D01*
X6103433Y-8702952D01*
X6093909Y-8693429D01*
X6332005Y-8512476D02*
X6351052Y-8512476D01*
X6370100Y-8522000D01*
X6379624Y-8531524D01*
X6389148Y-8550571D01*
X6398671Y-8588667D01*
X6398671Y-8636286D01*
X6389148Y-8674381D01*
X6379624Y-8693429D01*
X6370100Y-8702952D01*
X6351052Y-8712476D01*
X6332005Y-8712476D01*
X6312957Y-8702952D01*
X6303433Y-8693429D01*
X6293909Y-8674381D01*
X6284386Y-8636286D01*
X6284386Y-8588667D01*
X6293909Y-8550571D01*
X6303433Y-8531524D01*
X6312957Y-8522000D01*
X6332005Y-8512476D01*
X6522481Y-8512476D02*
X6541528Y-8512476D01*
X6560576Y-8522000D01*
X6570100Y-8531524D01*
X6579624Y-8550571D01*
X6589148Y-8588667D01*
X6589148Y-8636286D01*
X6579624Y-8674381D01*
X6570100Y-8693429D01*
X6560576Y-8702952D01*
X6541528Y-8712476D01*
X6522481Y-8712476D01*
X6503433Y-8702952D01*
X6493909Y-8693429D01*
X6484386Y-8674381D01*
X6474862Y-8636286D01*
X6474862Y-8588667D01*
X6484386Y-8550571D01*
X6493909Y-8531524D01*
X6503433Y-8522000D01*
X6522481Y-8512476D01*
X6674862Y-8712476D02*
X6674862Y-8579143D01*
X6674862Y-8598190D02*
X6684386Y-8588667D01*
X6703433Y-8579143D01*
X6732005Y-8579143D01*
X6751052Y-8588667D01*
X6760576Y-8607714D01*
X6760576Y-8712476D01*
X6760576Y-8607714D02*
X6770100Y-8588667D01*
X6789148Y-8579143D01*
X6817719Y-8579143D01*
X6836767Y-8588667D01*
X6846290Y-8607714D01*
X6846290Y-8712476D01*
X6941528Y-8712476D02*
X6941528Y-8579143D01*
X6941528Y-8598190D02*
X6951052Y-8588667D01*
X6970100Y-8579143D01*
X6998671Y-8579143D01*
X7017719Y-8588667D01*
X7027243Y-8607714D01*
X7027243Y-8712476D01*
X7027243Y-8607714D02*
X7036767Y-8588667D01*
X7055814Y-8579143D01*
X7084386Y-8579143D01*
X7103433Y-8588667D01*
X7112957Y-8607714D01*
X7112957Y-8712476D01*
X7503433Y-8502952D02*
X7332005Y-8760095D01*
X7760576Y-8512476D02*
X7779624Y-8512476D01*
X7798671Y-8522000D01*
X7808195Y-8531524D01*
X7817719Y-8550571D01*
X7827243Y-8588667D01*
X7827243Y-8636286D01*
X7817719Y-8674381D01*
X7808195Y-8693429D01*
X7798671Y-8702952D01*
X7779624Y-8712476D01*
X7760576Y-8712476D01*
X7741528Y-8702952D01*
X7732005Y-8693429D01*
X7722481Y-8674381D01*
X7712957Y-8636286D01*
X7712957Y-8588667D01*
X7722481Y-8550571D01*
X7732005Y-8531524D01*
X7741528Y-8522000D01*
X7760576Y-8512476D01*
X7912957Y-8693429D02*
X7922481Y-8702952D01*
X7912957Y-8712476D01*
X7903433Y-8702952D01*
X7912957Y-8693429D01*
X7912957Y-8712476D01*
X8046290Y-8512476D02*
X8065338Y-8512476D01*
X8084386Y-8522000D01*
X8093909Y-8531524D01*
X8103433Y-8550571D01*
X8112957Y-8588667D01*
X8112957Y-8636286D01*
X8103433Y-8674381D01*
X8093909Y-8693429D01*
X8084386Y-8702952D01*
X8065338Y-8712476D01*
X8046290Y-8712476D01*
X8027243Y-8702952D01*
X8017719Y-8693429D01*
X8008195Y-8674381D01*
X7998671Y-8636286D01*
X7998671Y-8588667D01*
X8008195Y-8550571D01*
X8017719Y-8531524D01*
X8027243Y-8522000D01*
X8046290Y-8512476D01*
X8293909Y-8512476D02*
X8198671Y-8512476D01*
X8189148Y-8607714D01*
X8198671Y-8598190D01*
X8217719Y-8588667D01*
X8265338Y-8588667D01*
X8284386Y-8598190D01*
X8293909Y-8607714D01*
X8303433Y-8626762D01*
X8303433Y-8674381D01*
X8293909Y-8693429D01*
X8284386Y-8702952D01*
X8265338Y-8712476D01*
X8217719Y-8712476D01*
X8198671Y-8702952D01*
X8189148Y-8693429D01*
X8398671Y-8712476D02*
X8436767Y-8712476D01*
X8455814Y-8702952D01*
X8465338Y-8693429D01*
X8484386Y-8664857D01*
X8493910Y-8626762D01*
X8493910Y-8550571D01*
X8484386Y-8531524D01*
X8474862Y-8522000D01*
X8455814Y-8512476D01*
X8417719Y-8512476D01*
X8398671Y-8522000D01*
X8389148Y-8531524D01*
X8379624Y-8550571D01*
X8379624Y-8598190D01*
X8389148Y-8617238D01*
X8398671Y-8626762D01*
X8417719Y-8636286D01*
X8455814Y-8636286D01*
X8474862Y-8626762D01*
X8484386Y-8617238D01*
X8493910Y-8598190D01*
X8684386Y-8712476D02*
X8570100Y-8712476D01*
X8627243Y-8712476D02*
X8627243Y-8512476D01*
X8608195Y-8541048D01*
X8589148Y-8560095D01*
X8570100Y-8569619D01*
X8760576Y-8512476D02*
X8760576Y-8550571D01*
X8836767Y-8512476D02*
X8836767Y-8550571D01*
X9132005Y-8788667D02*
X9122481Y-8779143D01*
X9103433Y-8750571D01*
X9093910Y-8731524D01*
X9084386Y-8702952D01*
X9074862Y-8655333D01*
X9074862Y-8617238D01*
X9084386Y-8569619D01*
X9093910Y-8541048D01*
X9103433Y-8522000D01*
X9122481Y-8493429D01*
X9132005Y-8483905D01*
X9198671Y-8531524D02*
X9208195Y-8522000D01*
X9227243Y-8512476D01*
X9274862Y-8512476D01*
X9293910Y-8522000D01*
X9303433Y-8531524D01*
X9312957Y-8550571D01*
X9312957Y-8569619D01*
X9303433Y-8598190D01*
X9189148Y-8712476D01*
X9312957Y-8712476D01*
X9551052Y-8712476D02*
X9551052Y-8512476D01*
X9636767Y-8712476D02*
X9636767Y-8607714D01*
X9627243Y-8588667D01*
X9608195Y-8579143D01*
X9579624Y-8579143D01*
X9560576Y-8588667D01*
X9551052Y-8598190D01*
X9760576Y-8712476D02*
X9741529Y-8702952D01*
X9732005Y-8693429D01*
X9722481Y-8674381D01*
X9722481Y-8617238D01*
X9732005Y-8598190D01*
X9741529Y-8588667D01*
X9760576Y-8579143D01*
X9789148Y-8579143D01*
X9808195Y-8588667D01*
X9817719Y-8598190D01*
X9827243Y-8617238D01*
X9827243Y-8674381D01*
X9817719Y-8693429D01*
X9808195Y-8702952D01*
X9789148Y-8712476D01*
X9760576Y-8712476D01*
X9941529Y-8712476D02*
X9922481Y-8702952D01*
X9912957Y-8683905D01*
X9912957Y-8512476D01*
X10093910Y-8702952D02*
X10074862Y-8712476D01*
X10036767Y-8712476D01*
X10017719Y-8702952D01*
X10008195Y-8683905D01*
X10008195Y-8607714D01*
X10017719Y-8588667D01*
X10036767Y-8579143D01*
X10074862Y-8579143D01*
X10093910Y-8588667D01*
X10103433Y-8607714D01*
X10103433Y-8626762D01*
X10008195Y-8645810D01*
X10179624Y-8702952D02*
X10198671Y-8712476D01*
X10236767Y-8712476D01*
X10255814Y-8702952D01*
X10265338Y-8683905D01*
X10265338Y-8674381D01*
X10255814Y-8655333D01*
X10236767Y-8645810D01*
X10208195Y-8645810D01*
X10189148Y-8636286D01*
X10179624Y-8617238D01*
X10179624Y-8607714D01*
X10189148Y-8588667D01*
X10208195Y-8579143D01*
X10236767Y-8579143D01*
X10255814Y-8588667D01*
X10332005Y-8788667D02*
X10341529Y-8779143D01*
X10360576Y-8750571D01*
X10370100Y-8731524D01*
X10379624Y-8702952D01*
X10389148Y-8655333D01*
X10389148Y-8617238D01*
X10379624Y-8569619D01*
X10370100Y-8541048D01*
X10360576Y-8522000D01*
X10341529Y-8493429D01*
X10332005Y-8483905D01*
M02*
