%TF.GenerationSoftware,KiCad,Pcbnew,(6.0.2)*%
%TF.CreationDate,2022-03-07T06:31:50-05:00*%
%TF.ProjectId,ferrous_slime,66657272-6f75-4735-9f73-6c696d652e6b,rev?*%
%TF.SameCoordinates,Original*%
%TF.FileFunction,Legend,Top*%
%TF.FilePolarity,Positive*%
%FSLAX46Y46*%
G04 Gerber Fmt 4.6, Leading zero omitted, Abs format (unit mm)*
G04 Created by KiCad (PCBNEW (6.0.2)) date 2022-03-07 06:31:50*
%MOMM*%
%LPD*%
G01*
G04 APERTURE LIST*
%ADD10C,0.150000*%
%ADD11C,0.060000*%
%ADD12C,0.050800*%
%ADD13C,0.076200*%
%ADD14C,0.127000*%
%ADD15C,0.152000*%
%ADD16C,0.120000*%
%ADD17C,0.203000*%
%ADD18C,0.254000*%
G04 APERTURE END LIST*
D10*
X71278479Y-43318551D02*
X71682540Y-43722612D01*
X71736415Y-43830362D01*
X71736415Y-43938112D01*
X71682540Y-44045861D01*
X71628666Y-44099736D01*
X72382913Y-43345489D02*
X72113539Y-43614863D01*
X71547853Y-43049177D01*
X72840849Y-42779803D02*
X72840849Y-42833678D01*
X72786974Y-42941428D01*
X72733099Y-42995302D01*
X72625350Y-43049177D01*
X72517600Y-43049177D01*
X72436788Y-43022240D01*
X72302101Y-42941428D01*
X72221289Y-42860615D01*
X72140476Y-42725928D01*
X72113539Y-42645116D01*
X72113539Y-42537367D01*
X72167414Y-42429617D01*
X72221289Y-42375742D01*
X72329038Y-42321867D01*
X72382913Y-42321867D01*
X72733099Y-41863932D02*
X73137160Y-42267993D01*
X73191035Y-42375742D01*
X73191035Y-42483492D01*
X73137160Y-42591241D01*
X73083285Y-42645116D01*
X73837533Y-41890869D02*
X73568159Y-42160243D01*
X73002473Y-41594558D01*
X74295468Y-41325184D02*
X74295468Y-41379058D01*
X74241594Y-41486808D01*
X74187719Y-41540683D01*
X74079969Y-41594558D01*
X73972220Y-41594558D01*
X73891407Y-41567620D01*
X73756720Y-41486808D01*
X73675908Y-41405996D01*
X73595096Y-41271309D01*
X73568159Y-41190497D01*
X73568159Y-41082747D01*
X73622033Y-40974997D01*
X73675908Y-40921123D01*
X73783658Y-40867248D01*
X73837533Y-40867248D01*
X74187719Y-40409312D02*
X74591780Y-40813373D01*
X74645655Y-40921123D01*
X74645655Y-41028872D01*
X74591780Y-41136622D01*
X74537905Y-41190497D01*
X75292152Y-40436249D02*
X75022778Y-40705623D01*
X74457093Y-40139938D01*
X75750088Y-39870564D02*
X75750088Y-39924439D01*
X75696213Y-40032188D01*
X75642338Y-40086063D01*
X75534589Y-40139938D01*
X75426839Y-40139938D01*
X75346027Y-40113001D01*
X75211340Y-40032188D01*
X75130528Y-39951376D01*
X75049716Y-39816689D01*
X75022778Y-39735877D01*
X75022778Y-39628127D01*
X75076653Y-39520378D01*
X75130528Y-39466503D01*
X75238277Y-39412628D01*
X75292152Y-39412628D01*
X75642338Y-38954692D02*
X76046399Y-39358753D01*
X76100274Y-39466503D01*
X76100274Y-39574253D01*
X76046399Y-39682002D01*
X75992525Y-39735877D01*
X76746772Y-38981630D02*
X76477398Y-39251004D01*
X75911712Y-38685318D01*
X77204708Y-38415944D02*
X77204708Y-38469819D01*
X77150833Y-38577569D01*
X77096958Y-38631443D01*
X76989209Y-38685318D01*
X76881459Y-38685318D01*
X76800647Y-38658381D01*
X76665960Y-38577569D01*
X76585148Y-38496756D01*
X76504335Y-38362069D01*
X76477398Y-38281257D01*
X76477398Y-38173508D01*
X76531273Y-38065758D01*
X76585148Y-38011883D01*
X76692897Y-37958008D01*
X76746772Y-37958008D01*
%TO.C,J1*%
X73072666Y-60920380D02*
X73072666Y-61634666D01*
X73025047Y-61777523D01*
X72929809Y-61872761D01*
X72786952Y-61920380D01*
X72691714Y-61920380D01*
X74072666Y-61920380D02*
X73501238Y-61920380D01*
X73786952Y-61920380D02*
X73786952Y-60920380D01*
X73691714Y-61063238D01*
X73596476Y-61158476D01*
X73501238Y-61206095D01*
D11*
%TO.C,R3*%
X77403333Y-54991942D02*
X77270000Y-54801466D01*
X77174761Y-54991942D02*
X77174761Y-54591942D01*
X77327142Y-54591942D01*
X77365238Y-54610990D01*
X77384285Y-54630037D01*
X77403333Y-54668132D01*
X77403333Y-54725275D01*
X77384285Y-54763370D01*
X77365238Y-54782418D01*
X77327142Y-54801466D01*
X77174761Y-54801466D01*
X77536666Y-54591942D02*
X77784285Y-54591942D01*
X77650952Y-54744323D01*
X77708095Y-54744323D01*
X77746190Y-54763370D01*
X77765238Y-54782418D01*
X77784285Y-54820513D01*
X77784285Y-54915751D01*
X77765238Y-54953847D01*
X77746190Y-54972894D01*
X77708095Y-54991942D01*
X77593809Y-54991942D01*
X77555714Y-54972894D01*
X77536666Y-54953847D01*
D12*
%TO.C,TP3*%
X88052316Y-62151965D02*
X88052316Y-61994727D01*
X88149078Y-62079394D01*
X88149078Y-62043108D01*
X88161173Y-62018918D01*
X88173269Y-62006823D01*
X88197459Y-61994727D01*
X88257935Y-61994727D01*
X88282126Y-62006823D01*
X88294221Y-62018918D01*
X88306316Y-62043108D01*
X88306316Y-62115680D01*
X88294221Y-62139870D01*
X88282126Y-62151965D01*
X88136983Y-61910061D02*
X88306316Y-61849585D01*
X88136983Y-61789108D01*
X88052316Y-61716537D02*
X88052316Y-61559299D01*
X88149078Y-61643965D01*
X88149078Y-61607680D01*
X88161173Y-61583489D01*
X88173269Y-61571394D01*
X88197459Y-61559299D01*
X88257935Y-61559299D01*
X88282126Y-61571394D01*
X88294221Y-61583489D01*
X88306316Y-61607680D01*
X88306316Y-61680251D01*
X88294221Y-61704442D01*
X88282126Y-61716537D01*
%TO.C,TP1*%
X80378904Y-63106904D02*
X80257952Y-63191571D01*
X80378904Y-63252047D02*
X80124904Y-63252047D01*
X80124904Y-63155285D01*
X80137000Y-63131095D01*
X80149095Y-63119000D01*
X80173285Y-63106904D01*
X80209571Y-63106904D01*
X80233761Y-63119000D01*
X80245857Y-63131095D01*
X80257952Y-63155285D01*
X80257952Y-63252047D01*
X80245857Y-62998047D02*
X80245857Y-62913380D01*
X80378904Y-62877095D02*
X80378904Y-62998047D01*
X80124904Y-62998047D01*
X80124904Y-62877095D01*
X80366809Y-62780333D02*
X80378904Y-62744047D01*
X80378904Y-62683571D01*
X80366809Y-62659380D01*
X80354714Y-62647285D01*
X80330523Y-62635190D01*
X80306333Y-62635190D01*
X80282142Y-62647285D01*
X80270047Y-62659380D01*
X80257952Y-62683571D01*
X80245857Y-62731952D01*
X80233761Y-62756142D01*
X80221666Y-62768238D01*
X80197476Y-62780333D01*
X80173285Y-62780333D01*
X80149095Y-62768238D01*
X80137000Y-62756142D01*
X80124904Y-62731952D01*
X80124904Y-62671476D01*
X80137000Y-62635190D01*
X80245857Y-62526333D02*
X80245857Y-62441666D01*
X80378904Y-62405380D02*
X80378904Y-62526333D01*
X80124904Y-62526333D01*
X80124904Y-62405380D01*
X80124904Y-62332809D02*
X80124904Y-62187666D01*
X80378904Y-62260238D02*
X80124904Y-62260238D01*
%TO.C,D3*%
X82296832Y-31755056D02*
X82296832Y-31876008D01*
X82042832Y-31876008D01*
X82163785Y-31670389D02*
X82163785Y-31585722D01*
X82296832Y-31549437D02*
X82296832Y-31670389D01*
X82042832Y-31670389D01*
X82042832Y-31549437D01*
X82296832Y-31440580D02*
X82042832Y-31440580D01*
X82042832Y-31380103D01*
X82054928Y-31343818D01*
X82079118Y-31319627D01*
X82103308Y-31307532D01*
X82151689Y-31295437D01*
X82187975Y-31295437D01*
X82236356Y-31307532D01*
X82260547Y-31319627D01*
X82284737Y-31343818D01*
X82296832Y-31380103D01*
X82296832Y-31440580D01*
X82321023Y-31247056D02*
X82321023Y-31053532D01*
X82272642Y-30847913D02*
X82284737Y-30860008D01*
X82296832Y-30896294D01*
X82296832Y-30920484D01*
X82284737Y-30956770D01*
X82260547Y-30980961D01*
X82236356Y-30993056D01*
X82187975Y-31005151D01*
X82151689Y-31005151D01*
X82103308Y-30993056D01*
X82079118Y-30980961D01*
X82054928Y-30956770D01*
X82042832Y-30920484D01*
X82042832Y-30896294D01*
X82054928Y-30860008D01*
X82067023Y-30847913D01*
X82296832Y-30739056D02*
X82042832Y-30739056D01*
X82163785Y-30739056D02*
X82163785Y-30593913D01*
X82296832Y-30593913D02*
X82042832Y-30593913D01*
X82296832Y-30327818D02*
X82175880Y-30412484D01*
X82296832Y-30472961D02*
X82042832Y-30472961D01*
X82042832Y-30376199D01*
X82054928Y-30352008D01*
X82067023Y-30339913D01*
X82091213Y-30327818D01*
X82127499Y-30327818D01*
X82151689Y-30339913D01*
X82163785Y-30352008D01*
X82175880Y-30376199D01*
X82175880Y-30472961D01*
X82054928Y-30085913D02*
X82042832Y-30110103D01*
X82042832Y-30146389D01*
X82054928Y-30182675D01*
X82079118Y-30206865D01*
X82103308Y-30218961D01*
X82151689Y-30231056D01*
X82187975Y-30231056D01*
X82236356Y-30218961D01*
X82260547Y-30206865D01*
X82284737Y-30182675D01*
X82296832Y-30146389D01*
X82296832Y-30122199D01*
X82284737Y-30085913D01*
X82272642Y-30073818D01*
X82187975Y-30073818D01*
X82187975Y-30122199D01*
D13*
%TO.C,Y1*%
X75740380Y-47166809D02*
X76054857Y-47166809D01*
X75885523Y-47360333D01*
X75958095Y-47360333D01*
X76006476Y-47384523D01*
X76030666Y-47408714D01*
X76054857Y-47457095D01*
X76054857Y-47578047D01*
X76030666Y-47626428D01*
X76006476Y-47650619D01*
X75958095Y-47674809D01*
X75812952Y-47674809D01*
X75764571Y-47650619D01*
X75740380Y-47626428D01*
X76248380Y-47215190D02*
X76272571Y-47191000D01*
X76320952Y-47166809D01*
X76441904Y-47166809D01*
X76490285Y-47191000D01*
X76514476Y-47215190D01*
X76538666Y-47263571D01*
X76538666Y-47311952D01*
X76514476Y-47384523D01*
X76224190Y-47674809D01*
X76538666Y-47674809D01*
X76756380Y-47626428D02*
X76780571Y-47650619D01*
X76756380Y-47674809D01*
X76732190Y-47650619D01*
X76756380Y-47626428D01*
X76756380Y-47674809D01*
X76949904Y-47166809D02*
X77288571Y-47166809D01*
X77070857Y-47674809D01*
X77699809Y-47166809D02*
X77603047Y-47166809D01*
X77554666Y-47191000D01*
X77530476Y-47215190D01*
X77482095Y-47287761D01*
X77457904Y-47384523D01*
X77457904Y-47578047D01*
X77482095Y-47626428D01*
X77506285Y-47650619D01*
X77554666Y-47674809D01*
X77651428Y-47674809D01*
X77699809Y-47650619D01*
X77724000Y-47626428D01*
X77748190Y-47578047D01*
X77748190Y-47457095D01*
X77724000Y-47408714D01*
X77699809Y-47384523D01*
X77651428Y-47360333D01*
X77554666Y-47360333D01*
X77506285Y-47384523D01*
X77482095Y-47408714D01*
X77457904Y-47457095D01*
X78038476Y-47384523D02*
X77990095Y-47360333D01*
X77965904Y-47336142D01*
X77941714Y-47287761D01*
X77941714Y-47263571D01*
X77965904Y-47215190D01*
X77990095Y-47191000D01*
X78038476Y-47166809D01*
X78135238Y-47166809D01*
X78183619Y-47191000D01*
X78207809Y-47215190D01*
X78232000Y-47263571D01*
X78232000Y-47287761D01*
X78207809Y-47336142D01*
X78183619Y-47360333D01*
X78135238Y-47384523D01*
X78038476Y-47384523D01*
X77990095Y-47408714D01*
X77965904Y-47432904D01*
X77941714Y-47481285D01*
X77941714Y-47578047D01*
X77965904Y-47626428D01*
X77990095Y-47650619D01*
X78038476Y-47674809D01*
X78135238Y-47674809D01*
X78183619Y-47650619D01*
X78207809Y-47626428D01*
X78232000Y-47578047D01*
X78232000Y-47481285D01*
X78207809Y-47432904D01*
X78183619Y-47408714D01*
X78135238Y-47384523D01*
X78449714Y-47674809D02*
X78449714Y-47166809D01*
X78449714Y-47408714D02*
X78740000Y-47408714D01*
X78740000Y-47674809D02*
X78740000Y-47166809D01*
X78933523Y-47336142D02*
X79199619Y-47336142D01*
X78933523Y-47674809D01*
X79199619Y-47674809D01*
D14*
X77107142Y-48950847D02*
X77107142Y-49313704D01*
X76853142Y-48551704D02*
X77107142Y-48950847D01*
X77361142Y-48551704D01*
X78014285Y-49313704D02*
X77578857Y-49313704D01*
X77796571Y-49313704D02*
X77796571Y-48551704D01*
X77724000Y-48660561D01*
X77651428Y-48733132D01*
X77578857Y-48769418D01*
D12*
%TO.C,D4*%
X85558840Y-35026511D02*
X85437888Y-35026511D01*
X85437888Y-34772511D01*
X85643507Y-34893464D02*
X85728173Y-34893464D01*
X85764459Y-35026511D02*
X85643507Y-35026511D01*
X85643507Y-34772511D01*
X85764459Y-34772511D01*
X85873316Y-35026511D02*
X85873316Y-34772511D01*
X85933792Y-34772511D01*
X85970078Y-34784607D01*
X85994269Y-34808797D01*
X86006364Y-34832987D01*
X86018459Y-34881368D01*
X86018459Y-34917654D01*
X86006364Y-34966035D01*
X85994269Y-34990226D01*
X85970078Y-35014416D01*
X85933792Y-35026511D01*
X85873316Y-35026511D01*
X86066840Y-35050702D02*
X86260364Y-35050702D01*
X86405507Y-34893464D02*
X86320840Y-34893464D01*
X86320840Y-35026511D02*
X86320840Y-34772511D01*
X86441792Y-34772511D01*
X86538554Y-34772511D02*
X86538554Y-34978130D01*
X86550650Y-35002321D01*
X86562745Y-35014416D01*
X86586935Y-35026511D01*
X86635316Y-35026511D01*
X86659507Y-35014416D01*
X86671602Y-35002321D01*
X86683697Y-34978130D01*
X86683697Y-34772511D01*
X86925602Y-35026511D02*
X86804650Y-35026511D01*
X86804650Y-34772511D01*
X87131221Y-35026511D02*
X87010269Y-35026511D01*
X87010269Y-34772511D01*
%TO.C,JP1*%
X56248904Y-62678952D02*
X55994904Y-62678952D01*
X56176333Y-62594285D01*
X55994904Y-62509619D01*
X56248904Y-62509619D01*
X56248904Y-62388666D02*
X55994904Y-62388666D01*
X55994904Y-62291904D01*
X56007000Y-62267714D01*
X56019095Y-62255619D01*
X56043285Y-62243523D01*
X56079571Y-62243523D01*
X56103761Y-62255619D01*
X56115857Y-62267714D01*
X56127952Y-62291904D01*
X56127952Y-62388666D01*
X55994904Y-62134666D02*
X56200523Y-62134666D01*
X56224714Y-62122571D01*
X56236809Y-62110476D01*
X56248904Y-62086285D01*
X56248904Y-62037904D01*
X56236809Y-62013714D01*
X56224714Y-62001619D01*
X56200523Y-61989523D01*
X55994904Y-61989523D01*
X55982809Y-61687142D02*
X56309380Y-61904857D01*
X56248904Y-61602476D02*
X55994904Y-61602476D01*
X56224714Y-61336380D02*
X56236809Y-61348476D01*
X56248904Y-61384761D01*
X56248904Y-61408952D01*
X56236809Y-61445238D01*
X56212619Y-61469428D01*
X56188428Y-61481523D01*
X56140047Y-61493619D01*
X56103761Y-61493619D01*
X56055380Y-61481523D01*
X56031190Y-61469428D01*
X56007000Y-61445238D01*
X55994904Y-61408952D01*
X55994904Y-61384761D01*
X56007000Y-61348476D01*
X56019095Y-61336380D01*
X56248904Y-61227523D02*
X55994904Y-61227523D01*
X56176333Y-61142857D01*
X55994904Y-61058190D01*
X56248904Y-61058190D01*
X56273095Y-60997714D02*
X56273095Y-60804190D01*
X56176333Y-60755809D02*
X56176333Y-60634857D01*
X56248904Y-60780000D02*
X55994904Y-60695333D01*
X56248904Y-60610666D01*
X56248904Y-60526000D02*
X55994904Y-60526000D01*
X55994904Y-60465523D01*
X56007000Y-60429238D01*
X56031190Y-60405047D01*
X56055380Y-60392952D01*
X56103761Y-60380857D01*
X56140047Y-60380857D01*
X56188428Y-60392952D01*
X56212619Y-60405047D01*
X56236809Y-60429238D01*
X56248904Y-60465523D01*
X56248904Y-60526000D01*
X55994904Y-60223619D02*
X55994904Y-60199428D01*
X56007000Y-60175238D01*
X56019095Y-60163142D01*
X56043285Y-60151047D01*
X56091666Y-60138952D01*
X56152142Y-60138952D01*
X56200523Y-60151047D01*
X56224714Y-60163142D01*
X56236809Y-60175238D01*
X56248904Y-60199428D01*
X56248904Y-60223619D01*
X56236809Y-60247809D01*
X56224714Y-60259904D01*
X56200523Y-60272000D01*
X56152142Y-60284095D01*
X56091666Y-60284095D01*
X56043285Y-60272000D01*
X56019095Y-60259904D01*
X56007000Y-60247809D01*
X55994904Y-60223619D01*
D15*
%TO.C,U1*%
X61387342Y-53423071D02*
X61387342Y-54348357D01*
X61441771Y-54457214D01*
X61496200Y-54511642D01*
X61605057Y-54566071D01*
X61822771Y-54566071D01*
X61931628Y-54511642D01*
X61986057Y-54457214D01*
X62040485Y-54348357D01*
X62040485Y-53423071D01*
X63183485Y-54566071D02*
X62530342Y-54566071D01*
X62856914Y-54566071D02*
X62856914Y-53423071D01*
X62748057Y-53586357D01*
X62639200Y-53695214D01*
X62530342Y-53749642D01*
D13*
%TO.C,TP2*%
X96229714Y-42171466D02*
X96253904Y-42098894D01*
X96278095Y-42074704D01*
X96326476Y-42050513D01*
X96399047Y-42050513D01*
X96447428Y-42074704D01*
X96471619Y-42098894D01*
X96495809Y-42147275D01*
X96495809Y-42340799D01*
X95987809Y-42340799D01*
X95987809Y-42171466D01*
X96012000Y-42123085D01*
X96036190Y-42098894D01*
X96084571Y-42074704D01*
X96132952Y-42074704D01*
X96181333Y-42098894D01*
X96205523Y-42123085D01*
X96229714Y-42171466D01*
X96229714Y-42340799D01*
X96350666Y-41856990D02*
X96350666Y-41615085D01*
X96495809Y-41905370D02*
X95987809Y-41736037D01*
X96495809Y-41566704D01*
X95987809Y-41469942D02*
X95987809Y-41179656D01*
X96495809Y-41324799D02*
X95987809Y-41324799D01*
X95987809Y-41082894D02*
X95987809Y-40792609D01*
X96495809Y-40937751D02*
X95987809Y-40937751D01*
D12*
%TO.C,JP3*%
X61766275Y-59237857D02*
X61512275Y-59237857D01*
X61693704Y-59153190D01*
X61512275Y-59068523D01*
X61766275Y-59068523D01*
X61766275Y-58947571D02*
X61512275Y-58947571D01*
X61512275Y-58850809D01*
X61524371Y-58826619D01*
X61536466Y-58814523D01*
X61560656Y-58802428D01*
X61596942Y-58802428D01*
X61621132Y-58814523D01*
X61633228Y-58826619D01*
X61645323Y-58850809D01*
X61645323Y-58947571D01*
X61512275Y-58693571D02*
X61717894Y-58693571D01*
X61742085Y-58681476D01*
X61754180Y-58669380D01*
X61766275Y-58645190D01*
X61766275Y-58596809D01*
X61754180Y-58572619D01*
X61742085Y-58560523D01*
X61717894Y-58548428D01*
X61512275Y-58548428D01*
X61500180Y-58246047D02*
X61826751Y-58463761D01*
X61633228Y-58076714D02*
X61645323Y-58040428D01*
X61657418Y-58028333D01*
X61681609Y-58016238D01*
X61717894Y-58016238D01*
X61742085Y-58028333D01*
X61754180Y-58040428D01*
X61766275Y-58064619D01*
X61766275Y-58161380D01*
X61512275Y-58161380D01*
X61512275Y-58076714D01*
X61524371Y-58052523D01*
X61536466Y-58040428D01*
X61560656Y-58028333D01*
X61584847Y-58028333D01*
X61609037Y-58040428D01*
X61621132Y-58052523D01*
X61633228Y-58076714D01*
X61633228Y-58161380D01*
X61766275Y-57907380D02*
X61512275Y-57907380D01*
X61766275Y-57762238D01*
X61512275Y-57762238D01*
X61512275Y-57592904D02*
X61512275Y-57544523D01*
X61524371Y-57520333D01*
X61548561Y-57496142D01*
X61596942Y-57484047D01*
X61681609Y-57484047D01*
X61729990Y-57496142D01*
X61754180Y-57520333D01*
X61766275Y-57544523D01*
X61766275Y-57592904D01*
X61754180Y-57617095D01*
X61729990Y-57641285D01*
X61681609Y-57653380D01*
X61596942Y-57653380D01*
X61548561Y-57641285D01*
X61524371Y-57617095D01*
X61512275Y-57592904D01*
X61790466Y-57435666D02*
X61790466Y-57242142D01*
X61766275Y-57181666D02*
X61512275Y-57181666D01*
X61766275Y-57060714D02*
X61512275Y-57060714D01*
X61766275Y-56915571D01*
X61512275Y-56915571D01*
X61512275Y-56830904D02*
X61512275Y-56685761D01*
X61766275Y-56758333D02*
X61512275Y-56758333D01*
X61766275Y-56468047D02*
X61766275Y-56613190D01*
X61766275Y-56540619D02*
X61512275Y-56540619D01*
X61548561Y-56564809D01*
X61572751Y-56589000D01*
X61584847Y-56613190D01*
%TO.C,JP2*%
X61754785Y-62900900D02*
X61526185Y-62900900D01*
X61754785Y-62792042D02*
X61526185Y-62792042D01*
X61754785Y-62661414D01*
X61526185Y-62661414D01*
X61526185Y-62585214D02*
X61526185Y-62454585D01*
X61754785Y-62519900D02*
X61526185Y-62519900D01*
X61776556Y-62432814D02*
X61776556Y-62258642D01*
X61754785Y-62204214D02*
X61526185Y-62204214D01*
X61733013Y-61964728D02*
X61743899Y-61975614D01*
X61754785Y-62008271D01*
X61754785Y-62030042D01*
X61743899Y-62062700D01*
X61722128Y-62084471D01*
X61700356Y-62095357D01*
X61656813Y-62106242D01*
X61624156Y-62106242D01*
X61580613Y-62095357D01*
X61558842Y-62084471D01*
X61537071Y-62062700D01*
X61526185Y-62030042D01*
X61526185Y-62008271D01*
X61537071Y-61975614D01*
X61547956Y-61964728D01*
X61754785Y-61866757D02*
X61526185Y-61866757D01*
X61689471Y-61790557D01*
X61526185Y-61714357D01*
X61754785Y-61714357D01*
X61515299Y-61442214D02*
X61809213Y-61638157D01*
X61689471Y-61376900D02*
X61689471Y-61268042D01*
X61754785Y-61398671D02*
X61526185Y-61322471D01*
X61754785Y-61246271D01*
X61754785Y-61170071D02*
X61526185Y-61170071D01*
X61526185Y-61115642D01*
X61537071Y-61082985D01*
X61558842Y-61061214D01*
X61580613Y-61050328D01*
X61624156Y-61039442D01*
X61656813Y-61039442D01*
X61700356Y-61050328D01*
X61722128Y-61061214D01*
X61743899Y-61082985D01*
X61754785Y-61115642D01*
X61754785Y-61170071D01*
X61526185Y-60897928D02*
X61526185Y-60854385D01*
X61537071Y-60832614D01*
X61558842Y-60810842D01*
X61602385Y-60799957D01*
X61678585Y-60799957D01*
X61722128Y-60810842D01*
X61743899Y-60832614D01*
X61754785Y-60854385D01*
X61754785Y-60897928D01*
X61743899Y-60919700D01*
X61722128Y-60941471D01*
X61678585Y-60952357D01*
X61602385Y-60952357D01*
X61558842Y-60941471D01*
X61537071Y-60919700D01*
X61526185Y-60897928D01*
X61776556Y-60756414D02*
X61776556Y-60582242D01*
X61635042Y-60451614D02*
X61645928Y-60418957D01*
X61656813Y-60408071D01*
X61678585Y-60397185D01*
X61711242Y-60397185D01*
X61733013Y-60408071D01*
X61743899Y-60418957D01*
X61754785Y-60440728D01*
X61754785Y-60527814D01*
X61526185Y-60527814D01*
X61526185Y-60451614D01*
X61537071Y-60429842D01*
X61547956Y-60418957D01*
X61569728Y-60408071D01*
X61591499Y-60408071D01*
X61613271Y-60418957D01*
X61624156Y-60429842D01*
X61635042Y-60451614D01*
X61635042Y-60527814D01*
X61754785Y-60299214D02*
X61526185Y-60299214D01*
X61754785Y-60168585D01*
X61526185Y-60168585D01*
X61526185Y-60016185D02*
X61526185Y-59972642D01*
X61537071Y-59950871D01*
X61558842Y-59929100D01*
X61602385Y-59918214D01*
X61678585Y-59918214D01*
X61722128Y-59929100D01*
X61743899Y-59950871D01*
X61754785Y-59972642D01*
X61754785Y-60016185D01*
X61743899Y-60037957D01*
X61722128Y-60059728D01*
X61678585Y-60070614D01*
X61602385Y-60070614D01*
X61558842Y-60059728D01*
X61537071Y-60037957D01*
X61526185Y-60016185D01*
D11*
%TO.C,C6*%
X76307142Y-52067000D02*
X76321428Y-52081285D01*
X76335714Y-52124142D01*
X76335714Y-52152714D01*
X76321428Y-52195571D01*
X76292857Y-52224142D01*
X76264285Y-52238428D01*
X76207142Y-52252714D01*
X76164285Y-52252714D01*
X76107142Y-52238428D01*
X76078571Y-52224142D01*
X76050000Y-52195571D01*
X76035714Y-52152714D01*
X76035714Y-52124142D01*
X76050000Y-52081285D01*
X76064285Y-52067000D01*
X76035714Y-51809857D02*
X76035714Y-51867000D01*
X76050000Y-51895571D01*
X76064285Y-51909857D01*
X76107142Y-51938428D01*
X76164285Y-51952714D01*
X76278571Y-51952714D01*
X76307142Y-51938428D01*
X76321428Y-51924142D01*
X76335714Y-51895571D01*
X76335714Y-51838428D01*
X76321428Y-51809857D01*
X76307142Y-51795571D01*
X76278571Y-51781285D01*
X76207142Y-51781285D01*
X76178571Y-51795571D01*
X76164285Y-51809857D01*
X76150000Y-51838428D01*
X76150000Y-51895571D01*
X76164285Y-51924142D01*
X76178571Y-51938428D01*
X76207142Y-51952714D01*
D10*
%TO.C,L1*%
X84526380Y-57517666D02*
X84526380Y-57993857D01*
X83526380Y-57993857D01*
X84526380Y-56660523D02*
X84526380Y-57231952D01*
X84526380Y-56946238D02*
X83526380Y-56946238D01*
X83669238Y-57041476D01*
X83764476Y-57136714D01*
X83812095Y-57231952D01*
D11*
%TO.C,C8*%
X78847142Y-52067000D02*
X78861428Y-52081285D01*
X78875714Y-52124142D01*
X78875714Y-52152714D01*
X78861428Y-52195571D01*
X78832857Y-52224142D01*
X78804285Y-52238428D01*
X78747142Y-52252714D01*
X78704285Y-52252714D01*
X78647142Y-52238428D01*
X78618571Y-52224142D01*
X78590000Y-52195571D01*
X78575714Y-52152714D01*
X78575714Y-52124142D01*
X78590000Y-52081285D01*
X78604285Y-52067000D01*
X78704285Y-51895571D02*
X78690000Y-51924142D01*
X78675714Y-51938428D01*
X78647142Y-51952714D01*
X78632857Y-51952714D01*
X78604285Y-51938428D01*
X78590000Y-51924142D01*
X78575714Y-51895571D01*
X78575714Y-51838428D01*
X78590000Y-51809857D01*
X78604285Y-51795571D01*
X78632857Y-51781285D01*
X78647142Y-51781285D01*
X78675714Y-51795571D01*
X78690000Y-51809857D01*
X78704285Y-51838428D01*
X78704285Y-51895571D01*
X78718571Y-51924142D01*
X78732857Y-51938428D01*
X78761428Y-51952714D01*
X78818571Y-51952714D01*
X78847142Y-51938428D01*
X78861428Y-51924142D01*
X78875714Y-51895571D01*
X78875714Y-51838428D01*
X78861428Y-51809857D01*
X78847142Y-51795571D01*
X78818571Y-51781285D01*
X78761428Y-51781285D01*
X78732857Y-51795571D01*
X78718571Y-51809857D01*
X78704285Y-51838428D01*
D16*
%TO.C,J1*%
X67346008Y-64727000D02*
X79466008Y-64727000D01*
X67346008Y-56907000D02*
X67346008Y-64727000D01*
X68106008Y-62467000D02*
X69106008Y-62467000D01*
X68266008Y-58507000D02*
X68266008Y-56907000D01*
X68606008Y-62467000D02*
X68606008Y-64727000D01*
X69106008Y-62467000D02*
X69106008Y-60867000D01*
X78706008Y-62467000D02*
X77706008Y-62467000D01*
X79466008Y-58507000D02*
X78546008Y-58507000D01*
X79466008Y-56907000D02*
X78546008Y-56907000D01*
X78546008Y-58507000D02*
X78266008Y-58507000D01*
X69906008Y-64727000D02*
X69906008Y-60367000D01*
X77706008Y-62467000D02*
X77706008Y-60867000D01*
X78546008Y-56907000D02*
X78546008Y-58507000D01*
X69106008Y-62467000D02*
X69106008Y-64727000D01*
X68266008Y-56907000D02*
X67346008Y-56907000D01*
X68546008Y-58507000D02*
X68546008Y-57292000D01*
X77706008Y-60867000D02*
X78706008Y-60867000D01*
X67346008Y-58507000D02*
X68266008Y-58507000D01*
X79466008Y-64727000D02*
X79466008Y-56907000D01*
X68546008Y-58507000D02*
X68266008Y-58507000D01*
X78706008Y-60867000D02*
X78706008Y-62467000D01*
X69106008Y-60867000D02*
X68106008Y-60867000D01*
X69906008Y-60367000D02*
X76906008Y-60367000D01*
X76906008Y-60367000D02*
X76906008Y-64727000D01*
X68106008Y-60867000D02*
X68106008Y-62467000D01*
%TO.C,R8*%
X89678742Y-54063500D02*
X90153258Y-54063500D01*
X89678742Y-53018500D02*
X90153258Y-53018500D01*
%TO.C,C11*%
X84468580Y-62429000D02*
X84187420Y-62429000D01*
X84468580Y-63449000D02*
X84187420Y-63449000D01*
%TO.C,R3*%
X77232742Y-54288500D02*
X77707258Y-54288500D01*
X77232742Y-55333500D02*
X77707258Y-55333500D01*
%TO.C,C3*%
X72998420Y-52269000D02*
X73279580Y-52269000D01*
X72998420Y-53289000D02*
X73279580Y-53289000D01*
%TO.C,TP3*%
X87822000Y-62685000D02*
G75*
G03*
X87822000Y-62685000I-700000J0D01*
G01*
%TO.C,R5*%
X83326500Y-33712258D02*
X83326500Y-33237742D01*
X82281500Y-33712258D02*
X82281500Y-33237742D01*
%TO.C,D5*%
X84366000Y-42646000D02*
X82081000Y-42646000D01*
X82081000Y-42646000D02*
X82081000Y-44116000D01*
X82081000Y-44116000D02*
X84366000Y-44116000D01*
%TO.C,TP1*%
X82234000Y-62738000D02*
G75*
G03*
X82234000Y-62738000I-700000J0D01*
G01*
%TO.C,D3*%
X82496000Y-31670000D02*
X84781000Y-31670000D01*
X84781000Y-30200000D02*
X82496000Y-30200000D01*
X82496000Y-30200000D02*
X82496000Y-31670000D01*
%TO.C,R7*%
X81804742Y-49798500D02*
X82279258Y-49798500D01*
X81804742Y-48753500D02*
X82279258Y-48753500D01*
%TO.C,Q1*%
X83784000Y-48969000D02*
X83784000Y-49619000D01*
X83784000Y-48969000D02*
X83784000Y-48319000D01*
X86904000Y-48969000D02*
X86904000Y-47294000D01*
X86904000Y-48969000D02*
X86904000Y-49619000D01*
%TO.C,D2*%
X82332000Y-46667000D02*
X86232000Y-46667000D01*
X82332000Y-44667000D02*
X86232000Y-44667000D01*
X82332000Y-44667000D02*
X82332000Y-46667000D01*
%TO.C,R4*%
X85581258Y-52285500D02*
X85106742Y-52285500D01*
X85581258Y-51240500D02*
X85106742Y-51240500D01*
%TO.C,C9*%
X82182580Y-50491000D02*
X81901420Y-50491000D01*
X82182580Y-51511000D02*
X81901420Y-51511000D01*
%TO.C,C5*%
X70360000Y-54416420D02*
X70360000Y-54697580D01*
X69340000Y-54416420D02*
X69340000Y-54697580D01*
%TO.C,Y1*%
X78145000Y-48094000D02*
X76795000Y-48094000D01*
X78145000Y-49844000D02*
X76795000Y-49844000D01*
%TO.C,U4*%
X88186622Y-58265365D02*
X88186622Y-57465365D01*
X91306622Y-58265365D02*
X91306622Y-59065365D01*
X91306622Y-58265365D02*
X91306622Y-57465365D01*
X88186622Y-58265365D02*
X88186622Y-60065365D01*
%TO.C,R9*%
X89678742Y-54796500D02*
X90153258Y-54796500D01*
X89678742Y-55841500D02*
X90153258Y-55841500D01*
%TO.C,C1*%
X73011420Y-54047000D02*
X73292580Y-54047000D01*
X73011420Y-55067000D02*
X73292580Y-55067000D01*
%TO.C,C10*%
X88359000Y-33588580D02*
X88359000Y-33307420D01*
X87339000Y-33588580D02*
X87339000Y-33307420D01*
%TO.C,D4*%
X87002000Y-34249500D02*
X87002000Y-31964500D01*
X87002000Y-31964500D02*
X85532000Y-31964500D01*
X85532000Y-31964500D02*
X85532000Y-34249500D01*
%TO.C,D7*%
X89152173Y-36211489D02*
X89152173Y-38061489D01*
X87952173Y-36211489D02*
X87952173Y-38061489D01*
X87952173Y-38061489D02*
X89152173Y-38061489D01*
%TO.C,D6*%
X88046000Y-40324000D02*
X88046000Y-38474000D01*
X89246000Y-38474000D02*
X88046000Y-38474000D01*
X89246000Y-40324000D02*
X89246000Y-38474000D01*
%TO.C,D8*%
X89952000Y-44635000D02*
X93852000Y-44635000D01*
X89952000Y-42635000D02*
X93852000Y-42635000D01*
X89952000Y-42635000D02*
X89952000Y-44635000D01*
D10*
%TO.C,SW1*%
X96566004Y-62412986D02*
X96566004Y-60212986D01*
X91966004Y-62412986D02*
X91966004Y-53812986D01*
X96566004Y-56112986D02*
X96566004Y-53812986D01*
D16*
%TO.C,U2*%
X80918000Y-46754007D02*
X80118000Y-46754007D01*
X80768000Y-46604007D02*
X67568000Y-46604007D01*
X80768000Y-30104007D02*
X80768000Y-46604007D01*
X68268000Y-29954007D02*
X67418000Y-29954007D01*
X80918000Y-45954007D02*
X80918000Y-46754007D01*
X67418000Y-46754007D02*
X68218000Y-46754007D01*
X80168000Y-29954007D02*
X80918000Y-29954007D01*
X80918000Y-29954007D02*
X80918000Y-30604007D01*
X67568000Y-35404007D02*
X80768000Y-35404007D01*
X67568000Y-46604007D02*
X67568000Y-30104007D01*
X67568000Y-30104007D02*
X80768000Y-30104007D01*
X67418000Y-45954007D02*
X67418000Y-46754007D01*
%TO.C,JP1*%
X56878000Y-60415000D02*
X60978000Y-60415000D01*
X56878000Y-62415000D02*
X56878000Y-60415000D01*
X57328000Y-62915000D02*
X57928000Y-62915000D01*
X57628000Y-62615000D02*
X57328000Y-62915000D01*
X60978000Y-60415000D02*
X60978000Y-62415000D01*
X57628000Y-62615000D02*
X57928000Y-62915000D01*
X60978000Y-62415000D02*
X56878000Y-62415000D01*
%TO.C,J3*%
X98273000Y-39832990D02*
X96568000Y-39832990D01*
X94558000Y-30672990D02*
X92638000Y-30672990D01*
X92638000Y-39832990D02*
X94558000Y-39832990D01*
X98273000Y-30672990D02*
X98273000Y-39832990D01*
X96568000Y-30672990D02*
X98273000Y-30672990D01*
D17*
%TO.C,U1*%
X50687460Y-55837472D02*
X50687460Y-30437472D01*
X63641460Y-55837472D02*
X50687460Y-55837472D01*
X66181460Y-30437472D02*
X66181460Y-55837472D01*
X50687460Y-30437472D02*
X66181460Y-30437472D01*
X66181460Y-55837472D02*
X63641460Y-55837472D01*
D18*
X54981460Y-33231472D02*
G75*
G03*
X54981460Y-33231472I-1500000J0D01*
G01*
X54981460Y-53043472D02*
G75*
G03*
X54981460Y-53043472I-1500000J0D01*
G01*
D16*
%TO.C,TP2*%
X96458000Y-43635000D02*
G75*
G03*
X96458000Y-43635000I-700000J0D01*
G01*
%TO.C,C13*%
X89762420Y-63195000D02*
X90043580Y-63195000D01*
X89762420Y-62175000D02*
X90043580Y-62175000D01*
%TO.C,D9*%
X94871999Y-41003000D02*
X93021999Y-41003000D01*
X93021999Y-41003000D02*
X93021999Y-42203000D01*
X94871999Y-42203000D02*
X93021999Y-42203000D01*
%TO.C,R1*%
X74436500Y-49005258D02*
X74436500Y-48530742D01*
X73391500Y-49005258D02*
X73391500Y-48530742D01*
%TO.C,U3*%
X87396000Y-38808990D02*
X87396000Y-40758990D01*
X87396000Y-38808990D02*
X87396000Y-36858990D01*
X82276000Y-38808990D02*
X82276000Y-36858990D01*
X82276000Y-38808990D02*
X82276000Y-42258990D01*
%TO.C,R10*%
X87359258Y-31457500D02*
X86884742Y-31457500D01*
X87359258Y-30412500D02*
X86884742Y-30412500D01*
%TO.C,JP3*%
X62212000Y-56859000D02*
X66312000Y-56859000D01*
X66312000Y-58859000D02*
X62212000Y-58859000D01*
X62962000Y-59059000D02*
X62662000Y-59359000D01*
X62662000Y-59359000D02*
X63262000Y-59359000D01*
X62962000Y-59059000D02*
X63262000Y-59359000D01*
X62212000Y-58859000D02*
X62212000Y-56859000D01*
X66312000Y-56859000D02*
X66312000Y-58859000D01*
%TO.C,R6*%
X85265500Y-33712258D02*
X85265500Y-33237742D01*
X84220500Y-33712258D02*
X84220500Y-33237742D01*
%TO.C,C12*%
X89762420Y-61671000D02*
X90043580Y-61671000D01*
X89762420Y-60651000D02*
X90043580Y-60651000D01*
%TO.C,JP2*%
X62962000Y-62615000D02*
X62662000Y-62915000D01*
X62212000Y-60415000D02*
X66312000Y-60415000D01*
X62962000Y-62615000D02*
X63262000Y-62915000D01*
X62662000Y-62915000D02*
X63262000Y-62915000D01*
X66312000Y-62415000D02*
X62212000Y-62415000D01*
X66312000Y-60415000D02*
X66312000Y-62415000D01*
X62212000Y-62415000D02*
X62212000Y-60415000D01*
%TO.C,C4*%
X72998420Y-50491000D02*
X73279580Y-50491000D01*
X72998420Y-51511000D02*
X73279580Y-51511000D01*
%TO.C,C6*%
X76710000Y-52157580D02*
X76710000Y-51876420D01*
X75690000Y-52157580D02*
X75690000Y-51876420D01*
%TO.C,C2*%
X71626000Y-48627420D02*
X71626000Y-48908580D01*
X72646000Y-48627420D02*
X72646000Y-48908580D01*
%TO.C,J2*%
X91490000Y-47161000D02*
X91490000Y-46161000D01*
X90990000Y-48961000D02*
X90990000Y-47961000D01*
X90990000Y-47961000D02*
X95350000Y-47961000D01*
X93090000Y-46161000D02*
X93090000Y-47161000D01*
X93090000Y-49761000D02*
X91490000Y-49761000D01*
X87530000Y-50601000D02*
X87530000Y-51521000D01*
X93090000Y-49761000D02*
X95350000Y-49761000D01*
X87530000Y-46321000D02*
X89130000Y-46321000D01*
X89130000Y-45401000D02*
X89130000Y-46321000D01*
X91490000Y-46161000D02*
X93090000Y-46161000D01*
X93090000Y-50261000D02*
X95350000Y-50261000D01*
X87530000Y-51521000D02*
X95350000Y-51521000D01*
X89130000Y-46321000D02*
X89130000Y-46601000D01*
X87530000Y-45401000D02*
X87530000Y-46321000D01*
X93090000Y-47161000D02*
X91490000Y-47161000D01*
X89130000Y-50601000D02*
X87530000Y-50601000D01*
X89130000Y-51521000D02*
X89130000Y-50601000D01*
X95350000Y-51521000D02*
X95350000Y-45401000D01*
X95350000Y-48961000D02*
X90990000Y-48961000D01*
X91490000Y-50761000D02*
X93090000Y-50761000D01*
X89130000Y-50321000D02*
X87915000Y-50321000D01*
X93090000Y-50761000D02*
X93090000Y-49761000D01*
X91490000Y-49761000D02*
X91490000Y-50761000D01*
X95350000Y-45401000D02*
X87530000Y-45401000D01*
X89130000Y-50321000D02*
X89130000Y-50601000D01*
%TO.C,R2*%
X86851258Y-43903500D02*
X86376742Y-43903500D01*
X86851258Y-42858500D02*
X86376742Y-42858500D01*
%TO.C,L1*%
X85474000Y-53651000D02*
X87774000Y-53651000D01*
X80374000Y-53651000D02*
X82674000Y-53651000D01*
X87774000Y-61051000D02*
X85474000Y-61051000D01*
X87774000Y-53651000D02*
X87774000Y-61051000D01*
X82674000Y-61051000D02*
X80374000Y-61051000D01*
X80374000Y-61051000D02*
X80374000Y-53651000D01*
%TO.C,C8*%
X78230000Y-52157580D02*
X78230000Y-51876420D01*
X79250000Y-52157580D02*
X79250000Y-51876420D01*
%TO.C,R11*%
X90948742Y-42125500D02*
X91423258Y-42125500D01*
X90948742Y-41080500D02*
X91423258Y-41080500D01*
%TO.C,C7*%
X88390000Y-42224420D02*
X88390000Y-42505580D01*
X89410000Y-42224420D02*
X89410000Y-42505580D01*
%TO.C,D1*%
X69254000Y-52647000D02*
X70954000Y-52647000D01*
X70954000Y-52647000D02*
X70954000Y-49497000D01*
X69254000Y-52647000D02*
X69254000Y-49497000D01*
%TD*%
M02*
