%TF.GenerationSoftware,KiCad,Pcbnew,(6.0.2)*%
%TF.CreationDate,2022-03-07T06:31:50-05:00*%
%TF.ProjectId,ferrous_slime,66657272-6f75-4735-9f73-6c696d652e6b,rev?*%
%TF.SameCoordinates,Original*%
%TF.FileFunction,Copper,L2,Bot*%
%TF.FilePolarity,Positive*%
%FSLAX46Y46*%
G04 Gerber Fmt 4.6, Leading zero omitted, Abs format (unit mm)*
G04 Created by KiCad (PCBNEW (6.0.2)) date 2022-03-07 06:31:50*
%MOMM*%
%LPD*%
G01*
G04 APERTURE LIST*
G04 Aperture macros list*
%AMRoundRect*
0 Rectangle with rounded corners*
0 $1 Rounding radius*
0 $2 $3 $4 $5 $6 $7 $8 $9 X,Y pos of 4 corners*
0 Add a 4 corners polygon primitive as box body*
4,1,4,$2,$3,$4,$5,$6,$7,$8,$9,$2,$3,0*
0 Add four circle primitives for the rounded corners*
1,1,$1+$1,$2,$3*
1,1,$1+$1,$4,$5*
1,1,$1+$1,$6,$7*
1,1,$1+$1,$8,$9*
0 Add four rect primitives between the rounded corners*
20,1,$1+$1,$2,$3,$4,$5,0*
20,1,$1+$1,$4,$5,$6,$7,0*
20,1,$1+$1,$6,$7,$8,$9,0*
20,1,$1+$1,$8,$9,$2,$3,0*%
G04 Aperture macros list end*
%TA.AperFunction,ComponentPad*%
%ADD10RoundRect,0.250000X-0.350000X-0.625000X0.350000X-0.625000X0.350000X0.625000X-0.350000X0.625000X0*%
%TD*%
%TA.AperFunction,ComponentPad*%
%ADD11O,1.200000X1.750000*%
%TD*%
%TA.AperFunction,ComponentPad*%
%ADD12O,3.500000X2.200000*%
%TD*%
%TA.AperFunction,ComponentPad*%
%ADD13R,2.500000X1.500000*%
%TD*%
%TA.AperFunction,ComponentPad*%
%ADD14O,2.500000X1.500000*%
%TD*%
%TA.AperFunction,ComponentPad*%
%ADD15O,1.600000X1.000000*%
%TD*%
%TA.AperFunction,ComponentPad*%
%ADD16O,2.100000X1.000000*%
%TD*%
%TA.AperFunction,ComponentPad*%
%ADD17C,1.651000*%
%TD*%
%TA.AperFunction,ComponentPad*%
%ADD18R,1.651000X1.651000*%
%TD*%
%TA.AperFunction,ComponentPad*%
%ADD19RoundRect,0.250000X0.625000X-0.350000X0.625000X0.350000X-0.625000X0.350000X-0.625000X-0.350000X0*%
%TD*%
%TA.AperFunction,ComponentPad*%
%ADD20O,1.750000X1.200000*%
%TD*%
%TA.AperFunction,ViaPad*%
%ADD21C,0.800000*%
%TD*%
%TA.AperFunction,ViaPad*%
%ADD22C,0.600000*%
%TD*%
%TA.AperFunction,Conductor*%
%ADD23C,0.400000*%
%TD*%
%TA.AperFunction,Conductor*%
%ADD24C,0.250000*%
%TD*%
%TA.AperFunction,Conductor*%
%ADD25C,0.200000*%
%TD*%
G04 APERTURE END LIST*
D10*
%TO.P,J1,1,Pin_1*%
%TO.N,IO10_SDA*%
X69406008Y-58367000D03*
D11*
%TO.P,J1,2,Pin_2*%
%TO.N,+3V3*%
X71406008Y-58367000D03*
%TO.P,J1,3,Pin_3*%
%TO.N,IO7_INT2*%
X73406008Y-58367000D03*
%TO.P,J1,4,Pin_4*%
%TO.N,GND*%
X75406008Y-58367000D03*
%TO.P,J1,5,Pin_5*%
%TO.N,IO8_SCL*%
X77406008Y-58367000D03*
%TD*%
D12*
%TO.P,SW1,*%
%TO.N,*%
X94266004Y-62212986D03*
X94266004Y-54012986D03*
D13*
%TO.P,SW1,1,A*%
%TO.N,+5V*%
X94266004Y-60112986D03*
D14*
%TO.P,SW1,2,B*%
%TO.N,Net-(D2-Pad1)*%
X94266004Y-58112986D03*
%TO.P,SW1,3,C*%
%TO.N,unconnected-(SW1-Pad3)*%
X94266004Y-56112986D03*
%TD*%
D15*
%TO.P,J3,S1,SHIELD*%
%TO.N,Net-(C10-Pad1)*%
X95563000Y-39572990D03*
D16*
X91383000Y-30932990D03*
X91383000Y-39572990D03*
D15*
X95563000Y-30932990D03*
%TD*%
D17*
%TO.P,U1,*%
%TO.N,*%
X65038460Y-31707472D03*
X65038460Y-34120472D03*
D18*
%TO.P,U1,1,VCC*%
%TO.N,+3V3*%
X65038460Y-54567472D03*
D17*
%TO.P,U1,2,GND*%
%TO.N,GND*%
X65038460Y-52027472D03*
%TO.P,U1,3,SCL*%
%TO.N,IO8_SCL*%
X65038460Y-49487472D03*
%TO.P,U1,4,SDA*%
%TO.N,IO10_SDA*%
X65038460Y-46947472D03*
%TO.P,U1,5,AD0_BNO/INT_ICM*%
%TO.N,Net-(JP2-Pad2)*%
X65038460Y-44407472D03*
%TO.P,U1,6,AD0_ICM*%
%TO.N,Net-(JP1-Pad1)*%
X65038460Y-41867472D03*
%TO.P,U1,7,INT_BNO/AD0_MPU*%
%TO.N,Net-(JP1-Pad3)*%
X65038460Y-39327472D03*
%TO.P,U1,8,INT_MPU*%
%TO.N,Net-(JP3-Pad3)*%
X65038460Y-36787472D03*
%TD*%
D19*
%TO.P,J2,1,Pin_1*%
%TO.N,GND*%
X88990000Y-49461000D03*
D20*
%TO.P,J2,2,Pin_2*%
%TO.N,+BATT*%
X88990000Y-47461000D03*
%TD*%
D21*
%TO.N,+BATT*%
X86614000Y-36068000D03*
X85344000Y-49906500D03*
%TO.N,GND*%
X88880000Y-43160000D03*
X89741798Y-59426012D03*
X83566000Y-62992000D03*
X88900000Y-40386000D03*
X90932000Y-55372000D03*
D22*
X75946000Y-51562000D03*
X88559889Y-36207501D03*
D21*
X87630000Y-43434000D03*
X90678000Y-61214000D03*
X70965685Y-45885078D03*
X87849000Y-32673000D03*
X80010000Y-36068000D03*
X90590506Y-38536701D03*
X84328000Y-51816000D03*
X91948000Y-41656000D03*
X74168000Y-40894000D03*
X73927000Y-53835000D03*
X73927000Y-51803000D03*
X85598000Y-41402000D03*
X81026000Y-51054000D03*
X68326000Y-36322000D03*
X90678000Y-44958000D03*
X78740000Y-51308000D03*
X68326000Y-45974000D03*
X94742000Y-41656000D03*
X88646000Y-44958000D03*
X80010000Y-45974000D03*
X89154000Y-30734000D03*
X81534000Y-40132000D03*
X69850000Y-55372000D03*
X72136000Y-49543000D03*
X65786000Y-59944000D03*
%TO.N,+3V3*%
X72364000Y-51080000D03*
X69850000Y-53782000D03*
X84533000Y-54151000D03*
X80772000Y-59182000D03*
X66802000Y-38608000D03*
X83312000Y-54102000D03*
X73818500Y-49688500D03*
%TO.N,IO0*%
X69342000Y-44704000D03*
X76220000Y-48969000D03*
%TO.N,IO1*%
X70612000Y-44704000D03*
X78740000Y-48768000D03*
%TO.N,Net-(C10-Pad1)*%
X89019069Y-32790431D03*
%TO.N,+5V*%
X85090000Y-62992000D03*
X88796622Y-59402865D03*
%TO.N,Net-(D2-Pad1)*%
X83058000Y-45720000D03*
X84328000Y-48006000D03*
%TO.N,USB_D-*%
X81534000Y-44196000D03*
X88548000Y-38899000D03*
%TO.N,USB_D+*%
X81471997Y-41593997D03*
X89182681Y-33810681D03*
%TO.N,IO7_INT2*%
X77978000Y-47244000D03*
X76569504Y-45731990D03*
X78232000Y-56388000D03*
%TO.N,Net-(JP1-Pad3)*%
X60198000Y-60960000D03*
%TO.N,IO6_INT1*%
X68834000Y-56388000D03*
X64262000Y-56785500D03*
%TO.N,Net-(JP2-Pad2)*%
X59944000Y-53594000D03*
X64262000Y-59944000D03*
%TO.N,Net-(JP3-Pad3)*%
X61214000Y-52578000D03*
X63246000Y-55372000D03*
%TO.N,IO5_LED*%
X80772000Y-47498000D03*
X78740000Y-44704000D03*
%TO.N,Net-(C2-Pad1)*%
X73914000Y-47943000D03*
X68072000Y-42672000D03*
X81280000Y-53086000D03*
X69088000Y-47752000D03*
%TD*%
D23*
%TO.N,+BATT*%
X87647095Y-40403095D02*
X88424679Y-39625511D01*
X89606511Y-46844489D02*
X89606511Y-42859068D01*
X89274511Y-39199932D02*
X89274511Y-38598068D01*
X89408000Y-42164000D02*
X87647095Y-40403095D01*
X88990000Y-47461000D02*
X89606511Y-46844489D01*
X87789500Y-47461000D02*
X85344000Y-49906500D01*
X86744443Y-36068000D02*
X86614000Y-36068000D01*
X89408000Y-42660557D02*
X89408000Y-42164000D01*
X88990000Y-47461000D02*
X87789500Y-47461000D01*
X88848932Y-39625511D02*
X89274511Y-39199932D01*
X88424679Y-39625511D02*
X88848932Y-39625511D01*
X89274511Y-38598068D02*
X86744443Y-36068000D01*
X89606511Y-42859068D02*
X89408000Y-42660557D01*
%TO.N,GND*%
X90590506Y-38536701D02*
X90590506Y-38238118D01*
X89741798Y-60277798D02*
X90678000Y-61214000D01*
X89741798Y-59426012D02*
X89741798Y-60277798D01*
X90590506Y-38238118D02*
X88559889Y-36207501D01*
%TO.N,+3V3*%
X79804600Y-59738600D02*
X79804600Y-59895400D01*
X66802000Y-46990000D02*
X68453000Y-48641000D01*
X75232600Y-49530000D02*
X73914000Y-49530000D01*
X79248000Y-59182000D02*
X79804600Y-59738600D01*
X82804000Y-54610000D02*
X80312600Y-54610000D01*
X80010000Y-54610000D02*
X79248000Y-55372000D01*
X80772000Y-59182000D02*
X80361200Y-59182000D01*
X78232000Y-61468000D02*
X72390000Y-61468000D01*
X79804600Y-59895400D02*
X78232000Y-61468000D01*
X79248000Y-55372000D02*
X79248000Y-59182000D01*
X72771000Y-48641000D02*
X68453000Y-48641000D01*
X71406008Y-60484008D02*
X71406008Y-58367000D01*
X69850000Y-53782000D02*
X69064528Y-54567472D01*
X80361200Y-59182000D02*
X79804600Y-59738600D01*
X72390000Y-61468000D02*
X71406008Y-60484008D01*
X75232600Y-49530000D02*
X80312600Y-54610000D01*
X66802000Y-38608000D02*
X66802000Y-46990000D01*
X83361000Y-54151000D02*
X83312000Y-54102000D01*
X69064528Y-54567472D02*
X65038460Y-54567472D01*
X68453000Y-48641000D02*
X70866000Y-51054000D01*
X83312000Y-54102000D02*
X82804000Y-54610000D01*
X84533000Y-54151000D02*
X83361000Y-54151000D01*
X73818500Y-49688500D02*
X72771000Y-48641000D01*
X70866000Y-51054000D02*
X71882000Y-51054000D01*
D24*
%TO.N,IO0*%
X68977511Y-46625511D02*
X69596000Y-47244000D01*
X74018623Y-48969000D02*
X76220000Y-48969000D01*
X68977511Y-45068489D02*
X68977511Y-46625511D01*
X73262489Y-47862489D02*
X73262489Y-48212866D01*
X69596000Y-47244000D02*
X72644000Y-47244000D01*
X69342000Y-44704000D02*
X68977511Y-45068489D01*
X73262489Y-48212866D02*
X74018623Y-48969000D01*
X72644000Y-47244000D02*
X73262489Y-47862489D01*
%TO.N,IO1*%
X70612000Y-44704000D02*
X74168000Y-44704000D01*
X78232000Y-48768000D02*
X78740000Y-48768000D01*
X74168000Y-44704000D02*
X78232000Y-48768000D01*
%TO.N,Net-(C10-Pad1)*%
X89154000Y-31750000D02*
X89971000Y-30933000D01*
X89019069Y-32790431D02*
X89154000Y-32655500D01*
X91306479Y-31009521D02*
X91306479Y-39496479D01*
X91383000Y-39573000D02*
X95563000Y-39573000D01*
X89154000Y-32655500D02*
X89154000Y-31750000D01*
X89971000Y-30933000D02*
X91129000Y-30933000D01*
D23*
%TO.N,+5V*%
X88796622Y-59402865D02*
X88171135Y-59402865D01*
X85090000Y-62484000D02*
X85090000Y-62992000D01*
X88171135Y-59402865D02*
X85090000Y-62484000D01*
D24*
%TO.N,Net-(D2-Pad1)*%
X85598000Y-52832000D02*
X87884000Y-52832000D01*
X83058000Y-46736000D02*
X84328000Y-48006000D01*
X92656996Y-58112996D02*
X94266004Y-58112996D01*
X91948000Y-52832000D02*
X91948000Y-57404000D01*
X84328000Y-50546000D02*
X85344000Y-51562000D01*
X85344000Y-52578000D02*
X85598000Y-52832000D01*
X85344000Y-51562000D02*
X85344000Y-52578000D01*
X91440000Y-52324000D02*
X91948000Y-52832000D01*
X84328000Y-48006000D02*
X84328000Y-50546000D01*
X91948000Y-57404000D02*
X92656996Y-58112996D01*
X87884000Y-52832000D02*
X88392000Y-52324000D01*
X83058000Y-45720000D02*
X83058000Y-46736000D01*
X88392000Y-52324000D02*
X91440000Y-52324000D01*
D25*
%TO.N,USB_D-*%
X88548000Y-38899000D02*
X87061000Y-40386000D01*
X84074000Y-40386000D02*
X81534000Y-42926000D01*
X81534000Y-44196000D02*
X81534000Y-42926000D01*
X87061000Y-40386000D02*
X84074000Y-40386000D01*
%TO.N,USB_D+*%
X82296000Y-39116000D02*
X87601319Y-33810681D01*
X81793510Y-41007001D02*
X82296000Y-40504511D01*
X81793510Y-41272484D02*
X81793510Y-41007001D01*
X82296000Y-40504511D02*
X82296000Y-39116000D01*
X87601319Y-33810681D02*
X89182681Y-33810681D01*
X81471997Y-41593997D02*
X81793510Y-41272484D01*
D24*
%TO.N,IO7_INT2*%
X73406008Y-57403992D02*
X74422000Y-56388000D01*
X77978000Y-47140486D02*
X77978000Y-47244000D01*
X74422000Y-56388000D02*
X78232000Y-56388000D01*
X76569504Y-45731990D02*
X77978000Y-47140486D01*
X73406008Y-58367000D02*
X73406008Y-57403992D01*
%TO.N,Net-(JP1-Pad3)*%
X58166000Y-58928000D02*
X60198000Y-60960000D01*
X59690000Y-44675932D02*
X59690000Y-51816000D01*
X59690000Y-51816000D02*
X58166000Y-53340000D01*
X58166000Y-53340000D02*
X58166000Y-58928000D01*
X65038460Y-39327472D02*
X59690000Y-44675932D01*
%TO.N,IO6_INT1*%
X68834000Y-56388000D02*
X67310000Y-57912000D01*
X67310000Y-57912000D02*
X65024000Y-57912000D01*
X65024000Y-57912000D02*
X64262000Y-57150000D01*
X64262000Y-57150000D02*
X64262000Y-56785500D01*
%TO.N,Net-(JP2-Pad2)*%
X59944000Y-57404000D02*
X62230000Y-59690000D01*
X62230000Y-59690000D02*
X64008000Y-59690000D01*
X59944000Y-53594000D02*
X59944000Y-57404000D01*
X64008000Y-59690000D02*
X64262000Y-59944000D01*
%TO.N,Net-(JP3-Pad3)*%
X63246000Y-55372000D02*
X63246000Y-54610000D01*
X63246000Y-54610000D02*
X61214000Y-52578000D01*
%TO.N,IO5_LED*%
X78740000Y-46228000D02*
X78740000Y-44704000D01*
X78740000Y-46228000D02*
X80010000Y-47498000D01*
X80772000Y-47498000D02*
X80010000Y-47498000D01*
%TO.N,Net-(C2-Pad1)*%
X81280000Y-53086000D02*
X81280000Y-52926623D01*
X81280000Y-52926623D02*
X76359377Y-48006000D01*
X67564000Y-43180000D02*
X68072000Y-42672000D01*
X69088000Y-47752000D02*
X67564000Y-46228000D01*
X67564000Y-46228000D02*
X67564000Y-43180000D01*
X76359377Y-48006000D02*
X73914000Y-48006000D01*
%TD*%
%TA.AperFunction,Conductor*%
%TO.N,GND*%
G36*
X67252121Y-30039002D02*
G01*
X67298614Y-30092658D01*
X67310000Y-30145000D01*
X67310000Y-35560000D01*
X81026000Y-35560000D01*
X81026000Y-30145000D01*
X81046002Y-30076879D01*
X81099658Y-30030386D01*
X81152000Y-30019000D01*
X96802000Y-30019000D01*
X96870121Y-30039002D01*
X96916614Y-30092658D01*
X96928000Y-30145000D01*
X96928000Y-44679000D01*
X96907998Y-44747121D01*
X96854342Y-44793614D01*
X96802000Y-44805000D01*
X95217508Y-44805000D01*
X95204035Y-44814789D01*
X95188197Y-44819935D01*
X95178408Y-44833408D01*
X95164935Y-44843197D01*
X95159789Y-44859035D01*
X95150000Y-44872508D01*
X95150000Y-52049492D01*
X95159789Y-52062965D01*
X95164935Y-52078803D01*
X95178408Y-52088592D01*
X95188197Y-52102065D01*
X95204035Y-52107211D01*
X95217508Y-52117000D01*
X96802000Y-52117000D01*
X96870121Y-52137002D01*
X96916614Y-52190658D01*
X96928000Y-52243000D01*
X96928000Y-63729000D01*
X96907998Y-63797121D01*
X96854342Y-63843614D01*
X96802000Y-63855000D01*
X55852000Y-63855000D01*
X55783879Y-63834998D01*
X55737386Y-63781342D01*
X55726000Y-63729000D01*
X55726000Y-62992000D01*
X84557948Y-62992000D01*
X84576077Y-63129705D01*
X84579236Y-63137332D01*
X84579237Y-63137335D01*
X84584164Y-63149230D01*
X84629229Y-63258026D01*
X84713782Y-63368218D01*
X84823974Y-63452771D01*
X84888134Y-63479347D01*
X84944665Y-63502763D01*
X84944668Y-63502764D01*
X84952295Y-63505923D01*
X85090000Y-63524052D01*
X85098188Y-63522974D01*
X85219517Y-63507001D01*
X85227705Y-63505923D01*
X85235332Y-63502764D01*
X85235335Y-63502763D01*
X85291866Y-63479347D01*
X85356026Y-63452771D01*
X85466218Y-63368218D01*
X85550771Y-63258026D01*
X85595836Y-63149230D01*
X85600763Y-63137335D01*
X85600764Y-63137332D01*
X85603923Y-63129705D01*
X85622052Y-62992000D01*
X85606435Y-62873372D01*
X85605001Y-62862483D01*
X85603923Y-62854295D01*
X85550771Y-62725974D01*
X85514014Y-62678071D01*
X85488414Y-62611850D01*
X85502679Y-62542301D01*
X85524882Y-62512272D01*
X86876896Y-61160259D01*
X88250905Y-59786250D01*
X88313217Y-59752224D01*
X88384033Y-59757289D01*
X88419590Y-59780144D01*
X88420404Y-59779083D01*
X88530596Y-59863636D01*
X88594756Y-59890212D01*
X88651287Y-59913628D01*
X88651290Y-59913629D01*
X88658917Y-59916788D01*
X88796622Y-59934917D01*
X88804810Y-59933839D01*
X88926139Y-59917866D01*
X88934327Y-59916788D01*
X88941954Y-59913629D01*
X88941957Y-59913628D01*
X88998488Y-59890212D01*
X89062648Y-59863636D01*
X89172840Y-59779083D01*
X89257393Y-59668891D01*
X89296562Y-59574328D01*
X89307385Y-59548200D01*
X89307386Y-59548197D01*
X89310545Y-59540570D01*
X89328674Y-59402865D01*
X89310545Y-59265160D01*
X89300316Y-59240463D01*
X89276099Y-59182000D01*
X89257393Y-59136839D01*
X89172840Y-59026647D01*
X89062648Y-58942094D01*
X88981006Y-58908277D01*
X88941957Y-58892102D01*
X88941954Y-58892101D01*
X88934327Y-58888942D01*
X88796622Y-58870813D01*
X88658917Y-58888942D01*
X88651290Y-58892101D01*
X88651287Y-58892102D01*
X88612238Y-58908277D01*
X88530596Y-58942094D01*
X88420404Y-59026647D01*
X88415378Y-59033197D01*
X88410117Y-59038458D01*
X88347806Y-59072485D01*
X88321020Y-59075365D01*
X88190929Y-59075365D01*
X88179946Y-59074885D01*
X88153136Y-59072539D01*
X88153135Y-59072539D01*
X88142151Y-59071578D01*
X88105491Y-59081401D01*
X88094767Y-59083778D01*
X88057396Y-59090368D01*
X88047850Y-59095879D01*
X88044482Y-59097105D01*
X88041236Y-59098619D01*
X88030592Y-59101471D01*
X88021563Y-59107793D01*
X88021561Y-59107794D01*
X87999502Y-59123239D01*
X87990237Y-59129142D01*
X87957375Y-59148115D01*
X87950289Y-59156560D01*
X87932980Y-59177188D01*
X87925553Y-59185292D01*
X84872433Y-62238413D01*
X84864329Y-62245840D01*
X84835250Y-62270240D01*
X84829737Y-62279789D01*
X84816275Y-62303106D01*
X84810377Y-62312365D01*
X84788606Y-62343457D01*
X84785754Y-62354101D01*
X84784240Y-62357347D01*
X84783014Y-62360715D01*
X84777503Y-62370261D01*
X84772526Y-62398485D01*
X84770913Y-62407633D01*
X84768536Y-62418356D01*
X84758713Y-62455016D01*
X84759674Y-62465999D01*
X84762020Y-62492811D01*
X84762500Y-62503794D01*
X84762500Y-62516398D01*
X84742498Y-62584519D01*
X84725593Y-62605495D01*
X84720332Y-62610756D01*
X84713782Y-62615782D01*
X84629229Y-62725974D01*
X84576077Y-62854295D01*
X84574999Y-62862483D01*
X84573565Y-62873372D01*
X84557948Y-62992000D01*
X55726000Y-62992000D01*
X55726000Y-58928000D01*
X57908552Y-58928000D01*
X57920917Y-58990159D01*
X57928150Y-59026521D01*
X57935044Y-59036838D01*
X57935044Y-59036839D01*
X57950971Y-59060675D01*
X57983957Y-59110043D01*
X57994272Y-59116935D01*
X57994274Y-59116937D01*
X57994729Y-59117241D01*
X58013822Y-59132911D01*
X59642365Y-60761454D01*
X59676391Y-60823766D01*
X59678192Y-60866995D01*
X59665948Y-60960000D01*
X59684077Y-61097705D01*
X59737229Y-61226026D01*
X59821782Y-61336218D01*
X59931974Y-61420771D01*
X59972055Y-61437373D01*
X60052665Y-61470763D01*
X60052668Y-61470764D01*
X60060295Y-61473923D01*
X60198000Y-61492052D01*
X60206188Y-61490974D01*
X60327517Y-61475001D01*
X60335705Y-61473923D01*
X60343332Y-61470764D01*
X60343335Y-61470763D01*
X60423945Y-61437373D01*
X60464026Y-61420771D01*
X60574218Y-61336218D01*
X60658771Y-61226026D01*
X60711923Y-61097705D01*
X60730052Y-60960000D01*
X60711923Y-60822295D01*
X60706321Y-60808769D01*
X60670447Y-60722162D01*
X60658771Y-60693974D01*
X60574218Y-60583782D01*
X60464026Y-60499229D01*
X60379492Y-60464214D01*
X60343335Y-60449237D01*
X60343332Y-60449236D01*
X60335705Y-60446077D01*
X60291004Y-60440192D01*
X60206188Y-60429026D01*
X60198000Y-60427948D01*
X60189812Y-60429026D01*
X60104995Y-60440192D01*
X60034846Y-60429252D01*
X59999454Y-60404365D01*
X58455405Y-58860316D01*
X58421379Y-58798004D01*
X58418500Y-58771221D01*
X58418500Y-53594000D01*
X59411948Y-53594000D01*
X59430077Y-53731705D01*
X59483229Y-53860026D01*
X59567782Y-53970218D01*
X59574328Y-53975241D01*
X59642204Y-54027324D01*
X59684071Y-54084662D01*
X59691500Y-54127287D01*
X59691500Y-57366714D01*
X59689079Y-57391296D01*
X59686552Y-57404000D01*
X59696850Y-57455768D01*
X59706150Y-57502521D01*
X59713044Y-57512838D01*
X59713044Y-57512839D01*
X59745826Y-57561901D01*
X59761957Y-57586043D01*
X59772272Y-57592935D01*
X59772274Y-57592937D01*
X59772729Y-57593241D01*
X59791822Y-57608911D01*
X62025089Y-59842178D01*
X62040759Y-59861271D01*
X62041063Y-59861726D01*
X62041065Y-59861728D01*
X62047957Y-59872043D01*
X62058273Y-59878936D01*
X62058274Y-59878937D01*
X62121162Y-59920957D01*
X62121164Y-59920958D01*
X62125795Y-59924052D01*
X62131479Y-59927850D01*
X62167579Y-59935031D01*
X62217297Y-59944921D01*
X62230000Y-59947448D01*
X62242704Y-59944921D01*
X62267286Y-59942500D01*
X63619251Y-59942500D01*
X63687372Y-59962502D01*
X63733865Y-60016158D01*
X63744173Y-60052052D01*
X63746738Y-60071531D01*
X63748077Y-60081705D01*
X63801229Y-60210026D01*
X63885782Y-60320218D01*
X63995974Y-60404771D01*
X64051929Y-60427948D01*
X64116665Y-60454763D01*
X64116668Y-60454764D01*
X64124295Y-60457923D01*
X64262000Y-60476052D01*
X64270188Y-60474974D01*
X64391517Y-60459001D01*
X64399705Y-60457923D01*
X64407332Y-60454764D01*
X64407335Y-60454763D01*
X64472071Y-60427948D01*
X64528026Y-60404771D01*
X64638218Y-60320218D01*
X64722771Y-60210026D01*
X64775923Y-60081705D01*
X64794052Y-59944000D01*
X64775923Y-59806295D01*
X64769264Y-59790217D01*
X64730652Y-59697001D01*
X64722771Y-59677974D01*
X64638218Y-59567782D01*
X64528026Y-59483229D01*
X64443038Y-59448026D01*
X64407335Y-59433237D01*
X64407332Y-59433236D01*
X64399705Y-59430077D01*
X64262000Y-59411948D01*
X64124295Y-59430077D01*
X64116661Y-59433239D01*
X64108689Y-59435375D01*
X64108239Y-59433697D01*
X64045043Y-59439920D01*
X64020172Y-59434973D01*
X64020171Y-59434973D01*
X64008000Y-59432552D01*
X63995297Y-59435079D01*
X63970714Y-59437500D01*
X62386779Y-59437500D01*
X62318658Y-59417498D01*
X62297684Y-59400595D01*
X60233405Y-57336316D01*
X60199379Y-57274004D01*
X60196500Y-57247221D01*
X60196500Y-56785500D01*
X63729948Y-56785500D01*
X63748077Y-56923205D01*
X63801229Y-57051526D01*
X63885782Y-57161718D01*
X63995974Y-57246271D01*
X64003604Y-57249431D01*
X64010755Y-57253560D01*
X64009108Y-57256414D01*
X64054089Y-57293328D01*
X64079957Y-57332043D01*
X64090272Y-57338935D01*
X64090274Y-57338937D01*
X64090729Y-57339241D01*
X64109822Y-57354911D01*
X64819089Y-58064178D01*
X64834759Y-58083271D01*
X64835063Y-58083726D01*
X64835065Y-58083728D01*
X64841957Y-58094043D01*
X64925479Y-58149850D01*
X64940786Y-58152895D01*
X65024000Y-58169448D01*
X65036704Y-58166921D01*
X65061286Y-58164500D01*
X67272714Y-58164500D01*
X67297296Y-58166921D01*
X67310000Y-58169448D01*
X67393214Y-58152895D01*
X67408521Y-58149850D01*
X67492043Y-58094043D01*
X67498935Y-58083728D01*
X67498937Y-58083726D01*
X67499241Y-58083271D01*
X67514911Y-58064178D01*
X67872870Y-57706219D01*
X68678508Y-57706219D01*
X68678509Y-59027780D01*
X68689430Y-59101979D01*
X68703329Y-59130288D01*
X68739959Y-59204893D01*
X68744818Y-59214790D01*
X68833761Y-59303578D01*
X68891026Y-59331570D01*
X68937447Y-59354261D01*
X68946669Y-59358769D01*
X68956344Y-59360180D01*
X68956346Y-59360181D01*
X69015701Y-59368840D01*
X69015705Y-59368840D01*
X69020227Y-59369500D01*
X69404537Y-59369500D01*
X69791788Y-59369499D01*
X69865987Y-59358578D01*
X69929621Y-59327335D01*
X69969450Y-59307780D01*
X69969451Y-59307779D01*
X69978798Y-59303190D01*
X70067586Y-59214247D01*
X70110531Y-59126391D01*
X70118483Y-59110124D01*
X70118483Y-59110123D01*
X70122777Y-59101339D01*
X70124189Y-59091662D01*
X70132848Y-59032307D01*
X70132848Y-59032303D01*
X70133508Y-59027781D01*
X70133507Y-57706220D01*
X70122586Y-57632021D01*
X70094463Y-57574741D01*
X70071788Y-57528558D01*
X70071787Y-57528557D01*
X70067198Y-57519210D01*
X69978255Y-57430422D01*
X69894227Y-57389348D01*
X69874132Y-57379525D01*
X69874131Y-57379525D01*
X69865347Y-57375231D01*
X69855672Y-57373820D01*
X69855670Y-57373819D01*
X69796315Y-57365160D01*
X69796311Y-57365160D01*
X69791789Y-57364500D01*
X69407479Y-57364500D01*
X69020228Y-57364501D01*
X68946029Y-57375422D01*
X68913696Y-57391297D01*
X68842566Y-57426220D01*
X68842565Y-57426221D01*
X68833218Y-57430810D01*
X68744430Y-57519753D01*
X68717551Y-57574741D01*
X68695721Y-57619401D01*
X68689239Y-57632661D01*
X68687828Y-57642336D01*
X68687827Y-57642338D01*
X68680565Y-57692121D01*
X68678508Y-57706219D01*
X67872870Y-57706219D01*
X68635454Y-56943635D01*
X68697766Y-56909609D01*
X68740995Y-56907808D01*
X68825812Y-56918974D01*
X68834000Y-56920052D01*
X68842188Y-56918974D01*
X68963517Y-56903001D01*
X68971705Y-56901923D01*
X68979332Y-56898764D01*
X68979335Y-56898763D01*
X69053617Y-56867994D01*
X69100026Y-56848771D01*
X69210218Y-56764218D01*
X69216262Y-56756342D01*
X69289744Y-56660577D01*
X69294771Y-56654026D01*
X69337382Y-56551154D01*
X69344763Y-56533335D01*
X69344764Y-56533332D01*
X69347923Y-56525705D01*
X69366052Y-56388000D01*
X69347923Y-56250295D01*
X69294771Y-56121974D01*
X69210218Y-56011782D01*
X69100026Y-55927229D01*
X69035866Y-55900653D01*
X68979335Y-55877237D01*
X68979332Y-55877236D01*
X68971705Y-55874077D01*
X68935238Y-55869276D01*
X68842188Y-55857026D01*
X68834000Y-55855948D01*
X68825812Y-55857026D01*
X68732763Y-55869276D01*
X68696295Y-55874077D01*
X68688668Y-55877236D01*
X68688665Y-55877237D01*
X68632134Y-55900653D01*
X68567974Y-55927229D01*
X68457782Y-56011782D01*
X68373229Y-56121974D01*
X68320077Y-56250295D01*
X68301948Y-56388000D01*
X68303026Y-56396188D01*
X68314192Y-56481005D01*
X68303252Y-56551154D01*
X68278365Y-56586546D01*
X67242316Y-57622595D01*
X67180004Y-57656621D01*
X67153221Y-57659500D01*
X65180779Y-57659500D01*
X65112658Y-57639498D01*
X65091684Y-57622595D01*
X64713135Y-57244046D01*
X64679109Y-57181734D01*
X64684174Y-57110919D01*
X64702268Y-57078246D01*
X64702445Y-57078016D01*
X64704692Y-57075086D01*
X64717744Y-57058078D01*
X64717746Y-57058075D01*
X64722771Y-57051526D01*
X64775923Y-56923205D01*
X64794052Y-56785500D01*
X64775923Y-56647795D01*
X64761009Y-56611788D01*
X64735893Y-56551154D01*
X64722771Y-56519474D01*
X64638218Y-56409282D01*
X64528026Y-56324729D01*
X64463866Y-56298153D01*
X64407335Y-56274737D01*
X64407332Y-56274736D01*
X64399705Y-56271577D01*
X64262000Y-56253448D01*
X64124295Y-56271577D01*
X64116668Y-56274736D01*
X64116665Y-56274737D01*
X64060134Y-56298153D01*
X63995974Y-56324729D01*
X63885782Y-56409282D01*
X63801229Y-56519474D01*
X63788107Y-56551154D01*
X63762992Y-56611788D01*
X63748077Y-56647795D01*
X63729948Y-56785500D01*
X60196500Y-56785500D01*
X60196500Y-54127287D01*
X60216502Y-54059166D01*
X60245796Y-54027324D01*
X60313672Y-53975241D01*
X60320218Y-53970218D01*
X60404771Y-53860026D01*
X60457923Y-53731705D01*
X60476052Y-53594000D01*
X60457923Y-53456295D01*
X60453075Y-53444589D01*
X60431347Y-53392135D01*
X60404771Y-53327974D01*
X60320218Y-53217782D01*
X60210026Y-53133229D01*
X60124512Y-53097808D01*
X60089335Y-53083237D01*
X60089332Y-53083236D01*
X60081705Y-53080077D01*
X60064501Y-53077812D01*
X59952188Y-53063026D01*
X59944000Y-53061948D01*
X59935812Y-53063026D01*
X59823500Y-53077812D01*
X59806295Y-53080077D01*
X59798668Y-53083236D01*
X59798665Y-53083237D01*
X59763488Y-53097808D01*
X59677974Y-53133229D01*
X59567782Y-53217782D01*
X59483229Y-53327974D01*
X59456653Y-53392134D01*
X59434926Y-53444589D01*
X59430077Y-53456295D01*
X59411948Y-53594000D01*
X58418500Y-53594000D01*
X58418500Y-53496779D01*
X58438502Y-53428658D01*
X58455405Y-53407684D01*
X59285089Y-52578000D01*
X60681948Y-52578000D01*
X60700077Y-52715705D01*
X60703236Y-52723332D01*
X60703237Y-52723335D01*
X60721298Y-52766937D01*
X60753229Y-52844026D01*
X60837782Y-52954218D01*
X60844328Y-52959241D01*
X60870442Y-52979279D01*
X60947974Y-53038771D01*
X61003929Y-53061948D01*
X61068665Y-53088763D01*
X61068668Y-53088764D01*
X61076295Y-53091923D01*
X61084483Y-53093001D01*
X61145147Y-53100987D01*
X61214000Y-53110052D01*
X61222188Y-53108974D01*
X61307005Y-53097808D01*
X61377154Y-53108748D01*
X61412546Y-53133635D01*
X62956595Y-54677684D01*
X62990621Y-54739996D01*
X62993500Y-54766779D01*
X62993500Y-54838713D01*
X62973498Y-54906834D01*
X62944204Y-54938676D01*
X62939974Y-54941922D01*
X62869782Y-54995782D01*
X62785229Y-55105974D01*
X62775149Y-55130310D01*
X62736861Y-55222746D01*
X62732077Y-55234295D01*
X62713948Y-55372000D01*
X62732077Y-55509705D01*
X62735236Y-55517332D01*
X62735237Y-55517335D01*
X62758653Y-55573866D01*
X62785229Y-55638026D01*
X62869782Y-55748218D01*
X62979974Y-55832771D01*
X63035929Y-55855948D01*
X63100665Y-55882763D01*
X63100668Y-55882764D01*
X63108295Y-55885923D01*
X63246000Y-55904052D01*
X63254188Y-55902974D01*
X63375517Y-55887001D01*
X63383705Y-55885923D01*
X63391332Y-55882764D01*
X63391335Y-55882763D01*
X63456071Y-55855948D01*
X63512026Y-55832771D01*
X63622218Y-55748218D01*
X63706771Y-55638026D01*
X63733347Y-55573865D01*
X63756763Y-55517335D01*
X63756764Y-55517332D01*
X63759923Y-55509705D01*
X63773638Y-55405530D01*
X64085460Y-55405530D01*
X64086666Y-55411590D01*
X64086666Y-55411595D01*
X64090437Y-55430550D01*
X64092858Y-55442720D01*
X64099751Y-55453037D01*
X64099752Y-55453038D01*
X64113610Y-55473778D01*
X64121038Y-55484894D01*
X64163212Y-55513074D01*
X64175382Y-55515495D01*
X64194337Y-55519266D01*
X64194342Y-55519266D01*
X64200402Y-55520472D01*
X65876518Y-55520472D01*
X65882578Y-55519266D01*
X65882583Y-55519266D01*
X65901538Y-55515495D01*
X65913708Y-55513074D01*
X65955882Y-55484894D01*
X65963310Y-55473778D01*
X65977168Y-55453038D01*
X65977169Y-55453037D01*
X65984062Y-55442720D01*
X65986483Y-55430550D01*
X65990254Y-55411595D01*
X65990254Y-55411590D01*
X65991460Y-55405530D01*
X65991460Y-55020972D01*
X66011462Y-54952851D01*
X66065118Y-54906358D01*
X66117460Y-54894972D01*
X69044734Y-54894972D01*
X69055717Y-54895452D01*
X69082527Y-54897798D01*
X69082528Y-54897798D01*
X69093512Y-54898759D01*
X69130172Y-54888936D01*
X69140895Y-54886559D01*
X69143218Y-54886149D01*
X69178267Y-54879969D01*
X69187813Y-54874458D01*
X69191181Y-54873232D01*
X69194427Y-54871718D01*
X69205071Y-54868866D01*
X69236163Y-54847095D01*
X69245422Y-54841197D01*
X69268739Y-54827735D01*
X69278288Y-54822222D01*
X69302683Y-54793149D01*
X69310109Y-54785045D01*
X69745277Y-54349878D01*
X69807589Y-54315853D01*
X69834372Y-54312974D01*
X69841812Y-54312974D01*
X69850000Y-54314052D01*
X69858188Y-54312974D01*
X69979517Y-54297001D01*
X69987705Y-54295923D01*
X69995332Y-54292764D01*
X69995335Y-54292763D01*
X70052150Y-54269229D01*
X70116026Y-54242771D01*
X70226218Y-54158218D01*
X70310771Y-54048026D01*
X70345453Y-53964295D01*
X70360763Y-53927335D01*
X70360764Y-53927332D01*
X70363923Y-53919705D01*
X70382052Y-53782000D01*
X70363923Y-53644295D01*
X70354635Y-53621870D01*
X70333128Y-53569948D01*
X70310771Y-53515974D01*
X70236547Y-53419243D01*
X70231241Y-53412328D01*
X70226218Y-53405782D01*
X70116026Y-53321229D01*
X70032815Y-53286762D01*
X69995335Y-53271237D01*
X69995332Y-53271236D01*
X69987705Y-53268077D01*
X69850000Y-53249948D01*
X69712295Y-53268077D01*
X69704668Y-53271236D01*
X69704665Y-53271237D01*
X69667185Y-53286762D01*
X69583974Y-53321229D01*
X69473782Y-53405782D01*
X69468759Y-53412328D01*
X69463453Y-53419243D01*
X69389229Y-53515974D01*
X69366872Y-53569948D01*
X69345366Y-53621870D01*
X69336077Y-53644295D01*
X69317948Y-53782000D01*
X69319026Y-53790188D01*
X69319026Y-53797628D01*
X69299024Y-53865749D01*
X69282122Y-53886723D01*
X68965779Y-54203067D01*
X68903466Y-54237092D01*
X68876683Y-54239972D01*
X66117460Y-54239972D01*
X66049339Y-54219970D01*
X66002846Y-54166314D01*
X65991460Y-54113972D01*
X65991460Y-53729414D01*
X65989739Y-53720759D01*
X65986483Y-53704394D01*
X65984062Y-53692224D01*
X65955882Y-53650050D01*
X65935850Y-53636665D01*
X65924026Y-53628764D01*
X65924025Y-53628763D01*
X65913708Y-53621870D01*
X65901538Y-53619449D01*
X65882583Y-53615678D01*
X65882578Y-53615678D01*
X65876518Y-53614472D01*
X65085047Y-53614472D01*
X65038181Y-53600711D01*
X65016700Y-53612002D01*
X64991873Y-53614472D01*
X64200402Y-53614472D01*
X64194342Y-53615678D01*
X64194337Y-53615678D01*
X64175382Y-53619449D01*
X64163212Y-53621870D01*
X64152895Y-53628763D01*
X64152894Y-53628764D01*
X64141070Y-53636665D01*
X64121038Y-53650050D01*
X64092858Y-53692224D01*
X64090437Y-53704394D01*
X64087182Y-53720759D01*
X64085460Y-53729414D01*
X64085460Y-55405530D01*
X63773638Y-55405530D01*
X63778052Y-55372000D01*
X63759923Y-55234295D01*
X63755140Y-55222746D01*
X63716851Y-55130310D01*
X63706771Y-55105974D01*
X63622218Y-54995782D01*
X63552026Y-54941922D01*
X63547796Y-54938676D01*
X63505929Y-54881338D01*
X63498500Y-54838713D01*
X63498500Y-54647286D01*
X63500921Y-54622703D01*
X63501027Y-54622170D01*
X63503448Y-54610000D01*
X63483850Y-54511480D01*
X63483850Y-54511479D01*
X63428043Y-54427957D01*
X63417728Y-54421065D01*
X63417726Y-54421063D01*
X63417271Y-54420759D01*
X63398178Y-54405089D01*
X62124932Y-53131843D01*
X64298643Y-53131843D01*
X64307940Y-53143859D01*
X64364658Y-53183573D01*
X64374144Y-53189051D01*
X64575652Y-53283016D01*
X64585944Y-53286762D01*
X64800701Y-53344306D01*
X64811496Y-53346209D01*
X65002855Y-53362951D01*
X65036355Y-53376055D01*
X65049549Y-53367576D01*
X65074065Y-53362951D01*
X65265424Y-53346209D01*
X65276219Y-53344306D01*
X65490976Y-53286762D01*
X65501268Y-53283016D01*
X65702776Y-53189051D01*
X65712262Y-53183573D01*
X65769818Y-53143273D01*
X65778193Y-53132795D01*
X65771125Y-53119347D01*
X65051272Y-52399494D01*
X65037328Y-52391880D01*
X65035495Y-52392011D01*
X65028880Y-52396262D01*
X64305073Y-53120069D01*
X64298643Y-53131843D01*
X62124932Y-53131843D01*
X61769635Y-52776546D01*
X61735609Y-52714234D01*
X61733808Y-52671005D01*
X61744974Y-52586188D01*
X61746052Y-52578000D01*
X61727923Y-52440295D01*
X61720023Y-52421221D01*
X61677931Y-52319604D01*
X61674771Y-52311974D01*
X61590218Y-52201782D01*
X61480026Y-52117229D01*
X61404994Y-52086150D01*
X61359335Y-52067237D01*
X61359332Y-52067236D01*
X61351705Y-52064077D01*
X61343259Y-52062965D01*
X61282852Y-52055012D01*
X61214000Y-52045948D01*
X61145148Y-52055012D01*
X61084742Y-52062965D01*
X61076295Y-52064077D01*
X61068668Y-52067236D01*
X61068665Y-52067237D01*
X61023006Y-52086150D01*
X60947974Y-52117229D01*
X60837782Y-52201782D01*
X60753229Y-52311974D01*
X60750069Y-52319604D01*
X60707978Y-52421221D01*
X60700077Y-52440295D01*
X60681948Y-52578000D01*
X59285089Y-52578000D01*
X59830142Y-52032947D01*
X63700345Y-52032947D01*
X63719723Y-52254436D01*
X63721626Y-52265231D01*
X63779170Y-52479988D01*
X63782916Y-52490280D01*
X63876881Y-52691788D01*
X63882359Y-52701274D01*
X63922659Y-52758830D01*
X63933137Y-52767205D01*
X63946585Y-52760137D01*
X64666438Y-52040284D01*
X64672816Y-52028604D01*
X65402868Y-52028604D01*
X65402999Y-52030437D01*
X65407250Y-52037052D01*
X66131057Y-52760859D01*
X66142831Y-52767289D01*
X66154847Y-52757992D01*
X66194561Y-52701274D01*
X66200039Y-52691788D01*
X66294004Y-52490280D01*
X66297750Y-52479988D01*
X66355294Y-52265231D01*
X66357197Y-52254436D01*
X66376575Y-52032947D01*
X66376575Y-52021997D01*
X66357197Y-51800508D01*
X66355294Y-51789713D01*
X66297750Y-51574956D01*
X66294004Y-51564664D01*
X66200039Y-51363156D01*
X66194561Y-51353670D01*
X66154261Y-51296114D01*
X66143783Y-51287739D01*
X66130335Y-51294807D01*
X65410482Y-52014660D01*
X65402868Y-52028604D01*
X64672816Y-52028604D01*
X64674052Y-52026340D01*
X64673921Y-52024507D01*
X64669670Y-52017892D01*
X63945863Y-51294085D01*
X63934089Y-51287655D01*
X63922073Y-51296952D01*
X63882359Y-51353670D01*
X63876881Y-51363156D01*
X63782916Y-51564664D01*
X63779170Y-51574956D01*
X63721626Y-51789713D01*
X63719723Y-51800508D01*
X63700345Y-52021997D01*
X63700345Y-52032947D01*
X59830142Y-52032947D01*
X59842178Y-52020911D01*
X59861271Y-52005241D01*
X59861726Y-52004937D01*
X59861728Y-52004935D01*
X59872043Y-51998043D01*
X59927850Y-51914521D01*
X59942500Y-51840870D01*
X59947447Y-51816000D01*
X59944921Y-51803300D01*
X59942500Y-51778719D01*
X59942500Y-50922149D01*
X64298727Y-50922149D01*
X64305795Y-50935597D01*
X65025648Y-51655450D01*
X65039592Y-51663064D01*
X65041425Y-51662933D01*
X65048040Y-51658682D01*
X65771847Y-50934875D01*
X65778277Y-50923101D01*
X65768980Y-50911085D01*
X65712262Y-50871371D01*
X65702776Y-50865893D01*
X65501268Y-50771928D01*
X65490976Y-50768182D01*
X65276219Y-50710638D01*
X65265423Y-50708734D01*
X65071913Y-50691805D01*
X65033242Y-50676679D01*
X65002503Y-50691623D01*
X64992550Y-50692895D01*
X64811497Y-50708734D01*
X64800701Y-50710638D01*
X64585944Y-50768182D01*
X64575652Y-50771928D01*
X64374144Y-50865893D01*
X64364658Y-50871371D01*
X64307102Y-50911671D01*
X64298727Y-50922149D01*
X59942500Y-50922149D01*
X59942500Y-49474102D01*
X64080942Y-49474102D01*
X64081458Y-49480246D01*
X64095554Y-49648104D01*
X64096581Y-49660339D01*
X64148096Y-49839992D01*
X64233524Y-50006218D01*
X64237347Y-50011042D01*
X64237350Y-50011046D01*
X64280646Y-50065671D01*
X64349612Y-50152684D01*
X64354306Y-50156679D01*
X64408055Y-50202423D01*
X64491938Y-50273814D01*
X64655081Y-50364991D01*
X64832827Y-50422744D01*
X64882132Y-50428623D01*
X64996488Y-50442260D01*
X65030952Y-50457006D01*
X65058067Y-50442754D01*
X65073227Y-50440655D01*
X65119118Y-50437124D01*
X65204747Y-50430535D01*
X65384756Y-50380276D01*
X65390245Y-50377503D01*
X65390251Y-50377501D01*
X65467619Y-50338419D01*
X65551574Y-50296010D01*
X65559001Y-50290208D01*
X65669979Y-50203501D01*
X65698847Y-50180947D01*
X65702873Y-50176283D01*
X65702876Y-50176280D01*
X65810294Y-50051835D01*
X65820967Y-50039470D01*
X65913281Y-49876967D01*
X65917391Y-49864614D01*
X65956406Y-49747329D01*
X65972274Y-49699629D01*
X65993668Y-49530282D01*
X65995256Y-49517713D01*
X65995257Y-49517704D01*
X65995698Y-49514210D01*
X65996071Y-49487472D01*
X65977833Y-49301471D01*
X65973879Y-49288373D01*
X65928379Y-49137672D01*
X65923815Y-49122555D01*
X65836075Y-48957538D01*
X65800024Y-48913335D01*
X65721848Y-48817482D01*
X65721845Y-48817479D01*
X65717953Y-48812707D01*
X65713204Y-48808778D01*
X65578699Y-48697506D01*
X65578696Y-48697504D01*
X65573949Y-48693577D01*
X65409549Y-48604686D01*
X65294942Y-48569209D01*
X65236901Y-48551242D01*
X65236898Y-48551241D01*
X65231014Y-48549420D01*
X65224889Y-48548776D01*
X65224888Y-48548776D01*
X65051273Y-48530528D01*
X65051272Y-48530528D01*
X65045145Y-48529884D01*
X64926547Y-48540678D01*
X64865163Y-48546264D01*
X64865162Y-48546264D01*
X64859022Y-48546823D01*
X64853108Y-48548564D01*
X64853106Y-48548564D01*
X64782961Y-48569209D01*
X64679733Y-48599591D01*
X64514107Y-48686177D01*
X64368455Y-48803285D01*
X64248322Y-48946453D01*
X64245359Y-48951842D01*
X64245356Y-48951847D01*
X64187336Y-49057386D01*
X64158286Y-49110229D01*
X64156425Y-49116096D01*
X64156424Y-49116098D01*
X64145339Y-49151043D01*
X64101775Y-49288373D01*
X64080942Y-49474102D01*
X59942500Y-49474102D01*
X59942500Y-46934102D01*
X64080942Y-46934102D01*
X64081458Y-46940246D01*
X64095402Y-47106295D01*
X64096581Y-47120339D01*
X64098279Y-47126260D01*
X64098279Y-47126261D01*
X64100355Y-47133500D01*
X64148096Y-47299992D01*
X64233524Y-47466218D01*
X64237347Y-47471042D01*
X64237350Y-47471046D01*
X64309249Y-47561759D01*
X64349612Y-47612684D01*
X64354306Y-47616679D01*
X64486229Y-47728955D01*
X64491938Y-47733814D01*
X64655081Y-47824991D01*
X64832827Y-47882744D01*
X65018405Y-47904873D01*
X65024540Y-47904401D01*
X65024542Y-47904401D01*
X65084894Y-47899757D01*
X65204747Y-47890535D01*
X65384756Y-47840276D01*
X65390245Y-47837503D01*
X65390251Y-47837501D01*
X65482678Y-47790812D01*
X65551574Y-47756010D01*
X65557886Y-47751079D01*
X65613112Y-47707931D01*
X65698847Y-47640947D01*
X65702873Y-47636283D01*
X65702876Y-47636280D01*
X65791675Y-47533405D01*
X65820967Y-47499470D01*
X65886141Y-47384743D01*
X65910238Y-47342324D01*
X65910239Y-47342323D01*
X65913281Y-47336967D01*
X65927551Y-47294072D01*
X65960770Y-47194211D01*
X65972274Y-47159629D01*
X65980706Y-47092883D01*
X65995256Y-46977713D01*
X65995257Y-46977704D01*
X65995698Y-46974210D01*
X65996071Y-46947472D01*
X65977833Y-46761471D01*
X65974578Y-46750688D01*
X65940459Y-46637682D01*
X65923815Y-46582555D01*
X65836075Y-46417538D01*
X65800210Y-46373563D01*
X65721848Y-46277482D01*
X65721845Y-46277479D01*
X65717953Y-46272707D01*
X65713204Y-46268778D01*
X65578699Y-46157506D01*
X65578696Y-46157504D01*
X65573949Y-46153577D01*
X65409549Y-46064686D01*
X65320282Y-46037053D01*
X65236901Y-46011242D01*
X65236898Y-46011241D01*
X65231014Y-46009420D01*
X65224889Y-46008776D01*
X65224888Y-46008776D01*
X65051273Y-45990528D01*
X65051272Y-45990528D01*
X65045145Y-45989884D01*
X64955792Y-45998016D01*
X64865163Y-46006264D01*
X64865162Y-46006264D01*
X64859022Y-46006823D01*
X64853108Y-46008564D01*
X64853106Y-46008564D01*
X64741900Y-46041294D01*
X64679733Y-46059591D01*
X64674268Y-46062448D01*
X64622193Y-46089672D01*
X64514107Y-46146177D01*
X64368455Y-46263285D01*
X64248322Y-46406453D01*
X64245359Y-46411842D01*
X64245356Y-46411847D01*
X64171969Y-46545340D01*
X64158286Y-46570229D01*
X64156425Y-46576096D01*
X64156424Y-46576098D01*
X64154376Y-46582555D01*
X64101775Y-46748373D01*
X64080942Y-46934102D01*
X59942500Y-46934102D01*
X59942500Y-44832711D01*
X59962502Y-44764590D01*
X59979405Y-44743616D01*
X60328919Y-44394102D01*
X64080942Y-44394102D01*
X64081458Y-44400246D01*
X64095402Y-44566295D01*
X64096581Y-44580339D01*
X64098279Y-44586260D01*
X64098279Y-44586261D01*
X64103975Y-44606124D01*
X64148096Y-44759992D01*
X64169621Y-44801876D01*
X64213727Y-44887696D01*
X64233524Y-44926218D01*
X64237347Y-44931042D01*
X64237350Y-44931046D01*
X64286776Y-44993405D01*
X64349612Y-45072684D01*
X64354306Y-45076679D01*
X64485046Y-45187948D01*
X64491938Y-45193814D01*
X64655081Y-45284991D01*
X64832827Y-45342744D01*
X65018405Y-45364873D01*
X65024540Y-45364401D01*
X65024542Y-45364401D01*
X65080579Y-45360089D01*
X65204747Y-45350535D01*
X65384756Y-45300276D01*
X65390245Y-45297503D01*
X65390251Y-45297501D01*
X65491491Y-45246360D01*
X65551574Y-45216010D01*
X65565668Y-45204999D01*
X65613112Y-45167931D01*
X65698847Y-45100947D01*
X65702873Y-45096283D01*
X65702876Y-45096280D01*
X65801400Y-44982138D01*
X65820967Y-44959470D01*
X65887019Y-44843197D01*
X65910238Y-44802324D01*
X65910239Y-44802323D01*
X65913281Y-44796967D01*
X65924052Y-44764590D01*
X65946931Y-44695812D01*
X65972274Y-44619629D01*
X65989939Y-44479800D01*
X65995256Y-44437713D01*
X65995257Y-44437704D01*
X65995698Y-44434210D01*
X65996071Y-44407472D01*
X65977833Y-44221471D01*
X65973879Y-44208373D01*
X65928567Y-44058295D01*
X65923815Y-44042555D01*
X65836075Y-43877538D01*
X65788970Y-43819782D01*
X65721848Y-43737482D01*
X65721845Y-43737479D01*
X65717953Y-43732707D01*
X65713204Y-43728778D01*
X65578699Y-43617506D01*
X65578696Y-43617504D01*
X65573949Y-43613577D01*
X65409549Y-43524686D01*
X65320281Y-43497053D01*
X65236901Y-43471242D01*
X65236898Y-43471241D01*
X65231014Y-43469420D01*
X65224889Y-43468776D01*
X65224888Y-43468776D01*
X65051273Y-43450528D01*
X65051272Y-43450528D01*
X65045145Y-43449884D01*
X64926547Y-43460678D01*
X64865163Y-43466264D01*
X64865162Y-43466264D01*
X64859022Y-43466823D01*
X64853108Y-43468564D01*
X64853106Y-43468564D01*
X64730926Y-43504524D01*
X64679733Y-43519591D01*
X64514107Y-43606177D01*
X64368455Y-43723285D01*
X64248322Y-43866453D01*
X64245359Y-43871842D01*
X64245356Y-43871847D01*
X64171969Y-44005340D01*
X64158286Y-44030229D01*
X64101775Y-44208373D01*
X64080942Y-44394102D01*
X60328919Y-44394102D01*
X62223526Y-42499495D01*
X62868919Y-41854102D01*
X64080942Y-41854102D01*
X64081458Y-41860246D01*
X64092554Y-41992379D01*
X64096581Y-42040339D01*
X64148096Y-42219992D01*
X64233524Y-42386218D01*
X64237347Y-42391042D01*
X64237350Y-42391046D01*
X64342630Y-42523874D01*
X64349612Y-42532684D01*
X64354306Y-42536679D01*
X64481944Y-42645308D01*
X64491938Y-42653814D01*
X64655081Y-42744991D01*
X64832827Y-42802744D01*
X65018405Y-42824873D01*
X65024540Y-42824401D01*
X65024542Y-42824401D01*
X65089053Y-42819437D01*
X65204747Y-42810535D01*
X65384756Y-42760276D01*
X65390245Y-42757503D01*
X65390251Y-42757501D01*
X65485287Y-42709494D01*
X65551574Y-42676010D01*
X65578653Y-42654854D01*
X65631594Y-42613491D01*
X65698847Y-42560947D01*
X65702873Y-42556283D01*
X65702876Y-42556280D01*
X65816940Y-42424135D01*
X65820967Y-42419470D01*
X65913281Y-42256967D01*
X65927551Y-42214072D01*
X65956832Y-42126049D01*
X65972274Y-42079629D01*
X65985462Y-41975238D01*
X65995256Y-41897713D01*
X65995257Y-41897704D01*
X65995698Y-41894210D01*
X65996071Y-41867472D01*
X65977833Y-41681471D01*
X65973879Y-41668373D01*
X65925596Y-41508455D01*
X65923815Y-41502555D01*
X65836075Y-41337538D01*
X65831434Y-41331847D01*
X65721848Y-41197482D01*
X65721845Y-41197479D01*
X65717953Y-41192707D01*
X65713204Y-41188778D01*
X65578699Y-41077506D01*
X65578696Y-41077504D01*
X65573949Y-41073577D01*
X65409549Y-40984686D01*
X65271098Y-40941828D01*
X65236901Y-40931242D01*
X65236898Y-40931241D01*
X65231014Y-40929420D01*
X65224889Y-40928776D01*
X65224888Y-40928776D01*
X65051273Y-40910528D01*
X65051272Y-40910528D01*
X65045145Y-40909884D01*
X64926547Y-40920678D01*
X64865163Y-40926264D01*
X64865162Y-40926264D01*
X64859022Y-40926823D01*
X64853108Y-40928564D01*
X64853106Y-40928564D01*
X64750904Y-40958644D01*
X64679733Y-40979591D01*
X64674268Y-40982448D01*
X64604019Y-41019173D01*
X64514107Y-41066177D01*
X64368455Y-41183285D01*
X64248322Y-41326453D01*
X64245359Y-41331842D01*
X64245356Y-41331847D01*
X64181137Y-41448662D01*
X64158286Y-41490229D01*
X64101775Y-41668373D01*
X64080942Y-41854102D01*
X62868919Y-41854102D01*
X64499782Y-40223238D01*
X64562094Y-40189212D01*
X64632909Y-40194277D01*
X64647311Y-40200940D01*
X64649701Y-40201984D01*
X64655081Y-40204991D01*
X64832827Y-40262744D01*
X65018405Y-40284873D01*
X65024540Y-40284401D01*
X65024542Y-40284401D01*
X65080579Y-40280089D01*
X65204747Y-40270535D01*
X65384756Y-40220276D01*
X65390245Y-40217503D01*
X65390251Y-40217501D01*
X65489840Y-40167194D01*
X65551574Y-40136010D01*
X65562796Y-40127243D01*
X65617269Y-40084683D01*
X65698847Y-40020947D01*
X65702873Y-40016283D01*
X65702876Y-40016280D01*
X65805102Y-39897850D01*
X65820967Y-39879470D01*
X65873270Y-39787400D01*
X65910238Y-39722324D01*
X65910239Y-39722323D01*
X65913281Y-39716967D01*
X65924383Y-39683595D01*
X65970327Y-39545481D01*
X65972274Y-39539629D01*
X65983984Y-39446936D01*
X65995256Y-39357713D01*
X65995257Y-39357704D01*
X65995698Y-39354210D01*
X65996071Y-39327472D01*
X65977833Y-39141471D01*
X65973879Y-39128373D01*
X65939778Y-39015427D01*
X65923815Y-38962555D01*
X65836075Y-38797538D01*
X65746030Y-38687132D01*
X65721848Y-38657482D01*
X65721845Y-38657479D01*
X65717953Y-38652707D01*
X65713204Y-38648778D01*
X65663912Y-38608000D01*
X66269948Y-38608000D01*
X66288077Y-38745705D01*
X66291236Y-38753332D01*
X66291237Y-38753335D01*
X66314653Y-38809866D01*
X66341229Y-38874026D01*
X66425782Y-38984218D01*
X66432332Y-38989244D01*
X66437593Y-38994505D01*
X66471620Y-39056816D01*
X66474500Y-39083602D01*
X66474500Y-46970206D01*
X66474020Y-46981189D01*
X66470713Y-47018984D01*
X66479063Y-47050144D01*
X66480534Y-47055635D01*
X66482913Y-47066367D01*
X66489503Y-47103739D01*
X66495014Y-47113285D01*
X66496240Y-47116653D01*
X66497754Y-47119899D01*
X66500606Y-47130543D01*
X66522377Y-47161635D01*
X66528275Y-47170894D01*
X66547250Y-47203760D01*
X66555695Y-47210846D01*
X66576329Y-47228160D01*
X66584433Y-47235587D01*
X68207418Y-48858573D01*
X68214845Y-48866677D01*
X68239240Y-48895750D01*
X68248787Y-48901262D01*
X68252788Y-48904619D01*
X68260892Y-48912046D01*
X70620418Y-51271573D01*
X70627845Y-51279677D01*
X70652240Y-51308750D01*
X70661786Y-51314261D01*
X70661788Y-51314263D01*
X70685102Y-51327723D01*
X70694371Y-51333628D01*
X70725457Y-51355394D01*
X70736106Y-51358248D01*
X70739353Y-51359762D01*
X70742712Y-51360984D01*
X70752261Y-51366497D01*
X70782267Y-51371787D01*
X70789637Y-51373087D01*
X70800370Y-51375467D01*
X70826366Y-51382433D01*
X70826369Y-51382433D01*
X70837015Y-51385286D01*
X70874814Y-51381979D01*
X70885796Y-51381500D01*
X71868313Y-51381500D01*
X71936434Y-51401502D01*
X71968276Y-51430797D01*
X71987782Y-51456218D01*
X71994332Y-51461244D01*
X71994333Y-51461245D01*
X71997246Y-51463480D01*
X72097974Y-51540771D01*
X72149226Y-51562000D01*
X72218665Y-51590763D01*
X72218668Y-51590764D01*
X72226295Y-51593923D01*
X72364000Y-51612052D01*
X72372188Y-51610974D01*
X72493517Y-51595001D01*
X72501705Y-51593923D01*
X72509332Y-51590764D01*
X72509335Y-51590763D01*
X72578774Y-51562000D01*
X72630026Y-51540771D01*
X72740218Y-51456218D01*
X72824771Y-51346026D01*
X72877923Y-51217705D01*
X72896052Y-51080000D01*
X72877923Y-50942295D01*
X72869579Y-50922149D01*
X72827931Y-50821604D01*
X72824771Y-50813974D01*
X72740218Y-50703782D01*
X72630026Y-50619229D01*
X72565866Y-50592653D01*
X72509335Y-50569237D01*
X72509332Y-50569236D01*
X72501705Y-50566077D01*
X72489917Y-50564525D01*
X72372188Y-50549026D01*
X72364000Y-50547948D01*
X72355812Y-50549026D01*
X72238084Y-50564525D01*
X72226295Y-50566077D01*
X72218668Y-50569236D01*
X72218665Y-50569237D01*
X72162135Y-50592653D01*
X72097974Y-50619229D01*
X72065013Y-50644521D01*
X71991621Y-50700836D01*
X71925400Y-50726436D01*
X71910652Y-50726407D01*
X71910652Y-50726500D01*
X71053845Y-50726500D01*
X70985724Y-50706498D01*
X70964750Y-50689595D01*
X70216108Y-49940953D01*
X69458749Y-49183595D01*
X69424724Y-49121283D01*
X69429788Y-49050468D01*
X69472335Y-48993632D01*
X69538855Y-48968821D01*
X69547844Y-48968500D01*
X72583155Y-48968500D01*
X72651276Y-48988502D01*
X72672251Y-49005405D01*
X73250622Y-49583777D01*
X73284647Y-49646089D01*
X73287526Y-49672872D01*
X73287526Y-49680312D01*
X73286448Y-49688500D01*
X73304577Y-49826205D01*
X73307736Y-49833832D01*
X73307737Y-49833835D01*
X73320465Y-49864562D01*
X73357729Y-49954526D01*
X73362756Y-49961077D01*
X73432397Y-50051835D01*
X73442282Y-50064718D01*
X73552474Y-50149271D01*
X73608617Y-50172526D01*
X73673165Y-50199263D01*
X73673168Y-50199264D01*
X73680795Y-50202423D01*
X73818500Y-50220552D01*
X73826688Y-50219474D01*
X73948017Y-50203501D01*
X73956205Y-50202423D01*
X73963832Y-50199264D01*
X73963835Y-50199263D01*
X74028383Y-50172526D01*
X74084526Y-50149271D01*
X74194718Y-50064718D01*
X74204604Y-50051835D01*
X74274244Y-49961077D01*
X74279271Y-49954526D01*
X74282430Y-49946899D01*
X74282433Y-49946894D01*
X74287242Y-49935283D01*
X74331790Y-49880001D01*
X74403651Y-49857500D01*
X75044756Y-49857500D01*
X75112877Y-49877502D01*
X75133851Y-49894405D01*
X79609050Y-54369605D01*
X79643076Y-54431917D01*
X79638011Y-54502732D01*
X79609050Y-54547795D01*
X79030426Y-55126419D01*
X79022323Y-55133845D01*
X78993250Y-55158240D01*
X78987737Y-55167789D01*
X78974275Y-55191106D01*
X78968377Y-55200365D01*
X78946606Y-55231457D01*
X78943754Y-55242101D01*
X78942240Y-55245347D01*
X78941014Y-55248715D01*
X78935503Y-55258261D01*
X78933589Y-55269117D01*
X78928913Y-55295633D01*
X78926536Y-55306356D01*
X78916713Y-55343016D01*
X78917674Y-55353999D01*
X78920020Y-55380811D01*
X78920500Y-55391794D01*
X78920500Y-56048329D01*
X78900498Y-56116450D01*
X78846842Y-56162943D01*
X78776568Y-56173047D01*
X78711988Y-56143553D01*
X78693628Y-56121316D01*
X78692771Y-56121974D01*
X78613241Y-56018328D01*
X78608218Y-56011782D01*
X78498026Y-55927229D01*
X78433866Y-55900653D01*
X78377335Y-55877237D01*
X78377332Y-55877236D01*
X78369705Y-55874077D01*
X78333238Y-55869276D01*
X78240188Y-55857026D01*
X78232000Y-55855948D01*
X78223812Y-55857026D01*
X78130763Y-55869276D01*
X78094295Y-55874077D01*
X78086668Y-55877236D01*
X78086665Y-55877237D01*
X78030134Y-55900653D01*
X77965974Y-55927229D01*
X77855782Y-56011782D01*
X77850759Y-56018328D01*
X77798676Y-56086204D01*
X77741338Y-56128071D01*
X77698713Y-56135500D01*
X74459286Y-56135500D01*
X74434703Y-56133079D01*
X74422000Y-56130552D01*
X74338786Y-56147105D01*
X74323479Y-56150150D01*
X74313162Y-56157044D01*
X74313161Y-56157044D01*
X74289211Y-56173047D01*
X74239957Y-56205957D01*
X74233065Y-56216272D01*
X74233063Y-56216274D01*
X74232757Y-56216732D01*
X74217092Y-56235820D01*
X73253824Y-57199087D01*
X73234737Y-57214751D01*
X73234282Y-57215055D01*
X73234280Y-57215057D01*
X73223965Y-57221949D01*
X73217072Y-57232265D01*
X73214920Y-57235486D01*
X73168158Y-57305471D01*
X73166916Y-57311714D01*
X73165736Y-57317644D01*
X73165736Y-57317645D01*
X73160046Y-57346245D01*
X73127138Y-57409154D01*
X73085801Y-57437602D01*
X73060763Y-57448256D01*
X73043108Y-57455768D01*
X73037220Y-57460101D01*
X73037215Y-57460104D01*
X72912375Y-57551976D01*
X72912371Y-57551980D01*
X72906476Y-57556318D01*
X72796641Y-57685603D01*
X72719493Y-57836687D01*
X72717753Y-57843797D01*
X72717752Y-57843800D01*
X72699933Y-57916622D01*
X72679171Y-58001468D01*
X72678508Y-58012156D01*
X72678508Y-58684483D01*
X72682792Y-58721229D01*
X72692064Y-58800755D01*
X72693200Y-58810501D01*
X72695696Y-58817376D01*
X72695696Y-58817378D01*
X72746131Y-58956323D01*
X72751082Y-58969962D01*
X72844096Y-59111832D01*
X72967251Y-59228498D01*
X73113943Y-59313703D01*
X73120947Y-59315824D01*
X73120951Y-59315826D01*
X73216128Y-59344652D01*
X73276302Y-59362877D01*
X73445618Y-59373381D01*
X73452834Y-59372141D01*
X73452836Y-59372141D01*
X73605594Y-59345892D01*
X73612810Y-59344652D01*
X73768908Y-59278232D01*
X73774796Y-59273899D01*
X73774801Y-59273896D01*
X73899641Y-59182024D01*
X73899645Y-59182020D01*
X73905540Y-59177682D01*
X74015375Y-59048397D01*
X74092523Y-58897313D01*
X74092659Y-58897383D01*
X74133028Y-58843350D01*
X74199524Y-58818476D01*
X74268913Y-58833501D01*
X74319163Y-58883655D01*
X74329538Y-58908677D01*
X74370880Y-59049599D01*
X74375310Y-59060675D01*
X74466627Y-59237978D01*
X74473077Y-59248024D01*
X74596270Y-59404857D01*
X74604507Y-59413506D01*
X74755131Y-59544212D01*
X74764855Y-59551147D01*
X74937475Y-59651010D01*
X74948339Y-59655984D01*
X75136735Y-59721407D01*
X75137724Y-59721648D01*
X75148016Y-59720180D01*
X75152008Y-59706615D01*
X75152008Y-59702402D01*
X75660008Y-59702402D01*
X75663981Y-59715933D01*
X75673407Y-59717288D01*
X75762545Y-59695806D01*
X75773840Y-59691917D01*
X75955390Y-59609371D01*
X75965732Y-59603424D01*
X76128405Y-59488032D01*
X76137433Y-59480239D01*
X76275350Y-59336169D01*
X76282746Y-59326804D01*
X76390929Y-59159259D01*
X76396425Y-59148655D01*
X76470969Y-58963688D01*
X76474363Y-58952230D01*
X76481828Y-58914005D01*
X76514516Y-58850981D01*
X76576087Y-58815634D01*
X76646995Y-58819187D01*
X76704726Y-58860511D01*
X76723931Y-58895163D01*
X76744646Y-58952230D01*
X76751082Y-58969962D01*
X76844096Y-59111832D01*
X76967251Y-59228498D01*
X77113943Y-59313703D01*
X77120947Y-59315824D01*
X77120951Y-59315826D01*
X77216128Y-59344652D01*
X77276302Y-59362877D01*
X77445618Y-59373381D01*
X77452834Y-59372141D01*
X77452836Y-59372141D01*
X77605594Y-59345892D01*
X77612810Y-59344652D01*
X77768908Y-59278232D01*
X77774796Y-59273899D01*
X77774801Y-59273896D01*
X77899641Y-59182024D01*
X77899645Y-59182020D01*
X77905540Y-59177682D01*
X78015375Y-59048397D01*
X78092523Y-58897313D01*
X78094572Y-58888942D01*
X78123378Y-58771221D01*
X78132845Y-58732532D01*
X78133508Y-58721844D01*
X78133508Y-58049517D01*
X78118816Y-57923499D01*
X78110468Y-57900499D01*
X78063430Y-57770914D01*
X78063430Y-57770913D01*
X78060934Y-57764038D01*
X77967920Y-57622168D01*
X77844765Y-57505502D01*
X77698073Y-57420297D01*
X77691069Y-57418176D01*
X77691065Y-57418174D01*
X77542720Y-57373245D01*
X77542721Y-57373245D01*
X77535714Y-57371123D01*
X77366398Y-57360619D01*
X77359182Y-57361859D01*
X77359180Y-57361859D01*
X77206422Y-57388108D01*
X77199206Y-57389348D01*
X77043108Y-57455768D01*
X77037220Y-57460101D01*
X77037215Y-57460104D01*
X76912375Y-57551976D01*
X76912371Y-57551980D01*
X76906476Y-57556318D01*
X76796641Y-57685603D01*
X76719493Y-57836687D01*
X76719357Y-57836617D01*
X76678988Y-57890650D01*
X76612492Y-57915524D01*
X76543103Y-57900499D01*
X76492853Y-57850345D01*
X76482478Y-57825323D01*
X76441136Y-57684401D01*
X76436706Y-57673325D01*
X76345389Y-57496022D01*
X76338939Y-57485976D01*
X76215746Y-57329143D01*
X76207509Y-57320494D01*
X76056885Y-57189788D01*
X76047161Y-57182853D01*
X75874541Y-57082990D01*
X75863677Y-57078016D01*
X75675281Y-57012593D01*
X75674292Y-57012352D01*
X75664000Y-57013820D01*
X75660008Y-57027385D01*
X75660008Y-59702402D01*
X75152008Y-59702402D01*
X75152008Y-57031598D01*
X75148035Y-57018067D01*
X75138609Y-57016712D01*
X75049471Y-57038194D01*
X75038176Y-57042083D01*
X74856626Y-57124629D01*
X74846284Y-57130576D01*
X74683611Y-57245968D01*
X74674583Y-57253761D01*
X74536666Y-57397831D01*
X74529270Y-57407196D01*
X74421087Y-57574741D01*
X74415591Y-57585345D01*
X74341047Y-57770312D01*
X74337653Y-57781770D01*
X74330188Y-57819995D01*
X74297500Y-57883019D01*
X74235929Y-57918366D01*
X74165021Y-57914813D01*
X74107290Y-57873489D01*
X74088085Y-57838837D01*
X74063430Y-57770914D01*
X74063430Y-57770913D01*
X74060934Y-57764038D01*
X73967920Y-57622168D01*
X73844765Y-57505502D01*
X73847025Y-57503117D01*
X73813227Y-57457883D01*
X73808226Y-57387063D01*
X73842227Y-57324862D01*
X74489684Y-56677405D01*
X74551996Y-56643379D01*
X74578779Y-56640500D01*
X77698713Y-56640500D01*
X77766834Y-56660502D01*
X77798676Y-56689796D01*
X77850759Y-56757672D01*
X77855782Y-56764218D01*
X77965974Y-56848771D01*
X78012383Y-56867994D01*
X78086665Y-56898763D01*
X78086668Y-56898764D01*
X78094295Y-56901923D01*
X78102483Y-56903001D01*
X78152677Y-56909609D01*
X78232000Y-56920052D01*
X78240188Y-56918974D01*
X78361517Y-56903001D01*
X78369705Y-56901923D01*
X78377332Y-56898764D01*
X78377335Y-56898763D01*
X78451617Y-56867994D01*
X78498026Y-56848771D01*
X78608218Y-56764218D01*
X78614262Y-56756342D01*
X78692771Y-56654026D01*
X78694863Y-56655631D01*
X78736760Y-56615679D01*
X78806474Y-56602241D01*
X78872385Y-56628626D01*
X78913569Y-56686457D01*
X78920500Y-56727671D01*
X78920500Y-59162206D01*
X78920020Y-59173189D01*
X78916713Y-59210984D01*
X78923602Y-59236692D01*
X78926534Y-59247635D01*
X78928913Y-59258367D01*
X78935503Y-59295739D01*
X78941014Y-59305285D01*
X78942240Y-59308653D01*
X78943754Y-59311899D01*
X78946606Y-59322543D01*
X78968377Y-59353635D01*
X78974275Y-59362894D01*
X78993250Y-59395760D01*
X79011476Y-59411053D01*
X79022322Y-59420154D01*
X79030426Y-59427581D01*
X79330750Y-59727905D01*
X79364776Y-59790217D01*
X79359711Y-59861032D01*
X79330750Y-59906095D01*
X78133251Y-61103595D01*
X78070939Y-61137620D01*
X78044156Y-61140500D01*
X72577846Y-61140500D01*
X72509725Y-61120498D01*
X72488751Y-61103596D01*
X71770413Y-60385259D01*
X71736388Y-60322946D01*
X71733508Y-60296163D01*
X71733508Y-59368000D01*
X71753510Y-59299879D01*
X71784824Y-59266519D01*
X71905540Y-59177682D01*
X72015375Y-59048397D01*
X72092523Y-58897313D01*
X72094572Y-58888942D01*
X72123378Y-58771221D01*
X72132845Y-58732532D01*
X72133508Y-58721844D01*
X72133508Y-58049517D01*
X72118816Y-57923499D01*
X72110468Y-57900499D01*
X72063430Y-57770914D01*
X72063430Y-57770913D01*
X72060934Y-57764038D01*
X71967920Y-57622168D01*
X71844765Y-57505502D01*
X71698073Y-57420297D01*
X71691069Y-57418176D01*
X71691065Y-57418174D01*
X71542720Y-57373245D01*
X71542721Y-57373245D01*
X71535714Y-57371123D01*
X71366398Y-57360619D01*
X71359182Y-57361859D01*
X71359180Y-57361859D01*
X71206422Y-57388108D01*
X71199206Y-57389348D01*
X71043108Y-57455768D01*
X71037220Y-57460101D01*
X71037215Y-57460104D01*
X70912375Y-57551976D01*
X70912371Y-57551980D01*
X70906476Y-57556318D01*
X70796641Y-57685603D01*
X70719493Y-57836687D01*
X70717753Y-57843797D01*
X70717752Y-57843800D01*
X70699933Y-57916622D01*
X70679171Y-58001468D01*
X70678508Y-58012156D01*
X70678508Y-58684483D01*
X70682792Y-58721229D01*
X70692064Y-58800755D01*
X70693200Y-58810501D01*
X70695696Y-58817376D01*
X70695696Y-58817378D01*
X70746131Y-58956323D01*
X70751082Y-58969962D01*
X70844096Y-59111832D01*
X70967251Y-59228498D01*
X71015794Y-59256694D01*
X71064652Y-59308203D01*
X71078508Y-59365647D01*
X71078508Y-60464214D01*
X71078028Y-60475197D01*
X71074721Y-60512992D01*
X71077574Y-60523639D01*
X71084542Y-60549643D01*
X71086921Y-60560375D01*
X71093511Y-60597747D01*
X71099022Y-60607293D01*
X71100248Y-60610661D01*
X71101762Y-60613907D01*
X71104614Y-60624551D01*
X71126385Y-60655643D01*
X71132283Y-60664902D01*
X71151258Y-60697768D01*
X71159703Y-60704854D01*
X71180330Y-60722162D01*
X71188435Y-60729589D01*
X72144425Y-61685580D01*
X72151850Y-61693683D01*
X72176240Y-61722750D01*
X72185789Y-61728263D01*
X72209099Y-61741721D01*
X72218367Y-61747626D01*
X72240426Y-61763071D01*
X72240428Y-61763072D01*
X72249457Y-61769394D01*
X72260101Y-61772246D01*
X72263347Y-61773760D01*
X72266715Y-61774986D01*
X72276261Y-61780497D01*
X72311310Y-61786677D01*
X72313633Y-61787087D01*
X72324356Y-61789464D01*
X72361016Y-61799287D01*
X72372000Y-61798326D01*
X72372001Y-61798326D01*
X72398811Y-61795980D01*
X72409794Y-61795500D01*
X78212206Y-61795500D01*
X78223189Y-61795980D01*
X78249999Y-61798326D01*
X78250000Y-61798326D01*
X78260984Y-61799287D01*
X78297644Y-61789464D01*
X78308367Y-61787087D01*
X78310690Y-61786677D01*
X78345739Y-61780497D01*
X78355285Y-61774986D01*
X78358653Y-61773760D01*
X78361899Y-61772246D01*
X78372543Y-61769394D01*
X78403635Y-61747623D01*
X78412894Y-61741725D01*
X78436211Y-61728263D01*
X78445760Y-61722750D01*
X78470160Y-61693671D01*
X78477587Y-61685567D01*
X80022173Y-60140982D01*
X80030277Y-60133555D01*
X80050905Y-60116246D01*
X80059350Y-60109160D01*
X80078323Y-60076298D01*
X80084228Y-60067028D01*
X80099671Y-60044973D01*
X80105994Y-60035943D01*
X80108848Y-60025292D01*
X80110363Y-60022042D01*
X80111584Y-60018687D01*
X80117097Y-60009139D01*
X80119011Y-59998285D01*
X80119012Y-59998282D01*
X80123688Y-59971760D01*
X80126064Y-59961042D01*
X80135886Y-59924384D01*
X80134925Y-59913400D01*
X80134952Y-59913092D01*
X80160815Y-59846973D01*
X80171378Y-59834976D01*
X80348126Y-59658229D01*
X80410438Y-59624204D01*
X80481254Y-59629269D01*
X80499712Y-59637966D01*
X80505974Y-59642771D01*
X80513598Y-59645929D01*
X80626665Y-59692763D01*
X80626668Y-59692764D01*
X80634295Y-59695923D01*
X80772000Y-59714052D01*
X80780188Y-59712974D01*
X80901517Y-59697001D01*
X80909705Y-59695923D01*
X80917332Y-59692764D01*
X80917335Y-59692763D01*
X80993387Y-59661261D01*
X81038026Y-59642771D01*
X81148218Y-59558218D01*
X81232771Y-59448026D01*
X81263878Y-59372927D01*
X81282763Y-59327335D01*
X81282764Y-59327332D01*
X81285923Y-59319705D01*
X81289068Y-59295820D01*
X81298835Y-59221631D01*
X81304052Y-59182000D01*
X81285923Y-59044295D01*
X81281325Y-59033193D01*
X81249484Y-58956323D01*
X81232771Y-58915974D01*
X81161745Y-58823411D01*
X81153241Y-58812328D01*
X81148218Y-58805782D01*
X81138082Y-58798004D01*
X81083786Y-58756342D01*
X81038026Y-58721229D01*
X80949313Y-58684483D01*
X80917335Y-58671237D01*
X80917332Y-58671236D01*
X80909705Y-58668077D01*
X80772000Y-58649948D01*
X80634295Y-58668077D01*
X80626668Y-58671236D01*
X80626665Y-58671237D01*
X80594687Y-58684483D01*
X80505974Y-58721229D01*
X80460214Y-58756342D01*
X80405919Y-58798004D01*
X80395782Y-58805782D01*
X80390754Y-58812334D01*
X80384916Y-58818173D01*
X80382643Y-58815901D01*
X80337521Y-58848841D01*
X80327530Y-58851970D01*
X80295558Y-58860536D01*
X80284843Y-58862911D01*
X80279520Y-58863850D01*
X80258318Y-58867588D01*
X80258315Y-58867589D01*
X80247461Y-58869503D01*
X80237913Y-58875016D01*
X80234558Y-58876237D01*
X80231308Y-58877752D01*
X80220657Y-58880606D01*
X80196797Y-58897313D01*
X80189572Y-58902372D01*
X80180302Y-58908277D01*
X80156988Y-58921737D01*
X80156986Y-58921739D01*
X80147440Y-58927250D01*
X80131968Y-58945689D01*
X80123045Y-58956323D01*
X80115618Y-58964427D01*
X79893695Y-59186350D01*
X79831383Y-59220376D01*
X79760568Y-59215311D01*
X79715505Y-59186350D01*
X79612405Y-59083250D01*
X79578379Y-59020938D01*
X79575500Y-58994155D01*
X79575500Y-55559845D01*
X79595502Y-55491724D01*
X79612405Y-55470749D01*
X80120004Y-54963151D01*
X80182316Y-54929126D01*
X80230969Y-54928160D01*
X80236223Y-54929086D01*
X80246956Y-54931464D01*
X80283616Y-54941287D01*
X80294600Y-54940326D01*
X80294601Y-54940326D01*
X80321411Y-54937980D01*
X80332394Y-54937500D01*
X82784206Y-54937500D01*
X82795189Y-54937980D01*
X82821999Y-54940326D01*
X82822000Y-54940326D01*
X82832984Y-54941287D01*
X82869644Y-54931464D01*
X82880367Y-54929087D01*
X82885624Y-54928160D01*
X82917739Y-54922497D01*
X82927285Y-54916986D01*
X82930653Y-54915760D01*
X82933899Y-54914246D01*
X82944543Y-54911394D01*
X82975635Y-54889623D01*
X82984894Y-54883725D01*
X83008211Y-54870263D01*
X83017760Y-54864750D01*
X83042155Y-54835677D01*
X83049581Y-54827573D01*
X83207277Y-54669878D01*
X83269589Y-54635853D01*
X83296372Y-54632974D01*
X83303812Y-54632974D01*
X83312000Y-54634052D01*
X83320188Y-54632974D01*
X83441517Y-54617001D01*
X83449705Y-54615923D01*
X83457332Y-54612764D01*
X83457335Y-54612763D01*
X83513866Y-54589347D01*
X83578026Y-54562771D01*
X83653919Y-54504536D01*
X83720138Y-54478937D01*
X83730621Y-54478500D01*
X84057398Y-54478500D01*
X84125519Y-54498502D01*
X84146495Y-54515407D01*
X84151756Y-54520668D01*
X84156782Y-54527218D01*
X84266974Y-54611771D01*
X84331134Y-54638347D01*
X84387665Y-54661763D01*
X84387668Y-54661764D01*
X84395295Y-54664923D01*
X84533000Y-54683052D01*
X84541188Y-54681974D01*
X84662517Y-54666001D01*
X84670705Y-54664923D01*
X84678332Y-54661764D01*
X84678335Y-54661763D01*
X84734865Y-54638347D01*
X84799026Y-54611771D01*
X84909218Y-54527218D01*
X84993771Y-54417026D01*
X85021584Y-54349878D01*
X85043763Y-54296335D01*
X85043764Y-54296332D01*
X85046923Y-54288705D01*
X85065052Y-54151000D01*
X85046923Y-54013295D01*
X84993771Y-53884974D01*
X84909218Y-53774782D01*
X84799026Y-53690229D01*
X84702025Y-53650050D01*
X84678335Y-53640237D01*
X84678332Y-53640236D01*
X84670705Y-53637077D01*
X84533000Y-53618948D01*
X84395295Y-53637077D01*
X84387668Y-53640236D01*
X84387665Y-53640237D01*
X84363975Y-53650050D01*
X84266974Y-53690229D01*
X84156782Y-53774782D01*
X84151756Y-53781332D01*
X84146495Y-53786593D01*
X84084184Y-53820620D01*
X84057398Y-53823500D01*
X83825336Y-53823500D01*
X83757215Y-53803498D01*
X83725373Y-53774203D01*
X83693244Y-53732331D01*
X83693240Y-53732327D01*
X83688218Y-53725782D01*
X83578026Y-53641229D01*
X83513429Y-53614472D01*
X83457335Y-53591237D01*
X83457332Y-53591236D01*
X83449705Y-53588077D01*
X83432501Y-53585812D01*
X83320188Y-53571026D01*
X83312000Y-53569948D01*
X83303812Y-53571026D01*
X83191500Y-53585812D01*
X83174295Y-53588077D01*
X83166668Y-53591236D01*
X83166665Y-53591237D01*
X83110571Y-53614472D01*
X83045974Y-53641229D01*
X82935782Y-53725782D01*
X82851229Y-53835974D01*
X82798077Y-53964295D01*
X82779948Y-54102000D01*
X82781026Y-54110188D01*
X82781026Y-54117628D01*
X82761024Y-54185749D01*
X82744123Y-54206722D01*
X82705252Y-54245594D01*
X82642940Y-54279620D01*
X82616155Y-54282500D01*
X80500445Y-54282500D01*
X80432324Y-54262498D01*
X80411350Y-54245595D01*
X78092544Y-51926789D01*
X75772737Y-49606983D01*
X75738711Y-49544671D01*
X75743776Y-49473856D01*
X75786323Y-49417020D01*
X75852843Y-49392209D01*
X75922217Y-49407300D01*
X75938536Y-49417925D01*
X75953974Y-49429771D01*
X76004637Y-49450756D01*
X76074665Y-49479763D01*
X76074668Y-49479764D01*
X76082295Y-49482923D01*
X76220000Y-49501052D01*
X76228188Y-49499974D01*
X76349517Y-49484001D01*
X76357705Y-49482923D01*
X76365332Y-49479764D01*
X76365335Y-49479763D01*
X76435363Y-49450756D01*
X76486026Y-49429771D01*
X76596218Y-49345218D01*
X76680771Y-49235026D01*
X76729611Y-49117116D01*
X76730763Y-49114335D01*
X76730764Y-49114332D01*
X76733923Y-49106705D01*
X76743510Y-49033887D01*
X76772231Y-48968960D01*
X76831495Y-48929868D01*
X76902487Y-48929023D01*
X76957526Y-48961238D01*
X80758828Y-52762540D01*
X80792854Y-52824852D01*
X80786142Y-52899852D01*
X80769238Y-52940662D01*
X80769237Y-52940665D01*
X80766077Y-52948295D01*
X80747948Y-53086000D01*
X80766077Y-53223705D01*
X80769236Y-53231332D01*
X80769237Y-53231335D01*
X80784010Y-53266999D01*
X80819229Y-53352026D01*
X80903782Y-53462218D01*
X81013974Y-53546771D01*
X81069929Y-53569948D01*
X81134665Y-53596763D01*
X81134668Y-53596764D01*
X81142295Y-53599923D01*
X81150483Y-53601001D01*
X81211148Y-53608988D01*
X81280000Y-53618052D01*
X81288188Y-53616974D01*
X81298033Y-53615678D01*
X81348852Y-53608988D01*
X81409517Y-53601001D01*
X81417705Y-53599923D01*
X81425332Y-53596764D01*
X81425335Y-53596763D01*
X81490071Y-53569948D01*
X81546026Y-53546771D01*
X81656218Y-53462218D01*
X81740771Y-53352026D01*
X81775990Y-53266999D01*
X81790763Y-53231335D01*
X81790764Y-53231332D01*
X81793923Y-53223705D01*
X81812052Y-53086000D01*
X81793923Y-52948295D01*
X81790762Y-52940662D01*
X81767347Y-52884134D01*
X81740771Y-52819974D01*
X81656218Y-52709782D01*
X81546026Y-52625229D01*
X81481866Y-52598653D01*
X81425335Y-52575237D01*
X81425332Y-52575236D01*
X81417705Y-52572077D01*
X81304455Y-52557168D01*
X81239529Y-52528446D01*
X81231807Y-52521341D01*
X76564288Y-47853822D01*
X76548618Y-47834729D01*
X76548314Y-47834274D01*
X76548312Y-47834272D01*
X76541420Y-47823957D01*
X76492663Y-47791379D01*
X76468216Y-47775044D01*
X76468215Y-47775044D01*
X76457898Y-47768150D01*
X76445729Y-47765729D01*
X76445728Y-47765729D01*
X76436874Y-47763968D01*
X76413885Y-47759395D01*
X76359377Y-47748552D01*
X76346674Y-47751079D01*
X76322091Y-47753500D01*
X74490455Y-47753500D01*
X74422334Y-47733498D01*
X74381335Y-47690499D01*
X74377931Y-47684604D01*
X74374771Y-47676974D01*
X74290218Y-47566782D01*
X74262130Y-47545229D01*
X74224789Y-47516577D01*
X74180026Y-47482229D01*
X74072866Y-47437842D01*
X74059335Y-47432237D01*
X74059332Y-47432236D01*
X74051705Y-47429077D01*
X73914000Y-47410948D01*
X73776295Y-47429077D01*
X73768668Y-47432236D01*
X73768665Y-47432237D01*
X73755134Y-47437842D01*
X73647974Y-47482229D01*
X73603211Y-47516577D01*
X73565871Y-47545229D01*
X73537782Y-47566782D01*
X73532759Y-47573328D01*
X73532756Y-47573331D01*
X73532367Y-47573838D01*
X73531930Y-47574157D01*
X73526914Y-47579173D01*
X73526131Y-47578390D01*
X73475026Y-47615702D01*
X73404155Y-47619921D01*
X73343313Y-47586224D01*
X72848908Y-47091819D01*
X72833237Y-47072724D01*
X72832939Y-47072277D01*
X72832937Y-47072275D01*
X72826043Y-47061957D01*
X72808364Y-47050144D01*
X72762610Y-47019573D01*
X72742521Y-47006150D01*
X72727214Y-47003105D01*
X72644000Y-46986552D01*
X72631297Y-46989079D01*
X72606714Y-46991500D01*
X69752779Y-46991500D01*
X69684658Y-46971498D01*
X69663684Y-46954595D01*
X69266916Y-46557827D01*
X69232890Y-46495515D01*
X69230011Y-46468732D01*
X69230011Y-45360974D01*
X69250013Y-45292853D01*
X69303669Y-45246360D01*
X69342252Y-45237967D01*
X69342000Y-45236052D01*
X69350188Y-45234974D01*
X69471517Y-45219001D01*
X69479705Y-45217923D01*
X69487332Y-45214764D01*
X69487335Y-45214763D01*
X69552071Y-45187948D01*
X69608026Y-45164771D01*
X69718218Y-45080218D01*
X69802771Y-44970026D01*
X69837391Y-44886446D01*
X69852763Y-44849335D01*
X69852764Y-44849332D01*
X69855923Y-44841705D01*
X69856401Y-44838073D01*
X69892244Y-44779268D01*
X69956104Y-44748246D01*
X70026599Y-44756674D01*
X70081346Y-44801876D01*
X70097486Y-44837218D01*
X70098077Y-44841705D01*
X70101236Y-44849332D01*
X70101237Y-44849335D01*
X70116609Y-44886446D01*
X70151229Y-44970026D01*
X70235782Y-45080218D01*
X70345974Y-45164771D01*
X70401929Y-45187948D01*
X70466665Y-45214763D01*
X70466668Y-45214764D01*
X70474295Y-45217923D01*
X70482483Y-45219001D01*
X70543148Y-45226988D01*
X70612000Y-45236052D01*
X70620188Y-45234974D01*
X70741517Y-45219001D01*
X70749705Y-45217923D01*
X70757332Y-45214764D01*
X70757335Y-45214763D01*
X70822071Y-45187948D01*
X70878026Y-45164771D01*
X70988218Y-45080218D01*
X71045324Y-45005796D01*
X71102662Y-44963929D01*
X71145287Y-44956500D01*
X74011221Y-44956500D01*
X74079342Y-44976502D01*
X74100316Y-44993405D01*
X78027089Y-48920178D01*
X78042759Y-48939271D01*
X78043063Y-48939726D01*
X78043065Y-48939728D01*
X78049957Y-48950043D01*
X78060273Y-48956936D01*
X78078269Y-48968960D01*
X78133479Y-49005850D01*
X78148786Y-49008895D01*
X78232000Y-49025448D01*
X78231167Y-49029638D01*
X78276773Y-49043029D01*
X78308615Y-49072323D01*
X78363782Y-49144218D01*
X78370328Y-49149241D01*
X78385313Y-49160739D01*
X78473974Y-49228771D01*
X78504891Y-49241577D01*
X78594665Y-49278763D01*
X78594668Y-49278764D01*
X78602295Y-49281923D01*
X78740000Y-49300052D01*
X78748188Y-49298974D01*
X78869517Y-49283001D01*
X78877705Y-49281923D01*
X78885332Y-49278764D01*
X78885335Y-49278763D01*
X78975109Y-49241577D01*
X79006026Y-49228771D01*
X79094687Y-49160739D01*
X79109672Y-49149241D01*
X79116218Y-49144218D01*
X79200771Y-49034026D01*
X79227347Y-48969865D01*
X79250763Y-48913335D01*
X79250764Y-48913332D01*
X79253923Y-48905705D01*
X79272052Y-48768000D01*
X79253923Y-48630295D01*
X79243316Y-48604686D01*
X79212563Y-48530443D01*
X79200771Y-48501974D01*
X79127842Y-48406931D01*
X79121241Y-48398328D01*
X79116218Y-48391782D01*
X79006026Y-48307229D01*
X78941866Y-48280653D01*
X78885335Y-48257237D01*
X78885332Y-48257236D01*
X78877705Y-48254077D01*
X78740000Y-48235948D01*
X78602295Y-48254077D01*
X78594668Y-48257236D01*
X78594665Y-48257237D01*
X78538135Y-48280653D01*
X78473974Y-48307229D01*
X78467423Y-48312256D01*
X78467418Y-48312259D01*
X78366057Y-48390036D01*
X78299837Y-48415637D01*
X78230288Y-48401372D01*
X78200258Y-48379169D01*
X77801864Y-47980775D01*
X77767838Y-47918463D01*
X77772903Y-47847648D01*
X77815450Y-47790812D01*
X77881970Y-47766001D01*
X77907404Y-47766758D01*
X77978000Y-47776052D01*
X77986188Y-47774974D01*
X78107517Y-47759001D01*
X78115705Y-47757923D01*
X78123332Y-47754764D01*
X78123335Y-47754763D01*
X78217520Y-47715750D01*
X78244026Y-47704771D01*
X78354218Y-47620218D01*
X78438771Y-47510026D01*
X78475485Y-47421390D01*
X78488763Y-47389335D01*
X78488764Y-47389332D01*
X78491923Y-47381705D01*
X78510052Y-47244000D01*
X78491923Y-47106295D01*
X78488762Y-47098662D01*
X78455758Y-47018984D01*
X78438771Y-46977974D01*
X78354218Y-46867782D01*
X78244026Y-46783229D01*
X78159439Y-46748192D01*
X78123335Y-46733237D01*
X78123332Y-46733236D01*
X78115705Y-46730077D01*
X77978000Y-46711948D01*
X77969812Y-46713026D01*
X77961554Y-46713026D01*
X77961554Y-46709822D01*
X77906331Y-46701217D01*
X77870926Y-46676323D01*
X77125139Y-45930536D01*
X77091113Y-45868224D01*
X77089312Y-45824995D01*
X77100478Y-45740178D01*
X77101556Y-45731990D01*
X77083427Y-45594285D01*
X77075301Y-45574665D01*
X77033435Y-45473594D01*
X77030275Y-45465964D01*
X76970783Y-45388432D01*
X76950745Y-45362318D01*
X76945722Y-45355772D01*
X76835530Y-45271219D01*
X76755252Y-45237967D01*
X76714839Y-45221227D01*
X76714836Y-45221226D01*
X76707209Y-45218067D01*
X76691585Y-45216010D01*
X76616135Y-45206077D01*
X76569504Y-45199938D01*
X76522873Y-45206077D01*
X76447424Y-45216010D01*
X76431799Y-45218067D01*
X76424172Y-45221226D01*
X76424169Y-45221227D01*
X76383756Y-45237967D01*
X76303478Y-45271219D01*
X76193286Y-45355772D01*
X76188263Y-45362318D01*
X76168225Y-45388432D01*
X76108733Y-45465964D01*
X76105573Y-45473594D01*
X76063708Y-45574665D01*
X76055581Y-45594285D01*
X76037452Y-45731990D01*
X76038530Y-45740178D01*
X76054003Y-45857705D01*
X76055581Y-45869695D01*
X76058740Y-45877322D01*
X76058741Y-45877325D01*
X76071123Y-45907217D01*
X76078712Y-45977807D01*
X76046932Y-46041294D01*
X75985874Y-46077521D01*
X75914923Y-46074987D01*
X75865619Y-46044530D01*
X74525089Y-44704000D01*
X78207948Y-44704000D01*
X78226077Y-44841705D01*
X78229236Y-44849332D01*
X78229237Y-44849335D01*
X78244609Y-44886446D01*
X78279229Y-44970026D01*
X78363782Y-45080218D01*
X78370328Y-45085241D01*
X78438204Y-45137324D01*
X78480071Y-45194662D01*
X78487500Y-45237287D01*
X78487500Y-46190714D01*
X78485079Y-46215296D01*
X78482552Y-46228000D01*
X78484973Y-46240171D01*
X78490510Y-46268006D01*
X78499105Y-46311214D01*
X78502150Y-46326521D01*
X78557957Y-46410043D01*
X78568272Y-46416935D01*
X78568274Y-46416937D01*
X78568729Y-46417241D01*
X78587822Y-46432911D01*
X79805089Y-47650178D01*
X79820759Y-47669271D01*
X79821063Y-47669726D01*
X79821065Y-47669728D01*
X79827957Y-47680043D01*
X79838273Y-47686936D01*
X79869695Y-47707931D01*
X79881397Y-47715750D01*
X79911479Y-47735850D01*
X79923650Y-47738271D01*
X79997297Y-47752921D01*
X80010000Y-47755448D01*
X80022704Y-47752921D01*
X80047286Y-47750500D01*
X80238713Y-47750500D01*
X80306834Y-47770502D01*
X80338676Y-47799796D01*
X80359470Y-47826895D01*
X80395782Y-47874218D01*
X80505974Y-47958771D01*
X80559097Y-47980775D01*
X80626665Y-48008763D01*
X80626668Y-48008764D01*
X80634295Y-48011923D01*
X80642483Y-48013001D01*
X80680652Y-48018026D01*
X80772000Y-48030052D01*
X80780188Y-48028974D01*
X80901517Y-48013001D01*
X80909705Y-48011923D01*
X80917332Y-48008764D01*
X80917335Y-48008763D01*
X80984903Y-47980775D01*
X81038026Y-47958771D01*
X81148218Y-47874218D01*
X81232771Y-47764026D01*
X81268829Y-47676974D01*
X81282763Y-47643335D01*
X81282764Y-47643332D01*
X81285923Y-47635705D01*
X81293366Y-47579173D01*
X81302974Y-47506188D01*
X81304052Y-47498000D01*
X81285923Y-47360295D01*
X81278480Y-47342324D01*
X81241144Y-47252188D01*
X81232771Y-47231974D01*
X81154941Y-47130543D01*
X81153241Y-47128328D01*
X81148218Y-47121782D01*
X81038026Y-47037229D01*
X80962994Y-47006150D01*
X80917335Y-46987237D01*
X80917332Y-46987236D01*
X80909705Y-46984077D01*
X80772000Y-46965948D01*
X80634295Y-46984077D01*
X80626668Y-46987236D01*
X80626665Y-46987237D01*
X80581006Y-47006150D01*
X80505974Y-47037229D01*
X80395782Y-47121782D01*
X80390759Y-47128328D01*
X80338676Y-47196204D01*
X80281338Y-47238071D01*
X80238713Y-47245500D01*
X80166779Y-47245500D01*
X80098658Y-47225498D01*
X80077684Y-47208595D01*
X79029405Y-46160316D01*
X78995379Y-46098004D01*
X78992500Y-46071221D01*
X78992500Y-45237287D01*
X79012502Y-45169166D01*
X79041796Y-45137324D01*
X79109672Y-45085241D01*
X79116218Y-45080218D01*
X79200771Y-44970026D01*
X79235391Y-44886446D01*
X79250763Y-44849335D01*
X79250764Y-44849332D01*
X79253923Y-44841705D01*
X79272052Y-44704000D01*
X79253923Y-44566295D01*
X79247929Y-44551822D01*
X79211439Y-44463730D01*
X79200771Y-44437974D01*
X79116218Y-44327782D01*
X79006026Y-44243229D01*
X78921876Y-44208373D01*
X78885335Y-44193237D01*
X78885332Y-44193236D01*
X78877705Y-44190077D01*
X78860501Y-44187812D01*
X78748188Y-44173026D01*
X78740000Y-44171948D01*
X78731812Y-44173026D01*
X78619500Y-44187812D01*
X78602295Y-44190077D01*
X78594668Y-44193236D01*
X78594665Y-44193237D01*
X78558124Y-44208373D01*
X78473974Y-44243229D01*
X78363782Y-44327782D01*
X78279229Y-44437974D01*
X78268561Y-44463730D01*
X78232072Y-44551822D01*
X78226077Y-44566295D01*
X78207948Y-44704000D01*
X74525089Y-44704000D01*
X74372911Y-44551822D01*
X74357241Y-44532729D01*
X74356937Y-44532274D01*
X74356935Y-44532272D01*
X74350043Y-44521957D01*
X74266521Y-44466150D01*
X74245788Y-44462026D01*
X74168000Y-44446552D01*
X74155297Y-44449079D01*
X74130714Y-44451500D01*
X71145287Y-44451500D01*
X71077166Y-44431498D01*
X71045324Y-44402204D01*
X70993241Y-44334328D01*
X70988218Y-44327782D01*
X70878026Y-44243229D01*
X70793876Y-44208373D01*
X70757335Y-44193237D01*
X70757332Y-44193236D01*
X70749705Y-44190077D01*
X70732501Y-44187812D01*
X70620188Y-44173026D01*
X70612000Y-44171948D01*
X70603812Y-44173026D01*
X70491500Y-44187812D01*
X70474295Y-44190077D01*
X70466668Y-44193236D01*
X70466665Y-44193237D01*
X70430124Y-44208373D01*
X70345974Y-44243229D01*
X70235782Y-44327782D01*
X70151229Y-44437974D01*
X70140561Y-44463730D01*
X70104072Y-44551822D01*
X70098077Y-44566295D01*
X70097599Y-44569927D01*
X70061756Y-44628732D01*
X69997896Y-44659754D01*
X69927401Y-44651326D01*
X69872654Y-44606124D01*
X69856514Y-44570782D01*
X69855923Y-44566295D01*
X69849929Y-44551822D01*
X69813439Y-44463730D01*
X69802771Y-44437974D01*
X69718218Y-44327782D01*
X69608026Y-44243229D01*
X69523876Y-44208373D01*
X69487335Y-44193237D01*
X69487332Y-44193236D01*
X69479705Y-44190077D01*
X69462501Y-44187812D01*
X69350188Y-44173026D01*
X69342000Y-44171948D01*
X69333812Y-44173026D01*
X69221500Y-44187812D01*
X69204295Y-44190077D01*
X69196668Y-44193236D01*
X69196665Y-44193237D01*
X69160124Y-44208373D01*
X69075974Y-44243229D01*
X68965782Y-44327782D01*
X68881229Y-44437974D01*
X68870561Y-44463730D01*
X68834072Y-44551822D01*
X68828077Y-44566295D01*
X68809948Y-44704000D01*
X68811026Y-44712188D01*
X68811026Y-44712189D01*
X68821776Y-44793847D01*
X68810836Y-44863996D01*
X68795183Y-44886256D01*
X68795468Y-44886446D01*
X68739661Y-44969968D01*
X68736823Y-44984234D01*
X68720063Y-45068489D01*
X68722484Y-45080659D01*
X68722590Y-45081192D01*
X68725011Y-45105775D01*
X68725011Y-46588225D01*
X68722590Y-46612807D01*
X68720063Y-46625511D01*
X68722484Y-46637682D01*
X68732614Y-46688606D01*
X68732614Y-46688608D01*
X68738714Y-46719275D01*
X68732386Y-46789989D01*
X68688831Y-46846056D01*
X68621879Y-46869675D01*
X68552785Y-46853348D01*
X68526040Y-46832951D01*
X67853405Y-46160316D01*
X67819379Y-46098004D01*
X67816500Y-46071221D01*
X67816500Y-43336779D01*
X67836502Y-43268658D01*
X67853405Y-43247684D01*
X67873454Y-43227635D01*
X67935766Y-43193609D01*
X67978995Y-43191808D01*
X68063812Y-43202974D01*
X68072000Y-43204052D01*
X68080188Y-43202974D01*
X68201517Y-43187001D01*
X68209705Y-43185923D01*
X68217332Y-43182764D01*
X68217335Y-43182763D01*
X68273866Y-43159347D01*
X68338026Y-43132771D01*
X68416673Y-43072423D01*
X68441672Y-43053241D01*
X68448218Y-43048218D01*
X68532771Y-42938026D01*
X68572277Y-42842650D01*
X68582763Y-42817335D01*
X68582764Y-42817332D01*
X68585923Y-42809705D01*
X68588885Y-42787210D01*
X68602974Y-42680188D01*
X68604052Y-42672000D01*
X68585923Y-42534295D01*
X68571509Y-42499495D01*
X68535931Y-42413604D01*
X68532771Y-42405974D01*
X68448218Y-42295782D01*
X68338026Y-42211229D01*
X68258521Y-42178297D01*
X68217335Y-42161237D01*
X68217332Y-42161236D01*
X68209705Y-42158077D01*
X68072000Y-42139948D01*
X67934295Y-42158077D01*
X67926668Y-42161236D01*
X67926665Y-42161237D01*
X67885479Y-42178297D01*
X67805974Y-42211229D01*
X67695782Y-42295782D01*
X67611229Y-42405974D01*
X67608069Y-42413604D01*
X67572492Y-42499495D01*
X67558077Y-42534295D01*
X67539948Y-42672000D01*
X67541026Y-42680188D01*
X67552192Y-42765005D01*
X67541252Y-42835154D01*
X67516365Y-42870546D01*
X67411822Y-42975089D01*
X67392729Y-42990759D01*
X67392274Y-42991063D01*
X67392272Y-42991065D01*
X67381957Y-42997957D01*
X67375064Y-43008273D01*
X67375063Y-43008274D01*
X67360265Y-43030421D01*
X67305788Y-43075949D01*
X67235345Y-43084797D01*
X67171301Y-43054156D01*
X67133990Y-42993754D01*
X67129500Y-42960419D01*
X67129500Y-41593997D01*
X80939945Y-41593997D01*
X80958074Y-41731702D01*
X81011226Y-41860023D01*
X81095779Y-41970215D01*
X81205971Y-42054768D01*
X81230454Y-42064909D01*
X81326662Y-42104760D01*
X81326665Y-42104761D01*
X81334292Y-42107920D01*
X81471997Y-42126049D01*
X81480185Y-42124971D01*
X81484766Y-42124368D01*
X81609702Y-42107920D01*
X81617329Y-42104761D01*
X81617332Y-42104760D01*
X81738023Y-42054768D01*
X81738625Y-42056220D01*
X81798525Y-42041689D01*
X81865617Y-42064909D01*
X81909504Y-42120716D01*
X81916253Y-42191391D01*
X81881625Y-42256641D01*
X81379679Y-42758587D01*
X81374895Y-42763128D01*
X81345837Y-42789292D01*
X81340451Y-42801390D01*
X81340450Y-42801391D01*
X81337486Y-42808049D01*
X81328051Y-42825427D01*
X81324078Y-42831544D01*
X81324077Y-42831546D01*
X81316866Y-42842650D01*
X81314795Y-42855729D01*
X81312953Y-42860526D01*
X81311886Y-42865546D01*
X81306500Y-42877643D01*
X81306500Y-42898182D01*
X81304949Y-42917891D01*
X81301737Y-42938172D01*
X81305164Y-42950961D01*
X81305857Y-42964189D01*
X81305404Y-42964213D01*
X81306500Y-42972537D01*
X81306500Y-43643530D01*
X81286498Y-43711651D01*
X81257204Y-43743493D01*
X81157782Y-43819782D01*
X81073229Y-43929974D01*
X81070069Y-43937604D01*
X81024153Y-44048455D01*
X81020077Y-44058295D01*
X81001948Y-44196000D01*
X81020077Y-44333705D01*
X81073229Y-44462026D01*
X81157782Y-44572218D01*
X81164328Y-44577241D01*
X81176083Y-44586261D01*
X81267974Y-44656771D01*
X81314233Y-44675932D01*
X81388665Y-44706763D01*
X81388668Y-44706764D01*
X81396295Y-44709923D01*
X81404483Y-44711001D01*
X81413507Y-44712189D01*
X81534000Y-44728052D01*
X81542188Y-44726974D01*
X81663517Y-44711001D01*
X81671705Y-44709923D01*
X81679332Y-44706764D01*
X81679335Y-44706763D01*
X81753767Y-44675932D01*
X81800026Y-44656771D01*
X81891917Y-44586261D01*
X81903672Y-44577241D01*
X81910218Y-44572218D01*
X81994771Y-44462026D01*
X82047923Y-44333705D01*
X82066052Y-44196000D01*
X82047923Y-44058295D01*
X82043848Y-44048455D01*
X81997931Y-43937604D01*
X81994771Y-43929974D01*
X81910218Y-43819782D01*
X81810796Y-43743493D01*
X81768929Y-43686155D01*
X81761500Y-43643530D01*
X81761500Y-43072423D01*
X81781502Y-43004302D01*
X81798405Y-42983328D01*
X84131329Y-40650405D01*
X84193641Y-40616379D01*
X84220424Y-40613500D01*
X87051764Y-40613500D01*
X87058357Y-40613673D01*
X87084158Y-40615025D01*
X87097384Y-40615718D01*
X87109746Y-40610973D01*
X87109751Y-40610972D01*
X87116561Y-40608358D01*
X87135512Y-40602744D01*
X87155600Y-40598474D01*
X87166312Y-40590691D01*
X87171005Y-40588602D01*
X87175312Y-40585805D01*
X87187673Y-40581060D01*
X87197037Y-40571696D01*
X87208056Y-40564540D01*
X87276080Y-40544213D01*
X87344296Y-40563890D01*
X87373943Y-40592249D01*
X87374684Y-40593839D01*
X87456352Y-40675507D01*
X87456355Y-40675509D01*
X89043595Y-42262750D01*
X89077621Y-42325062D01*
X89080500Y-42351845D01*
X89080500Y-42640763D01*
X89080020Y-42651746D01*
X89076713Y-42689541D01*
X89084480Y-42718525D01*
X89086534Y-42726192D01*
X89088913Y-42736924D01*
X89095503Y-42774296D01*
X89101014Y-42783842D01*
X89102240Y-42787210D01*
X89103754Y-42790456D01*
X89106606Y-42801100D01*
X89128377Y-42832192D01*
X89134275Y-42841451D01*
X89153250Y-42874317D01*
X89182322Y-42898711D01*
X89190427Y-42906138D01*
X89242107Y-42957819D01*
X89276132Y-43020132D01*
X89279011Y-43046914D01*
X89279011Y-46607500D01*
X89259009Y-46675621D01*
X89205353Y-46722114D01*
X89153011Y-46733500D01*
X88672517Y-46733500D01*
X88605565Y-46741306D01*
X88553769Y-46747344D01*
X88553766Y-46747345D01*
X88546499Y-46748192D01*
X88539624Y-46750688D01*
X88539622Y-46750688D01*
X88509916Y-46761471D01*
X88387038Y-46806074D01*
X88245168Y-46899088D01*
X88128502Y-47022243D01*
X88105435Y-47061957D01*
X88100307Y-47070785D01*
X88048797Y-47119644D01*
X87991353Y-47133500D01*
X87809297Y-47133500D01*
X87798315Y-47133021D01*
X87771493Y-47130674D01*
X87771491Y-47130674D01*
X87760516Y-47129714D01*
X87723858Y-47139536D01*
X87713143Y-47141911D01*
X87707287Y-47142944D01*
X87686618Y-47146588D01*
X87686615Y-47146589D01*
X87675761Y-47148503D01*
X87666213Y-47154016D01*
X87662858Y-47155237D01*
X87659608Y-47156752D01*
X87648957Y-47159606D01*
X87639926Y-47165929D01*
X87639927Y-47165929D01*
X87617872Y-47181372D01*
X87608602Y-47187277D01*
X87585288Y-47200737D01*
X87585286Y-47200739D01*
X87575740Y-47206250D01*
X87568654Y-47214695D01*
X87551345Y-47235323D01*
X87543918Y-47243427D01*
X86476672Y-48310674D01*
X85448725Y-49338621D01*
X85386413Y-49372646D01*
X85359630Y-49375526D01*
X85352189Y-49375526D01*
X85344000Y-49374448D01*
X85206295Y-49392577D01*
X85198668Y-49395736D01*
X85198665Y-49395737D01*
X85170750Y-49407300D01*
X85077974Y-49445729D01*
X85007280Y-49499974D01*
X84988728Y-49514210D01*
X84967782Y-49530282D01*
X84883229Y-49640474D01*
X84830077Y-49768795D01*
X84828999Y-49776983D01*
X84828207Y-49779939D01*
X84791256Y-49840562D01*
X84727395Y-49871584D01*
X84656901Y-49863156D01*
X84602154Y-49817954D01*
X84580500Y-49747329D01*
X84580500Y-48539287D01*
X84600502Y-48471166D01*
X84629796Y-48439324D01*
X84697672Y-48387241D01*
X84704218Y-48382218D01*
X84788771Y-48272026D01*
X84815347Y-48207866D01*
X84838763Y-48151335D01*
X84838764Y-48151332D01*
X84841923Y-48143705D01*
X84845731Y-48114784D01*
X84852202Y-48065627D01*
X84860052Y-48006000D01*
X84841923Y-47868295D01*
X84836321Y-47854769D01*
X84813550Y-47799796D01*
X84788771Y-47739974D01*
X84704218Y-47629782D01*
X84594026Y-47545229D01*
X84524854Y-47516577D01*
X84473335Y-47495237D01*
X84473332Y-47495236D01*
X84465705Y-47492077D01*
X84448501Y-47489812D01*
X84336188Y-47475026D01*
X84328000Y-47473948D01*
X84319812Y-47475026D01*
X84234995Y-47486192D01*
X84164846Y-47475252D01*
X84129454Y-47450365D01*
X83347405Y-46668316D01*
X83313379Y-46606004D01*
X83310500Y-46579221D01*
X83310500Y-46253287D01*
X83330502Y-46185166D01*
X83359796Y-46153324D01*
X83427672Y-46101241D01*
X83434218Y-46096218D01*
X83518771Y-45986026D01*
X83561354Y-45883221D01*
X83568763Y-45865335D01*
X83568764Y-45865332D01*
X83571923Y-45857705D01*
X83590052Y-45720000D01*
X83574579Y-45602473D01*
X83573001Y-45590483D01*
X83571923Y-45582295D01*
X83518771Y-45453974D01*
X83450402Y-45364873D01*
X83439241Y-45350328D01*
X83434218Y-45343782D01*
X83324026Y-45259229D01*
X83232281Y-45221227D01*
X83203335Y-45209237D01*
X83203332Y-45209236D01*
X83195705Y-45206077D01*
X83157263Y-45201016D01*
X83066188Y-45189026D01*
X83058000Y-45187948D01*
X83049812Y-45189026D01*
X82958738Y-45201016D01*
X82920295Y-45206077D01*
X82912668Y-45209236D01*
X82912665Y-45209237D01*
X82883719Y-45221227D01*
X82791974Y-45259229D01*
X82681782Y-45343782D01*
X82676759Y-45350328D01*
X82665598Y-45364873D01*
X82597229Y-45453974D01*
X82544077Y-45582295D01*
X82542999Y-45590483D01*
X82541421Y-45602473D01*
X82525948Y-45720000D01*
X82544077Y-45857705D01*
X82547236Y-45865332D01*
X82547237Y-45865335D01*
X82554646Y-45883221D01*
X82597229Y-45986026D01*
X82681782Y-46096218D01*
X82688328Y-46101241D01*
X82756204Y-46153324D01*
X82798071Y-46210662D01*
X82805500Y-46253287D01*
X82805500Y-46698714D01*
X82803079Y-46723296D01*
X82800552Y-46736000D01*
X82802973Y-46748170D01*
X82802973Y-46748174D01*
X82814785Y-46807551D01*
X82814786Y-46807554D01*
X82820150Y-46834521D01*
X82875957Y-46918043D01*
X82886272Y-46924935D01*
X82886274Y-46924937D01*
X82886729Y-46925241D01*
X82905822Y-46940911D01*
X83772365Y-47807454D01*
X83806391Y-47869766D01*
X83808192Y-47912995D01*
X83802710Y-47954636D01*
X83795948Y-48006000D01*
X83803798Y-48065627D01*
X83810270Y-48114784D01*
X83814077Y-48143705D01*
X83817236Y-48151332D01*
X83817237Y-48151335D01*
X83840653Y-48207866D01*
X83867229Y-48272026D01*
X83951782Y-48382218D01*
X83958328Y-48387241D01*
X84026204Y-48439324D01*
X84068071Y-48496662D01*
X84075500Y-48539287D01*
X84075500Y-50508714D01*
X84073079Y-50533296D01*
X84070552Y-50546000D01*
X84085119Y-50619229D01*
X84090150Y-50644521D01*
X84145957Y-50728043D01*
X84156272Y-50734935D01*
X84156274Y-50734937D01*
X84156729Y-50735241D01*
X84175822Y-50750911D01*
X85054595Y-51629684D01*
X85088621Y-51691996D01*
X85091500Y-51718779D01*
X85091500Y-52540714D01*
X85089079Y-52565296D01*
X85086552Y-52578000D01*
X85095947Y-52625229D01*
X85106150Y-52676521D01*
X85161957Y-52760043D01*
X85172272Y-52766935D01*
X85172274Y-52766937D01*
X85172729Y-52767241D01*
X85191822Y-52782911D01*
X85393089Y-52984178D01*
X85408759Y-53003271D01*
X85409063Y-53003726D01*
X85409065Y-53003728D01*
X85415957Y-53014043D01*
X85426272Y-53020935D01*
X85426276Y-53020939D01*
X85487651Y-53061948D01*
X85487653Y-53061948D01*
X85489164Y-53062958D01*
X85489165Y-53062959D01*
X85499479Y-53069850D01*
X85566777Y-53083237D01*
X85585297Y-53086921D01*
X85598000Y-53089448D01*
X85610704Y-53086921D01*
X85635286Y-53084500D01*
X87846714Y-53084500D01*
X87871296Y-53086921D01*
X87884000Y-53089448D01*
X87911137Y-53084050D01*
X87967214Y-53072895D01*
X87982521Y-53069850D01*
X87994348Y-53061948D01*
X88055727Y-53020936D01*
X88066043Y-53014043D01*
X88072935Y-53003728D01*
X88072937Y-53003726D01*
X88073241Y-53003271D01*
X88088911Y-52984178D01*
X88459684Y-52613405D01*
X88521996Y-52579379D01*
X88548779Y-52576500D01*
X91283221Y-52576500D01*
X91351342Y-52596502D01*
X91372316Y-52613405D01*
X91658595Y-52899684D01*
X91692621Y-52961996D01*
X91695500Y-52988779D01*
X91695500Y-57366714D01*
X91693079Y-57391296D01*
X91690552Y-57404000D01*
X91700850Y-57455768D01*
X91710150Y-57502521D01*
X91717044Y-57512838D01*
X91717044Y-57512839D01*
X91749826Y-57561901D01*
X91765957Y-57586043D01*
X91776272Y-57592935D01*
X91776274Y-57592937D01*
X91776729Y-57593241D01*
X91795822Y-57608911D01*
X92452085Y-58265174D01*
X92467755Y-58284267D01*
X92468059Y-58284722D01*
X92468061Y-58284724D01*
X92474953Y-58295039D01*
X92558475Y-58350846D01*
X92573782Y-58353891D01*
X92656996Y-58370444D01*
X92669700Y-58367917D01*
X92694282Y-58365496D01*
X92831803Y-58365496D01*
X92899924Y-58385498D01*
X92943725Y-58438758D01*
X92945314Y-58437920D01*
X93034234Y-58606571D01*
X93038639Y-58611784D01*
X93038642Y-58611788D01*
X93104526Y-58689750D01*
X93157295Y-58752194D01*
X93162719Y-58756341D01*
X93162720Y-58756342D01*
X93303334Y-58863850D01*
X93303338Y-58863853D01*
X93308755Y-58867994D01*
X93314935Y-58870876D01*
X93314937Y-58870877D01*
X93475371Y-58945689D01*
X93475374Y-58945690D01*
X93481548Y-58948569D01*
X93488193Y-58950054D01*
X93488198Y-58950056D01*
X93651333Y-58986520D01*
X93713450Y-59020901D01*
X93747118Y-59083406D01*
X93741649Y-59154192D01*
X93698779Y-59210784D01*
X93632118Y-59235214D01*
X93623847Y-59235486D01*
X93003446Y-59235486D01*
X92997386Y-59236692D01*
X92997381Y-59236692D01*
X92978426Y-59240463D01*
X92966256Y-59242884D01*
X92955939Y-59249777D01*
X92955938Y-59249778D01*
X92944337Y-59257530D01*
X92924082Y-59271064D01*
X92917189Y-59281380D01*
X92907595Y-59295739D01*
X92895902Y-59313238D01*
X92888504Y-59350428D01*
X92888504Y-60875544D01*
X92895902Y-60912734D01*
X92924082Y-60954908D01*
X92948607Y-60971295D01*
X92994133Y-61025772D01*
X93002980Y-61096215D01*
X92972339Y-61160259D01*
X92952129Y-61178381D01*
X92815254Y-61276736D01*
X92815247Y-61276742D01*
X92810688Y-61280018D01*
X92658201Y-61437373D01*
X92535989Y-61619243D01*
X92447915Y-61819881D01*
X92396763Y-62032944D01*
X92384150Y-62251699D01*
X92410474Y-62469229D01*
X92474904Y-62678660D01*
X92477474Y-62683640D01*
X92477476Y-62683644D01*
X92565556Y-62854295D01*
X92575402Y-62873372D01*
X92708792Y-63047210D01*
X92790455Y-63121517D01*
X92866712Y-63190906D01*
X92866715Y-63190908D01*
X92870859Y-63194679D01*
X92875611Y-63197660D01*
X93051722Y-63308135D01*
X93051726Y-63308137D01*
X93056478Y-63311118D01*
X93259783Y-63392846D01*
X93474348Y-63437280D01*
X93478961Y-63437546D01*
X93528126Y-63440381D01*
X93528130Y-63440381D01*
X93529949Y-63440486D01*
X94971603Y-63440486D01*
X94974390Y-63440237D01*
X94974396Y-63440237D01*
X95042739Y-63434137D01*
X95134254Y-63425970D01*
X95139668Y-63424489D01*
X95139673Y-63424488D01*
X95264010Y-63390472D01*
X95345606Y-63368150D01*
X95350664Y-63365738D01*
X95350668Y-63365736D01*
X95460786Y-63313212D01*
X95543378Y-63273818D01*
X95721320Y-63145954D01*
X95873807Y-62988599D01*
X95996019Y-62806729D01*
X96084093Y-62606091D01*
X96135245Y-62393028D01*
X96147858Y-62174273D01*
X96121534Y-61956743D01*
X96057104Y-61747312D01*
X96054221Y-61741725D01*
X95959178Y-61557583D01*
X95959178Y-61557582D01*
X95956606Y-61552600D01*
X95823216Y-61378762D01*
X95735377Y-61298835D01*
X95665296Y-61235066D01*
X95665293Y-61235064D01*
X95661149Y-61231293D01*
X95656403Y-61228316D01*
X95656398Y-61228312D01*
X95585185Y-61183641D01*
X95538107Y-61130498D01*
X95527235Y-61060339D01*
X95556019Y-60995439D01*
X95582137Y-60972140D01*
X95597610Y-60961801D01*
X95607926Y-60954908D01*
X95636106Y-60912734D01*
X95643504Y-60875544D01*
X95643504Y-59350428D01*
X95636106Y-59313238D01*
X95624414Y-59295739D01*
X95614819Y-59281380D01*
X95607926Y-59271064D01*
X95587671Y-59257530D01*
X95576070Y-59249778D01*
X95576069Y-59249777D01*
X95565752Y-59242884D01*
X95553582Y-59240463D01*
X95534627Y-59236692D01*
X95534622Y-59236692D01*
X95528562Y-59235486D01*
X94884890Y-59235486D01*
X94816769Y-59215484D01*
X94770276Y-59161828D01*
X94760172Y-59091554D01*
X94789666Y-59026974D01*
X94849392Y-58988590D01*
X94871282Y-58984223D01*
X94955545Y-58975069D01*
X95136243Y-58914258D01*
X95145532Y-58908677D01*
X95208547Y-58870813D01*
X95299668Y-58816062D01*
X95438194Y-58685065D01*
X95442029Y-58679422D01*
X95541525Y-58533018D01*
X95541526Y-58533016D01*
X95545359Y-58527376D01*
X95616163Y-58350355D01*
X95647302Y-58162258D01*
X95646812Y-58152895D01*
X95637681Y-57978676D01*
X95637324Y-57971863D01*
X95624003Y-57923499D01*
X95588507Y-57794634D01*
X95586694Y-57788052D01*
X95497774Y-57619401D01*
X95493369Y-57614188D01*
X95493366Y-57614184D01*
X95379119Y-57478992D01*
X95374713Y-57473778D01*
X95369288Y-57469630D01*
X95228674Y-57362122D01*
X95228670Y-57362119D01*
X95223253Y-57357978D01*
X95217073Y-57355096D01*
X95217071Y-57355095D01*
X95056637Y-57280283D01*
X95056634Y-57280282D01*
X95050460Y-57277403D01*
X95043815Y-57275918D01*
X95043810Y-57275916D01*
X94934078Y-57251389D01*
X94864395Y-57235813D01*
X94859241Y-57235525D01*
X94857909Y-57235340D01*
X94793183Y-57206166D01*
X94754505Y-57146630D01*
X94754155Y-57075634D01*
X94792244Y-57015720D01*
X94861617Y-56985273D01*
X94874952Y-56983824D01*
X94955545Y-56975069D01*
X95136243Y-56914258D01*
X95143981Y-56909609D01*
X95245231Y-56848771D01*
X95299668Y-56816062D01*
X95438194Y-56685065D01*
X95494481Y-56602241D01*
X95541525Y-56533018D01*
X95541526Y-56533016D01*
X95545359Y-56527376D01*
X95549303Y-56517517D01*
X95613627Y-56356696D01*
X95613628Y-56356694D01*
X95616163Y-56350355D01*
X95647302Y-56162258D01*
X95646668Y-56150150D01*
X95637681Y-55978676D01*
X95637324Y-55971863D01*
X95626415Y-55932256D01*
X95588507Y-55794634D01*
X95586694Y-55788052D01*
X95497774Y-55619401D01*
X95493369Y-55614188D01*
X95493366Y-55614184D01*
X95389932Y-55491787D01*
X95374713Y-55473778D01*
X95274723Y-55397330D01*
X95232756Y-55340067D01*
X95228411Y-55269203D01*
X95263067Y-55207240D01*
X95318004Y-55175701D01*
X95345606Y-55168150D01*
X95350664Y-55165738D01*
X95350668Y-55165736D01*
X95444492Y-55120984D01*
X95543378Y-55073818D01*
X95721320Y-54945954D01*
X95873807Y-54788599D01*
X95951237Y-54673372D01*
X95992887Y-54611390D01*
X95992887Y-54611389D01*
X95996019Y-54606729D01*
X96084093Y-54406091D01*
X96135245Y-54193028D01*
X96143606Y-54048026D01*
X96147535Y-53979880D01*
X96147535Y-53979877D01*
X96147858Y-53974273D01*
X96121534Y-53756743D01*
X96057104Y-53547312D01*
X96054231Y-53541744D01*
X95959178Y-53357583D01*
X95959178Y-53357582D01*
X95956606Y-53352600D01*
X95823216Y-53178762D01*
X95730270Y-53094188D01*
X95665296Y-53035066D01*
X95665293Y-53035064D01*
X95661149Y-53031293D01*
X95656397Y-53028312D01*
X95480286Y-52917837D01*
X95480282Y-52917835D01*
X95475530Y-52914854D01*
X95272225Y-52833126D01*
X95057660Y-52788692D01*
X95053047Y-52788426D01*
X95003882Y-52785591D01*
X95003878Y-52785591D01*
X95002059Y-52785486D01*
X93560405Y-52785486D01*
X93557618Y-52785735D01*
X93557612Y-52785735D01*
X93489269Y-52791835D01*
X93397754Y-52800002D01*
X93392340Y-52801483D01*
X93392335Y-52801484D01*
X93296859Y-52827604D01*
X93186402Y-52857822D01*
X93181344Y-52860234D01*
X93181340Y-52860236D01*
X93098636Y-52899684D01*
X92988630Y-52952154D01*
X92863692Y-53041931D01*
X92821471Y-53072270D01*
X92810688Y-53080018D01*
X92658201Y-53237373D01*
X92535989Y-53419243D01*
X92447915Y-53619881D01*
X92446605Y-53625336D01*
X92445917Y-53627381D01*
X92405230Y-53685562D01*
X92339546Y-53712510D01*
X92269721Y-53699669D01*
X92217922Y-53651115D01*
X92200500Y-53587187D01*
X92200500Y-52869281D01*
X92202921Y-52844700D01*
X92203026Y-52844172D01*
X92203026Y-52844171D01*
X92205447Y-52832000D01*
X92185850Y-52733479D01*
X92162602Y-52698686D01*
X92154687Y-52686840D01*
X92136937Y-52660274D01*
X92136935Y-52660272D01*
X92130043Y-52649957D01*
X92119728Y-52643065D01*
X92119726Y-52643063D01*
X92119271Y-52642759D01*
X92100178Y-52627089D01*
X91644911Y-52171822D01*
X91629241Y-52152729D01*
X91628937Y-52152274D01*
X91628935Y-52152272D01*
X91622043Y-52141957D01*
X91538521Y-52086150D01*
X91523214Y-52083105D01*
X91440000Y-52066552D01*
X91427297Y-52069079D01*
X91402714Y-52071500D01*
X88429281Y-52071500D01*
X88404700Y-52069079D01*
X88404172Y-52068974D01*
X88404171Y-52068974D01*
X88392000Y-52066553D01*
X88379829Y-52068974D01*
X88330415Y-52078803D01*
X88305649Y-52083729D01*
X88305648Y-52083729D01*
X88293479Y-52086150D01*
X88209957Y-52141957D01*
X88203065Y-52152272D01*
X88203063Y-52152274D01*
X88202759Y-52152729D01*
X88187089Y-52171822D01*
X87816316Y-52542595D01*
X87754004Y-52576621D01*
X87727221Y-52579500D01*
X85754779Y-52579500D01*
X85686658Y-52559498D01*
X85665684Y-52542595D01*
X85633405Y-52510316D01*
X85599379Y-52448004D01*
X85596500Y-52421221D01*
X85596500Y-51599286D01*
X85598921Y-51574703D01*
X85599027Y-51574170D01*
X85601448Y-51562000D01*
X85581850Y-51463480D01*
X85581850Y-51463479D01*
X85526043Y-51379957D01*
X85515728Y-51373065D01*
X85515726Y-51373063D01*
X85515271Y-51372759D01*
X85496178Y-51357089D01*
X84617405Y-50478316D01*
X84583379Y-50416004D01*
X84580500Y-50389221D01*
X84580500Y-50065671D01*
X84600502Y-49997550D01*
X84654158Y-49951057D01*
X84724432Y-49940953D01*
X84789012Y-49970447D01*
X84828207Y-50033061D01*
X84828999Y-50036017D01*
X84830077Y-50044205D01*
X84883229Y-50172526D01*
X84967782Y-50282718D01*
X84974328Y-50287741D01*
X84988722Y-50298786D01*
X85077974Y-50367271D01*
X85113367Y-50381931D01*
X85198665Y-50417263D01*
X85198668Y-50417264D01*
X85206295Y-50420423D01*
X85344000Y-50438552D01*
X85352188Y-50437474D01*
X85473517Y-50421501D01*
X85481705Y-50420423D01*
X85489332Y-50417264D01*
X85489335Y-50417263D01*
X85574633Y-50381931D01*
X85610026Y-50367271D01*
X85699278Y-50298786D01*
X85713672Y-50287741D01*
X85720218Y-50282718D01*
X85804771Y-50172526D01*
X85849032Y-50065671D01*
X85854763Y-50051835D01*
X85854764Y-50051832D01*
X85857923Y-50044205D01*
X85876052Y-49906500D01*
X85874974Y-49898311D01*
X85874974Y-49890870D01*
X85884598Y-49858095D01*
X87607001Y-49858095D01*
X87607338Y-49864614D01*
X87617257Y-49960206D01*
X87620149Y-49973600D01*
X87671588Y-50127784D01*
X87677761Y-50140962D01*
X87763063Y-50278807D01*
X87772099Y-50290208D01*
X87886829Y-50404739D01*
X87898240Y-50413751D01*
X88036243Y-50498816D01*
X88049424Y-50504963D01*
X88203710Y-50556138D01*
X88217086Y-50559005D01*
X88311438Y-50568672D01*
X88317854Y-50569000D01*
X88717885Y-50569000D01*
X88733124Y-50564525D01*
X88734329Y-50563135D01*
X88736000Y-50555452D01*
X88736000Y-50550884D01*
X89244000Y-50550884D01*
X89248475Y-50566123D01*
X89249865Y-50567328D01*
X89257548Y-50568999D01*
X89662095Y-50568999D01*
X89668614Y-50568662D01*
X89764206Y-50558743D01*
X89777600Y-50555851D01*
X89931784Y-50504412D01*
X89944962Y-50498239D01*
X90082807Y-50412937D01*
X90094208Y-50403901D01*
X90208739Y-50289171D01*
X90217751Y-50277760D01*
X90302816Y-50139757D01*
X90308963Y-50126576D01*
X90360138Y-49972290D01*
X90363005Y-49958914D01*
X90372672Y-49864562D01*
X90373000Y-49858146D01*
X90373000Y-49733115D01*
X90368525Y-49717876D01*
X90367135Y-49716671D01*
X90359452Y-49715000D01*
X89262115Y-49715000D01*
X89246876Y-49719475D01*
X89245671Y-49720865D01*
X89244000Y-49728548D01*
X89244000Y-50550884D01*
X88736000Y-50550884D01*
X88736000Y-49733115D01*
X88731525Y-49717876D01*
X88730135Y-49716671D01*
X88722452Y-49715000D01*
X87625116Y-49715000D01*
X87609877Y-49719475D01*
X87608672Y-49720865D01*
X87607001Y-49728548D01*
X87607001Y-49858095D01*
X85884598Y-49858095D01*
X85894976Y-49822749D01*
X85911879Y-49801775D01*
X87888250Y-47825405D01*
X87950562Y-47791379D01*
X87977345Y-47788500D01*
X87989000Y-47788500D01*
X88057121Y-47808502D01*
X88090481Y-47839816D01*
X88179318Y-47960532D01*
X88308603Y-48070367D01*
X88395588Y-48114784D01*
X88447161Y-48163578D01*
X88464167Y-48232507D01*
X88441207Y-48299689D01*
X88385571Y-48343793D01*
X88338287Y-48353001D01*
X88317905Y-48353001D01*
X88311386Y-48353338D01*
X88215794Y-48363257D01*
X88202400Y-48366149D01*
X88048216Y-48417588D01*
X88035038Y-48423761D01*
X87897193Y-48509063D01*
X87885792Y-48518099D01*
X87771261Y-48632829D01*
X87762249Y-48644240D01*
X87677184Y-48782243D01*
X87671037Y-48795424D01*
X87619862Y-48949710D01*
X87616995Y-48963086D01*
X87607328Y-49057438D01*
X87607000Y-49063855D01*
X87607000Y-49188885D01*
X87611475Y-49204124D01*
X87612865Y-49205329D01*
X87620548Y-49207000D01*
X90354884Y-49207000D01*
X90370123Y-49202525D01*
X90371328Y-49201135D01*
X90372999Y-49193452D01*
X90372999Y-49063905D01*
X90372662Y-49057386D01*
X90362743Y-48961794D01*
X90359851Y-48948400D01*
X90308412Y-48794216D01*
X90302239Y-48781038D01*
X90216937Y-48643193D01*
X90207901Y-48631792D01*
X90093171Y-48517261D01*
X90081760Y-48508249D01*
X89943757Y-48423184D01*
X89930576Y-48417037D01*
X89776290Y-48365862D01*
X89762914Y-48362995D01*
X89668562Y-48353328D01*
X89662145Y-48353000D01*
X89650661Y-48353000D01*
X89582540Y-48332998D01*
X89536047Y-48279342D01*
X89525943Y-48209068D01*
X89555437Y-48144488D01*
X89591527Y-48116447D01*
X89592962Y-48115926D01*
X89734832Y-48022912D01*
X89851498Y-47899757D01*
X89936703Y-47753065D01*
X89939506Y-47743812D01*
X89977354Y-47618847D01*
X89985877Y-47590706D01*
X89996381Y-47421390D01*
X89981875Y-47336967D01*
X89968892Y-47261414D01*
X89967652Y-47254198D01*
X89901232Y-47098100D01*
X89903710Y-47097046D01*
X89890205Y-47040143D01*
X89901765Y-46993801D01*
X89907905Y-46985032D01*
X89910759Y-46974381D01*
X89912274Y-46971131D01*
X89913495Y-46967776D01*
X89919008Y-46958228D01*
X89920922Y-46947374D01*
X89920923Y-46947371D01*
X89925599Y-46920849D01*
X89927975Y-46910131D01*
X89937797Y-46873473D01*
X89936037Y-46853348D01*
X89934490Y-46835674D01*
X89934011Y-46824692D01*
X89934011Y-42878862D01*
X89934491Y-42867879D01*
X89936699Y-42842650D01*
X89937798Y-42830084D01*
X89927975Y-42793424D01*
X89925598Y-42782701D01*
X89924116Y-42774296D01*
X89919008Y-42745329D01*
X89913497Y-42735783D01*
X89912271Y-42732415D01*
X89910757Y-42729169D01*
X89907905Y-42718525D01*
X89901582Y-42709494D01*
X89886137Y-42687435D01*
X89880232Y-42678167D01*
X89878987Y-42676010D01*
X89861261Y-42645308D01*
X89852818Y-42638223D01*
X89852815Y-42638220D01*
X89832195Y-42620919D01*
X89824089Y-42613491D01*
X89772405Y-42561807D01*
X89738379Y-42499495D01*
X89735500Y-42472712D01*
X89735500Y-42183794D01*
X89735980Y-42172811D01*
X89738326Y-42145999D01*
X89739287Y-42135016D01*
X89729462Y-42098347D01*
X89727086Y-42087629D01*
X89726707Y-42085481D01*
X89720497Y-42050261D01*
X89714983Y-42040712D01*
X89713756Y-42037340D01*
X89712248Y-42034106D01*
X89709395Y-42023457D01*
X89687622Y-41992361D01*
X89681730Y-41983114D01*
X89662750Y-41950240D01*
X89633677Y-41925845D01*
X89625573Y-41918418D01*
X88919911Y-41212756D01*
X88199345Y-40492191D01*
X88165320Y-40429879D01*
X88170384Y-40359064D01*
X88199345Y-40314001D01*
X88523430Y-39989916D01*
X88585742Y-39955890D01*
X88612525Y-39953011D01*
X88829138Y-39953011D01*
X88840121Y-39953491D01*
X88866931Y-39955837D01*
X88866932Y-39955837D01*
X88877916Y-39956798D01*
X88914576Y-39946975D01*
X88925299Y-39944598D01*
X88927622Y-39944188D01*
X88962671Y-39938008D01*
X88972217Y-39932497D01*
X88975585Y-39931271D01*
X88978831Y-39929757D01*
X88989475Y-39926905D01*
X89020567Y-39905134D01*
X89029826Y-39899236D01*
X89053143Y-39885774D01*
X89062692Y-39880261D01*
X89087087Y-39851188D01*
X89094513Y-39843084D01*
X89492090Y-39445508D01*
X89500194Y-39438082D01*
X89520817Y-39420777D01*
X89529261Y-39413692D01*
X89548241Y-39380818D01*
X89554133Y-39371571D01*
X89575906Y-39340475D01*
X89578759Y-39329826D01*
X89580267Y-39326592D01*
X89581494Y-39323220D01*
X89587008Y-39313671D01*
X89593598Y-39276299D01*
X89595973Y-39265585D01*
X89605798Y-39228916D01*
X89604164Y-39210233D01*
X89602490Y-39191105D01*
X89602011Y-39180123D01*
X89602011Y-38617864D01*
X89602490Y-38606882D01*
X89605797Y-38569083D01*
X89602944Y-38558437D01*
X89602944Y-38558434D01*
X89595978Y-38532438D01*
X89593598Y-38521705D01*
X89588922Y-38495186D01*
X89587008Y-38484329D01*
X89581495Y-38474780D01*
X89580273Y-38471421D01*
X89578759Y-38468174D01*
X89575905Y-38457525D01*
X89563348Y-38439591D01*
X89554139Y-38426440D01*
X89548234Y-38417170D01*
X89534774Y-38393856D01*
X89534772Y-38393854D01*
X89529261Y-38384308D01*
X89500188Y-38359913D01*
X89492084Y-38352486D01*
X88440339Y-37300741D01*
X87166965Y-36027368D01*
X87132940Y-35965056D01*
X87131138Y-35954717D01*
X87129001Y-35938484D01*
X87127923Y-35930295D01*
X87117316Y-35904686D01*
X87086563Y-35830443D01*
X87074771Y-35801974D01*
X86990218Y-35691782D01*
X86880026Y-35607229D01*
X86815866Y-35580653D01*
X86759335Y-35557237D01*
X86759332Y-35557236D01*
X86751705Y-35554077D01*
X86725310Y-35550602D01*
X86682852Y-35545012D01*
X86614000Y-35535948D01*
X86568022Y-35542001D01*
X86502690Y-35550602D01*
X86432541Y-35539663D01*
X86379443Y-35492534D01*
X86360253Y-35424180D01*
X86381064Y-35356303D01*
X86397149Y-35336585D01*
X87658648Y-34075086D01*
X87720960Y-34041060D01*
X87747743Y-34038181D01*
X88630211Y-34038181D01*
X88698332Y-34058183D01*
X88730174Y-34087477D01*
X88806463Y-34186899D01*
X88916655Y-34271452D01*
X88954672Y-34287199D01*
X89037346Y-34321444D01*
X89037349Y-34321445D01*
X89044976Y-34324604D01*
X89182681Y-34342733D01*
X89190869Y-34341655D01*
X89214979Y-34338481D01*
X89320386Y-34324604D01*
X89328013Y-34321445D01*
X89328016Y-34321444D01*
X89410690Y-34287199D01*
X89448707Y-34271452D01*
X89558899Y-34186899D01*
X89643452Y-34076707D01*
X89696604Y-33948386D01*
X89714733Y-33810681D01*
X89696604Y-33672976D01*
X89685957Y-33647270D01*
X89664711Y-33595979D01*
X89643452Y-33544655D01*
X89558899Y-33434463D01*
X89448707Y-33349910D01*
X89441081Y-33346751D01*
X89438003Y-33344974D01*
X89389010Y-33293591D01*
X89375574Y-33223878D01*
X89401041Y-33159151D01*
X89474810Y-33063013D01*
X89474813Y-33063008D01*
X89479840Y-33056457D01*
X89532992Y-32928136D01*
X89551121Y-32790431D01*
X89532992Y-32652726D01*
X89529160Y-32643473D01*
X89483000Y-32532035D01*
X89479840Y-32524405D01*
X89432537Y-32462758D01*
X89406937Y-32396537D01*
X89406500Y-32386054D01*
X89406500Y-31906779D01*
X89426502Y-31838658D01*
X89443405Y-31817684D01*
X90038684Y-31222405D01*
X90100996Y-31188379D01*
X90127779Y-31185500D01*
X90180785Y-31185500D01*
X90248906Y-31205502D01*
X90287170Y-31243986D01*
X90345660Y-31336152D01*
X90351439Y-31341579D01*
X90351440Y-31341580D01*
X90407318Y-31394053D01*
X90461233Y-31444683D01*
X90600166Y-31521062D01*
X90753728Y-31560490D01*
X90927979Y-31560490D01*
X90996100Y-31580492D01*
X91042593Y-31634148D01*
X91053979Y-31686490D01*
X91053979Y-38819490D01*
X91033977Y-38887611D01*
X90980321Y-38934104D01*
X90927979Y-38945490D01*
X90793524Y-38945490D01*
X90675707Y-38960374D01*
X90650306Y-38970431D01*
X90535671Y-39015817D01*
X90535668Y-39015819D01*
X90528297Y-39018737D01*
X90400033Y-39111927D01*
X90394980Y-39118035D01*
X90304027Y-39227978D01*
X90304024Y-39227982D01*
X90298974Y-39234087D01*
X90231469Y-39377541D01*
X90229984Y-39385324D01*
X90229984Y-39385325D01*
X90218504Y-39445508D01*
X90201761Y-39533276D01*
X90202259Y-39541187D01*
X90210992Y-39679992D01*
X90211716Y-39691506D01*
X90214165Y-39699042D01*
X90214165Y-39699044D01*
X90255254Y-39825500D01*
X90260709Y-39842290D01*
X90345660Y-39976152D01*
X90351439Y-39981579D01*
X90351440Y-39981580D01*
X90407318Y-40034053D01*
X90461233Y-40084683D01*
X90600166Y-40161062D01*
X90753728Y-40200490D01*
X91972476Y-40200490D01*
X92090293Y-40185606D01*
X92165434Y-40155856D01*
X92230329Y-40130163D01*
X92230332Y-40130161D01*
X92237703Y-40127243D01*
X92365967Y-40034053D01*
X92402480Y-39989916D01*
X92461973Y-39918002D01*
X92461976Y-39917998D01*
X92467026Y-39911893D01*
X92470401Y-39904720D01*
X92470404Y-39904716D01*
X92473635Y-39897850D01*
X92520739Y-39844729D01*
X92587642Y-39825500D01*
X94610785Y-39825500D01*
X94678906Y-39845502D01*
X94717170Y-39883986D01*
X94775660Y-39976152D01*
X94781439Y-39981579D01*
X94781440Y-39981580D01*
X94837318Y-40034053D01*
X94891233Y-40084683D01*
X95030166Y-40161062D01*
X95183728Y-40200490D01*
X95902476Y-40200490D01*
X96020293Y-40185606D01*
X96095434Y-40155856D01*
X96160329Y-40130163D01*
X96160332Y-40130161D01*
X96167703Y-40127243D01*
X96295967Y-40034053D01*
X96332480Y-39989916D01*
X96391973Y-39918002D01*
X96391976Y-39917998D01*
X96397026Y-39911893D01*
X96464531Y-39768439D01*
X96479207Y-39691506D01*
X96492754Y-39620490D01*
X96492754Y-39620488D01*
X96494239Y-39612704D01*
X96484284Y-39454474D01*
X96461816Y-39385325D01*
X96437742Y-39311232D01*
X96437741Y-39311229D01*
X96435291Y-39303690D01*
X96350340Y-39169828D01*
X96299946Y-39122504D01*
X96240543Y-39066721D01*
X96234767Y-39061297D01*
X96095834Y-38984918D01*
X95942272Y-38945490D01*
X95223524Y-38945490D01*
X95105707Y-38960374D01*
X95080306Y-38970431D01*
X94965671Y-39015817D01*
X94965668Y-39015819D01*
X94958297Y-39018737D01*
X94830033Y-39111927D01*
X94728974Y-39234087D01*
X94725599Y-39241260D01*
X94722356Y-39248151D01*
X94675252Y-39301271D01*
X94608349Y-39320500D01*
X92585228Y-39320500D01*
X92517107Y-39300498D01*
X92478843Y-39262014D01*
X92445982Y-39210233D01*
X92420340Y-39169828D01*
X92369946Y-39122504D01*
X92310543Y-39066721D01*
X92304767Y-39061297D01*
X92165834Y-38984918D01*
X92012272Y-38945490D01*
X91684979Y-38945490D01*
X91616858Y-38925488D01*
X91570365Y-38871832D01*
X91558979Y-38819490D01*
X91558979Y-38687132D01*
X91578981Y-38619011D01*
X91632637Y-38572518D01*
X91702911Y-38562414D01*
X91722973Y-38566997D01*
X91804565Y-38592801D01*
X91811414Y-38594967D01*
X91818059Y-38595490D01*
X91916995Y-38595490D01*
X91921642Y-38594791D01*
X91921647Y-38594791D01*
X92008246Y-38581771D01*
X92008248Y-38581770D01*
X92017556Y-38580371D01*
X92140216Y-38521471D01*
X92240134Y-38429108D01*
X92308476Y-38311448D01*
X92339200Y-38178894D01*
X92336735Y-38144069D01*
X92330255Y-38052561D01*
X92329590Y-38043165D01*
X92280495Y-37916263D01*
X92196256Y-37809406D01*
X92084321Y-37732043D01*
X91954586Y-37691013D01*
X91947941Y-37690490D01*
X91849005Y-37690490D01*
X91844358Y-37691189D01*
X91844353Y-37691189D01*
X91757754Y-37704209D01*
X91757752Y-37704210D01*
X91748444Y-37705609D01*
X91739959Y-37709684D01*
X91739954Y-37709685D01*
X91739523Y-37709892D01*
X91739007Y-37709976D01*
X91730950Y-37712455D01*
X91730610Y-37711350D01*
X91669458Y-37721350D01*
X91604320Y-37693109D01*
X91564790Y-37634135D01*
X91558979Y-37596310D01*
X91558979Y-32907132D01*
X91578981Y-32839011D01*
X91632637Y-32792518D01*
X91702911Y-32782414D01*
X91722973Y-32786997D01*
X91804565Y-32812801D01*
X91811414Y-32814967D01*
X91818059Y-32815490D01*
X91916995Y-32815490D01*
X91921642Y-32814791D01*
X91921647Y-32814791D01*
X92008246Y-32801771D01*
X92008248Y-32801770D01*
X92017556Y-32800371D01*
X92140216Y-32741471D01*
X92240134Y-32649108D01*
X92244937Y-32640840D01*
X92268498Y-32600276D01*
X92308476Y-32531448D01*
X92339200Y-32398894D01*
X92337628Y-32376679D01*
X92332225Y-32300386D01*
X92329590Y-32263165D01*
X92280495Y-32136263D01*
X92196256Y-32029406D01*
X92084321Y-31952043D01*
X91996311Y-31924209D01*
X91961435Y-31913179D01*
X91961434Y-31913179D01*
X91954586Y-31911013D01*
X91947941Y-31910490D01*
X91849005Y-31910490D01*
X91844358Y-31911189D01*
X91844353Y-31911189D01*
X91757754Y-31924209D01*
X91757752Y-31924210D01*
X91748444Y-31925609D01*
X91739959Y-31929684D01*
X91739954Y-31929685D01*
X91739523Y-31929892D01*
X91739007Y-31929976D01*
X91730950Y-31932455D01*
X91730610Y-31931350D01*
X91669458Y-31941350D01*
X91604320Y-31913109D01*
X91564790Y-31854135D01*
X91558979Y-31816310D01*
X91558979Y-31686490D01*
X91578981Y-31618369D01*
X91632637Y-31571876D01*
X91684979Y-31560490D01*
X91972476Y-31560490D01*
X92090293Y-31545606D01*
X92161931Y-31517243D01*
X92230329Y-31490163D01*
X92230332Y-31490161D01*
X92237703Y-31487243D01*
X92365967Y-31394053D01*
X92408570Y-31342555D01*
X92461973Y-31278002D01*
X92461976Y-31277998D01*
X92467026Y-31271893D01*
X92534531Y-31128439D01*
X92552793Y-31032707D01*
X92562754Y-30980490D01*
X92562754Y-30980488D01*
X92564239Y-30972704D01*
X92559242Y-30893276D01*
X94631761Y-30893276D01*
X94636260Y-30964792D01*
X94640834Y-31037482D01*
X94641716Y-31051506D01*
X94644165Y-31059042D01*
X94644165Y-31059044D01*
X94685254Y-31185500D01*
X94690709Y-31202290D01*
X94775660Y-31336152D01*
X94781439Y-31341579D01*
X94781440Y-31341580D01*
X94837318Y-31394053D01*
X94891233Y-31444683D01*
X95030166Y-31521062D01*
X95183728Y-31560490D01*
X95902476Y-31560490D01*
X96020293Y-31545606D01*
X96091931Y-31517243D01*
X96160329Y-31490163D01*
X96160332Y-31490161D01*
X96167703Y-31487243D01*
X96295967Y-31394053D01*
X96338570Y-31342555D01*
X96391973Y-31278002D01*
X96391976Y-31277998D01*
X96397026Y-31271893D01*
X96464531Y-31128439D01*
X96482793Y-31032707D01*
X96492754Y-30980490D01*
X96492754Y-30980488D01*
X96494239Y-30972704D01*
X96485111Y-30827616D01*
X96484782Y-30822385D01*
X96484782Y-30822383D01*
X96484284Y-30814474D01*
X96473350Y-30780822D01*
X96437742Y-30671232D01*
X96437741Y-30671229D01*
X96435291Y-30663690D01*
X96350340Y-30529828D01*
X96295187Y-30478035D01*
X96240543Y-30426721D01*
X96234767Y-30421297D01*
X96095834Y-30344918D01*
X95942272Y-30305490D01*
X95223524Y-30305490D01*
X95105707Y-30320374D01*
X95051170Y-30341967D01*
X94965671Y-30375817D01*
X94965668Y-30375819D01*
X94958297Y-30378737D01*
X94830033Y-30471927D01*
X94824980Y-30478035D01*
X94734027Y-30587978D01*
X94734024Y-30587982D01*
X94728974Y-30594087D01*
X94661469Y-30737541D01*
X94659984Y-30745324D01*
X94659984Y-30745325D01*
X94655511Y-30768776D01*
X94631761Y-30893276D01*
X92559242Y-30893276D01*
X92555111Y-30827616D01*
X92554782Y-30822385D01*
X92554782Y-30822383D01*
X92554284Y-30814474D01*
X92543350Y-30780822D01*
X92507742Y-30671232D01*
X92507741Y-30671229D01*
X92505291Y-30663690D01*
X92420340Y-30529828D01*
X92365187Y-30478035D01*
X92310543Y-30426721D01*
X92304767Y-30421297D01*
X92165834Y-30344918D01*
X92012272Y-30305490D01*
X90793524Y-30305490D01*
X90675707Y-30320374D01*
X90621170Y-30341967D01*
X90535671Y-30375817D01*
X90535668Y-30375819D01*
X90528297Y-30378737D01*
X90400033Y-30471927D01*
X90298974Y-30594087D01*
X90295599Y-30601260D01*
X90292356Y-30608151D01*
X90245252Y-30661271D01*
X90178349Y-30680500D01*
X90008281Y-30680500D01*
X89983700Y-30678079D01*
X89983172Y-30677974D01*
X89983171Y-30677974D01*
X89971000Y-30675553D01*
X89958829Y-30677974D01*
X89946130Y-30680500D01*
X89884649Y-30692729D01*
X89884648Y-30692729D01*
X89872479Y-30695150D01*
X89862162Y-30702044D01*
X89862161Y-30702044D01*
X89799273Y-30744064D01*
X89788957Y-30750957D01*
X89782065Y-30761272D01*
X89782063Y-30761274D01*
X89781759Y-30761729D01*
X89766089Y-30780822D01*
X89001822Y-31545089D01*
X88982729Y-31560759D01*
X88982274Y-31561063D01*
X88982272Y-31561065D01*
X88971957Y-31567957D01*
X88916150Y-31651479D01*
X88916150Y-31651480D01*
X88911694Y-31673878D01*
X88911694Y-31673879D01*
X88908890Y-31687977D01*
X88896552Y-31750000D01*
X88898973Y-31762170D01*
X88899079Y-31762703D01*
X88901500Y-31787286D01*
X88901500Y-32183977D01*
X88881498Y-32252098D01*
X88823717Y-32300386D01*
X88760675Y-32326498D01*
X88760670Y-32326501D01*
X88753043Y-32329660D01*
X88642851Y-32414213D01*
X88558298Y-32524405D01*
X88555138Y-32532035D01*
X88508979Y-32643473D01*
X88505146Y-32652726D01*
X88487017Y-32790431D01*
X88505146Y-32928136D01*
X88558298Y-33056457D01*
X88642851Y-33166649D01*
X88753043Y-33251202D01*
X88760669Y-33254361D01*
X88763747Y-33256138D01*
X88812740Y-33307521D01*
X88826176Y-33377234D01*
X88800709Y-33441961D01*
X88730173Y-33533885D01*
X88672835Y-33575752D01*
X88630211Y-33583181D01*
X87610555Y-33583181D01*
X87603962Y-33583008D01*
X87578161Y-33581656D01*
X87564935Y-33580963D01*
X87552573Y-33585708D01*
X87552568Y-33585709D01*
X87545758Y-33588323D01*
X87526808Y-33593937D01*
X87506719Y-33598207D01*
X87496005Y-33605991D01*
X87491313Y-33608080D01*
X87487008Y-33610875D01*
X87474646Y-33615621D01*
X87460128Y-33630139D01*
X87445094Y-33642980D01*
X87428477Y-33655053D01*
X87421856Y-33666520D01*
X87412994Y-33676363D01*
X87412657Y-33676060D01*
X87407543Y-33682724D01*
X82141679Y-38948587D01*
X82136895Y-38953128D01*
X82107837Y-38979292D01*
X82102451Y-38991390D01*
X82102450Y-38991391D01*
X82099486Y-38998049D01*
X82090051Y-39015427D01*
X82086078Y-39021544D01*
X82086077Y-39021546D01*
X82078866Y-39032650D01*
X82076795Y-39045729D01*
X82074953Y-39050526D01*
X82073886Y-39055546D01*
X82068500Y-39067643D01*
X82068500Y-39088182D01*
X82066949Y-39107891D01*
X82063737Y-39128172D01*
X82067164Y-39140961D01*
X82067857Y-39154189D01*
X82067404Y-39154213D01*
X82068500Y-39162537D01*
X82068500Y-40358087D01*
X82048498Y-40426208D01*
X82031595Y-40447183D01*
X81828697Y-40650080D01*
X81639179Y-40839598D01*
X81634395Y-40844138D01*
X81605347Y-40870293D01*
X81599961Y-40882391D01*
X81599960Y-40882392D01*
X81596996Y-40889050D01*
X81587561Y-40906428D01*
X81583588Y-40912545D01*
X81583587Y-40912547D01*
X81576376Y-40923651D01*
X81574304Y-40936732D01*
X81572462Y-40941531D01*
X81571395Y-40946548D01*
X81566010Y-40958644D01*
X81566010Y-40967530D01*
X81533808Y-41027176D01*
X81471658Y-41061497D01*
X81460737Y-41063427D01*
X81353798Y-41077506D01*
X81334292Y-41080074D01*
X81326665Y-41083233D01*
X81326662Y-41083234D01*
X81283207Y-41101234D01*
X81205971Y-41133226D01*
X81095779Y-41217779D01*
X81011226Y-41327971D01*
X81005010Y-41342979D01*
X80973438Y-41419201D01*
X80958074Y-41456292D01*
X80956996Y-41464480D01*
X80952699Y-41497116D01*
X80939945Y-41593997D01*
X67129500Y-41593997D01*
X67129500Y-39083602D01*
X67149502Y-39015481D01*
X67166407Y-38994505D01*
X67171668Y-38989244D01*
X67178218Y-38984218D01*
X67262771Y-38874026D01*
X67289347Y-38809865D01*
X67312763Y-38753335D01*
X67312764Y-38753332D01*
X67315923Y-38745705D01*
X67334052Y-38608000D01*
X67315923Y-38470295D01*
X67305316Y-38444686D01*
X67277371Y-38377222D01*
X67262771Y-38341974D01*
X67178218Y-38231782D01*
X67068026Y-38147229D01*
X67003865Y-38120653D01*
X66947335Y-38097237D01*
X66947332Y-38097236D01*
X66939705Y-38094077D01*
X66802000Y-38075948D01*
X66664295Y-38094077D01*
X66656668Y-38097236D01*
X66656665Y-38097237D01*
X66600135Y-38120653D01*
X66535974Y-38147229D01*
X66425782Y-38231782D01*
X66341229Y-38341974D01*
X66326629Y-38377222D01*
X66298685Y-38444686D01*
X66288077Y-38470295D01*
X66269948Y-38608000D01*
X65663912Y-38608000D01*
X65578699Y-38537506D01*
X65578696Y-38537504D01*
X65573949Y-38533577D01*
X65409549Y-38444686D01*
X65320282Y-38417053D01*
X65236901Y-38391242D01*
X65236898Y-38391241D01*
X65231014Y-38389420D01*
X65224889Y-38388776D01*
X65224888Y-38388776D01*
X65051273Y-38370528D01*
X65051272Y-38370528D01*
X65045145Y-38369884D01*
X64926547Y-38380678D01*
X64865163Y-38386264D01*
X64865162Y-38386264D01*
X64859022Y-38386823D01*
X64853108Y-38388564D01*
X64853106Y-38388564D01*
X64835126Y-38393856D01*
X64679733Y-38439591D01*
X64514107Y-38526177D01*
X64368455Y-38643285D01*
X64248322Y-38786453D01*
X64245359Y-38791842D01*
X64245356Y-38791847D01*
X64186449Y-38899000D01*
X64158286Y-38950229D01*
X64156425Y-38956096D01*
X64156424Y-38956098D01*
X64137604Y-39015427D01*
X64101775Y-39128373D01*
X64080942Y-39314102D01*
X64081458Y-39320246D01*
X64092730Y-39454474D01*
X64096581Y-39500339D01*
X64148096Y-39679992D01*
X64150912Y-39685471D01*
X64150915Y-39685479D01*
X64167458Y-39717670D01*
X64180805Y-39787400D01*
X64154333Y-39853277D01*
X64144486Y-39864357D01*
X59537822Y-44471021D01*
X59518729Y-44486691D01*
X59518274Y-44486995D01*
X59518272Y-44486997D01*
X59507957Y-44493889D01*
X59452150Y-44577411D01*
X59452150Y-44577412D01*
X59432552Y-44675932D01*
X59434973Y-44688102D01*
X59435079Y-44688635D01*
X59437500Y-44713218D01*
X59437500Y-51659221D01*
X59417498Y-51727342D01*
X59400595Y-51748316D01*
X58013822Y-53135089D01*
X57994729Y-53150759D01*
X57994274Y-53151063D01*
X57994272Y-53151065D01*
X57983957Y-53157957D01*
X57928150Y-53241479D01*
X57925729Y-53253651D01*
X57925105Y-53256786D01*
X57912915Y-53318069D01*
X57908552Y-53340000D01*
X57911079Y-53352703D01*
X57913500Y-53377286D01*
X57913500Y-58890714D01*
X57911079Y-58915296D01*
X57908552Y-58928000D01*
X55726000Y-58928000D01*
X55726000Y-36774102D01*
X64080942Y-36774102D01*
X64096581Y-36960339D01*
X64148096Y-37139992D01*
X64233524Y-37306218D01*
X64237347Y-37311042D01*
X64237350Y-37311046D01*
X64342630Y-37443874D01*
X64349612Y-37452684D01*
X64354306Y-37456679D01*
X64387279Y-37484741D01*
X64491938Y-37573814D01*
X64655081Y-37664991D01*
X64832827Y-37722744D01*
X65018405Y-37744873D01*
X65024540Y-37744401D01*
X65024542Y-37744401D01*
X65080579Y-37740089D01*
X65204747Y-37730535D01*
X65384756Y-37680276D01*
X65390245Y-37677503D01*
X65390251Y-37677501D01*
X65476099Y-37634135D01*
X65551574Y-37596010D01*
X65579984Y-37573814D01*
X65603946Y-37555093D01*
X65698847Y-37480947D01*
X65702873Y-37476283D01*
X65702876Y-37476280D01*
X65816940Y-37344135D01*
X65820967Y-37339470D01*
X65913281Y-37176967D01*
X65927551Y-37134072D01*
X65970327Y-37005481D01*
X65972274Y-36999629D01*
X65978013Y-36954199D01*
X65995256Y-36817713D01*
X65995257Y-36817704D01*
X65995698Y-36814210D01*
X65996071Y-36787472D01*
X65977833Y-36601471D01*
X65973879Y-36588373D01*
X65925596Y-36428455D01*
X65923815Y-36422555D01*
X65836075Y-36257538D01*
X65787123Y-36197517D01*
X65721848Y-36117482D01*
X65721845Y-36117479D01*
X65717953Y-36112707D01*
X65713204Y-36108778D01*
X65578699Y-35997506D01*
X65578696Y-35997504D01*
X65573949Y-35993577D01*
X65409549Y-35904686D01*
X65280489Y-35864735D01*
X65236901Y-35851242D01*
X65236898Y-35851241D01*
X65231014Y-35849420D01*
X65224889Y-35848776D01*
X65224888Y-35848776D01*
X65051273Y-35830528D01*
X65051272Y-35830528D01*
X65045145Y-35829884D01*
X64926547Y-35840678D01*
X64865163Y-35846264D01*
X64865162Y-35846264D01*
X64859022Y-35846823D01*
X64853108Y-35848564D01*
X64853106Y-35848564D01*
X64730926Y-35884524D01*
X64679733Y-35899591D01*
X64674268Y-35902448D01*
X64605337Y-35938484D01*
X64514107Y-35986177D01*
X64368455Y-36103285D01*
X64248322Y-36246453D01*
X64245359Y-36251842D01*
X64245356Y-36251847D01*
X64196577Y-36340577D01*
X64158286Y-36410229D01*
X64156425Y-36416096D01*
X64156424Y-36416098D01*
X64130031Y-36499301D01*
X64101775Y-36588373D01*
X64080942Y-36774102D01*
X55726000Y-36774102D01*
X55726000Y-34107102D01*
X64080942Y-34107102D01*
X64081458Y-34113246D01*
X64088065Y-34191922D01*
X64096581Y-34293339D01*
X64148096Y-34472992D01*
X64233524Y-34639218D01*
X64237347Y-34644042D01*
X64237350Y-34644046D01*
X64342630Y-34776874D01*
X64349612Y-34785684D01*
X64354306Y-34789679D01*
X64387279Y-34817741D01*
X64491938Y-34906814D01*
X64655081Y-34997991D01*
X64832827Y-35055744D01*
X65018405Y-35077873D01*
X65024540Y-35077401D01*
X65024542Y-35077401D01*
X65080579Y-35073089D01*
X65204747Y-35063535D01*
X65384756Y-35013276D01*
X65390245Y-35010503D01*
X65390251Y-35010501D01*
X65467619Y-34971419D01*
X65551574Y-34929010D01*
X65579984Y-34906814D01*
X65603946Y-34888093D01*
X65698847Y-34813947D01*
X65702873Y-34809283D01*
X65702876Y-34809280D01*
X65816940Y-34677135D01*
X65820967Y-34672470D01*
X65913281Y-34509967D01*
X65927551Y-34467072D01*
X65970327Y-34338481D01*
X65972274Y-34332629D01*
X65979603Y-34274612D01*
X65995256Y-34150713D01*
X65995257Y-34150704D01*
X65995698Y-34147210D01*
X65996071Y-34120472D01*
X65977833Y-33934471D01*
X65973879Y-33921373D01*
X65942931Y-33818869D01*
X65923815Y-33755555D01*
X65836075Y-33590538D01*
X65823187Y-33574736D01*
X65721848Y-33450482D01*
X65721845Y-33450479D01*
X65717953Y-33445707D01*
X65712274Y-33441009D01*
X65578699Y-33330506D01*
X65578696Y-33330504D01*
X65573949Y-33326577D01*
X65409549Y-33237686D01*
X65320281Y-33210053D01*
X65236901Y-33184242D01*
X65236898Y-33184241D01*
X65231014Y-33182420D01*
X65224889Y-33181776D01*
X65224888Y-33181776D01*
X65051273Y-33163528D01*
X65051272Y-33163528D01*
X65045145Y-33162884D01*
X64948584Y-33171672D01*
X64865163Y-33179264D01*
X64865162Y-33179264D01*
X64859022Y-33179823D01*
X64853108Y-33181564D01*
X64853106Y-33181564D01*
X64730926Y-33217524D01*
X64679733Y-33232591D01*
X64514107Y-33319177D01*
X64368455Y-33436285D01*
X64248322Y-33579453D01*
X64245359Y-33584842D01*
X64245356Y-33584847D01*
X64192406Y-33681164D01*
X64158286Y-33743229D01*
X64101775Y-33921373D01*
X64080942Y-34107102D01*
X55726000Y-34107102D01*
X55726000Y-31694102D01*
X64080942Y-31694102D01*
X64081458Y-31700246D01*
X64094419Y-31854589D01*
X64096581Y-31880339D01*
X64148096Y-32059992D01*
X64233524Y-32226218D01*
X64237347Y-32231042D01*
X64237350Y-32231046D01*
X64292309Y-32300386D01*
X64349612Y-32372684D01*
X64354306Y-32376679D01*
X64455448Y-32462758D01*
X64491938Y-32493814D01*
X64655081Y-32584991D01*
X64832827Y-32642744D01*
X65018405Y-32664873D01*
X65024540Y-32664401D01*
X65024542Y-32664401D01*
X65080579Y-32660089D01*
X65204747Y-32650535D01*
X65384756Y-32600276D01*
X65390245Y-32597503D01*
X65390251Y-32597501D01*
X65467619Y-32558419D01*
X65551574Y-32516010D01*
X65579984Y-32493814D01*
X65619733Y-32462758D01*
X65698847Y-32400947D01*
X65702873Y-32396283D01*
X65702876Y-32396280D01*
X65816940Y-32264135D01*
X65820967Y-32259470D01*
X65913281Y-32096967D01*
X65927551Y-32054072D01*
X65968929Y-31929685D01*
X65972274Y-31919629D01*
X65985153Y-31817684D01*
X65995256Y-31737713D01*
X65995257Y-31737704D01*
X65995698Y-31734210D01*
X65996071Y-31707472D01*
X65977833Y-31521471D01*
X65973879Y-31508373D01*
X65925596Y-31348455D01*
X65923815Y-31342555D01*
X65836075Y-31177538D01*
X65789682Y-31120655D01*
X65721848Y-31037482D01*
X65721845Y-31037479D01*
X65717953Y-31032707D01*
X65713204Y-31028778D01*
X65578699Y-30917506D01*
X65578696Y-30917504D01*
X65573949Y-30913577D01*
X65409549Y-30824686D01*
X65267848Y-30780822D01*
X65236901Y-30771242D01*
X65236898Y-30771241D01*
X65231014Y-30769420D01*
X65224889Y-30768776D01*
X65224888Y-30768776D01*
X65051273Y-30750528D01*
X65051272Y-30750528D01*
X65045145Y-30749884D01*
X64926547Y-30760678D01*
X64865163Y-30766264D01*
X64865162Y-30766264D01*
X64859022Y-30766823D01*
X64853108Y-30768564D01*
X64853106Y-30768564D01*
X64730926Y-30804524D01*
X64679733Y-30819591D01*
X64674268Y-30822448D01*
X64538785Y-30893276D01*
X64514107Y-30906177D01*
X64368455Y-31023285D01*
X64248322Y-31166453D01*
X64245359Y-31171842D01*
X64245356Y-31171847D01*
X64190356Y-31271893D01*
X64158286Y-31330229D01*
X64101775Y-31508373D01*
X64080942Y-31694102D01*
X55726000Y-31694102D01*
X55726000Y-30145000D01*
X55746002Y-30076879D01*
X55799658Y-30030386D01*
X55852000Y-30019000D01*
X67184000Y-30019000D01*
X67252121Y-30039002D01*
G37*
%TD.AperFunction*%
%TD*%
M02*
