M48
; DRILL file {KiCad (6.0.2)} date Mon Mar  7 06:31:46 2022
; FORMAT={-:-/ absolute / metric / decimal}
; #@! TF.CreationDate,2022-03-07T06:31:46-05:00
; #@! TF.GenerationSoftware,Kicad,Pcbnew,(6.0.2)
; #@! TF.FileFunction,Plated,1,2,PTH
FMAT,2
METRIC
; #@! TA.AperFunction,Plated,PTH,ViaDrill
T1C0.300
; #@! TA.AperFunction,Plated,PTH,ViaDrill
T2C0.400
; #@! TA.AperFunction,Plated,PTH,ComponentDrill
T3C0.600
; #@! TA.AperFunction,Plated,PTH,ComponentDrill
T4C0.750
; #@! TA.AperFunction,Plated,PTH,ComponentDrill
T5C0.889
; #@! TA.AperFunction,Plated,PTH,ComponentDrill
T6C0.900
; #@! TA.AperFunction,Plated,PTH,ComponentDrill
T7C1.500
%
G90
G05
T1
X75.946Y-51.562
X88.56Y-36.208
T2
X59.944Y-53.594
X60.198Y-60.96
X61.214Y-52.578
X63.246Y-55.372
X64.262Y-56.785
X64.262Y-59.944
X65.786Y-59.944
X66.802Y-38.608
X68.072Y-42.672
X68.326Y-36.322
X68.326Y-45.974
X68.834Y-56.388
X69.088Y-47.752
X69.342Y-44.704
X69.85Y-53.782
X69.85Y-55.372
X70.612Y-44.704
X70.966Y-45.885
X72.136Y-49.543
X72.364Y-51.08
X73.819Y-49.688
X73.914Y-47.943
X73.927Y-51.803
X73.927Y-53.835
X74.168Y-40.894
X76.22Y-48.969
X76.57Y-45.732
X77.978Y-47.244
X78.232Y-56.388
X78.74Y-44.704
X78.74Y-48.768
X78.74Y-51.308
X80.01Y-36.068
X80.01Y-45.974
X80.772Y-47.498
X80.772Y-59.182
X81.026Y-51.054
X81.28Y-53.086
X81.472Y-41.594
X81.534Y-40.132
X81.534Y-44.196
X83.058Y-45.72
X83.312Y-54.102
X83.566Y-62.992
X84.328Y-48.006
X84.328Y-51.816
X84.533Y-54.151
X85.09Y-62.992
X85.344Y-49.907
X85.598Y-41.402
X86.614Y-36.068
X87.63Y-43.434
X87.849Y-32.673
X88.548Y-38.899
X88.646Y-44.958
X88.797Y-59.403
X88.88Y-43.16
X88.9Y-40.386
X89.019Y-32.79
X89.154Y-30.734
X89.183Y-33.811
X89.742Y-59.426
X90.591Y-38.537
X90.678Y-44.958
X90.678Y-61.214
X90.932Y-55.372
X91.948Y-41.656
X94.742Y-41.656
T4
X69.406Y-58.367
X71.406Y-58.367
X73.406Y-58.367
X75.406Y-58.367
X77.406Y-58.367
X88.99Y-47.461
X88.99Y-49.461
T5
X65.038Y-31.707
X65.038Y-34.12
X65.038Y-36.787
X65.038Y-39.327
X65.038Y-41.867
X65.038Y-44.407
X65.038Y-46.947
X65.038Y-49.487
X65.038Y-52.027
X65.038Y-54.567
T6
X94.266Y-56.113
X94.266Y-58.113
X94.266Y-60.113
T7
X94.266Y-54.013
X94.266Y-62.213
T3
X90.833Y-30.933G85X91.933Y-30.933
G05
X90.833Y-39.573G85X91.933Y-39.573
G05
X95.263Y-30.933G85X95.863Y-30.933
G05
X95.263Y-39.573G85X95.863Y-39.573
G05
T0
M30
