%TF.GenerationSoftware,KiCad,Pcbnew,(6.0.2)*%
%TF.CreationDate,2022-03-07T06:31:50-05:00*%
%TF.ProjectId,ferrous_slime,66657272-6f75-4735-9f73-6c696d652e6b,rev?*%
%TF.SameCoordinates,Original*%
%TF.FileFunction,Copper,L1,Top*%
%TF.FilePolarity,Positive*%
%FSLAX46Y46*%
G04 Gerber Fmt 4.6, Leading zero omitted, Abs format (unit mm)*
G04 Created by KiCad (PCBNEW (6.0.2)) date 2022-03-07 06:31:50*
%MOMM*%
%LPD*%
G01*
G04 APERTURE LIST*
G04 Aperture macros list*
%AMRoundRect*
0 Rectangle with rounded corners*
0 $1 Rounding radius*
0 $2 $3 $4 $5 $6 $7 $8 $9 X,Y pos of 4 corners*
0 Add a 4 corners polygon primitive as box body*
4,1,4,$2,$3,$4,$5,$6,$7,$8,$9,$2,$3,0*
0 Add four circle primitives for the rounded corners*
1,1,$1+$1,$2,$3*
1,1,$1+$1,$4,$5*
1,1,$1+$1,$6,$7*
1,1,$1+$1,$8,$9*
0 Add four rect primitives between the rounded corners*
20,1,$1+$1,$2,$3,$4,$5,0*
20,1,$1+$1,$4,$5,$6,$7,0*
20,1,$1+$1,$6,$7,$8,$9,0*
20,1,$1+$1,$8,$9,$2,$3,0*%
%AMFreePoly0*
4,1,6,0.725000,-0.725000,-0.725000,-0.725000,-0.725000,0.125000,-0.125000,0.725000,0.725000,0.725000,0.725000,-0.725000,0.725000,-0.725000,$1*%
G04 Aperture macros list end*
%TA.AperFunction,NonConductor*%
%ADD10C,0.127000*%
%TD*%
%TA.AperFunction,ComponentPad*%
%ADD11RoundRect,0.250000X-0.350000X-0.625000X0.350000X-0.625000X0.350000X0.625000X-0.350000X0.625000X0*%
%TD*%
%TA.AperFunction,ComponentPad*%
%ADD12O,1.200000X1.750000*%
%TD*%
%TA.AperFunction,SMDPad,CuDef*%
%ADD13RoundRect,0.200000X-0.200000X-0.275000X0.200000X-0.275000X0.200000X0.275000X-0.200000X0.275000X0*%
%TD*%
%TA.AperFunction,SMDPad,CuDef*%
%ADD14RoundRect,0.225000X0.225000X0.250000X-0.225000X0.250000X-0.225000X-0.250000X0.225000X-0.250000X0*%
%TD*%
%TA.AperFunction,SMDPad,CuDef*%
%ADD15RoundRect,0.225000X-0.225000X-0.250000X0.225000X-0.250000X0.225000X0.250000X-0.225000X0.250000X0*%
%TD*%
%TA.AperFunction,SMDPad,CuDef*%
%ADD16C,1.000000*%
%TD*%
%TA.AperFunction,SMDPad,CuDef*%
%ADD17RoundRect,0.200000X0.275000X-0.200000X0.275000X0.200000X-0.275000X0.200000X-0.275000X-0.200000X0*%
%TD*%
%TA.AperFunction,SMDPad,CuDef*%
%ADD18RoundRect,0.218750X-0.218750X-0.256250X0.218750X-0.256250X0.218750X0.256250X-0.218750X0.256250X0*%
%TD*%
%TA.AperFunction,SMDPad,CuDef*%
%ADD19RoundRect,0.150000X-0.150000X0.587500X-0.150000X-0.587500X0.150000X-0.587500X0.150000X0.587500X0*%
%TD*%
%TA.AperFunction,SMDPad,CuDef*%
%ADD20R,0.900000X1.200000*%
%TD*%
%TA.AperFunction,SMDPad,CuDef*%
%ADD21RoundRect,0.200000X0.200000X0.275000X-0.200000X0.275000X-0.200000X-0.275000X0.200000X-0.275000X0*%
%TD*%
%TA.AperFunction,SMDPad,CuDef*%
%ADD22RoundRect,0.225000X-0.250000X0.225000X-0.250000X-0.225000X0.250000X-0.225000X0.250000X0.225000X0*%
%TD*%
%TA.AperFunction,SMDPad,CuDef*%
%ADD23R,1.000000X1.800000*%
%TD*%
%TA.AperFunction,SMDPad,CuDef*%
%ADD24RoundRect,0.150000X0.150000X-0.512500X0.150000X0.512500X-0.150000X0.512500X-0.150000X-0.512500X0*%
%TD*%
%TA.AperFunction,SMDPad,CuDef*%
%ADD25RoundRect,0.225000X0.250000X-0.225000X0.250000X0.225000X-0.250000X0.225000X-0.250000X-0.225000X0*%
%TD*%
%TA.AperFunction,SMDPad,CuDef*%
%ADD26RoundRect,0.218750X-0.256250X0.218750X-0.256250X-0.218750X0.256250X-0.218750X0.256250X0.218750X0*%
%TD*%
%TA.AperFunction,SMDPad,CuDef*%
%ADD27R,0.700000X0.600000*%
%TD*%
%TA.AperFunction,ComponentPad*%
%ADD28O,3.500000X2.200000*%
%TD*%
%TA.AperFunction,ComponentPad*%
%ADD29R,2.500000X1.500000*%
%TD*%
%TA.AperFunction,ComponentPad*%
%ADD30O,2.500000X1.500000*%
%TD*%
%TA.AperFunction,SMDPad,CuDef*%
%ADD31R,0.800000X0.400000*%
%TD*%
%TA.AperFunction,SMDPad,CuDef*%
%ADD32R,0.400000X0.800000*%
%TD*%
%TA.AperFunction,SMDPad,CuDef*%
%ADD33R,0.700000X0.700000*%
%TD*%
%TA.AperFunction,SMDPad,CuDef*%
%ADD34R,1.450000X1.450000*%
%TD*%
%TA.AperFunction,SMDPad,CuDef*%
%ADD35FreePoly0,0.000000*%
%TD*%
%TA.AperFunction,SMDPad,CuDef*%
%ADD36R,1.000000X1.500000*%
%TD*%
%TA.AperFunction,SMDPad,CuDef*%
%ADD37R,1.150000X0.300000*%
%TD*%
%TA.AperFunction,ComponentPad*%
%ADD38O,1.600000X1.000000*%
%TD*%
%TA.AperFunction,ComponentPad*%
%ADD39O,2.100000X1.000000*%
%TD*%
%TA.AperFunction,ComponentPad*%
%ADD40C,1.651000*%
%TD*%
%TA.AperFunction,ComponentPad*%
%ADD41R,1.651000X1.651000*%
%TD*%
%TA.AperFunction,SMDPad,CuDef*%
%ADD42R,0.600000X0.700000*%
%TD*%
%TA.AperFunction,SMDPad,CuDef*%
%ADD43RoundRect,0.150000X0.150000X-0.650000X0.150000X0.650000X-0.150000X0.650000X-0.150000X-0.650000X0*%
%TD*%
%TA.AperFunction,SMDPad,CuDef*%
%ADD44R,3.200000X2.400000*%
%TD*%
%TA.AperFunction,ComponentPad*%
%ADD45RoundRect,0.250000X0.625000X-0.350000X0.625000X0.350000X-0.625000X0.350000X-0.625000X-0.350000X0*%
%TD*%
%TA.AperFunction,ComponentPad*%
%ADD46O,1.750000X1.200000*%
%TD*%
%TA.AperFunction,SMDPad,CuDef*%
%ADD47R,2.200000X1.500000*%
%TD*%
%TA.AperFunction,SMDPad,CuDef*%
%ADD48R,1.000000X1.000000*%
%TD*%
%TA.AperFunction,ViaPad*%
%ADD49C,0.800000*%
%TD*%
%TA.AperFunction,ViaPad*%
%ADD50C,0.600000*%
%TD*%
%TA.AperFunction,Conductor*%
%ADD51C,0.400000*%
%TD*%
%TA.AperFunction,Conductor*%
%ADD52C,0.250000*%
%TD*%
%TA.AperFunction,Conductor*%
%ADD53C,0.254000*%
%TD*%
%TA.AperFunction,Conductor*%
%ADD54C,0.200000*%
%TD*%
G04 APERTURE END LIST*
D10*
X72136000Y-38862000D02*
X76200000Y-38862000D01*
X76200000Y-38862000D02*
X76200000Y-42926000D01*
X76200000Y-42926000D02*
X72136000Y-42926000D01*
X72136000Y-42926000D02*
X72136000Y-38862000D01*
G36*
X72136000Y-38862000D02*
G01*
X76200000Y-38862000D01*
X76200000Y-42926000D01*
X72136000Y-42926000D01*
X72136000Y-38862000D01*
G37*
D11*
%TO.P,J1,1,Pin_1*%
%TO.N,IO10_SDA*%
X69406008Y-58367000D03*
D12*
%TO.P,J1,2,Pin_2*%
%TO.N,+3V3*%
X71406008Y-58367000D03*
%TO.P,J1,3,Pin_3*%
%TO.N,IO7_INT2*%
X73406008Y-58367000D03*
%TO.P,J1,4,Pin_4*%
%TO.N,GND*%
X75406008Y-58367000D03*
%TO.P,J1,5,Pin_5*%
%TO.N,IO8_SCL*%
X77406008Y-58367000D03*
%TD*%
D13*
%TO.P,R8,1*%
%TO.N,+3V3*%
X89091000Y-53541000D03*
%TO.P,R8,2*%
%TO.N,Net-(R8-Pad2)*%
X90741000Y-53541000D03*
%TD*%
D14*
%TO.P,C11,1*%
%TO.N,+5V*%
X85103000Y-62939000D03*
%TO.P,C11,2*%
%TO.N,GND*%
X83553000Y-62939000D03*
%TD*%
D13*
%TO.P,R3,1*%
%TO.N,IO0*%
X76645000Y-54811000D03*
%TO.P,R3,2*%
%TO.N,IO1*%
X78295000Y-54811000D03*
%TD*%
D15*
%TO.P,C3,1*%
%TO.N,+3V3*%
X72364000Y-52779000D03*
%TO.P,C3,2*%
%TO.N,GND*%
X73914000Y-52779000D03*
%TD*%
D16*
%TO.P,TP3,1,1*%
%TO.N,+3V3*%
X87122000Y-62685000D03*
%TD*%
D17*
%TO.P,R5,1*%
%TO.N,Net-(R5-Pad1)*%
X82804000Y-34300000D03*
%TO.P,R5,2*%
%TO.N,Net-(D3-Pad1)*%
X82804000Y-32650000D03*
%TD*%
D18*
%TO.P,D5,1,K*%
%TO.N,GND*%
X82778500Y-43381000D03*
%TO.P,D5,2,A*%
%TO.N,Net-(D5-Pad2)*%
X84353500Y-43381000D03*
%TD*%
D16*
%TO.P,TP1,1,1*%
%TO.N,Net-(C2-Pad1)*%
X81534000Y-62738000D03*
%TD*%
D18*
%TO.P,D3,1,K*%
%TO.N,Net-(D3-Pad1)*%
X83193500Y-30935000D03*
%TO.P,D3,2,A*%
%TO.N,VBUS*%
X84768500Y-30935000D03*
%TD*%
D13*
%TO.P,R7,1*%
%TO.N,IO5_LED*%
X81217000Y-49276000D03*
%TO.P,R7,2*%
%TO.N,Net-(D5-Pad2)*%
X82867000Y-49276000D03*
%TD*%
D19*
%TO.P,Q1,1,G*%
%TO.N,VBUS*%
X86294000Y-48031500D03*
%TO.P,Q1,2,S*%
%TO.N,Net-(D2-Pad1)*%
X84394000Y-48031500D03*
%TO.P,Q1,3,D*%
%TO.N,+BATT*%
X85344000Y-49906500D03*
%TD*%
D20*
%TO.P,D2,1,K*%
%TO.N,Net-(D2-Pad1)*%
X82932000Y-45667000D03*
%TO.P,D2,2,A*%
%TO.N,VBUS*%
X86232000Y-45667000D03*
%TD*%
D21*
%TO.P,R4,1*%
%TO.N,VBUS*%
X86169000Y-51763000D03*
%TO.P,R4,2*%
%TO.N,GND*%
X84519000Y-51763000D03*
%TD*%
D14*
%TO.P,C9,1*%
%TO.N,+BATT*%
X82817000Y-51001000D03*
%TO.P,C9,2*%
%TO.N,GND*%
X81267000Y-51001000D03*
%TD*%
D22*
%TO.P,C5,1*%
%TO.N,+3V3*%
X69850000Y-53782000D03*
%TO.P,C5,2*%
%TO.N,GND*%
X69850000Y-55332000D03*
%TD*%
D23*
%TO.P,Y1,1,1*%
%TO.N,IO0*%
X76220000Y-48969000D03*
%TO.P,Y1,2,2*%
%TO.N,IO1*%
X78720000Y-48969000D03*
%TD*%
D24*
%TO.P,U4,1,RUN*%
%TO.N,+5V*%
X88796622Y-59402865D03*
%TO.P,U4,2,GND*%
%TO.N,GND*%
X89746622Y-59402865D03*
%TO.P,U4,3,SW*%
%TO.N,Net-(L1-Pad1)*%
X90696622Y-59402865D03*
%TO.P,U4,4,VIN*%
%TO.N,+5V*%
X90696622Y-57127865D03*
%TO.P,U4,5,FB*%
%TO.N,Net-(R8-Pad2)*%
X88796622Y-57127865D03*
%TD*%
D13*
%TO.P,R9,1*%
%TO.N,Net-(R8-Pad2)*%
X89091000Y-55319000D03*
%TO.P,R9,2*%
%TO.N,GND*%
X90741000Y-55319000D03*
%TD*%
D15*
%TO.P,C1,1*%
%TO.N,+3V3*%
X72377000Y-54557000D03*
%TO.P,C1,2*%
%TO.N,GND*%
X73927000Y-54557000D03*
%TD*%
D25*
%TO.P,C10,1*%
%TO.N,Net-(C10-Pad1)*%
X87849000Y-34223000D03*
%TO.P,C10,2*%
%TO.N,GND*%
X87849000Y-32673000D03*
%TD*%
D26*
%TO.P,D4,1,K*%
%TO.N,Net-(D4-Pad1)*%
X86267000Y-32662000D03*
%TO.P,D4,2,A*%
%TO.N,VBUS*%
X86267000Y-34237000D03*
%TD*%
D27*
%TO.P,D7,1,A1*%
%TO.N,USB_D+*%
X88552173Y-37611489D03*
%TO.P,D7,2,A2*%
%TO.N,GND*%
X88552173Y-36211489D03*
%TD*%
%TO.P,D6,1,A1*%
%TO.N,USB_D-*%
X88646000Y-38924000D03*
%TO.P,D6,2,A2*%
%TO.N,GND*%
X88646000Y-40324000D03*
%TD*%
D20*
%TO.P,D8,1,K*%
%TO.N,VBUS*%
X90552000Y-43635000D03*
%TO.P,D8,2,A*%
%TO.N,Net-(D8-Pad2)*%
X93852000Y-43635000D03*
%TD*%
D28*
%TO.P,SW1,*%
%TO.N,*%
X94266004Y-62212986D03*
X94266004Y-54012986D03*
D29*
%TO.P,SW1,1,A*%
%TO.N,+5V*%
X94266004Y-60112986D03*
D30*
%TO.P,SW1,2,B*%
%TO.N,Net-(D2-Pad1)*%
X94266004Y-58112986D03*
%TO.P,SW1,3,C*%
%TO.N,unconnected-(SW1-Pad3)*%
X94266004Y-56112986D03*
%TD*%
D31*
%TO.P,U2,1,GND*%
%TO.N,GND*%
X68268000Y-37004007D03*
%TO.P,U2,2,GND*%
X68268000Y-37804007D03*
%TO.P,U2,3,3V3*%
%TO.N,+3V3*%
X68268000Y-38604007D03*
%TO.P,U2,4,NC*%
%TO.N,unconnected-(U2-Pad4)*%
X68268000Y-39404007D03*
%TO.P,U2,5,GPIO2/ADC1_CH2*%
%TO.N,unconnected-(U2-Pad5)*%
X68268000Y-40204007D03*
%TO.P,U2,6,GPIO3/ADC1_CH3*%
%TO.N,unconnected-(U2-Pad6)*%
X68268000Y-41004007D03*
%TO.P,U2,7,NC*%
%TO.N,unconnected-(U2-Pad7)*%
X68268000Y-41804007D03*
%TO.P,U2,8,EN/CHIP_PU*%
%TO.N,Net-(C2-Pad1)*%
X68268000Y-42604007D03*
%TO.P,U2,9,NC*%
%TO.N,unconnected-(U2-Pad9)*%
X68268000Y-43404007D03*
%TO.P,U2,10,NC*%
%TO.N,unconnected-(U2-Pad10)*%
X68268000Y-44204007D03*
%TO.P,U2,11,GND*%
%TO.N,GND*%
X68268000Y-45004007D03*
D32*
%TO.P,U2,12,GPIO0/ADC1_CH0/XTAL_32K_P*%
%TO.N,IO0*%
X69368000Y-45904007D03*
%TO.P,U2,13,GPIO1/ADC1_CH1/XTAL_32K_N*%
%TO.N,IO1*%
X70168000Y-45904007D03*
%TO.P,U2,14,GND*%
%TO.N,GND*%
X70968000Y-45904007D03*
%TO.P,U2,15,NC*%
%TO.N,unconnected-(U2-Pad15)*%
X71768000Y-45904007D03*
%TO.P,U2,16,GPIO10*%
%TO.N,IO10_SDA*%
X72568000Y-45904007D03*
%TO.P,U2,17,NC*%
%TO.N,unconnected-(U2-Pad17)*%
X73368000Y-45904007D03*
%TO.P,U2,18,GPIO4/ADC1_CH4*%
%TO.N,unconnected-(U2-Pad18)*%
X74168000Y-45904007D03*
%TO.P,U2,19,GPIO5/ADC2_CH0*%
%TO.N,IO5_LED*%
X74968000Y-45904007D03*
%TO.P,U2,20,GPIO6*%
%TO.N,IO6_INT1*%
X75768000Y-45904007D03*
%TO.P,U2,21,GPIO7*%
%TO.N,IO7_INT2*%
X76568000Y-45904007D03*
%TO.P,U2,22,GPIO8*%
%TO.N,IO8_SCL*%
X77368000Y-45904007D03*
%TO.P,U2,23,GPIO9*%
%TO.N,unconnected-(U2-Pad23)*%
X78168000Y-45904007D03*
%TO.P,U2,24,NC*%
%TO.N,unconnected-(U2-Pad24)*%
X78968000Y-45904007D03*
D31*
%TO.P,U2,25,NC*%
%TO.N,unconnected-(U2-Pad25)*%
X80068000Y-45004007D03*
%TO.P,U2,26,GPIO18/USB_D-*%
%TO.N,USB_D-*%
X80068000Y-44204007D03*
%TO.P,U2,27,GPIO19/USB_D+*%
%TO.N,USB_D+*%
X80068000Y-43404007D03*
%TO.P,U2,28,NC*%
%TO.N,unconnected-(U2-Pad28)*%
X80068000Y-42604007D03*
%TO.P,U2,29,NC*%
%TO.N,unconnected-(U2-Pad29)*%
X80068000Y-41804007D03*
%TO.P,U2,30,GPIO20/U0RXD*%
%TO.N,unconnected-(U2-Pad30)*%
X80068000Y-41004007D03*
%TO.P,U2,31,GPIO21/U0TXD*%
%TO.N,unconnected-(U2-Pad31)*%
X80068000Y-40204007D03*
%TO.P,U2,32,NC*%
%TO.N,unconnected-(U2-Pad32)*%
X80068000Y-39404007D03*
%TO.P,U2,33,NC*%
%TO.N,unconnected-(U2-Pad33)*%
X80068000Y-38604007D03*
%TO.P,U2,34,NC*%
%TO.N,unconnected-(U2-Pad34)*%
X80068000Y-37804007D03*
%TO.P,U2,35,NC*%
%TO.N,unconnected-(U2-Pad35)*%
X80068000Y-37004007D03*
D32*
%TO.P,U2,36,GND*%
%TO.N,GND*%
X74968000Y-36104007D03*
X73368000Y-36104007D03*
D33*
X68218000Y-45954007D03*
D34*
X76143000Y-42979007D03*
X74168000Y-41004007D03*
D32*
X74168000Y-36104007D03*
X70968000Y-36104007D03*
D34*
X74168000Y-42979007D03*
X76143000Y-39029007D03*
D33*
X80118000Y-36054007D03*
D35*
X72193000Y-39029007D03*
D33*
X80118000Y-45954007D03*
D32*
X76568000Y-36104007D03*
D33*
X68218000Y-36054007D03*
D34*
X72193000Y-42979007D03*
X76143000Y-41004007D03*
X72193000Y-41054007D03*
X74168000Y-39029007D03*
D32*
X78968000Y-36104007D03*
X70168000Y-36104007D03*
X69368000Y-36104007D03*
X78168000Y-36104007D03*
X75768000Y-36104007D03*
X71768000Y-36104007D03*
X72568000Y-36104007D03*
X77368000Y-36104007D03*
%TD*%
D36*
%TO.P,JP1,1,A*%
%TO.N,Net-(JP1-Pad1)*%
X57628000Y-61415000D03*
%TO.P,JP1,2,C*%
%TO.N,+3V3*%
X58928000Y-61415000D03*
%TO.P,JP1,3,B*%
%TO.N,Net-(JP1-Pad3)*%
X60228000Y-61415000D03*
%TD*%
D37*
%TO.P,J3,A1,GND*%
%TO.N,GND*%
X90818000Y-38602990D03*
%TO.P,J3,A4,VBUS*%
%TO.N,Net-(D8-Pad2)*%
X90818000Y-37802990D03*
%TO.P,J3,A5,CC1*%
%TO.N,Net-(J3-PadA5)*%
X90818000Y-36502990D03*
%TO.P,J3,A6,D+*%
%TO.N,USB_D+*%
X90818000Y-35502990D03*
%TO.P,J3,A7,D-*%
%TO.N,USB_D-*%
X90818000Y-35002990D03*
%TO.P,J3,A8,SBU1*%
%TO.N,unconnected-(J3-PadA8)*%
X90818000Y-34002990D03*
%TO.P,J3,A9,VBUS*%
%TO.N,Net-(D8-Pad2)*%
X90818000Y-32702990D03*
%TO.P,J3,A12,GND*%
%TO.N,GND*%
X90818000Y-31902990D03*
%TO.P,J3,B1,GND*%
X90818000Y-32202990D03*
%TO.P,J3,B4,VBUS*%
%TO.N,Net-(D8-Pad2)*%
X90818000Y-33002990D03*
%TO.P,J3,B5,CC2*%
%TO.N,Net-(J3-PadB5)*%
X90818000Y-33502990D03*
%TO.P,J3,B6,D+*%
%TO.N,USB_D+*%
X90818000Y-34502990D03*
%TO.P,J3,B7,D-*%
%TO.N,USB_D-*%
X90818000Y-36002990D03*
%TO.P,J3,B8,SBU2*%
%TO.N,unconnected-(J3-PadB8)*%
X90818000Y-37002990D03*
%TO.P,J3,B9,VBUS*%
%TO.N,Net-(D8-Pad2)*%
X90818000Y-37502990D03*
%TO.P,J3,B12,GND*%
%TO.N,GND*%
X90818000Y-38302990D03*
D38*
%TO.P,J3,S1,SHIELD*%
%TO.N,Net-(C10-Pad1)*%
X95563000Y-39572990D03*
D39*
X91383000Y-30932990D03*
X91383000Y-39572990D03*
D38*
X95563000Y-30932990D03*
%TD*%
D40*
%TO.P,U1,*%
%TO.N,*%
X65038460Y-31707472D03*
X65038460Y-34120472D03*
D41*
%TO.P,U1,1,VCC*%
%TO.N,+3V3*%
X65038460Y-54567472D03*
D40*
%TO.P,U1,2,GND*%
%TO.N,GND*%
X65038460Y-52027472D03*
%TO.P,U1,3,SCL*%
%TO.N,IO8_SCL*%
X65038460Y-49487472D03*
%TO.P,U1,4,SDA*%
%TO.N,IO10_SDA*%
X65038460Y-46947472D03*
%TO.P,U1,5,AD0_BNO/INT_ICM*%
%TO.N,Net-(JP2-Pad2)*%
X65038460Y-44407472D03*
%TO.P,U1,6,AD0_ICM*%
%TO.N,Net-(JP1-Pad1)*%
X65038460Y-41867472D03*
%TO.P,U1,7,INT_BNO/AD0_MPU*%
%TO.N,Net-(JP1-Pad3)*%
X65038460Y-39327472D03*
%TO.P,U1,8,INT_MPU*%
%TO.N,Net-(JP3-Pad3)*%
X65038460Y-36787472D03*
%TD*%
D16*
%TO.P,TP2,1,1*%
%TO.N,+BATT*%
X95758000Y-43635000D03*
%TD*%
D15*
%TO.P,C13,1*%
%TO.N,+3V3*%
X89128000Y-62685000D03*
%TO.P,C13,2*%
%TO.N,GND*%
X90678000Y-62685000D03*
%TD*%
D42*
%TO.P,D9,1,A1*%
%TO.N,Net-(D8-Pad2)*%
X93471999Y-41603000D03*
%TO.P,D9,2,A2*%
%TO.N,GND*%
X94871999Y-41603000D03*
%TD*%
D17*
%TO.P,R1,1*%
%TO.N,+3V3*%
X73914000Y-49593000D03*
%TO.P,R1,2*%
%TO.N,Net-(C2-Pad1)*%
X73914000Y-47943000D03*
%TD*%
D43*
%TO.P,U3,1,TEMP*%
%TO.N,GND*%
X82931000Y-41458990D03*
%TO.P,U3,2,PROG*%
%TO.N,VBUS*%
X84201000Y-41458990D03*
%TO.P,U3,3,GND*%
%TO.N,GND*%
X85471000Y-41458990D03*
%TO.P,U3,4,VCC*%
%TO.N,VBUS*%
X86741000Y-41458990D03*
%TO.P,U3,5,BAT*%
%TO.N,+BATT*%
X86741000Y-36158990D03*
%TO.P,U3,6,STDBY*%
%TO.N,Net-(R6-Pad1)*%
X85471000Y-36158990D03*
%TO.P,U3,7,CHRG*%
%TO.N,Net-(R5-Pad1)*%
X84201000Y-36158990D03*
%TO.P,U3,8,CE*%
%TO.N,VBUS*%
X82931000Y-36158990D03*
D44*
%TO.P,U3,9,EP*%
%TO.N,unconnected-(U3-Pad9)*%
X84836000Y-38808990D03*
%TD*%
D21*
%TO.P,R10,1*%
%TO.N,Net-(J3-PadB5)*%
X87947000Y-30935000D03*
%TO.P,R10,2*%
%TO.N,GND*%
X86297000Y-30935000D03*
%TD*%
D36*
%TO.P,JP3,1,A*%
%TO.N,Net-(JP1-Pad3)*%
X62962000Y-57859000D03*
%TO.P,JP3,2,C*%
%TO.N,IO6_INT1*%
X64262000Y-57859000D03*
%TO.P,JP3,3,B*%
%TO.N,Net-(JP3-Pad3)*%
X65562000Y-57859000D03*
%TD*%
D17*
%TO.P,R6,1*%
%TO.N,Net-(R6-Pad1)*%
X84743000Y-34300000D03*
%TO.P,R6,2*%
%TO.N,Net-(D4-Pad1)*%
X84743000Y-32650000D03*
%TD*%
D15*
%TO.P,C12,1*%
%TO.N,+3V3*%
X89128000Y-61161000D03*
%TO.P,C12,2*%
%TO.N,GND*%
X90678000Y-61161000D03*
%TD*%
D36*
%TO.P,JP2,1,A*%
%TO.N,IO6_INT1*%
X62962000Y-61415000D03*
%TO.P,JP2,2,C*%
%TO.N,Net-(JP2-Pad2)*%
X64262000Y-61415000D03*
%TO.P,JP2,3,B*%
%TO.N,GND*%
X65562000Y-61415000D03*
%TD*%
D15*
%TO.P,C4,1*%
%TO.N,+3V3*%
X72364000Y-51001000D03*
%TO.P,C4,2*%
%TO.N,GND*%
X73914000Y-51001000D03*
%TD*%
D25*
%TO.P,C6,1*%
%TO.N,IO0*%
X76200000Y-52792000D03*
%TO.P,C6,2*%
%TO.N,GND*%
X76200000Y-51242000D03*
%TD*%
D22*
%TO.P,C2,1*%
%TO.N,Net-(C2-Pad1)*%
X72136000Y-47993000D03*
%TO.P,C2,2*%
%TO.N,GND*%
X72136000Y-49543000D03*
%TD*%
D45*
%TO.P,J2,1,Pin_1*%
%TO.N,GND*%
X88990000Y-49461000D03*
D46*
%TO.P,J2,2,Pin_2*%
%TO.N,+BATT*%
X88990000Y-47461000D03*
%TD*%
D21*
%TO.P,R2,1*%
%TO.N,GND*%
X87439000Y-43381000D03*
%TO.P,R2,2*%
%TO.N,VBUS*%
X85789000Y-43381000D03*
%TD*%
D47*
%TO.P,L1,1,1*%
%TO.N,Net-(L1-Pad1)*%
X84074000Y-60551000D03*
%TO.P,L1,2,2*%
%TO.N,+3V3*%
X84074000Y-54151000D03*
%TD*%
D25*
%TO.P,C8,1*%
%TO.N,IO1*%
X78740000Y-52792000D03*
%TO.P,C8,2*%
%TO.N,GND*%
X78740000Y-51242000D03*
%TD*%
D13*
%TO.P,R11,1*%
%TO.N,Net-(J3-PadA5)*%
X90361000Y-41603000D03*
%TO.P,R11,2*%
%TO.N,GND*%
X92011000Y-41603000D03*
%TD*%
D22*
%TO.P,C7,1*%
%TO.N,VBUS*%
X88900000Y-41590000D03*
%TO.P,C7,2*%
%TO.N,GND*%
X88900000Y-43140000D03*
%TD*%
D48*
%TO.P,D1,1,A1*%
%TO.N,+3V3*%
X70104000Y-51997000D03*
%TO.P,D1,2,A2*%
%TO.N,GND*%
X70104000Y-49497000D03*
%TD*%
D49*
%TO.N,+BATT*%
X86614000Y-36068000D03*
X85344000Y-49906500D03*
%TO.N,GND*%
X88880000Y-43160000D03*
X89741798Y-59426012D03*
X83566000Y-62992000D03*
X88900000Y-40386000D03*
X90932000Y-55372000D03*
D50*
X75946000Y-51562000D03*
X88559889Y-36207501D03*
D49*
X87630000Y-43434000D03*
X90678000Y-61214000D03*
X70965685Y-45885078D03*
X87849000Y-32673000D03*
X80010000Y-36068000D03*
X90590506Y-38536701D03*
X84328000Y-51816000D03*
X91948000Y-41656000D03*
X74168000Y-40894000D03*
X73927000Y-53835000D03*
X73927000Y-51803000D03*
X85598000Y-41402000D03*
X81026000Y-51054000D03*
X68326000Y-36322000D03*
X90678000Y-44958000D03*
X78740000Y-51308000D03*
X68326000Y-45974000D03*
X94742000Y-41656000D03*
X88646000Y-44958000D03*
X80010000Y-45974000D03*
X89154000Y-30734000D03*
X81534000Y-40132000D03*
X69850000Y-55372000D03*
X72136000Y-49543000D03*
X65786000Y-59944000D03*
%TO.N,+3V3*%
X72364000Y-51080000D03*
X69850000Y-53782000D03*
X84533000Y-54151000D03*
X80772000Y-59182000D03*
X66802000Y-38608000D03*
X83312000Y-54102000D03*
X73818500Y-49688500D03*
%TO.N,IO0*%
X69342000Y-44704000D03*
X76220000Y-48969000D03*
%TO.N,IO1*%
X70612000Y-44704000D03*
X78740000Y-48768000D03*
%TO.N,Net-(C10-Pad1)*%
X89019069Y-32790431D03*
%TO.N,+5V*%
X85090000Y-62992000D03*
X88796622Y-59402865D03*
%TO.N,Net-(D2-Pad1)*%
X83058000Y-45720000D03*
X84328000Y-48006000D03*
%TO.N,USB_D-*%
X81534000Y-44196000D03*
X88548000Y-38899000D03*
%TO.N,USB_D+*%
X81471997Y-41593997D03*
X89182681Y-33810681D03*
%TO.N,IO7_INT2*%
X77978000Y-47244000D03*
X76569504Y-45731990D03*
X78232000Y-56388000D03*
%TO.N,Net-(JP1-Pad3)*%
X60198000Y-60960000D03*
%TO.N,IO6_INT1*%
X68834000Y-56388000D03*
X64262000Y-56785500D03*
%TO.N,Net-(JP2-Pad2)*%
X59944000Y-53594000D03*
X64262000Y-59944000D03*
%TO.N,Net-(JP3-Pad3)*%
X61214000Y-52578000D03*
X63246000Y-55372000D03*
%TO.N,IO5_LED*%
X80772000Y-47498000D03*
X78740000Y-44704000D03*
%TO.N,Net-(C2-Pad1)*%
X73914000Y-47943000D03*
X68072000Y-42672000D03*
X81280000Y-53086000D03*
X69088000Y-47752000D03*
%TD*%
D51*
%TO.N,+BATT*%
X95758000Y-43635000D02*
X91932000Y-47461000D01*
X83111000Y-51001000D02*
X84205500Y-49906500D01*
X91932000Y-47461000D02*
X88990000Y-47461000D01*
X82817000Y-51001000D02*
X83111000Y-51001000D01*
X84205500Y-49906500D02*
X85344000Y-49906500D01*
%TO.N,GND*%
X90818000Y-31903000D02*
X90323000Y-31903000D01*
X68268000Y-37004000D02*
X68268000Y-37804000D01*
X82931000Y-41459000D02*
X82931000Y-43228500D01*
X87849000Y-32487000D02*
X86297000Y-30935000D01*
X69318000Y-36054000D02*
X69368000Y-36104000D01*
X68218000Y-45954000D02*
X68218000Y-45054000D01*
X68326000Y-36322000D02*
X68268000Y-36380000D01*
X88606000Y-43434000D02*
X88880000Y-43160000D01*
X76143000Y-39029000D02*
X76143000Y-42979000D01*
X72193000Y-39029000D02*
X72193000Y-42979000D01*
X74168000Y-39029000D02*
X74168000Y-42979000D01*
X75970677Y-51562000D02*
X75946000Y-51562000D01*
X73927000Y-54557000D02*
X73927000Y-53835000D01*
X88646000Y-44958000D02*
X90678000Y-44958000D01*
X90323000Y-31903000D02*
X89154000Y-30734000D01*
X76143000Y-41004000D02*
X72243000Y-41004000D01*
X72136000Y-49543000D02*
X70150000Y-49543000D01*
X68268000Y-36380000D02*
X68268000Y-37004000D01*
X76200000Y-51332677D02*
X75970677Y-51562000D01*
X68218000Y-45054000D02*
X68268000Y-45004000D01*
X73927000Y-51803000D02*
X73927000Y-51014000D01*
X65786000Y-59944000D02*
X65786000Y-61191000D01*
X82861000Y-41459000D02*
X81534000Y-40132000D01*
X90678000Y-62685000D02*
X90678000Y-61214000D01*
X68218000Y-36054000D02*
X69318000Y-36054000D01*
X73927000Y-53835000D02*
X73927000Y-51803000D01*
X72193000Y-39029000D02*
X76143000Y-39029000D01*
X72193000Y-42979000D02*
X76143000Y-42979000D01*
X87630000Y-43434000D02*
X88606000Y-43434000D01*
X69368000Y-36104000D02*
X79974000Y-36104000D01*
X65786000Y-61191000D02*
X65562000Y-61415000D01*
%TO.N,+3V3*%
X82550000Y-61722000D02*
X82296000Y-61468000D01*
X66806000Y-38604000D02*
X68268000Y-38604000D01*
X71406008Y-55527992D02*
X71406008Y-58367000D01*
X72364000Y-51001000D02*
X71100000Y-51001000D01*
X70104000Y-53528000D02*
X69850000Y-53782000D01*
X66806000Y-38604000D02*
X66802000Y-38608000D01*
X87122000Y-62685000D02*
X86159000Y-61722000D01*
X72364000Y-51080000D02*
X72364000Y-52779000D01*
X71100000Y-51001000D02*
X70104000Y-51997000D01*
X84533000Y-55421000D02*
X84533000Y-54151000D01*
X82296000Y-61468000D02*
X82296000Y-57658000D01*
X82296000Y-57658000D02*
X84533000Y-55421000D01*
X88481000Y-54151000D02*
X84533000Y-54151000D01*
X59732528Y-54567472D02*
X65038460Y-54567472D01*
X72364000Y-52779000D02*
X72364000Y-54544000D01*
X89128000Y-62685000D02*
X87122000Y-62685000D01*
X89128000Y-61161000D02*
X89128000Y-62685000D01*
X72506000Y-51001000D02*
X73818500Y-49688500D01*
X58928000Y-61415000D02*
X58928000Y-55372000D01*
X72377000Y-54557000D02*
X71406008Y-55527992D01*
X82296000Y-57658000D02*
X80772000Y-59182000D01*
X89091000Y-53541000D02*
X88481000Y-54151000D01*
X86159000Y-61722000D02*
X82550000Y-61722000D01*
X58928000Y-55372000D02*
X59732528Y-54567472D01*
X70104000Y-51997000D02*
X70104000Y-53528000D01*
D52*
%TO.N,IO0*%
X77216000Y-50292000D02*
X77216000Y-52578000D01*
X76200000Y-54366000D02*
X76645000Y-54811000D01*
X76200000Y-52792000D02*
X76200000Y-54366000D01*
X77216000Y-52578000D02*
X77002000Y-52792000D01*
X69368000Y-45238000D02*
X69368000Y-45904000D01*
X69342000Y-45212000D02*
X69368000Y-45238000D01*
X76220000Y-49296000D02*
X77216000Y-50292000D01*
X69342000Y-44704000D02*
X69342000Y-45212000D01*
X77002000Y-52792000D02*
X76200000Y-52792000D01*
D53*
%TO.N,VBUS*%
X83228663Y-40386000D02*
X84201000Y-41358337D01*
D51*
X87544969Y-39709031D02*
X86741000Y-40513000D01*
X85789000Y-43381000D02*
X85789000Y-45224000D01*
X87107901Y-35052000D02*
X87376000Y-35052000D01*
X85789000Y-43381000D02*
X86741000Y-42429000D01*
D53*
X82550000Y-39830022D02*
X83105978Y-40386000D01*
D51*
X86294000Y-48031500D02*
X86294000Y-48956000D01*
D53*
X82931000Y-36703000D02*
X82550000Y-37084000D01*
D51*
X86232000Y-45667000D02*
X86232000Y-47969500D01*
X88900000Y-41590000D02*
X90552000Y-43242000D01*
X86614000Y-49276000D02*
X86614000Y-51318000D01*
X83731868Y-31971632D02*
X84768500Y-30935000D01*
D53*
X82550000Y-37084000D02*
X82550000Y-39830022D01*
D51*
X85789000Y-45224000D02*
X86232000Y-45667000D01*
X83731868Y-32931868D02*
X83731868Y-31971632D01*
X85789000Y-43381000D02*
X84201000Y-41793000D01*
X86741000Y-42429000D02*
X86741000Y-41459000D01*
X86267000Y-34237000D02*
X85538649Y-33508649D01*
D53*
X83105978Y-40386000D02*
X83228663Y-40386000D01*
D51*
X87376000Y-35052000D02*
X87544969Y-35220969D01*
X84308649Y-33508649D02*
X83731868Y-32931868D01*
X85538649Y-33508649D02*
X84308649Y-33508649D01*
X86292901Y-34237000D02*
X87107901Y-35052000D01*
X86741000Y-40513000D02*
X86741000Y-41459000D01*
X87544969Y-35220969D02*
X87544969Y-39709031D01*
X86614000Y-51318000D02*
X86169000Y-51763000D01*
X86294000Y-48956000D02*
X86614000Y-49276000D01*
X86741000Y-41459000D02*
X88769000Y-41459000D01*
D52*
%TO.N,IO1*%
X78740000Y-52792000D02*
X78740000Y-54366000D01*
X78740000Y-54366000D02*
X78295000Y-54811000D01*
X70168000Y-45904000D02*
X70168000Y-45148000D01*
X78720000Y-49510000D02*
X79756000Y-50546000D01*
X79756000Y-50546000D02*
X79756000Y-52324000D01*
X70168000Y-45148000D02*
X70612000Y-44704000D01*
X79288000Y-52792000D02*
X78740000Y-52792000D01*
X79756000Y-52324000D02*
X79288000Y-52792000D01*
%TO.N,Net-(C10-Pad1)*%
X95309000Y-30933000D02*
X95309000Y-39573000D01*
X89019069Y-32790431D02*
X89019069Y-33052931D01*
X89019069Y-33052931D02*
X87849000Y-34223000D01*
X91129000Y-30933000D02*
X95309000Y-30933000D01*
D51*
%TO.N,+5V*%
X90685221Y-57127865D02*
X88796622Y-59016464D01*
X90696622Y-57127865D02*
X93681753Y-60112996D01*
D52*
%TO.N,Net-(D3-Pad1)*%
X83193500Y-30935000D02*
X83193500Y-32624500D01*
%TO.N,Net-(D4-Pad1)*%
X84743000Y-32650000D02*
X86255000Y-32650000D01*
%TO.N,Net-(D5-Pad2)*%
X82867000Y-47573000D02*
X82867000Y-49276000D01*
X84353500Y-43381000D02*
X84353500Y-46086500D01*
X84353500Y-46086500D02*
X82867000Y-47573000D01*
D54*
%TO.N,USB_D-*%
X89727000Y-36003000D02*
X89480520Y-36249480D01*
X88646000Y-34798000D02*
X89154000Y-34798000D01*
X89480520Y-36249480D02*
X89480520Y-38535480D01*
X89359000Y-35003000D02*
X90564000Y-35003000D01*
X90564000Y-36003000D02*
X89727000Y-36003000D01*
X87971489Y-35472511D02*
X88646000Y-34798000D01*
X87971489Y-38322489D02*
X87971489Y-35472511D01*
X89117000Y-38899000D02*
X88548000Y-38899000D01*
X89480520Y-38535480D02*
X89117000Y-38899000D01*
X81534000Y-44196000D02*
X80076000Y-44196000D01*
X88548000Y-38899000D02*
X87971489Y-38322489D01*
X89359000Y-35003000D02*
X89154000Y-34798000D01*
%TO.N,USB_D+*%
X81471997Y-41593997D02*
X81471997Y-42200003D01*
X91593000Y-34503000D02*
X91694000Y-34604000D01*
X90818000Y-34503000D02*
X91593000Y-34503000D01*
X90189969Y-35503000D02*
X90016489Y-35676480D01*
X89591750Y-35676480D02*
X89128684Y-36139546D01*
X91694000Y-34604000D02*
X91694000Y-35402000D01*
X89875000Y-34503000D02*
X90818000Y-34503000D01*
X90016489Y-35676480D02*
X89591750Y-35676480D01*
X91694000Y-35402000D02*
X91593000Y-35503000D01*
X91593000Y-35503000D02*
X90818000Y-35503000D01*
X89128684Y-37034978D02*
X88552173Y-37611489D01*
X81471997Y-42200003D02*
X80268000Y-43404000D01*
X89128684Y-36139546D02*
X89128684Y-37034978D01*
X89182681Y-33810681D02*
X89875000Y-34503000D01*
X90564000Y-35503000D02*
X90189969Y-35503000D01*
D52*
%TO.N,Net-(D8-Pad2)*%
X93218000Y-35814000D02*
X93471999Y-36067999D01*
X91546022Y-33003000D02*
X93218000Y-34674978D01*
X90564000Y-33003000D02*
X91546022Y-33003000D01*
X93471999Y-36067999D02*
X93471999Y-41603000D01*
X91529000Y-37503000D02*
X93218000Y-35814000D01*
X91529000Y-37503000D02*
X90564000Y-37503000D01*
X93218000Y-34674978D02*
X93218000Y-35814000D01*
X93852000Y-43635000D02*
X93852000Y-41983001D01*
X93852000Y-41983001D02*
X93471999Y-41603000D01*
D51*
%TO.N,IO10_SDA*%
X72178528Y-46947472D02*
X65038460Y-46947472D01*
X68072000Y-49981012D02*
X68072000Y-57032992D01*
X68072000Y-57032992D02*
X69406008Y-58367000D01*
X72568000Y-46558000D02*
X72178528Y-46947472D01*
X72568000Y-45904000D02*
X72568000Y-46558000D01*
X65038460Y-46947472D02*
X68072000Y-49981012D01*
D52*
%TO.N,IO7_INT2*%
X80264000Y-55372000D02*
X80264000Y-48514000D01*
X80264000Y-48514000D02*
X78994000Y-47244000D01*
X78994000Y-47244000D02*
X77978000Y-47244000D01*
X78232000Y-56388000D02*
X79248000Y-56388000D01*
X79248000Y-56388000D02*
X80264000Y-55372000D01*
D51*
%TO.N,IO8_SCL*%
X75438000Y-47244000D02*
X75184000Y-47498000D01*
X75184000Y-47498000D02*
X75184000Y-55626000D01*
X76200000Y-60452000D02*
X68326000Y-60452000D01*
X66802000Y-58928000D02*
X66802000Y-50800000D01*
X77406008Y-58367000D02*
X77406008Y-59245992D01*
X77368000Y-45904000D02*
X77368000Y-46330000D01*
X77406008Y-59245992D02*
X76200000Y-60452000D01*
X75184000Y-55626000D02*
X77406008Y-57848008D01*
X76454000Y-47244000D02*
X75438000Y-47244000D01*
X68326000Y-60452000D02*
X66802000Y-58928000D01*
X77368000Y-46330000D02*
X76454000Y-47244000D01*
X66802000Y-50800000D02*
X65489472Y-49487472D01*
D52*
%TO.N,Net-(JP1-Pad1)*%
X57628000Y-43718000D02*
X59478528Y-41867472D01*
X57628000Y-61415000D02*
X57628000Y-43718000D01*
X59478528Y-41867472D02*
X65038460Y-41867472D01*
%TO.N,Net-(JP1-Pad3)*%
X61521000Y-57859000D02*
X62962000Y-57859000D01*
X60228000Y-59152000D02*
X61521000Y-57859000D01*
X60228000Y-61415000D02*
X60228000Y-59152000D01*
%TO.N,IO6_INT1*%
X74640520Y-48468960D02*
X74341480Y-48768000D01*
X74640520Y-47231480D02*
X74640520Y-48468960D01*
X74341480Y-48768000D02*
X71628000Y-48768000D01*
X69364511Y-48745489D02*
X69342000Y-48768000D01*
X71628000Y-48768000D02*
X71605489Y-48745489D01*
X64262000Y-58420000D02*
X62962000Y-59720000D01*
X75768000Y-46104000D02*
X74640520Y-47231480D01*
X69342000Y-48768000D02*
X68834000Y-49276000D01*
X68834000Y-49276000D02*
X68834000Y-56388000D01*
X62962000Y-59720000D02*
X62962000Y-61415000D01*
X71605489Y-48745489D02*
X69364511Y-48745489D01*
%TO.N,Net-(JP2-Pad2)*%
X61119377Y-53594000D02*
X59944000Y-53594000D01*
X61865511Y-52847866D02*
X61119377Y-53594000D01*
X64262000Y-59944000D02*
X64262000Y-61415000D01*
X61865511Y-47580421D02*
X61865511Y-52847866D01*
X65038460Y-44407472D02*
X61865511Y-47580421D01*
%TO.N,Net-(JP3-Pad3)*%
X61214000Y-46228000D02*
X64262000Y-43180000D01*
X64262000Y-40640000D02*
X65560057Y-40640000D01*
X65562000Y-57859000D02*
X65562000Y-56926000D01*
X63754000Y-38071932D02*
X63754000Y-40132000D01*
X66040000Y-43180000D02*
X64262000Y-43180000D01*
X63246000Y-55626000D02*
X63246000Y-55372000D01*
X65560057Y-40640000D02*
X66294000Y-41373943D01*
X66294000Y-42926000D02*
X66040000Y-43180000D01*
X61214000Y-52578000D02*
X61214000Y-46228000D01*
X63754000Y-56134000D02*
X63246000Y-55626000D01*
X64770000Y-56134000D02*
X65562000Y-56926000D01*
X65038460Y-36787472D02*
X63754000Y-38071932D01*
X66294000Y-41373943D02*
X66294000Y-42926000D01*
X64770000Y-56134000D02*
X63754000Y-56134000D01*
X63754000Y-40132000D02*
X64262000Y-40640000D01*
%TO.N,Net-(L1-Pad1)*%
X89945342Y-60434480D02*
X84190520Y-60434480D01*
X90696622Y-59683200D02*
X89945342Y-60434480D01*
%TO.N,IO5_LED*%
X75692000Y-44704000D02*
X74968000Y-45428000D01*
X81217000Y-47943000D02*
X80772000Y-47498000D01*
X81217000Y-49276000D02*
X81217000Y-47943000D01*
X78740000Y-44704000D02*
X75692000Y-44704000D01*
X74968000Y-45428000D02*
X74968000Y-45904000D01*
%TO.N,Net-(C2-Pad1)*%
X69329000Y-47993000D02*
X69088000Y-47752000D01*
X81280000Y-53086000D02*
X81280000Y-57752623D01*
X80120489Y-61324489D02*
X81534000Y-62738000D01*
X80120489Y-58912134D02*
X80120489Y-61324489D01*
X72136000Y-47993000D02*
X69329000Y-47993000D01*
X81280000Y-57752623D02*
X80120489Y-58912134D01*
X72136000Y-47993000D02*
X73864000Y-47993000D01*
%TO.N,Net-(J3-PadA5)*%
X90932000Y-40386000D02*
X91186000Y-40640000D01*
X90081480Y-39261711D02*
X90081480Y-39884289D01*
X90081480Y-39884289D02*
X90583191Y-40386000D01*
X89938995Y-36557005D02*
X89938995Y-39119226D01*
X91186000Y-40640000D02*
X91186000Y-41148000D01*
X91186000Y-41148000D02*
X90731000Y-41603000D01*
X89938995Y-39119226D02*
X90081480Y-39261711D01*
X90818000Y-36503000D02*
X89993000Y-36503000D01*
X90583191Y-40386000D02*
X90932000Y-40386000D01*
X89993000Y-36503000D02*
X89938995Y-36557005D01*
X90731000Y-41603000D02*
X90361000Y-41603000D01*
%TO.N,Net-(J3-PadB5)*%
X90089978Y-33503000D02*
X89991489Y-33404511D01*
X89154000Y-32004000D02*
X89154000Y-31750000D01*
X90564000Y-33503000D02*
X90089978Y-33503000D01*
X89154000Y-31750000D02*
X88339000Y-30935000D01*
X89991489Y-32841489D02*
X89154000Y-32004000D01*
X88339000Y-30935000D02*
X87947000Y-30935000D01*
X89991489Y-33404511D02*
X89991489Y-32841489D01*
%TO.N,Net-(R5-Pad1)*%
X83219000Y-34300000D02*
X84201000Y-35282000D01*
X84201000Y-35282000D02*
X84201000Y-36159000D01*
%TO.N,Net-(R6-Pad1)*%
X85471000Y-36159000D02*
X85471000Y-35028000D01*
X85471000Y-35028000D02*
X84743000Y-34300000D01*
%TO.N,Net-(R8-Pad2)*%
X89091000Y-55191000D02*
X90741000Y-53541000D01*
X88796622Y-57127865D02*
X88796622Y-55613378D01*
X88796622Y-55613378D02*
X89091000Y-55319000D01*
%TD*%
M02*
