%TF.GenerationSoftware,KiCad,Pcbnew,(6.0.2)*%
%TF.CreationDate,2022-03-07T06:31:50-05:00*%
%TF.ProjectId,ferrous_slime,66657272-6f75-4735-9f73-6c696d652e6b,rev?*%
%TF.SameCoordinates,Original*%
%TF.FileFunction,Legend,Bot*%
%TF.FilePolarity,Positive*%
%FSLAX46Y46*%
G04 Gerber Fmt 4.6, Leading zero omitted, Abs format (unit mm)*
G04 Created by KiCad (PCBNEW (6.0.2)) date 2022-03-07 06:31:50*
%MOMM*%
%LPD*%
G01*
G04 APERTURE LIST*
%ADD10C,0.200000*%
G04 APERTURE END LIST*
D10*
X57813380Y-31838857D02*
X57813380Y-31362666D01*
X56813380Y-31362666D01*
X57813380Y-32172190D02*
X57146714Y-32172190D01*
X56813380Y-32172190D02*
X56861000Y-32124571D01*
X56908619Y-32172190D01*
X56861000Y-32219809D01*
X56813380Y-32172190D01*
X56908619Y-32172190D01*
X57765761Y-33076952D02*
X57813380Y-32981714D01*
X57813380Y-32791238D01*
X57765761Y-32696000D01*
X57718142Y-32648380D01*
X57622904Y-32600761D01*
X57337190Y-32600761D01*
X57241952Y-32648380D01*
X57194333Y-32696000D01*
X57146714Y-32791238D01*
X57146714Y-32981714D01*
X57194333Y-33076952D01*
X57765761Y-33886476D02*
X57813380Y-33791238D01*
X57813380Y-33600761D01*
X57765761Y-33505523D01*
X57670523Y-33457904D01*
X57289571Y-33457904D01*
X57194333Y-33505523D01*
X57146714Y-33600761D01*
X57146714Y-33791238D01*
X57194333Y-33886476D01*
X57289571Y-33934095D01*
X57384809Y-33934095D01*
X57480047Y-33457904D01*
X57146714Y-34362666D02*
X57813380Y-34362666D01*
X57241952Y-34362666D02*
X57194333Y-34410285D01*
X57146714Y-34505523D01*
X57146714Y-34648380D01*
X57194333Y-34743619D01*
X57289571Y-34791238D01*
X57813380Y-34791238D01*
X57765761Y-35219809D02*
X57813380Y-35315047D01*
X57813380Y-35505523D01*
X57765761Y-35600761D01*
X57670523Y-35648380D01*
X57622904Y-35648380D01*
X57527666Y-35600761D01*
X57480047Y-35505523D01*
X57480047Y-35362666D01*
X57432428Y-35267428D01*
X57337190Y-35219809D01*
X57289571Y-35219809D01*
X57194333Y-35267428D01*
X57146714Y-35362666D01*
X57146714Y-35505523D01*
X57194333Y-35600761D01*
X57765761Y-36457904D02*
X57813380Y-36362666D01*
X57813380Y-36172190D01*
X57765761Y-36076952D01*
X57670523Y-36029333D01*
X57289571Y-36029333D01*
X57194333Y-36076952D01*
X57146714Y-36172190D01*
X57146714Y-36362666D01*
X57194333Y-36457904D01*
X57289571Y-36505523D01*
X57384809Y-36505523D01*
X57480047Y-36029333D01*
X57718142Y-36934095D02*
X57765761Y-36981714D01*
X57813380Y-36934095D01*
X57765761Y-36886476D01*
X57718142Y-36934095D01*
X57813380Y-36934095D01*
X57194333Y-36934095D02*
X57241952Y-36981714D01*
X57289571Y-36934095D01*
X57241952Y-36886476D01*
X57194333Y-36934095D01*
X57289571Y-36934095D01*
X57718142Y-38743619D02*
X57765761Y-38696000D01*
X57813380Y-38553142D01*
X57813380Y-38457904D01*
X57765761Y-38315047D01*
X57670523Y-38219809D01*
X57575285Y-38172190D01*
X57384809Y-38124571D01*
X57241952Y-38124571D01*
X57051476Y-38172190D01*
X56956238Y-38219809D01*
X56861000Y-38315047D01*
X56813380Y-38457904D01*
X56813380Y-38553142D01*
X56861000Y-38696000D01*
X56908619Y-38743619D01*
X57289571Y-39172190D02*
X57289571Y-39505523D01*
X57813380Y-39648380D02*
X57813380Y-39172190D01*
X56813380Y-39172190D01*
X56813380Y-39648380D01*
X57813380Y-40648380D02*
X57337190Y-40315047D01*
X57813380Y-40076952D02*
X56813380Y-40076952D01*
X56813380Y-40457904D01*
X56861000Y-40553142D01*
X56908619Y-40600761D01*
X57003857Y-40648380D01*
X57146714Y-40648380D01*
X57241952Y-40600761D01*
X57289571Y-40553142D01*
X57337190Y-40457904D01*
X57337190Y-40076952D01*
X57813380Y-41076952D02*
X56813380Y-41076952D01*
X57813380Y-41648380D01*
X56813380Y-41648380D01*
X57432428Y-42124571D02*
X57432428Y-42886476D01*
X56813380Y-43553142D02*
X56813380Y-43743619D01*
X56861000Y-43838857D01*
X56956238Y-43934095D01*
X57146714Y-43981714D01*
X57480047Y-43981714D01*
X57670523Y-43934095D01*
X57765761Y-43838857D01*
X57813380Y-43743619D01*
X57813380Y-43553142D01*
X57765761Y-43457904D01*
X57670523Y-43362666D01*
X57480047Y-43315047D01*
X57146714Y-43315047D01*
X56956238Y-43362666D01*
X56861000Y-43457904D01*
X56813380Y-43553142D01*
X57813380Y-44410285D02*
X56813380Y-44410285D01*
X57289571Y-44410285D02*
X57289571Y-44981714D01*
X57813380Y-44981714D02*
X56813380Y-44981714D01*
X57813380Y-45934095D02*
X57813380Y-45457904D01*
X56813380Y-45457904D01*
X57432428Y-46267428D02*
X57432428Y-47029333D01*
X57813380Y-47505523D02*
X56813380Y-47505523D01*
X56813380Y-47886476D01*
X56861000Y-47981714D01*
X56908619Y-48029333D01*
X57003857Y-48076952D01*
X57146714Y-48076952D01*
X57241952Y-48029333D01*
X57289571Y-47981714D01*
X57337190Y-47886476D01*
X57337190Y-47505523D01*
X57146714Y-49172190D02*
X57813380Y-49410285D01*
X57146714Y-49648380D01*
X56908619Y-49981714D02*
X56861000Y-50029333D01*
X56813380Y-50124571D01*
X56813380Y-50362666D01*
X56861000Y-50457904D01*
X56908619Y-50505523D01*
X57003857Y-50553142D01*
X57099095Y-50553142D01*
X57241952Y-50505523D01*
X57813380Y-49934095D01*
X57813380Y-50553142D01*
X57813380Y-51886476D02*
X57765761Y-51791238D01*
X57718142Y-51743619D01*
X57622904Y-51695999D01*
X57337190Y-51695999D01*
X57241952Y-51743619D01*
X57194333Y-51791238D01*
X57146714Y-51886476D01*
X57146714Y-52029333D01*
X57194333Y-52124571D01*
X57241952Y-52172190D01*
X57337190Y-52219809D01*
X57622904Y-52219809D01*
X57718142Y-52172190D01*
X57765761Y-52124571D01*
X57813380Y-52029333D01*
X57813380Y-51886476D01*
X57813380Y-52648380D02*
X57146714Y-52648380D01*
X57337190Y-52648380D02*
X57241952Y-52695999D01*
X57194333Y-52743619D01*
X57146714Y-52838857D01*
X57146714Y-52934095D01*
X57813380Y-54172190D02*
X57765761Y-54076952D01*
X57670523Y-54029333D01*
X56813380Y-54029333D01*
X57813380Y-54981714D02*
X57289571Y-54981714D01*
X57194333Y-54934095D01*
X57146714Y-54838857D01*
X57146714Y-54648380D01*
X57194333Y-54553142D01*
X57765761Y-54981714D02*
X57813380Y-54886476D01*
X57813380Y-54648380D01*
X57765761Y-54553142D01*
X57670523Y-54505523D01*
X57575285Y-54505523D01*
X57480047Y-54553142D01*
X57432428Y-54648380D01*
X57432428Y-54886476D01*
X57384809Y-54981714D01*
X57146714Y-55315047D02*
X57146714Y-55695999D01*
X56813380Y-55457904D02*
X57670523Y-55457904D01*
X57765761Y-55505523D01*
X57813380Y-55600761D01*
X57813380Y-55695999D01*
X57765761Y-56410285D02*
X57813380Y-56315047D01*
X57813380Y-56124571D01*
X57765761Y-56029333D01*
X57670523Y-55981714D01*
X57289571Y-55981714D01*
X57194333Y-56029333D01*
X57146714Y-56124571D01*
X57146714Y-56315047D01*
X57194333Y-56410285D01*
X57289571Y-56457904D01*
X57384809Y-56457904D01*
X57480047Y-55981714D01*
X57813380Y-56886476D02*
X57146714Y-56886476D01*
X57337190Y-56886476D02*
X57241952Y-56934095D01*
X57194333Y-56981714D01*
X57146714Y-57076952D01*
X57146714Y-57172190D01*
X58756714Y-31624571D02*
X59566238Y-31624571D01*
X59661476Y-31576952D01*
X59709095Y-31529333D01*
X59756714Y-31434095D01*
X59756714Y-31291238D01*
X59709095Y-31196000D01*
X59375761Y-31624571D02*
X59423380Y-31529333D01*
X59423380Y-31338857D01*
X59375761Y-31243619D01*
X59328142Y-31196000D01*
X59232904Y-31148380D01*
X58947190Y-31148380D01*
X58851952Y-31196000D01*
X58804333Y-31243619D01*
X58756714Y-31338857D01*
X58756714Y-31529333D01*
X58804333Y-31624571D01*
X59423380Y-32100761D02*
X58756714Y-32100761D01*
X58423380Y-32100761D02*
X58471000Y-32053142D01*
X58518619Y-32100761D01*
X58471000Y-32148380D01*
X58423380Y-32100761D01*
X58518619Y-32100761D01*
X58756714Y-32434095D02*
X58756714Y-32815047D01*
X58423380Y-32576952D02*
X59280523Y-32576952D01*
X59375761Y-32624571D01*
X59423380Y-32719809D01*
X59423380Y-32815047D01*
X59423380Y-33148380D02*
X58423380Y-33148380D01*
X59423380Y-33576952D02*
X58899571Y-33576952D01*
X58804333Y-33529333D01*
X58756714Y-33434095D01*
X58756714Y-33291238D01*
X58804333Y-33196000D01*
X58851952Y-33148380D01*
X58756714Y-34481714D02*
X59423380Y-34481714D01*
X58756714Y-34053142D02*
X59280523Y-34053142D01*
X59375761Y-34100761D01*
X59423380Y-34196000D01*
X59423380Y-34338857D01*
X59375761Y-34434095D01*
X59328142Y-34481714D01*
X59423380Y-34957904D02*
X58423380Y-34957904D01*
X58804333Y-34957904D02*
X58756714Y-35053142D01*
X58756714Y-35243619D01*
X58804333Y-35338857D01*
X58851952Y-35386476D01*
X58947190Y-35434095D01*
X59232904Y-35434095D01*
X59328142Y-35386476D01*
X59375761Y-35338857D01*
X59423380Y-35243619D01*
X59423380Y-35053142D01*
X59375761Y-34957904D01*
X59328142Y-35862666D02*
X59375761Y-35910285D01*
X59423380Y-35862666D01*
X59375761Y-35815047D01*
X59328142Y-35862666D01*
X59423380Y-35862666D01*
X59375761Y-36767428D02*
X59423380Y-36672190D01*
X59423380Y-36481714D01*
X59375761Y-36386476D01*
X59328142Y-36338857D01*
X59232904Y-36291238D01*
X58947190Y-36291238D01*
X58851952Y-36338857D01*
X58804333Y-36386476D01*
X58756714Y-36481714D01*
X58756714Y-36672190D01*
X58804333Y-36767428D01*
X59423380Y-37338857D02*
X59375761Y-37243619D01*
X59328142Y-37196000D01*
X59232904Y-37148380D01*
X58947190Y-37148380D01*
X58851952Y-37196000D01*
X58804333Y-37243619D01*
X58756714Y-37338857D01*
X58756714Y-37481714D01*
X58804333Y-37576952D01*
X58851952Y-37624571D01*
X58947190Y-37672190D01*
X59232904Y-37672190D01*
X59328142Y-37624571D01*
X59375761Y-37576952D01*
X59423380Y-37481714D01*
X59423380Y-37338857D01*
X59423380Y-38100761D02*
X58756714Y-38100761D01*
X58851952Y-38100761D02*
X58804333Y-38148380D01*
X58756714Y-38243619D01*
X58756714Y-38386476D01*
X58804333Y-38481714D01*
X58899571Y-38529333D01*
X59423380Y-38529333D01*
X58899571Y-38529333D02*
X58804333Y-38576952D01*
X58756714Y-38672190D01*
X58756714Y-38815047D01*
X58804333Y-38910285D01*
X58899571Y-38957904D01*
X59423380Y-38957904D01*
X58375761Y-40148380D02*
X59661476Y-39291238D01*
X58423380Y-40338857D02*
X58423380Y-40910285D01*
X59423380Y-40624571D02*
X58423380Y-40624571D01*
X59423380Y-41243619D02*
X58423380Y-41243619D01*
X59423380Y-41672190D02*
X58899571Y-41672190D01*
X58804333Y-41624571D01*
X58756714Y-41529333D01*
X58756714Y-41386476D01*
X58804333Y-41291238D01*
X58851952Y-41243619D01*
X59375761Y-42529333D02*
X59423380Y-42434095D01*
X59423380Y-42243619D01*
X59375761Y-42148380D01*
X59280523Y-42100761D01*
X58899571Y-42100761D01*
X58804333Y-42148380D01*
X58756714Y-42243619D01*
X58756714Y-42434095D01*
X58804333Y-42529333D01*
X58899571Y-42576952D01*
X58994809Y-42576952D01*
X59090047Y-42100761D01*
X58899571Y-43338857D02*
X58947190Y-43481714D01*
X58994809Y-43529333D01*
X59090047Y-43576952D01*
X59232904Y-43576952D01*
X59328142Y-43529333D01*
X59375761Y-43481714D01*
X59423380Y-43386476D01*
X59423380Y-43005523D01*
X58423380Y-43005523D01*
X58423380Y-43338857D01*
X58471000Y-43434095D01*
X58518619Y-43481714D01*
X58613857Y-43529333D01*
X58709095Y-43529333D01*
X58804333Y-43481714D01*
X58851952Y-43434095D01*
X58899571Y-43338857D01*
X58899571Y-43005523D01*
X58756714Y-44434095D02*
X59423380Y-44434095D01*
X58756714Y-44005523D02*
X59280523Y-44005523D01*
X59375761Y-44053142D01*
X59423380Y-44148380D01*
X59423380Y-44291238D01*
X59375761Y-44386476D01*
X59328142Y-44434095D01*
X58756714Y-44767428D02*
X58756714Y-45148380D01*
X58423380Y-44910285D02*
X59280523Y-44910285D01*
X59375761Y-44957904D01*
X59423380Y-45053142D01*
X59423380Y-45148380D01*
X59423380Y-45624571D02*
X59375761Y-45529333D01*
X59280523Y-45481714D01*
X58423380Y-45481714D01*
X59423380Y-46434095D02*
X58899571Y-46434095D01*
X58804333Y-46386476D01*
X58756714Y-46291238D01*
X58756714Y-46100761D01*
X58804333Y-46005523D01*
X59375761Y-46434095D02*
X59423380Y-46338857D01*
X59423380Y-46100761D01*
X59375761Y-46005523D01*
X59280523Y-45957904D01*
X59185285Y-45957904D01*
X59090047Y-46005523D01*
X59042428Y-46100761D01*
X59042428Y-46338857D01*
X58994809Y-46434095D01*
X59423380Y-46910285D02*
X58423380Y-46910285D01*
X59423380Y-47338857D02*
X58899571Y-47338857D01*
X58804333Y-47291238D01*
X58756714Y-47195999D01*
X58756714Y-47053142D01*
X58804333Y-46957904D01*
X58851952Y-46910285D01*
X58375761Y-48529333D02*
X59661476Y-47672190D01*
X59375761Y-48815047D02*
X59423380Y-48910285D01*
X59423380Y-49100761D01*
X59375761Y-49195999D01*
X59280523Y-49243619D01*
X59232904Y-49243619D01*
X59137666Y-49195999D01*
X59090047Y-49100761D01*
X59090047Y-48957904D01*
X59042428Y-48862666D01*
X58947190Y-48815047D01*
X58899571Y-48815047D01*
X58804333Y-48862666D01*
X58756714Y-48957904D01*
X58756714Y-49100761D01*
X58804333Y-49195999D01*
X59423380Y-49815047D02*
X59375761Y-49719809D01*
X59280523Y-49672190D01*
X58423380Y-49672190D01*
X59423380Y-50195999D02*
X58756714Y-50195999D01*
X58423380Y-50195999D02*
X58471000Y-50148380D01*
X58518619Y-50195999D01*
X58471000Y-50243619D01*
X58423380Y-50195999D01*
X58518619Y-50195999D01*
X59423380Y-50672190D02*
X58756714Y-50672190D01*
X58851952Y-50672190D02*
X58804333Y-50719809D01*
X58756714Y-50815047D01*
X58756714Y-50957904D01*
X58804333Y-51053142D01*
X58899571Y-51100761D01*
X59423380Y-51100761D01*
X58899571Y-51100761D02*
X58804333Y-51148380D01*
X58756714Y-51243619D01*
X58756714Y-51386476D01*
X58804333Y-51481714D01*
X58899571Y-51529333D01*
X59423380Y-51529333D01*
X59375761Y-52386476D02*
X59423380Y-52291238D01*
X59423380Y-52100761D01*
X59375761Y-52005523D01*
X59280523Y-51957904D01*
X58899571Y-51957904D01*
X58804333Y-52005523D01*
X58756714Y-52100761D01*
X58756714Y-52291238D01*
X58804333Y-52386476D01*
X58899571Y-52434095D01*
X58994809Y-52434095D01*
X59090047Y-51957904D01*
X58756714Y-52767428D02*
X59423380Y-53005523D01*
X58756714Y-53243619D01*
X59423380Y-53624571D02*
X58756714Y-53624571D01*
X58947190Y-53624571D02*
X58851952Y-53672190D01*
X58804333Y-53719809D01*
X58756714Y-53815047D01*
X58756714Y-53910285D01*
X59518619Y-54005523D02*
X59518619Y-54767428D01*
X58756714Y-55005523D02*
X59756714Y-55005523D01*
X58804333Y-55005523D02*
X58756714Y-55100761D01*
X58756714Y-55291238D01*
X58804333Y-55386476D01*
X58851952Y-55434095D01*
X58947190Y-55481714D01*
X59232904Y-55481714D01*
X59328142Y-55434095D01*
X59375761Y-55386476D01*
X59423380Y-55291238D01*
X59423380Y-55100761D01*
X59375761Y-55005523D01*
X59375761Y-56338857D02*
X59423380Y-56243619D01*
X59423380Y-56053142D01*
X59375761Y-55957904D01*
X59328142Y-55910285D01*
X59232904Y-55862666D01*
X58947190Y-55862666D01*
X58851952Y-55910285D01*
X58804333Y-55957904D01*
X58756714Y-56053142D01*
X58756714Y-56243619D01*
X58804333Y-56338857D01*
X59423380Y-56767428D02*
X58423380Y-56767428D01*
X58804333Y-56767428D02*
X58756714Y-56862666D01*
X58756714Y-57053142D01*
X58804333Y-57148380D01*
X58851952Y-57195999D01*
X58947190Y-57243619D01*
X59232904Y-57243619D01*
X59328142Y-57195999D01*
X59375761Y-57148380D01*
X59423380Y-57053142D01*
X59423380Y-56862666D01*
X59375761Y-56767428D01*
M02*
