%FSLAX45Y45*%
G04 Gerber Fmt 4.5, Leading zero omitted, Abs format (unit mm)*
G04 Created by KiCad (PCBNEW (6.0.2)) date 2022-03-15 02:50:10*
%MOMM*%
%LPD*%
G01*
G04 APERTURE LIST*
%TA.AperFunction,Profile*%
%ADD10C,0.050000*%
%TD*%
%ADD11C,0.200000*%
%ADD12C,0.020000*%
%ADD13C,0.030000*%
%ADD14C,0.040000*%
%ADD15C,0.060000*%
%ADD16C,0.075000*%
%ADD17C,0.088900*%
%ADD18C,0.090000*%
%ADD19C,0.100000*%
%ADD20C,0.150000*%
G04 APERTURE END LIST*
D10*
X9723120Y-4490500D02*
X9545320Y-4490500D01*
X9545320Y-4490500D02*
X9545320Y-5201700D01*
X9545320Y-5201700D02*
X9723120Y-5201700D01*
X9723120Y-5201700D02*
X9723120Y-6395500D01*
X9723120Y-6395500D02*
X5582920Y-6395500D01*
X5582920Y-6395500D02*
X5582920Y-2990306D01*
X5582920Y-2990306D02*
X6731000Y-2990526D01*
X6731000Y-2990526D02*
X6731000Y-3530600D01*
X6731000Y-3530600D02*
X8102600Y-3530600D01*
X8102600Y-3530600D02*
X8102600Y-2991900D01*
X8102600Y-2991900D02*
X9723120Y-2991900D01*
X9723120Y-2991900D02*
X9723120Y-4490500D01*
D11*
D12*
X5679600Y-5184300D02*
X5699600Y-5204300D01*
X5699600Y-5184300D02*
X5679600Y-5204300D01*
X5692300Y-3215800D02*
X5712300Y-3235800D01*
X5712300Y-3215800D02*
X5692300Y-3235800D01*
X5692300Y-4066700D02*
X5712300Y-4086700D01*
X5712300Y-4066700D02*
X5692300Y-4086700D01*
X5743100Y-5400200D02*
X5763100Y-5420200D01*
X5763100Y-5400200D02*
X5743100Y-5420200D01*
X5743100Y-5743100D02*
X5763100Y-5763100D01*
X5763100Y-5743100D02*
X5743100Y-5763100D01*
X5908200Y-5311300D02*
X5928200Y-5331300D01*
X5928200Y-5311300D02*
X5908200Y-5331300D01*
X5920900Y-4142900D02*
X5940900Y-4162900D01*
X5940900Y-4142900D02*
X5920900Y-4162900D01*
X6035200Y-4003200D02*
X6055200Y-4023200D01*
X6055200Y-4003200D02*
X6035200Y-4023200D01*
X6047900Y-3698400D02*
X6067900Y-3718400D01*
X6067900Y-3698400D02*
X6047900Y-3718400D01*
X6060600Y-3292000D02*
X6080600Y-3312000D01*
X6080600Y-3292000D02*
X6060600Y-3312000D01*
X6073300Y-4193700D02*
X6093300Y-4213700D01*
X6093300Y-4193700D02*
X6073300Y-4213700D01*
X6149500Y-6162200D02*
X6169500Y-6182200D01*
X6169500Y-6162200D02*
X6149500Y-6182200D01*
X6174900Y-4663600D02*
X6194900Y-4683600D01*
X6194900Y-4663600D02*
X6174900Y-4683600D01*
X6174900Y-4917600D02*
X6194900Y-4937600D01*
X6194900Y-4917600D02*
X6174900Y-4937600D01*
X6213000Y-3419000D02*
X6233000Y-3439000D01*
X6233000Y-3419000D02*
X6213000Y-3439000D01*
X6213000Y-4409600D02*
X6233000Y-4429600D01*
X6233000Y-4409600D02*
X6213000Y-4429600D01*
X6340000Y-3177700D02*
X6360000Y-3197700D01*
X6360000Y-3177700D02*
X6340000Y-3197700D01*
X6365400Y-5019200D02*
X6385400Y-5039200D01*
X6385400Y-5019200D02*
X6365400Y-5039200D01*
X6378100Y-3584100D02*
X6398100Y-3604100D01*
X6398100Y-3584100D02*
X6378100Y-3604100D01*
X6378100Y-4777900D02*
X6398100Y-4797900D01*
X6398100Y-4777900D02*
X6378100Y-4797900D01*
X6586950Y-3492047D02*
X6606950Y-3512047D01*
X6606950Y-3492047D02*
X6586950Y-3512047D01*
X6594000Y-5616100D02*
X6614000Y-5636100D01*
X6614000Y-5616100D02*
X6594000Y-5636100D01*
X6606700Y-3838100D02*
X6626700Y-3858100D01*
X6626700Y-3838100D02*
X6606700Y-3858100D01*
X6619400Y-3215800D02*
X6639400Y-3235800D01*
X6639400Y-3215800D02*
X6619400Y-3235800D01*
X6657500Y-3050700D02*
X6677500Y-3070700D01*
X6677500Y-3050700D02*
X6657500Y-3070700D01*
X6721000Y-5298600D02*
X6741000Y-5318600D01*
X6741000Y-5298600D02*
X6721000Y-5318600D01*
X6721000Y-5565300D02*
X6741000Y-5585300D01*
X6741000Y-5565300D02*
X6721000Y-5585300D01*
X6822600Y-5298600D02*
X6842600Y-5318600D01*
X6842600Y-5298600D02*
X6822600Y-5318600D01*
X6835300Y-5044600D02*
X6855300Y-5064600D01*
X6855300Y-5044600D02*
X6835300Y-5064600D01*
X6924200Y-4066700D02*
X6944200Y-4086700D01*
X6944200Y-4066700D02*
X6924200Y-4086700D01*
X6924200Y-4295300D02*
X6944200Y-4315300D01*
X6944200Y-4295300D02*
X6924200Y-4315300D01*
X6975000Y-6276500D02*
X6995000Y-6296500D01*
X6995000Y-6276500D02*
X6975000Y-6296500D01*
X7025800Y-4079400D02*
X7045800Y-4099400D01*
X7045800Y-4079400D02*
X7025800Y-4099400D01*
X7178200Y-5235100D02*
X7198200Y-5255100D01*
X7198200Y-5235100D02*
X7178200Y-5255100D01*
X7229000Y-5959000D02*
X7249000Y-5979000D01*
X7249000Y-5959000D02*
X7229000Y-5979000D01*
X7292500Y-4473100D02*
X7312500Y-4493100D01*
X7312500Y-4473100D02*
X7292500Y-4493100D01*
X7292500Y-4689000D02*
X7312500Y-4709000D01*
X7312500Y-4689000D02*
X7292500Y-4709000D01*
X7317900Y-5489100D02*
X7337900Y-5509100D01*
X7337900Y-5489100D02*
X7317900Y-5509100D01*
X7343300Y-6276500D02*
X7363300Y-6296500D01*
X7363300Y-6276500D02*
X7343300Y-6296500D01*
X7444900Y-5171600D02*
X7464900Y-5191600D01*
X7464900Y-5171600D02*
X7444900Y-5191600D01*
X7698900Y-5679600D02*
X7718900Y-5699600D01*
X7718900Y-5679600D02*
X7698900Y-5699600D01*
X7724300Y-6276500D02*
X7744300Y-6296500D01*
X7744300Y-6276500D02*
X7724300Y-6296500D01*
X7775100Y-4689000D02*
X7795100Y-4709000D01*
X7795100Y-4689000D02*
X7775100Y-4709000D01*
X7775100Y-5997100D02*
X7795100Y-6017100D01*
X7795100Y-5997100D02*
X7775100Y-6017100D01*
X7800500Y-4142900D02*
X7820500Y-4162900D01*
X7820500Y-4142900D02*
X7800500Y-4162900D01*
X7965600Y-4917600D02*
X7985600Y-4937600D01*
X7985600Y-4917600D02*
X7965600Y-4937600D01*
X8130700Y-4181000D02*
X8150700Y-4201000D01*
X8150700Y-4181000D02*
X8130700Y-4201000D01*
X8156100Y-3634900D02*
X8176100Y-3654900D01*
X8176100Y-3634900D02*
X8156100Y-3654900D01*
X8156100Y-4485800D02*
X8176100Y-4505800D01*
X8176100Y-4485800D02*
X8156100Y-4505800D01*
X8168800Y-3215800D02*
X8188800Y-3235800D01*
X8188800Y-3215800D02*
X8168800Y-3235800D01*
X8194200Y-4841400D02*
X8214200Y-4861400D01*
X8214200Y-4841400D02*
X8194200Y-4861400D01*
X8359300Y-4422300D02*
X8379300Y-4442300D01*
X8379300Y-4422300D02*
X8359300Y-4442300D01*
X8397400Y-5717700D02*
X8417400Y-5737700D01*
X8417400Y-5717700D02*
X8397400Y-5737700D01*
X8499000Y-4422300D02*
X8519000Y-4442300D01*
X8519000Y-4422300D02*
X8499000Y-4442300D01*
X8524400Y-3177700D02*
X8544400Y-3197700D01*
X8544400Y-3177700D02*
X8524400Y-3197700D01*
X8524400Y-4739800D02*
X8544400Y-4759800D01*
X8544400Y-4739800D02*
X8524400Y-4759800D01*
X8587900Y-6301900D02*
X8607900Y-6321900D01*
X8607900Y-6301900D02*
X8587900Y-6321900D01*
X8689500Y-3330100D02*
X8709500Y-3350100D01*
X8709500Y-3330100D02*
X8689500Y-3350100D01*
X8727600Y-5336700D02*
X8747600Y-5356700D01*
X8747600Y-5336700D02*
X8727600Y-5356700D01*
X8740300Y-5184300D02*
X8760300Y-5204300D01*
X8760300Y-5184300D02*
X8740300Y-5204300D01*
X8765700Y-6124100D02*
X8785700Y-6144100D01*
X8785700Y-6124100D02*
X8765700Y-6144100D01*
X9222900Y-3495200D02*
X9242900Y-3515200D01*
X9242900Y-3495200D02*
X9222900Y-3515200D01*
X9235600Y-5171600D02*
X9255600Y-5191600D01*
X9255600Y-5171600D02*
X9235600Y-5191600D01*
X9235600Y-5527200D02*
X9255600Y-5547200D01*
X9255600Y-5527200D02*
X9235600Y-5547200D01*
X9261000Y-3749200D02*
X9281000Y-3769200D01*
X9281000Y-3749200D02*
X9261000Y-3769200D01*
X9273700Y-4015900D02*
X9293700Y-4035900D01*
X9293700Y-4015900D02*
X9273700Y-4035900D01*
X9337200Y-4816000D02*
X9357200Y-4836000D01*
X9357200Y-4816000D02*
X9337200Y-4836000D01*
X9388000Y-3253900D02*
X9408000Y-3273900D01*
X9408000Y-3253900D02*
X9388000Y-3273900D01*
X9413400Y-4028600D02*
X9433400Y-4048600D01*
X9433400Y-4028600D02*
X9413400Y-4048600D01*
X9426100Y-3571400D02*
X9446100Y-3591400D01*
X9446100Y-3571400D02*
X9426100Y-3591400D01*
X9426100Y-3863500D02*
X9446100Y-3883500D01*
X9446100Y-3863500D02*
X9426100Y-3883500D01*
X9591200Y-5527200D02*
X9611200Y-5547200D01*
X9611200Y-5527200D02*
X9591200Y-5547200D01*
X9591200Y-6086000D02*
X9611200Y-6106000D01*
X9611200Y-6086000D02*
X9591200Y-6106000D01*
X9603900Y-3292000D02*
X9623900Y-3312000D01*
X9623900Y-3292000D02*
X9603900Y-3312000D01*
X9603900Y-3774600D02*
X9623900Y-3794600D01*
X9623900Y-3774600D02*
X9603900Y-3794600D01*
D13*
X8870989Y-3620750D02*
G75*
G03*
X8870989Y-3620750I-15000J0D01*
G01*
D14*
X5994400Y-3345500D02*
X5994400Y-3385500D01*
X5974400Y-3365500D02*
X6014400Y-3365500D01*
X5994400Y-5415600D02*
X5994400Y-5455600D01*
X5974400Y-5435600D02*
X6014400Y-5435600D01*
X6019800Y-5994720D02*
X6019800Y-6034720D01*
X5999800Y-6014720D02*
X6039800Y-6014720D01*
X6096000Y-5669600D02*
X6096000Y-5709600D01*
X6076000Y-5689600D02*
X6116000Y-5689600D01*
X6121400Y-5237800D02*
X6121400Y-5277800D01*
X6101400Y-5257800D02*
X6141400Y-5257800D01*
X6235700Y-3650300D02*
X6235700Y-3690300D01*
X6215700Y-3670300D02*
X6255700Y-3670300D01*
X6273800Y-4018600D02*
X6273800Y-4058600D01*
X6253800Y-4038600D02*
X6293800Y-4038600D01*
X6324600Y-5517200D02*
X6324600Y-5557200D01*
X6304600Y-5537200D02*
X6344600Y-5537200D01*
X6426200Y-5658550D02*
X6426200Y-5698550D01*
X6406200Y-5678550D02*
X6446200Y-5678550D01*
X6426200Y-5974400D02*
X6426200Y-6014400D01*
X6406200Y-5994400D02*
X6446200Y-5994400D01*
X6578600Y-5974400D02*
X6578600Y-6014400D01*
X6558600Y-5994400D02*
X6598600Y-5994400D01*
X6604000Y-4552000D02*
X6604000Y-4592000D01*
X6584000Y-4572000D02*
X6624000Y-4572000D01*
X6680200Y-3993200D02*
X6680200Y-4033200D01*
X6660200Y-4013200D02*
X6700200Y-4013200D01*
X6692900Y-4488500D02*
X6692900Y-4528500D01*
X6672900Y-4508500D02*
X6712900Y-4508500D01*
X6769100Y-4920300D02*
X6769100Y-4960300D01*
X6749100Y-4940300D02*
X6789100Y-4940300D01*
X6775510Y-4755200D02*
X6775510Y-4795200D01*
X6755510Y-4775200D02*
X6795510Y-4775200D01*
X6868160Y-4755200D02*
X6868160Y-4795200D01*
X6848160Y-4775200D02*
X6888160Y-4775200D01*
X6883400Y-5529900D02*
X6883400Y-5569900D01*
X6863400Y-5549900D02*
X6903400Y-5549900D01*
X6919450Y-4171000D02*
X6919450Y-4211000D01*
X6899450Y-4191000D02*
X6939450Y-4191000D01*
X6921500Y-3942400D02*
X6921500Y-3982400D01*
X6901500Y-3962400D02*
X6941500Y-3962400D01*
X6948518Y-3661382D02*
X6948518Y-3701382D01*
X6928518Y-3681382D02*
X6968518Y-3681382D01*
X6972300Y-4374200D02*
X6972300Y-4414200D01*
X6952300Y-4394200D02*
X6992300Y-4394200D01*
X6972300Y-5644200D02*
X6972300Y-5684200D01*
X6952300Y-5664200D02*
X6992300Y-5664200D01*
X6985000Y-5358200D02*
X6985000Y-5398200D01*
X6965000Y-5378200D02*
X7005000Y-5378200D01*
X7086600Y-3701100D02*
X7086600Y-3741100D01*
X7066600Y-3721100D02*
X7106600Y-3721100D01*
X7086600Y-4409760D02*
X7086600Y-4449760D01*
X7066600Y-4429760D02*
X7106600Y-4429760D01*
X7099300Y-5396600D02*
X7099300Y-5436600D01*
X7079300Y-5416600D02*
X7119300Y-5416600D01*
X7099300Y-5555300D02*
X7099300Y-5595300D01*
X7079300Y-5575300D02*
X7119300Y-5575300D01*
X7104150Y-4536760D02*
X7104150Y-4576760D01*
X7084150Y-4556760D02*
X7124150Y-4556760D01*
X7112053Y-3790185D02*
X7112053Y-3830185D01*
X7092053Y-3810185D02*
X7132053Y-3810185D01*
X7213600Y-4934300D02*
X7213600Y-4974300D01*
X7193600Y-4954300D02*
X7233600Y-4954300D01*
X7236400Y-5088000D02*
X7236400Y-5128000D01*
X7216400Y-5108000D02*
X7256400Y-5108000D01*
X7316856Y-3978291D02*
X7316856Y-4018291D01*
X7296856Y-3998291D02*
X7336856Y-3998291D01*
X7316856Y-4177082D02*
X7316856Y-4217082D01*
X7296856Y-4197082D02*
X7336856Y-4197082D01*
X7381850Y-4948850D02*
X7381850Y-4988850D01*
X7361850Y-4968850D02*
X7401850Y-4968850D01*
X7391400Y-4742500D02*
X7391400Y-4782500D01*
X7371400Y-4762500D02*
X7411400Y-4762500D01*
X7442200Y-4425000D02*
X7442200Y-4465000D01*
X7422200Y-4445000D02*
X7462200Y-4445000D01*
X7453250Y-5301300D02*
X7453250Y-5341300D01*
X7433250Y-5321300D02*
X7473250Y-5321300D01*
X7513991Y-3978291D02*
X7513991Y-4018291D01*
X7493991Y-3998291D02*
X7533991Y-3998291D01*
X7518961Y-4182052D02*
X7518961Y-4222052D01*
X7498961Y-4202052D02*
X7538961Y-4202052D01*
X7581900Y-4475800D02*
X7581900Y-4515800D01*
X7561900Y-4495800D02*
X7601900Y-4495800D01*
X7589520Y-5115880D02*
X7589520Y-5155880D01*
X7569520Y-5135880D02*
X7609520Y-5135880D01*
X7622000Y-4876900D02*
X7622000Y-4916900D01*
X7602000Y-4896900D02*
X7642000Y-4896900D01*
X7672990Y-4501199D02*
X7672990Y-4541199D01*
X7652990Y-4521199D02*
X7692990Y-4521199D01*
X7797800Y-4386900D02*
X7797800Y-4426900D01*
X7777800Y-4406900D02*
X7817800Y-4406900D01*
X7823200Y-5618800D02*
X7823200Y-5658800D01*
X7803200Y-5638800D02*
X7843200Y-5638800D01*
X7874000Y-4856800D02*
X7874000Y-4896800D01*
X7854000Y-4876800D02*
X7894000Y-4876800D01*
X7874000Y-5110800D02*
X7874000Y-5150800D01*
X7854000Y-5130800D02*
X7894000Y-5130800D01*
X7899400Y-3688400D02*
X7899400Y-3728400D01*
X7879400Y-3708400D02*
X7919400Y-3708400D01*
X7969450Y-4553051D02*
X7969450Y-4593051D01*
X7949450Y-4573051D02*
X7989450Y-4573051D01*
X7975600Y-4313240D02*
X7975600Y-4353240D01*
X7955600Y-4333240D02*
X7995600Y-4333240D01*
X7978140Y-4407220D02*
X7978140Y-4447220D01*
X7958140Y-4427220D02*
X7998140Y-4427220D01*
X8001000Y-4806000D02*
X8001000Y-4846000D01*
X7981000Y-4826000D02*
X8021000Y-4826000D01*
X8077200Y-4729800D02*
X8077200Y-4769800D01*
X8057200Y-4749800D02*
X8097200Y-4749800D01*
X8077200Y-5898200D02*
X8077200Y-5938200D01*
X8057200Y-5918200D02*
X8097200Y-5918200D01*
X8102600Y-5085400D02*
X8102600Y-5125400D01*
X8082600Y-5105400D02*
X8122600Y-5105400D01*
X8128000Y-5288600D02*
X8128000Y-5328600D01*
X8108000Y-5308600D02*
X8148000Y-5308600D01*
X8188960Y-4074480D02*
X8188960Y-4114480D01*
X8168960Y-4094480D02*
X8208960Y-4094480D01*
X8204200Y-5644200D02*
X8204200Y-5684200D01*
X8184200Y-5664200D02*
X8224200Y-5664200D01*
X8305800Y-4552000D02*
X8305800Y-4592000D01*
X8285800Y-4572000D02*
X8325800Y-4572000D01*
X8331200Y-5390200D02*
X8331200Y-5430200D01*
X8311200Y-5410200D02*
X8351200Y-5410200D01*
X8356600Y-6279200D02*
X8356600Y-6319200D01*
X8336600Y-6299200D02*
X8376600Y-6299200D01*
X8432800Y-4780600D02*
X8432800Y-4820600D01*
X8412800Y-4800600D02*
X8452800Y-4800600D01*
X8432800Y-5161600D02*
X8432800Y-5201600D01*
X8412800Y-5181600D02*
X8452800Y-5181600D01*
X8453300Y-5395100D02*
X8453300Y-5435100D01*
X8433300Y-5415100D02*
X8473300Y-5415100D01*
X8509000Y-6279200D02*
X8509000Y-6319200D01*
X8489000Y-6299200D02*
X8529000Y-6299200D01*
X8559800Y-4158300D02*
X8559800Y-4198300D01*
X8539800Y-4178300D02*
X8579800Y-4178300D01*
X8588750Y-5056150D02*
X8588750Y-5096150D01*
X8568750Y-5076150D02*
X8608750Y-5076150D01*
X8661400Y-3586800D02*
X8661400Y-3626800D01*
X8641400Y-3606800D02*
X8681400Y-3606800D01*
X8763000Y-4323400D02*
X8763000Y-4363400D01*
X8743000Y-4343400D02*
X8783000Y-4343400D01*
X8784900Y-3247300D02*
X8784900Y-3287300D01*
X8764900Y-3267300D02*
X8804900Y-3267300D01*
X8864600Y-4475800D02*
X8864600Y-4515800D01*
X8844600Y-4495800D02*
X8884600Y-4495800D01*
X8879662Y-5920286D02*
X8879662Y-5960286D01*
X8859662Y-5940286D02*
X8899662Y-5940286D01*
X8888000Y-4296000D02*
X8888000Y-4336000D01*
X8868000Y-4316000D02*
X8908000Y-4316000D01*
X8890000Y-4018600D02*
X8890000Y-4058600D01*
X8870000Y-4038600D02*
X8910000Y-4038600D01*
X8901907Y-3259043D02*
X8901907Y-3299043D01*
X8881907Y-3279043D02*
X8921907Y-3279043D01*
X8915400Y-3053400D02*
X8915400Y-3093400D01*
X8895400Y-3073400D02*
X8935400Y-3073400D01*
X8940800Y-3403920D02*
X8940800Y-3443920D01*
X8920800Y-3423920D02*
X8960800Y-3423920D01*
X8940800Y-3505520D02*
X8940800Y-3545520D01*
X8920800Y-3525520D02*
X8960800Y-3525520D01*
X8974180Y-5922601D02*
X8974180Y-5962601D01*
X8954180Y-5942601D02*
X8994180Y-5942601D01*
X9047480Y-4739960D02*
X9047480Y-4779960D01*
X9027480Y-4759960D02*
X9067480Y-4759960D01*
X9057640Y-4531680D02*
X9057640Y-4571680D01*
X9037640Y-4551680D02*
X9077640Y-4551680D01*
X9059051Y-3833670D02*
X9059051Y-3873670D01*
X9039051Y-3853670D02*
X9079051Y-3853670D01*
X9067800Y-6101400D02*
X9067800Y-6141400D01*
X9047800Y-6121400D02*
X9087800Y-6121400D01*
X9093200Y-5517200D02*
X9093200Y-5557200D01*
X9073200Y-5537200D02*
X9113200Y-5537200D01*
X9194800Y-4145600D02*
X9194800Y-4185600D01*
X9174800Y-4165600D02*
X9214800Y-4165600D01*
X9474200Y-4145600D02*
X9474200Y-4185600D01*
X9454200Y-4165600D02*
X9494200Y-4165600D01*
D15*
X9159513Y-3114512D02*
X9159513Y-3072086D01*
X9117087Y-3072086D01*
X9117087Y-3114512D01*
X9159513Y-3114512D01*
D11*
X9083300Y-3113299D02*
X9193300Y-3113299D01*
X9083300Y-3073299D02*
X9193300Y-3073299D01*
X9193300Y-3113299D02*
G75*
G03*
X9193300Y-3073299I0J20000D01*
G01*
X9083300Y-3073299D02*
G75*
G03*
X9083300Y-3113299I0J-20000D01*
G01*
D15*
X9159513Y-3978512D02*
X9159513Y-3936086D01*
X9117087Y-3936086D01*
X9117087Y-3978512D01*
X9159513Y-3978512D01*
D11*
X9083300Y-3977299D02*
X9193300Y-3977299D01*
X9083300Y-3937299D02*
X9193300Y-3937299D01*
X9193300Y-3977299D02*
G75*
G03*
X9193300Y-3937299I0J20000D01*
G01*
X9083300Y-3937299D02*
G75*
G03*
X9083300Y-3977299I0J-20000D01*
G01*
D15*
X9577513Y-3114512D02*
X9577513Y-3072086D01*
X9535087Y-3072086D01*
X9535087Y-3114512D01*
X9577513Y-3114512D01*
D11*
X9526300Y-3113299D02*
X9586300Y-3113299D01*
X9526300Y-3073299D02*
X9586300Y-3073299D01*
X9586300Y-3113299D02*
G75*
G03*
X9586300Y-3073299I0J20000D01*
G01*
X9526300Y-3073299D02*
G75*
G03*
X9526300Y-3113299I0J-20000D01*
G01*
D15*
X9577513Y-3978512D02*
X9577513Y-3936086D01*
X9535087Y-3936086D01*
X9535087Y-3978512D01*
X9577513Y-3978512D01*
D11*
X9526300Y-3977299D02*
X9586300Y-3977299D01*
X9526300Y-3937299D02*
X9586300Y-3937299D01*
X9586300Y-3977299D02*
G75*
G03*
X9586300Y-3937299I0J20000D01*
G01*
X9526300Y-3937299D02*
G75*
G03*
X9526300Y-3977299I0J-20000D01*
G01*
D16*
X6940601Y-5874200D02*
X6978101Y-5836700D01*
X6940601Y-5799200D01*
X6903101Y-5836700D01*
X6940601Y-5874200D01*
X7140601Y-5874200D02*
X7178101Y-5836700D01*
X7140601Y-5799200D01*
X7103101Y-5836700D01*
X7140601Y-5874200D01*
X7340601Y-5874200D02*
X7378101Y-5836700D01*
X7340601Y-5799200D01*
X7303101Y-5836700D01*
X7340601Y-5874200D01*
X7540601Y-5874200D02*
X7578101Y-5836700D01*
X7540601Y-5799200D01*
X7503101Y-5836700D01*
X7540601Y-5874200D01*
X7740601Y-5874200D02*
X7778101Y-5836700D01*
X7740601Y-5799200D01*
X7703101Y-5836700D01*
X7740601Y-5874200D01*
X8895080Y-4765100D02*
X8932580Y-4727600D01*
X8895080Y-4690100D01*
X8857580Y-4727600D01*
X8895080Y-4765100D01*
X8895080Y-4965100D02*
X8932580Y-4927600D01*
X8895080Y-4890100D01*
X8857580Y-4927600D01*
X8895080Y-4965100D01*
D17*
X6459396Y-3126296D02*
X6548296Y-3215196D01*
X6548296Y-3126296D02*
X6459396Y-3215196D01*
X6548296Y-3170746D02*
G75*
G03*
X6548296Y-3170746I-44450J0D01*
G01*
X6459396Y-3367596D02*
X6548296Y-3456496D01*
X6548296Y-3367596D02*
X6459396Y-3456496D01*
X6548296Y-3412046D02*
G75*
G03*
X6548296Y-3412046I-44450J0D01*
G01*
X6459396Y-3634296D02*
X6548296Y-3723196D01*
X6548296Y-3634296D02*
X6459396Y-3723196D01*
X6548296Y-3678746D02*
G75*
G03*
X6548296Y-3678746I-44450J0D01*
G01*
X6459396Y-3888296D02*
X6548296Y-3977196D01*
X6548296Y-3888296D02*
X6459396Y-3977196D01*
X6548296Y-3932746D02*
G75*
G03*
X6548296Y-3932746I-44450J0D01*
G01*
X6459396Y-4142296D02*
X6548296Y-4231196D01*
X6548296Y-4142296D02*
X6459396Y-4231196D01*
X6548296Y-4186746D02*
G75*
G03*
X6548296Y-4186746I-44450J0D01*
G01*
X6459396Y-4396296D02*
X6548296Y-4485196D01*
X6548296Y-4396296D02*
X6459396Y-4485196D01*
X6548296Y-4440746D02*
G75*
G03*
X6548296Y-4440746I-44450J0D01*
G01*
X6459396Y-4650296D02*
X6548296Y-4739196D01*
X6548296Y-4650296D02*
X6459396Y-4739196D01*
X6548296Y-4694746D02*
G75*
G03*
X6548296Y-4694746I-44450J0D01*
G01*
X6459396Y-4904296D02*
X6548296Y-4993196D01*
X6548296Y-4904296D02*
X6459396Y-4993196D01*
X6548296Y-4948746D02*
G75*
G03*
X6548296Y-4948746I-44450J0D01*
G01*
X6459396Y-5158296D02*
X6548296Y-5247196D01*
X6548296Y-5158296D02*
X6459396Y-5247196D01*
X6548296Y-5202746D02*
G75*
G03*
X6548296Y-5202746I-44450J0D01*
G01*
X6459396Y-5412296D02*
X6548296Y-5501196D01*
X6548296Y-5412296D02*
X6459396Y-5501196D01*
X6548296Y-5456746D02*
G75*
G03*
X6548296Y-5456746I-44450J0D01*
G01*
D18*
X9381600Y-5566299D02*
X9471600Y-5656299D01*
X9471600Y-5566299D02*
X9381600Y-5656299D01*
X9426600Y-5566299D02*
X9426600Y-5656299D01*
X9381600Y-5611299D02*
X9471600Y-5611299D01*
X9381600Y-5766299D02*
X9471600Y-5856299D01*
X9471600Y-5766299D02*
X9381600Y-5856299D01*
X9426600Y-5766299D02*
X9426600Y-5856299D01*
X9381600Y-5811299D02*
X9471600Y-5811299D01*
X9381600Y-5966299D02*
X9471600Y-6056299D01*
X9471600Y-5966299D02*
X9381600Y-6056299D01*
X9426600Y-5966299D02*
X9426600Y-6056299D01*
X9381600Y-6011299D02*
X9471600Y-6011299D01*
D19*
X5728500Y-3391700D02*
X5828500Y-3491700D01*
X5828500Y-3391700D02*
X5728500Y-3491700D01*
X5813856Y-3477056D02*
X5813856Y-3406344D01*
X5743144Y-3406344D01*
X5743144Y-3477056D01*
X5813856Y-3477056D01*
X5728500Y-3645700D02*
X5828500Y-3745700D01*
X5828500Y-3645700D02*
X5728500Y-3745700D01*
X5813856Y-3731056D02*
X5813856Y-3660344D01*
X5743144Y-3660344D01*
X5743144Y-3731056D01*
X5813856Y-3731056D01*
X5728500Y-3899700D02*
X5828500Y-3999700D01*
X5828500Y-3899700D02*
X5728500Y-3999700D01*
X5813856Y-3985056D02*
X5813856Y-3914344D01*
X5743144Y-3914344D01*
X5743144Y-3985056D01*
X5813856Y-3985056D01*
X5728500Y-4153700D02*
X5828500Y-4253700D01*
X5828500Y-4153700D02*
X5728500Y-4253700D01*
X5813856Y-4239056D02*
X5813856Y-4168344D01*
X5743144Y-4168344D01*
X5743144Y-4239056D01*
X5813856Y-4239056D01*
X5728500Y-4407700D02*
X5828500Y-4507700D01*
X5828500Y-4407700D02*
X5728500Y-4507700D01*
X5813856Y-4493056D02*
X5813856Y-4422344D01*
X5743144Y-4422344D01*
X5743144Y-4493056D01*
X5813856Y-4493056D01*
X5728500Y-4661700D02*
X5828500Y-4761700D01*
X5828500Y-4661700D02*
X5728500Y-4761700D01*
X5813856Y-4747056D02*
X5813856Y-4676344D01*
X5743144Y-4676344D01*
X5743144Y-4747056D01*
X5813856Y-4747056D01*
X5728500Y-4915700D02*
X5828500Y-5015700D01*
X5828500Y-4915700D02*
X5728500Y-5015700D01*
X5813856Y-5001056D02*
X5813856Y-4930344D01*
X5743144Y-4930344D01*
X5743144Y-5001056D01*
X5813856Y-5001056D01*
D20*
X9351600Y-5326299D02*
X9501600Y-5476299D01*
X9501600Y-5326299D02*
X9351600Y-5476299D01*
X9426600Y-5476299D02*
X9501600Y-5401299D01*
X9426600Y-5326299D01*
X9351600Y-5401299D01*
X9426600Y-5476299D01*
X9351600Y-6146299D02*
X9501600Y-6296299D01*
X9501600Y-6146299D02*
X9351600Y-6296299D01*
X9426600Y-6296299D02*
X9501600Y-6221299D01*
X9426600Y-6146299D01*
X9351600Y-6221299D01*
X9426600Y-6296299D01*
D11*
X5838039Y-6708476D02*
X5838039Y-6508476D01*
X5885658Y-6508476D01*
X5914229Y-6518000D01*
X5933277Y-6537048D01*
X5942801Y-6556095D01*
X5952325Y-6594190D01*
X5952325Y-6622762D01*
X5942801Y-6660857D01*
X5933277Y-6679905D01*
X5914229Y-6698952D01*
X5885658Y-6708476D01*
X5838039Y-6708476D01*
X6038039Y-6708476D02*
X6038039Y-6575143D01*
X6038039Y-6613238D02*
X6047563Y-6594190D01*
X6057087Y-6584667D01*
X6076134Y-6575143D01*
X6095182Y-6575143D01*
X6161848Y-6708476D02*
X6161848Y-6575143D01*
X6161848Y-6508476D02*
X6152325Y-6518000D01*
X6161848Y-6527524D01*
X6171372Y-6518000D01*
X6161848Y-6508476D01*
X6161848Y-6527524D01*
X6285658Y-6708476D02*
X6266610Y-6698952D01*
X6257087Y-6679905D01*
X6257087Y-6508476D01*
X6390420Y-6708476D02*
X6371372Y-6698952D01*
X6361848Y-6679905D01*
X6361848Y-6508476D01*
X6618991Y-6708476D02*
X6618991Y-6508476D01*
X6685658Y-6651333D01*
X6752325Y-6508476D01*
X6752325Y-6708476D01*
X6933277Y-6708476D02*
X6933277Y-6603714D01*
X6923753Y-6584667D01*
X6904706Y-6575143D01*
X6866610Y-6575143D01*
X6847563Y-6584667D01*
X6933277Y-6698952D02*
X6914229Y-6708476D01*
X6866610Y-6708476D01*
X6847563Y-6698952D01*
X6838039Y-6679905D01*
X6838039Y-6660857D01*
X6847563Y-6641809D01*
X6866610Y-6632286D01*
X6914229Y-6632286D01*
X6933277Y-6622762D01*
X7028515Y-6575143D02*
X7028515Y-6775143D01*
X7028515Y-6584667D02*
X7047563Y-6575143D01*
X7085658Y-6575143D01*
X7104706Y-6584667D01*
X7114229Y-6594190D01*
X7123753Y-6613238D01*
X7123753Y-6670381D01*
X7114229Y-6689428D01*
X7104706Y-6698952D01*
X7085658Y-6708476D01*
X7047563Y-6708476D01*
X7028515Y-6698952D01*
X7209468Y-6689428D02*
X7218991Y-6698952D01*
X7209468Y-6708476D01*
X7199944Y-6698952D01*
X7209468Y-6689428D01*
X7209468Y-6708476D01*
X7209468Y-6584667D02*
X7218991Y-6594190D01*
X7209468Y-6603714D01*
X7199944Y-6594190D01*
X7209468Y-6584667D01*
X7209468Y-6603714D01*
D12*
X5560420Y-7028000D02*
X5580420Y-7048000D01*
X5580420Y-7028000D02*
X5560420Y-7048000D01*
D11*
X5876134Y-6928476D02*
X5895182Y-6928476D01*
X5914229Y-6938000D01*
X5923753Y-6947524D01*
X5933277Y-6966571D01*
X5942801Y-7004667D01*
X5942801Y-7052286D01*
X5933277Y-7090381D01*
X5923753Y-7109428D01*
X5914229Y-7118952D01*
X5895182Y-7128476D01*
X5876134Y-7128476D01*
X5857087Y-7118952D01*
X5847563Y-7109428D01*
X5838039Y-7090381D01*
X5828515Y-7052286D01*
X5828515Y-7004667D01*
X5838039Y-6966571D01*
X5847563Y-6947524D01*
X5857087Y-6938000D01*
X5876134Y-6928476D01*
X6028515Y-7109428D02*
X6038039Y-7118952D01*
X6028515Y-7128476D01*
X6018991Y-7118952D01*
X6028515Y-7109428D01*
X6028515Y-7128476D01*
X6114229Y-6947524D02*
X6123753Y-6938000D01*
X6142801Y-6928476D01*
X6190420Y-6928476D01*
X6209468Y-6938000D01*
X6218991Y-6947524D01*
X6228515Y-6966571D01*
X6228515Y-6985619D01*
X6218991Y-7014190D01*
X6104706Y-7128476D01*
X6228515Y-7128476D01*
X6352325Y-6928476D02*
X6371372Y-6928476D01*
X6390420Y-6938000D01*
X6399944Y-6947524D01*
X6409468Y-6966571D01*
X6418991Y-7004667D01*
X6418991Y-7052286D01*
X6409468Y-7090381D01*
X6399944Y-7109428D01*
X6390420Y-7118952D01*
X6371372Y-7128476D01*
X6352325Y-7128476D01*
X6333277Y-7118952D01*
X6323753Y-7109428D01*
X6314229Y-7090381D01*
X6304706Y-7052286D01*
X6304706Y-7004667D01*
X6314229Y-6966571D01*
X6323753Y-6947524D01*
X6333277Y-6938000D01*
X6352325Y-6928476D01*
X6542801Y-6928476D02*
X6561848Y-6928476D01*
X6580896Y-6938000D01*
X6590420Y-6947524D01*
X6599944Y-6966571D01*
X6609468Y-7004667D01*
X6609468Y-7052286D01*
X6599944Y-7090381D01*
X6590420Y-7109428D01*
X6580896Y-7118952D01*
X6561848Y-7128476D01*
X6542801Y-7128476D01*
X6523753Y-7118952D01*
X6514229Y-7109428D01*
X6504706Y-7090381D01*
X6495182Y-7052286D01*
X6495182Y-7004667D01*
X6504706Y-6966571D01*
X6514229Y-6947524D01*
X6523753Y-6938000D01*
X6542801Y-6928476D01*
X6695182Y-7128476D02*
X6695182Y-6995143D01*
X6695182Y-7014190D02*
X6704706Y-7004667D01*
X6723753Y-6995143D01*
X6752325Y-6995143D01*
X6771372Y-7004667D01*
X6780896Y-7023714D01*
X6780896Y-7128476D01*
X6780896Y-7023714D02*
X6790420Y-7004667D01*
X6809468Y-6995143D01*
X6838039Y-6995143D01*
X6857087Y-7004667D01*
X6866610Y-7023714D01*
X6866610Y-7128476D01*
X6961848Y-7128476D02*
X6961848Y-6995143D01*
X6961848Y-7014190D02*
X6971372Y-7004667D01*
X6990420Y-6995143D01*
X7018991Y-6995143D01*
X7038039Y-7004667D01*
X7047563Y-7023714D01*
X7047563Y-7128476D01*
X7047563Y-7023714D02*
X7057087Y-7004667D01*
X7076134Y-6995143D01*
X7104706Y-6995143D01*
X7123753Y-7004667D01*
X7133277Y-7023714D01*
X7133277Y-7128476D01*
X7523753Y-6918952D02*
X7352325Y-7176095D01*
X7780896Y-6928476D02*
X7799944Y-6928476D01*
X7818991Y-6938000D01*
X7828515Y-6947524D01*
X7838039Y-6966571D01*
X7847563Y-7004667D01*
X7847563Y-7052286D01*
X7838039Y-7090381D01*
X7828515Y-7109428D01*
X7818991Y-7118952D01*
X7799944Y-7128476D01*
X7780896Y-7128476D01*
X7761848Y-7118952D01*
X7752325Y-7109428D01*
X7742801Y-7090381D01*
X7733277Y-7052286D01*
X7733277Y-7004667D01*
X7742801Y-6966571D01*
X7752325Y-6947524D01*
X7761848Y-6938000D01*
X7780896Y-6928476D01*
X7933277Y-7109428D02*
X7942801Y-7118952D01*
X7933277Y-7128476D01*
X7923753Y-7118952D01*
X7933277Y-7109428D01*
X7933277Y-7128476D01*
X8066610Y-6928476D02*
X8085658Y-6928476D01*
X8104706Y-6938000D01*
X8114229Y-6947524D01*
X8123753Y-6966571D01*
X8133277Y-7004667D01*
X8133277Y-7052286D01*
X8123753Y-7090381D01*
X8114229Y-7109428D01*
X8104706Y-7118952D01*
X8085658Y-7128476D01*
X8066610Y-7128476D01*
X8047563Y-7118952D01*
X8038039Y-7109428D01*
X8028515Y-7090381D01*
X8018991Y-7052286D01*
X8018991Y-7004667D01*
X8028515Y-6966571D01*
X8038039Y-6947524D01*
X8047563Y-6938000D01*
X8066610Y-6928476D01*
X8257087Y-6928476D02*
X8276134Y-6928476D01*
X8295182Y-6938000D01*
X8304706Y-6947524D01*
X8314229Y-6966571D01*
X8323753Y-7004667D01*
X8323753Y-7052286D01*
X8314229Y-7090381D01*
X8304706Y-7109428D01*
X8295182Y-7118952D01*
X8276134Y-7128476D01*
X8257087Y-7128476D01*
X8238039Y-7118952D01*
X8228515Y-7109428D01*
X8218991Y-7090381D01*
X8209468Y-7052286D01*
X8209468Y-7004667D01*
X8218991Y-6966571D01*
X8228515Y-6947524D01*
X8238039Y-6938000D01*
X8257087Y-6928476D01*
X8390420Y-6928476D02*
X8523753Y-6928476D01*
X8438039Y-7128476D01*
X8609468Y-7128476D02*
X8647563Y-7128476D01*
X8666610Y-7118952D01*
X8676134Y-7109428D01*
X8695182Y-7080857D01*
X8704706Y-7042762D01*
X8704706Y-6966571D01*
X8695182Y-6947524D01*
X8685658Y-6938000D01*
X8666610Y-6928476D01*
X8628515Y-6928476D01*
X8609468Y-6938000D01*
X8599944Y-6947524D01*
X8590420Y-6966571D01*
X8590420Y-7014190D01*
X8599944Y-7033238D01*
X8609468Y-7042762D01*
X8628515Y-7052286D01*
X8666610Y-7052286D01*
X8685658Y-7042762D01*
X8695182Y-7033238D01*
X8704706Y-7014190D01*
X8780896Y-6928476D02*
X8780896Y-6966571D01*
X8857087Y-6928476D02*
X8857087Y-6966571D01*
X9152325Y-7204667D02*
X9142801Y-7195143D01*
X9123753Y-7166571D01*
X9114230Y-7147524D01*
X9104706Y-7118952D01*
X9095182Y-7071333D01*
X9095182Y-7033238D01*
X9104706Y-6985619D01*
X9114230Y-6957048D01*
X9123753Y-6938000D01*
X9142801Y-6909428D01*
X9152325Y-6899905D01*
X9209468Y-6928476D02*
X9342801Y-6928476D01*
X9257087Y-7128476D01*
X9514230Y-6928476D02*
X9418991Y-6928476D01*
X9409468Y-7023714D01*
X9418991Y-7014190D01*
X9438039Y-7004667D01*
X9485658Y-7004667D01*
X9504706Y-7014190D01*
X9514230Y-7023714D01*
X9523753Y-7042762D01*
X9523753Y-7090381D01*
X9514230Y-7109428D01*
X9504706Y-7118952D01*
X9485658Y-7128476D01*
X9438039Y-7128476D01*
X9418991Y-7118952D01*
X9409468Y-7109428D01*
X9761849Y-7128476D02*
X9761849Y-6928476D01*
X9847563Y-7128476D02*
X9847563Y-7023714D01*
X9838039Y-7004667D01*
X9818991Y-6995143D01*
X9790420Y-6995143D01*
X9771372Y-7004667D01*
X9761849Y-7014190D01*
X9971372Y-7128476D02*
X9952325Y-7118952D01*
X9942801Y-7109428D01*
X9933277Y-7090381D01*
X9933277Y-7033238D01*
X9942801Y-7014190D01*
X9952325Y-7004667D01*
X9971372Y-6995143D01*
X9999944Y-6995143D01*
X10018991Y-7004667D01*
X10028515Y-7014190D01*
X10038039Y-7033238D01*
X10038039Y-7090381D01*
X10028515Y-7109428D01*
X10018991Y-7118952D01*
X9999944Y-7128476D01*
X9971372Y-7128476D01*
X10152325Y-7128476D02*
X10133277Y-7118952D01*
X10123753Y-7099905D01*
X10123753Y-6928476D01*
X10304706Y-7118952D02*
X10285658Y-7128476D01*
X10247563Y-7128476D01*
X10228515Y-7118952D01*
X10218991Y-7099905D01*
X10218991Y-7023714D01*
X10228515Y-7004667D01*
X10247563Y-6995143D01*
X10285658Y-6995143D01*
X10304706Y-7004667D01*
X10314230Y-7023714D01*
X10314230Y-7042762D01*
X10218991Y-7061809D01*
X10390420Y-7118952D02*
X10409468Y-7128476D01*
X10447563Y-7128476D01*
X10466610Y-7118952D01*
X10476134Y-7099905D01*
X10476134Y-7090381D01*
X10466610Y-7071333D01*
X10447563Y-7061809D01*
X10418991Y-7061809D01*
X10399944Y-7052286D01*
X10390420Y-7033238D01*
X10390420Y-7023714D01*
X10399944Y-7004667D01*
X10418991Y-6995143D01*
X10447563Y-6995143D01*
X10466610Y-7004667D01*
X10542801Y-7204667D02*
X10552325Y-7195143D01*
X10571372Y-7166571D01*
X10580896Y-7147524D01*
X10590420Y-7118952D01*
X10599944Y-7071333D01*
X10599944Y-7033238D01*
X10590420Y-6985619D01*
X10580896Y-6957048D01*
X10571372Y-6938000D01*
X10552325Y-6909428D01*
X10542801Y-6899905D01*
D13*
X5580420Y-7302000D02*
G75*
G03*
X5580420Y-7302000I-15000J0D01*
G01*
D11*
X5876134Y-7192476D02*
X5895182Y-7192476D01*
X5914229Y-7202000D01*
X5923753Y-7211524D01*
X5933277Y-7230571D01*
X5942801Y-7268667D01*
X5942801Y-7316286D01*
X5933277Y-7354381D01*
X5923753Y-7373428D01*
X5914229Y-7382952D01*
X5895182Y-7392476D01*
X5876134Y-7392476D01*
X5857087Y-7382952D01*
X5847563Y-7373428D01*
X5838039Y-7354381D01*
X5828515Y-7316286D01*
X5828515Y-7268667D01*
X5838039Y-7230571D01*
X5847563Y-7211524D01*
X5857087Y-7202000D01*
X5876134Y-7192476D01*
X6028515Y-7373428D02*
X6038039Y-7382952D01*
X6028515Y-7392476D01*
X6018991Y-7382952D01*
X6028515Y-7373428D01*
X6028515Y-7392476D01*
X6104706Y-7192476D02*
X6228515Y-7192476D01*
X6161848Y-7268667D01*
X6190420Y-7268667D01*
X6209468Y-7278190D01*
X6218991Y-7287714D01*
X6228515Y-7306762D01*
X6228515Y-7354381D01*
X6218991Y-7373428D01*
X6209468Y-7382952D01*
X6190420Y-7392476D01*
X6133277Y-7392476D01*
X6114229Y-7382952D01*
X6104706Y-7373428D01*
X6352325Y-7192476D02*
X6371372Y-7192476D01*
X6390420Y-7202000D01*
X6399944Y-7211524D01*
X6409468Y-7230571D01*
X6418991Y-7268667D01*
X6418991Y-7316286D01*
X6409468Y-7354381D01*
X6399944Y-7373428D01*
X6390420Y-7382952D01*
X6371372Y-7392476D01*
X6352325Y-7392476D01*
X6333277Y-7382952D01*
X6323753Y-7373428D01*
X6314229Y-7354381D01*
X6304706Y-7316286D01*
X6304706Y-7268667D01*
X6314229Y-7230571D01*
X6323753Y-7211524D01*
X6333277Y-7202000D01*
X6352325Y-7192476D01*
X6542801Y-7192476D02*
X6561848Y-7192476D01*
X6580896Y-7202000D01*
X6590420Y-7211524D01*
X6599944Y-7230571D01*
X6609468Y-7268667D01*
X6609468Y-7316286D01*
X6599944Y-7354381D01*
X6590420Y-7373428D01*
X6580896Y-7382952D01*
X6561848Y-7392476D01*
X6542801Y-7392476D01*
X6523753Y-7382952D01*
X6514229Y-7373428D01*
X6504706Y-7354381D01*
X6495182Y-7316286D01*
X6495182Y-7268667D01*
X6504706Y-7230571D01*
X6514229Y-7211524D01*
X6523753Y-7202000D01*
X6542801Y-7192476D01*
X6695182Y-7392476D02*
X6695182Y-7259143D01*
X6695182Y-7278190D02*
X6704706Y-7268667D01*
X6723753Y-7259143D01*
X6752325Y-7259143D01*
X6771372Y-7268667D01*
X6780896Y-7287714D01*
X6780896Y-7392476D01*
X6780896Y-7287714D02*
X6790420Y-7268667D01*
X6809468Y-7259143D01*
X6838039Y-7259143D01*
X6857087Y-7268667D01*
X6866610Y-7287714D01*
X6866610Y-7392476D01*
X6961848Y-7392476D02*
X6961848Y-7259143D01*
X6961848Y-7278190D02*
X6971372Y-7268667D01*
X6990420Y-7259143D01*
X7018991Y-7259143D01*
X7038039Y-7268667D01*
X7047563Y-7287714D01*
X7047563Y-7392476D01*
X7047563Y-7287714D02*
X7057087Y-7268667D01*
X7076134Y-7259143D01*
X7104706Y-7259143D01*
X7123753Y-7268667D01*
X7133277Y-7287714D01*
X7133277Y-7392476D01*
X7523753Y-7182952D02*
X7352325Y-7440095D01*
X7780896Y-7192476D02*
X7799944Y-7192476D01*
X7818991Y-7202000D01*
X7828515Y-7211524D01*
X7838039Y-7230571D01*
X7847563Y-7268667D01*
X7847563Y-7316286D01*
X7838039Y-7354381D01*
X7828515Y-7373428D01*
X7818991Y-7382952D01*
X7799944Y-7392476D01*
X7780896Y-7392476D01*
X7761848Y-7382952D01*
X7752325Y-7373428D01*
X7742801Y-7354381D01*
X7733277Y-7316286D01*
X7733277Y-7268667D01*
X7742801Y-7230571D01*
X7752325Y-7211524D01*
X7761848Y-7202000D01*
X7780896Y-7192476D01*
X7933277Y-7373428D02*
X7942801Y-7382952D01*
X7933277Y-7392476D01*
X7923753Y-7382952D01*
X7933277Y-7373428D01*
X7933277Y-7392476D01*
X8066610Y-7192476D02*
X8085658Y-7192476D01*
X8104706Y-7202000D01*
X8114229Y-7211524D01*
X8123753Y-7230571D01*
X8133277Y-7268667D01*
X8133277Y-7316286D01*
X8123753Y-7354381D01*
X8114229Y-7373428D01*
X8104706Y-7382952D01*
X8085658Y-7392476D01*
X8066610Y-7392476D01*
X8047563Y-7382952D01*
X8038039Y-7373428D01*
X8028515Y-7354381D01*
X8018991Y-7316286D01*
X8018991Y-7268667D01*
X8028515Y-7230571D01*
X8038039Y-7211524D01*
X8047563Y-7202000D01*
X8066610Y-7192476D01*
X8323753Y-7392476D02*
X8209468Y-7392476D01*
X8266610Y-7392476D02*
X8266610Y-7192476D01*
X8247563Y-7221048D01*
X8228515Y-7240095D01*
X8209468Y-7249619D01*
X8514230Y-7392476D02*
X8399944Y-7392476D01*
X8457087Y-7392476D02*
X8457087Y-7192476D01*
X8438039Y-7221048D01*
X8418991Y-7240095D01*
X8399944Y-7249619D01*
X8628515Y-7278190D02*
X8609468Y-7268667D01*
X8599944Y-7259143D01*
X8590420Y-7240095D01*
X8590420Y-7230571D01*
X8599944Y-7211524D01*
X8609468Y-7202000D01*
X8628515Y-7192476D01*
X8666610Y-7192476D01*
X8685658Y-7202000D01*
X8695182Y-7211524D01*
X8704706Y-7230571D01*
X8704706Y-7240095D01*
X8695182Y-7259143D01*
X8685658Y-7268667D01*
X8666610Y-7278190D01*
X8628515Y-7278190D01*
X8609468Y-7287714D01*
X8599944Y-7297238D01*
X8590420Y-7316286D01*
X8590420Y-7354381D01*
X8599944Y-7373428D01*
X8609468Y-7382952D01*
X8628515Y-7392476D01*
X8666610Y-7392476D01*
X8685658Y-7382952D01*
X8695182Y-7373428D01*
X8704706Y-7354381D01*
X8704706Y-7316286D01*
X8695182Y-7297238D01*
X8685658Y-7287714D01*
X8666610Y-7278190D01*
X8780896Y-7192476D02*
X8780896Y-7230571D01*
X8857087Y-7192476D02*
X8857087Y-7230571D01*
X9152325Y-7468667D02*
X9142801Y-7459143D01*
X9123753Y-7430571D01*
X9114230Y-7411524D01*
X9104706Y-7382952D01*
X9095182Y-7335333D01*
X9095182Y-7297238D01*
X9104706Y-7249619D01*
X9114230Y-7221048D01*
X9123753Y-7202000D01*
X9142801Y-7173428D01*
X9152325Y-7163905D01*
X9333277Y-7392476D02*
X9218991Y-7392476D01*
X9276134Y-7392476D02*
X9276134Y-7192476D01*
X9257087Y-7221048D01*
X9238039Y-7240095D01*
X9218991Y-7249619D01*
X9571372Y-7392476D02*
X9571372Y-7192476D01*
X9657087Y-7392476D02*
X9657087Y-7287714D01*
X9647563Y-7268667D01*
X9628515Y-7259143D01*
X9599944Y-7259143D01*
X9580896Y-7268667D01*
X9571372Y-7278190D01*
X9780896Y-7392476D02*
X9761849Y-7382952D01*
X9752325Y-7373428D01*
X9742801Y-7354381D01*
X9742801Y-7297238D01*
X9752325Y-7278190D01*
X9761849Y-7268667D01*
X9780896Y-7259143D01*
X9809468Y-7259143D01*
X9828515Y-7268667D01*
X9838039Y-7278190D01*
X9847563Y-7297238D01*
X9847563Y-7354381D01*
X9838039Y-7373428D01*
X9828515Y-7382952D01*
X9809468Y-7392476D01*
X9780896Y-7392476D01*
X9961849Y-7392476D02*
X9942801Y-7382952D01*
X9933277Y-7363905D01*
X9933277Y-7192476D01*
X10114230Y-7382952D02*
X10095182Y-7392476D01*
X10057087Y-7392476D01*
X10038039Y-7382952D01*
X10028515Y-7363905D01*
X10028515Y-7287714D01*
X10038039Y-7268667D01*
X10057087Y-7259143D01*
X10095182Y-7259143D01*
X10114230Y-7268667D01*
X10123753Y-7287714D01*
X10123753Y-7306762D01*
X10028515Y-7325809D01*
X10190420Y-7468667D02*
X10199944Y-7459143D01*
X10218991Y-7430571D01*
X10228515Y-7411524D01*
X10238039Y-7382952D01*
X10247563Y-7335333D01*
X10247563Y-7297238D01*
X10238039Y-7249619D01*
X10228515Y-7221048D01*
X10218991Y-7202000D01*
X10199944Y-7173428D01*
X10190420Y-7163905D01*
D14*
X5560420Y-7546000D02*
X5560420Y-7586000D01*
X5540420Y-7566000D02*
X5580420Y-7566000D01*
D11*
X5876134Y-7456476D02*
X5895182Y-7456476D01*
X5914229Y-7466000D01*
X5923753Y-7475524D01*
X5933277Y-7494571D01*
X5942801Y-7532667D01*
X5942801Y-7580286D01*
X5933277Y-7618381D01*
X5923753Y-7637428D01*
X5914229Y-7646952D01*
X5895182Y-7656476D01*
X5876134Y-7656476D01*
X5857087Y-7646952D01*
X5847563Y-7637428D01*
X5838039Y-7618381D01*
X5828515Y-7580286D01*
X5828515Y-7532667D01*
X5838039Y-7494571D01*
X5847563Y-7475524D01*
X5857087Y-7466000D01*
X5876134Y-7456476D01*
X6028515Y-7637428D02*
X6038039Y-7646952D01*
X6028515Y-7656476D01*
X6018991Y-7646952D01*
X6028515Y-7637428D01*
X6028515Y-7656476D01*
X6209468Y-7523143D02*
X6209468Y-7656476D01*
X6161848Y-7446952D02*
X6114229Y-7589809D01*
X6238039Y-7589809D01*
X6352325Y-7456476D02*
X6371372Y-7456476D01*
X6390420Y-7466000D01*
X6399944Y-7475524D01*
X6409468Y-7494571D01*
X6418991Y-7532667D01*
X6418991Y-7580286D01*
X6409468Y-7618381D01*
X6399944Y-7637428D01*
X6390420Y-7646952D01*
X6371372Y-7656476D01*
X6352325Y-7656476D01*
X6333277Y-7646952D01*
X6323753Y-7637428D01*
X6314229Y-7618381D01*
X6304706Y-7580286D01*
X6304706Y-7532667D01*
X6314229Y-7494571D01*
X6323753Y-7475524D01*
X6333277Y-7466000D01*
X6352325Y-7456476D01*
X6542801Y-7456476D02*
X6561848Y-7456476D01*
X6580896Y-7466000D01*
X6590420Y-7475524D01*
X6599944Y-7494571D01*
X6609468Y-7532667D01*
X6609468Y-7580286D01*
X6599944Y-7618381D01*
X6590420Y-7637428D01*
X6580896Y-7646952D01*
X6561848Y-7656476D01*
X6542801Y-7656476D01*
X6523753Y-7646952D01*
X6514229Y-7637428D01*
X6504706Y-7618381D01*
X6495182Y-7580286D01*
X6495182Y-7532667D01*
X6504706Y-7494571D01*
X6514229Y-7475524D01*
X6523753Y-7466000D01*
X6542801Y-7456476D01*
X6695182Y-7656476D02*
X6695182Y-7523143D01*
X6695182Y-7542190D02*
X6704706Y-7532667D01*
X6723753Y-7523143D01*
X6752325Y-7523143D01*
X6771372Y-7532667D01*
X6780896Y-7551714D01*
X6780896Y-7656476D01*
X6780896Y-7551714D02*
X6790420Y-7532667D01*
X6809468Y-7523143D01*
X6838039Y-7523143D01*
X6857087Y-7532667D01*
X6866610Y-7551714D01*
X6866610Y-7656476D01*
X6961848Y-7656476D02*
X6961848Y-7523143D01*
X6961848Y-7542190D02*
X6971372Y-7532667D01*
X6990420Y-7523143D01*
X7018991Y-7523143D01*
X7038039Y-7532667D01*
X7047563Y-7551714D01*
X7047563Y-7656476D01*
X7047563Y-7551714D02*
X7057087Y-7532667D01*
X7076134Y-7523143D01*
X7104706Y-7523143D01*
X7123753Y-7532667D01*
X7133277Y-7551714D01*
X7133277Y-7656476D01*
X7523753Y-7446952D02*
X7352325Y-7704095D01*
X7780896Y-7456476D02*
X7799944Y-7456476D01*
X7818991Y-7466000D01*
X7828515Y-7475524D01*
X7838039Y-7494571D01*
X7847563Y-7532667D01*
X7847563Y-7580286D01*
X7838039Y-7618381D01*
X7828515Y-7637428D01*
X7818991Y-7646952D01*
X7799944Y-7656476D01*
X7780896Y-7656476D01*
X7761848Y-7646952D01*
X7752325Y-7637428D01*
X7742801Y-7618381D01*
X7733277Y-7580286D01*
X7733277Y-7532667D01*
X7742801Y-7494571D01*
X7752325Y-7475524D01*
X7761848Y-7466000D01*
X7780896Y-7456476D01*
X7933277Y-7637428D02*
X7942801Y-7646952D01*
X7933277Y-7656476D01*
X7923753Y-7646952D01*
X7933277Y-7637428D01*
X7933277Y-7656476D01*
X8066610Y-7456476D02*
X8085658Y-7456476D01*
X8104706Y-7466000D01*
X8114229Y-7475524D01*
X8123753Y-7494571D01*
X8133277Y-7532667D01*
X8133277Y-7580286D01*
X8123753Y-7618381D01*
X8114229Y-7637428D01*
X8104706Y-7646952D01*
X8085658Y-7656476D01*
X8066610Y-7656476D01*
X8047563Y-7646952D01*
X8038039Y-7637428D01*
X8028515Y-7618381D01*
X8018991Y-7580286D01*
X8018991Y-7532667D01*
X8028515Y-7494571D01*
X8038039Y-7475524D01*
X8047563Y-7466000D01*
X8066610Y-7456476D01*
X8323753Y-7656476D02*
X8209468Y-7656476D01*
X8266610Y-7656476D02*
X8266610Y-7456476D01*
X8247563Y-7485048D01*
X8228515Y-7504095D01*
X8209468Y-7513619D01*
X8504706Y-7456476D02*
X8409468Y-7456476D01*
X8399944Y-7551714D01*
X8409468Y-7542190D01*
X8428515Y-7532667D01*
X8476134Y-7532667D01*
X8495182Y-7542190D01*
X8504706Y-7551714D01*
X8514230Y-7570762D01*
X8514230Y-7618381D01*
X8504706Y-7637428D01*
X8495182Y-7646952D01*
X8476134Y-7656476D01*
X8428515Y-7656476D01*
X8409468Y-7646952D01*
X8399944Y-7637428D01*
X8580896Y-7456476D02*
X8714230Y-7456476D01*
X8628515Y-7656476D01*
X8780896Y-7456476D02*
X8780896Y-7494571D01*
X8857087Y-7456476D02*
X8857087Y-7494571D01*
X9152325Y-7732667D02*
X9142801Y-7723143D01*
X9123753Y-7694571D01*
X9114230Y-7675524D01*
X9104706Y-7646952D01*
X9095182Y-7599333D01*
X9095182Y-7561238D01*
X9104706Y-7513619D01*
X9114230Y-7485048D01*
X9123753Y-7466000D01*
X9142801Y-7437428D01*
X9152325Y-7427905D01*
X9257087Y-7542190D02*
X9238039Y-7532667D01*
X9228515Y-7523143D01*
X9218991Y-7504095D01*
X9218991Y-7494571D01*
X9228515Y-7475524D01*
X9238039Y-7466000D01*
X9257087Y-7456476D01*
X9295182Y-7456476D01*
X9314230Y-7466000D01*
X9323753Y-7475524D01*
X9333277Y-7494571D01*
X9333277Y-7504095D01*
X9323753Y-7523143D01*
X9314230Y-7532667D01*
X9295182Y-7542190D01*
X9257087Y-7542190D01*
X9238039Y-7551714D01*
X9228515Y-7561238D01*
X9218991Y-7580286D01*
X9218991Y-7618381D01*
X9228515Y-7637428D01*
X9238039Y-7646952D01*
X9257087Y-7656476D01*
X9295182Y-7656476D01*
X9314230Y-7646952D01*
X9323753Y-7637428D01*
X9333277Y-7618381D01*
X9333277Y-7580286D01*
X9323753Y-7561238D01*
X9314230Y-7551714D01*
X9295182Y-7542190D01*
X9399944Y-7456476D02*
X9533277Y-7456476D01*
X9447563Y-7656476D01*
X9761849Y-7656476D02*
X9761849Y-7456476D01*
X9847563Y-7656476D02*
X9847563Y-7551714D01*
X9838039Y-7532667D01*
X9818991Y-7523143D01*
X9790420Y-7523143D01*
X9771372Y-7532667D01*
X9761849Y-7542190D01*
X9971372Y-7656476D02*
X9952325Y-7646952D01*
X9942801Y-7637428D01*
X9933277Y-7618381D01*
X9933277Y-7561238D01*
X9942801Y-7542190D01*
X9952325Y-7532667D01*
X9971372Y-7523143D01*
X9999944Y-7523143D01*
X10018991Y-7532667D01*
X10028515Y-7542190D01*
X10038039Y-7561238D01*
X10038039Y-7618381D01*
X10028515Y-7637428D01*
X10018991Y-7646952D01*
X9999944Y-7656476D01*
X9971372Y-7656476D01*
X10152325Y-7656476D02*
X10133277Y-7646952D01*
X10123753Y-7627905D01*
X10123753Y-7456476D01*
X10304706Y-7646952D02*
X10285658Y-7656476D01*
X10247563Y-7656476D01*
X10228515Y-7646952D01*
X10218991Y-7627905D01*
X10218991Y-7551714D01*
X10228515Y-7532667D01*
X10247563Y-7523143D01*
X10285658Y-7523143D01*
X10304706Y-7532667D01*
X10314230Y-7551714D01*
X10314230Y-7570762D01*
X10218991Y-7589809D01*
X10390420Y-7646952D02*
X10409468Y-7656476D01*
X10447563Y-7656476D01*
X10466610Y-7646952D01*
X10476134Y-7627905D01*
X10476134Y-7618381D01*
X10466610Y-7599333D01*
X10447563Y-7589809D01*
X10418991Y-7589809D01*
X10399944Y-7580286D01*
X10390420Y-7561238D01*
X10390420Y-7551714D01*
X10399944Y-7532667D01*
X10418991Y-7523143D01*
X10447563Y-7523143D01*
X10466610Y-7532667D01*
X10542801Y-7732667D02*
X10552325Y-7723143D01*
X10571372Y-7694571D01*
X10580896Y-7675524D01*
X10590420Y-7646952D01*
X10599944Y-7599333D01*
X10599944Y-7561238D01*
X10590420Y-7513619D01*
X10580896Y-7485048D01*
X10571372Y-7466000D01*
X10552325Y-7437428D01*
X10542801Y-7427905D01*
D15*
X5571633Y-7851213D02*
X5571633Y-7808787D01*
X5529207Y-7808787D01*
X5529207Y-7851213D01*
X5571633Y-7851213D01*
D11*
X5876134Y-7720476D02*
X5895182Y-7720476D01*
X5914229Y-7730000D01*
X5923753Y-7739524D01*
X5933277Y-7758571D01*
X5942801Y-7796667D01*
X5942801Y-7844286D01*
X5933277Y-7882381D01*
X5923753Y-7901428D01*
X5914229Y-7910952D01*
X5895182Y-7920476D01*
X5876134Y-7920476D01*
X5857087Y-7910952D01*
X5847563Y-7901428D01*
X5838039Y-7882381D01*
X5828515Y-7844286D01*
X5828515Y-7796667D01*
X5838039Y-7758571D01*
X5847563Y-7739524D01*
X5857087Y-7730000D01*
X5876134Y-7720476D01*
X6028515Y-7901428D02*
X6038039Y-7910952D01*
X6028515Y-7920476D01*
X6018991Y-7910952D01*
X6028515Y-7901428D01*
X6028515Y-7920476D01*
X6209468Y-7720476D02*
X6171372Y-7720476D01*
X6152325Y-7730000D01*
X6142801Y-7739524D01*
X6123753Y-7768095D01*
X6114229Y-7806190D01*
X6114229Y-7882381D01*
X6123753Y-7901428D01*
X6133277Y-7910952D01*
X6152325Y-7920476D01*
X6190420Y-7920476D01*
X6209468Y-7910952D01*
X6218991Y-7901428D01*
X6228515Y-7882381D01*
X6228515Y-7834762D01*
X6218991Y-7815714D01*
X6209468Y-7806190D01*
X6190420Y-7796667D01*
X6152325Y-7796667D01*
X6133277Y-7806190D01*
X6123753Y-7815714D01*
X6114229Y-7834762D01*
X6352325Y-7720476D02*
X6371372Y-7720476D01*
X6390420Y-7730000D01*
X6399944Y-7739524D01*
X6409468Y-7758571D01*
X6418991Y-7796667D01*
X6418991Y-7844286D01*
X6409468Y-7882381D01*
X6399944Y-7901428D01*
X6390420Y-7910952D01*
X6371372Y-7920476D01*
X6352325Y-7920476D01*
X6333277Y-7910952D01*
X6323753Y-7901428D01*
X6314229Y-7882381D01*
X6304706Y-7844286D01*
X6304706Y-7796667D01*
X6314229Y-7758571D01*
X6323753Y-7739524D01*
X6333277Y-7730000D01*
X6352325Y-7720476D01*
X6542801Y-7720476D02*
X6561848Y-7720476D01*
X6580896Y-7730000D01*
X6590420Y-7739524D01*
X6599944Y-7758571D01*
X6609468Y-7796667D01*
X6609468Y-7844286D01*
X6599944Y-7882381D01*
X6590420Y-7901428D01*
X6580896Y-7910952D01*
X6561848Y-7920476D01*
X6542801Y-7920476D01*
X6523753Y-7910952D01*
X6514229Y-7901428D01*
X6504706Y-7882381D01*
X6495182Y-7844286D01*
X6495182Y-7796667D01*
X6504706Y-7758571D01*
X6514229Y-7739524D01*
X6523753Y-7730000D01*
X6542801Y-7720476D01*
X6695182Y-7920476D02*
X6695182Y-7787143D01*
X6695182Y-7806190D02*
X6704706Y-7796667D01*
X6723753Y-7787143D01*
X6752325Y-7787143D01*
X6771372Y-7796667D01*
X6780896Y-7815714D01*
X6780896Y-7920476D01*
X6780896Y-7815714D02*
X6790420Y-7796667D01*
X6809468Y-7787143D01*
X6838039Y-7787143D01*
X6857087Y-7796667D01*
X6866610Y-7815714D01*
X6866610Y-7920476D01*
X6961848Y-7920476D02*
X6961848Y-7787143D01*
X6961848Y-7806190D02*
X6971372Y-7796667D01*
X6990420Y-7787143D01*
X7018991Y-7787143D01*
X7038039Y-7796667D01*
X7047563Y-7815714D01*
X7047563Y-7920476D01*
X7047563Y-7815714D02*
X7057087Y-7796667D01*
X7076134Y-7787143D01*
X7104706Y-7787143D01*
X7123753Y-7796667D01*
X7133277Y-7815714D01*
X7133277Y-7920476D01*
X7523753Y-7710952D02*
X7352325Y-7968095D01*
X7780896Y-7720476D02*
X7799944Y-7720476D01*
X7818991Y-7730000D01*
X7828515Y-7739524D01*
X7838039Y-7758571D01*
X7847563Y-7796667D01*
X7847563Y-7844286D01*
X7838039Y-7882381D01*
X7828515Y-7901428D01*
X7818991Y-7910952D01*
X7799944Y-7920476D01*
X7780896Y-7920476D01*
X7761848Y-7910952D01*
X7752325Y-7901428D01*
X7742801Y-7882381D01*
X7733277Y-7844286D01*
X7733277Y-7796667D01*
X7742801Y-7758571D01*
X7752325Y-7739524D01*
X7761848Y-7730000D01*
X7780896Y-7720476D01*
X7933277Y-7901428D02*
X7942801Y-7910952D01*
X7933277Y-7920476D01*
X7923753Y-7910952D01*
X7933277Y-7901428D01*
X7933277Y-7920476D01*
X8066610Y-7720476D02*
X8085658Y-7720476D01*
X8104706Y-7730000D01*
X8114229Y-7739524D01*
X8123753Y-7758571D01*
X8133277Y-7796667D01*
X8133277Y-7844286D01*
X8123753Y-7882381D01*
X8114229Y-7901428D01*
X8104706Y-7910952D01*
X8085658Y-7920476D01*
X8066610Y-7920476D01*
X8047563Y-7910952D01*
X8038039Y-7901428D01*
X8028515Y-7882381D01*
X8018991Y-7844286D01*
X8018991Y-7796667D01*
X8028515Y-7758571D01*
X8038039Y-7739524D01*
X8047563Y-7730000D01*
X8066610Y-7720476D01*
X8209468Y-7739524D02*
X8218991Y-7730000D01*
X8238039Y-7720476D01*
X8285658Y-7720476D01*
X8304706Y-7730000D01*
X8314229Y-7739524D01*
X8323753Y-7758571D01*
X8323753Y-7777619D01*
X8314229Y-7806190D01*
X8199944Y-7920476D01*
X8323753Y-7920476D01*
X8390420Y-7720476D02*
X8514230Y-7720476D01*
X8447563Y-7796667D01*
X8476134Y-7796667D01*
X8495182Y-7806190D01*
X8504706Y-7815714D01*
X8514230Y-7834762D01*
X8514230Y-7882381D01*
X8504706Y-7901428D01*
X8495182Y-7910952D01*
X8476134Y-7920476D01*
X8418991Y-7920476D01*
X8399944Y-7910952D01*
X8390420Y-7901428D01*
X8685658Y-7720476D02*
X8647563Y-7720476D01*
X8628515Y-7730000D01*
X8618991Y-7739524D01*
X8599944Y-7768095D01*
X8590420Y-7806190D01*
X8590420Y-7882381D01*
X8599944Y-7901428D01*
X8609468Y-7910952D01*
X8628515Y-7920476D01*
X8666610Y-7920476D01*
X8685658Y-7910952D01*
X8695182Y-7901428D01*
X8704706Y-7882381D01*
X8704706Y-7834762D01*
X8695182Y-7815714D01*
X8685658Y-7806190D01*
X8666610Y-7796667D01*
X8628515Y-7796667D01*
X8609468Y-7806190D01*
X8599944Y-7815714D01*
X8590420Y-7834762D01*
X8780896Y-7720476D02*
X8780896Y-7758571D01*
X8857087Y-7720476D02*
X8857087Y-7758571D01*
X9152325Y-7996667D02*
X9142801Y-7987143D01*
X9123753Y-7958571D01*
X9114230Y-7939524D01*
X9104706Y-7910952D01*
X9095182Y-7863333D01*
X9095182Y-7825238D01*
X9104706Y-7777619D01*
X9114230Y-7749048D01*
X9123753Y-7730000D01*
X9142801Y-7701428D01*
X9152325Y-7691905D01*
X9266610Y-7720476D02*
X9285658Y-7720476D01*
X9304706Y-7730000D01*
X9314230Y-7739524D01*
X9323753Y-7758571D01*
X9333277Y-7796667D01*
X9333277Y-7844286D01*
X9323753Y-7882381D01*
X9314230Y-7901428D01*
X9304706Y-7910952D01*
X9285658Y-7920476D01*
X9266610Y-7920476D01*
X9247563Y-7910952D01*
X9238039Y-7901428D01*
X9228515Y-7882381D01*
X9218991Y-7844286D01*
X9218991Y-7796667D01*
X9228515Y-7758571D01*
X9238039Y-7739524D01*
X9247563Y-7730000D01*
X9266610Y-7720476D01*
X9571372Y-7920476D02*
X9571372Y-7720476D01*
X9657087Y-7920476D02*
X9657087Y-7815714D01*
X9647563Y-7796667D01*
X9628515Y-7787143D01*
X9599944Y-7787143D01*
X9580896Y-7796667D01*
X9571372Y-7806190D01*
X9780896Y-7920476D02*
X9761849Y-7910952D01*
X9752325Y-7901428D01*
X9742801Y-7882381D01*
X9742801Y-7825238D01*
X9752325Y-7806190D01*
X9761849Y-7796667D01*
X9780896Y-7787143D01*
X9809468Y-7787143D01*
X9828515Y-7796667D01*
X9838039Y-7806190D01*
X9847563Y-7825238D01*
X9847563Y-7882381D01*
X9838039Y-7901428D01*
X9828515Y-7910952D01*
X9809468Y-7920476D01*
X9780896Y-7920476D01*
X9961849Y-7920476D02*
X9942801Y-7910952D01*
X9933277Y-7891905D01*
X9933277Y-7720476D01*
X10114230Y-7910952D02*
X10095182Y-7920476D01*
X10057087Y-7920476D01*
X10038039Y-7910952D01*
X10028515Y-7891905D01*
X10028515Y-7815714D01*
X10038039Y-7796667D01*
X10057087Y-7787143D01*
X10095182Y-7787143D01*
X10114230Y-7796667D01*
X10123753Y-7815714D01*
X10123753Y-7834762D01*
X10028515Y-7853809D01*
X10199944Y-7910952D02*
X10218991Y-7920476D01*
X10257087Y-7920476D01*
X10276134Y-7910952D01*
X10285658Y-7891905D01*
X10285658Y-7882381D01*
X10276134Y-7863333D01*
X10257087Y-7853809D01*
X10228515Y-7853809D01*
X10209468Y-7844286D01*
X10199944Y-7825238D01*
X10199944Y-7815714D01*
X10209468Y-7796667D01*
X10228515Y-7787143D01*
X10257087Y-7787143D01*
X10276134Y-7796667D01*
X10523753Y-7844286D02*
X10676134Y-7844286D01*
X10599944Y-7920476D02*
X10599944Y-7768095D01*
X11009468Y-7787143D02*
X11009468Y-7920476D01*
X10961849Y-7710952D02*
X10914230Y-7853809D01*
X11038039Y-7853809D01*
X11257087Y-7910952D02*
X11276134Y-7920476D01*
X11314229Y-7920476D01*
X11333277Y-7910952D01*
X11342801Y-7891905D01*
X11342801Y-7882381D01*
X11333277Y-7863333D01*
X11314229Y-7853809D01*
X11285658Y-7853809D01*
X11266610Y-7844286D01*
X11257087Y-7825238D01*
X11257087Y-7815714D01*
X11266610Y-7796667D01*
X11285658Y-7787143D01*
X11314229Y-7787143D01*
X11333277Y-7796667D01*
X11457087Y-7920476D02*
X11438039Y-7910952D01*
X11428515Y-7891905D01*
X11428515Y-7720476D01*
X11561848Y-7920476D02*
X11542801Y-7910952D01*
X11533277Y-7901428D01*
X11523753Y-7882381D01*
X11523753Y-7825238D01*
X11533277Y-7806190D01*
X11542801Y-7796667D01*
X11561848Y-7787143D01*
X11590420Y-7787143D01*
X11609468Y-7796667D01*
X11618991Y-7806190D01*
X11628515Y-7825238D01*
X11628515Y-7882381D01*
X11618991Y-7901428D01*
X11609468Y-7910952D01*
X11590420Y-7920476D01*
X11561848Y-7920476D01*
X11685658Y-7787143D02*
X11761848Y-7787143D01*
X11714229Y-7720476D02*
X11714229Y-7891905D01*
X11723753Y-7910952D01*
X11742801Y-7920476D01*
X11761848Y-7920476D01*
X11818991Y-7910952D02*
X11838039Y-7920476D01*
X11876134Y-7920476D01*
X11895182Y-7910952D01*
X11904706Y-7891905D01*
X11904706Y-7882381D01*
X11895182Y-7863333D01*
X11876134Y-7853809D01*
X11847563Y-7853809D01*
X11828515Y-7844286D01*
X11818991Y-7825238D01*
X11818991Y-7815714D01*
X11828515Y-7796667D01*
X11847563Y-7787143D01*
X11876134Y-7787143D01*
X11895182Y-7796667D01*
X11971372Y-7996667D02*
X11980896Y-7987143D01*
X11999944Y-7958571D01*
X12009468Y-7939524D01*
X12018991Y-7910952D01*
X12028515Y-7863333D01*
X12028515Y-7825238D01*
X12018991Y-7777619D01*
X12009468Y-7749048D01*
X11999944Y-7730000D01*
X11980896Y-7701428D01*
X11971372Y-7691905D01*
D16*
X5542920Y-8131500D02*
X5580420Y-8094000D01*
X5542920Y-8056500D01*
X5505420Y-8094000D01*
X5542920Y-8131500D01*
D11*
X5876134Y-7984476D02*
X5895182Y-7984476D01*
X5914229Y-7994000D01*
X5923753Y-8003524D01*
X5933277Y-8022571D01*
X5942801Y-8060667D01*
X5942801Y-8108286D01*
X5933277Y-8146381D01*
X5923753Y-8165428D01*
X5914229Y-8174952D01*
X5895182Y-8184476D01*
X5876134Y-8184476D01*
X5857087Y-8174952D01*
X5847563Y-8165428D01*
X5838039Y-8146381D01*
X5828515Y-8108286D01*
X5828515Y-8060667D01*
X5838039Y-8022571D01*
X5847563Y-8003524D01*
X5857087Y-7994000D01*
X5876134Y-7984476D01*
X6028515Y-8165428D02*
X6038039Y-8174952D01*
X6028515Y-8184476D01*
X6018991Y-8174952D01*
X6028515Y-8165428D01*
X6028515Y-8184476D01*
X6104706Y-7984476D02*
X6238039Y-7984476D01*
X6152325Y-8184476D01*
X6409468Y-7984476D02*
X6314229Y-7984476D01*
X6304706Y-8079714D01*
X6314229Y-8070190D01*
X6333277Y-8060667D01*
X6380896Y-8060667D01*
X6399944Y-8070190D01*
X6409468Y-8079714D01*
X6418991Y-8098762D01*
X6418991Y-8146381D01*
X6409468Y-8165428D01*
X6399944Y-8174952D01*
X6380896Y-8184476D01*
X6333277Y-8184476D01*
X6314229Y-8174952D01*
X6304706Y-8165428D01*
X6542801Y-7984476D02*
X6561848Y-7984476D01*
X6580896Y-7994000D01*
X6590420Y-8003524D01*
X6599944Y-8022571D01*
X6609468Y-8060667D01*
X6609468Y-8108286D01*
X6599944Y-8146381D01*
X6590420Y-8165428D01*
X6580896Y-8174952D01*
X6561848Y-8184476D01*
X6542801Y-8184476D01*
X6523753Y-8174952D01*
X6514229Y-8165428D01*
X6504706Y-8146381D01*
X6495182Y-8108286D01*
X6495182Y-8060667D01*
X6504706Y-8022571D01*
X6514229Y-8003524D01*
X6523753Y-7994000D01*
X6542801Y-7984476D01*
X6695182Y-8184476D02*
X6695182Y-8051143D01*
X6695182Y-8070190D02*
X6704706Y-8060667D01*
X6723753Y-8051143D01*
X6752325Y-8051143D01*
X6771372Y-8060667D01*
X6780896Y-8079714D01*
X6780896Y-8184476D01*
X6780896Y-8079714D02*
X6790420Y-8060667D01*
X6809468Y-8051143D01*
X6838039Y-8051143D01*
X6857087Y-8060667D01*
X6866610Y-8079714D01*
X6866610Y-8184476D01*
X6961848Y-8184476D02*
X6961848Y-8051143D01*
X6961848Y-8070190D02*
X6971372Y-8060667D01*
X6990420Y-8051143D01*
X7018991Y-8051143D01*
X7038039Y-8060667D01*
X7047563Y-8079714D01*
X7047563Y-8184476D01*
X7047563Y-8079714D02*
X7057087Y-8060667D01*
X7076134Y-8051143D01*
X7104706Y-8051143D01*
X7123753Y-8060667D01*
X7133277Y-8079714D01*
X7133277Y-8184476D01*
X7523753Y-7974952D02*
X7352325Y-8232095D01*
X7780896Y-7984476D02*
X7799944Y-7984476D01*
X7818991Y-7994000D01*
X7828515Y-8003524D01*
X7838039Y-8022571D01*
X7847563Y-8060667D01*
X7847563Y-8108286D01*
X7838039Y-8146381D01*
X7828515Y-8165428D01*
X7818991Y-8174952D01*
X7799944Y-8184476D01*
X7780896Y-8184476D01*
X7761848Y-8174952D01*
X7752325Y-8165428D01*
X7742801Y-8146381D01*
X7733277Y-8108286D01*
X7733277Y-8060667D01*
X7742801Y-8022571D01*
X7752325Y-8003524D01*
X7761848Y-7994000D01*
X7780896Y-7984476D01*
X7933277Y-8165428D02*
X7942801Y-8174952D01*
X7933277Y-8184476D01*
X7923753Y-8174952D01*
X7933277Y-8165428D01*
X7933277Y-8184476D01*
X8066610Y-7984476D02*
X8085658Y-7984476D01*
X8104706Y-7994000D01*
X8114229Y-8003524D01*
X8123753Y-8022571D01*
X8133277Y-8060667D01*
X8133277Y-8108286D01*
X8123753Y-8146381D01*
X8114229Y-8165428D01*
X8104706Y-8174952D01*
X8085658Y-8184476D01*
X8066610Y-8184476D01*
X8047563Y-8174952D01*
X8038039Y-8165428D01*
X8028515Y-8146381D01*
X8018991Y-8108286D01*
X8018991Y-8060667D01*
X8028515Y-8022571D01*
X8038039Y-8003524D01*
X8047563Y-7994000D01*
X8066610Y-7984476D01*
X8209468Y-8003524D02*
X8218991Y-7994000D01*
X8238039Y-7984476D01*
X8285658Y-7984476D01*
X8304706Y-7994000D01*
X8314229Y-8003524D01*
X8323753Y-8022571D01*
X8323753Y-8041619D01*
X8314229Y-8070190D01*
X8199944Y-8184476D01*
X8323753Y-8184476D01*
X8418991Y-8184476D02*
X8457087Y-8184476D01*
X8476134Y-8174952D01*
X8485658Y-8165428D01*
X8504706Y-8136857D01*
X8514230Y-8098762D01*
X8514230Y-8022571D01*
X8504706Y-8003524D01*
X8495182Y-7994000D01*
X8476134Y-7984476D01*
X8438039Y-7984476D01*
X8418991Y-7994000D01*
X8409468Y-8003524D01*
X8399944Y-8022571D01*
X8399944Y-8070190D01*
X8409468Y-8089238D01*
X8418991Y-8098762D01*
X8438039Y-8108286D01*
X8476134Y-8108286D01*
X8495182Y-8098762D01*
X8504706Y-8089238D01*
X8514230Y-8070190D01*
X8695182Y-7984476D02*
X8599944Y-7984476D01*
X8590420Y-8079714D01*
X8599944Y-8070190D01*
X8618991Y-8060667D01*
X8666610Y-8060667D01*
X8685658Y-8070190D01*
X8695182Y-8079714D01*
X8704706Y-8098762D01*
X8704706Y-8146381D01*
X8695182Y-8165428D01*
X8685658Y-8174952D01*
X8666610Y-8184476D01*
X8618991Y-8184476D01*
X8599944Y-8174952D01*
X8590420Y-8165428D01*
X8780896Y-7984476D02*
X8780896Y-8022571D01*
X8857087Y-7984476D02*
X8857087Y-8022571D01*
X9152325Y-8260667D02*
X9142801Y-8251143D01*
X9123753Y-8222571D01*
X9114230Y-8203524D01*
X9104706Y-8174952D01*
X9095182Y-8127333D01*
X9095182Y-8089238D01*
X9104706Y-8041619D01*
X9114230Y-8013048D01*
X9123753Y-7994000D01*
X9142801Y-7965428D01*
X9152325Y-7955905D01*
X9209468Y-7984476D02*
X9342801Y-7984476D01*
X9257087Y-8184476D01*
X9571372Y-8184476D02*
X9571372Y-7984476D01*
X9657087Y-8184476D02*
X9657087Y-8079714D01*
X9647563Y-8060667D01*
X9628515Y-8051143D01*
X9599944Y-8051143D01*
X9580896Y-8060667D01*
X9571372Y-8070190D01*
X9780896Y-8184476D02*
X9761849Y-8174952D01*
X9752325Y-8165428D01*
X9742801Y-8146381D01*
X9742801Y-8089238D01*
X9752325Y-8070190D01*
X9761849Y-8060667D01*
X9780896Y-8051143D01*
X9809468Y-8051143D01*
X9828515Y-8060667D01*
X9838039Y-8070190D01*
X9847563Y-8089238D01*
X9847563Y-8146381D01*
X9838039Y-8165428D01*
X9828515Y-8174952D01*
X9809468Y-8184476D01*
X9780896Y-8184476D01*
X9961849Y-8184476D02*
X9942801Y-8174952D01*
X9933277Y-8155905D01*
X9933277Y-7984476D01*
X10114230Y-8174952D02*
X10095182Y-8184476D01*
X10057087Y-8184476D01*
X10038039Y-8174952D01*
X10028515Y-8155905D01*
X10028515Y-8079714D01*
X10038039Y-8060667D01*
X10057087Y-8051143D01*
X10095182Y-8051143D01*
X10114230Y-8060667D01*
X10123753Y-8079714D01*
X10123753Y-8098762D01*
X10028515Y-8117809D01*
X10199944Y-8174952D02*
X10218991Y-8184476D01*
X10257087Y-8184476D01*
X10276134Y-8174952D01*
X10285658Y-8155905D01*
X10285658Y-8146381D01*
X10276134Y-8127333D01*
X10257087Y-8117809D01*
X10228515Y-8117809D01*
X10209468Y-8108286D01*
X10199944Y-8089238D01*
X10199944Y-8079714D01*
X10209468Y-8060667D01*
X10228515Y-8051143D01*
X10257087Y-8051143D01*
X10276134Y-8060667D01*
X10352325Y-8260667D02*
X10361849Y-8251143D01*
X10380896Y-8222571D01*
X10390420Y-8203524D01*
X10399944Y-8174952D01*
X10409468Y-8127333D01*
X10409468Y-8089238D01*
X10399944Y-8041619D01*
X10390420Y-8013048D01*
X10380896Y-7994000D01*
X10361849Y-7965428D01*
X10352325Y-7955905D01*
D17*
X5491520Y-8313550D02*
X5580420Y-8402450D01*
X5580420Y-8313550D02*
X5491520Y-8402450D01*
X5580420Y-8358000D02*
G75*
G03*
X5580420Y-8358000I-44450J0D01*
G01*
D11*
X5876134Y-8248476D02*
X5895182Y-8248476D01*
X5914229Y-8258000D01*
X5923753Y-8267524D01*
X5933277Y-8286571D01*
X5942801Y-8324667D01*
X5942801Y-8372286D01*
X5933277Y-8410381D01*
X5923753Y-8429429D01*
X5914229Y-8438952D01*
X5895182Y-8448476D01*
X5876134Y-8448476D01*
X5857087Y-8438952D01*
X5847563Y-8429429D01*
X5838039Y-8410381D01*
X5828515Y-8372286D01*
X5828515Y-8324667D01*
X5838039Y-8286571D01*
X5847563Y-8267524D01*
X5857087Y-8258000D01*
X5876134Y-8248476D01*
X6028515Y-8429429D02*
X6038039Y-8438952D01*
X6028515Y-8448476D01*
X6018991Y-8438952D01*
X6028515Y-8429429D01*
X6028515Y-8448476D01*
X6152325Y-8334190D02*
X6133277Y-8324667D01*
X6123753Y-8315143D01*
X6114229Y-8296095D01*
X6114229Y-8286571D01*
X6123753Y-8267524D01*
X6133277Y-8258000D01*
X6152325Y-8248476D01*
X6190420Y-8248476D01*
X6209468Y-8258000D01*
X6218991Y-8267524D01*
X6228515Y-8286571D01*
X6228515Y-8296095D01*
X6218991Y-8315143D01*
X6209468Y-8324667D01*
X6190420Y-8334190D01*
X6152325Y-8334190D01*
X6133277Y-8343714D01*
X6123753Y-8353238D01*
X6114229Y-8372286D01*
X6114229Y-8410381D01*
X6123753Y-8429429D01*
X6133277Y-8438952D01*
X6152325Y-8448476D01*
X6190420Y-8448476D01*
X6209468Y-8438952D01*
X6218991Y-8429429D01*
X6228515Y-8410381D01*
X6228515Y-8372286D01*
X6218991Y-8353238D01*
X6209468Y-8343714D01*
X6190420Y-8334190D01*
X6342801Y-8334190D02*
X6323753Y-8324667D01*
X6314229Y-8315143D01*
X6304706Y-8296095D01*
X6304706Y-8286571D01*
X6314229Y-8267524D01*
X6323753Y-8258000D01*
X6342801Y-8248476D01*
X6380896Y-8248476D01*
X6399944Y-8258000D01*
X6409468Y-8267524D01*
X6418991Y-8286571D01*
X6418991Y-8296095D01*
X6409468Y-8315143D01*
X6399944Y-8324667D01*
X6380896Y-8334190D01*
X6342801Y-8334190D01*
X6323753Y-8343714D01*
X6314229Y-8353238D01*
X6304706Y-8372286D01*
X6304706Y-8410381D01*
X6314229Y-8429429D01*
X6323753Y-8438952D01*
X6342801Y-8448476D01*
X6380896Y-8448476D01*
X6399944Y-8438952D01*
X6409468Y-8429429D01*
X6418991Y-8410381D01*
X6418991Y-8372286D01*
X6409468Y-8353238D01*
X6399944Y-8343714D01*
X6380896Y-8334190D01*
X6514229Y-8448476D02*
X6552325Y-8448476D01*
X6571372Y-8438952D01*
X6580896Y-8429429D01*
X6599944Y-8400857D01*
X6609468Y-8362762D01*
X6609468Y-8286571D01*
X6599944Y-8267524D01*
X6590420Y-8258000D01*
X6571372Y-8248476D01*
X6533277Y-8248476D01*
X6514229Y-8258000D01*
X6504706Y-8267524D01*
X6495182Y-8286571D01*
X6495182Y-8334190D01*
X6504706Y-8353238D01*
X6514229Y-8362762D01*
X6533277Y-8372286D01*
X6571372Y-8372286D01*
X6590420Y-8362762D01*
X6599944Y-8353238D01*
X6609468Y-8334190D01*
X6695182Y-8448476D02*
X6695182Y-8315143D01*
X6695182Y-8334190D02*
X6704706Y-8324667D01*
X6723753Y-8315143D01*
X6752325Y-8315143D01*
X6771372Y-8324667D01*
X6780896Y-8343714D01*
X6780896Y-8448476D01*
X6780896Y-8343714D02*
X6790420Y-8324667D01*
X6809468Y-8315143D01*
X6838039Y-8315143D01*
X6857087Y-8324667D01*
X6866610Y-8343714D01*
X6866610Y-8448476D01*
X6961848Y-8448476D02*
X6961848Y-8315143D01*
X6961848Y-8334190D02*
X6971372Y-8324667D01*
X6990420Y-8315143D01*
X7018991Y-8315143D01*
X7038039Y-8324667D01*
X7047563Y-8343714D01*
X7047563Y-8448476D01*
X7047563Y-8343714D02*
X7057087Y-8324667D01*
X7076134Y-8315143D01*
X7104706Y-8315143D01*
X7123753Y-8324667D01*
X7133277Y-8343714D01*
X7133277Y-8448476D01*
X7523753Y-8238952D02*
X7352325Y-8496095D01*
X7780896Y-8248476D02*
X7799944Y-8248476D01*
X7818991Y-8258000D01*
X7828515Y-8267524D01*
X7838039Y-8286571D01*
X7847563Y-8324667D01*
X7847563Y-8372286D01*
X7838039Y-8410381D01*
X7828515Y-8429429D01*
X7818991Y-8438952D01*
X7799944Y-8448476D01*
X7780896Y-8448476D01*
X7761848Y-8438952D01*
X7752325Y-8429429D01*
X7742801Y-8410381D01*
X7733277Y-8372286D01*
X7733277Y-8324667D01*
X7742801Y-8286571D01*
X7752325Y-8267524D01*
X7761848Y-8258000D01*
X7780896Y-8248476D01*
X7933277Y-8429429D02*
X7942801Y-8438952D01*
X7933277Y-8448476D01*
X7923753Y-8438952D01*
X7933277Y-8429429D01*
X7933277Y-8448476D01*
X8066610Y-8248476D02*
X8085658Y-8248476D01*
X8104706Y-8258000D01*
X8114229Y-8267524D01*
X8123753Y-8286571D01*
X8133277Y-8324667D01*
X8133277Y-8372286D01*
X8123753Y-8410381D01*
X8114229Y-8429429D01*
X8104706Y-8438952D01*
X8085658Y-8448476D01*
X8066610Y-8448476D01*
X8047563Y-8438952D01*
X8038039Y-8429429D01*
X8028515Y-8410381D01*
X8018991Y-8372286D01*
X8018991Y-8324667D01*
X8028515Y-8286571D01*
X8038039Y-8267524D01*
X8047563Y-8258000D01*
X8066610Y-8248476D01*
X8199944Y-8248476D02*
X8323753Y-8248476D01*
X8257087Y-8324667D01*
X8285658Y-8324667D01*
X8304706Y-8334190D01*
X8314229Y-8343714D01*
X8323753Y-8362762D01*
X8323753Y-8410381D01*
X8314229Y-8429429D01*
X8304706Y-8438952D01*
X8285658Y-8448476D01*
X8228515Y-8448476D01*
X8209468Y-8438952D01*
X8199944Y-8429429D01*
X8504706Y-8248476D02*
X8409468Y-8248476D01*
X8399944Y-8343714D01*
X8409468Y-8334190D01*
X8428515Y-8324667D01*
X8476134Y-8324667D01*
X8495182Y-8334190D01*
X8504706Y-8343714D01*
X8514230Y-8362762D01*
X8514230Y-8410381D01*
X8504706Y-8429429D01*
X8495182Y-8438952D01*
X8476134Y-8448476D01*
X8428515Y-8448476D01*
X8409468Y-8438952D01*
X8399944Y-8429429D01*
X8638039Y-8248476D02*
X8657087Y-8248476D01*
X8676134Y-8258000D01*
X8685658Y-8267524D01*
X8695182Y-8286571D01*
X8704706Y-8324667D01*
X8704706Y-8372286D01*
X8695182Y-8410381D01*
X8685658Y-8429429D01*
X8676134Y-8438952D01*
X8657087Y-8448476D01*
X8638039Y-8448476D01*
X8618991Y-8438952D01*
X8609468Y-8429429D01*
X8599944Y-8410381D01*
X8590420Y-8372286D01*
X8590420Y-8324667D01*
X8599944Y-8286571D01*
X8609468Y-8267524D01*
X8618991Y-8258000D01*
X8638039Y-8248476D01*
X8780896Y-8248476D02*
X8780896Y-8286571D01*
X8857087Y-8248476D02*
X8857087Y-8286571D01*
X9152325Y-8524667D02*
X9142801Y-8515143D01*
X9123753Y-8486571D01*
X9114230Y-8467524D01*
X9104706Y-8438952D01*
X9095182Y-8391333D01*
X9095182Y-8353238D01*
X9104706Y-8305619D01*
X9114230Y-8277048D01*
X9123753Y-8258000D01*
X9142801Y-8229428D01*
X9152325Y-8219905D01*
X9333277Y-8448476D02*
X9218991Y-8448476D01*
X9276134Y-8448476D02*
X9276134Y-8248476D01*
X9257087Y-8277048D01*
X9238039Y-8296095D01*
X9218991Y-8305619D01*
X9457087Y-8248476D02*
X9476134Y-8248476D01*
X9495182Y-8258000D01*
X9504706Y-8267524D01*
X9514230Y-8286571D01*
X9523753Y-8324667D01*
X9523753Y-8372286D01*
X9514230Y-8410381D01*
X9504706Y-8429429D01*
X9495182Y-8438952D01*
X9476134Y-8448476D01*
X9457087Y-8448476D01*
X9438039Y-8438952D01*
X9428515Y-8429429D01*
X9418991Y-8410381D01*
X9409468Y-8372286D01*
X9409468Y-8324667D01*
X9418991Y-8286571D01*
X9428515Y-8267524D01*
X9438039Y-8258000D01*
X9457087Y-8248476D01*
X9761849Y-8448476D02*
X9761849Y-8248476D01*
X9847563Y-8448476D02*
X9847563Y-8343714D01*
X9838039Y-8324667D01*
X9818991Y-8315143D01*
X9790420Y-8315143D01*
X9771372Y-8324667D01*
X9761849Y-8334190D01*
X9971372Y-8448476D02*
X9952325Y-8438952D01*
X9942801Y-8429429D01*
X9933277Y-8410381D01*
X9933277Y-8353238D01*
X9942801Y-8334190D01*
X9952325Y-8324667D01*
X9971372Y-8315143D01*
X9999944Y-8315143D01*
X10018991Y-8324667D01*
X10028515Y-8334190D01*
X10038039Y-8353238D01*
X10038039Y-8410381D01*
X10028515Y-8429429D01*
X10018991Y-8438952D01*
X9999944Y-8448476D01*
X9971372Y-8448476D01*
X10152325Y-8448476D02*
X10133277Y-8438952D01*
X10123753Y-8419905D01*
X10123753Y-8248476D01*
X10304706Y-8438952D02*
X10285658Y-8448476D01*
X10247563Y-8448476D01*
X10228515Y-8438952D01*
X10218991Y-8419905D01*
X10218991Y-8343714D01*
X10228515Y-8324667D01*
X10247563Y-8315143D01*
X10285658Y-8315143D01*
X10304706Y-8324667D01*
X10314230Y-8343714D01*
X10314230Y-8362762D01*
X10218991Y-8381809D01*
X10390420Y-8438952D02*
X10409468Y-8448476D01*
X10447563Y-8448476D01*
X10466610Y-8438952D01*
X10476134Y-8419905D01*
X10476134Y-8410381D01*
X10466610Y-8391333D01*
X10447563Y-8381809D01*
X10418991Y-8381809D01*
X10399944Y-8372286D01*
X10390420Y-8353238D01*
X10390420Y-8343714D01*
X10399944Y-8324667D01*
X10418991Y-8315143D01*
X10447563Y-8315143D01*
X10466610Y-8324667D01*
X10542801Y-8524667D02*
X10552325Y-8515143D01*
X10571372Y-8486571D01*
X10580896Y-8467524D01*
X10590420Y-8438952D01*
X10599944Y-8391333D01*
X10599944Y-8353238D01*
X10590420Y-8305619D01*
X10580896Y-8277048D01*
X10571372Y-8258000D01*
X10552325Y-8229428D01*
X10542801Y-8219905D01*
D18*
X5490420Y-8577000D02*
X5580420Y-8667000D01*
X5580420Y-8577000D02*
X5490420Y-8667000D01*
X5535420Y-8577000D02*
X5535420Y-8667000D01*
X5490420Y-8622000D02*
X5580420Y-8622000D01*
D11*
X5876134Y-8512476D02*
X5895182Y-8512476D01*
X5914229Y-8522000D01*
X5923753Y-8531524D01*
X5933277Y-8550571D01*
X5942801Y-8588667D01*
X5942801Y-8636286D01*
X5933277Y-8674381D01*
X5923753Y-8693429D01*
X5914229Y-8702952D01*
X5895182Y-8712476D01*
X5876134Y-8712476D01*
X5857087Y-8702952D01*
X5847563Y-8693429D01*
X5838039Y-8674381D01*
X5828515Y-8636286D01*
X5828515Y-8588667D01*
X5838039Y-8550571D01*
X5847563Y-8531524D01*
X5857087Y-8522000D01*
X5876134Y-8512476D01*
X6028515Y-8693429D02*
X6038039Y-8702952D01*
X6028515Y-8712476D01*
X6018991Y-8702952D01*
X6028515Y-8693429D01*
X6028515Y-8712476D01*
X6133277Y-8712476D02*
X6171372Y-8712476D01*
X6190420Y-8702952D01*
X6199944Y-8693429D01*
X6218991Y-8664857D01*
X6228515Y-8626762D01*
X6228515Y-8550571D01*
X6218991Y-8531524D01*
X6209468Y-8522000D01*
X6190420Y-8512476D01*
X6152325Y-8512476D01*
X6133277Y-8522000D01*
X6123753Y-8531524D01*
X6114229Y-8550571D01*
X6114229Y-8598190D01*
X6123753Y-8617238D01*
X6133277Y-8626762D01*
X6152325Y-8636286D01*
X6190420Y-8636286D01*
X6209468Y-8626762D01*
X6218991Y-8617238D01*
X6228515Y-8598190D01*
X6352325Y-8512476D02*
X6371372Y-8512476D01*
X6390420Y-8522000D01*
X6399944Y-8531524D01*
X6409468Y-8550571D01*
X6418991Y-8588667D01*
X6418991Y-8636286D01*
X6409468Y-8674381D01*
X6399944Y-8693429D01*
X6390420Y-8702952D01*
X6371372Y-8712476D01*
X6352325Y-8712476D01*
X6333277Y-8702952D01*
X6323753Y-8693429D01*
X6314229Y-8674381D01*
X6304706Y-8636286D01*
X6304706Y-8588667D01*
X6314229Y-8550571D01*
X6323753Y-8531524D01*
X6333277Y-8522000D01*
X6352325Y-8512476D01*
X6542801Y-8512476D02*
X6561848Y-8512476D01*
X6580896Y-8522000D01*
X6590420Y-8531524D01*
X6599944Y-8550571D01*
X6609468Y-8588667D01*
X6609468Y-8636286D01*
X6599944Y-8674381D01*
X6590420Y-8693429D01*
X6580896Y-8702952D01*
X6561848Y-8712476D01*
X6542801Y-8712476D01*
X6523753Y-8702952D01*
X6514229Y-8693429D01*
X6504706Y-8674381D01*
X6495182Y-8636286D01*
X6495182Y-8588667D01*
X6504706Y-8550571D01*
X6514229Y-8531524D01*
X6523753Y-8522000D01*
X6542801Y-8512476D01*
X6695182Y-8712476D02*
X6695182Y-8579143D01*
X6695182Y-8598190D02*
X6704706Y-8588667D01*
X6723753Y-8579143D01*
X6752325Y-8579143D01*
X6771372Y-8588667D01*
X6780896Y-8607714D01*
X6780896Y-8712476D01*
X6780896Y-8607714D02*
X6790420Y-8588667D01*
X6809468Y-8579143D01*
X6838039Y-8579143D01*
X6857087Y-8588667D01*
X6866610Y-8607714D01*
X6866610Y-8712476D01*
X6961848Y-8712476D02*
X6961848Y-8579143D01*
X6961848Y-8598190D02*
X6971372Y-8588667D01*
X6990420Y-8579143D01*
X7018991Y-8579143D01*
X7038039Y-8588667D01*
X7047563Y-8607714D01*
X7047563Y-8712476D01*
X7047563Y-8607714D02*
X7057087Y-8588667D01*
X7076134Y-8579143D01*
X7104706Y-8579143D01*
X7123753Y-8588667D01*
X7133277Y-8607714D01*
X7133277Y-8712476D01*
X7523753Y-8502952D02*
X7352325Y-8760095D01*
X7780896Y-8512476D02*
X7799944Y-8512476D01*
X7818991Y-8522000D01*
X7828515Y-8531524D01*
X7838039Y-8550571D01*
X7847563Y-8588667D01*
X7847563Y-8636286D01*
X7838039Y-8674381D01*
X7828515Y-8693429D01*
X7818991Y-8702952D01*
X7799944Y-8712476D01*
X7780896Y-8712476D01*
X7761848Y-8702952D01*
X7752325Y-8693429D01*
X7742801Y-8674381D01*
X7733277Y-8636286D01*
X7733277Y-8588667D01*
X7742801Y-8550571D01*
X7752325Y-8531524D01*
X7761848Y-8522000D01*
X7780896Y-8512476D01*
X7933277Y-8693429D02*
X7942801Y-8702952D01*
X7933277Y-8712476D01*
X7923753Y-8702952D01*
X7933277Y-8693429D01*
X7933277Y-8712476D01*
X8066610Y-8512476D02*
X8085658Y-8512476D01*
X8104706Y-8522000D01*
X8114229Y-8531524D01*
X8123753Y-8550571D01*
X8133277Y-8588667D01*
X8133277Y-8636286D01*
X8123753Y-8674381D01*
X8114229Y-8693429D01*
X8104706Y-8702952D01*
X8085658Y-8712476D01*
X8066610Y-8712476D01*
X8047563Y-8702952D01*
X8038039Y-8693429D01*
X8028515Y-8674381D01*
X8018991Y-8636286D01*
X8018991Y-8588667D01*
X8028515Y-8550571D01*
X8038039Y-8531524D01*
X8047563Y-8522000D01*
X8066610Y-8512476D01*
X8199944Y-8512476D02*
X8323753Y-8512476D01*
X8257087Y-8588667D01*
X8285658Y-8588667D01*
X8304706Y-8598190D01*
X8314229Y-8607714D01*
X8323753Y-8626762D01*
X8323753Y-8674381D01*
X8314229Y-8693429D01*
X8304706Y-8702952D01*
X8285658Y-8712476D01*
X8228515Y-8712476D01*
X8209468Y-8702952D01*
X8199944Y-8693429D01*
X8504706Y-8512476D02*
X8409468Y-8512476D01*
X8399944Y-8607714D01*
X8409468Y-8598190D01*
X8428515Y-8588667D01*
X8476134Y-8588667D01*
X8495182Y-8598190D01*
X8504706Y-8607714D01*
X8514230Y-8626762D01*
X8514230Y-8674381D01*
X8504706Y-8693429D01*
X8495182Y-8702952D01*
X8476134Y-8712476D01*
X8428515Y-8712476D01*
X8409468Y-8702952D01*
X8399944Y-8693429D01*
X8685658Y-8579143D02*
X8685658Y-8712476D01*
X8638039Y-8502952D02*
X8590420Y-8645810D01*
X8714230Y-8645810D01*
X8780896Y-8512476D02*
X8780896Y-8550571D01*
X8857087Y-8512476D02*
X8857087Y-8550571D01*
X9152325Y-8788667D02*
X9142801Y-8779143D01*
X9123753Y-8750571D01*
X9114230Y-8731524D01*
X9104706Y-8702952D01*
X9095182Y-8655333D01*
X9095182Y-8617238D01*
X9104706Y-8569619D01*
X9114230Y-8541048D01*
X9123753Y-8522000D01*
X9142801Y-8493429D01*
X9152325Y-8483905D01*
X9209468Y-8512476D02*
X9333277Y-8512476D01*
X9266610Y-8588667D01*
X9295182Y-8588667D01*
X9314230Y-8598190D01*
X9323753Y-8607714D01*
X9333277Y-8626762D01*
X9333277Y-8674381D01*
X9323753Y-8693429D01*
X9314230Y-8702952D01*
X9295182Y-8712476D01*
X9238039Y-8712476D01*
X9218991Y-8702952D01*
X9209468Y-8693429D01*
X9571372Y-8712476D02*
X9571372Y-8512476D01*
X9657087Y-8712476D02*
X9657087Y-8607714D01*
X9647563Y-8588667D01*
X9628515Y-8579143D01*
X9599944Y-8579143D01*
X9580896Y-8588667D01*
X9571372Y-8598190D01*
X9780896Y-8712476D02*
X9761849Y-8702952D01*
X9752325Y-8693429D01*
X9742801Y-8674381D01*
X9742801Y-8617238D01*
X9752325Y-8598190D01*
X9761849Y-8588667D01*
X9780896Y-8579143D01*
X9809468Y-8579143D01*
X9828515Y-8588667D01*
X9838039Y-8598190D01*
X9847563Y-8617238D01*
X9847563Y-8674381D01*
X9838039Y-8693429D01*
X9828515Y-8702952D01*
X9809468Y-8712476D01*
X9780896Y-8712476D01*
X9961849Y-8712476D02*
X9942801Y-8702952D01*
X9933277Y-8683905D01*
X9933277Y-8512476D01*
X10114230Y-8702952D02*
X10095182Y-8712476D01*
X10057087Y-8712476D01*
X10038039Y-8702952D01*
X10028515Y-8683905D01*
X10028515Y-8607714D01*
X10038039Y-8588667D01*
X10057087Y-8579143D01*
X10095182Y-8579143D01*
X10114230Y-8588667D01*
X10123753Y-8607714D01*
X10123753Y-8626762D01*
X10028515Y-8645810D01*
X10199944Y-8702952D02*
X10218991Y-8712476D01*
X10257087Y-8712476D01*
X10276134Y-8702952D01*
X10285658Y-8683905D01*
X10285658Y-8674381D01*
X10276134Y-8655333D01*
X10257087Y-8645810D01*
X10228515Y-8645810D01*
X10209468Y-8636286D01*
X10199944Y-8617238D01*
X10199944Y-8607714D01*
X10209468Y-8588667D01*
X10228515Y-8579143D01*
X10257087Y-8579143D01*
X10276134Y-8588667D01*
X10352325Y-8788667D02*
X10361849Y-8779143D01*
X10380896Y-8750571D01*
X10390420Y-8731524D01*
X10399944Y-8702952D01*
X10409468Y-8655333D01*
X10409468Y-8617238D01*
X10399944Y-8569619D01*
X10390420Y-8541048D01*
X10380896Y-8522000D01*
X10361849Y-8493429D01*
X10352325Y-8483905D01*
D19*
X5480420Y-8836000D02*
X5580420Y-8936000D01*
X5580420Y-8836000D02*
X5480420Y-8936000D01*
X5565776Y-8921356D02*
X5565776Y-8850644D01*
X5495064Y-8850644D01*
X5495064Y-8921356D01*
X5565776Y-8921356D01*
D11*
X5942801Y-8976476D02*
X5828515Y-8976476D01*
X5885658Y-8976476D02*
X5885658Y-8776476D01*
X5866610Y-8805048D01*
X5847563Y-8824095D01*
X5828515Y-8833619D01*
X6028515Y-8957429D02*
X6038039Y-8966952D01*
X6028515Y-8976476D01*
X6018991Y-8966952D01*
X6028515Y-8957429D01*
X6028515Y-8976476D01*
X6161848Y-8776476D02*
X6180896Y-8776476D01*
X6199944Y-8786000D01*
X6209468Y-8795524D01*
X6218991Y-8814571D01*
X6228515Y-8852667D01*
X6228515Y-8900286D01*
X6218991Y-8938381D01*
X6209468Y-8957429D01*
X6199944Y-8966952D01*
X6180896Y-8976476D01*
X6161848Y-8976476D01*
X6142801Y-8966952D01*
X6133277Y-8957429D01*
X6123753Y-8938381D01*
X6114229Y-8900286D01*
X6114229Y-8852667D01*
X6123753Y-8814571D01*
X6133277Y-8795524D01*
X6142801Y-8786000D01*
X6161848Y-8776476D01*
X6352325Y-8776476D02*
X6371372Y-8776476D01*
X6390420Y-8786000D01*
X6399944Y-8795524D01*
X6409468Y-8814571D01*
X6418991Y-8852667D01*
X6418991Y-8900286D01*
X6409468Y-8938381D01*
X6399944Y-8957429D01*
X6390420Y-8966952D01*
X6371372Y-8976476D01*
X6352325Y-8976476D01*
X6333277Y-8966952D01*
X6323753Y-8957429D01*
X6314229Y-8938381D01*
X6304706Y-8900286D01*
X6304706Y-8852667D01*
X6314229Y-8814571D01*
X6323753Y-8795524D01*
X6333277Y-8786000D01*
X6352325Y-8776476D01*
X6542801Y-8776476D02*
X6561848Y-8776476D01*
X6580896Y-8786000D01*
X6590420Y-8795524D01*
X6599944Y-8814571D01*
X6609468Y-8852667D01*
X6609468Y-8900286D01*
X6599944Y-8938381D01*
X6590420Y-8957429D01*
X6580896Y-8966952D01*
X6561848Y-8976476D01*
X6542801Y-8976476D01*
X6523753Y-8966952D01*
X6514229Y-8957429D01*
X6504706Y-8938381D01*
X6495182Y-8900286D01*
X6495182Y-8852667D01*
X6504706Y-8814571D01*
X6514229Y-8795524D01*
X6523753Y-8786000D01*
X6542801Y-8776476D01*
X6695182Y-8976476D02*
X6695182Y-8843143D01*
X6695182Y-8862190D02*
X6704706Y-8852667D01*
X6723753Y-8843143D01*
X6752325Y-8843143D01*
X6771372Y-8852667D01*
X6780896Y-8871714D01*
X6780896Y-8976476D01*
X6780896Y-8871714D02*
X6790420Y-8852667D01*
X6809468Y-8843143D01*
X6838039Y-8843143D01*
X6857087Y-8852667D01*
X6866610Y-8871714D01*
X6866610Y-8976476D01*
X6961848Y-8976476D02*
X6961848Y-8843143D01*
X6961848Y-8862190D02*
X6971372Y-8852667D01*
X6990420Y-8843143D01*
X7018991Y-8843143D01*
X7038039Y-8852667D01*
X7047563Y-8871714D01*
X7047563Y-8976476D01*
X7047563Y-8871714D02*
X7057087Y-8852667D01*
X7076134Y-8843143D01*
X7104706Y-8843143D01*
X7123753Y-8852667D01*
X7133277Y-8871714D01*
X7133277Y-8976476D01*
X7523753Y-8766952D02*
X7352325Y-9024095D01*
X7780896Y-8776476D02*
X7799944Y-8776476D01*
X7818991Y-8786000D01*
X7828515Y-8795524D01*
X7838039Y-8814571D01*
X7847563Y-8852667D01*
X7847563Y-8900286D01*
X7838039Y-8938381D01*
X7828515Y-8957429D01*
X7818991Y-8966952D01*
X7799944Y-8976476D01*
X7780896Y-8976476D01*
X7761848Y-8966952D01*
X7752325Y-8957429D01*
X7742801Y-8938381D01*
X7733277Y-8900286D01*
X7733277Y-8852667D01*
X7742801Y-8814571D01*
X7752325Y-8795524D01*
X7761848Y-8786000D01*
X7780896Y-8776476D01*
X7933277Y-8957429D02*
X7942801Y-8966952D01*
X7933277Y-8976476D01*
X7923753Y-8966952D01*
X7933277Y-8957429D01*
X7933277Y-8976476D01*
X8066610Y-8776476D02*
X8085658Y-8776476D01*
X8104706Y-8786000D01*
X8114229Y-8795524D01*
X8123753Y-8814571D01*
X8133277Y-8852667D01*
X8133277Y-8900286D01*
X8123753Y-8938381D01*
X8114229Y-8957429D01*
X8104706Y-8966952D01*
X8085658Y-8976476D01*
X8066610Y-8976476D01*
X8047563Y-8966952D01*
X8038039Y-8957429D01*
X8028515Y-8938381D01*
X8018991Y-8900286D01*
X8018991Y-8852667D01*
X8028515Y-8814571D01*
X8038039Y-8795524D01*
X8047563Y-8786000D01*
X8066610Y-8776476D01*
X8199944Y-8776476D02*
X8323753Y-8776476D01*
X8257087Y-8852667D01*
X8285658Y-8852667D01*
X8304706Y-8862190D01*
X8314229Y-8871714D01*
X8323753Y-8890762D01*
X8323753Y-8938381D01*
X8314229Y-8957429D01*
X8304706Y-8966952D01*
X8285658Y-8976476D01*
X8228515Y-8976476D01*
X8209468Y-8966952D01*
X8199944Y-8957429D01*
X8418991Y-8976476D02*
X8457087Y-8976476D01*
X8476134Y-8966952D01*
X8485658Y-8957429D01*
X8504706Y-8928857D01*
X8514230Y-8890762D01*
X8514230Y-8814571D01*
X8504706Y-8795524D01*
X8495182Y-8786000D01*
X8476134Y-8776476D01*
X8438039Y-8776476D01*
X8418991Y-8786000D01*
X8409468Y-8795524D01*
X8399944Y-8814571D01*
X8399944Y-8862190D01*
X8409468Y-8881238D01*
X8418991Y-8890762D01*
X8438039Y-8900286D01*
X8476134Y-8900286D01*
X8495182Y-8890762D01*
X8504706Y-8881238D01*
X8514230Y-8862190D01*
X8685658Y-8843143D02*
X8685658Y-8976476D01*
X8638039Y-8766952D02*
X8590420Y-8909810D01*
X8714230Y-8909810D01*
X8780896Y-8776476D02*
X8780896Y-8814571D01*
X8857087Y-8776476D02*
X8857087Y-8814571D01*
X9152325Y-9052667D02*
X9142801Y-9043143D01*
X9123753Y-9014571D01*
X9114230Y-8995524D01*
X9104706Y-8966952D01*
X9095182Y-8919333D01*
X9095182Y-8881238D01*
X9104706Y-8833619D01*
X9114230Y-8805048D01*
X9123753Y-8786000D01*
X9142801Y-8757429D01*
X9152325Y-8747905D01*
X9209468Y-8776476D02*
X9342801Y-8776476D01*
X9257087Y-8976476D01*
X9571372Y-8976476D02*
X9571372Y-8776476D01*
X9657087Y-8976476D02*
X9657087Y-8871714D01*
X9647563Y-8852667D01*
X9628515Y-8843143D01*
X9599944Y-8843143D01*
X9580896Y-8852667D01*
X9571372Y-8862190D01*
X9780896Y-8976476D02*
X9761849Y-8966952D01*
X9752325Y-8957429D01*
X9742801Y-8938381D01*
X9742801Y-8881238D01*
X9752325Y-8862190D01*
X9761849Y-8852667D01*
X9780896Y-8843143D01*
X9809468Y-8843143D01*
X9828515Y-8852667D01*
X9838039Y-8862190D01*
X9847563Y-8881238D01*
X9847563Y-8938381D01*
X9838039Y-8957429D01*
X9828515Y-8966952D01*
X9809468Y-8976476D01*
X9780896Y-8976476D01*
X9961849Y-8976476D02*
X9942801Y-8966952D01*
X9933277Y-8947905D01*
X9933277Y-8776476D01*
X10114230Y-8966952D02*
X10095182Y-8976476D01*
X10057087Y-8976476D01*
X10038039Y-8966952D01*
X10028515Y-8947905D01*
X10028515Y-8871714D01*
X10038039Y-8852667D01*
X10057087Y-8843143D01*
X10095182Y-8843143D01*
X10114230Y-8852667D01*
X10123753Y-8871714D01*
X10123753Y-8890762D01*
X10028515Y-8909810D01*
X10199944Y-8966952D02*
X10218991Y-8976476D01*
X10257087Y-8976476D01*
X10276134Y-8966952D01*
X10285658Y-8947905D01*
X10285658Y-8938381D01*
X10276134Y-8919333D01*
X10257087Y-8909810D01*
X10228515Y-8909810D01*
X10209468Y-8900286D01*
X10199944Y-8881238D01*
X10199944Y-8871714D01*
X10209468Y-8852667D01*
X10228515Y-8843143D01*
X10257087Y-8843143D01*
X10276134Y-8852667D01*
X10352325Y-9052667D02*
X10361849Y-9043143D01*
X10380896Y-9014571D01*
X10390420Y-8995524D01*
X10399944Y-8966952D01*
X10409468Y-8919333D01*
X10409468Y-8881238D01*
X10399944Y-8833619D01*
X10390420Y-8805048D01*
X10380896Y-8786000D01*
X10361849Y-8757429D01*
X10352325Y-8747905D01*
D20*
X5430420Y-9075000D02*
X5580420Y-9225000D01*
X5580420Y-9075000D02*
X5430420Y-9225000D01*
X5505420Y-9225000D02*
X5580420Y-9150000D01*
X5505420Y-9075000D01*
X5430420Y-9150000D01*
X5505420Y-9225000D01*
D11*
X5942801Y-9240476D02*
X5828515Y-9240476D01*
X5885658Y-9240476D02*
X5885658Y-9040476D01*
X5866610Y-9069048D01*
X5847563Y-9088095D01*
X5828515Y-9097619D01*
X6028515Y-9221429D02*
X6038039Y-9230952D01*
X6028515Y-9240476D01*
X6018991Y-9230952D01*
X6028515Y-9221429D01*
X6028515Y-9240476D01*
X6218991Y-9040476D02*
X6123753Y-9040476D01*
X6114229Y-9135714D01*
X6123753Y-9126190D01*
X6142801Y-9116667D01*
X6190420Y-9116667D01*
X6209468Y-9126190D01*
X6218991Y-9135714D01*
X6228515Y-9154762D01*
X6228515Y-9202381D01*
X6218991Y-9221429D01*
X6209468Y-9230952D01*
X6190420Y-9240476D01*
X6142801Y-9240476D01*
X6123753Y-9230952D01*
X6114229Y-9221429D01*
X6352325Y-9040476D02*
X6371372Y-9040476D01*
X6390420Y-9050000D01*
X6399944Y-9059524D01*
X6409468Y-9078571D01*
X6418991Y-9116667D01*
X6418991Y-9164286D01*
X6409468Y-9202381D01*
X6399944Y-9221429D01*
X6390420Y-9230952D01*
X6371372Y-9240476D01*
X6352325Y-9240476D01*
X6333277Y-9230952D01*
X6323753Y-9221429D01*
X6314229Y-9202381D01*
X6304706Y-9164286D01*
X6304706Y-9116667D01*
X6314229Y-9078571D01*
X6323753Y-9059524D01*
X6333277Y-9050000D01*
X6352325Y-9040476D01*
X6542801Y-9040476D02*
X6561848Y-9040476D01*
X6580896Y-9050000D01*
X6590420Y-9059524D01*
X6599944Y-9078571D01*
X6609468Y-9116667D01*
X6609468Y-9164286D01*
X6599944Y-9202381D01*
X6590420Y-9221429D01*
X6580896Y-9230952D01*
X6561848Y-9240476D01*
X6542801Y-9240476D01*
X6523753Y-9230952D01*
X6514229Y-9221429D01*
X6504706Y-9202381D01*
X6495182Y-9164286D01*
X6495182Y-9116667D01*
X6504706Y-9078571D01*
X6514229Y-9059524D01*
X6523753Y-9050000D01*
X6542801Y-9040476D01*
X6695182Y-9240476D02*
X6695182Y-9107143D01*
X6695182Y-9126190D02*
X6704706Y-9116667D01*
X6723753Y-9107143D01*
X6752325Y-9107143D01*
X6771372Y-9116667D01*
X6780896Y-9135714D01*
X6780896Y-9240476D01*
X6780896Y-9135714D02*
X6790420Y-9116667D01*
X6809468Y-9107143D01*
X6838039Y-9107143D01*
X6857087Y-9116667D01*
X6866610Y-9135714D01*
X6866610Y-9240476D01*
X6961848Y-9240476D02*
X6961848Y-9107143D01*
X6961848Y-9126190D02*
X6971372Y-9116667D01*
X6990420Y-9107143D01*
X7018991Y-9107143D01*
X7038039Y-9116667D01*
X7047563Y-9135714D01*
X7047563Y-9240476D01*
X7047563Y-9135714D02*
X7057087Y-9116667D01*
X7076134Y-9107143D01*
X7104706Y-9107143D01*
X7123753Y-9116667D01*
X7133277Y-9135714D01*
X7133277Y-9240476D01*
X7523753Y-9030952D02*
X7352325Y-9288095D01*
X7780896Y-9040476D02*
X7799944Y-9040476D01*
X7818991Y-9050000D01*
X7828515Y-9059524D01*
X7838039Y-9078571D01*
X7847563Y-9116667D01*
X7847563Y-9164286D01*
X7838039Y-9202381D01*
X7828515Y-9221429D01*
X7818991Y-9230952D01*
X7799944Y-9240476D01*
X7780896Y-9240476D01*
X7761848Y-9230952D01*
X7752325Y-9221429D01*
X7742801Y-9202381D01*
X7733277Y-9164286D01*
X7733277Y-9116667D01*
X7742801Y-9078571D01*
X7752325Y-9059524D01*
X7761848Y-9050000D01*
X7780896Y-9040476D01*
X7933277Y-9221429D02*
X7942801Y-9230952D01*
X7933277Y-9240476D01*
X7923753Y-9230952D01*
X7933277Y-9221429D01*
X7933277Y-9240476D01*
X8066610Y-9040476D02*
X8085658Y-9040476D01*
X8104706Y-9050000D01*
X8114229Y-9059524D01*
X8123753Y-9078571D01*
X8133277Y-9116667D01*
X8133277Y-9164286D01*
X8123753Y-9202381D01*
X8114229Y-9221429D01*
X8104706Y-9230952D01*
X8085658Y-9240476D01*
X8066610Y-9240476D01*
X8047563Y-9230952D01*
X8038039Y-9221429D01*
X8028515Y-9202381D01*
X8018991Y-9164286D01*
X8018991Y-9116667D01*
X8028515Y-9078571D01*
X8038039Y-9059524D01*
X8047563Y-9050000D01*
X8066610Y-9040476D01*
X8314229Y-9040476D02*
X8218991Y-9040476D01*
X8209468Y-9135714D01*
X8218991Y-9126190D01*
X8238039Y-9116667D01*
X8285658Y-9116667D01*
X8304706Y-9126190D01*
X8314229Y-9135714D01*
X8323753Y-9154762D01*
X8323753Y-9202381D01*
X8314229Y-9221429D01*
X8304706Y-9230952D01*
X8285658Y-9240476D01*
X8238039Y-9240476D01*
X8218991Y-9230952D01*
X8209468Y-9221429D01*
X8418991Y-9240476D02*
X8457087Y-9240476D01*
X8476134Y-9230952D01*
X8485658Y-9221429D01*
X8504706Y-9192857D01*
X8514230Y-9154762D01*
X8514230Y-9078571D01*
X8504706Y-9059524D01*
X8495182Y-9050000D01*
X8476134Y-9040476D01*
X8438039Y-9040476D01*
X8418991Y-9050000D01*
X8409468Y-9059524D01*
X8399944Y-9078571D01*
X8399944Y-9126190D01*
X8409468Y-9145238D01*
X8418991Y-9154762D01*
X8438039Y-9164286D01*
X8476134Y-9164286D01*
X8495182Y-9154762D01*
X8504706Y-9145238D01*
X8514230Y-9126190D01*
X8704706Y-9240476D02*
X8590420Y-9240476D01*
X8647563Y-9240476D02*
X8647563Y-9040476D01*
X8628515Y-9069048D01*
X8609468Y-9088095D01*
X8590420Y-9097619D01*
X8780896Y-9040476D02*
X8780896Y-9078571D01*
X8857087Y-9040476D02*
X8857087Y-9078571D01*
X9152325Y-9316667D02*
X9142801Y-9307143D01*
X9123753Y-9278571D01*
X9114230Y-9259524D01*
X9104706Y-9230952D01*
X9095182Y-9183333D01*
X9095182Y-9145238D01*
X9104706Y-9097619D01*
X9114230Y-9069048D01*
X9123753Y-9050000D01*
X9142801Y-9021429D01*
X9152325Y-9011905D01*
X9218991Y-9059524D02*
X9228515Y-9050000D01*
X9247563Y-9040476D01*
X9295182Y-9040476D01*
X9314230Y-9050000D01*
X9323753Y-9059524D01*
X9333277Y-9078571D01*
X9333277Y-9097619D01*
X9323753Y-9126190D01*
X9209468Y-9240476D01*
X9333277Y-9240476D01*
X9571372Y-9240476D02*
X9571372Y-9040476D01*
X9657087Y-9240476D02*
X9657087Y-9135714D01*
X9647563Y-9116667D01*
X9628515Y-9107143D01*
X9599944Y-9107143D01*
X9580896Y-9116667D01*
X9571372Y-9126190D01*
X9780896Y-9240476D02*
X9761849Y-9230952D01*
X9752325Y-9221429D01*
X9742801Y-9202381D01*
X9742801Y-9145238D01*
X9752325Y-9126190D01*
X9761849Y-9116667D01*
X9780896Y-9107143D01*
X9809468Y-9107143D01*
X9828515Y-9116667D01*
X9838039Y-9126190D01*
X9847563Y-9145238D01*
X9847563Y-9202381D01*
X9838039Y-9221429D01*
X9828515Y-9230952D01*
X9809468Y-9240476D01*
X9780896Y-9240476D01*
X9961849Y-9240476D02*
X9942801Y-9230952D01*
X9933277Y-9211905D01*
X9933277Y-9040476D01*
X10114230Y-9230952D02*
X10095182Y-9240476D01*
X10057087Y-9240476D01*
X10038039Y-9230952D01*
X10028515Y-9211905D01*
X10028515Y-9135714D01*
X10038039Y-9116667D01*
X10057087Y-9107143D01*
X10095182Y-9107143D01*
X10114230Y-9116667D01*
X10123753Y-9135714D01*
X10123753Y-9154762D01*
X10028515Y-9173810D01*
X10199944Y-9230952D02*
X10218991Y-9240476D01*
X10257087Y-9240476D01*
X10276134Y-9230952D01*
X10285658Y-9211905D01*
X10285658Y-9202381D01*
X10276134Y-9183333D01*
X10257087Y-9173810D01*
X10228515Y-9173810D01*
X10209468Y-9164286D01*
X10199944Y-9145238D01*
X10199944Y-9135714D01*
X10209468Y-9116667D01*
X10228515Y-9107143D01*
X10257087Y-9107143D01*
X10276134Y-9116667D01*
X10352325Y-9316667D02*
X10361849Y-9307143D01*
X10380896Y-9278571D01*
X10390420Y-9259524D01*
X10399944Y-9230952D01*
X10409468Y-9183333D01*
X10409468Y-9145238D01*
X10399944Y-9097619D01*
X10390420Y-9069048D01*
X10380896Y-9050000D01*
X10361849Y-9021429D01*
X10352325Y-9011905D01*
M02*
