M48
; DRILL file {KiCad (6.0.2)} date Tue Mar 15 02:50:07 2022
; FORMAT={-:-/ absolute / metric / decimal}
; #@! TF.CreationDate,2022-03-15T02:50:07-04:00
; #@! TF.GenerationSoftware,Kicad,Pcbnew,(6.0.2)
; #@! TF.FileFunction,Plated,1,2,PTH
FMAT,2
METRIC
; #@! TA.AperFunction,Plated,PTH,ViaDrill
T1C0.200
; #@! TA.AperFunction,Plated,PTH,ViaDrill
T2C0.300
; #@! TA.AperFunction,Plated,PTH,ViaDrill
T3C0.400
; #@! TA.AperFunction,Plated,PTH,ComponentDrill
T4C0.600
; #@! TA.AperFunction,Plated,PTH,ComponentDrill
T5C0.750
; #@! TA.AperFunction,Plated,PTH,ComponentDrill
T6C0.889
; #@! TA.AperFunction,Plated,PTH,ComponentDrill
T7C0.900
; #@! TA.AperFunction,Plated,PTH,ComponentDrill
T8C1.000
; #@! TA.AperFunction,Plated,PTH,ComponentDrill
T9C1.500
%
G90
G05
T1
X56.896Y-51.943
X57.023Y-32.258
X57.023Y-40.767
X57.531Y-54.102
X57.531Y-57.531
X59.182Y-53.213
X59.309Y-41.529
X60.452Y-40.132
X60.579Y-37.084
X60.706Y-33.02
X60.833Y-42.037
X61.595Y-61.722
X61.849Y-46.736
X61.849Y-49.276
X62.23Y-34.29
X62.23Y-44.196
X63.5Y-31.877
X63.754Y-50.292
X63.881Y-35.941
X63.881Y-47.879
X65.969Y-35.02
X66.04Y-56.261
X66.167Y-38.481
X66.294Y-32.258
X66.675Y-30.607
X67.31Y-53.086
X67.31Y-55.753
X68.326Y-53.086
X68.453Y-50.546
X69.342Y-40.767
X69.342Y-43.053
X69.85Y-62.865
X70.358Y-40.894
X71.882Y-52.451
X72.39Y-59.69
X73.025Y-44.831
X73.025Y-46.99
X73.279Y-54.991
X73.533Y-62.865
X74.549Y-51.816
X77.089Y-56.896
X77.343Y-62.865
X77.851Y-46.99
X77.851Y-60.071
X78.105Y-41.529
X79.756Y-49.276
X81.407Y-41.91
X81.661Y-36.449
X81.661Y-44.958
X81.788Y-32.258
X82.042Y-48.514
X83.693Y-44.323
X84.074Y-57.277
X85.09Y-44.323
X85.344Y-31.877
X85.344Y-47.498
X85.979Y-63.119
X86.995Y-33.401
X87.376Y-53.467
X87.503Y-51.943
X87.757Y-61.341
X92.329Y-35.052
X92.456Y-51.816
X92.456Y-55.372
X92.71Y-37.592
X92.837Y-40.259
X93.472Y-48.26
X93.98Y-32.639
X94.234Y-40.386
X94.361Y-35.814
X94.361Y-38.735
X96.012Y-55.372
X96.012Y-60.96
X96.139Y-33.02
X96.139Y-37.846
T2
X88.56Y-36.208
T3
X59.944Y-33.655
X59.944Y-54.356
X60.198Y-60.147
X60.96Y-56.896
X61.214Y-52.578
X62.357Y-36.703
X62.738Y-40.386
X63.246Y-55.372
X64.262Y-56.785
X64.262Y-59.944
X65.786Y-59.944
X66.04Y-45.72
X66.802Y-40.132
X66.929Y-45.085
X67.691Y-49.403
X67.755Y-47.752
X68.682Y-47.752
X68.834Y-55.499
X69.195Y-41.91
X69.215Y-39.624
X69.485Y-36.814
X69.723Y-43.942
X69.723Y-56.642
X69.85Y-53.782
X70.866Y-37.211
X70.866Y-44.298
X70.993Y-54.166
X70.993Y-55.753
X71.041Y-45.568
X71.121Y-38.102
X72.136Y-49.543
X72.364Y-51.08
X73.169Y-39.983
X73.169Y-41.971
X73.819Y-49.688
X73.914Y-47.625
X74.422Y-44.45
X74.532Y-53.213
X75.14Y-39.983
X75.19Y-42.021
X75.819Y-44.958
X75.895Y-51.359
X76.22Y-48.969
X76.73Y-45.212
X77.978Y-44.069
X78.232Y-56.388
X78.74Y-48.768
X78.74Y-51.308
X78.994Y-37.084
X79.695Y-45.731
X79.756Y-43.332
X79.781Y-44.272
X80.01Y-48.26
X80.772Y-47.498
X80.772Y-59.182
X81.026Y-51.054
X81.28Y-53.086
X81.89Y-40.945
X82.042Y-56.642
X83.058Y-45.72
X83.312Y-54.102
X83.566Y-62.992
X84.328Y-48.006
X84.328Y-51.816
X84.533Y-54.151
X85.09Y-62.992
X85.598Y-41.783
X85.888Y-50.761
X86.614Y-36.068
X87.63Y-43.434
X87.849Y-32.673
X88.646Y-44.958
X88.797Y-59.403
X88.88Y-43.16
X88.9Y-40.386
X89.019Y-32.79
X89.154Y-30.734
X89.408Y-34.239
X89.408Y-35.255
X89.742Y-59.426
X90.475Y-47.6
X90.576Y-45.517
X90.591Y-38.537
X90.678Y-61.214
X90.932Y-55.372
X91.948Y-41.656
X94.742Y-41.656
T5
X69.406Y-58.367
X71.406Y-58.367
X73.406Y-58.367
X75.406Y-58.367
X77.406Y-58.367
X88.951Y-47.276
X88.951Y-49.276
T6
X65.038Y-31.707
X65.038Y-34.12
X65.038Y-36.787
X65.038Y-39.327
X65.038Y-41.867
X65.038Y-44.407
X65.038Y-46.947
X65.038Y-49.487
X65.038Y-52.027
X65.038Y-54.567
T7
X94.266Y-56.113
X94.266Y-58.113
X94.266Y-60.113
T8
X57.785Y-34.417
X57.785Y-36.957
X57.785Y-39.497
X57.785Y-42.037
X57.785Y-44.577
X57.785Y-47.117
X57.785Y-49.657
T9
X94.266Y-54.013
X94.266Y-62.213
T4
X90.833Y-30.933G85X91.933Y-30.933
G05
X90.833Y-39.573G85X91.933Y-39.573
G05
X95.263Y-30.933G85X95.863Y-30.933
G05
X95.263Y-39.573G85X95.863Y-39.573
G05
T0
M30
