%TF.GenerationSoftware,KiCad,Pcbnew,(6.0.2)*%
%TF.CreationDate,2022-03-07T06:31:50-05:00*%
%TF.ProjectId,ferrous_slime,66657272-6f75-4735-9f73-6c696d652e6b,rev?*%
%TF.SameCoordinates,Original*%
%TF.FileFunction,AssemblyDrawing,Top*%
%FSLAX46Y46*%
G04 Gerber Fmt 4.6, Leading zero omitted, Abs format (unit mm)*
G04 Created by KiCad (PCBNEW (6.0.2)) date 2022-03-07 06:31:50*
%MOMM*%
%LPD*%
G01*
G04 APERTURE LIST*
%ADD10C,0.150000*%
%ADD11C,0.050800*%
%ADD12C,0.060000*%
%ADD13C,0.076200*%
%ADD14C,0.050000*%
%ADD15C,0.200000*%
%ADD16C,0.100000*%
%ADD17C,0.152000*%
%ADD18C,0.120000*%
G04 APERTURE END LIST*
D10*
%TO.C,J1*%
X68167912Y-66269380D02*
X68167912Y-65269380D01*
X68644103Y-66269380D02*
X68644103Y-65269380D01*
X68977436Y-65983666D01*
X69310769Y-65269380D01*
X69310769Y-66269380D01*
X69786960Y-65269380D02*
X69786960Y-66078904D01*
X69834579Y-66174142D01*
X69882198Y-66221761D01*
X69977436Y-66269380D01*
X70167912Y-66269380D01*
X70263150Y-66221761D01*
X70310769Y-66174142D01*
X70358388Y-66078904D01*
X70358388Y-65269380D01*
X70596484Y-66364619D02*
X71358388Y-66364619D01*
X72167912Y-66174142D02*
X72120293Y-66221761D01*
X71977436Y-66269380D01*
X71882198Y-66269380D01*
X71739341Y-66221761D01*
X71644103Y-66126523D01*
X71596484Y-66031285D01*
X71548865Y-65840809D01*
X71548865Y-65697952D01*
X71596484Y-65507476D01*
X71644103Y-65412238D01*
X71739341Y-65317000D01*
X71882198Y-65269380D01*
X71977436Y-65269380D01*
X72120293Y-65317000D01*
X72167912Y-65364619D01*
X72739341Y-66269380D02*
X72644103Y-66221761D01*
X72596484Y-66174142D01*
X72548865Y-66078904D01*
X72548865Y-65793190D01*
X72596484Y-65697952D01*
X72644103Y-65650333D01*
X72739341Y-65602714D01*
X72882198Y-65602714D01*
X72977436Y-65650333D01*
X73025055Y-65697952D01*
X73072674Y-65793190D01*
X73072674Y-66078904D01*
X73025055Y-66174142D01*
X72977436Y-66221761D01*
X72882198Y-66269380D01*
X72739341Y-66269380D01*
X73501246Y-65602714D02*
X73501246Y-66269380D01*
X73501246Y-65697952D02*
X73548865Y-65650333D01*
X73644103Y-65602714D01*
X73786960Y-65602714D01*
X73882198Y-65650333D01*
X73929817Y-65745571D01*
X73929817Y-66269380D01*
X74406008Y-65602714D02*
X74406008Y-66269380D01*
X74406008Y-65697952D02*
X74453627Y-65650333D01*
X74548865Y-65602714D01*
X74691722Y-65602714D01*
X74786960Y-65650333D01*
X74834579Y-65745571D01*
X74834579Y-66269380D01*
X75691722Y-66221761D02*
X75596484Y-66269380D01*
X75406008Y-66269380D01*
X75310769Y-66221761D01*
X75263150Y-66126523D01*
X75263150Y-65745571D01*
X75310769Y-65650333D01*
X75406008Y-65602714D01*
X75596484Y-65602714D01*
X75691722Y-65650333D01*
X75739341Y-65745571D01*
X75739341Y-65840809D01*
X75263150Y-65936047D01*
X76596484Y-66221761D02*
X76501246Y-66269380D01*
X76310769Y-66269380D01*
X76215531Y-66221761D01*
X76167912Y-66174142D01*
X76120293Y-66078904D01*
X76120293Y-65793190D01*
X76167912Y-65697952D01*
X76215531Y-65650333D01*
X76310769Y-65602714D01*
X76501246Y-65602714D01*
X76596484Y-65650333D01*
X76882198Y-65602714D02*
X77263150Y-65602714D01*
X77025055Y-65269380D02*
X77025055Y-66126523D01*
X77072674Y-66221761D01*
X77167912Y-66269380D01*
X77263150Y-66269380D01*
X77739341Y-66269380D02*
X77644103Y-66221761D01*
X77596484Y-66174142D01*
X77548865Y-66078904D01*
X77548865Y-65793190D01*
X77596484Y-65697952D01*
X77644103Y-65650333D01*
X77739341Y-65602714D01*
X77882198Y-65602714D01*
X77977436Y-65650333D01*
X78025055Y-65697952D01*
X78072674Y-65793190D01*
X78072674Y-66078904D01*
X78025055Y-66174142D01*
X77977436Y-66221761D01*
X77882198Y-66269380D01*
X77739341Y-66269380D01*
X78501246Y-66269380D02*
X78501246Y-65602714D01*
X78501246Y-65793190D02*
X78548865Y-65697952D01*
X78596484Y-65650333D01*
X78691722Y-65602714D01*
X78786960Y-65602714D01*
D11*
%TO.C,R8*%
X89764809Y-52639904D02*
X89619666Y-52639904D01*
X89692238Y-52639904D02*
X89692238Y-52385904D01*
X89668047Y-52422190D01*
X89643857Y-52446380D01*
X89619666Y-52458476D01*
X89861571Y-52410095D02*
X89873666Y-52398000D01*
X89897857Y-52385904D01*
X89958333Y-52385904D01*
X89982523Y-52398000D01*
X89994619Y-52410095D01*
X90006714Y-52434285D01*
X90006714Y-52458476D01*
X89994619Y-52494761D01*
X89849476Y-52639904D01*
X90006714Y-52639904D01*
X90163952Y-52385904D02*
X90188142Y-52385904D01*
X90212333Y-52398000D01*
X90224428Y-52410095D01*
X90236523Y-52434285D01*
X90248619Y-52482666D01*
X90248619Y-52543142D01*
X90236523Y-52591523D01*
X90224428Y-52615714D01*
X90212333Y-52627809D01*
X90188142Y-52639904D01*
X90163952Y-52639904D01*
X90139761Y-52627809D01*
X90127666Y-52615714D01*
X90115571Y-52591523D01*
X90103476Y-52543142D01*
X90103476Y-52482666D01*
X90115571Y-52434285D01*
X90127666Y-52410095D01*
X90139761Y-52398000D01*
X90163952Y-52385904D01*
X90357476Y-52639904D02*
X90357476Y-52385904D01*
X90502619Y-52639904D02*
X90393761Y-52494761D01*
X90502619Y-52385904D02*
X90357476Y-52531047D01*
X90938047Y-52639904D02*
X90792904Y-52639904D01*
X90865476Y-52639904D02*
X90865476Y-52385904D01*
X90841285Y-52422190D01*
X90817095Y-52446380D01*
X90792904Y-52458476D01*
X91034809Y-52639904D02*
X91228333Y-52385904D01*
X91071095Y-52385904D02*
X91095285Y-52398000D01*
X91107380Y-52422190D01*
X91095285Y-52446380D01*
X91071095Y-52458476D01*
X91046904Y-52446380D01*
X91034809Y-52422190D01*
X91046904Y-52398000D01*
X91071095Y-52385904D01*
X91216238Y-52627809D02*
X91228333Y-52603619D01*
X91216238Y-52579428D01*
X91192047Y-52567333D01*
X91167857Y-52579428D01*
X91155761Y-52603619D01*
X91167857Y-52627809D01*
X91192047Y-52639904D01*
X91216238Y-52627809D01*
D12*
X89849333Y-53721952D02*
X89716000Y-53531476D01*
X89620761Y-53721952D02*
X89620761Y-53321952D01*
X89773142Y-53321952D01*
X89811238Y-53341000D01*
X89830285Y-53360047D01*
X89849333Y-53398142D01*
X89849333Y-53455285D01*
X89830285Y-53493380D01*
X89811238Y-53512428D01*
X89773142Y-53531476D01*
X89620761Y-53531476D01*
X90077904Y-53493380D02*
X90039809Y-53474333D01*
X90020761Y-53455285D01*
X90001714Y-53417190D01*
X90001714Y-53398142D01*
X90020761Y-53360047D01*
X90039809Y-53341000D01*
X90077904Y-53321952D01*
X90154095Y-53321952D01*
X90192190Y-53341000D01*
X90211238Y-53360047D01*
X90230285Y-53398142D01*
X90230285Y-53417190D01*
X90211238Y-53455285D01*
X90192190Y-53474333D01*
X90154095Y-53493380D01*
X90077904Y-53493380D01*
X90039809Y-53512428D01*
X90020761Y-53531476D01*
X90001714Y-53569571D01*
X90001714Y-53645761D01*
X90020761Y-53683857D01*
X90039809Y-53702904D01*
X90077904Y-53721952D01*
X90154095Y-53721952D01*
X90192190Y-53702904D01*
X90211238Y-53683857D01*
X90230285Y-53645761D01*
X90230285Y-53569571D01*
X90211238Y-53531476D01*
X90192190Y-53512428D01*
X90154095Y-53493380D01*
D10*
%TO.C,C11*%
X82923238Y-61294714D02*
X82923238Y-61961380D01*
X82685142Y-60913761D02*
X82447047Y-61628047D01*
X83066095Y-61628047D01*
X83447047Y-61866142D02*
X83494666Y-61913761D01*
X83447047Y-61961380D01*
X83399428Y-61913761D01*
X83447047Y-61866142D01*
X83447047Y-61961380D01*
X83828000Y-60961380D02*
X84494666Y-60961380D01*
X84066095Y-61961380D01*
X85304190Y-61294714D02*
X85304190Y-61961380D01*
X84875619Y-61294714D02*
X84875619Y-61818523D01*
X84923238Y-61913761D01*
X85018476Y-61961380D01*
X85161333Y-61961380D01*
X85256571Y-61913761D01*
X85304190Y-61866142D01*
X86113714Y-61437571D02*
X85780380Y-61437571D01*
X85780380Y-61961380D02*
X85780380Y-60961380D01*
X86256571Y-60961380D01*
D12*
X84070857Y-63081857D02*
X84051809Y-63100904D01*
X83994666Y-63119952D01*
X83956571Y-63119952D01*
X83899428Y-63100904D01*
X83861333Y-63062809D01*
X83842285Y-63024714D01*
X83823238Y-62948523D01*
X83823238Y-62891380D01*
X83842285Y-62815190D01*
X83861333Y-62777095D01*
X83899428Y-62739000D01*
X83956571Y-62719952D01*
X83994666Y-62719952D01*
X84051809Y-62739000D01*
X84070857Y-62758047D01*
X84451809Y-63119952D02*
X84223238Y-63119952D01*
X84337523Y-63119952D02*
X84337523Y-62719952D01*
X84299428Y-62777095D01*
X84261333Y-62815190D01*
X84223238Y-62834238D01*
X84832761Y-63119952D02*
X84604190Y-63119952D01*
X84718476Y-63119952D02*
X84718476Y-62719952D01*
X84680380Y-62777095D01*
X84642285Y-62815190D01*
X84604190Y-62834238D01*
D10*
%TO.C,R3*%
X76184285Y-56332380D02*
X76184285Y-55332380D01*
X76422380Y-55332380D01*
X76565238Y-55380000D01*
X76660476Y-55475238D01*
X76708095Y-55570476D01*
X76755714Y-55760952D01*
X76755714Y-55903809D01*
X76708095Y-56094285D01*
X76660476Y-56189523D01*
X76565238Y-56284761D01*
X76422380Y-56332380D01*
X76184285Y-56332380D01*
X77184285Y-56332380D02*
X77184285Y-55332380D01*
X77755714Y-56332380D01*
X77755714Y-55332380D01*
X78231904Y-56332380D02*
X78231904Y-55332380D01*
X78612857Y-55332380D01*
X78708095Y-55380000D01*
X78755714Y-55427619D01*
X78803333Y-55522857D01*
X78803333Y-55665714D01*
X78755714Y-55760952D01*
X78708095Y-55808571D01*
X78612857Y-55856190D01*
X78231904Y-55856190D01*
D11*
%TO.C,C3*%
X72298380Y-53293904D02*
X72153238Y-53293904D01*
X72225809Y-53293904D02*
X72225809Y-53039904D01*
X72201619Y-53076190D01*
X72177428Y-53100380D01*
X72153238Y-53112476D01*
X72455619Y-53039904D02*
X72479809Y-53039904D01*
X72504000Y-53052000D01*
X72516095Y-53064095D01*
X72528190Y-53088285D01*
X72540285Y-53136666D01*
X72540285Y-53197142D01*
X72528190Y-53245523D01*
X72516095Y-53269714D01*
X72504000Y-53281809D01*
X72479809Y-53293904D01*
X72455619Y-53293904D01*
X72431428Y-53281809D01*
X72419333Y-53269714D01*
X72407238Y-53245523D01*
X72395142Y-53197142D01*
X72395142Y-53136666D01*
X72407238Y-53088285D01*
X72419333Y-53064095D01*
X72431428Y-53052000D01*
X72455619Y-53039904D01*
X72697523Y-53039904D02*
X72721714Y-53039904D01*
X72745904Y-53052000D01*
X72758000Y-53064095D01*
X72770095Y-53088285D01*
X72782190Y-53136666D01*
X72782190Y-53197142D01*
X72770095Y-53245523D01*
X72758000Y-53269714D01*
X72745904Y-53281809D01*
X72721714Y-53293904D01*
X72697523Y-53293904D01*
X72673333Y-53281809D01*
X72661238Y-53269714D01*
X72649142Y-53245523D01*
X72637047Y-53197142D01*
X72637047Y-53136666D01*
X72649142Y-53088285D01*
X72661238Y-53064095D01*
X72673333Y-53052000D01*
X72697523Y-53039904D01*
X72891047Y-53124571D02*
X72891047Y-53293904D01*
X72891047Y-53148761D02*
X72903142Y-53136666D01*
X72927333Y-53124571D01*
X72963619Y-53124571D01*
X72987809Y-53136666D01*
X72999904Y-53160857D01*
X72999904Y-53293904D01*
X73205523Y-53160857D02*
X73120857Y-53160857D01*
X73120857Y-53293904D02*
X73120857Y-53039904D01*
X73241809Y-53039904D01*
X73665142Y-53293904D02*
X73520000Y-53293904D01*
X73592571Y-53293904D02*
X73592571Y-53039904D01*
X73568380Y-53076190D01*
X73544190Y-53100380D01*
X73520000Y-53112476D01*
X73822380Y-53039904D02*
X73846571Y-53039904D01*
X73870761Y-53052000D01*
X73882857Y-53064095D01*
X73894952Y-53088285D01*
X73907047Y-53136666D01*
X73907047Y-53197142D01*
X73894952Y-53245523D01*
X73882857Y-53269714D01*
X73870761Y-53281809D01*
X73846571Y-53293904D01*
X73822380Y-53293904D01*
X73798190Y-53281809D01*
X73786095Y-53269714D01*
X73774000Y-53245523D01*
X73761904Y-53197142D01*
X73761904Y-53136666D01*
X73774000Y-53088285D01*
X73786095Y-53064095D01*
X73798190Y-53052000D01*
X73822380Y-53039904D01*
X73979619Y-53039904D02*
X74064285Y-53293904D01*
X74148952Y-53039904D01*
D12*
X73072333Y-52921857D02*
X73053285Y-52940904D01*
X72996142Y-52959952D01*
X72958047Y-52959952D01*
X72900904Y-52940904D01*
X72862809Y-52902809D01*
X72843761Y-52864714D01*
X72824714Y-52788523D01*
X72824714Y-52731380D01*
X72843761Y-52655190D01*
X72862809Y-52617095D01*
X72900904Y-52579000D01*
X72958047Y-52559952D01*
X72996142Y-52559952D01*
X73053285Y-52579000D01*
X73072333Y-52598047D01*
X73205666Y-52559952D02*
X73453285Y-52559952D01*
X73319952Y-52712333D01*
X73377095Y-52712333D01*
X73415190Y-52731380D01*
X73434238Y-52750428D01*
X73453285Y-52788523D01*
X73453285Y-52883761D01*
X73434238Y-52921857D01*
X73415190Y-52940904D01*
X73377095Y-52959952D01*
X73262809Y-52959952D01*
X73224714Y-52940904D01*
X73205666Y-52921857D01*
D10*
%TO.C,TP3*%
X85352095Y-63915380D02*
X85923523Y-63915380D01*
X85637809Y-64915380D02*
X85637809Y-63915380D01*
X86256857Y-64915380D02*
X86256857Y-63915380D01*
X86637809Y-63915380D01*
X86733047Y-63963000D01*
X86780666Y-64010619D01*
X86828285Y-64105857D01*
X86828285Y-64248714D01*
X86780666Y-64343952D01*
X86733047Y-64391571D01*
X86637809Y-64439190D01*
X86256857Y-64439190D01*
X87161619Y-63915380D02*
X87780666Y-63915380D01*
X87447333Y-64296333D01*
X87590190Y-64296333D01*
X87685428Y-64343952D01*
X87733047Y-64391571D01*
X87780666Y-64486809D01*
X87780666Y-64724904D01*
X87733047Y-64820142D01*
X87685428Y-64867761D01*
X87590190Y-64915380D01*
X87304476Y-64915380D01*
X87209238Y-64867761D01*
X87161619Y-64820142D01*
%TO.C,R5*%
X81986380Y-33689285D02*
X81986380Y-34260714D01*
X81986380Y-33975000D02*
X80986380Y-33975000D01*
X81129238Y-34070238D01*
X81224476Y-34165476D01*
X81272095Y-34260714D01*
X81986380Y-33260714D02*
X80986380Y-33260714D01*
X81986380Y-32689285D02*
X81414952Y-33117857D01*
X80986380Y-32689285D02*
X81557809Y-33260714D01*
D12*
X83078952Y-33541666D02*
X82888476Y-33675000D01*
X83078952Y-33770238D02*
X82678952Y-33770238D01*
X82678952Y-33617857D01*
X82698000Y-33579761D01*
X82717047Y-33560714D01*
X82755142Y-33541666D01*
X82812285Y-33541666D01*
X82850380Y-33560714D01*
X82869428Y-33579761D01*
X82888476Y-33617857D01*
X82888476Y-33770238D01*
X82678952Y-33179761D02*
X82678952Y-33370238D01*
X82869428Y-33389285D01*
X82850380Y-33370238D01*
X82831333Y-33332142D01*
X82831333Y-33236904D01*
X82850380Y-33198809D01*
X82869428Y-33179761D01*
X82907523Y-33160714D01*
X83002761Y-33160714D01*
X83040857Y-33179761D01*
X83059904Y-33198809D01*
X83078952Y-33236904D01*
X83078952Y-33332142D01*
X83059904Y-33370238D01*
X83040857Y-33389285D01*
D13*
%TO.C,D5*%
X81763809Y-45224095D02*
X81255809Y-45224095D01*
X81255809Y-45030571D01*
X81280000Y-44982190D01*
X81304190Y-44958000D01*
X81352571Y-44933809D01*
X81425142Y-44933809D01*
X81473523Y-44958000D01*
X81497714Y-44982190D01*
X81521904Y-45030571D01*
X81521904Y-45224095D01*
X81763809Y-44425809D02*
X81521904Y-44595142D01*
X81763809Y-44716095D02*
X81255809Y-44716095D01*
X81255809Y-44522571D01*
X81280000Y-44474190D01*
X81304190Y-44450000D01*
X81352571Y-44425809D01*
X81425142Y-44425809D01*
X81473523Y-44450000D01*
X81497714Y-44474190D01*
X81521904Y-44522571D01*
X81521904Y-44716095D01*
X81255809Y-44111333D02*
X81255809Y-44014571D01*
X81280000Y-43966190D01*
X81328380Y-43917809D01*
X81425142Y-43893619D01*
X81594476Y-43893619D01*
X81691238Y-43917809D01*
X81739619Y-43966190D01*
X81763809Y-44014571D01*
X81763809Y-44111333D01*
X81739619Y-44159714D01*
X81691238Y-44208095D01*
X81594476Y-44232285D01*
X81425142Y-44232285D01*
X81328380Y-44208095D01*
X81280000Y-44159714D01*
X81255809Y-44111333D01*
X81280000Y-43409809D02*
X81255809Y-43458190D01*
X81255809Y-43530761D01*
X81280000Y-43603333D01*
X81328380Y-43651714D01*
X81376761Y-43675904D01*
X81473523Y-43700095D01*
X81546095Y-43700095D01*
X81642857Y-43675904D01*
X81691238Y-43651714D01*
X81739619Y-43603333D01*
X81763809Y-43530761D01*
X81763809Y-43482380D01*
X81739619Y-43409809D01*
X81715428Y-43385619D01*
X81546095Y-43385619D01*
X81546095Y-43482380D01*
X81812190Y-43288857D02*
X81812190Y-42901809D01*
X81763809Y-42538952D02*
X81763809Y-42780857D01*
X81255809Y-42780857D01*
X81497714Y-42369619D02*
X81497714Y-42200285D01*
X81763809Y-42127714D02*
X81763809Y-42369619D01*
X81255809Y-42369619D01*
X81255809Y-42127714D01*
X81763809Y-41910000D02*
X81255809Y-41910000D01*
X81255809Y-41789047D01*
X81280000Y-41716476D01*
X81328380Y-41668095D01*
X81376761Y-41643904D01*
X81473523Y-41619714D01*
X81546095Y-41619714D01*
X81642857Y-41643904D01*
X81691238Y-41668095D01*
X81739619Y-41716476D01*
X81763809Y-41789047D01*
X81763809Y-41910000D01*
D12*
X83270761Y-43561952D02*
X83270761Y-43161952D01*
X83366000Y-43161952D01*
X83423142Y-43181000D01*
X83461238Y-43219095D01*
X83480285Y-43257190D01*
X83499333Y-43333380D01*
X83499333Y-43390523D01*
X83480285Y-43466714D01*
X83461238Y-43504809D01*
X83423142Y-43542904D01*
X83366000Y-43561952D01*
X83270761Y-43561952D01*
X83861238Y-43161952D02*
X83670761Y-43161952D01*
X83651714Y-43352428D01*
X83670761Y-43333380D01*
X83708857Y-43314333D01*
X83804095Y-43314333D01*
X83842190Y-43333380D01*
X83861238Y-43352428D01*
X83880285Y-43390523D01*
X83880285Y-43485761D01*
X83861238Y-43523857D01*
X83842190Y-43542904D01*
X83804095Y-43561952D01*
X83708857Y-43561952D01*
X83670761Y-43542904D01*
X83651714Y-43523857D01*
D10*
%TO.C,TP1*%
X80272095Y-60740380D02*
X80843523Y-60740380D01*
X80557809Y-61740380D02*
X80557809Y-60740380D01*
X81176857Y-61740380D02*
X81176857Y-60740380D01*
X81557809Y-60740380D01*
X81653047Y-60788000D01*
X81700666Y-60835619D01*
X81748285Y-60930857D01*
X81748285Y-61073714D01*
X81700666Y-61168952D01*
X81653047Y-61216571D01*
X81557809Y-61264190D01*
X81176857Y-61264190D01*
X82700666Y-61740380D02*
X82129238Y-61740380D01*
X82414952Y-61740380D02*
X82414952Y-60740380D01*
X82319714Y-60883238D01*
X82224476Y-60978476D01*
X82129238Y-61026095D01*
D12*
%TO.C,D3*%
X83685761Y-31115952D02*
X83685761Y-30715952D01*
X83781000Y-30715952D01*
X83838142Y-30735000D01*
X83876238Y-30773095D01*
X83895285Y-30811190D01*
X83914333Y-30887380D01*
X83914333Y-30944523D01*
X83895285Y-31020714D01*
X83876238Y-31058809D01*
X83838142Y-31096904D01*
X83781000Y-31115952D01*
X83685761Y-31115952D01*
X84047666Y-30715952D02*
X84295285Y-30715952D01*
X84161952Y-30868333D01*
X84219095Y-30868333D01*
X84257190Y-30887380D01*
X84276238Y-30906428D01*
X84295285Y-30944523D01*
X84295285Y-31039761D01*
X84276238Y-31077857D01*
X84257190Y-31096904D01*
X84219095Y-31115952D01*
X84104809Y-31115952D01*
X84066714Y-31096904D01*
X84047666Y-31077857D01*
D11*
%TO.C,R7*%
X81358619Y-48205571D02*
X81358619Y-48374904D01*
X81298142Y-48108809D02*
X81237666Y-48290238D01*
X81394904Y-48290238D01*
X81467476Y-48120904D02*
X81636809Y-48120904D01*
X81527952Y-48374904D01*
X81781952Y-48120904D02*
X81806142Y-48120904D01*
X81830333Y-48133000D01*
X81842428Y-48145095D01*
X81854523Y-48169285D01*
X81866619Y-48217666D01*
X81866619Y-48278142D01*
X81854523Y-48326523D01*
X81842428Y-48350714D01*
X81830333Y-48362809D01*
X81806142Y-48374904D01*
X81781952Y-48374904D01*
X81757761Y-48362809D01*
X81745666Y-48350714D01*
X81733571Y-48326523D01*
X81721476Y-48278142D01*
X81721476Y-48217666D01*
X81733571Y-48169285D01*
X81745666Y-48145095D01*
X81757761Y-48133000D01*
X81781952Y-48120904D01*
X82120619Y-48374904D02*
X82035952Y-48253952D01*
X81975476Y-48374904D02*
X81975476Y-48120904D01*
X82072238Y-48120904D01*
X82096428Y-48133000D01*
X82108523Y-48145095D01*
X82120619Y-48169285D01*
X82120619Y-48205571D01*
X82108523Y-48229761D01*
X82096428Y-48241857D01*
X82072238Y-48253952D01*
X81975476Y-48253952D01*
X82556047Y-48374904D02*
X82410904Y-48374904D01*
X82483476Y-48374904D02*
X82483476Y-48120904D01*
X82459285Y-48157190D01*
X82435095Y-48181380D01*
X82410904Y-48193476D01*
X82652809Y-48374904D02*
X82846333Y-48120904D01*
X82689095Y-48120904D02*
X82713285Y-48133000D01*
X82725380Y-48157190D01*
X82713285Y-48181380D01*
X82689095Y-48193476D01*
X82664904Y-48181380D01*
X82652809Y-48157190D01*
X82664904Y-48133000D01*
X82689095Y-48120904D01*
X82834238Y-48362809D02*
X82846333Y-48338619D01*
X82834238Y-48314428D01*
X82810047Y-48302333D01*
X82785857Y-48314428D01*
X82773761Y-48338619D01*
X82785857Y-48362809D01*
X82810047Y-48374904D01*
X82834238Y-48362809D01*
D12*
X81975333Y-49456952D02*
X81842000Y-49266476D01*
X81746761Y-49456952D02*
X81746761Y-49056952D01*
X81899142Y-49056952D01*
X81937238Y-49076000D01*
X81956285Y-49095047D01*
X81975333Y-49133142D01*
X81975333Y-49190285D01*
X81956285Y-49228380D01*
X81937238Y-49247428D01*
X81899142Y-49266476D01*
X81746761Y-49266476D01*
X82108666Y-49056952D02*
X82375333Y-49056952D01*
X82203904Y-49456952D01*
D11*
%TO.C,Q1*%
X84388476Y-50406904D02*
X84388476Y-50152904D01*
X84448952Y-50152904D01*
X84485238Y-50165000D01*
X84509428Y-50189190D01*
X84521523Y-50213380D01*
X84533619Y-50261761D01*
X84533619Y-50298047D01*
X84521523Y-50346428D01*
X84509428Y-50370619D01*
X84485238Y-50394809D01*
X84448952Y-50406904D01*
X84388476Y-50406904D01*
X84642476Y-50406904D02*
X84642476Y-50152904D01*
X84727142Y-50334333D01*
X84811809Y-50152904D01*
X84811809Y-50406904D01*
X85065809Y-50165000D02*
X85041619Y-50152904D01*
X85005333Y-50152904D01*
X84969047Y-50165000D01*
X84944857Y-50189190D01*
X84932761Y-50213380D01*
X84920666Y-50261761D01*
X84920666Y-50298047D01*
X84932761Y-50346428D01*
X84944857Y-50370619D01*
X84969047Y-50394809D01*
X85005333Y-50406904D01*
X85029523Y-50406904D01*
X85065809Y-50394809D01*
X85077904Y-50382714D01*
X85077904Y-50298047D01*
X85029523Y-50298047D01*
X85162571Y-50152904D02*
X85319809Y-50152904D01*
X85235142Y-50249666D01*
X85271428Y-50249666D01*
X85295619Y-50261761D01*
X85307714Y-50273857D01*
X85319809Y-50298047D01*
X85319809Y-50358523D01*
X85307714Y-50382714D01*
X85295619Y-50394809D01*
X85271428Y-50406904D01*
X85198857Y-50406904D01*
X85174666Y-50394809D01*
X85162571Y-50382714D01*
X85537523Y-50237571D02*
X85537523Y-50406904D01*
X85477047Y-50140809D02*
X85416571Y-50322238D01*
X85573809Y-50322238D01*
X85803619Y-50406904D02*
X85658476Y-50406904D01*
X85731047Y-50406904D02*
X85731047Y-50152904D01*
X85706857Y-50189190D01*
X85682666Y-50213380D01*
X85658476Y-50225476D01*
X86033428Y-50152904D02*
X85912476Y-50152904D01*
X85900380Y-50273857D01*
X85912476Y-50261761D01*
X85936666Y-50249666D01*
X85997142Y-50249666D01*
X86021333Y-50261761D01*
X86033428Y-50273857D01*
X86045523Y-50298047D01*
X86045523Y-50358523D01*
X86033428Y-50382714D01*
X86021333Y-50394809D01*
X85997142Y-50406904D01*
X85936666Y-50406904D01*
X85912476Y-50394809D01*
X85900380Y-50382714D01*
X86154380Y-50152904D02*
X86154380Y-50358523D01*
X86166476Y-50382714D01*
X86178571Y-50394809D01*
X86202761Y-50406904D01*
X86251142Y-50406904D01*
X86275333Y-50394809D01*
X86287428Y-50382714D01*
X86299523Y-50358523D01*
X86299523Y-50152904D01*
D14*
X85519238Y-48999476D02*
X85504000Y-49029952D01*
X85473523Y-49060428D01*
X85427809Y-49106142D01*
X85412571Y-49136619D01*
X85412571Y-49167095D01*
X85488761Y-49151857D02*
X85473523Y-49182333D01*
X85443047Y-49212809D01*
X85382095Y-49228047D01*
X85275428Y-49228047D01*
X85214476Y-49212809D01*
X85184000Y-49182333D01*
X85168761Y-49151857D01*
X85168761Y-49090904D01*
X85184000Y-49060428D01*
X85214476Y-49029952D01*
X85275428Y-49014714D01*
X85382095Y-49014714D01*
X85443047Y-49029952D01*
X85473523Y-49060428D01*
X85488761Y-49090904D01*
X85488761Y-49151857D01*
X85488761Y-48709952D02*
X85488761Y-48892809D01*
X85488761Y-48801380D02*
X85168761Y-48801380D01*
X85214476Y-48831857D01*
X85244952Y-48862333D01*
X85260190Y-48892809D01*
D11*
%TO.C,D2*%
X83971190Y-46717857D02*
X84007476Y-46729952D01*
X84019571Y-46742047D01*
X84031666Y-46766238D01*
X84031666Y-46802523D01*
X84019571Y-46826714D01*
X84007476Y-46838809D01*
X83983285Y-46850904D01*
X83886523Y-46850904D01*
X83886523Y-46596904D01*
X83971190Y-46596904D01*
X83995380Y-46609000D01*
X84007476Y-46621095D01*
X84019571Y-46645285D01*
X84019571Y-46669476D01*
X84007476Y-46693666D01*
X83995380Y-46705761D01*
X83971190Y-46717857D01*
X83886523Y-46717857D01*
X84261476Y-46596904D02*
X84140523Y-46596904D01*
X84128428Y-46717857D01*
X84140523Y-46705761D01*
X84164714Y-46693666D01*
X84225190Y-46693666D01*
X84249380Y-46705761D01*
X84261476Y-46717857D01*
X84273571Y-46742047D01*
X84273571Y-46802523D01*
X84261476Y-46826714D01*
X84249380Y-46838809D01*
X84225190Y-46850904D01*
X84164714Y-46850904D01*
X84140523Y-46838809D01*
X84128428Y-46826714D01*
X84418714Y-46705761D02*
X84394523Y-46693666D01*
X84382428Y-46681571D01*
X84370333Y-46657380D01*
X84370333Y-46645285D01*
X84382428Y-46621095D01*
X84394523Y-46609000D01*
X84418714Y-46596904D01*
X84467095Y-46596904D01*
X84491285Y-46609000D01*
X84503380Y-46621095D01*
X84515476Y-46645285D01*
X84515476Y-46657380D01*
X84503380Y-46681571D01*
X84491285Y-46693666D01*
X84467095Y-46705761D01*
X84418714Y-46705761D01*
X84394523Y-46717857D01*
X84382428Y-46729952D01*
X84370333Y-46754142D01*
X84370333Y-46802523D01*
X84382428Y-46826714D01*
X84394523Y-46838809D01*
X84418714Y-46850904D01*
X84467095Y-46850904D01*
X84491285Y-46838809D01*
X84503380Y-46826714D01*
X84515476Y-46802523D01*
X84515476Y-46754142D01*
X84503380Y-46729952D01*
X84491285Y-46717857D01*
X84467095Y-46705761D01*
X84757380Y-46850904D02*
X84612238Y-46850904D01*
X84684809Y-46850904D02*
X84684809Y-46596904D01*
X84660619Y-46633190D01*
X84636428Y-46657380D01*
X84612238Y-46669476D01*
X84878333Y-46850904D02*
X84926714Y-46850904D01*
X84950904Y-46838809D01*
X84963000Y-46826714D01*
X84987190Y-46790428D01*
X84999285Y-46742047D01*
X84999285Y-46645285D01*
X84987190Y-46621095D01*
X84975095Y-46609000D01*
X84950904Y-46596904D01*
X84902523Y-46596904D01*
X84878333Y-46609000D01*
X84866238Y-46621095D01*
X84854142Y-46645285D01*
X84854142Y-46705761D01*
X84866238Y-46729952D01*
X84878333Y-46742047D01*
X84902523Y-46754142D01*
X84950904Y-46754142D01*
X84975095Y-46742047D01*
X84987190Y-46729952D01*
X84999285Y-46705761D01*
X85083952Y-46596904D02*
X85144428Y-46850904D01*
X85192809Y-46669476D01*
X85241190Y-46850904D01*
X85301666Y-46596904D01*
D10*
X83793904Y-46319380D02*
X83793904Y-45319380D01*
X84032000Y-45319380D01*
X84174857Y-45367000D01*
X84270095Y-45462238D01*
X84317714Y-45557476D01*
X84365333Y-45747952D01*
X84365333Y-45890809D01*
X84317714Y-46081285D01*
X84270095Y-46176523D01*
X84174857Y-46271761D01*
X84032000Y-46319380D01*
X83793904Y-46319380D01*
X84746285Y-45414619D02*
X84793904Y-45367000D01*
X84889142Y-45319380D01*
X85127238Y-45319380D01*
X85222476Y-45367000D01*
X85270095Y-45414619D01*
X85317714Y-45509857D01*
X85317714Y-45605095D01*
X85270095Y-45747952D01*
X84698666Y-46319380D01*
X85317714Y-46319380D01*
D11*
%TO.C,R4*%
X84582000Y-52692904D02*
X84436857Y-52692904D01*
X84509428Y-52692904D02*
X84509428Y-52438904D01*
X84485238Y-52475190D01*
X84461047Y-52499380D01*
X84436857Y-52511476D01*
X84739238Y-52438904D02*
X84763428Y-52438904D01*
X84787619Y-52451000D01*
X84799714Y-52463095D01*
X84811809Y-52487285D01*
X84823904Y-52535666D01*
X84823904Y-52596142D01*
X84811809Y-52644523D01*
X84799714Y-52668714D01*
X84787619Y-52680809D01*
X84763428Y-52692904D01*
X84739238Y-52692904D01*
X84715047Y-52680809D01*
X84702952Y-52668714D01*
X84690857Y-52644523D01*
X84678761Y-52596142D01*
X84678761Y-52535666D01*
X84690857Y-52487285D01*
X84702952Y-52463095D01*
X84715047Y-52451000D01*
X84739238Y-52438904D01*
X84981142Y-52438904D02*
X85005333Y-52438904D01*
X85029523Y-52451000D01*
X85041619Y-52463095D01*
X85053714Y-52487285D01*
X85065809Y-52535666D01*
X85065809Y-52596142D01*
X85053714Y-52644523D01*
X85041619Y-52668714D01*
X85029523Y-52680809D01*
X85005333Y-52692904D01*
X84981142Y-52692904D01*
X84956952Y-52680809D01*
X84944857Y-52668714D01*
X84932761Y-52644523D01*
X84920666Y-52596142D01*
X84920666Y-52535666D01*
X84932761Y-52487285D01*
X84944857Y-52463095D01*
X84956952Y-52451000D01*
X84981142Y-52438904D01*
X85174666Y-52692904D02*
X85174666Y-52438904D01*
X85198857Y-52596142D02*
X85271428Y-52692904D01*
X85271428Y-52523571D02*
X85174666Y-52620333D01*
X85525428Y-52692904D02*
X85440761Y-52571952D01*
X85380285Y-52692904D02*
X85380285Y-52438904D01*
X85477047Y-52438904D01*
X85501238Y-52451000D01*
X85513333Y-52463095D01*
X85525428Y-52487285D01*
X85525428Y-52523571D01*
X85513333Y-52547761D01*
X85501238Y-52559857D01*
X85477047Y-52571952D01*
X85380285Y-52571952D01*
X85960857Y-52692904D02*
X85815714Y-52692904D01*
X85888285Y-52692904D02*
X85888285Y-52438904D01*
X85864095Y-52475190D01*
X85839904Y-52499380D01*
X85815714Y-52511476D01*
X86057619Y-52692904D02*
X86251142Y-52438904D01*
X86093904Y-52438904D02*
X86118095Y-52451000D01*
X86130190Y-52475190D01*
X86118095Y-52499380D01*
X86093904Y-52511476D01*
X86069714Y-52499380D01*
X86057619Y-52475190D01*
X86069714Y-52451000D01*
X86093904Y-52438904D01*
X86239047Y-52680809D02*
X86251142Y-52656619D01*
X86239047Y-52632428D01*
X86214857Y-52620333D01*
X86190666Y-52632428D01*
X86178571Y-52656619D01*
X86190666Y-52680809D01*
X86214857Y-52692904D01*
X86239047Y-52680809D01*
D12*
X85277333Y-51943952D02*
X85144000Y-51753476D01*
X85048761Y-51943952D02*
X85048761Y-51543952D01*
X85201142Y-51543952D01*
X85239238Y-51563000D01*
X85258285Y-51582047D01*
X85277333Y-51620142D01*
X85277333Y-51677285D01*
X85258285Y-51715380D01*
X85239238Y-51734428D01*
X85201142Y-51753476D01*
X85048761Y-51753476D01*
X85620190Y-51677285D02*
X85620190Y-51943952D01*
X85524952Y-51524904D02*
X85429714Y-51810619D01*
X85677333Y-51810619D01*
D11*
%TO.C,C9*%
X81769857Y-52184904D02*
X81624714Y-52184904D01*
X81697285Y-52184904D02*
X81697285Y-51930904D01*
X81673095Y-51967190D01*
X81648904Y-51991380D01*
X81624714Y-52003476D01*
X81927095Y-51930904D02*
X81951285Y-51930904D01*
X81975476Y-51943000D01*
X81987571Y-51955095D01*
X81999666Y-51979285D01*
X82011761Y-52027666D01*
X82011761Y-52088142D01*
X81999666Y-52136523D01*
X81987571Y-52160714D01*
X81975476Y-52172809D01*
X81951285Y-52184904D01*
X81927095Y-52184904D01*
X81902904Y-52172809D01*
X81890809Y-52160714D01*
X81878714Y-52136523D01*
X81866619Y-52088142D01*
X81866619Y-52027666D01*
X81878714Y-51979285D01*
X81890809Y-51955095D01*
X81902904Y-51943000D01*
X81927095Y-51930904D01*
X82229476Y-52015571D02*
X82229476Y-52184904D01*
X82120619Y-52015571D02*
X82120619Y-52148619D01*
X82132714Y-52172809D01*
X82156904Y-52184904D01*
X82193190Y-52184904D01*
X82217380Y-52172809D01*
X82229476Y-52160714D01*
X82435095Y-52051857D02*
X82350428Y-52051857D01*
X82350428Y-52184904D02*
X82350428Y-51930904D01*
X82471380Y-51930904D01*
D12*
X81975333Y-51143857D02*
X81956285Y-51162904D01*
X81899142Y-51181952D01*
X81861047Y-51181952D01*
X81803904Y-51162904D01*
X81765809Y-51124809D01*
X81746761Y-51086714D01*
X81727714Y-51010523D01*
X81727714Y-50953380D01*
X81746761Y-50877190D01*
X81765809Y-50839095D01*
X81803904Y-50801000D01*
X81861047Y-50781952D01*
X81899142Y-50781952D01*
X81956285Y-50801000D01*
X81975333Y-50820047D01*
X82165809Y-51181952D02*
X82242000Y-51181952D01*
X82280095Y-51162904D01*
X82299142Y-51143857D01*
X82337238Y-51086714D01*
X82356285Y-51010523D01*
X82356285Y-50858142D01*
X82337238Y-50820047D01*
X82318190Y-50801000D01*
X82280095Y-50781952D01*
X82203904Y-50781952D01*
X82165809Y-50801000D01*
X82146761Y-50820047D01*
X82127714Y-50858142D01*
X82127714Y-50953380D01*
X82146761Y-50991476D01*
X82165809Y-51010523D01*
X82203904Y-51029571D01*
X82280095Y-51029571D01*
X82318190Y-51010523D01*
X82337238Y-50991476D01*
X82356285Y-50953380D01*
D11*
%TO.C,C5*%
X68534909Y-54950085D02*
X68534909Y-55095228D01*
X68534909Y-55022656D02*
X68280909Y-55022656D01*
X68317195Y-55046847D01*
X68341385Y-55071037D01*
X68353481Y-55095228D01*
X68280909Y-54792847D02*
X68280909Y-54768656D01*
X68293005Y-54744466D01*
X68305100Y-54732370D01*
X68329290Y-54720275D01*
X68377671Y-54708180D01*
X68438147Y-54708180D01*
X68486528Y-54720275D01*
X68510719Y-54732370D01*
X68522814Y-54744466D01*
X68534909Y-54768656D01*
X68534909Y-54792847D01*
X68522814Y-54817037D01*
X68510719Y-54829132D01*
X68486528Y-54841228D01*
X68438147Y-54853323D01*
X68377671Y-54853323D01*
X68329290Y-54841228D01*
X68305100Y-54829132D01*
X68293005Y-54817037D01*
X68280909Y-54792847D01*
X68280909Y-54550942D02*
X68280909Y-54526751D01*
X68293005Y-54502561D01*
X68305100Y-54490466D01*
X68329290Y-54478370D01*
X68377671Y-54466275D01*
X68438147Y-54466275D01*
X68486528Y-54478370D01*
X68510719Y-54490466D01*
X68522814Y-54502561D01*
X68534909Y-54526751D01*
X68534909Y-54550942D01*
X68522814Y-54575132D01*
X68510719Y-54587228D01*
X68486528Y-54599323D01*
X68438147Y-54611418D01*
X68377671Y-54611418D01*
X68329290Y-54599323D01*
X68305100Y-54587228D01*
X68293005Y-54575132D01*
X68280909Y-54550942D01*
X68365576Y-54357418D02*
X68534909Y-54357418D01*
X68389766Y-54357418D02*
X68377671Y-54345323D01*
X68365576Y-54321132D01*
X68365576Y-54284847D01*
X68377671Y-54260656D01*
X68401862Y-54248561D01*
X68534909Y-54248561D01*
X68401862Y-54042942D02*
X68401862Y-54127609D01*
X68534909Y-54127609D02*
X68280909Y-54127609D01*
X68280909Y-54006656D01*
D12*
X69992857Y-54623666D02*
X70011904Y-54642714D01*
X70030952Y-54699857D01*
X70030952Y-54737952D01*
X70011904Y-54795095D01*
X69973809Y-54833190D01*
X69935714Y-54852238D01*
X69859523Y-54871285D01*
X69802380Y-54871285D01*
X69726190Y-54852238D01*
X69688095Y-54833190D01*
X69650000Y-54795095D01*
X69630952Y-54737952D01*
X69630952Y-54699857D01*
X69650000Y-54642714D01*
X69669047Y-54623666D01*
X69630952Y-54261761D02*
X69630952Y-54452238D01*
X69821428Y-54471285D01*
X69802380Y-54452238D01*
X69783333Y-54414142D01*
X69783333Y-54318904D01*
X69802380Y-54280809D01*
X69821428Y-54261761D01*
X69859523Y-54242714D01*
X69954761Y-54242714D01*
X69992857Y-54261761D01*
X70011904Y-54280809D01*
X70030952Y-54318904D01*
X70030952Y-54414142D01*
X70011904Y-54452238D01*
X69992857Y-54471285D01*
D15*
%TO.C,Y1*%
X78755714Y-48516619D02*
X78755714Y-49516619D01*
X78517619Y-49516619D01*
X78374761Y-49469000D01*
X78279523Y-49373761D01*
X78231904Y-49278523D01*
X78184285Y-49088047D01*
X78184285Y-48945190D01*
X78231904Y-48754714D01*
X78279523Y-48659476D01*
X78374761Y-48564238D01*
X78517619Y-48516619D01*
X78755714Y-48516619D01*
X77755714Y-48516619D02*
X77755714Y-49516619D01*
X77184285Y-48516619D01*
X77184285Y-49516619D01*
X76708095Y-48516619D02*
X76708095Y-49516619D01*
X76327142Y-49516619D01*
X76231904Y-49469000D01*
X76184285Y-49421380D01*
X76136666Y-49326142D01*
X76136666Y-49183285D01*
X76184285Y-49088047D01*
X76231904Y-49040428D01*
X76327142Y-48992809D01*
X76708095Y-48992809D01*
D10*
%TO.C,U4*%
X92599002Y-60503460D02*
X91599002Y-60503460D01*
X92313288Y-60170126D01*
X91599002Y-59836793D01*
X92599002Y-59836793D01*
X91599002Y-59455841D02*
X91599002Y-58836793D01*
X91979955Y-59170126D01*
X91979955Y-59027269D01*
X92027574Y-58932031D01*
X92075193Y-58884412D01*
X92170431Y-58836793D01*
X92408526Y-58836793D01*
X92503764Y-58884412D01*
X92551383Y-58932031D01*
X92599002Y-59027269D01*
X92599002Y-59312984D01*
X92551383Y-59408222D01*
X92503764Y-59455841D01*
X91932336Y-57979650D02*
X92599002Y-57979650D01*
X91551383Y-58217745D02*
X92265669Y-58455841D01*
X92265669Y-57836793D01*
X91599002Y-57265365D02*
X91599002Y-57170126D01*
X91646622Y-57074888D01*
X91694241Y-57027269D01*
X91789479Y-56979650D01*
X91979955Y-56932031D01*
X92218050Y-56932031D01*
X92408526Y-56979650D01*
X92503764Y-57027269D01*
X92551383Y-57074888D01*
X92599002Y-57170126D01*
X92599002Y-57265365D01*
X92551383Y-57360603D01*
X92503764Y-57408222D01*
X92408526Y-57455841D01*
X92218050Y-57503460D01*
X91979955Y-57503460D01*
X91789479Y-57455841D01*
X91694241Y-57408222D01*
X91646622Y-57360603D01*
X91599002Y-57265365D01*
X91599002Y-56074888D02*
X91599002Y-56265365D01*
X91646622Y-56360603D01*
X91694241Y-56408222D01*
X91837098Y-56503460D01*
X92027574Y-56551079D01*
X92408526Y-56551079D01*
X92503764Y-56503460D01*
X92551383Y-56455841D01*
X92599002Y-56360603D01*
X92599002Y-56170126D01*
X92551383Y-56074888D01*
X92503764Y-56027269D01*
X92408526Y-55979650D01*
X92170431Y-55979650D01*
X92075193Y-56027269D01*
X92027574Y-56074888D01*
X91979955Y-56170126D01*
X91979955Y-56360603D01*
X92027574Y-56455841D01*
X92075193Y-56503460D01*
X92170431Y-56551079D01*
D12*
X89527574Y-58570126D02*
X89851383Y-58570126D01*
X89889479Y-58551079D01*
X89908526Y-58532031D01*
X89927574Y-58493936D01*
X89927574Y-58417745D01*
X89908526Y-58379650D01*
X89889479Y-58360603D01*
X89851383Y-58341555D01*
X89527574Y-58341555D01*
X89660907Y-57979650D02*
X89927574Y-57979650D01*
X89508526Y-58074888D02*
X89794241Y-58170126D01*
X89794241Y-57922507D01*
D11*
%TO.C,R9*%
X89740619Y-54442095D02*
X89752714Y-54430000D01*
X89776904Y-54417904D01*
X89837380Y-54417904D01*
X89861571Y-54430000D01*
X89873666Y-54442095D01*
X89885761Y-54466285D01*
X89885761Y-54490476D01*
X89873666Y-54526761D01*
X89728523Y-54671904D01*
X89885761Y-54671904D01*
X89970428Y-54417904D02*
X90139761Y-54417904D01*
X90030904Y-54671904D01*
X90236523Y-54671904D02*
X90236523Y-54417904D01*
X90381666Y-54671904D02*
X90272809Y-54526761D01*
X90381666Y-54417904D02*
X90236523Y-54563047D01*
X90817095Y-54671904D02*
X90671952Y-54671904D01*
X90744523Y-54671904D02*
X90744523Y-54417904D01*
X90720333Y-54454190D01*
X90696142Y-54478380D01*
X90671952Y-54490476D01*
X90913857Y-54671904D02*
X91107380Y-54417904D01*
X90950142Y-54417904D02*
X90974333Y-54430000D01*
X90986428Y-54454190D01*
X90974333Y-54478380D01*
X90950142Y-54490476D01*
X90925952Y-54478380D01*
X90913857Y-54454190D01*
X90925952Y-54430000D01*
X90950142Y-54417904D01*
X91095285Y-54659809D02*
X91107380Y-54635619D01*
X91095285Y-54611428D01*
X91071095Y-54599333D01*
X91046904Y-54611428D01*
X91034809Y-54635619D01*
X91046904Y-54659809D01*
X91071095Y-54671904D01*
X91095285Y-54659809D01*
D12*
X89849333Y-55499952D02*
X89716000Y-55309476D01*
X89620761Y-55499952D02*
X89620761Y-55099952D01*
X89773142Y-55099952D01*
X89811238Y-55119000D01*
X89830285Y-55138047D01*
X89849333Y-55176142D01*
X89849333Y-55233285D01*
X89830285Y-55271380D01*
X89811238Y-55290428D01*
X89773142Y-55309476D01*
X89620761Y-55309476D01*
X90039809Y-55499952D02*
X90116000Y-55499952D01*
X90154095Y-55480904D01*
X90173142Y-55461857D01*
X90211238Y-55404714D01*
X90230285Y-55328523D01*
X90230285Y-55176142D01*
X90211238Y-55138047D01*
X90192190Y-55119000D01*
X90154095Y-55099952D01*
X90077904Y-55099952D01*
X90039809Y-55119000D01*
X90020761Y-55138047D01*
X90001714Y-55176142D01*
X90001714Y-55271380D01*
X90020761Y-55309476D01*
X90039809Y-55328523D01*
X90077904Y-55347571D01*
X90154095Y-55347571D01*
X90192190Y-55328523D01*
X90211238Y-55309476D01*
X90230285Y-55271380D01*
D11*
%TO.C,C1*%
X72553285Y-55486904D02*
X72408142Y-55486904D01*
X72480714Y-55486904D02*
X72480714Y-55232904D01*
X72456523Y-55269190D01*
X72432333Y-55293380D01*
X72408142Y-55305476D01*
X72771000Y-55317571D02*
X72771000Y-55486904D01*
X72662142Y-55317571D02*
X72662142Y-55450619D01*
X72674238Y-55474809D01*
X72698428Y-55486904D01*
X72734714Y-55486904D01*
X72758904Y-55474809D01*
X72771000Y-55462714D01*
X72976619Y-55353857D02*
X72891952Y-55353857D01*
X72891952Y-55486904D02*
X72891952Y-55232904D01*
X73012904Y-55232904D01*
X73436238Y-55486904D02*
X73291095Y-55486904D01*
X73363666Y-55486904D02*
X73363666Y-55232904D01*
X73339476Y-55269190D01*
X73315285Y-55293380D01*
X73291095Y-55305476D01*
X73653952Y-55232904D02*
X73605571Y-55232904D01*
X73581380Y-55245000D01*
X73569285Y-55257095D01*
X73545095Y-55293380D01*
X73533000Y-55341761D01*
X73533000Y-55438523D01*
X73545095Y-55462714D01*
X73557190Y-55474809D01*
X73581380Y-55486904D01*
X73629761Y-55486904D01*
X73653952Y-55474809D01*
X73666047Y-55462714D01*
X73678142Y-55438523D01*
X73678142Y-55378047D01*
X73666047Y-55353857D01*
X73653952Y-55341761D01*
X73629761Y-55329666D01*
X73581380Y-55329666D01*
X73557190Y-55341761D01*
X73545095Y-55353857D01*
X73533000Y-55378047D01*
X73750714Y-55232904D02*
X73835380Y-55486904D01*
X73920047Y-55232904D01*
D12*
X73085333Y-54699857D02*
X73066285Y-54718904D01*
X73009142Y-54737952D01*
X72971047Y-54737952D01*
X72913904Y-54718904D01*
X72875809Y-54680809D01*
X72856761Y-54642714D01*
X72837714Y-54566523D01*
X72837714Y-54509380D01*
X72856761Y-54433190D01*
X72875809Y-54395095D01*
X72913904Y-54357000D01*
X72971047Y-54337952D01*
X73009142Y-54337952D01*
X73066285Y-54357000D01*
X73085333Y-54376047D01*
X73466285Y-54737952D02*
X73237714Y-54737952D01*
X73352000Y-54737952D02*
X73352000Y-54337952D01*
X73313904Y-54395095D01*
X73275809Y-54433190D01*
X73237714Y-54452238D01*
D10*
%TO.C,C10*%
X89164714Y-35440857D02*
X89831380Y-35440857D01*
X88783761Y-35678952D02*
X89498047Y-35917047D01*
X89498047Y-35298000D01*
X88831380Y-35012285D02*
X88831380Y-34345619D01*
X89831380Y-34774190D01*
X88831380Y-33774190D02*
X88831380Y-33678952D01*
X88879000Y-33583714D01*
X88926619Y-33536095D01*
X89021857Y-33488476D01*
X89212333Y-33440857D01*
X89450428Y-33440857D01*
X89640904Y-33488476D01*
X89736142Y-33536095D01*
X89783761Y-33583714D01*
X89831380Y-33678952D01*
X89831380Y-33774190D01*
X89783761Y-33869428D01*
X89736142Y-33917047D01*
X89640904Y-33964666D01*
X89450428Y-34012285D01*
X89212333Y-34012285D01*
X89021857Y-33964666D01*
X88926619Y-33917047D01*
X88879000Y-33869428D01*
X88831380Y-33774190D01*
X89164714Y-33012285D02*
X89831380Y-33012285D01*
X89259952Y-33012285D02*
X89212333Y-32964666D01*
X89164714Y-32869428D01*
X89164714Y-32726571D01*
X89212333Y-32631333D01*
X89307571Y-32583714D01*
X89831380Y-32583714D01*
X89307571Y-31774190D02*
X89307571Y-32107523D01*
X89831380Y-32107523D02*
X88831380Y-32107523D01*
X88831380Y-31631333D01*
D12*
X87991857Y-33705142D02*
X88010904Y-33724190D01*
X88029952Y-33781333D01*
X88029952Y-33819428D01*
X88010904Y-33876571D01*
X87972809Y-33914666D01*
X87934714Y-33933714D01*
X87858523Y-33952761D01*
X87801380Y-33952761D01*
X87725190Y-33933714D01*
X87687095Y-33914666D01*
X87649000Y-33876571D01*
X87629952Y-33819428D01*
X87629952Y-33781333D01*
X87649000Y-33724190D01*
X87668047Y-33705142D01*
X88029952Y-33324190D02*
X88029952Y-33552761D01*
X88029952Y-33438476D02*
X87629952Y-33438476D01*
X87687095Y-33476571D01*
X87725190Y-33514666D01*
X87744238Y-33552761D01*
X87629952Y-33076571D02*
X87629952Y-33038476D01*
X87649000Y-33000380D01*
X87668047Y-32981333D01*
X87706142Y-32962285D01*
X87782333Y-32943238D01*
X87877571Y-32943238D01*
X87953761Y-32962285D01*
X87991857Y-32981333D01*
X88010904Y-33000380D01*
X88029952Y-33038476D01*
X88029952Y-33076571D01*
X88010904Y-33114666D01*
X87991857Y-33133714D01*
X87953761Y-33152761D01*
X87877571Y-33171809D01*
X87782333Y-33171809D01*
X87706142Y-33152761D01*
X87668047Y-33133714D01*
X87649000Y-33114666D01*
X87629952Y-33076571D01*
%TO.C,D4*%
X86447952Y-33744738D02*
X86047952Y-33744738D01*
X86047952Y-33649500D01*
X86067000Y-33592357D01*
X86105095Y-33554261D01*
X86143190Y-33535214D01*
X86219380Y-33516166D01*
X86276523Y-33516166D01*
X86352714Y-33535214D01*
X86390809Y-33554261D01*
X86428904Y-33592357D01*
X86447952Y-33649500D01*
X86447952Y-33744738D01*
X86181285Y-33173309D02*
X86447952Y-33173309D01*
X86028904Y-33268547D02*
X86314619Y-33363785D01*
X86314619Y-33116166D01*
D11*
%TO.C,D7*%
X88034077Y-37541774D02*
X88034077Y-37662727D01*
X87780077Y-37662727D01*
X87901030Y-37457108D02*
X87901030Y-37372441D01*
X88034077Y-37336155D02*
X88034077Y-37457108D01*
X87780077Y-37457108D01*
X87780077Y-37336155D01*
X88021982Y-37239393D02*
X88034077Y-37203108D01*
X88034077Y-37142631D01*
X88021982Y-37118441D01*
X88009887Y-37106346D01*
X87985696Y-37094250D01*
X87961506Y-37094250D01*
X87937315Y-37106346D01*
X87925220Y-37118441D01*
X87913125Y-37142631D01*
X87901030Y-37191012D01*
X87888934Y-37215203D01*
X87876839Y-37227298D01*
X87852649Y-37239393D01*
X87828458Y-37239393D01*
X87804268Y-37227298D01*
X87792173Y-37215203D01*
X87780077Y-37191012D01*
X87780077Y-37130536D01*
X87792173Y-37094250D01*
X88034077Y-36985393D02*
X87780077Y-36985393D01*
X87780077Y-36924917D01*
X87792173Y-36888631D01*
X87816363Y-36864441D01*
X87840553Y-36852346D01*
X87888934Y-36840250D01*
X87925220Y-36840250D01*
X87973601Y-36852346D01*
X87997792Y-36864441D01*
X88021982Y-36888631D01*
X88034077Y-36924917D01*
X88034077Y-36985393D01*
X87780077Y-36610441D02*
X87780077Y-36731393D01*
X87901030Y-36743489D01*
X87888934Y-36731393D01*
X87876839Y-36707203D01*
X87876839Y-36646727D01*
X87888934Y-36622536D01*
X87901030Y-36610441D01*
X87925220Y-36598346D01*
X87985696Y-36598346D01*
X88009887Y-36610441D01*
X88021982Y-36622536D01*
X88034077Y-36646727D01*
X88034077Y-36707203D01*
X88021982Y-36731393D01*
X88009887Y-36743489D01*
X88034077Y-36489489D02*
X87780077Y-36489489D01*
X87780077Y-36429012D01*
X87792173Y-36392727D01*
X87816363Y-36368536D01*
X87840553Y-36356441D01*
X87888934Y-36344346D01*
X87925220Y-36344346D01*
X87973601Y-36356441D01*
X87997792Y-36368536D01*
X88021982Y-36392727D01*
X88034077Y-36429012D01*
X88034077Y-36489489D01*
X87780077Y-36114536D02*
X87780077Y-36235489D01*
X87901030Y-36247584D01*
X87888934Y-36235489D01*
X87876839Y-36211298D01*
X87876839Y-36150822D01*
X87888934Y-36126631D01*
X87901030Y-36114536D01*
X87925220Y-36102441D01*
X87985696Y-36102441D01*
X88009887Y-36114536D01*
X88021982Y-36126631D01*
X88034077Y-36150822D01*
X88034077Y-36211298D01*
X88021982Y-36235489D01*
X88009887Y-36247584D01*
X88009887Y-35993584D02*
X88021982Y-35981489D01*
X88034077Y-35993584D01*
X88021982Y-36005679D01*
X88009887Y-35993584D01*
X88034077Y-35993584D01*
X87780077Y-35824250D02*
X87780077Y-35800060D01*
X87792173Y-35775869D01*
X87804268Y-35763774D01*
X87828458Y-35751679D01*
X87876839Y-35739584D01*
X87937315Y-35739584D01*
X87985696Y-35751679D01*
X88009887Y-35763774D01*
X88021982Y-35775869D01*
X88034077Y-35800060D01*
X88034077Y-35824250D01*
X88021982Y-35848441D01*
X88009887Y-35860536D01*
X87985696Y-35872631D01*
X87937315Y-35884727D01*
X87876839Y-35884727D01*
X87828458Y-35872631D01*
X87804268Y-35860536D01*
X87792173Y-35848441D01*
X87780077Y-35824250D01*
X88009887Y-35485584D02*
X88021982Y-35497679D01*
X88034077Y-35533965D01*
X88034077Y-35558155D01*
X88021982Y-35594441D01*
X87997792Y-35618631D01*
X87973601Y-35630727D01*
X87925220Y-35642822D01*
X87888934Y-35642822D01*
X87840553Y-35630727D01*
X87816363Y-35618631D01*
X87792173Y-35594441D01*
X87780077Y-35558155D01*
X87780077Y-35533965D01*
X87792173Y-35497679D01*
X87804268Y-35485584D01*
X87780077Y-35413012D02*
X87780077Y-35267869D01*
X88034077Y-35340441D02*
X87780077Y-35340441D01*
X88034077Y-35050155D02*
X88034077Y-35195298D01*
X88034077Y-35122727D02*
X87780077Y-35122727D01*
X87816363Y-35146917D01*
X87840553Y-35171108D01*
X87852649Y-35195298D01*
X87792173Y-34808250D02*
X87780077Y-34832441D01*
X87780077Y-34868727D01*
X87792173Y-34905012D01*
X87816363Y-34929203D01*
X87840553Y-34941298D01*
X87888934Y-34953393D01*
X87925220Y-34953393D01*
X87973601Y-34941298D01*
X87997792Y-34929203D01*
X88021982Y-34905012D01*
X88034077Y-34868727D01*
X88034077Y-34844536D01*
X88021982Y-34808250D01*
X88009887Y-34796155D01*
X87925220Y-34796155D01*
X87925220Y-34844536D01*
D10*
X89004553Y-37849584D02*
X88004553Y-37849584D01*
X88004553Y-37611489D01*
X88052173Y-37468631D01*
X88147411Y-37373393D01*
X88242649Y-37325774D01*
X88433125Y-37278155D01*
X88575982Y-37278155D01*
X88766458Y-37325774D01*
X88861696Y-37373393D01*
X88956934Y-37468631D01*
X89004553Y-37611489D01*
X89004553Y-37849584D01*
X88004553Y-36944822D02*
X88004553Y-36278155D01*
X89004553Y-36706727D01*
D11*
%TO.C,D6*%
X88381904Y-40508285D02*
X88381904Y-40629238D01*
X88127904Y-40629238D01*
X88248857Y-40423619D02*
X88248857Y-40338952D01*
X88381904Y-40302666D02*
X88381904Y-40423619D01*
X88127904Y-40423619D01*
X88127904Y-40302666D01*
X88369809Y-40205904D02*
X88381904Y-40169619D01*
X88381904Y-40109142D01*
X88369809Y-40084952D01*
X88357714Y-40072857D01*
X88333523Y-40060761D01*
X88309333Y-40060761D01*
X88285142Y-40072857D01*
X88273047Y-40084952D01*
X88260952Y-40109142D01*
X88248857Y-40157523D01*
X88236761Y-40181714D01*
X88224666Y-40193809D01*
X88200476Y-40205904D01*
X88176285Y-40205904D01*
X88152095Y-40193809D01*
X88140000Y-40181714D01*
X88127904Y-40157523D01*
X88127904Y-40097047D01*
X88140000Y-40060761D01*
X88381904Y-39951904D02*
X88127904Y-39951904D01*
X88127904Y-39891428D01*
X88140000Y-39855142D01*
X88164190Y-39830952D01*
X88188380Y-39818857D01*
X88236761Y-39806761D01*
X88273047Y-39806761D01*
X88321428Y-39818857D01*
X88345619Y-39830952D01*
X88369809Y-39855142D01*
X88381904Y-39891428D01*
X88381904Y-39951904D01*
X88127904Y-39576952D02*
X88127904Y-39697904D01*
X88248857Y-39710000D01*
X88236761Y-39697904D01*
X88224666Y-39673714D01*
X88224666Y-39613238D01*
X88236761Y-39589047D01*
X88248857Y-39576952D01*
X88273047Y-39564857D01*
X88333523Y-39564857D01*
X88357714Y-39576952D01*
X88369809Y-39589047D01*
X88381904Y-39613238D01*
X88381904Y-39673714D01*
X88369809Y-39697904D01*
X88357714Y-39710000D01*
X88381904Y-39456000D02*
X88127904Y-39456000D01*
X88127904Y-39395523D01*
X88140000Y-39359238D01*
X88164190Y-39335047D01*
X88188380Y-39322952D01*
X88236761Y-39310857D01*
X88273047Y-39310857D01*
X88321428Y-39322952D01*
X88345619Y-39335047D01*
X88369809Y-39359238D01*
X88381904Y-39395523D01*
X88381904Y-39456000D01*
X88127904Y-39081047D02*
X88127904Y-39202000D01*
X88248857Y-39214095D01*
X88236761Y-39202000D01*
X88224666Y-39177809D01*
X88224666Y-39117333D01*
X88236761Y-39093142D01*
X88248857Y-39081047D01*
X88273047Y-39068952D01*
X88333523Y-39068952D01*
X88357714Y-39081047D01*
X88369809Y-39093142D01*
X88381904Y-39117333D01*
X88381904Y-39177809D01*
X88369809Y-39202000D01*
X88357714Y-39214095D01*
X88357714Y-38960095D02*
X88369809Y-38948000D01*
X88381904Y-38960095D01*
X88369809Y-38972190D01*
X88357714Y-38960095D01*
X88381904Y-38960095D01*
X88127904Y-38790761D02*
X88127904Y-38766571D01*
X88140000Y-38742380D01*
X88152095Y-38730285D01*
X88176285Y-38718190D01*
X88224666Y-38706095D01*
X88285142Y-38706095D01*
X88333523Y-38718190D01*
X88357714Y-38730285D01*
X88369809Y-38742380D01*
X88381904Y-38766571D01*
X88381904Y-38790761D01*
X88369809Y-38814952D01*
X88357714Y-38827047D01*
X88333523Y-38839142D01*
X88285142Y-38851238D01*
X88224666Y-38851238D01*
X88176285Y-38839142D01*
X88152095Y-38827047D01*
X88140000Y-38814952D01*
X88127904Y-38790761D01*
X88357714Y-38452095D02*
X88369809Y-38464190D01*
X88381904Y-38500476D01*
X88381904Y-38524666D01*
X88369809Y-38560952D01*
X88345619Y-38585142D01*
X88321428Y-38597238D01*
X88273047Y-38609333D01*
X88236761Y-38609333D01*
X88188380Y-38597238D01*
X88164190Y-38585142D01*
X88140000Y-38560952D01*
X88127904Y-38524666D01*
X88127904Y-38500476D01*
X88140000Y-38464190D01*
X88152095Y-38452095D01*
X88127904Y-38379523D02*
X88127904Y-38234380D01*
X88381904Y-38306952D02*
X88127904Y-38306952D01*
X88381904Y-38016666D02*
X88381904Y-38161809D01*
X88381904Y-38089238D02*
X88127904Y-38089238D01*
X88164190Y-38113428D01*
X88188380Y-38137619D01*
X88200476Y-38161809D01*
X88140000Y-37774761D02*
X88127904Y-37798952D01*
X88127904Y-37835238D01*
X88140000Y-37871523D01*
X88164190Y-37895714D01*
X88188380Y-37907809D01*
X88236761Y-37919904D01*
X88273047Y-37919904D01*
X88321428Y-37907809D01*
X88345619Y-37895714D01*
X88369809Y-37871523D01*
X88381904Y-37835238D01*
X88381904Y-37811047D01*
X88369809Y-37774761D01*
X88357714Y-37762666D01*
X88273047Y-37762666D01*
X88273047Y-37811047D01*
D10*
X89198380Y-40312095D02*
X88198380Y-40312095D01*
X88198380Y-40074000D01*
X88246000Y-39931142D01*
X88341238Y-39835904D01*
X88436476Y-39788285D01*
X88626952Y-39740666D01*
X88769809Y-39740666D01*
X88960285Y-39788285D01*
X89055523Y-39835904D01*
X89150761Y-39931142D01*
X89198380Y-40074000D01*
X89198380Y-40312095D01*
X88198380Y-38883523D02*
X88198380Y-39074000D01*
X88246000Y-39169238D01*
X88293619Y-39216857D01*
X88436476Y-39312095D01*
X88626952Y-39359714D01*
X89007904Y-39359714D01*
X89103142Y-39312095D01*
X89150761Y-39264476D01*
X89198380Y-39169238D01*
X89198380Y-38978761D01*
X89150761Y-38883523D01*
X89103142Y-38835904D01*
X89007904Y-38788285D01*
X88769809Y-38788285D01*
X88674571Y-38835904D01*
X88626952Y-38883523D01*
X88579333Y-38978761D01*
X88579333Y-39169238D01*
X88626952Y-39264476D01*
X88674571Y-39312095D01*
X88769809Y-39359714D01*
%TO.C,D8*%
X91463904Y-44140380D02*
X91463904Y-43140380D01*
X91702000Y-43140380D01*
X91844857Y-43188000D01*
X91940095Y-43283238D01*
X91987714Y-43378476D01*
X92035333Y-43568952D01*
X92035333Y-43711809D01*
X91987714Y-43902285D01*
X91940095Y-43997523D01*
X91844857Y-44092761D01*
X91702000Y-44140380D01*
X91463904Y-44140380D01*
X92606761Y-43568952D02*
X92511523Y-43521333D01*
X92463904Y-43473714D01*
X92416285Y-43378476D01*
X92416285Y-43330857D01*
X92463904Y-43235619D01*
X92511523Y-43188000D01*
X92606761Y-43140380D01*
X92797238Y-43140380D01*
X92892476Y-43188000D01*
X92940095Y-43235619D01*
X92987714Y-43330857D01*
X92987714Y-43378476D01*
X92940095Y-43473714D01*
X92892476Y-43521333D01*
X92797238Y-43568952D01*
X92606761Y-43568952D01*
X92511523Y-43616571D01*
X92463904Y-43664190D01*
X92416285Y-43759428D01*
X92416285Y-43949904D01*
X92463904Y-44045142D01*
X92511523Y-44092761D01*
X92606761Y-44140380D01*
X92797238Y-44140380D01*
X92892476Y-44092761D01*
X92940095Y-44045142D01*
X92987714Y-43949904D01*
X92987714Y-43759428D01*
X92940095Y-43664190D01*
X92892476Y-43616571D01*
X92797238Y-43568952D01*
D11*
X89517857Y-44245809D02*
X89529952Y-44209523D01*
X89542047Y-44197428D01*
X89566238Y-44185333D01*
X89602523Y-44185333D01*
X89626714Y-44197428D01*
X89638809Y-44209523D01*
X89650904Y-44233714D01*
X89650904Y-44330476D01*
X89396904Y-44330476D01*
X89396904Y-44245809D01*
X89409000Y-44221619D01*
X89421095Y-44209523D01*
X89445285Y-44197428D01*
X89469476Y-44197428D01*
X89493666Y-44209523D01*
X89505761Y-44221619D01*
X89517857Y-44245809D01*
X89517857Y-44330476D01*
X89396904Y-43955523D02*
X89396904Y-44076476D01*
X89517857Y-44088571D01*
X89505761Y-44076476D01*
X89493666Y-44052285D01*
X89493666Y-43991809D01*
X89505761Y-43967619D01*
X89517857Y-43955523D01*
X89542047Y-43943428D01*
X89602523Y-43943428D01*
X89626714Y-43955523D01*
X89638809Y-43967619D01*
X89650904Y-43991809D01*
X89650904Y-44052285D01*
X89638809Y-44076476D01*
X89626714Y-44088571D01*
X89505761Y-43798285D02*
X89493666Y-43822476D01*
X89481571Y-43834571D01*
X89457380Y-43846666D01*
X89445285Y-43846666D01*
X89421095Y-43834571D01*
X89409000Y-43822476D01*
X89396904Y-43798285D01*
X89396904Y-43749904D01*
X89409000Y-43725714D01*
X89421095Y-43713619D01*
X89445285Y-43701523D01*
X89457380Y-43701523D01*
X89481571Y-43713619D01*
X89493666Y-43725714D01*
X89505761Y-43749904D01*
X89505761Y-43798285D01*
X89517857Y-43822476D01*
X89529952Y-43834571D01*
X89554142Y-43846666D01*
X89602523Y-43846666D01*
X89626714Y-43834571D01*
X89638809Y-43822476D01*
X89650904Y-43798285D01*
X89650904Y-43749904D01*
X89638809Y-43725714D01*
X89626714Y-43713619D01*
X89602523Y-43701523D01*
X89554142Y-43701523D01*
X89529952Y-43713619D01*
X89517857Y-43725714D01*
X89505761Y-43749904D01*
X89650904Y-43459619D02*
X89650904Y-43604761D01*
X89650904Y-43532190D02*
X89396904Y-43532190D01*
X89433190Y-43556380D01*
X89457380Y-43580571D01*
X89469476Y-43604761D01*
X89650904Y-43338666D02*
X89650904Y-43290285D01*
X89638809Y-43266095D01*
X89626714Y-43254000D01*
X89590428Y-43229809D01*
X89542047Y-43217714D01*
X89445285Y-43217714D01*
X89421095Y-43229809D01*
X89409000Y-43241904D01*
X89396904Y-43266095D01*
X89396904Y-43314476D01*
X89409000Y-43338666D01*
X89421095Y-43350761D01*
X89445285Y-43362857D01*
X89505761Y-43362857D01*
X89529952Y-43350761D01*
X89542047Y-43338666D01*
X89554142Y-43314476D01*
X89554142Y-43266095D01*
X89542047Y-43241904D01*
X89529952Y-43229809D01*
X89505761Y-43217714D01*
X89396904Y-43133047D02*
X89650904Y-43072571D01*
X89469476Y-43024190D01*
X89650904Y-42975809D01*
X89396904Y-42915333D01*
D10*
X91463904Y-42087380D02*
X91463904Y-41087380D01*
X91702000Y-41087380D01*
X91844857Y-41135000D01*
X91940095Y-41230238D01*
X91987714Y-41325476D01*
X92035333Y-41515952D01*
X92035333Y-41658809D01*
X91987714Y-41849285D01*
X91940095Y-41944523D01*
X91844857Y-42039761D01*
X91702000Y-42087380D01*
X91463904Y-42087380D01*
X92606761Y-41515952D02*
X92511523Y-41468333D01*
X92463904Y-41420714D01*
X92416285Y-41325476D01*
X92416285Y-41277857D01*
X92463904Y-41182619D01*
X92511523Y-41135000D01*
X92606761Y-41087380D01*
X92797238Y-41087380D01*
X92892476Y-41135000D01*
X92940095Y-41182619D01*
X92987714Y-41277857D01*
X92987714Y-41325476D01*
X92940095Y-41420714D01*
X92892476Y-41468333D01*
X92797238Y-41515952D01*
X92606761Y-41515952D01*
X92511523Y-41563571D01*
X92463904Y-41611190D01*
X92416285Y-41706428D01*
X92416285Y-41896904D01*
X92463904Y-41992142D01*
X92511523Y-42039761D01*
X92606761Y-42087380D01*
X92797238Y-42087380D01*
X92892476Y-42039761D01*
X92940095Y-41992142D01*
X92987714Y-41896904D01*
X92987714Y-41706428D01*
X92940095Y-41611190D01*
X92892476Y-41563571D01*
X92797238Y-41515952D01*
%TO.C,SW1*%
X102370765Y-61222509D02*
X102418384Y-61079652D01*
X102418384Y-60841557D01*
X102370765Y-60746319D01*
X102323146Y-60698700D01*
X102227908Y-60651081D01*
X102132670Y-60651081D01*
X102037432Y-60698700D01*
X101989813Y-60746319D01*
X101942194Y-60841557D01*
X101894575Y-61032033D01*
X101846956Y-61127271D01*
X101799337Y-61174890D01*
X101704099Y-61222509D01*
X101608861Y-61222509D01*
X101513623Y-61174890D01*
X101466004Y-61127271D01*
X101418384Y-61032033D01*
X101418384Y-60793938D01*
X101466004Y-60651081D01*
X101418384Y-60317747D02*
X102418384Y-60079652D01*
X101704099Y-59889176D01*
X102418384Y-59698700D01*
X101418384Y-59460605D01*
X102513623Y-59317747D02*
X102513623Y-58555843D01*
X102418384Y-58317747D02*
X101418384Y-58317747D01*
X101418384Y-57936795D01*
X101466004Y-57841557D01*
X101513623Y-57793938D01*
X101608861Y-57746319D01*
X101751718Y-57746319D01*
X101846956Y-57793938D01*
X101894575Y-57841557D01*
X101942194Y-57936795D01*
X101942194Y-58317747D01*
X101418384Y-57412986D02*
X102418384Y-57174890D01*
X101704099Y-56984414D01*
X102418384Y-56793938D01*
X101418384Y-56555843D01*
X102418384Y-55603462D02*
X101942194Y-55936795D01*
X102418384Y-56174890D02*
X101418384Y-56174890D01*
X101418384Y-55793938D01*
X101466004Y-55698700D01*
X101513623Y-55651081D01*
X101608861Y-55603462D01*
X101751718Y-55603462D01*
X101846956Y-55651081D01*
X101894575Y-55698700D01*
X101942194Y-55793938D01*
X101942194Y-56174890D01*
D16*
X96168384Y-58479652D02*
X96192194Y-58408224D01*
X96192194Y-58289176D01*
X96168384Y-58241557D01*
X96144575Y-58217747D01*
X96096956Y-58193938D01*
X96049337Y-58193938D01*
X96001718Y-58217747D01*
X95977908Y-58241557D01*
X95954099Y-58289176D01*
X95930289Y-58384414D01*
X95906480Y-58432033D01*
X95882670Y-58455843D01*
X95835051Y-58479652D01*
X95787432Y-58479652D01*
X95739813Y-58455843D01*
X95716004Y-58432033D01*
X95692194Y-58384414D01*
X95692194Y-58265366D01*
X95716004Y-58193938D01*
X95692194Y-58027271D02*
X96192194Y-57908224D01*
X95835051Y-57812986D01*
X96192194Y-57717747D01*
X95692194Y-57598700D01*
X96192194Y-57146319D02*
X96192194Y-57432033D01*
X96192194Y-57289176D02*
X95692194Y-57289176D01*
X95763623Y-57336795D01*
X95811242Y-57384414D01*
X95835051Y-57432033D01*
D10*
%TO.C,U2*%
X76962095Y-37044387D02*
X76962095Y-37853911D01*
X77009714Y-37949149D01*
X77057333Y-37996768D01*
X77152571Y-38044387D01*
X77343047Y-38044387D01*
X77438285Y-37996768D01*
X77485904Y-37949149D01*
X77533523Y-37853911D01*
X77533523Y-37044387D01*
X77962095Y-37139626D02*
X78009714Y-37092007D01*
X78104952Y-37044387D01*
X78343047Y-37044387D01*
X78438285Y-37092007D01*
X78485904Y-37139626D01*
X78533523Y-37234864D01*
X78533523Y-37330102D01*
X78485904Y-37472959D01*
X77914476Y-38044387D01*
X78533523Y-38044387D01*
X70286571Y-45123816D02*
X70286571Y-44790483D01*
X70810380Y-44647626D02*
X70810380Y-45123816D01*
X69810380Y-45123816D01*
X69810380Y-44647626D01*
X70762761Y-44266673D02*
X70810380Y-44123816D01*
X70810380Y-43885721D01*
X70762761Y-43790483D01*
X70715142Y-43742864D01*
X70619904Y-43695245D01*
X70524666Y-43695245D01*
X70429428Y-43742864D01*
X70381809Y-43790483D01*
X70334190Y-43885721D01*
X70286571Y-44076197D01*
X70238952Y-44171435D01*
X70191333Y-44219054D01*
X70096095Y-44266673D01*
X70000857Y-44266673D01*
X69905619Y-44219054D01*
X69858000Y-44171435D01*
X69810380Y-44076197D01*
X69810380Y-43838102D01*
X69858000Y-43695245D01*
X70810380Y-43266673D02*
X69810380Y-43266673D01*
X69810380Y-42885721D01*
X69858000Y-42790483D01*
X69905619Y-42742864D01*
X70000857Y-42695245D01*
X70143714Y-42695245D01*
X70238952Y-42742864D01*
X70286571Y-42790483D01*
X70334190Y-42885721D01*
X70334190Y-43266673D01*
X69810380Y-42361911D02*
X69810380Y-41742864D01*
X70191333Y-42076197D01*
X70191333Y-41933340D01*
X70238952Y-41838102D01*
X70286571Y-41790483D01*
X70381809Y-41742864D01*
X70619904Y-41742864D01*
X70715142Y-41790483D01*
X70762761Y-41838102D01*
X70810380Y-41933340D01*
X70810380Y-42219054D01*
X70762761Y-42314292D01*
X70715142Y-42361911D01*
X69905619Y-41361911D02*
X69858000Y-41314292D01*
X69810380Y-41219054D01*
X69810380Y-40980959D01*
X69858000Y-40885721D01*
X69905619Y-40838102D01*
X70000857Y-40790483D01*
X70096095Y-40790483D01*
X70238952Y-40838102D01*
X70810380Y-41409530D01*
X70810380Y-40790483D01*
X70429428Y-40361911D02*
X70429428Y-39600007D01*
X70715142Y-38552387D02*
X70762761Y-38600007D01*
X70810380Y-38742864D01*
X70810380Y-38838102D01*
X70762761Y-38980959D01*
X70667523Y-39076197D01*
X70572285Y-39123816D01*
X70381809Y-39171435D01*
X70238952Y-39171435D01*
X70048476Y-39123816D01*
X69953238Y-39076197D01*
X69858000Y-38980959D01*
X69810380Y-38838102D01*
X69810380Y-38742864D01*
X69858000Y-38600007D01*
X69905619Y-38552387D01*
X69810380Y-38219054D02*
X69810380Y-37600007D01*
X70191333Y-37933340D01*
X70191333Y-37790483D01*
X70238952Y-37695245D01*
X70286571Y-37647626D01*
X70381809Y-37600007D01*
X70619904Y-37600007D01*
X70715142Y-37647626D01*
X70762761Y-37695245D01*
X70810380Y-37790483D01*
X70810380Y-38076197D01*
X70762761Y-38171435D01*
X70715142Y-38219054D01*
X70429428Y-37171435D02*
X70429428Y-36409530D01*
X70810380Y-35933340D02*
X69810380Y-35933340D01*
X70524666Y-35600007D01*
X69810380Y-35266673D01*
X70810380Y-35266673D01*
X70810380Y-34790483D02*
X69810380Y-34790483D01*
X70810380Y-34314292D02*
X69810380Y-34314292D01*
X70810380Y-33742864D01*
X69810380Y-33742864D01*
X70810380Y-33266673D02*
X69810380Y-33266673D01*
X70429428Y-32790483D02*
X70429428Y-32028578D01*
X70810380Y-31028578D02*
X70810380Y-31600007D01*
X70810380Y-31314292D02*
X69810380Y-31314292D01*
X69953238Y-31409530D01*
X70048476Y-31504768D01*
X70096095Y-31600007D01*
X69406095Y-32620673D02*
X69882285Y-32620673D01*
X69310857Y-32906387D02*
X69644190Y-31906387D01*
X69977523Y-32906387D01*
X70310857Y-32239721D02*
X70310857Y-32906387D01*
X70310857Y-32334959D02*
X70358476Y-32287340D01*
X70453714Y-32239721D01*
X70596571Y-32239721D01*
X70691809Y-32287340D01*
X70739428Y-32382578D01*
X70739428Y-32906387D01*
X71072761Y-32239721D02*
X71453714Y-32239721D01*
X71215619Y-31906387D02*
X71215619Y-32763530D01*
X71263238Y-32858768D01*
X71358476Y-32906387D01*
X71453714Y-32906387D01*
X72168000Y-32858768D02*
X72072761Y-32906387D01*
X71882285Y-32906387D01*
X71787047Y-32858768D01*
X71739428Y-32763530D01*
X71739428Y-32382578D01*
X71787047Y-32287340D01*
X71882285Y-32239721D01*
X72072761Y-32239721D01*
X72168000Y-32287340D01*
X72215619Y-32382578D01*
X72215619Y-32477816D01*
X71739428Y-32573054D01*
X72644190Y-32239721D02*
X72644190Y-32906387D01*
X72644190Y-32334959D02*
X72691809Y-32287340D01*
X72787047Y-32239721D01*
X72929904Y-32239721D01*
X73025142Y-32287340D01*
X73072761Y-32382578D01*
X73072761Y-32906387D01*
X73548952Y-32239721D02*
X73548952Y-32906387D01*
X73548952Y-32334959D02*
X73596571Y-32287340D01*
X73691809Y-32239721D01*
X73834666Y-32239721D01*
X73929904Y-32287340D01*
X73977523Y-32382578D01*
X73977523Y-32906387D01*
X74882285Y-32906387D02*
X74882285Y-32382578D01*
X74834666Y-32287340D01*
X74739428Y-32239721D01*
X74548952Y-32239721D01*
X74453714Y-32287340D01*
X74882285Y-32858768D02*
X74787047Y-32906387D01*
X74548952Y-32906387D01*
X74453714Y-32858768D01*
X74406095Y-32763530D01*
X74406095Y-32668292D01*
X74453714Y-32573054D01*
X74548952Y-32525435D01*
X74787047Y-32525435D01*
X74882285Y-32477816D01*
X76072761Y-32620673D02*
X76548952Y-32620673D01*
X75977523Y-32906387D02*
X76310857Y-31906387D01*
X76644190Y-32906387D01*
X76977523Y-32906387D02*
X76977523Y-32239721D01*
X76977523Y-32430197D02*
X77025142Y-32334959D01*
X77072761Y-32287340D01*
X77168000Y-32239721D01*
X77263238Y-32239721D01*
X77977523Y-32858768D02*
X77882285Y-32906387D01*
X77691809Y-32906387D01*
X77596571Y-32858768D01*
X77548952Y-32763530D01*
X77548952Y-32382578D01*
X77596571Y-32287340D01*
X77691809Y-32239721D01*
X77882285Y-32239721D01*
X77977523Y-32287340D01*
X78025142Y-32382578D01*
X78025142Y-32477816D01*
X77548952Y-32573054D01*
X78882285Y-32906387D02*
X78882285Y-32382578D01*
X78834666Y-32287340D01*
X78739428Y-32239721D01*
X78548952Y-32239721D01*
X78453714Y-32287340D01*
X78882285Y-32858768D02*
X78787047Y-32906387D01*
X78548952Y-32906387D01*
X78453714Y-32858768D01*
X78406095Y-32763530D01*
X78406095Y-32668292D01*
X78453714Y-32573054D01*
X78548952Y-32525435D01*
X78787047Y-32525435D01*
X78882285Y-32477816D01*
X72834666Y-41456387D02*
X72501333Y-40980197D01*
X72263238Y-41456387D02*
X72263238Y-40456387D01*
X72644190Y-40456387D01*
X72739428Y-40504007D01*
X72787047Y-40551626D01*
X72834666Y-40646864D01*
X72834666Y-40789721D01*
X72787047Y-40884959D01*
X72739428Y-40932578D01*
X72644190Y-40980197D01*
X72263238Y-40980197D01*
X73263238Y-40932578D02*
X73596571Y-40932578D01*
X73739428Y-41456387D02*
X73263238Y-41456387D01*
X73263238Y-40456387D01*
X73739428Y-40456387D01*
X74501333Y-40932578D02*
X74168000Y-40932578D01*
X74168000Y-41456387D02*
X74168000Y-40456387D01*
X74644190Y-40456387D01*
X75168000Y-40456387D02*
X75168000Y-40694483D01*
X74929904Y-40599245D02*
X75168000Y-40694483D01*
X75406095Y-40599245D01*
X75025142Y-40884959D02*
X75168000Y-40694483D01*
X75310857Y-40884959D01*
X75929904Y-40456387D02*
X75929904Y-40694483D01*
X75691809Y-40599245D02*
X75929904Y-40694483D01*
X76168000Y-40599245D01*
X75787047Y-40884959D02*
X75929904Y-40694483D01*
X76072761Y-40884959D01*
%TO.C,J3*%
X98875380Y-44943466D02*
X99684904Y-44943466D01*
X99780142Y-44895847D01*
X99827761Y-44848228D01*
X99875380Y-44752990D01*
X99875380Y-44562513D01*
X99827761Y-44467275D01*
X99780142Y-44419656D01*
X99684904Y-44372037D01*
X98875380Y-44372037D01*
X99827761Y-43943466D02*
X99875380Y-43800609D01*
X99875380Y-43562513D01*
X99827761Y-43467275D01*
X99780142Y-43419656D01*
X99684904Y-43372037D01*
X99589666Y-43372037D01*
X99494428Y-43419656D01*
X99446809Y-43467275D01*
X99399190Y-43562513D01*
X99351571Y-43752990D01*
X99303952Y-43848228D01*
X99256333Y-43895847D01*
X99161095Y-43943466D01*
X99065857Y-43943466D01*
X98970619Y-43895847D01*
X98923000Y-43848228D01*
X98875380Y-43752990D01*
X98875380Y-43514894D01*
X98923000Y-43372037D01*
X99351571Y-42610132D02*
X99399190Y-42467275D01*
X99446809Y-42419656D01*
X99542047Y-42372037D01*
X99684904Y-42372037D01*
X99780142Y-42419656D01*
X99827761Y-42467275D01*
X99875380Y-42562513D01*
X99875380Y-42943466D01*
X98875380Y-42943466D01*
X98875380Y-42610132D01*
X98923000Y-42514894D01*
X98970619Y-42467275D01*
X99065857Y-42419656D01*
X99161095Y-42419656D01*
X99256333Y-42467275D01*
X99303952Y-42514894D01*
X99351571Y-42610132D01*
X99351571Y-42943466D01*
X99970619Y-42181561D02*
X99970619Y-41419656D01*
X99780142Y-40610132D02*
X99827761Y-40657751D01*
X99875380Y-40800609D01*
X99875380Y-40895847D01*
X99827761Y-41038704D01*
X99732523Y-41133942D01*
X99637285Y-41181561D01*
X99446809Y-41229180D01*
X99303952Y-41229180D01*
X99113476Y-41181561D01*
X99018238Y-41133942D01*
X98923000Y-41038704D01*
X98875380Y-40895847D01*
X98875380Y-40800609D01*
X98923000Y-40657751D01*
X98970619Y-40610132D01*
X99970619Y-40419656D02*
X99970619Y-39657751D01*
X99875380Y-38848228D02*
X99399190Y-39181561D01*
X99875380Y-39419656D02*
X98875380Y-39419656D01*
X98875380Y-39038704D01*
X98923000Y-38943466D01*
X98970619Y-38895847D01*
X99065857Y-38848228D01*
X99208714Y-38848228D01*
X99303952Y-38895847D01*
X99351571Y-38943466D01*
X99399190Y-39038704D01*
X99399190Y-39419656D01*
X99827761Y-38038704D02*
X99875380Y-38133942D01*
X99875380Y-38324418D01*
X99827761Y-38419656D01*
X99732523Y-38467275D01*
X99351571Y-38467275D01*
X99256333Y-38419656D01*
X99208714Y-38324418D01*
X99208714Y-38133942D01*
X99256333Y-38038704D01*
X99351571Y-37991085D01*
X99446809Y-37991085D01*
X99542047Y-38467275D01*
X99827761Y-37133942D02*
X99875380Y-37229180D01*
X99875380Y-37419656D01*
X99827761Y-37514894D01*
X99780142Y-37562513D01*
X99684904Y-37610132D01*
X99399190Y-37610132D01*
X99303952Y-37562513D01*
X99256333Y-37514894D01*
X99208714Y-37419656D01*
X99208714Y-37229180D01*
X99256333Y-37133942D01*
X99827761Y-36324418D02*
X99875380Y-36419656D01*
X99875380Y-36610132D01*
X99827761Y-36705370D01*
X99732523Y-36752990D01*
X99351571Y-36752990D01*
X99256333Y-36705370D01*
X99208714Y-36610132D01*
X99208714Y-36419656D01*
X99256333Y-36324418D01*
X99351571Y-36276799D01*
X99446809Y-36276799D01*
X99542047Y-36752990D01*
X99208714Y-35848228D02*
X100208714Y-35848228D01*
X99256333Y-35848228D02*
X99208714Y-35752990D01*
X99208714Y-35562513D01*
X99256333Y-35467275D01*
X99303952Y-35419656D01*
X99399190Y-35372037D01*
X99684904Y-35372037D01*
X99780142Y-35419656D01*
X99827761Y-35467275D01*
X99875380Y-35562513D01*
X99875380Y-35752990D01*
X99827761Y-35848228D01*
X99208714Y-35086323D02*
X99208714Y-34705370D01*
X98875380Y-34943466D02*
X99732523Y-34943466D01*
X99827761Y-34895847D01*
X99875380Y-34800609D01*
X99875380Y-34705370D01*
X99875380Y-33943466D02*
X99351571Y-33943466D01*
X99256333Y-33991085D01*
X99208714Y-34086323D01*
X99208714Y-34276799D01*
X99256333Y-34372037D01*
X99827761Y-33943466D02*
X99875380Y-34038704D01*
X99875380Y-34276799D01*
X99827761Y-34372037D01*
X99732523Y-34419656D01*
X99637285Y-34419656D01*
X99542047Y-34372037D01*
X99494428Y-34276799D01*
X99494428Y-34038704D01*
X99446809Y-33943466D01*
X99827761Y-33038704D02*
X99875380Y-33133942D01*
X99875380Y-33324418D01*
X99827761Y-33419656D01*
X99780142Y-33467275D01*
X99684904Y-33514894D01*
X99399190Y-33514894D01*
X99303952Y-33467275D01*
X99256333Y-33419656D01*
X99208714Y-33324418D01*
X99208714Y-33133942D01*
X99256333Y-33038704D01*
X99875380Y-32467275D02*
X99827761Y-32562513D01*
X99732523Y-32610132D01*
X98875380Y-32610132D01*
X99827761Y-31705370D02*
X99875380Y-31800609D01*
X99875380Y-31991085D01*
X99827761Y-32086323D01*
X99732523Y-32133942D01*
X99351571Y-32133942D01*
X99256333Y-32086323D01*
X99208714Y-31991085D01*
X99208714Y-31800609D01*
X99256333Y-31705370D01*
X99351571Y-31657751D01*
X99446809Y-31657751D01*
X99542047Y-32133942D01*
X99970619Y-31467275D02*
X99970619Y-30705370D01*
X98875380Y-30467275D02*
X99684904Y-30467275D01*
X99780142Y-30419656D01*
X99827761Y-30372037D01*
X99875380Y-30276799D01*
X99875380Y-30086323D01*
X99827761Y-29991085D01*
X99780142Y-29943466D01*
X99684904Y-29895847D01*
X98875380Y-29895847D01*
X99827761Y-29467275D02*
X99875380Y-29324418D01*
X99875380Y-29086323D01*
X99827761Y-28991085D01*
X99780142Y-28943466D01*
X99684904Y-28895847D01*
X99589666Y-28895847D01*
X99494428Y-28943466D01*
X99446809Y-28991085D01*
X99399190Y-29086323D01*
X99351571Y-29276799D01*
X99303952Y-29372037D01*
X99256333Y-29419656D01*
X99161095Y-29467275D01*
X99065857Y-29467275D01*
X98970619Y-29419656D01*
X98923000Y-29372037D01*
X98875380Y-29276799D01*
X98875380Y-29038704D01*
X98923000Y-28895847D01*
X99351571Y-28133942D02*
X99399190Y-27991085D01*
X99446809Y-27943466D01*
X99542047Y-27895847D01*
X99684904Y-27895847D01*
X99780142Y-27943466D01*
X99827761Y-27991085D01*
X99875380Y-28086323D01*
X99875380Y-28467275D01*
X98875380Y-28467275D01*
X98875380Y-28133942D01*
X98923000Y-28038704D01*
X98970619Y-27991085D01*
X99065857Y-27943466D01*
X99161095Y-27943466D01*
X99256333Y-27991085D01*
X99303952Y-28038704D01*
X99351571Y-28133942D01*
X99351571Y-28467275D01*
X98970619Y-27514894D02*
X98923000Y-27467275D01*
X98875380Y-27372037D01*
X98875380Y-27133942D01*
X98923000Y-27038704D01*
X98970619Y-26991085D01*
X99065857Y-26943466D01*
X99161095Y-26943466D01*
X99303952Y-26991085D01*
X99875380Y-27562513D01*
X99875380Y-26943466D01*
X99780142Y-26514894D02*
X99827761Y-26467275D01*
X99875380Y-26514894D01*
X99827761Y-26562513D01*
X99780142Y-26514894D01*
X99875380Y-26514894D01*
X98875380Y-25848228D02*
X98875380Y-25752990D01*
X98923000Y-25657751D01*
X98970619Y-25610132D01*
X99065857Y-25562513D01*
X99256333Y-25514894D01*
X99494428Y-25514894D01*
X99684904Y-25562513D01*
X99780142Y-25610132D01*
X99827761Y-25657751D01*
X99875380Y-25752990D01*
X99875380Y-25848228D01*
X99827761Y-25943466D01*
X99780142Y-25991085D01*
X99684904Y-26038704D01*
X99494428Y-26086323D01*
X99256333Y-26086323D01*
X99065857Y-26038704D01*
X98970619Y-25991085D01*
X98923000Y-25943466D01*
X98875380Y-25848228D01*
X93940380Y-35586323D02*
X94654666Y-35586323D01*
X94797523Y-35633942D01*
X94892761Y-35729180D01*
X94940380Y-35872037D01*
X94940380Y-35967275D01*
X93940380Y-35205370D02*
X93940380Y-34586323D01*
X94321333Y-34919656D01*
X94321333Y-34776799D01*
X94368952Y-34681561D01*
X94416571Y-34633942D01*
X94511809Y-34586323D01*
X94749904Y-34586323D01*
X94845142Y-34633942D01*
X94892761Y-34681561D01*
X94940380Y-34776799D01*
X94940380Y-35062513D01*
X94892761Y-35157751D01*
X94845142Y-35205370D01*
D17*
%TO.C,U1*%
X61150500Y-51110466D02*
X61192833Y-50983466D01*
X61235166Y-50941133D01*
X61319833Y-50898800D01*
X61446833Y-50898800D01*
X61531500Y-50941133D01*
X61573833Y-50983466D01*
X61616166Y-51068133D01*
X61616166Y-51406800D01*
X60727166Y-51406800D01*
X60727166Y-51110466D01*
X60769500Y-51025800D01*
X60811833Y-50983466D01*
X60896500Y-50941133D01*
X60981166Y-50941133D01*
X61065833Y-50983466D01*
X61108166Y-51025800D01*
X61150500Y-51110466D01*
X61150500Y-51406800D01*
X61616166Y-50517800D02*
X60727166Y-50517800D01*
X61616166Y-50009800D01*
X60727166Y-50009800D01*
X60727166Y-49417133D02*
X60727166Y-49247800D01*
X60769500Y-49163133D01*
X60854166Y-49078466D01*
X61023500Y-49036133D01*
X61319833Y-49036133D01*
X61489166Y-49078466D01*
X61573833Y-49163133D01*
X61616166Y-49247800D01*
X61616166Y-49417133D01*
X61573833Y-49501800D01*
X61489166Y-49586466D01*
X61319833Y-49628800D01*
X61023500Y-49628800D01*
X60854166Y-49586466D01*
X60769500Y-49501800D01*
X60727166Y-49417133D01*
X60684833Y-48020133D02*
X61827833Y-48782133D01*
X61616166Y-47723800D02*
X60727166Y-47723800D01*
X61362166Y-47427466D01*
X60727166Y-47131133D01*
X61616166Y-47131133D01*
X61616166Y-46707800D02*
X60727166Y-46707800D01*
X60727166Y-46369133D01*
X60769500Y-46284466D01*
X60811833Y-46242133D01*
X60896500Y-46199800D01*
X61023500Y-46199800D01*
X61108166Y-46242133D01*
X61150500Y-46284466D01*
X61192833Y-46369133D01*
X61192833Y-46707800D01*
X60727166Y-45818800D02*
X61446833Y-45818800D01*
X61531500Y-45776466D01*
X61573833Y-45734133D01*
X61616166Y-45649466D01*
X61616166Y-45480133D01*
X61573833Y-45395466D01*
X61531500Y-45353133D01*
X61446833Y-45310800D01*
X60727166Y-45310800D01*
X60684833Y-44252466D02*
X61827833Y-45014466D01*
X61616166Y-43956133D02*
X60727166Y-43956133D01*
X61531500Y-43024800D02*
X61573833Y-43067133D01*
X61616166Y-43194133D01*
X61616166Y-43278800D01*
X61573833Y-43405800D01*
X61489166Y-43490466D01*
X61404500Y-43532800D01*
X61235166Y-43575133D01*
X61108166Y-43575133D01*
X60938833Y-43532800D01*
X60854166Y-43490466D01*
X60769500Y-43405800D01*
X60727166Y-43278800D01*
X60727166Y-43194133D01*
X60769500Y-43067133D01*
X60811833Y-43024800D01*
X61616166Y-42643800D02*
X60727166Y-42643800D01*
X61362166Y-42347466D01*
X60727166Y-42051133D01*
X61616166Y-42051133D01*
X61700833Y-41839466D02*
X61700833Y-41162133D01*
X61150500Y-40654133D02*
X61192833Y-40527133D01*
X61235166Y-40484800D01*
X61319833Y-40442466D01*
X61446833Y-40442466D01*
X61531500Y-40484800D01*
X61573833Y-40527133D01*
X61616166Y-40611800D01*
X61616166Y-40950466D01*
X60727166Y-40950466D01*
X60727166Y-40654133D01*
X60769500Y-40569466D01*
X60811833Y-40527133D01*
X60896500Y-40484800D01*
X60981166Y-40484800D01*
X61065833Y-40527133D01*
X61108166Y-40569466D01*
X61150500Y-40654133D01*
X61150500Y-40950466D01*
X61616166Y-40061466D02*
X61023500Y-40061466D01*
X61192833Y-40061466D02*
X61108166Y-40019133D01*
X61065833Y-39976800D01*
X61023500Y-39892133D01*
X61023500Y-39807466D01*
X61573833Y-39172466D02*
X61616166Y-39257133D01*
X61616166Y-39426466D01*
X61573833Y-39511133D01*
X61489166Y-39553466D01*
X61150500Y-39553466D01*
X61065833Y-39511133D01*
X61023500Y-39426466D01*
X61023500Y-39257133D01*
X61065833Y-39172466D01*
X61150500Y-39130133D01*
X61235166Y-39130133D01*
X61319833Y-39553466D01*
X61616166Y-38368133D02*
X61150500Y-38368133D01*
X61065833Y-38410466D01*
X61023500Y-38495133D01*
X61023500Y-38664466D01*
X61065833Y-38749133D01*
X61573833Y-38368133D02*
X61616166Y-38452800D01*
X61616166Y-38664466D01*
X61573833Y-38749133D01*
X61489166Y-38791466D01*
X61404500Y-38791466D01*
X61319833Y-38749133D01*
X61277500Y-38664466D01*
X61277500Y-38452800D01*
X61235166Y-38368133D01*
X61616166Y-37944800D02*
X60727166Y-37944800D01*
X61277500Y-37860133D02*
X61616166Y-37606133D01*
X61023500Y-37606133D02*
X61362166Y-37944800D01*
D10*
X57658095Y-42579380D02*
X57658095Y-43388904D01*
X57705714Y-43484142D01*
X57753333Y-43531761D01*
X57848571Y-43579380D01*
X58039047Y-43579380D01*
X58134285Y-43531761D01*
X58181904Y-43484142D01*
X58229523Y-43388904D01*
X58229523Y-42579380D01*
X59229523Y-43579380D02*
X58658095Y-43579380D01*
X58943809Y-43579380D02*
X58943809Y-42579380D01*
X58848571Y-42722238D01*
X58753333Y-42817476D01*
X58658095Y-42865095D01*
%TO.C,TP2*%
X94496095Y-41637380D02*
X95067523Y-41637380D01*
X94781809Y-42637380D02*
X94781809Y-41637380D01*
X95400857Y-42637380D02*
X95400857Y-41637380D01*
X95781809Y-41637380D01*
X95877047Y-41685000D01*
X95924666Y-41732619D01*
X95972285Y-41827857D01*
X95972285Y-41970714D01*
X95924666Y-42065952D01*
X95877047Y-42113571D01*
X95781809Y-42161190D01*
X95400857Y-42161190D01*
X96353238Y-41732619D02*
X96400857Y-41685000D01*
X96496095Y-41637380D01*
X96734190Y-41637380D01*
X96829428Y-41685000D01*
X96877047Y-41732619D01*
X96924666Y-41827857D01*
X96924666Y-41923095D01*
X96877047Y-42065952D01*
X96305619Y-42637380D01*
X96924666Y-42637380D01*
%TO.C,C13*%
X88831571Y-64567380D02*
X88260142Y-64567380D01*
X88545857Y-64567380D02*
X88545857Y-63567380D01*
X88450619Y-63710238D01*
X88355380Y-63805476D01*
X88260142Y-63853095D01*
X89450619Y-63567380D02*
X89545857Y-63567380D01*
X89641095Y-63615000D01*
X89688714Y-63662619D01*
X89736333Y-63757857D01*
X89783952Y-63948333D01*
X89783952Y-64186428D01*
X89736333Y-64376904D01*
X89688714Y-64472142D01*
X89641095Y-64519761D01*
X89545857Y-64567380D01*
X89450619Y-64567380D01*
X89355380Y-64519761D01*
X89307761Y-64472142D01*
X89260142Y-64376904D01*
X89212523Y-64186428D01*
X89212523Y-63948333D01*
X89260142Y-63757857D01*
X89307761Y-63662619D01*
X89355380Y-63615000D01*
X89450619Y-63567380D01*
X90641095Y-63900714D02*
X90641095Y-64567380D01*
X90212523Y-63900714D02*
X90212523Y-64424523D01*
X90260142Y-64519761D01*
X90355380Y-64567380D01*
X90498238Y-64567380D01*
X90593476Y-64519761D01*
X90641095Y-64472142D01*
X91450619Y-64043571D02*
X91117285Y-64043571D01*
X91117285Y-64567380D02*
X91117285Y-63567380D01*
X91593476Y-63567380D01*
D12*
X89645857Y-62827857D02*
X89626809Y-62846904D01*
X89569666Y-62865952D01*
X89531571Y-62865952D01*
X89474428Y-62846904D01*
X89436333Y-62808809D01*
X89417285Y-62770714D01*
X89398238Y-62694523D01*
X89398238Y-62637380D01*
X89417285Y-62561190D01*
X89436333Y-62523095D01*
X89474428Y-62485000D01*
X89531571Y-62465952D01*
X89569666Y-62465952D01*
X89626809Y-62485000D01*
X89645857Y-62504047D01*
X90026809Y-62865952D02*
X89798238Y-62865952D01*
X89912523Y-62865952D02*
X89912523Y-62465952D01*
X89874428Y-62523095D01*
X89836333Y-62561190D01*
X89798238Y-62580238D01*
X90160142Y-62465952D02*
X90407761Y-62465952D01*
X90274428Y-62618333D01*
X90331571Y-62618333D01*
X90369666Y-62637380D01*
X90388714Y-62656428D01*
X90407761Y-62694523D01*
X90407761Y-62789761D01*
X90388714Y-62827857D01*
X90369666Y-62846904D01*
X90331571Y-62865952D01*
X90217285Y-62865952D01*
X90179190Y-62846904D01*
X90160142Y-62827857D01*
D11*
%TO.C,D9*%
X95721714Y-41209904D02*
X95600761Y-41209904D01*
X95600761Y-40955904D01*
X95806380Y-41076857D02*
X95891047Y-41076857D01*
X95927333Y-41209904D02*
X95806380Y-41209904D01*
X95806380Y-40955904D01*
X95927333Y-40955904D01*
X96024095Y-41197809D02*
X96060380Y-41209904D01*
X96120857Y-41209904D01*
X96145047Y-41197809D01*
X96157142Y-41185714D01*
X96169238Y-41161523D01*
X96169238Y-41137333D01*
X96157142Y-41113142D01*
X96145047Y-41101047D01*
X96120857Y-41088952D01*
X96072476Y-41076857D01*
X96048285Y-41064761D01*
X96036190Y-41052666D01*
X96024095Y-41028476D01*
X96024095Y-41004285D01*
X96036190Y-40980095D01*
X96048285Y-40968000D01*
X96072476Y-40955904D01*
X96132952Y-40955904D01*
X96169238Y-40968000D01*
X96278095Y-41209904D02*
X96278095Y-40955904D01*
X96338571Y-40955904D01*
X96374857Y-40968000D01*
X96399047Y-40992190D01*
X96411142Y-41016380D01*
X96423238Y-41064761D01*
X96423238Y-41101047D01*
X96411142Y-41149428D01*
X96399047Y-41173619D01*
X96374857Y-41197809D01*
X96338571Y-41209904D01*
X96278095Y-41209904D01*
X96653047Y-40955904D02*
X96532095Y-40955904D01*
X96520000Y-41076857D01*
X96532095Y-41064761D01*
X96556285Y-41052666D01*
X96616761Y-41052666D01*
X96640952Y-41064761D01*
X96653047Y-41076857D01*
X96665142Y-41101047D01*
X96665142Y-41161523D01*
X96653047Y-41185714D01*
X96640952Y-41197809D01*
X96616761Y-41209904D01*
X96556285Y-41209904D01*
X96532095Y-41197809D01*
X96520000Y-41185714D01*
X96774000Y-41209904D02*
X96774000Y-40955904D01*
X96834476Y-40955904D01*
X96870761Y-40968000D01*
X96894952Y-40992190D01*
X96907047Y-41016380D01*
X96919142Y-41064761D01*
X96919142Y-41101047D01*
X96907047Y-41149428D01*
X96894952Y-41173619D01*
X96870761Y-41197809D01*
X96834476Y-41209904D01*
X96774000Y-41209904D01*
X97148952Y-40955904D02*
X97028000Y-40955904D01*
X97015904Y-41076857D01*
X97028000Y-41064761D01*
X97052190Y-41052666D01*
X97112666Y-41052666D01*
X97136857Y-41064761D01*
X97148952Y-41076857D01*
X97161047Y-41101047D01*
X97161047Y-41161523D01*
X97148952Y-41185714D01*
X97136857Y-41197809D01*
X97112666Y-41209904D01*
X97052190Y-41209904D01*
X97028000Y-41197809D01*
X97015904Y-41185714D01*
X97269904Y-41185714D02*
X97282000Y-41197809D01*
X97269904Y-41209904D01*
X97257809Y-41197809D01*
X97269904Y-41185714D01*
X97269904Y-41209904D01*
X97439238Y-40955904D02*
X97463428Y-40955904D01*
X97487619Y-40968000D01*
X97499714Y-40980095D01*
X97511809Y-41004285D01*
X97523904Y-41052666D01*
X97523904Y-41113142D01*
X97511809Y-41161523D01*
X97499714Y-41185714D01*
X97487619Y-41197809D01*
X97463428Y-41209904D01*
X97439238Y-41209904D01*
X97415047Y-41197809D01*
X97402952Y-41185714D01*
X97390857Y-41161523D01*
X97378761Y-41113142D01*
X97378761Y-41052666D01*
X97390857Y-41004285D01*
X97402952Y-40980095D01*
X97415047Y-40968000D01*
X97439238Y-40955904D01*
X97777904Y-41185714D02*
X97765809Y-41197809D01*
X97729523Y-41209904D01*
X97705333Y-41209904D01*
X97669047Y-41197809D01*
X97644857Y-41173619D01*
X97632761Y-41149428D01*
X97620666Y-41101047D01*
X97620666Y-41064761D01*
X97632761Y-41016380D01*
X97644857Y-40992190D01*
X97669047Y-40968000D01*
X97705333Y-40955904D01*
X97729523Y-40955904D01*
X97765809Y-40968000D01*
X97777904Y-40980095D01*
X97850476Y-40955904D02*
X97995619Y-40955904D01*
X97923047Y-41209904D02*
X97923047Y-40955904D01*
X98213333Y-41209904D02*
X98068190Y-41209904D01*
X98140761Y-41209904D02*
X98140761Y-40955904D01*
X98116571Y-40992190D01*
X98092380Y-41016380D01*
X98068190Y-41028476D01*
X98455238Y-40968000D02*
X98431047Y-40955904D01*
X98394761Y-40955904D01*
X98358476Y-40968000D01*
X98334285Y-40992190D01*
X98322190Y-41016380D01*
X98310095Y-41064761D01*
X98310095Y-41101047D01*
X98322190Y-41149428D01*
X98334285Y-41173619D01*
X98358476Y-41197809D01*
X98394761Y-41209904D01*
X98418952Y-41209904D01*
X98455238Y-41197809D01*
X98467333Y-41185714D01*
X98467333Y-41101047D01*
X98418952Y-41101047D01*
D10*
X93433903Y-40755380D02*
X93433903Y-39755380D01*
X93671999Y-39755380D01*
X93814856Y-39803000D01*
X93910094Y-39898238D01*
X93957713Y-39993476D01*
X94005332Y-40183952D01*
X94005332Y-40326809D01*
X93957713Y-40517285D01*
X93910094Y-40612523D01*
X93814856Y-40707761D01*
X93671999Y-40755380D01*
X93433903Y-40755380D01*
X94481522Y-40755380D02*
X94671999Y-40755380D01*
X94767237Y-40707761D01*
X94814856Y-40660142D01*
X94910094Y-40517285D01*
X94957713Y-40326809D01*
X94957713Y-39945857D01*
X94910094Y-39850619D01*
X94862475Y-39803000D01*
X94767237Y-39755380D01*
X94576760Y-39755380D01*
X94481522Y-39803000D01*
X94433903Y-39850619D01*
X94386284Y-39945857D01*
X94386284Y-40183952D01*
X94433903Y-40279190D01*
X94481522Y-40326809D01*
X94576760Y-40374428D01*
X94767237Y-40374428D01*
X94862475Y-40326809D01*
X94910094Y-40279190D01*
X94957713Y-40183952D01*
D11*
%TO.C,R1*%
X74790904Y-49409047D02*
X74790904Y-49554190D01*
X74790904Y-49481619D02*
X74536904Y-49481619D01*
X74573190Y-49505809D01*
X74597380Y-49530000D01*
X74609476Y-49554190D01*
X74536904Y-49251809D02*
X74536904Y-49227619D01*
X74549000Y-49203428D01*
X74561095Y-49191333D01*
X74585285Y-49179238D01*
X74633666Y-49167142D01*
X74694142Y-49167142D01*
X74742523Y-49179238D01*
X74766714Y-49191333D01*
X74778809Y-49203428D01*
X74790904Y-49227619D01*
X74790904Y-49251809D01*
X74778809Y-49276000D01*
X74766714Y-49288095D01*
X74742523Y-49300190D01*
X74694142Y-49312285D01*
X74633666Y-49312285D01*
X74585285Y-49300190D01*
X74561095Y-49288095D01*
X74549000Y-49276000D01*
X74536904Y-49251809D01*
X74790904Y-49058285D02*
X74536904Y-49058285D01*
X74694142Y-49034095D02*
X74790904Y-48961523D01*
X74621571Y-48961523D02*
X74718333Y-49058285D01*
X74790904Y-48707523D02*
X74669952Y-48792190D01*
X74790904Y-48852666D02*
X74536904Y-48852666D01*
X74536904Y-48755904D01*
X74549000Y-48731714D01*
X74561095Y-48719619D01*
X74585285Y-48707523D01*
X74621571Y-48707523D01*
X74645761Y-48719619D01*
X74657857Y-48731714D01*
X74669952Y-48755904D01*
X74669952Y-48852666D01*
X74790904Y-48272095D02*
X74790904Y-48417238D01*
X74790904Y-48344666D02*
X74536904Y-48344666D01*
X74573190Y-48368857D01*
X74597380Y-48393047D01*
X74609476Y-48417238D01*
X74790904Y-48175333D02*
X74536904Y-47981809D01*
X74536904Y-48139047D02*
X74549000Y-48114857D01*
X74573190Y-48102761D01*
X74597380Y-48114857D01*
X74609476Y-48139047D01*
X74597380Y-48163238D01*
X74573190Y-48175333D01*
X74549000Y-48163238D01*
X74536904Y-48139047D01*
X74778809Y-47993904D02*
X74754619Y-47981809D01*
X74730428Y-47993904D01*
X74718333Y-48018095D01*
X74730428Y-48042285D01*
X74754619Y-48054380D01*
X74778809Y-48042285D01*
X74790904Y-48018095D01*
X74778809Y-47993904D01*
D12*
X74094952Y-48834666D02*
X73904476Y-48968000D01*
X74094952Y-49063238D02*
X73694952Y-49063238D01*
X73694952Y-48910857D01*
X73714000Y-48872761D01*
X73733047Y-48853714D01*
X73771142Y-48834666D01*
X73828285Y-48834666D01*
X73866380Y-48853714D01*
X73885428Y-48872761D01*
X73904476Y-48910857D01*
X73904476Y-49063238D01*
X74094952Y-48453714D02*
X74094952Y-48682285D01*
X74094952Y-48568000D02*
X73694952Y-48568000D01*
X73752095Y-48606095D01*
X73790190Y-48644190D01*
X73809238Y-48682285D01*
D10*
%TO.C,U3*%
X87688380Y-41499466D02*
X87688380Y-40928037D01*
X88688380Y-41213751D02*
X87688380Y-41213751D01*
X88688380Y-40594704D02*
X87688380Y-40594704D01*
X87688380Y-40213751D01*
X87736000Y-40118513D01*
X87783619Y-40070894D01*
X87878857Y-40023275D01*
X88021714Y-40023275D01*
X88116952Y-40070894D01*
X88164571Y-40118513D01*
X88212190Y-40213751D01*
X88212190Y-40594704D01*
X88021714Y-39166132D02*
X88688380Y-39166132D01*
X87640761Y-39404228D02*
X88355047Y-39642323D01*
X88355047Y-39023275D01*
X87688380Y-38451847D02*
X87688380Y-38356609D01*
X87736000Y-38261370D01*
X87783619Y-38213751D01*
X87878857Y-38166132D01*
X88069333Y-38118513D01*
X88307428Y-38118513D01*
X88497904Y-38166132D01*
X88593142Y-38213751D01*
X88640761Y-38261370D01*
X88688380Y-38356609D01*
X88688380Y-38451847D01*
X88640761Y-38547085D01*
X88593142Y-38594704D01*
X88497904Y-38642323D01*
X88307428Y-38689942D01*
X88069333Y-38689942D01*
X87878857Y-38642323D01*
X87783619Y-38594704D01*
X87736000Y-38547085D01*
X87688380Y-38451847D01*
X87688380Y-37213751D02*
X87688380Y-37689942D01*
X88164571Y-37737561D01*
X88116952Y-37689942D01*
X88069333Y-37594704D01*
X88069333Y-37356609D01*
X88116952Y-37261370D01*
X88164571Y-37213751D01*
X88259809Y-37166132D01*
X88497904Y-37166132D01*
X88593142Y-37213751D01*
X88640761Y-37261370D01*
X88688380Y-37356609D01*
X88688380Y-37594704D01*
X88640761Y-37689942D01*
X88593142Y-37737561D01*
X87688380Y-36308990D02*
X87688380Y-36499466D01*
X87736000Y-36594704D01*
X87783619Y-36642323D01*
X87926476Y-36737561D01*
X88116952Y-36785180D01*
X88497904Y-36785180D01*
X88593142Y-36737561D01*
X88640761Y-36689942D01*
X88688380Y-36594704D01*
X88688380Y-36404228D01*
X88640761Y-36308990D01*
X88593142Y-36261370D01*
X88497904Y-36213751D01*
X88259809Y-36213751D01*
X88164571Y-36261370D01*
X88116952Y-36308990D01*
X88069333Y-36404228D01*
X88069333Y-36594704D01*
X88116952Y-36689942D01*
X88164571Y-36737561D01*
X88259809Y-36785180D01*
X84299333Y-39555656D02*
X85092666Y-39555656D01*
X85186000Y-39508990D01*
X85232666Y-39462323D01*
X85279333Y-39368990D01*
X85279333Y-39182323D01*
X85232666Y-39088990D01*
X85186000Y-39042323D01*
X85092666Y-38995656D01*
X84299333Y-38995656D01*
X84299333Y-38622323D02*
X84299333Y-38015656D01*
X84672666Y-38342323D01*
X84672666Y-38202323D01*
X84719333Y-38108990D01*
X84766000Y-38062323D01*
X84859333Y-38015656D01*
X85092666Y-38015656D01*
X85186000Y-38062323D01*
X85232666Y-38108990D01*
X85279333Y-38202323D01*
X85279333Y-38482323D01*
X85232666Y-38575656D01*
X85186000Y-38622323D01*
D11*
%TO.C,R10*%
X86023849Y-32319904D02*
X85902896Y-32319904D01*
X85890801Y-32440857D01*
X85902896Y-32428761D01*
X85927087Y-32416666D01*
X85987563Y-32416666D01*
X86011753Y-32428761D01*
X86023849Y-32440857D01*
X86035944Y-32465047D01*
X86035944Y-32525523D01*
X86023849Y-32549714D01*
X86011753Y-32561809D01*
X85987563Y-32573904D01*
X85927087Y-32573904D01*
X85902896Y-32561809D01*
X85890801Y-32549714D01*
X86144801Y-32573904D02*
X86144801Y-32319904D01*
X86168992Y-32477142D02*
X86241563Y-32573904D01*
X86241563Y-32404571D02*
X86144801Y-32501333D01*
X86483468Y-32573904D02*
X86338325Y-32573904D01*
X86410896Y-32573904D02*
X86410896Y-32319904D01*
X86386706Y-32356190D01*
X86362515Y-32380380D01*
X86338325Y-32392476D01*
X86737468Y-32573904D02*
X86652801Y-32452952D01*
X86592325Y-32573904D02*
X86592325Y-32319904D01*
X86689087Y-32319904D01*
X86713277Y-32332000D01*
X86725372Y-32344095D01*
X86737468Y-32368285D01*
X86737468Y-32404571D01*
X86725372Y-32428761D01*
X86713277Y-32440857D01*
X86689087Y-32452952D01*
X86592325Y-32452952D01*
X87172896Y-32573904D02*
X87027753Y-32573904D01*
X87100325Y-32573904D02*
X87100325Y-32319904D01*
X87076134Y-32356190D01*
X87051944Y-32380380D01*
X87027753Y-32392476D01*
X87269658Y-32573904D02*
X87463182Y-32319904D01*
X87305944Y-32319904D02*
X87330134Y-32332000D01*
X87342230Y-32356190D01*
X87330134Y-32380380D01*
X87305944Y-32392476D01*
X87281753Y-32380380D01*
X87269658Y-32356190D01*
X87281753Y-32332000D01*
X87305944Y-32319904D01*
X87451087Y-32561809D02*
X87463182Y-32537619D01*
X87451087Y-32513428D01*
X87426896Y-32501333D01*
X87402706Y-32513428D01*
X87390611Y-32537619D01*
X87402706Y-32561809D01*
X87426896Y-32573904D01*
X87451087Y-32561809D01*
D12*
X86864857Y-31115952D02*
X86731523Y-30925476D01*
X86636285Y-31115952D02*
X86636285Y-30715952D01*
X86788666Y-30715952D01*
X86826761Y-30735000D01*
X86845809Y-30754047D01*
X86864857Y-30792142D01*
X86864857Y-30849285D01*
X86845809Y-30887380D01*
X86826761Y-30906428D01*
X86788666Y-30925476D01*
X86636285Y-30925476D01*
X87245809Y-31115952D02*
X87017238Y-31115952D01*
X87131523Y-31115952D02*
X87131523Y-30715952D01*
X87093428Y-30773095D01*
X87055333Y-30811190D01*
X87017238Y-30830238D01*
X87493428Y-30715952D02*
X87531523Y-30715952D01*
X87569619Y-30735000D01*
X87588666Y-30754047D01*
X87607714Y-30792142D01*
X87626761Y-30868333D01*
X87626761Y-30963571D01*
X87607714Y-31039761D01*
X87588666Y-31077857D01*
X87569619Y-31096904D01*
X87531523Y-31115952D01*
X87493428Y-31115952D01*
X87455333Y-31096904D01*
X87436285Y-31077857D01*
X87417238Y-31039761D01*
X87398190Y-30963571D01*
X87398190Y-30868333D01*
X87417238Y-30792142D01*
X87436285Y-30754047D01*
X87455333Y-30735000D01*
X87493428Y-30715952D01*
D10*
%TO.C,JP3*%
X63428666Y-55511380D02*
X63428666Y-56225666D01*
X63381047Y-56368523D01*
X63285809Y-56463761D01*
X63142952Y-56511380D01*
X63047714Y-56511380D01*
X63904857Y-56511380D02*
X63904857Y-55511380D01*
X64285809Y-55511380D01*
X64381047Y-55559000D01*
X64428666Y-55606619D01*
X64476285Y-55701857D01*
X64476285Y-55844714D01*
X64428666Y-55939952D01*
X64381047Y-55987571D01*
X64285809Y-56035190D01*
X63904857Y-56035190D01*
X64809619Y-55511380D02*
X65428666Y-55511380D01*
X65095333Y-55892333D01*
X65238190Y-55892333D01*
X65333428Y-55939952D01*
X65381047Y-55987571D01*
X65428666Y-56082809D01*
X65428666Y-56320904D01*
X65381047Y-56416142D01*
X65333428Y-56463761D01*
X65238190Y-56511380D01*
X64952476Y-56511380D01*
X64857238Y-56463761D01*
X64809619Y-56416142D01*
%TO.C,R6*%
X86625380Y-33689285D02*
X86625380Y-34260714D01*
X86625380Y-33975000D02*
X85625380Y-33975000D01*
X85768238Y-34070238D01*
X85863476Y-34165476D01*
X85911095Y-34260714D01*
X86625380Y-33260714D02*
X85625380Y-33260714D01*
X86625380Y-32689285D02*
X86053952Y-33117857D01*
X85625380Y-32689285D02*
X86196809Y-33260714D01*
D12*
X85017952Y-33541666D02*
X84827476Y-33675000D01*
X85017952Y-33770238D02*
X84617952Y-33770238D01*
X84617952Y-33617857D01*
X84637000Y-33579761D01*
X84656047Y-33560714D01*
X84694142Y-33541666D01*
X84751285Y-33541666D01*
X84789380Y-33560714D01*
X84808428Y-33579761D01*
X84827476Y-33617857D01*
X84827476Y-33770238D01*
X84617952Y-33198809D02*
X84617952Y-33275000D01*
X84637000Y-33313095D01*
X84656047Y-33332142D01*
X84713190Y-33370238D01*
X84789380Y-33389285D01*
X84941761Y-33389285D01*
X84979857Y-33370238D01*
X84998904Y-33351190D01*
X85017952Y-33313095D01*
X85017952Y-33236904D01*
X84998904Y-33198809D01*
X84979857Y-33179761D01*
X84941761Y-33160714D01*
X84846523Y-33160714D01*
X84808428Y-33179761D01*
X84789380Y-33198809D01*
X84770333Y-33236904D01*
X84770333Y-33313095D01*
X84789380Y-33351190D01*
X84808428Y-33370238D01*
X84846523Y-33389285D01*
D10*
%TO.C,C12*%
X88260142Y-62376714D02*
X88260142Y-63043380D01*
X88022047Y-61995761D02*
X87783952Y-62710047D01*
X88403000Y-62710047D01*
X88688714Y-62043380D02*
X89355380Y-62043380D01*
X88926809Y-63043380D01*
X89926809Y-62043380D02*
X90022047Y-62043380D01*
X90117285Y-62091000D01*
X90164904Y-62138619D01*
X90212523Y-62233857D01*
X90260142Y-62424333D01*
X90260142Y-62662428D01*
X90212523Y-62852904D01*
X90164904Y-62948142D01*
X90117285Y-62995761D01*
X90022047Y-63043380D01*
X89926809Y-63043380D01*
X89831571Y-62995761D01*
X89783952Y-62948142D01*
X89736333Y-62852904D01*
X89688714Y-62662428D01*
X89688714Y-62424333D01*
X89736333Y-62233857D01*
X89783952Y-62138619D01*
X89831571Y-62091000D01*
X89926809Y-62043380D01*
X90688714Y-62376714D02*
X90688714Y-63043380D01*
X90688714Y-62471952D02*
X90736333Y-62424333D01*
X90831571Y-62376714D01*
X90974428Y-62376714D01*
X91069666Y-62424333D01*
X91117285Y-62519571D01*
X91117285Y-63043380D01*
X91926809Y-62519571D02*
X91593476Y-62519571D01*
X91593476Y-63043380D02*
X91593476Y-62043380D01*
X92069666Y-62043380D01*
D12*
X89645857Y-61303857D02*
X89626809Y-61322904D01*
X89569666Y-61341952D01*
X89531571Y-61341952D01*
X89474428Y-61322904D01*
X89436333Y-61284809D01*
X89417285Y-61246714D01*
X89398238Y-61170523D01*
X89398238Y-61113380D01*
X89417285Y-61037190D01*
X89436333Y-60999095D01*
X89474428Y-60961000D01*
X89531571Y-60941952D01*
X89569666Y-60941952D01*
X89626809Y-60961000D01*
X89645857Y-60980047D01*
X90026809Y-61341952D02*
X89798238Y-61341952D01*
X89912523Y-61341952D02*
X89912523Y-60941952D01*
X89874428Y-60999095D01*
X89836333Y-61037190D01*
X89798238Y-61056238D01*
X90179190Y-60980047D02*
X90198238Y-60961000D01*
X90236333Y-60941952D01*
X90331571Y-60941952D01*
X90369666Y-60961000D01*
X90388714Y-60980047D01*
X90407761Y-61018142D01*
X90407761Y-61056238D01*
X90388714Y-61113380D01*
X90160142Y-61341952D01*
X90407761Y-61341952D01*
D11*
%TO.C,C4*%
X72419333Y-50715904D02*
X72274190Y-50715904D01*
X72346761Y-50715904D02*
X72346761Y-50461904D01*
X72322571Y-50498190D01*
X72298380Y-50522380D01*
X72274190Y-50534476D01*
X72576571Y-50461904D02*
X72600761Y-50461904D01*
X72624952Y-50474000D01*
X72637047Y-50486095D01*
X72649142Y-50510285D01*
X72661238Y-50558666D01*
X72661238Y-50619142D01*
X72649142Y-50667523D01*
X72637047Y-50691714D01*
X72624952Y-50703809D01*
X72600761Y-50715904D01*
X72576571Y-50715904D01*
X72552380Y-50703809D01*
X72540285Y-50691714D01*
X72528190Y-50667523D01*
X72516095Y-50619142D01*
X72516095Y-50558666D01*
X72528190Y-50510285D01*
X72540285Y-50486095D01*
X72552380Y-50474000D01*
X72576571Y-50461904D01*
X72770095Y-50546571D02*
X72770095Y-50715904D01*
X72770095Y-50570761D02*
X72782190Y-50558666D01*
X72806380Y-50546571D01*
X72842666Y-50546571D01*
X72866857Y-50558666D01*
X72878952Y-50582857D01*
X72878952Y-50715904D01*
X73084571Y-50582857D02*
X72999904Y-50582857D01*
X72999904Y-50715904D02*
X72999904Y-50461904D01*
X73120857Y-50461904D01*
X73544190Y-50715904D02*
X73399047Y-50715904D01*
X73471619Y-50715904D02*
X73471619Y-50461904D01*
X73447428Y-50498190D01*
X73423238Y-50522380D01*
X73399047Y-50534476D01*
X73701428Y-50461904D02*
X73725619Y-50461904D01*
X73749809Y-50474000D01*
X73761904Y-50486095D01*
X73774000Y-50510285D01*
X73786095Y-50558666D01*
X73786095Y-50619142D01*
X73774000Y-50667523D01*
X73761904Y-50691714D01*
X73749809Y-50703809D01*
X73725619Y-50715904D01*
X73701428Y-50715904D01*
X73677238Y-50703809D01*
X73665142Y-50691714D01*
X73653047Y-50667523D01*
X73640952Y-50619142D01*
X73640952Y-50558666D01*
X73653047Y-50510285D01*
X73665142Y-50486095D01*
X73677238Y-50474000D01*
X73701428Y-50461904D01*
X73858666Y-50461904D02*
X73943333Y-50715904D01*
X74028000Y-50461904D01*
D12*
X73072333Y-51143857D02*
X73053285Y-51162904D01*
X72996142Y-51181952D01*
X72958047Y-51181952D01*
X72900904Y-51162904D01*
X72862809Y-51124809D01*
X72843761Y-51086714D01*
X72824714Y-51010523D01*
X72824714Y-50953380D01*
X72843761Y-50877190D01*
X72862809Y-50839095D01*
X72900904Y-50801000D01*
X72958047Y-50781952D01*
X72996142Y-50781952D01*
X73053285Y-50801000D01*
X73072333Y-50820047D01*
X73415190Y-50915285D02*
X73415190Y-51181952D01*
X73319952Y-50762904D02*
X73224714Y-51048619D01*
X73472333Y-51048619D01*
D10*
%TO.C,C6*%
X77052380Y-53302714D02*
X76052380Y-53302714D01*
X76052380Y-53064619D01*
X76100000Y-52921761D01*
X76195238Y-52826523D01*
X76290476Y-52778904D01*
X76480952Y-52731285D01*
X76623809Y-52731285D01*
X76814285Y-52778904D01*
X76909523Y-52826523D01*
X77004761Y-52921761D01*
X77052380Y-53064619D01*
X77052380Y-53302714D01*
X77052380Y-52302714D02*
X76052380Y-52302714D01*
X77052380Y-51731285D01*
X76052380Y-51731285D01*
X77052380Y-51255095D02*
X76052380Y-51255095D01*
X76052380Y-50874142D01*
X76100000Y-50778904D01*
X76147619Y-50731285D01*
X76242857Y-50683666D01*
X76385714Y-50683666D01*
X76480952Y-50731285D01*
X76528571Y-50778904D01*
X76576190Y-50874142D01*
X76576190Y-51255095D01*
D11*
%TO.C,C2*%
X71234904Y-49112714D02*
X71234904Y-49257857D01*
X71234904Y-49185285D02*
X70980904Y-49185285D01*
X71017190Y-49209476D01*
X71041380Y-49233666D01*
X71053476Y-49257857D01*
X71065571Y-48895000D02*
X71234904Y-48895000D01*
X71065571Y-49003857D02*
X71198619Y-49003857D01*
X71222809Y-48991761D01*
X71234904Y-48967571D01*
X71234904Y-48931285D01*
X71222809Y-48907095D01*
X71210714Y-48895000D01*
X71101857Y-48689380D02*
X71101857Y-48774047D01*
X71234904Y-48774047D02*
X70980904Y-48774047D01*
X70980904Y-48653095D01*
X71234904Y-48229761D02*
X71234904Y-48374904D01*
X71234904Y-48302333D02*
X70980904Y-48302333D01*
X71017190Y-48326523D01*
X71041380Y-48350714D01*
X71053476Y-48374904D01*
X70980904Y-48012047D02*
X70980904Y-48060428D01*
X70993000Y-48084619D01*
X71005095Y-48096714D01*
X71041380Y-48120904D01*
X71089761Y-48133000D01*
X71186523Y-48133000D01*
X71210714Y-48120904D01*
X71222809Y-48108809D01*
X71234904Y-48084619D01*
X71234904Y-48036238D01*
X71222809Y-48012047D01*
X71210714Y-47999952D01*
X71186523Y-47987857D01*
X71126047Y-47987857D01*
X71101857Y-47999952D01*
X71089761Y-48012047D01*
X71077666Y-48036238D01*
X71077666Y-48084619D01*
X71089761Y-48108809D01*
X71101857Y-48120904D01*
X71126047Y-48133000D01*
X70980904Y-47915285D02*
X71234904Y-47830619D01*
X70980904Y-47745952D01*
D12*
X72278857Y-48834666D02*
X72297904Y-48853714D01*
X72316952Y-48910857D01*
X72316952Y-48948952D01*
X72297904Y-49006095D01*
X72259809Y-49044190D01*
X72221714Y-49063238D01*
X72145523Y-49082285D01*
X72088380Y-49082285D01*
X72012190Y-49063238D01*
X71974095Y-49044190D01*
X71936000Y-49006095D01*
X71916952Y-48948952D01*
X71916952Y-48910857D01*
X71936000Y-48853714D01*
X71955047Y-48834666D01*
X71955047Y-48682285D02*
X71936000Y-48663238D01*
X71916952Y-48625142D01*
X71916952Y-48529904D01*
X71936000Y-48491809D01*
X71955047Y-48472761D01*
X71993142Y-48453714D01*
X72031238Y-48453714D01*
X72088380Y-48472761D01*
X72316952Y-48701333D01*
X72316952Y-48453714D01*
D11*
%TO.C,J2*%
X90623571Y-47426857D02*
X90659857Y-47438952D01*
X90671952Y-47451047D01*
X90684047Y-47475238D01*
X90684047Y-47511523D01*
X90671952Y-47535714D01*
X90659857Y-47547809D01*
X90635666Y-47559904D01*
X90538904Y-47559904D01*
X90538904Y-47305904D01*
X90623571Y-47305904D01*
X90647761Y-47318000D01*
X90659857Y-47330095D01*
X90671952Y-47354285D01*
X90671952Y-47378476D01*
X90659857Y-47402666D01*
X90647761Y-47414761D01*
X90623571Y-47426857D01*
X90538904Y-47426857D01*
X90901761Y-47559904D02*
X90901761Y-47426857D01*
X90889666Y-47402666D01*
X90865476Y-47390571D01*
X90817095Y-47390571D01*
X90792904Y-47402666D01*
X90901761Y-47547809D02*
X90877571Y-47559904D01*
X90817095Y-47559904D01*
X90792904Y-47547809D01*
X90780809Y-47523619D01*
X90780809Y-47499428D01*
X90792904Y-47475238D01*
X90817095Y-47463142D01*
X90877571Y-47463142D01*
X90901761Y-47451047D01*
X90986428Y-47390571D02*
X91083190Y-47390571D01*
X91022714Y-47305904D02*
X91022714Y-47523619D01*
X91034809Y-47547809D01*
X91059000Y-47559904D01*
X91083190Y-47559904D01*
X91131571Y-47390571D02*
X91228333Y-47390571D01*
X91167857Y-47305904D02*
X91167857Y-47523619D01*
X91179952Y-47547809D01*
X91204142Y-47559904D01*
X91228333Y-47559904D01*
X91409761Y-47547809D02*
X91385571Y-47559904D01*
X91337190Y-47559904D01*
X91313000Y-47547809D01*
X91300904Y-47523619D01*
X91300904Y-47426857D01*
X91313000Y-47402666D01*
X91337190Y-47390571D01*
X91385571Y-47390571D01*
X91409761Y-47402666D01*
X91421857Y-47426857D01*
X91421857Y-47451047D01*
X91300904Y-47475238D01*
X91530714Y-47559904D02*
X91530714Y-47390571D01*
X91530714Y-47438952D02*
X91542809Y-47414761D01*
X91554904Y-47402666D01*
X91579095Y-47390571D01*
X91603285Y-47390571D01*
X91663761Y-47390571D02*
X91724238Y-47559904D01*
X91784714Y-47390571D02*
X91724238Y-47559904D01*
X91700047Y-47620380D01*
X91687952Y-47632476D01*
X91663761Y-47644571D01*
X91821000Y-47584095D02*
X92014523Y-47584095D01*
X92220142Y-47535714D02*
X92208047Y-47547809D01*
X92171761Y-47559904D01*
X92147571Y-47559904D01*
X92111285Y-47547809D01*
X92087095Y-47523619D01*
X92075000Y-47499428D01*
X92062904Y-47451047D01*
X92062904Y-47414761D01*
X92075000Y-47366380D01*
X92087095Y-47342190D01*
X92111285Y-47318000D01*
X92147571Y-47305904D01*
X92171761Y-47305904D01*
X92208047Y-47318000D01*
X92220142Y-47330095D01*
X92365285Y-47559904D02*
X92341095Y-47547809D01*
X92329000Y-47535714D01*
X92316904Y-47511523D01*
X92316904Y-47438952D01*
X92329000Y-47414761D01*
X92341095Y-47402666D01*
X92365285Y-47390571D01*
X92401571Y-47390571D01*
X92425761Y-47402666D01*
X92437857Y-47414761D01*
X92449952Y-47438952D01*
X92449952Y-47511523D01*
X92437857Y-47535714D01*
X92425761Y-47547809D01*
X92401571Y-47559904D01*
X92365285Y-47559904D01*
X92558809Y-47390571D02*
X92558809Y-47559904D01*
X92558809Y-47414761D02*
X92570904Y-47402666D01*
X92595095Y-47390571D01*
X92631380Y-47390571D01*
X92655571Y-47402666D01*
X92667666Y-47426857D01*
X92667666Y-47559904D01*
X92788619Y-47390571D02*
X92788619Y-47559904D01*
X92788619Y-47414761D02*
X92800714Y-47402666D01*
X92824904Y-47390571D01*
X92861190Y-47390571D01*
X92885380Y-47402666D01*
X92897476Y-47426857D01*
X92897476Y-47559904D01*
X93115190Y-47547809D02*
X93091000Y-47559904D01*
X93042619Y-47559904D01*
X93018428Y-47547809D01*
X93006333Y-47523619D01*
X93006333Y-47426857D01*
X93018428Y-47402666D01*
X93042619Y-47390571D01*
X93091000Y-47390571D01*
X93115190Y-47402666D01*
X93127285Y-47426857D01*
X93127285Y-47451047D01*
X93006333Y-47475238D01*
X93345000Y-47547809D02*
X93320809Y-47559904D01*
X93272428Y-47559904D01*
X93248238Y-47547809D01*
X93236142Y-47535714D01*
X93224047Y-47511523D01*
X93224047Y-47438952D01*
X93236142Y-47414761D01*
X93248238Y-47402666D01*
X93272428Y-47390571D01*
X93320809Y-47390571D01*
X93345000Y-47402666D01*
X93417571Y-47390571D02*
X93514333Y-47390571D01*
X93453857Y-47305904D02*
X93453857Y-47523619D01*
X93465952Y-47547809D01*
X93490142Y-47559904D01*
X93514333Y-47559904D01*
X93635285Y-47559904D02*
X93611095Y-47547809D01*
X93599000Y-47535714D01*
X93586904Y-47511523D01*
X93586904Y-47438952D01*
X93599000Y-47414761D01*
X93611095Y-47402666D01*
X93635285Y-47390571D01*
X93671571Y-47390571D01*
X93695761Y-47402666D01*
X93707857Y-47414761D01*
X93719952Y-47438952D01*
X93719952Y-47511523D01*
X93707857Y-47535714D01*
X93695761Y-47547809D01*
X93671571Y-47559904D01*
X93635285Y-47559904D01*
X93828809Y-47559904D02*
X93828809Y-47390571D01*
X93828809Y-47438952D02*
X93840904Y-47414761D01*
X93853000Y-47402666D01*
X93877190Y-47390571D01*
X93901380Y-47390571D01*
D10*
X90942380Y-48794333D02*
X91656666Y-48794333D01*
X91799523Y-48841952D01*
X91894761Y-48937190D01*
X91942380Y-49080047D01*
X91942380Y-49175285D01*
X91037619Y-48365761D02*
X90990000Y-48318142D01*
X90942380Y-48222904D01*
X90942380Y-47984809D01*
X90990000Y-47889571D01*
X91037619Y-47841952D01*
X91132857Y-47794333D01*
X91228095Y-47794333D01*
X91370952Y-47841952D01*
X91942380Y-48413380D01*
X91942380Y-47794333D01*
D11*
%TO.C,R2*%
X86257190Y-44310904D02*
X86112047Y-44310904D01*
X86184619Y-44310904D02*
X86184619Y-44056904D01*
X86160428Y-44093190D01*
X86136238Y-44117380D01*
X86112047Y-44129476D01*
X86366047Y-44286714D02*
X86378142Y-44298809D01*
X86366047Y-44310904D01*
X86353952Y-44298809D01*
X86366047Y-44286714D01*
X86366047Y-44310904D01*
X86595857Y-44056904D02*
X86547476Y-44056904D01*
X86523285Y-44069000D01*
X86511190Y-44081095D01*
X86487000Y-44117380D01*
X86474904Y-44165761D01*
X86474904Y-44262523D01*
X86487000Y-44286714D01*
X86499095Y-44298809D01*
X86523285Y-44310904D01*
X86571666Y-44310904D01*
X86595857Y-44298809D01*
X86607952Y-44286714D01*
X86620047Y-44262523D01*
X86620047Y-44202047D01*
X86607952Y-44177857D01*
X86595857Y-44165761D01*
X86571666Y-44153666D01*
X86523285Y-44153666D01*
X86499095Y-44165761D01*
X86487000Y-44177857D01*
X86474904Y-44202047D01*
X86837761Y-44056904D02*
X86789380Y-44056904D01*
X86765190Y-44069000D01*
X86753095Y-44081095D01*
X86728904Y-44117380D01*
X86716809Y-44165761D01*
X86716809Y-44262523D01*
X86728904Y-44286714D01*
X86741000Y-44298809D01*
X86765190Y-44310904D01*
X86813571Y-44310904D01*
X86837761Y-44298809D01*
X86849857Y-44286714D01*
X86861952Y-44262523D01*
X86861952Y-44202047D01*
X86849857Y-44177857D01*
X86837761Y-44165761D01*
X86813571Y-44153666D01*
X86765190Y-44153666D01*
X86741000Y-44165761D01*
X86728904Y-44177857D01*
X86716809Y-44202047D01*
X86970809Y-44310904D02*
X86970809Y-44056904D01*
X87115952Y-44310904D02*
X87007095Y-44165761D01*
X87115952Y-44056904D02*
X86970809Y-44202047D01*
D12*
X86547333Y-43561952D02*
X86414000Y-43371476D01*
X86318761Y-43561952D02*
X86318761Y-43161952D01*
X86471142Y-43161952D01*
X86509238Y-43181000D01*
X86528285Y-43200047D01*
X86547333Y-43238142D01*
X86547333Y-43295285D01*
X86528285Y-43333380D01*
X86509238Y-43352428D01*
X86471142Y-43371476D01*
X86318761Y-43371476D01*
X86699714Y-43200047D02*
X86718761Y-43181000D01*
X86756857Y-43161952D01*
X86852095Y-43161952D01*
X86890190Y-43181000D01*
X86909238Y-43200047D01*
X86928285Y-43238142D01*
X86928285Y-43276238D01*
X86909238Y-43333380D01*
X86680666Y-43561952D01*
X86928285Y-43561952D01*
D10*
%TO.C,L1*%
X85145619Y-59327190D02*
X85098000Y-59279571D01*
X85050380Y-59184333D01*
X85050380Y-58946238D01*
X85098000Y-58851000D01*
X85145619Y-58803380D01*
X85240857Y-58755761D01*
X85336095Y-58755761D01*
X85478952Y-58803380D01*
X86050380Y-59374809D01*
X86050380Y-58755761D01*
X85955142Y-58327190D02*
X86002761Y-58279571D01*
X86050380Y-58327190D01*
X86002761Y-58374809D01*
X85955142Y-58327190D01*
X86050380Y-58327190D01*
X85145619Y-57898619D02*
X85098000Y-57851000D01*
X85050380Y-57755761D01*
X85050380Y-57517666D01*
X85098000Y-57422428D01*
X85145619Y-57374809D01*
X85240857Y-57327190D01*
X85336095Y-57327190D01*
X85478952Y-57374809D01*
X86050380Y-57946238D01*
X86050380Y-57327190D01*
X85383714Y-56470047D02*
X86050380Y-56470047D01*
X85383714Y-56898619D02*
X85907523Y-56898619D01*
X86002761Y-56851000D01*
X86050380Y-56755761D01*
X86050380Y-56612904D01*
X86002761Y-56517666D01*
X85955142Y-56470047D01*
X86050380Y-55993857D02*
X85050380Y-55993857D01*
X85526571Y-55993857D02*
X85526571Y-55422428D01*
X86050380Y-55422428D02*
X85050380Y-55422428D01*
X84526380Y-57517666D02*
X84526380Y-57993857D01*
X83526380Y-57993857D01*
X84526380Y-56660523D02*
X84526380Y-57231952D01*
X84526380Y-56946238D02*
X83526380Y-56946238D01*
X83669238Y-57041476D01*
X83764476Y-57136714D01*
X83812095Y-57231952D01*
%TO.C,C8*%
X78430380Y-53302714D02*
X77430380Y-53302714D01*
X77430380Y-53064619D01*
X77478000Y-52921761D01*
X77573238Y-52826523D01*
X77668476Y-52778904D01*
X77858952Y-52731285D01*
X78001809Y-52731285D01*
X78192285Y-52778904D01*
X78287523Y-52826523D01*
X78382761Y-52921761D01*
X78430380Y-53064619D01*
X78430380Y-53302714D01*
X78430380Y-52302714D02*
X77430380Y-52302714D01*
X78430380Y-51731285D01*
X77430380Y-51731285D01*
X78430380Y-51255095D02*
X77430380Y-51255095D01*
X77430380Y-50874142D01*
X77478000Y-50778904D01*
X77525619Y-50731285D01*
X77620857Y-50683666D01*
X77763714Y-50683666D01*
X77858952Y-50731285D01*
X77906571Y-50778904D01*
X77954190Y-50874142D01*
X77954190Y-51255095D01*
D11*
%TO.C,R11*%
X90532857Y-40701904D02*
X90411904Y-40701904D01*
X90399809Y-40822857D01*
X90411904Y-40810761D01*
X90436095Y-40798666D01*
X90496571Y-40798666D01*
X90520761Y-40810761D01*
X90532857Y-40822857D01*
X90544952Y-40847047D01*
X90544952Y-40907523D01*
X90532857Y-40931714D01*
X90520761Y-40943809D01*
X90496571Y-40955904D01*
X90436095Y-40955904D01*
X90411904Y-40943809D01*
X90399809Y-40931714D01*
X90653809Y-40955904D02*
X90653809Y-40701904D01*
X90678000Y-40859142D02*
X90750571Y-40955904D01*
X90750571Y-40786571D02*
X90653809Y-40883333D01*
X90992476Y-40955904D02*
X90847333Y-40955904D01*
X90919904Y-40955904D02*
X90919904Y-40701904D01*
X90895714Y-40738190D01*
X90871523Y-40762380D01*
X90847333Y-40774476D01*
X91246476Y-40955904D02*
X91161809Y-40834952D01*
X91101333Y-40955904D02*
X91101333Y-40701904D01*
X91198095Y-40701904D01*
X91222285Y-40714000D01*
X91234380Y-40726095D01*
X91246476Y-40750285D01*
X91246476Y-40786571D01*
X91234380Y-40810761D01*
X91222285Y-40822857D01*
X91198095Y-40834952D01*
X91101333Y-40834952D01*
X91681904Y-40955904D02*
X91536761Y-40955904D01*
X91609333Y-40955904D02*
X91609333Y-40701904D01*
X91585142Y-40738190D01*
X91560952Y-40762380D01*
X91536761Y-40774476D01*
X91778666Y-40955904D02*
X91972190Y-40701904D01*
X91814952Y-40701904D02*
X91839142Y-40714000D01*
X91851238Y-40738190D01*
X91839142Y-40762380D01*
X91814952Y-40774476D01*
X91790761Y-40762380D01*
X91778666Y-40738190D01*
X91790761Y-40714000D01*
X91814952Y-40701904D01*
X91960095Y-40943809D02*
X91972190Y-40919619D01*
X91960095Y-40895428D01*
X91935904Y-40883333D01*
X91911714Y-40895428D01*
X91899619Y-40919619D01*
X91911714Y-40943809D01*
X91935904Y-40955904D01*
X91960095Y-40943809D01*
D12*
X90928857Y-41783952D02*
X90795523Y-41593476D01*
X90700285Y-41783952D02*
X90700285Y-41383952D01*
X90852666Y-41383952D01*
X90890761Y-41403000D01*
X90909809Y-41422047D01*
X90928857Y-41460142D01*
X90928857Y-41517285D01*
X90909809Y-41555380D01*
X90890761Y-41574428D01*
X90852666Y-41593476D01*
X90700285Y-41593476D01*
X91309809Y-41783952D02*
X91081238Y-41783952D01*
X91195523Y-41783952D02*
X91195523Y-41383952D01*
X91157428Y-41441095D01*
X91119333Y-41479190D01*
X91081238Y-41498238D01*
X91690761Y-41783952D02*
X91462190Y-41783952D01*
X91576476Y-41783952D02*
X91576476Y-41383952D01*
X91538380Y-41441095D01*
X91500285Y-41479190D01*
X91462190Y-41498238D01*
D11*
%TO.C,C7*%
X88252904Y-42637142D02*
X88252904Y-42782285D01*
X88252904Y-42709714D02*
X87998904Y-42709714D01*
X88035190Y-42733904D01*
X88059380Y-42758095D01*
X88071476Y-42782285D01*
X87998904Y-42479904D02*
X87998904Y-42455714D01*
X88011000Y-42431523D01*
X88023095Y-42419428D01*
X88047285Y-42407333D01*
X88095666Y-42395238D01*
X88156142Y-42395238D01*
X88204523Y-42407333D01*
X88228714Y-42419428D01*
X88240809Y-42431523D01*
X88252904Y-42455714D01*
X88252904Y-42479904D01*
X88240809Y-42504095D01*
X88228714Y-42516190D01*
X88204523Y-42528285D01*
X88156142Y-42540380D01*
X88095666Y-42540380D01*
X88047285Y-42528285D01*
X88023095Y-42516190D01*
X88011000Y-42504095D01*
X87998904Y-42479904D01*
X88083571Y-42177523D02*
X88252904Y-42177523D01*
X88083571Y-42286380D02*
X88216619Y-42286380D01*
X88240809Y-42274285D01*
X88252904Y-42250095D01*
X88252904Y-42213809D01*
X88240809Y-42189619D01*
X88228714Y-42177523D01*
X88119857Y-41971904D02*
X88119857Y-42056571D01*
X88252904Y-42056571D02*
X87998904Y-42056571D01*
X87998904Y-41935619D01*
D12*
X89042857Y-42431666D02*
X89061904Y-42450714D01*
X89080952Y-42507857D01*
X89080952Y-42545952D01*
X89061904Y-42603095D01*
X89023809Y-42641190D01*
X88985714Y-42660238D01*
X88909523Y-42679285D01*
X88852380Y-42679285D01*
X88776190Y-42660238D01*
X88738095Y-42641190D01*
X88700000Y-42603095D01*
X88680952Y-42545952D01*
X88680952Y-42507857D01*
X88700000Y-42450714D01*
X88719047Y-42431666D01*
X88680952Y-42298333D02*
X88680952Y-42031666D01*
X89080952Y-42203095D01*
D11*
%TO.C,D1*%
X69518904Y-52162142D02*
X69518904Y-52283095D01*
X69264904Y-52283095D01*
X69385857Y-52077476D02*
X69385857Y-51992809D01*
X69518904Y-51956523D02*
X69518904Y-52077476D01*
X69264904Y-52077476D01*
X69264904Y-51956523D01*
X69506809Y-51859761D02*
X69518904Y-51823476D01*
X69518904Y-51763000D01*
X69506809Y-51738809D01*
X69494714Y-51726714D01*
X69470523Y-51714619D01*
X69446333Y-51714619D01*
X69422142Y-51726714D01*
X69410047Y-51738809D01*
X69397952Y-51763000D01*
X69385857Y-51811380D01*
X69373761Y-51835571D01*
X69361666Y-51847666D01*
X69337476Y-51859761D01*
X69313285Y-51859761D01*
X69289095Y-51847666D01*
X69277000Y-51835571D01*
X69264904Y-51811380D01*
X69264904Y-51750904D01*
X69277000Y-51714619D01*
X69518904Y-51605761D02*
X69264904Y-51605761D01*
X69264904Y-51545285D01*
X69277000Y-51509000D01*
X69301190Y-51484809D01*
X69325380Y-51472714D01*
X69373761Y-51460619D01*
X69410047Y-51460619D01*
X69458428Y-51472714D01*
X69482619Y-51484809D01*
X69506809Y-51509000D01*
X69518904Y-51545285D01*
X69518904Y-51605761D01*
X69373761Y-51315476D02*
X69361666Y-51339666D01*
X69349571Y-51351761D01*
X69325380Y-51363857D01*
X69313285Y-51363857D01*
X69289095Y-51351761D01*
X69277000Y-51339666D01*
X69264904Y-51315476D01*
X69264904Y-51267095D01*
X69277000Y-51242904D01*
X69289095Y-51230809D01*
X69313285Y-51218714D01*
X69325380Y-51218714D01*
X69349571Y-51230809D01*
X69361666Y-51242904D01*
X69373761Y-51267095D01*
X69373761Y-51315476D01*
X69385857Y-51339666D01*
X69397952Y-51351761D01*
X69422142Y-51363857D01*
X69470523Y-51363857D01*
X69494714Y-51351761D01*
X69506809Y-51339666D01*
X69518904Y-51315476D01*
X69518904Y-51267095D01*
X69506809Y-51242904D01*
X69494714Y-51230809D01*
X69470523Y-51218714D01*
X69422142Y-51218714D01*
X69397952Y-51230809D01*
X69385857Y-51242904D01*
X69373761Y-51267095D01*
X69518904Y-51109857D02*
X69264904Y-51109857D01*
X69264904Y-51049380D01*
X69277000Y-51013095D01*
X69301190Y-50988904D01*
X69325380Y-50976809D01*
X69373761Y-50964714D01*
X69410047Y-50964714D01*
X69458428Y-50976809D01*
X69482619Y-50988904D01*
X69506809Y-51013095D01*
X69518904Y-51049380D01*
X69518904Y-51109857D01*
X69264904Y-50880047D02*
X69264904Y-50722809D01*
X69361666Y-50807476D01*
X69361666Y-50771190D01*
X69373761Y-50747000D01*
X69385857Y-50734904D01*
X69410047Y-50722809D01*
X69470523Y-50722809D01*
X69494714Y-50734904D01*
X69506809Y-50747000D01*
X69518904Y-50771190D01*
X69518904Y-50843761D01*
X69506809Y-50867952D01*
X69494714Y-50880047D01*
X69494714Y-50613952D02*
X69506809Y-50601857D01*
X69518904Y-50613952D01*
X69506809Y-50626047D01*
X69494714Y-50613952D01*
X69518904Y-50613952D01*
X69264904Y-50517190D02*
X69264904Y-50359952D01*
X69361666Y-50444619D01*
X69361666Y-50408333D01*
X69373761Y-50384142D01*
X69385857Y-50372047D01*
X69410047Y-50359952D01*
X69470523Y-50359952D01*
X69494714Y-50372047D01*
X69506809Y-50384142D01*
X69518904Y-50408333D01*
X69518904Y-50480904D01*
X69506809Y-50505095D01*
X69494714Y-50517190D01*
X69494714Y-50105952D02*
X69506809Y-50118047D01*
X69518904Y-50154333D01*
X69518904Y-50178523D01*
X69506809Y-50214809D01*
X69482619Y-50239000D01*
X69458428Y-50251095D01*
X69410047Y-50263190D01*
X69373761Y-50263190D01*
X69325380Y-50251095D01*
X69301190Y-50239000D01*
X69277000Y-50214809D01*
X69264904Y-50178523D01*
X69264904Y-50154333D01*
X69277000Y-50118047D01*
X69289095Y-50105952D01*
X69446333Y-50009190D02*
X69446333Y-49888238D01*
X69518904Y-50033380D02*
X69264904Y-49948714D01*
X69518904Y-49864047D01*
X69264904Y-49815666D02*
X69264904Y-49670523D01*
X69518904Y-49743095D02*
X69264904Y-49743095D01*
X69264904Y-49464904D02*
X69264904Y-49585857D01*
X69385857Y-49597952D01*
X69373761Y-49585857D01*
X69361666Y-49561666D01*
X69361666Y-49501190D01*
X69373761Y-49477000D01*
X69385857Y-49464904D01*
X69410047Y-49452809D01*
X69470523Y-49452809D01*
X69494714Y-49464904D01*
X69506809Y-49477000D01*
X69518904Y-49501190D01*
X69518904Y-49561666D01*
X69506809Y-49585857D01*
X69494714Y-49597952D01*
X69277000Y-49210904D02*
X69264904Y-49235095D01*
X69264904Y-49271380D01*
X69277000Y-49307666D01*
X69301190Y-49331857D01*
X69325380Y-49343952D01*
X69373761Y-49356047D01*
X69410047Y-49356047D01*
X69458428Y-49343952D01*
X69482619Y-49331857D01*
X69506809Y-49307666D01*
X69518904Y-49271380D01*
X69518904Y-49247190D01*
X69506809Y-49210904D01*
X69494714Y-49198809D01*
X69410047Y-49198809D01*
X69410047Y-49247190D01*
D10*
X68706380Y-51485095D02*
X67706380Y-51485095D01*
X67706380Y-51247000D01*
X67754000Y-51104142D01*
X67849238Y-51008904D01*
X67944476Y-50961285D01*
X68134952Y-50913666D01*
X68277809Y-50913666D01*
X68468285Y-50961285D01*
X68563523Y-51008904D01*
X68658761Y-51104142D01*
X68706380Y-51247000D01*
X68706380Y-51485095D01*
X68706380Y-49961285D02*
X68706380Y-50532714D01*
X68706380Y-50247000D02*
X67706380Y-50247000D01*
X67849238Y-50342238D01*
X67944476Y-50437476D01*
X67992095Y-50532714D01*
D16*
%TO.C,J1*%
X68156008Y-57017000D02*
X67456008Y-57017000D01*
X78656008Y-57017000D02*
X78656008Y-58617000D01*
X67456008Y-64617000D02*
X79356008Y-64617000D01*
X79356008Y-57017000D02*
X78656008Y-57017000D01*
X69406008Y-59242000D02*
X68906008Y-59742000D01*
X78656008Y-58617000D02*
X68156008Y-58617000D01*
X69906008Y-59742000D02*
X69406008Y-59242000D01*
X68906008Y-59742000D02*
X69906008Y-59742000D01*
X68156008Y-58617000D02*
X68156008Y-57017000D01*
X67456008Y-57017000D02*
X67456008Y-64617000D01*
X79356008Y-64617000D02*
X79356008Y-57017000D01*
%TO.C,R8*%
X90716000Y-53128500D02*
X90716000Y-53953500D01*
X89116000Y-53128500D02*
X90716000Y-53128500D01*
X89116000Y-53953500D02*
X89116000Y-53128500D01*
X90716000Y-53953500D02*
X89116000Y-53953500D01*
%TO.C,C11*%
X85128000Y-63339000D02*
X83528000Y-63339000D01*
X83528000Y-63339000D02*
X83528000Y-62539000D01*
X85128000Y-62539000D02*
X85128000Y-63339000D01*
X83528000Y-62539000D02*
X85128000Y-62539000D01*
%TO.C,R3*%
X76670000Y-55223500D02*
X76670000Y-54398500D01*
X76670000Y-54398500D02*
X78270000Y-54398500D01*
X78270000Y-55223500D02*
X76670000Y-55223500D01*
X78270000Y-54398500D02*
X78270000Y-55223500D01*
%TO.C,C3*%
X73939000Y-53179000D02*
X72339000Y-53179000D01*
X73939000Y-52379000D02*
X73939000Y-53179000D01*
X72339000Y-53179000D02*
X72339000Y-52379000D01*
X72339000Y-52379000D02*
X73939000Y-52379000D01*
%TO.C,R5*%
X83216500Y-34275000D02*
X82391500Y-34275000D01*
X82391500Y-32675000D02*
X83216500Y-32675000D01*
X83216500Y-32675000D02*
X83216500Y-34275000D01*
X82391500Y-34275000D02*
X82391500Y-32675000D01*
%TO.C,D5*%
X83066000Y-42981000D02*
X82766000Y-43281000D01*
X82766000Y-43281000D02*
X82766000Y-43781000D01*
X84366000Y-43781000D02*
X84366000Y-42981000D01*
X82766000Y-43781000D02*
X84366000Y-43781000D01*
X84366000Y-42981000D02*
X83066000Y-42981000D01*
%TO.C,D3*%
X84781000Y-30535000D02*
X83481000Y-30535000D01*
X83181000Y-31335000D02*
X84781000Y-31335000D01*
X84781000Y-31335000D02*
X84781000Y-30535000D01*
X83181000Y-30835000D02*
X83181000Y-31335000D01*
X83481000Y-30535000D02*
X83181000Y-30835000D01*
%TO.C,R7*%
X82842000Y-48863500D02*
X82842000Y-49688500D01*
X81242000Y-48863500D02*
X82842000Y-48863500D01*
X82842000Y-49688500D02*
X81242000Y-49688500D01*
X81242000Y-49688500D02*
X81242000Y-48863500D01*
%TO.C,Q1*%
X86794000Y-49619000D02*
X83894000Y-49619000D01*
X86794000Y-48644000D02*
X86794000Y-49619000D01*
X86469000Y-48319000D02*
X86794000Y-48644000D01*
X83894000Y-48319000D02*
X86469000Y-48319000D01*
X83894000Y-49619000D02*
X83894000Y-48319000D01*
%TO.C,D2*%
X83182000Y-46567000D02*
X83182000Y-44767000D01*
X83182000Y-44767000D02*
X85982000Y-44767000D01*
X84232000Y-45667000D02*
X84232000Y-46217000D01*
X84232000Y-45667000D02*
X84832000Y-45267000D01*
X84832000Y-46067000D02*
X84232000Y-45667000D01*
X83832000Y-45667000D02*
X84232000Y-45667000D01*
X85982000Y-46567000D02*
X83182000Y-46567000D01*
X84832000Y-45267000D02*
X84832000Y-46067000D01*
X84232000Y-45667000D02*
X84232000Y-45117000D01*
X85982000Y-44767000D02*
X85982000Y-46567000D01*
X84832000Y-45667000D02*
X85332000Y-45667000D01*
%TO.C,R4*%
X86144000Y-52175500D02*
X84544000Y-52175500D01*
X84544000Y-51350500D02*
X86144000Y-51350500D01*
X84544000Y-52175500D02*
X84544000Y-51350500D01*
X86144000Y-51350500D02*
X86144000Y-52175500D01*
%TO.C,C9*%
X82842000Y-50601000D02*
X82842000Y-51401000D01*
X81242000Y-50601000D02*
X82842000Y-50601000D01*
X82842000Y-51401000D02*
X81242000Y-51401000D01*
X81242000Y-51401000D02*
X81242000Y-50601000D01*
%TO.C,C5*%
X69450000Y-55357000D02*
X69450000Y-53757000D01*
X70250000Y-55357000D02*
X69450000Y-55357000D01*
X69450000Y-53757000D02*
X70250000Y-53757000D01*
X70250000Y-53757000D02*
X70250000Y-55357000D01*
%TO.C,Y1*%
X79070000Y-49719000D02*
X79070000Y-48219000D01*
X75870000Y-49719000D02*
X75870000Y-48219000D01*
X79070000Y-48219000D02*
X75870000Y-48219000D01*
X79070000Y-49719000D02*
X75870000Y-49719000D01*
%TO.C,U4*%
X91196622Y-57465365D02*
X91196622Y-59065365D01*
X88296622Y-57465365D02*
X91196622Y-57465365D01*
X88696622Y-59065365D02*
X88296622Y-58665365D01*
X91196622Y-59065365D02*
X88696622Y-59065365D01*
X88296622Y-58665365D02*
X88296622Y-57465365D01*
%TO.C,R9*%
X89116000Y-55731500D02*
X89116000Y-54906500D01*
X90716000Y-54906500D02*
X90716000Y-55731500D01*
X90716000Y-55731500D02*
X89116000Y-55731500D01*
X89116000Y-54906500D02*
X90716000Y-54906500D01*
%TO.C,C1*%
X73952000Y-54157000D02*
X73952000Y-54957000D01*
X72352000Y-54957000D02*
X72352000Y-54157000D01*
X72352000Y-54157000D02*
X73952000Y-54157000D01*
X73952000Y-54957000D02*
X72352000Y-54957000D01*
%TO.C,C10*%
X87449000Y-32648000D02*
X88249000Y-32648000D01*
X87449000Y-34248000D02*
X87449000Y-32648000D01*
X88249000Y-34248000D02*
X87449000Y-34248000D01*
X88249000Y-32648000D02*
X88249000Y-34248000D01*
%TO.C,D4*%
X86367000Y-32649500D02*
X85867000Y-32649500D01*
X85867000Y-32649500D02*
X85867000Y-34249500D01*
X85867000Y-34249500D02*
X86667000Y-34249500D01*
X86667000Y-32949500D02*
X86367000Y-32649500D01*
X86667000Y-34249500D02*
X86667000Y-32949500D01*
%TO.C,D7*%
X88552173Y-37111489D02*
X88552173Y-37261489D01*
X88102173Y-37561489D02*
X88102173Y-36261489D01*
X88102173Y-36261489D02*
X89002173Y-36261489D01*
X89002173Y-37561489D02*
X88102173Y-37561489D01*
X88752173Y-37111489D02*
X88352173Y-37111489D01*
X88552173Y-37111489D02*
X88752173Y-36811489D01*
X88352173Y-36811489D02*
X88552173Y-37111489D01*
X89002173Y-36261489D02*
X89002173Y-37561489D01*
X88552173Y-36811489D02*
X88552173Y-36661489D01*
X88752173Y-36811489D02*
X88352173Y-36811489D01*
%TO.C,D6*%
X88446000Y-39424000D02*
X88846000Y-39424000D01*
X88646000Y-39724000D02*
X88646000Y-39874000D01*
X88846000Y-39724000D02*
X88646000Y-39424000D01*
X89096000Y-40274000D02*
X88196000Y-40274000D01*
X88196000Y-38974000D02*
X89096000Y-38974000D01*
X88196000Y-40274000D02*
X88196000Y-38974000D01*
X89096000Y-38974000D02*
X89096000Y-40274000D01*
X88646000Y-39424000D02*
X88646000Y-39274000D01*
X88646000Y-39424000D02*
X88446000Y-39724000D01*
X88446000Y-39724000D02*
X88846000Y-39724000D01*
%TO.C,D8*%
X93602000Y-42735000D02*
X93602000Y-44535000D01*
X91852000Y-43635000D02*
X91852000Y-44185000D01*
X91852000Y-43635000D02*
X91852000Y-43085000D01*
X93602000Y-44535000D02*
X90802000Y-44535000D01*
X90802000Y-42735000D02*
X93602000Y-42735000D01*
X92452000Y-43235000D02*
X92452000Y-44035000D01*
X91452000Y-43635000D02*
X91852000Y-43635000D01*
X90802000Y-44535000D02*
X90802000Y-42735000D01*
X91852000Y-43635000D02*
X92452000Y-43235000D01*
X92452000Y-43635000D02*
X92952000Y-43635000D01*
X92452000Y-44035000D02*
X91852000Y-43635000D01*
%TO.C,SW1*%
X100466004Y-60112986D02*
X96466004Y-60112986D01*
X92066004Y-62412986D02*
X92066004Y-53812986D01*
X96466004Y-62412986D02*
X96466004Y-53812986D01*
X96466004Y-58112986D02*
X100466004Y-58112986D01*
X100466004Y-58112986D02*
X100466004Y-60112986D01*
X96466004Y-53812986D02*
X92066004Y-53812986D01*
X92066004Y-62412986D02*
X96466004Y-62412986D01*
D18*
%TO.C,U2*%
X68368000Y-35404007D02*
X67568000Y-36204007D01*
X67568000Y-35504007D02*
X67568000Y-30104007D01*
D10*
X67568000Y-46604007D02*
X80768000Y-46604007D01*
D18*
X80768000Y-35504007D02*
X80768000Y-30104007D01*
D10*
X67568000Y-35409007D02*
X67568000Y-46604007D01*
X80768000Y-35404007D02*
X67568000Y-35409007D01*
X80768000Y-46604007D02*
X80768000Y-35409007D01*
D18*
X80768000Y-30104007D02*
X67568000Y-30104007D01*
D16*
%TO.C,J3*%
X90813000Y-39722990D02*
X90813000Y-30782990D01*
X98163000Y-39722990D02*
X98163000Y-30782990D01*
X98163000Y-30782990D02*
X90813000Y-30782990D01*
X90813000Y-39722990D02*
X98163000Y-39722990D01*
%TO.C,C13*%
X89103000Y-63085000D02*
X89103000Y-62285000D01*
X89103000Y-62285000D02*
X90703000Y-62285000D01*
X90703000Y-63085000D02*
X89103000Y-63085000D01*
X90703000Y-62285000D02*
X90703000Y-63085000D01*
%TO.C,D9*%
X93971999Y-41803000D02*
X93971999Y-41403000D01*
X94271999Y-41403000D02*
X93971999Y-41603000D01*
X94821999Y-41153000D02*
X94821999Y-42053000D01*
X94821999Y-42053000D02*
X93521999Y-42053000D01*
X93971999Y-41603000D02*
X94271999Y-41803000D01*
X93521999Y-42053000D02*
X93521999Y-41153000D01*
X93971999Y-41603000D02*
X93821999Y-41603000D01*
X94271999Y-41803000D02*
X94271999Y-41403000D01*
X94271999Y-41603000D02*
X94421999Y-41603000D01*
X93521999Y-41153000D02*
X94821999Y-41153000D01*
%TO.C,R1*%
X74326500Y-49568000D02*
X73501500Y-49568000D01*
X74326500Y-47968000D02*
X74326500Y-49568000D01*
X73501500Y-47968000D02*
X74326500Y-47968000D01*
X73501500Y-49568000D02*
X73501500Y-47968000D01*
%TO.C,U3*%
X82386000Y-39783990D02*
X82386000Y-36858990D01*
X87286000Y-40758990D02*
X83361000Y-40758990D01*
X83361000Y-40758990D02*
X82386000Y-39783990D01*
X87286000Y-36858990D02*
X87286000Y-40758990D01*
X82386000Y-36858990D02*
X87286000Y-36858990D01*
%TO.C,R10*%
X86322000Y-31347500D02*
X86322000Y-30522500D01*
X87922000Y-30522500D02*
X87922000Y-31347500D01*
X87922000Y-31347500D02*
X86322000Y-31347500D01*
X86322000Y-30522500D02*
X87922000Y-30522500D01*
%TO.C,R6*%
X85155500Y-32675000D02*
X85155500Y-34275000D01*
X84330500Y-32675000D02*
X85155500Y-32675000D01*
X85155500Y-34275000D02*
X84330500Y-34275000D01*
X84330500Y-34275000D02*
X84330500Y-32675000D01*
%TO.C,C12*%
X89103000Y-60761000D02*
X90703000Y-60761000D01*
X89103000Y-61561000D02*
X89103000Y-60761000D01*
X90703000Y-61561000D02*
X89103000Y-61561000D01*
X90703000Y-60761000D02*
X90703000Y-61561000D01*
%TO.C,C4*%
X73939000Y-51401000D02*
X72339000Y-51401000D01*
X73939000Y-50601000D02*
X73939000Y-51401000D01*
X72339000Y-51401000D02*
X72339000Y-50601000D01*
X72339000Y-50601000D02*
X73939000Y-50601000D01*
%TO.C,C6*%
X75800000Y-52817000D02*
X75800000Y-51217000D01*
X76600000Y-51217000D02*
X76600000Y-52817000D01*
X76600000Y-52817000D02*
X75800000Y-52817000D01*
X75800000Y-51217000D02*
X76600000Y-51217000D01*
%TO.C,C2*%
X72536000Y-47968000D02*
X72536000Y-49568000D01*
X71736000Y-49568000D02*
X71736000Y-47968000D01*
X72536000Y-49568000D02*
X71736000Y-49568000D01*
X71736000Y-47968000D02*
X72536000Y-47968000D01*
%TO.C,J2*%
X87640000Y-50711000D02*
X87640000Y-51411000D01*
X89865000Y-49461000D02*
X90365000Y-49961000D01*
X87640000Y-45511000D02*
X87640000Y-46211000D01*
X89240000Y-50711000D02*
X87640000Y-50711000D01*
X95240000Y-51411000D02*
X95240000Y-45511000D01*
X87640000Y-46211000D02*
X89240000Y-46211000D01*
X95240000Y-45511000D02*
X87640000Y-45511000D01*
X90365000Y-49961000D02*
X90365000Y-48961000D01*
X90365000Y-48961000D02*
X89865000Y-49461000D01*
X89240000Y-46211000D02*
X89240000Y-50711000D01*
X87640000Y-51411000D02*
X95240000Y-51411000D01*
%TO.C,R2*%
X85814000Y-42968500D02*
X87414000Y-42968500D01*
X87414000Y-43793500D02*
X85814000Y-43793500D01*
X85814000Y-43793500D02*
X85814000Y-42968500D01*
X87414000Y-42968500D02*
X87414000Y-43793500D01*
%TO.C,L1*%
X80424000Y-61001000D02*
X80424000Y-53701000D01*
X87724000Y-61001000D02*
X85474000Y-61001000D01*
X80424000Y-53701000D02*
X82674000Y-53701000D01*
X87724000Y-53701000D02*
X85474000Y-53701000D01*
X87724000Y-53701000D02*
X87724000Y-61001000D01*
X80424000Y-61001000D02*
X82674000Y-61001000D01*
X81784000Y-55061000D02*
G75*
G03*
X81784000Y-59641000I2290000J-2290000D01*
G01*
X86364000Y-59641000D02*
G75*
G03*
X86364000Y-55061000I-2290000J2290000D01*
G01*
%TO.C,C8*%
X79140000Y-51217000D02*
X79140000Y-52817000D01*
X79140000Y-52817000D02*
X78340000Y-52817000D01*
X78340000Y-52817000D02*
X78340000Y-51217000D01*
X78340000Y-51217000D02*
X79140000Y-51217000D01*
%TO.C,R11*%
X90386000Y-41190500D02*
X91986000Y-41190500D01*
X90386000Y-42015500D02*
X90386000Y-41190500D01*
X91986000Y-42015500D02*
X90386000Y-42015500D01*
X91986000Y-41190500D02*
X91986000Y-42015500D01*
%TO.C,C7*%
X88500000Y-43165000D02*
X88500000Y-41565000D01*
X89300000Y-43165000D02*
X88500000Y-43165000D01*
X88500000Y-41565000D02*
X89300000Y-41565000D01*
X89300000Y-41565000D02*
X89300000Y-43165000D01*
%TO.C,D1*%
X70104000Y-50547000D02*
X70104000Y-50297000D01*
X70454000Y-50547000D02*
X70104000Y-51047000D01*
X69404000Y-51647000D02*
X69404000Y-49847000D01*
X70804000Y-51647000D02*
X69404000Y-51647000D01*
X70804000Y-49847000D02*
X70804000Y-51647000D01*
X69404000Y-49847000D02*
X70804000Y-49847000D01*
X70104000Y-51047000D02*
X70104000Y-51247000D01*
X70104000Y-51047000D02*
X69754000Y-50547000D01*
X69754000Y-50547000D02*
X70454000Y-50547000D01*
X69754000Y-51047000D02*
X70454000Y-51047000D01*
%TD*%
M02*
