%TF.GenerationSoftware,KiCad,Pcbnew,(6.0.2)*%
%TF.CreationDate,2022-03-17T07:21:37-04:00*%
%TF.ProjectId,ferrous_slime,66657272-6f75-4735-9f73-6c696d652e6b,v0.1.0*%
%TF.SameCoordinates,Original*%
%TF.FileFunction,Legend,Top*%
%TF.FilePolarity,Positive*%
%FSLAX46Y46*%
G04 Gerber Fmt 4.6, Leading zero omitted, Abs format (unit mm)*
G04 Created by KiCad (PCBNEW (6.0.2)) date 2022-03-17 07:21:37*
%MOMM*%
%LPD*%
G01*
G04 APERTURE LIST*
%ADD10C,0.200000*%
%ADD11C,0.150000*%
%ADD12C,0.050800*%
%ADD13C,0.060000*%
%ADD14C,0.076200*%
%ADD15C,0.127000*%
%ADD16C,0.100000*%
%ADD17C,0.152000*%
%ADD18C,0.088900*%
%ADD19C,0.120000*%
%ADD20C,0.203000*%
%ADD21C,0.254000*%
G04 APERTURE END LIST*
D10*
X56533857Y-31154714D02*
X56771952Y-31821380D01*
X57010047Y-31154714D01*
X57581476Y-30821380D02*
X57676714Y-30821380D01*
X57771952Y-30869000D01*
X57819571Y-30916619D01*
X57867190Y-31011857D01*
X57914809Y-31202333D01*
X57914809Y-31440428D01*
X57867190Y-31630904D01*
X57819571Y-31726142D01*
X57771952Y-31773761D01*
X57676714Y-31821380D01*
X57581476Y-31821380D01*
X57486238Y-31773761D01*
X57438619Y-31726142D01*
X57391000Y-31630904D01*
X57343380Y-31440428D01*
X57343380Y-31202333D01*
X57391000Y-31011857D01*
X57438619Y-30916619D01*
X57486238Y-30869000D01*
X57581476Y-30821380D01*
X58343380Y-31726142D02*
X58391000Y-31773761D01*
X58343380Y-31821380D01*
X58295761Y-31773761D01*
X58343380Y-31726142D01*
X58343380Y-31821380D01*
X59343380Y-31821380D02*
X58771952Y-31821380D01*
X59057666Y-31821380D02*
X59057666Y-30821380D01*
X58962428Y-30964238D01*
X58867190Y-31059476D01*
X58771952Y-31107095D01*
X59771952Y-31726142D02*
X59819571Y-31773761D01*
X59771952Y-31821380D01*
X59724333Y-31773761D01*
X59771952Y-31726142D01*
X59771952Y-31821380D01*
X60438619Y-30821380D02*
X60533857Y-30821380D01*
X60629095Y-30869000D01*
X60676714Y-30916619D01*
X60724333Y-31011857D01*
X60771952Y-31202333D01*
X60771952Y-31440428D01*
X60724333Y-31630904D01*
X60676714Y-31726142D01*
X60629095Y-31773761D01*
X60533857Y-31821380D01*
X60438619Y-31821380D01*
X60343380Y-31773761D01*
X60295761Y-31726142D01*
X60248142Y-31630904D01*
X60200523Y-31440428D01*
X60200523Y-31202333D01*
X60248142Y-31011857D01*
X60295761Y-30916619D01*
X60343380Y-30869000D01*
X60438619Y-30821380D01*
D11*
X71278479Y-43318551D02*
X71682540Y-43722612D01*
X71736415Y-43830362D01*
X71736415Y-43938112D01*
X71682540Y-44045861D01*
X71628666Y-44099736D01*
X72382913Y-43345489D02*
X72113539Y-43614863D01*
X71547853Y-43049177D01*
X72840849Y-42779803D02*
X72840849Y-42833678D01*
X72786974Y-42941428D01*
X72733099Y-42995302D01*
X72625350Y-43049177D01*
X72517600Y-43049177D01*
X72436788Y-43022240D01*
X72302101Y-42941428D01*
X72221289Y-42860615D01*
X72140476Y-42725928D01*
X72113539Y-42645116D01*
X72113539Y-42537367D01*
X72167414Y-42429617D01*
X72221289Y-42375742D01*
X72329038Y-42321867D01*
X72382913Y-42321867D01*
X72733099Y-41863932D02*
X73137160Y-42267993D01*
X73191035Y-42375742D01*
X73191035Y-42483492D01*
X73137160Y-42591241D01*
X73083285Y-42645116D01*
X73837533Y-41890869D02*
X73568159Y-42160243D01*
X73002473Y-41594558D01*
X74295468Y-41325184D02*
X74295468Y-41379058D01*
X74241594Y-41486808D01*
X74187719Y-41540683D01*
X74079969Y-41594558D01*
X73972220Y-41594558D01*
X73891407Y-41567620D01*
X73756720Y-41486808D01*
X73675908Y-41405996D01*
X73595096Y-41271309D01*
X73568159Y-41190497D01*
X73568159Y-41082747D01*
X73622033Y-40974997D01*
X73675908Y-40921123D01*
X73783658Y-40867248D01*
X73837533Y-40867248D01*
X74187719Y-40409312D02*
X74591780Y-40813373D01*
X74645655Y-40921123D01*
X74645655Y-41028872D01*
X74591780Y-41136622D01*
X74537905Y-41190497D01*
X75292152Y-40436249D02*
X75022778Y-40705623D01*
X74457093Y-40139938D01*
X75750088Y-39870564D02*
X75750088Y-39924439D01*
X75696213Y-40032188D01*
X75642338Y-40086063D01*
X75534589Y-40139938D01*
X75426839Y-40139938D01*
X75346027Y-40113001D01*
X75211340Y-40032188D01*
X75130528Y-39951376D01*
X75049716Y-39816689D01*
X75022778Y-39735877D01*
X75022778Y-39628127D01*
X75076653Y-39520378D01*
X75130528Y-39466503D01*
X75238277Y-39412628D01*
X75292152Y-39412628D01*
X75642338Y-38954692D02*
X76046399Y-39358753D01*
X76100274Y-39466503D01*
X76100274Y-39574253D01*
X76046399Y-39682002D01*
X75992525Y-39735877D01*
X76746772Y-38981630D02*
X76477398Y-39251004D01*
X75911712Y-38685318D01*
X77204708Y-38415944D02*
X77204708Y-38469819D01*
X77150833Y-38577569D01*
X77096958Y-38631443D01*
X76989209Y-38685318D01*
X76881459Y-38685318D01*
X76800647Y-38658381D01*
X76665960Y-38577569D01*
X76585148Y-38496756D01*
X76504335Y-38362069D01*
X76477398Y-38281257D01*
X76477398Y-38173508D01*
X76531273Y-38065758D01*
X76585148Y-38011883D01*
X76692897Y-37958008D01*
X76746772Y-37958008D01*
%TO.C,J1*%
X73072666Y-61174380D02*
X73072666Y-61888666D01*
X73025047Y-62031523D01*
X72929809Y-62126761D01*
X72786952Y-62174380D01*
X72691714Y-62174380D01*
X74072666Y-62174380D02*
X73501238Y-62174380D01*
X73786952Y-62174380D02*
X73786952Y-61174380D01*
X73691714Y-61317238D01*
X73596476Y-61412476D01*
X73501238Y-61460095D01*
D12*
%TO.C,R11*%
X89752714Y-53655894D02*
X89668047Y-53534942D01*
X89607571Y-53655894D02*
X89607571Y-53401894D01*
X89704333Y-53401894D01*
X89728523Y-53413990D01*
X89740619Y-53426085D01*
X89752714Y-53450275D01*
X89752714Y-53486561D01*
X89740619Y-53510751D01*
X89728523Y-53522847D01*
X89704333Y-53534942D01*
X89607571Y-53534942D01*
X89994619Y-53655894D02*
X89849476Y-53655894D01*
X89922047Y-53655894D02*
X89922047Y-53401894D01*
X89897857Y-53438180D01*
X89873666Y-53462370D01*
X89849476Y-53474466D01*
X90236523Y-53655894D02*
X90091380Y-53655894D01*
X90163952Y-53655894D02*
X90163952Y-53401894D01*
X90139761Y-53438180D01*
X90115571Y-53462370D01*
X90091380Y-53474466D01*
%TO.C,C10*%
X84418714Y-63102275D02*
X84430809Y-63114370D01*
X84442904Y-63150656D01*
X84442904Y-63174847D01*
X84430809Y-63211132D01*
X84406619Y-63235323D01*
X84382428Y-63247418D01*
X84334047Y-63259513D01*
X84297761Y-63259513D01*
X84249380Y-63247418D01*
X84225190Y-63235323D01*
X84201000Y-63211132D01*
X84188904Y-63174847D01*
X84188904Y-63150656D01*
X84201000Y-63114370D01*
X84213095Y-63102275D01*
X84442904Y-62860370D02*
X84442904Y-63005513D01*
X84442904Y-62932942D02*
X84188904Y-62932942D01*
X84225190Y-62957132D01*
X84249380Y-62981323D01*
X84261476Y-63005513D01*
X84188904Y-62703132D02*
X84188904Y-62678942D01*
X84201000Y-62654751D01*
X84213095Y-62642656D01*
X84237285Y-62630561D01*
X84285666Y-62618466D01*
X84346142Y-62618466D01*
X84394523Y-62630561D01*
X84418714Y-62642656D01*
X84430809Y-62654751D01*
X84442904Y-62678942D01*
X84442904Y-62703132D01*
X84430809Y-62727323D01*
X84418714Y-62739418D01*
X84394523Y-62751513D01*
X84346142Y-62763609D01*
X84285666Y-62763609D01*
X84237285Y-62751513D01*
X84213095Y-62739418D01*
X84201000Y-62727323D01*
X84188904Y-62703132D01*
%TO.C,R10*%
X71107904Y-55154285D02*
X70986952Y-55238952D01*
X71107904Y-55299428D02*
X70853904Y-55299428D01*
X70853904Y-55202666D01*
X70866000Y-55178476D01*
X70878095Y-55166380D01*
X70902285Y-55154285D01*
X70938571Y-55154285D01*
X70962761Y-55166380D01*
X70974857Y-55178476D01*
X70986952Y-55202666D01*
X70986952Y-55299428D01*
X71107904Y-54912380D02*
X71107904Y-55057523D01*
X71107904Y-54984952D02*
X70853904Y-54984952D01*
X70890190Y-55009142D01*
X70914380Y-55033333D01*
X70926476Y-55057523D01*
X70853904Y-54755142D02*
X70853904Y-54730952D01*
X70866000Y-54706761D01*
X70878095Y-54694666D01*
X70902285Y-54682571D01*
X70950666Y-54670476D01*
X71011142Y-54670476D01*
X71059523Y-54682571D01*
X71083714Y-54694666D01*
X71095809Y-54706761D01*
X71107904Y-54730952D01*
X71107904Y-54755142D01*
X71095809Y-54779333D01*
X71083714Y-54791428D01*
X71059523Y-54803523D01*
X71011142Y-54815619D01*
X70950666Y-54815619D01*
X70902285Y-54803523D01*
X70878095Y-54791428D01*
X70866000Y-54779333D01*
X70853904Y-54755142D01*
D13*
%TO.C,R3*%
X77403333Y-54991942D02*
X77270000Y-54801466D01*
X77174761Y-54991942D02*
X77174761Y-54591942D01*
X77327142Y-54591942D01*
X77365238Y-54610990D01*
X77384285Y-54630037D01*
X77403333Y-54668132D01*
X77403333Y-54725275D01*
X77384285Y-54763370D01*
X77365238Y-54782418D01*
X77327142Y-54801466D01*
X77174761Y-54801466D01*
X77536666Y-54591942D02*
X77784285Y-54591942D01*
X77650952Y-54744323D01*
X77708095Y-54744323D01*
X77746190Y-54763370D01*
X77765238Y-54782418D01*
X77784285Y-54820513D01*
X77784285Y-54915751D01*
X77765238Y-54953847D01*
X77746190Y-54972894D01*
X77708095Y-54991942D01*
X77593809Y-54991942D01*
X77555714Y-54972894D01*
X77536666Y-54953847D01*
D12*
%TO.C,C3*%
X73895857Y-51866800D02*
X73910371Y-51881314D01*
X73924885Y-51924857D01*
X73924885Y-51953885D01*
X73910371Y-51997428D01*
X73881342Y-52026457D01*
X73852314Y-52040971D01*
X73794257Y-52055485D01*
X73750714Y-52055485D01*
X73692657Y-52040971D01*
X73663628Y-52026457D01*
X73634600Y-51997428D01*
X73620085Y-51953885D01*
X73620085Y-51924857D01*
X73634600Y-51881314D01*
X73649114Y-51866800D01*
X73620085Y-51765200D02*
X73620085Y-51576514D01*
X73736200Y-51678114D01*
X73736200Y-51634571D01*
X73750714Y-51605542D01*
X73765228Y-51591028D01*
X73794257Y-51576514D01*
X73866828Y-51576514D01*
X73895857Y-51591028D01*
X73910371Y-51605542D01*
X73924885Y-51634571D01*
X73924885Y-51721657D01*
X73910371Y-51750685D01*
X73895857Y-51765200D01*
D14*
%TO.C,TP3*%
X87684428Y-63291357D02*
X87920285Y-63291357D01*
X87793285Y-63436500D01*
X87847714Y-63436500D01*
X87884000Y-63454642D01*
X87902142Y-63472785D01*
X87920285Y-63509071D01*
X87920285Y-63599785D01*
X87902142Y-63636071D01*
X87884000Y-63654214D01*
X87847714Y-63672357D01*
X87738857Y-63672357D01*
X87702571Y-63654214D01*
X87684428Y-63636071D01*
X88047285Y-63418357D02*
X88138000Y-63672357D01*
X88228714Y-63418357D01*
X88337571Y-63291357D02*
X88573428Y-63291357D01*
X88446428Y-63436500D01*
X88500857Y-63436500D01*
X88537142Y-63454642D01*
X88555285Y-63472785D01*
X88573428Y-63509071D01*
X88573428Y-63599785D01*
X88555285Y-63636071D01*
X88537142Y-63654214D01*
X88500857Y-63672357D01*
X88392000Y-63672357D01*
X88355714Y-63654214D01*
X88337571Y-63636071D01*
D13*
%TO.C,R9*%
X72697952Y-55057666D02*
X72507476Y-55191000D01*
X72697952Y-55286238D02*
X72297952Y-55286238D01*
X72297952Y-55133857D01*
X72317000Y-55095761D01*
X72336047Y-55076714D01*
X72374142Y-55057666D01*
X72431285Y-55057666D01*
X72469380Y-55076714D01*
X72488428Y-55095761D01*
X72507476Y-55133857D01*
X72507476Y-55286238D01*
X72697952Y-54867190D02*
X72697952Y-54791000D01*
X72678904Y-54752904D01*
X72659857Y-54733857D01*
X72602714Y-54695761D01*
X72526523Y-54676714D01*
X72374142Y-54676714D01*
X72336047Y-54695761D01*
X72317000Y-54714809D01*
X72297952Y-54752904D01*
X72297952Y-54829095D01*
X72317000Y-54867190D01*
X72336047Y-54886238D01*
X72374142Y-54905285D01*
X72469380Y-54905285D01*
X72507476Y-54886238D01*
X72526523Y-54867190D01*
X72545571Y-54829095D01*
X72545571Y-54752904D01*
X72526523Y-54714809D01*
X72507476Y-54695761D01*
X72469380Y-54676714D01*
%TO.C,R5*%
X83078952Y-33541656D02*
X82888476Y-33674990D01*
X83078952Y-33770228D02*
X82678952Y-33770228D01*
X82678952Y-33617847D01*
X82698000Y-33579751D01*
X82717047Y-33560704D01*
X82755142Y-33541656D01*
X82812285Y-33541656D01*
X82850380Y-33560704D01*
X82869428Y-33579751D01*
X82888476Y-33617847D01*
X82888476Y-33770228D01*
X82678952Y-33179751D02*
X82678952Y-33370228D01*
X82869428Y-33389275D01*
X82850380Y-33370228D01*
X82831333Y-33332132D01*
X82831333Y-33236894D01*
X82850380Y-33198799D01*
X82869428Y-33179751D01*
X82907523Y-33160704D01*
X83002761Y-33160704D01*
X83040857Y-33179751D01*
X83059904Y-33198799D01*
X83078952Y-33236894D01*
X83078952Y-33332132D01*
X83059904Y-33370228D01*
X83040857Y-33389275D01*
D12*
%TO.C,D5*%
X81902904Y-43597285D02*
X81902904Y-43718238D01*
X81648904Y-43718238D01*
X81769857Y-43512619D02*
X81769857Y-43427952D01*
X81902904Y-43391666D02*
X81902904Y-43512619D01*
X81648904Y-43512619D01*
X81648904Y-43391666D01*
X81902904Y-43282809D02*
X81648904Y-43282809D01*
X81648904Y-43222333D01*
X81661000Y-43186047D01*
X81685190Y-43161857D01*
X81709380Y-43149761D01*
X81757761Y-43137666D01*
X81794047Y-43137666D01*
X81842428Y-43149761D01*
X81866619Y-43161857D01*
X81890809Y-43186047D01*
X81902904Y-43222333D01*
X81902904Y-43282809D01*
D13*
X83270761Y-43561952D02*
X83270761Y-43161952D01*
X83366000Y-43161952D01*
X83423142Y-43181000D01*
X83461238Y-43219095D01*
X83480285Y-43257190D01*
X83499333Y-43333380D01*
X83499333Y-43390523D01*
X83480285Y-43466714D01*
X83461238Y-43504809D01*
X83423142Y-43542904D01*
X83366000Y-43561952D01*
X83270761Y-43561952D01*
X83861238Y-43161952D02*
X83670761Y-43161952D01*
X83651714Y-43352428D01*
X83670761Y-43333380D01*
X83708857Y-43314333D01*
X83804095Y-43314333D01*
X83842190Y-43333380D01*
X83861238Y-43352428D01*
X83880285Y-43390523D01*
X83880285Y-43485761D01*
X83861238Y-43523857D01*
X83842190Y-43542904D01*
X83804095Y-43561952D01*
X83708857Y-43561952D01*
X83670761Y-43542904D01*
X83651714Y-43523857D01*
D12*
%TO.C,TP1*%
X80022095Y-63614904D02*
X79937428Y-63493952D01*
X79876952Y-63614904D02*
X79876952Y-63360904D01*
X79973714Y-63360904D01*
X79997904Y-63373000D01*
X80010000Y-63385095D01*
X80022095Y-63409285D01*
X80022095Y-63445571D01*
X80010000Y-63469761D01*
X79997904Y-63481857D01*
X79973714Y-63493952D01*
X79876952Y-63493952D01*
X80130952Y-63481857D02*
X80215619Y-63481857D01*
X80251904Y-63614904D02*
X80130952Y-63614904D01*
X80130952Y-63360904D01*
X80251904Y-63360904D01*
X80348666Y-63602809D02*
X80384952Y-63614904D01*
X80445428Y-63614904D01*
X80469619Y-63602809D01*
X80481714Y-63590714D01*
X80493809Y-63566523D01*
X80493809Y-63542333D01*
X80481714Y-63518142D01*
X80469619Y-63506047D01*
X80445428Y-63493952D01*
X80397047Y-63481857D01*
X80372857Y-63469761D01*
X80360761Y-63457666D01*
X80348666Y-63433476D01*
X80348666Y-63409285D01*
X80360761Y-63385095D01*
X80372857Y-63373000D01*
X80397047Y-63360904D01*
X80457523Y-63360904D01*
X80493809Y-63373000D01*
X80602666Y-63481857D02*
X80687333Y-63481857D01*
X80723619Y-63614904D02*
X80602666Y-63614904D01*
X80602666Y-63360904D01*
X80723619Y-63360904D01*
X80796190Y-63360904D02*
X80941333Y-63360904D01*
X80868761Y-63614904D02*
X80868761Y-63360904D01*
%TO.C,D3*%
X82283904Y-31709095D02*
X82283904Y-31830047D01*
X82029904Y-31830047D01*
X82150857Y-31624428D02*
X82150857Y-31539761D01*
X82283904Y-31503476D02*
X82283904Y-31624428D01*
X82029904Y-31624428D01*
X82029904Y-31503476D01*
X82283904Y-31394619D02*
X82029904Y-31394619D01*
X82029904Y-31334142D01*
X82042000Y-31297857D01*
X82066190Y-31273666D01*
X82090380Y-31261571D01*
X82138761Y-31249476D01*
X82175047Y-31249476D01*
X82223428Y-31261571D01*
X82247619Y-31273666D01*
X82271809Y-31297857D01*
X82283904Y-31334142D01*
X82283904Y-31394619D01*
X82308095Y-31201095D02*
X82308095Y-31007571D01*
X82259714Y-30801952D02*
X82271809Y-30814047D01*
X82283904Y-30850333D01*
X82283904Y-30874523D01*
X82271809Y-30910809D01*
X82247619Y-30935000D01*
X82223428Y-30947095D01*
X82175047Y-30959190D01*
X82138761Y-30959190D01*
X82090380Y-30947095D01*
X82066190Y-30935000D01*
X82042000Y-30910809D01*
X82029904Y-30874523D01*
X82029904Y-30850333D01*
X82042000Y-30814047D01*
X82054095Y-30801952D01*
X82283904Y-30693095D02*
X82029904Y-30693095D01*
X82150857Y-30693095D02*
X82150857Y-30547952D01*
X82283904Y-30547952D02*
X82029904Y-30547952D01*
X82283904Y-30281857D02*
X82162952Y-30366523D01*
X82283904Y-30427000D02*
X82029904Y-30427000D01*
X82029904Y-30330238D01*
X82042000Y-30306047D01*
X82054095Y-30293952D01*
X82078285Y-30281857D01*
X82114571Y-30281857D01*
X82138761Y-30293952D01*
X82150857Y-30306047D01*
X82162952Y-30330238D01*
X82162952Y-30427000D01*
X82042000Y-30039952D02*
X82029904Y-30064142D01*
X82029904Y-30100428D01*
X82042000Y-30136714D01*
X82066190Y-30160904D01*
X82090380Y-30173000D01*
X82138761Y-30185095D01*
X82175047Y-30185095D01*
X82223428Y-30173000D01*
X82247619Y-30160904D01*
X82271809Y-30136714D01*
X82283904Y-30100428D01*
X82283904Y-30076238D01*
X82271809Y-30039952D01*
X82259714Y-30027857D01*
X82175047Y-30027857D01*
X82175047Y-30076238D01*
D13*
X83685772Y-31115942D02*
X83685772Y-30715942D01*
X83781011Y-30715942D01*
X83838153Y-30734990D01*
X83876249Y-30773085D01*
X83895296Y-30811180D01*
X83914344Y-30887370D01*
X83914344Y-30944513D01*
X83895296Y-31020704D01*
X83876249Y-31058799D01*
X83838153Y-31096894D01*
X83781011Y-31115942D01*
X83685772Y-31115942D01*
X84047677Y-30715942D02*
X84295296Y-30715942D01*
X84161963Y-30868323D01*
X84219106Y-30868323D01*
X84257201Y-30887370D01*
X84276249Y-30906418D01*
X84295296Y-30944513D01*
X84295296Y-31039751D01*
X84276249Y-31077847D01*
X84257201Y-31096894D01*
X84219106Y-31115942D01*
X84104820Y-31115942D01*
X84066725Y-31096894D01*
X84047677Y-31077847D01*
%TO.C,R7*%
X81975333Y-49456952D02*
X81842000Y-49266476D01*
X81746761Y-49456952D02*
X81746761Y-49056952D01*
X81899142Y-49056952D01*
X81937238Y-49076000D01*
X81956285Y-49095047D01*
X81975333Y-49133142D01*
X81975333Y-49190285D01*
X81956285Y-49228380D01*
X81937238Y-49247428D01*
X81899142Y-49266476D01*
X81746761Y-49266476D01*
X82108666Y-49056952D02*
X82375333Y-49056952D01*
X82203904Y-49456952D01*
%TO.C,Q1*%
X86706047Y-49187095D02*
X86687000Y-49225190D01*
X86648904Y-49263285D01*
X86591761Y-49320428D01*
X86572714Y-49358523D01*
X86572714Y-49396619D01*
X86667952Y-49377571D02*
X86648904Y-49415666D01*
X86610809Y-49453761D01*
X86534619Y-49472809D01*
X86401285Y-49472809D01*
X86325095Y-49453761D01*
X86287000Y-49415666D01*
X86267952Y-49377571D01*
X86267952Y-49301380D01*
X86287000Y-49263285D01*
X86325095Y-49225190D01*
X86401285Y-49206142D01*
X86534619Y-49206142D01*
X86610809Y-49225190D01*
X86648904Y-49263285D01*
X86667952Y-49301380D01*
X86667952Y-49377571D01*
X86667952Y-48825190D02*
X86667952Y-49053761D01*
X86667952Y-48939476D02*
X86267952Y-48939476D01*
X86325095Y-48977571D01*
X86363190Y-49015666D01*
X86382238Y-49053761D01*
D11*
%TO.C,D2*%
X83793904Y-46172380D02*
X83793904Y-45172380D01*
X84032000Y-45172380D01*
X84174857Y-45220000D01*
X84270095Y-45315238D01*
X84317714Y-45410476D01*
X84365333Y-45600952D01*
X84365333Y-45743809D01*
X84317714Y-45934285D01*
X84270095Y-46029523D01*
X84174857Y-46124761D01*
X84032000Y-46172380D01*
X83793904Y-46172380D01*
X84746285Y-45267619D02*
X84793904Y-45220000D01*
X84889142Y-45172380D01*
X85127238Y-45172380D01*
X85222476Y-45220000D01*
X85270095Y-45267619D01*
X85317714Y-45362857D01*
X85317714Y-45458095D01*
X85270095Y-45600952D01*
X84698666Y-46172380D01*
X85317714Y-46172380D01*
D13*
%TO.C,R4*%
X85277333Y-51943952D02*
X85144000Y-51753476D01*
X85048761Y-51943952D02*
X85048761Y-51543952D01*
X85201142Y-51543952D01*
X85239238Y-51563000D01*
X85258285Y-51582047D01*
X85277333Y-51620142D01*
X85277333Y-51677285D01*
X85258285Y-51715380D01*
X85239238Y-51734428D01*
X85201142Y-51753476D01*
X85048761Y-51753476D01*
X85620190Y-51677285D02*
X85620190Y-51943952D01*
X85524952Y-51524904D02*
X85429714Y-51810619D01*
X85677333Y-51810619D01*
D12*
%TO.C,C9*%
X81991200Y-51109847D02*
X81976685Y-51124361D01*
X81933142Y-51138875D01*
X81904114Y-51138875D01*
X81860571Y-51124361D01*
X81831542Y-51095332D01*
X81817028Y-51066304D01*
X81802514Y-51008247D01*
X81802514Y-50964704D01*
X81817028Y-50906647D01*
X81831542Y-50877618D01*
X81860571Y-50848590D01*
X81904114Y-50834075D01*
X81933142Y-50834075D01*
X81976685Y-50848590D01*
X81991200Y-50863104D01*
X82136342Y-51138875D02*
X82194400Y-51138875D01*
X82223428Y-51124361D01*
X82237942Y-51109847D01*
X82266971Y-51066304D01*
X82281485Y-51008247D01*
X82281485Y-50892132D01*
X82266971Y-50863104D01*
X82252457Y-50848590D01*
X82223428Y-50834075D01*
X82165371Y-50834075D01*
X82136342Y-50848590D01*
X82121828Y-50863104D01*
X82107314Y-50892132D01*
X82107314Y-50964704D01*
X82121828Y-50993732D01*
X82136342Y-51008247D01*
X82165371Y-51022761D01*
X82223428Y-51022761D01*
X82252457Y-51008247D01*
X82266971Y-50993732D01*
X82281485Y-50964704D01*
%TO.C,C5*%
X59526714Y-57573333D02*
X59538809Y-57585428D01*
X59550904Y-57621714D01*
X59550904Y-57645904D01*
X59538809Y-57682190D01*
X59514619Y-57706380D01*
X59490428Y-57718476D01*
X59442047Y-57730571D01*
X59405761Y-57730571D01*
X59357380Y-57718476D01*
X59333190Y-57706380D01*
X59309000Y-57682190D01*
X59296904Y-57645904D01*
X59296904Y-57621714D01*
X59309000Y-57585428D01*
X59321095Y-57573333D01*
X59296904Y-57343523D02*
X59296904Y-57464476D01*
X59417857Y-57476571D01*
X59405761Y-57464476D01*
X59393666Y-57440285D01*
X59393666Y-57379809D01*
X59405761Y-57355619D01*
X59417857Y-57343523D01*
X59442047Y-57331428D01*
X59502523Y-57331428D01*
X59526714Y-57343523D01*
X59538809Y-57355619D01*
X59550904Y-57379809D01*
X59550904Y-57440285D01*
X59538809Y-57464476D01*
X59526714Y-57476571D01*
D14*
%TO.C,Y1*%
X75740380Y-47166789D02*
X76054857Y-47166789D01*
X75885523Y-47360313D01*
X75958095Y-47360313D01*
X76006476Y-47384503D01*
X76030666Y-47408694D01*
X76054857Y-47457075D01*
X76054857Y-47578027D01*
X76030666Y-47626408D01*
X76006476Y-47650599D01*
X75958095Y-47674789D01*
X75812952Y-47674789D01*
X75764571Y-47650599D01*
X75740380Y-47626408D01*
X76248380Y-47215170D02*
X76272571Y-47190980D01*
X76320952Y-47166789D01*
X76441904Y-47166789D01*
X76490285Y-47190980D01*
X76514476Y-47215170D01*
X76538666Y-47263551D01*
X76538666Y-47311932D01*
X76514476Y-47384503D01*
X76224190Y-47674789D01*
X76538666Y-47674789D01*
X76756380Y-47626408D02*
X76780571Y-47650599D01*
X76756380Y-47674789D01*
X76732190Y-47650599D01*
X76756380Y-47626408D01*
X76756380Y-47674789D01*
X76949904Y-47166789D02*
X77288571Y-47166789D01*
X77070857Y-47674789D01*
X77699809Y-47166789D02*
X77603047Y-47166789D01*
X77554666Y-47190980D01*
X77530476Y-47215170D01*
X77482095Y-47287741D01*
X77457904Y-47384503D01*
X77457904Y-47578027D01*
X77482095Y-47626408D01*
X77506285Y-47650599D01*
X77554666Y-47674789D01*
X77651428Y-47674789D01*
X77699809Y-47650599D01*
X77724000Y-47626408D01*
X77748190Y-47578027D01*
X77748190Y-47457075D01*
X77724000Y-47408694D01*
X77699809Y-47384503D01*
X77651428Y-47360313D01*
X77554666Y-47360313D01*
X77506285Y-47384503D01*
X77482095Y-47408694D01*
X77457904Y-47457075D01*
X78038476Y-47384503D02*
X77990095Y-47360313D01*
X77965904Y-47336122D01*
X77941714Y-47287741D01*
X77941714Y-47263551D01*
X77965904Y-47215170D01*
X77990095Y-47190980D01*
X78038476Y-47166789D01*
X78135238Y-47166789D01*
X78183619Y-47190980D01*
X78207809Y-47215170D01*
X78232000Y-47263551D01*
X78232000Y-47287741D01*
X78207809Y-47336122D01*
X78183619Y-47360313D01*
X78135238Y-47384503D01*
X78038476Y-47384503D01*
X77990095Y-47408694D01*
X77965904Y-47432884D01*
X77941714Y-47481265D01*
X77941714Y-47578027D01*
X77965904Y-47626408D01*
X77990095Y-47650599D01*
X78038476Y-47674789D01*
X78135238Y-47674789D01*
X78183619Y-47650599D01*
X78207809Y-47626408D01*
X78232000Y-47578027D01*
X78232000Y-47481265D01*
X78207809Y-47432884D01*
X78183619Y-47408694D01*
X78135238Y-47384503D01*
X78449714Y-47674789D02*
X78449714Y-47166789D01*
X78449714Y-47408694D02*
X78740000Y-47408694D01*
X78740000Y-47674789D02*
X78740000Y-47166789D01*
X78933523Y-47336122D02*
X79199619Y-47336122D01*
X78933523Y-47674789D01*
X79199619Y-47674789D01*
D15*
X77107142Y-48950837D02*
X77107142Y-49313694D01*
X76853142Y-48551694D02*
X77107142Y-48950837D01*
X77361142Y-48551694D01*
X78014285Y-49313694D02*
X77578857Y-49313694D01*
X77796571Y-49313694D02*
X77796571Y-48551694D01*
X77724000Y-48660551D01*
X77651428Y-48733122D01*
X77578857Y-48769408D01*
D13*
%TO.C,U4*%
X89527574Y-58470761D02*
X89851383Y-58470761D01*
X89889479Y-58451714D01*
X89908526Y-58432666D01*
X89927574Y-58394571D01*
X89927574Y-58318380D01*
X89908526Y-58280285D01*
X89889479Y-58261238D01*
X89851383Y-58242190D01*
X89527574Y-58242190D01*
X89660907Y-57880285D02*
X89927574Y-57880285D01*
X89508526Y-57975523D02*
X89794241Y-58070761D01*
X89794241Y-57823142D01*
D11*
%TO.C,J3*%
X93686380Y-46942333D02*
X94400666Y-46942333D01*
X94543523Y-46989952D01*
X94638761Y-47085190D01*
X94686380Y-47228047D01*
X94686380Y-47323285D01*
X93686380Y-46561380D02*
X93686380Y-45942333D01*
X94067333Y-46275666D01*
X94067333Y-46132809D01*
X94114952Y-46037571D01*
X94162571Y-45989952D01*
X94257809Y-45942333D01*
X94495904Y-45942333D01*
X94591142Y-45989952D01*
X94638761Y-46037571D01*
X94686380Y-46132809D01*
X94686380Y-46418523D01*
X94638761Y-46513761D01*
X94591142Y-46561380D01*
D12*
%TO.C,R12*%
X89752714Y-55433894D02*
X89668047Y-55312942D01*
X89607571Y-55433894D02*
X89607571Y-55179894D01*
X89704333Y-55179894D01*
X89728523Y-55191990D01*
X89740619Y-55204085D01*
X89752714Y-55228275D01*
X89752714Y-55264561D01*
X89740619Y-55288751D01*
X89728523Y-55300847D01*
X89704333Y-55312942D01*
X89607571Y-55312942D01*
X89994619Y-55433894D02*
X89849476Y-55433894D01*
X89922047Y-55433894D02*
X89922047Y-55179894D01*
X89897857Y-55216180D01*
X89873666Y-55240370D01*
X89849476Y-55252466D01*
X90091380Y-55204085D02*
X90103476Y-55191990D01*
X90127666Y-55179894D01*
X90188142Y-55179894D01*
X90212333Y-55191990D01*
X90224428Y-55204085D01*
X90236523Y-55228275D01*
X90236523Y-55252466D01*
X90224428Y-55288751D01*
X90079285Y-55433894D01*
X90236523Y-55433894D01*
%TO.C,C1*%
X74276857Y-55041800D02*
X74291371Y-55056314D01*
X74305885Y-55099857D01*
X74305885Y-55128885D01*
X74291371Y-55172428D01*
X74262342Y-55201457D01*
X74233314Y-55215971D01*
X74175257Y-55230485D01*
X74131714Y-55230485D01*
X74073657Y-55215971D01*
X74044628Y-55201457D01*
X74015600Y-55172428D01*
X74001085Y-55128885D01*
X74001085Y-55099857D01*
X74015600Y-55056314D01*
X74030114Y-55041800D01*
X74305885Y-54751514D02*
X74305885Y-54925685D01*
X74305885Y-54838600D02*
X74001085Y-54838600D01*
X74044628Y-54867628D01*
X74073657Y-54896657D01*
X74088171Y-54925685D01*
D13*
%TO.C,R8*%
X88064952Y-33531674D02*
X87874476Y-33665008D01*
X88064952Y-33760246D02*
X87664952Y-33760246D01*
X87664952Y-33607865D01*
X87684000Y-33569769D01*
X87703047Y-33550722D01*
X87741142Y-33531674D01*
X87798285Y-33531674D01*
X87836380Y-33550722D01*
X87855428Y-33569769D01*
X87874476Y-33607865D01*
X87874476Y-33760246D01*
X87836380Y-33303103D02*
X87817333Y-33341198D01*
X87798285Y-33360246D01*
X87760190Y-33379293D01*
X87741142Y-33379293D01*
X87703047Y-33360246D01*
X87684000Y-33341198D01*
X87664952Y-33303103D01*
X87664952Y-33226912D01*
X87684000Y-33188817D01*
X87703047Y-33169769D01*
X87741142Y-33150722D01*
X87760190Y-33150722D01*
X87798285Y-33169769D01*
X87817333Y-33188817D01*
X87836380Y-33226912D01*
X87836380Y-33303103D01*
X87855428Y-33341198D01*
X87874476Y-33360246D01*
X87912571Y-33379293D01*
X87988761Y-33379293D01*
X88026857Y-33360246D01*
X88045904Y-33341198D01*
X88064952Y-33303103D01*
X88064952Y-33226912D01*
X88045904Y-33188817D01*
X88026857Y-33169769D01*
X87988761Y-33150722D01*
X87912571Y-33150722D01*
X87874476Y-33169769D01*
X87855428Y-33188817D01*
X87836380Y-33226912D01*
D12*
%TO.C,D4*%
X85558840Y-35026511D02*
X85437888Y-35026511D01*
X85437888Y-34772511D01*
X85643507Y-34893464D02*
X85728173Y-34893464D01*
X85764459Y-35026511D02*
X85643507Y-35026511D01*
X85643507Y-34772511D01*
X85764459Y-34772511D01*
X85873316Y-35026511D02*
X85873316Y-34772511D01*
X85933792Y-34772511D01*
X85970078Y-34784607D01*
X85994269Y-34808797D01*
X86006364Y-34832987D01*
X86018459Y-34881368D01*
X86018459Y-34917654D01*
X86006364Y-34966035D01*
X85994269Y-34990226D01*
X85970078Y-35014416D01*
X85933792Y-35026511D01*
X85873316Y-35026511D01*
X86066840Y-35050702D02*
X86260364Y-35050702D01*
X86405507Y-34893464D02*
X86320840Y-34893464D01*
X86320840Y-35026511D02*
X86320840Y-34772511D01*
X86441792Y-34772511D01*
X86538554Y-34772511D02*
X86538554Y-34978130D01*
X86550650Y-35002321D01*
X86562745Y-35014416D01*
X86586935Y-35026511D01*
X86635316Y-35026511D01*
X86659507Y-35014416D01*
X86671602Y-35002321D01*
X86683697Y-34978130D01*
X86683697Y-34772511D01*
X86925602Y-35026511D02*
X86804650Y-35026511D01*
X86804650Y-34772511D01*
X87131221Y-35026511D02*
X87010269Y-35026511D01*
X87010269Y-34772511D01*
D13*
X86532357Y-33730703D02*
X86151357Y-33730703D01*
X86151357Y-33639989D01*
X86169500Y-33585560D01*
X86205785Y-33549274D01*
X86242071Y-33531131D01*
X86314642Y-33512989D01*
X86369071Y-33512989D01*
X86441642Y-33531131D01*
X86477928Y-33549274D01*
X86514214Y-33585560D01*
X86532357Y-33639989D01*
X86532357Y-33730703D01*
X86278357Y-33186417D02*
X86532357Y-33186417D01*
X86133214Y-33277131D02*
X86405357Y-33367846D01*
X86405357Y-33131989D01*
%TO.C,D7*%
X88826952Y-37252238D02*
X88426952Y-37252238D01*
X88426952Y-37157000D01*
X88446000Y-37099857D01*
X88484095Y-37061761D01*
X88522190Y-37042714D01*
X88598380Y-37023666D01*
X88655523Y-37023666D01*
X88731714Y-37042714D01*
X88769809Y-37061761D01*
X88807904Y-37099857D01*
X88826952Y-37157000D01*
X88826952Y-37252238D01*
X88426952Y-36890333D02*
X88426952Y-36623666D01*
X88826952Y-36795095D01*
%TO.C,D6*%
X88826952Y-39919238D02*
X88426952Y-39919238D01*
X88426952Y-39824000D01*
X88446000Y-39766857D01*
X88484095Y-39728761D01*
X88522190Y-39709714D01*
X88598380Y-39690666D01*
X88655523Y-39690666D01*
X88731714Y-39709714D01*
X88769809Y-39728761D01*
X88807904Y-39766857D01*
X88826952Y-39824000D01*
X88826952Y-39919238D01*
X88426952Y-39347809D02*
X88426952Y-39424000D01*
X88446000Y-39462095D01*
X88465047Y-39481142D01*
X88522190Y-39519238D01*
X88598380Y-39538285D01*
X88750761Y-39538285D01*
X88788857Y-39519238D01*
X88807904Y-39500190D01*
X88826952Y-39462095D01*
X88826952Y-39385904D01*
X88807904Y-39347809D01*
X88788857Y-39328761D01*
X88750761Y-39309714D01*
X88655523Y-39309714D01*
X88617428Y-39328761D01*
X88598380Y-39347809D01*
X88579333Y-39385904D01*
X88579333Y-39462095D01*
X88598380Y-39500190D01*
X88617428Y-39519238D01*
X88655523Y-39538285D01*
D11*
%TO.C,D8*%
X91463904Y-44140380D02*
X91463904Y-43140380D01*
X91702000Y-43140380D01*
X91844857Y-43188000D01*
X91940095Y-43283238D01*
X91987714Y-43378476D01*
X92035333Y-43568952D01*
X92035333Y-43711809D01*
X91987714Y-43902285D01*
X91940095Y-43997523D01*
X91844857Y-44092761D01*
X91702000Y-44140380D01*
X91463904Y-44140380D01*
X92606761Y-43568952D02*
X92511523Y-43521333D01*
X92463904Y-43473714D01*
X92416285Y-43378476D01*
X92416285Y-43330857D01*
X92463904Y-43235619D01*
X92511523Y-43188000D01*
X92606761Y-43140380D01*
X92797238Y-43140380D01*
X92892476Y-43188000D01*
X92940095Y-43235619D01*
X92987714Y-43330857D01*
X92987714Y-43378476D01*
X92940095Y-43473714D01*
X92892476Y-43521333D01*
X92797238Y-43568952D01*
X92606761Y-43568952D01*
X92511523Y-43616571D01*
X92463904Y-43664190D01*
X92416285Y-43759428D01*
X92416285Y-43949904D01*
X92463904Y-44045142D01*
X92511523Y-44092761D01*
X92606761Y-44140380D01*
X92797238Y-44140380D01*
X92892476Y-44092761D01*
X92940095Y-44045142D01*
X92987714Y-43949904D01*
X92987714Y-43759428D01*
X92940095Y-43664190D01*
X92892476Y-43616571D01*
X92797238Y-43568952D01*
D16*
%TO.C,SW1*%
X96168381Y-58479657D02*
X96192191Y-58408229D01*
X96192191Y-58289181D01*
X96168381Y-58241562D01*
X96144572Y-58217752D01*
X96096953Y-58193943D01*
X96049334Y-58193943D01*
X96001715Y-58217752D01*
X95977905Y-58241562D01*
X95954096Y-58289181D01*
X95930286Y-58384419D01*
X95906477Y-58432038D01*
X95882667Y-58455848D01*
X95835048Y-58479657D01*
X95787429Y-58479657D01*
X95739810Y-58455848D01*
X95716001Y-58432038D01*
X95692191Y-58384419D01*
X95692191Y-58265371D01*
X95716001Y-58193943D01*
X95692191Y-58027276D02*
X96192191Y-57908229D01*
X95835048Y-57812991D01*
X96192191Y-57717752D01*
X95692191Y-57598705D01*
X96192191Y-57146324D02*
X96192191Y-57432038D01*
X96192191Y-57289181D02*
X95692191Y-57289181D01*
X95763620Y-57336800D01*
X95811239Y-57384419D01*
X95835048Y-57432038D01*
D11*
%TO.C,U2*%
X73406162Y-36790380D02*
X73406162Y-37599904D01*
X73453781Y-37695142D01*
X73501400Y-37742761D01*
X73596638Y-37790380D01*
X73787114Y-37790380D01*
X73882352Y-37742761D01*
X73929971Y-37695142D01*
X73977590Y-37599904D01*
X73977590Y-36790380D01*
X74406162Y-36885619D02*
X74453781Y-36838000D01*
X74549019Y-36790380D01*
X74787114Y-36790380D01*
X74882352Y-36838000D01*
X74929971Y-36885619D01*
X74977590Y-36980857D01*
X74977590Y-37076095D01*
X74929971Y-37218952D01*
X74358543Y-37790380D01*
X74977590Y-37790380D01*
D12*
%TO.C,JP1*%
X56375904Y-62731952D02*
X56121904Y-62731952D01*
X56351714Y-62465857D02*
X56363809Y-62477952D01*
X56375904Y-62514238D01*
X56375904Y-62538428D01*
X56363809Y-62574714D01*
X56339619Y-62598904D01*
X56315428Y-62611000D01*
X56267047Y-62623095D01*
X56230761Y-62623095D01*
X56182380Y-62611000D01*
X56158190Y-62598904D01*
X56134000Y-62574714D01*
X56121904Y-62538428D01*
X56121904Y-62514238D01*
X56134000Y-62477952D01*
X56146095Y-62465857D01*
X56375904Y-62357000D02*
X56121904Y-62357000D01*
X56303333Y-62272333D01*
X56121904Y-62187666D01*
X56375904Y-62187666D01*
X56109809Y-61885285D02*
X56436380Y-62103000D01*
X56375904Y-61800619D02*
X56121904Y-61800619D01*
X56303333Y-61715952D01*
X56121904Y-61631285D01*
X56375904Y-61631285D01*
X56375904Y-61510333D02*
X56121904Y-61510333D01*
X56121904Y-61413571D01*
X56134000Y-61389380D01*
X56146095Y-61377285D01*
X56170285Y-61365190D01*
X56206571Y-61365190D01*
X56230761Y-61377285D01*
X56242857Y-61389380D01*
X56254952Y-61413571D01*
X56254952Y-61510333D01*
X56121904Y-61256333D02*
X56327523Y-61256333D01*
X56351714Y-61244238D01*
X56363809Y-61232142D01*
X56375904Y-61207952D01*
X56375904Y-61159571D01*
X56363809Y-61135380D01*
X56351714Y-61123285D01*
X56327523Y-61111190D01*
X56121904Y-61111190D01*
X56400095Y-61050714D02*
X56400095Y-60857190D01*
X56303333Y-60808809D02*
X56303333Y-60687857D01*
X56375904Y-60833000D02*
X56121904Y-60748333D01*
X56375904Y-60663666D01*
X56375904Y-60579000D02*
X56121904Y-60579000D01*
X56121904Y-60518523D01*
X56134000Y-60482238D01*
X56158190Y-60458047D01*
X56182380Y-60445952D01*
X56230761Y-60433857D01*
X56267047Y-60433857D01*
X56315428Y-60445952D01*
X56339619Y-60458047D01*
X56363809Y-60482238D01*
X56375904Y-60518523D01*
X56375904Y-60579000D01*
X56121904Y-60276619D02*
X56121904Y-60252428D01*
X56134000Y-60228238D01*
X56146095Y-60216142D01*
X56170285Y-60204047D01*
X56218666Y-60191952D01*
X56279142Y-60191952D01*
X56327523Y-60204047D01*
X56351714Y-60216142D01*
X56363809Y-60228238D01*
X56375904Y-60252428D01*
X56375904Y-60276619D01*
X56363809Y-60300809D01*
X56351714Y-60312904D01*
X56327523Y-60325000D01*
X56279142Y-60337095D01*
X56218666Y-60337095D01*
X56170285Y-60325000D01*
X56146095Y-60312904D01*
X56134000Y-60300809D01*
X56121904Y-60276619D01*
D11*
%TO.C,J4*%
X93940380Y-35586323D02*
X94654666Y-35586323D01*
X94797523Y-35633942D01*
X94892761Y-35729180D01*
X94940380Y-35872037D01*
X94940380Y-35967275D01*
X94273714Y-34681561D02*
X94940380Y-34681561D01*
X93892761Y-34919656D02*
X94607047Y-35157751D01*
X94607047Y-34538704D01*
D17*
%TO.C,U1*%
X61965942Y-53984071D02*
X61965942Y-54909357D01*
X62020371Y-55018214D01*
X62074800Y-55072642D01*
X62183657Y-55127071D01*
X62401371Y-55127071D01*
X62510228Y-55072642D01*
X62564657Y-55018214D01*
X62619085Y-54909357D01*
X62619085Y-53984071D01*
X63762085Y-55127071D02*
X63108942Y-55127071D01*
X63435514Y-55127071D02*
X63435514Y-53984071D01*
X63326657Y-54147357D01*
X63217800Y-54256214D01*
X63108942Y-54310642D01*
D14*
%TO.C,TP2*%
X95975714Y-42605476D02*
X95999904Y-42532904D01*
X96024095Y-42508714D01*
X96072476Y-42484523D01*
X96145047Y-42484523D01*
X96193428Y-42508714D01*
X96217619Y-42532904D01*
X96241809Y-42581285D01*
X96241809Y-42774809D01*
X95733809Y-42774809D01*
X95733809Y-42605476D01*
X95758000Y-42557095D01*
X95782190Y-42532904D01*
X95830571Y-42508714D01*
X95878952Y-42508714D01*
X95927333Y-42532904D01*
X95951523Y-42557095D01*
X95975714Y-42605476D01*
X95975714Y-42774809D01*
X96096666Y-42291000D02*
X96096666Y-42049095D01*
X96241809Y-42339380D02*
X95733809Y-42170047D01*
X96241809Y-42000714D01*
X95733809Y-41903952D02*
X95733809Y-41613666D01*
X96241809Y-41758809D02*
X95733809Y-41758809D01*
X95733809Y-41516904D02*
X95733809Y-41226619D01*
X96241809Y-41371761D02*
X95733809Y-41371761D01*
D12*
%TO.C,C12*%
X89993709Y-62848275D02*
X90005804Y-62860370D01*
X90017899Y-62896656D01*
X90017899Y-62920847D01*
X90005804Y-62957132D01*
X89981614Y-62981323D01*
X89957423Y-62993418D01*
X89909042Y-63005513D01*
X89872756Y-63005513D01*
X89824375Y-62993418D01*
X89800185Y-62981323D01*
X89775995Y-62957132D01*
X89763899Y-62920847D01*
X89763899Y-62896656D01*
X89775995Y-62860370D01*
X89788090Y-62848275D01*
X90017899Y-62606370D02*
X90017899Y-62751513D01*
X90017899Y-62678942D02*
X89763899Y-62678942D01*
X89800185Y-62703132D01*
X89824375Y-62727323D01*
X89836471Y-62751513D01*
X89788090Y-62509609D02*
X89775995Y-62497513D01*
X89763899Y-62473323D01*
X89763899Y-62412847D01*
X89775995Y-62388656D01*
X89788090Y-62376561D01*
X89812280Y-62364466D01*
X89836471Y-62364466D01*
X89872756Y-62376561D01*
X90017899Y-62521704D01*
X90017899Y-62364466D01*
D13*
%TO.C,D9*%
X93875315Y-41784825D02*
X93875315Y-41384825D01*
X93970554Y-41384825D01*
X94027696Y-41403873D01*
X94065792Y-41441968D01*
X94084839Y-41480063D01*
X94103887Y-41556253D01*
X94103887Y-41613396D01*
X94084839Y-41689587D01*
X94065792Y-41727682D01*
X94027696Y-41765777D01*
X93970554Y-41784825D01*
X93875315Y-41784825D01*
X94294363Y-41784825D02*
X94370554Y-41784825D01*
X94408649Y-41765777D01*
X94427696Y-41746730D01*
X94465792Y-41689587D01*
X94484839Y-41613396D01*
X94484839Y-41461015D01*
X94465792Y-41422920D01*
X94446744Y-41403873D01*
X94408649Y-41384825D01*
X94332458Y-41384825D01*
X94294363Y-41403873D01*
X94275315Y-41422920D01*
X94256268Y-41461015D01*
X94256268Y-41556253D01*
X94275315Y-41594349D01*
X94294363Y-41613396D01*
X94332458Y-41632444D01*
X94408649Y-41632444D01*
X94446744Y-41613396D01*
X94465792Y-41594349D01*
X94484839Y-41556253D01*
D12*
%TO.C,R1*%
X74051885Y-48818800D02*
X73906742Y-48920400D01*
X74051885Y-48992971D02*
X73747085Y-48992971D01*
X73747085Y-48876857D01*
X73761600Y-48847828D01*
X73776114Y-48833314D01*
X73805142Y-48818800D01*
X73848685Y-48818800D01*
X73877714Y-48833314D01*
X73892228Y-48847828D01*
X73906742Y-48876857D01*
X73906742Y-48992971D01*
X74051885Y-48528514D02*
X74051885Y-48702685D01*
X74051885Y-48615600D02*
X73747085Y-48615600D01*
X73790628Y-48644628D01*
X73819657Y-48673657D01*
X73834171Y-48702685D01*
D14*
%TO.C,U3*%
X86589809Y-39196037D02*
X87001047Y-39196037D01*
X87049428Y-39171847D01*
X87073619Y-39147656D01*
X87097809Y-39099275D01*
X87097809Y-39002513D01*
X87073619Y-38954132D01*
X87049428Y-38929942D01*
X87001047Y-38905751D01*
X86589809Y-38905751D01*
X86589809Y-38712228D02*
X86589809Y-38397751D01*
X86783333Y-38567085D01*
X86783333Y-38494513D01*
X86807523Y-38446132D01*
X86831714Y-38421942D01*
X86880095Y-38397751D01*
X87001047Y-38397751D01*
X87049428Y-38421942D01*
X87073619Y-38446132D01*
X87097809Y-38494513D01*
X87097809Y-38639656D01*
X87073619Y-38688037D01*
X87049428Y-38712228D01*
D12*
%TO.C,R13*%
X86958714Y-31049894D02*
X86874047Y-30928942D01*
X86813571Y-31049894D02*
X86813571Y-30795894D01*
X86910333Y-30795894D01*
X86934523Y-30807990D01*
X86946619Y-30820085D01*
X86958714Y-30844275D01*
X86958714Y-30880561D01*
X86946619Y-30904751D01*
X86934523Y-30916847D01*
X86910333Y-30928942D01*
X86813571Y-30928942D01*
X87200619Y-31049894D02*
X87055476Y-31049894D01*
X87128047Y-31049894D02*
X87128047Y-30795894D01*
X87103857Y-30832180D01*
X87079666Y-30856370D01*
X87055476Y-30868466D01*
X87285285Y-30795894D02*
X87442523Y-30795894D01*
X87357857Y-30892656D01*
X87394142Y-30892656D01*
X87418333Y-30904751D01*
X87430428Y-30916847D01*
X87442523Y-30941037D01*
X87442523Y-31001513D01*
X87430428Y-31025704D01*
X87418333Y-31037799D01*
X87394142Y-31049894D01*
X87321571Y-31049894D01*
X87297380Y-31037799D01*
X87285285Y-31025704D01*
%TO.C,JP3*%
X61633220Y-59153180D02*
X61645315Y-59116894D01*
X61657410Y-59104799D01*
X61681601Y-59092704D01*
X61717886Y-59092704D01*
X61742077Y-59104799D01*
X61754172Y-59116894D01*
X61766267Y-59141085D01*
X61766267Y-59237847D01*
X61512267Y-59237847D01*
X61512267Y-59153180D01*
X61524363Y-59128990D01*
X61536458Y-59116894D01*
X61560648Y-59104799D01*
X61584839Y-59104799D01*
X61609029Y-59116894D01*
X61621124Y-59128990D01*
X61633220Y-59153180D01*
X61633220Y-59237847D01*
X61766267Y-58983847D02*
X61512267Y-58983847D01*
X61766267Y-58838704D01*
X61512267Y-58838704D01*
X61512267Y-58669370D02*
X61512267Y-58620990D01*
X61524363Y-58596799D01*
X61548553Y-58572609D01*
X61596934Y-58560513D01*
X61681601Y-58560513D01*
X61729982Y-58572609D01*
X61754172Y-58596799D01*
X61766267Y-58620990D01*
X61766267Y-58669370D01*
X61754172Y-58693561D01*
X61729982Y-58717751D01*
X61681601Y-58729847D01*
X61596934Y-58729847D01*
X61548553Y-58717751D01*
X61524363Y-58693561D01*
X61512267Y-58669370D01*
X61500172Y-58270228D02*
X61826743Y-58487942D01*
X61766267Y-58185561D02*
X61512267Y-58185561D01*
X61693696Y-58100894D01*
X61512267Y-58016228D01*
X61766267Y-58016228D01*
X61766267Y-57895275D02*
X61512267Y-57895275D01*
X61512267Y-57798513D01*
X61524363Y-57774323D01*
X61536458Y-57762228D01*
X61560648Y-57750132D01*
X61596934Y-57750132D01*
X61621124Y-57762228D01*
X61633220Y-57774323D01*
X61645315Y-57798513D01*
X61645315Y-57895275D01*
X61512267Y-57641275D02*
X61717886Y-57641275D01*
X61742077Y-57629180D01*
X61754172Y-57617085D01*
X61766267Y-57592894D01*
X61766267Y-57544513D01*
X61754172Y-57520323D01*
X61742077Y-57508228D01*
X61717886Y-57496132D01*
X61512267Y-57496132D01*
X61790458Y-57435656D02*
X61790458Y-57242132D01*
X61766267Y-57181656D02*
X61512267Y-57181656D01*
X61766267Y-57060704D02*
X61512267Y-57060704D01*
X61766267Y-56915561D01*
X61512267Y-56915561D01*
X61512267Y-56830894D02*
X61512267Y-56685751D01*
X61766267Y-56758323D02*
X61512267Y-56758323D01*
X61766267Y-56468037D02*
X61766267Y-56613180D01*
X61766267Y-56540609D02*
X61512267Y-56540609D01*
X61548553Y-56564799D01*
X61572743Y-56588990D01*
X61584839Y-56613180D01*
D13*
%TO.C,R6*%
X85017943Y-33541656D02*
X84827467Y-33674990D01*
X85017943Y-33770228D02*
X84617943Y-33770228D01*
X84617943Y-33617847D01*
X84636991Y-33579751D01*
X84656038Y-33560704D01*
X84694133Y-33541656D01*
X84751276Y-33541656D01*
X84789371Y-33560704D01*
X84808419Y-33579751D01*
X84827467Y-33617847D01*
X84827467Y-33770228D01*
X84617943Y-33198799D02*
X84617943Y-33274990D01*
X84636991Y-33313085D01*
X84656038Y-33332132D01*
X84713181Y-33370228D01*
X84789371Y-33389275D01*
X84941752Y-33389275D01*
X84979848Y-33370228D01*
X84998895Y-33351180D01*
X85017943Y-33313085D01*
X85017943Y-33236894D01*
X84998895Y-33198799D01*
X84979848Y-33179751D01*
X84941752Y-33160704D01*
X84846514Y-33160704D01*
X84808419Y-33179751D01*
X84789371Y-33198799D01*
X84770324Y-33236894D01*
X84770324Y-33313085D01*
X84789371Y-33351180D01*
X84808419Y-33370228D01*
X84846514Y-33389275D01*
D12*
%TO.C,C11*%
X89993709Y-61324275D02*
X90005804Y-61336370D01*
X90017899Y-61372656D01*
X90017899Y-61396847D01*
X90005804Y-61433132D01*
X89981614Y-61457323D01*
X89957423Y-61469418D01*
X89909042Y-61481513D01*
X89872756Y-61481513D01*
X89824375Y-61469418D01*
X89800185Y-61457323D01*
X89775995Y-61433132D01*
X89763899Y-61396847D01*
X89763899Y-61372656D01*
X89775995Y-61336370D01*
X89788090Y-61324275D01*
X90017899Y-61082370D02*
X90017899Y-61227513D01*
X90017899Y-61154942D02*
X89763899Y-61154942D01*
X89800185Y-61179132D01*
X89824375Y-61203323D01*
X89836471Y-61227513D01*
X90017899Y-60840466D02*
X90017899Y-60985609D01*
X90017899Y-60913037D02*
X89763899Y-60913037D01*
X89800185Y-60937228D01*
X89824375Y-60961418D01*
X89836471Y-60985609D01*
%TO.C,JP2*%
X61754785Y-62900900D02*
X61526185Y-62900900D01*
X61754785Y-62792042D02*
X61526185Y-62792042D01*
X61754785Y-62661414D01*
X61526185Y-62661414D01*
X61526185Y-62585214D02*
X61526185Y-62454585D01*
X61754785Y-62519900D02*
X61526185Y-62519900D01*
X61776556Y-62432814D02*
X61776556Y-62258642D01*
X61754785Y-62204214D02*
X61526185Y-62204214D01*
X61733013Y-61964728D02*
X61743899Y-61975614D01*
X61754785Y-62008271D01*
X61754785Y-62030042D01*
X61743899Y-62062700D01*
X61722128Y-62084471D01*
X61700356Y-62095357D01*
X61656813Y-62106242D01*
X61624156Y-62106242D01*
X61580613Y-62095357D01*
X61558842Y-62084471D01*
X61537071Y-62062700D01*
X61526185Y-62030042D01*
X61526185Y-62008271D01*
X61537071Y-61975614D01*
X61547956Y-61964728D01*
X61754785Y-61866757D02*
X61526185Y-61866757D01*
X61689471Y-61790557D01*
X61526185Y-61714357D01*
X61754785Y-61714357D01*
X61515299Y-61442214D02*
X61809213Y-61638157D01*
X61689471Y-61376900D02*
X61689471Y-61268042D01*
X61754785Y-61398671D02*
X61526185Y-61322471D01*
X61754785Y-61246271D01*
X61754785Y-61170071D02*
X61526185Y-61170071D01*
X61526185Y-61115642D01*
X61537071Y-61082985D01*
X61558842Y-61061214D01*
X61580613Y-61050328D01*
X61624156Y-61039442D01*
X61656813Y-61039442D01*
X61700356Y-61050328D01*
X61722128Y-61061214D01*
X61743899Y-61082985D01*
X61754785Y-61115642D01*
X61754785Y-61170071D01*
X61526185Y-60897928D02*
X61526185Y-60854385D01*
X61537071Y-60832614D01*
X61558842Y-60810842D01*
X61602385Y-60799957D01*
X61678585Y-60799957D01*
X61722128Y-60810842D01*
X61743899Y-60832614D01*
X61754785Y-60854385D01*
X61754785Y-60897928D01*
X61743899Y-60919700D01*
X61722128Y-60941471D01*
X61678585Y-60952357D01*
X61602385Y-60952357D01*
X61558842Y-60941471D01*
X61537071Y-60919700D01*
X61526185Y-60897928D01*
X61776556Y-60756414D02*
X61776556Y-60582242D01*
X61635042Y-60451614D02*
X61645928Y-60418957D01*
X61656813Y-60408071D01*
X61678585Y-60397185D01*
X61711242Y-60397185D01*
X61733013Y-60408071D01*
X61743899Y-60418957D01*
X61754785Y-60440728D01*
X61754785Y-60527814D01*
X61526185Y-60527814D01*
X61526185Y-60451614D01*
X61537071Y-60429842D01*
X61547956Y-60418957D01*
X61569728Y-60408071D01*
X61591499Y-60408071D01*
X61613271Y-60418957D01*
X61624156Y-60429842D01*
X61635042Y-60451614D01*
X61635042Y-60527814D01*
X61754785Y-60299214D02*
X61526185Y-60299214D01*
X61754785Y-60168585D01*
X61526185Y-60168585D01*
X61526185Y-60016185D02*
X61526185Y-59972642D01*
X61537071Y-59950871D01*
X61558842Y-59929100D01*
X61602385Y-59918214D01*
X61678585Y-59918214D01*
X61722128Y-59929100D01*
X61743899Y-59950871D01*
X61754785Y-59972642D01*
X61754785Y-60016185D01*
X61743899Y-60037957D01*
X61722128Y-60059728D01*
X61678585Y-60070614D01*
X61602385Y-60070614D01*
X61558842Y-60059728D01*
X61537071Y-60037957D01*
X61526185Y-60016185D01*
%TO.C,C4*%
X67622057Y-48768000D02*
X67636571Y-48782514D01*
X67651085Y-48826057D01*
X67651085Y-48855085D01*
X67636571Y-48898628D01*
X67607542Y-48927657D01*
X67578514Y-48942171D01*
X67520457Y-48956685D01*
X67476914Y-48956685D01*
X67418857Y-48942171D01*
X67389828Y-48927657D01*
X67360800Y-48898628D01*
X67346285Y-48855085D01*
X67346285Y-48826057D01*
X67360800Y-48782514D01*
X67375314Y-48768000D01*
X67447885Y-48506742D02*
X67651085Y-48506742D01*
X67331771Y-48579314D02*
X67549485Y-48651885D01*
X67549485Y-48463200D01*
D13*
%TO.C,C6*%
X76307142Y-52067000D02*
X76321428Y-52081285D01*
X76335714Y-52124142D01*
X76335714Y-52152714D01*
X76321428Y-52195571D01*
X76292857Y-52224142D01*
X76264285Y-52238428D01*
X76207142Y-52252714D01*
X76164285Y-52252714D01*
X76107142Y-52238428D01*
X76078571Y-52224142D01*
X76050000Y-52195571D01*
X76035714Y-52152714D01*
X76035714Y-52124142D01*
X76050000Y-52081285D01*
X76064285Y-52067000D01*
X76035714Y-51809857D02*
X76035714Y-51867000D01*
X76050000Y-51895571D01*
X76064285Y-51909857D01*
X76107142Y-51938428D01*
X76164285Y-51952714D01*
X76278571Y-51952714D01*
X76307142Y-51938428D01*
X76321428Y-51924142D01*
X76335714Y-51895571D01*
X76335714Y-51838428D01*
X76321428Y-51809857D01*
X76307142Y-51795571D01*
X76278571Y-51781285D01*
X76207142Y-51781285D01*
X76178571Y-51795571D01*
X76164285Y-51809857D01*
X76150000Y-51838428D01*
X76150000Y-51895571D01*
X76164285Y-51924142D01*
X76178571Y-51938428D01*
X76207142Y-51952714D01*
D12*
%TO.C,C2*%
X72226714Y-48810333D02*
X72238809Y-48822428D01*
X72250904Y-48858714D01*
X72250904Y-48882904D01*
X72238809Y-48919190D01*
X72214619Y-48943380D01*
X72190428Y-48955476D01*
X72142047Y-48967571D01*
X72105761Y-48967571D01*
X72057380Y-48955476D01*
X72033190Y-48943380D01*
X72009000Y-48919190D01*
X71996904Y-48882904D01*
X71996904Y-48858714D01*
X72009000Y-48822428D01*
X72021095Y-48810333D01*
X72021095Y-48713571D02*
X72009000Y-48701476D01*
X71996904Y-48677285D01*
X71996904Y-48616809D01*
X72009000Y-48592619D01*
X72021095Y-48580523D01*
X72045285Y-48568428D01*
X72069476Y-48568428D01*
X72105761Y-48580523D01*
X72250904Y-48725666D01*
X72250904Y-48568428D01*
D13*
%TO.C,R2*%
X86547333Y-43561942D02*
X86414000Y-43371466D01*
X86318761Y-43561942D02*
X86318761Y-43161942D01*
X86471142Y-43161942D01*
X86509238Y-43180990D01*
X86528285Y-43200037D01*
X86547333Y-43238132D01*
X86547333Y-43295275D01*
X86528285Y-43333370D01*
X86509238Y-43352418D01*
X86471142Y-43371466D01*
X86318761Y-43371466D01*
X86699714Y-43200037D02*
X86718761Y-43180990D01*
X86756857Y-43161942D01*
X86852095Y-43161942D01*
X86890190Y-43180990D01*
X86909238Y-43200037D01*
X86928285Y-43238132D01*
X86928285Y-43276228D01*
X86909238Y-43333370D01*
X86680666Y-43561942D01*
X86928285Y-43561942D01*
D12*
%TO.C,D1*%
X69625028Y-49286885D02*
X69625028Y-48982085D01*
X69697600Y-48982085D01*
X69741142Y-48996600D01*
X69770171Y-49025628D01*
X69784685Y-49054657D01*
X69799200Y-49112714D01*
X69799200Y-49156257D01*
X69784685Y-49214314D01*
X69770171Y-49243342D01*
X69741142Y-49272371D01*
X69697600Y-49286885D01*
X69625028Y-49286885D01*
X70089485Y-49286885D02*
X69915314Y-49286885D01*
X70002400Y-49286885D02*
X70002400Y-48982085D01*
X69973371Y-49025628D01*
X69944342Y-49054657D01*
X69915314Y-49069171D01*
D18*
%TO.C,L1*%
X84869866Y-57529790D02*
X84603771Y-57529790D01*
X84603771Y-56970990D01*
X85348838Y-57529790D02*
X85029523Y-57529790D01*
X85189180Y-57529790D02*
X85189180Y-56970990D01*
X85135961Y-57050819D01*
X85082742Y-57104038D01*
X85029523Y-57130647D01*
D15*
%TO.C,J2*%
X59572978Y-39841714D02*
X59572978Y-39079714D01*
X60080978Y-39079714D02*
X60226121Y-39079714D01*
X60298692Y-39116000D01*
X60371264Y-39188571D01*
X60407550Y-39333714D01*
X60407550Y-39587714D01*
X60371264Y-39732857D01*
X60298692Y-39805428D01*
X60226121Y-39841714D01*
X60080978Y-39841714D01*
X60008407Y-39805428D01*
X59935835Y-39732857D01*
X59899550Y-39587714D01*
X59899550Y-39333714D01*
X59935835Y-39188571D01*
X60008407Y-39116000D01*
X60080978Y-39079714D01*
X61060692Y-39333714D02*
X61060692Y-39841714D01*
X60879264Y-39043428D02*
X60697835Y-39587714D01*
X61169550Y-39587714D01*
X59572978Y-37301714D02*
X59572978Y-36539714D01*
X60080978Y-36539714D02*
X60226121Y-36539714D01*
X60298692Y-36576000D01*
X60371264Y-36648571D01*
X60407550Y-36793714D01*
X60407550Y-37047714D01*
X60371264Y-37192857D01*
X60298692Y-37265428D01*
X60226121Y-37301714D01*
X60080978Y-37301714D01*
X60008407Y-37265428D01*
X59935835Y-37192857D01*
X59899550Y-37047714D01*
X59899550Y-36793714D01*
X59935835Y-36648571D01*
X60008407Y-36576000D01*
X60080978Y-36539714D01*
X60697835Y-36612285D02*
X60734121Y-36576000D01*
X60806692Y-36539714D01*
X60988121Y-36539714D01*
X61060692Y-36576000D01*
X61096978Y-36612285D01*
X61133264Y-36684857D01*
X61133264Y-36757428D01*
X61096978Y-36866285D01*
X60661550Y-37301714D01*
X61133264Y-37301714D01*
X59572978Y-42381714D02*
X59572978Y-41619714D01*
X60080978Y-41619714D02*
X60226121Y-41619714D01*
X60298692Y-41656000D01*
X60371264Y-41728571D01*
X60407550Y-41873714D01*
X60407550Y-42127714D01*
X60371264Y-42272857D01*
X60298692Y-42345428D01*
X60226121Y-42381714D01*
X60080978Y-42381714D01*
X60008407Y-42345428D01*
X59935835Y-42272857D01*
X59899550Y-42127714D01*
X59899550Y-41873714D01*
X59935835Y-41728571D01*
X60008407Y-41656000D01*
X60080978Y-41619714D01*
X60770407Y-42381714D02*
X60915550Y-42381714D01*
X60988121Y-42345428D01*
X61024407Y-42309142D01*
X61096978Y-42200285D01*
X61133264Y-42055142D01*
X61133264Y-41764857D01*
X61096978Y-41692285D01*
X61060692Y-41656000D01*
X60988121Y-41619714D01*
X60842978Y-41619714D01*
X60770407Y-41656000D01*
X60734121Y-41692285D01*
X60697835Y-41764857D01*
X60697835Y-41946285D01*
X60734121Y-42018857D01*
X60770407Y-42055142D01*
X60842978Y-42091428D01*
X60988121Y-42091428D01*
X61060692Y-42055142D01*
X61096978Y-42018857D01*
X61133264Y-41946285D01*
X59500407Y-33999714D02*
X59972121Y-33999714D01*
X59718121Y-34290000D01*
X59826978Y-34290000D01*
X59899550Y-34326285D01*
X59935835Y-34362571D01*
X59972121Y-34435142D01*
X59972121Y-34616571D01*
X59935835Y-34689142D01*
X59899550Y-34725428D01*
X59826978Y-34761714D01*
X59609264Y-34761714D01*
X59536692Y-34725428D01*
X59500407Y-34689142D01*
X60226121Y-34253714D02*
X60407550Y-34761714D01*
X60588978Y-34253714D01*
X60806692Y-33999714D02*
X61278407Y-33999714D01*
X61024407Y-34290000D01*
X61133264Y-34290000D01*
X61205835Y-34326285D01*
X61242121Y-34362571D01*
X61278407Y-34435142D01*
X61278407Y-34616571D01*
X61242121Y-34689142D01*
X61205835Y-34725428D01*
X61133264Y-34761714D01*
X60915550Y-34761714D01*
X60842978Y-34725428D01*
X60806692Y-34689142D01*
X59572978Y-47461714D02*
X59572978Y-46699714D01*
X60080978Y-46699714D02*
X60226121Y-46699714D01*
X60298692Y-46736000D01*
X60371264Y-46808571D01*
X60407550Y-46953714D01*
X60407550Y-47207714D01*
X60371264Y-47352857D01*
X60298692Y-47425428D01*
X60226121Y-47461714D01*
X60080978Y-47461714D01*
X60008407Y-47425428D01*
X59935835Y-47352857D01*
X59899550Y-47207714D01*
X59899550Y-46953714D01*
X59935835Y-46808571D01*
X60008407Y-46736000D01*
X60080978Y-46699714D01*
X60697835Y-46772285D02*
X60734121Y-46736000D01*
X60806692Y-46699714D01*
X60988121Y-46699714D01*
X61060692Y-46736000D01*
X61096978Y-46772285D01*
X61133264Y-46844857D01*
X61133264Y-46917428D01*
X61096978Y-47026285D01*
X60661550Y-47461714D01*
X61133264Y-47461714D01*
X61604978Y-46699714D02*
X61677550Y-46699714D01*
X61750121Y-46736000D01*
X61786407Y-46772285D01*
X61822692Y-46844857D01*
X61858978Y-46990000D01*
X61858978Y-47171428D01*
X61822692Y-47316571D01*
X61786407Y-47389142D01*
X61750121Y-47425428D01*
X61677550Y-47461714D01*
X61604978Y-47461714D01*
X61532407Y-47425428D01*
X61496121Y-47389142D01*
X61459835Y-47316571D01*
X61423550Y-47171428D01*
X61423550Y-46990000D01*
X61459835Y-46844857D01*
X61496121Y-46772285D01*
X61532407Y-46736000D01*
X61604978Y-46699714D01*
X59972121Y-44196000D02*
X59899550Y-44159714D01*
X59790692Y-44159714D01*
X59681835Y-44196000D01*
X59609264Y-44268571D01*
X59572978Y-44341142D01*
X59536692Y-44486285D01*
X59536692Y-44595142D01*
X59572978Y-44740285D01*
X59609264Y-44812857D01*
X59681835Y-44885428D01*
X59790692Y-44921714D01*
X59863264Y-44921714D01*
X59972121Y-44885428D01*
X60008407Y-44849142D01*
X60008407Y-44595142D01*
X59863264Y-44595142D01*
X60334978Y-44921714D02*
X60334978Y-44159714D01*
X60770407Y-44921714D01*
X60770407Y-44159714D01*
X61133264Y-44921714D02*
X61133264Y-44159714D01*
X61314692Y-44159714D01*
X61423550Y-44196000D01*
X61496121Y-44268571D01*
X61532407Y-44341142D01*
X61568692Y-44486285D01*
X61568692Y-44595142D01*
X61532407Y-44740285D01*
X61496121Y-44812857D01*
X61423550Y-44885428D01*
X61314692Y-44921714D01*
X61133264Y-44921714D01*
X59572978Y-50001714D02*
X59572978Y-49239714D01*
X60080978Y-49239714D02*
X60226121Y-49239714D01*
X60298692Y-49276000D01*
X60371264Y-49348571D01*
X60407550Y-49493714D01*
X60407550Y-49747714D01*
X60371264Y-49892857D01*
X60298692Y-49965428D01*
X60226121Y-50001714D01*
X60080978Y-50001714D01*
X60008407Y-49965428D01*
X59935835Y-49892857D01*
X59899550Y-49747714D01*
X59899550Y-49493714D01*
X59935835Y-49348571D01*
X60008407Y-49276000D01*
X60080978Y-49239714D01*
X60697835Y-49312285D02*
X60734121Y-49276000D01*
X60806692Y-49239714D01*
X60988121Y-49239714D01*
X61060692Y-49276000D01*
X61096978Y-49312285D01*
X61133264Y-49384857D01*
X61133264Y-49457428D01*
X61096978Y-49566285D01*
X60661550Y-50001714D01*
X61133264Y-50001714D01*
X61858978Y-50001714D02*
X61423550Y-50001714D01*
X61641264Y-50001714D02*
X61641264Y-49239714D01*
X61568692Y-49348571D01*
X61496121Y-49421142D01*
X61423550Y-49457428D01*
D13*
%TO.C,C7*%
X78847142Y-52067000D02*
X78861428Y-52081285D01*
X78875714Y-52124142D01*
X78875714Y-52152714D01*
X78861428Y-52195571D01*
X78832857Y-52224142D01*
X78804285Y-52238428D01*
X78747142Y-52252714D01*
X78704285Y-52252714D01*
X78647142Y-52238428D01*
X78618571Y-52224142D01*
X78590000Y-52195571D01*
X78575714Y-52152714D01*
X78575714Y-52124142D01*
X78590000Y-52081285D01*
X78604285Y-52067000D01*
X78575714Y-51967000D02*
X78575714Y-51767000D01*
X78875714Y-51895571D01*
D12*
%TO.C,R14*%
X91022714Y-41717894D02*
X90938047Y-41596942D01*
X90877571Y-41717894D02*
X90877571Y-41463894D01*
X90974333Y-41463894D01*
X90998523Y-41475990D01*
X91010619Y-41488085D01*
X91022714Y-41512275D01*
X91022714Y-41548561D01*
X91010619Y-41572751D01*
X90998523Y-41584847D01*
X90974333Y-41596942D01*
X90877571Y-41596942D01*
X91264619Y-41717894D02*
X91119476Y-41717894D01*
X91192047Y-41717894D02*
X91192047Y-41463894D01*
X91167857Y-41500180D01*
X91143666Y-41524370D01*
X91119476Y-41536466D01*
X91482333Y-41548561D02*
X91482333Y-41717894D01*
X91421857Y-41451799D02*
X91361380Y-41633228D01*
X91518619Y-41633228D01*
%TO.C,C8*%
X89008857Y-42415790D02*
X89023371Y-42430304D01*
X89037885Y-42473847D01*
X89037885Y-42502875D01*
X89023371Y-42546418D01*
X88994342Y-42575447D01*
X88965314Y-42589961D01*
X88907257Y-42604475D01*
X88863714Y-42604475D01*
X88805657Y-42589961D01*
X88776628Y-42575447D01*
X88747600Y-42546418D01*
X88733085Y-42502875D01*
X88733085Y-42473847D01*
X88747600Y-42430304D01*
X88762114Y-42415790D01*
X88863714Y-42241618D02*
X88849200Y-42270647D01*
X88834685Y-42285161D01*
X88805657Y-42299675D01*
X88791142Y-42299675D01*
X88762114Y-42285161D01*
X88747600Y-42270647D01*
X88733085Y-42241618D01*
X88733085Y-42183561D01*
X88747600Y-42154532D01*
X88762114Y-42140018D01*
X88791142Y-42125504D01*
X88805657Y-42125504D01*
X88834685Y-42140018D01*
X88849200Y-42154532D01*
X88863714Y-42183561D01*
X88863714Y-42241618D01*
X88878228Y-42270647D01*
X88892742Y-42285161D01*
X88921771Y-42299675D01*
X88979828Y-42299675D01*
X89008857Y-42285161D01*
X89023371Y-42270647D01*
X89037885Y-42241618D01*
X89037885Y-42183561D01*
X89023371Y-42154532D01*
X89008857Y-42140018D01*
X88979828Y-42125504D01*
X88921771Y-42125504D01*
X88892742Y-42140018D01*
X88878228Y-42154532D01*
X88863714Y-42183561D01*
D19*
%TO.C,J1*%
X67346008Y-64727000D02*
X79466008Y-64727000D01*
X67346008Y-56907000D02*
X67346008Y-64727000D01*
X68106008Y-62467000D02*
X69106008Y-62467000D01*
X68266008Y-58507000D02*
X68266008Y-56907000D01*
X68606008Y-62467000D02*
X68606008Y-64727000D01*
X69106008Y-62467000D02*
X69106008Y-60867000D01*
X78706008Y-62467000D02*
X77706008Y-62467000D01*
X79466008Y-58507000D02*
X78546008Y-58507000D01*
X79466008Y-56907000D02*
X78546008Y-56907000D01*
X78546008Y-58507000D02*
X78266008Y-58507000D01*
X69906008Y-64727000D02*
X69906008Y-60367000D01*
X77706008Y-62467000D02*
X77706008Y-60867000D01*
X78546008Y-56907000D02*
X78546008Y-58507000D01*
X69106008Y-62467000D02*
X69106008Y-64727000D01*
X68266008Y-56907000D02*
X67346008Y-56907000D01*
X68546008Y-58507000D02*
X68546008Y-57292000D01*
X77706008Y-60867000D02*
X78706008Y-60867000D01*
X67346008Y-58507000D02*
X68266008Y-58507000D01*
X79466008Y-64727000D02*
X79466008Y-56907000D01*
X68546008Y-58507000D02*
X68266008Y-58507000D01*
X78706008Y-60867000D02*
X78706008Y-62467000D01*
X69106008Y-60867000D02*
X68106008Y-60867000D01*
X69906008Y-60367000D02*
X76906008Y-60367000D01*
X76906008Y-60367000D02*
X76906008Y-64727000D01*
X68106008Y-60867000D02*
X68106008Y-62467000D01*
%TO.C,R11*%
X89678742Y-54063500D02*
X90153258Y-54063500D01*
X89678742Y-53018500D02*
X90153258Y-53018500D01*
%TO.C,C10*%
X84468580Y-62429000D02*
X84187420Y-62429000D01*
X84468580Y-63449000D02*
X84187420Y-63449000D01*
%TO.C,R10*%
X71515500Y-54753742D02*
X71515500Y-55228258D01*
X70470500Y-54753742D02*
X70470500Y-55228258D01*
%TO.C,R3*%
X77232742Y-54288500D02*
X77707258Y-54288500D01*
X77232742Y-55333500D02*
X77707258Y-55333500D01*
%TO.C,C3*%
X74297000Y-51675420D02*
X74297000Y-51956580D01*
X73277000Y-51675420D02*
X73277000Y-51956580D01*
%TO.C,TP3*%
X87822000Y-62685000D02*
G75*
G03*
X87822000Y-62685000I-700000J0D01*
G01*
%TO.C,R9*%
X73039500Y-55228258D02*
X73039500Y-54753742D01*
X71994500Y-55228258D02*
X71994500Y-54753742D01*
%TO.C,R5*%
X83326500Y-33712248D02*
X83326500Y-33237732D01*
X82281500Y-33712248D02*
X82281500Y-33237732D01*
%TO.C,D5*%
X84366000Y-42646000D02*
X82081000Y-42646000D01*
X82081000Y-42646000D02*
X82081000Y-44116000D01*
X82081000Y-44116000D02*
X84366000Y-44116000D01*
%TO.C,TP1*%
X82234000Y-62738000D02*
G75*
G03*
X82234000Y-62738000I-700000J0D01*
G01*
%TO.C,D3*%
X82496000Y-31670000D02*
X84781000Y-31670000D01*
X84781000Y-30200000D02*
X82496000Y-30200000D01*
X82496000Y-30200000D02*
X82496000Y-31670000D01*
%TO.C,R7*%
X81804742Y-49798500D02*
X82279258Y-49798500D01*
X81804742Y-48753500D02*
X82279258Y-48753500D01*
%TO.C,Q1*%
X83784000Y-48968990D02*
X83784000Y-49618990D01*
X83784000Y-48968990D02*
X83784000Y-48318990D01*
X86904000Y-48968990D02*
X86904000Y-47293990D01*
X86904000Y-48968990D02*
X86904000Y-49618990D01*
%TO.C,D2*%
X82332000Y-46667000D02*
X86232000Y-46667000D01*
X82332000Y-44667000D02*
X86232000Y-44667000D01*
X82332000Y-44667000D02*
X82332000Y-46667000D01*
%TO.C,R4*%
X85581258Y-52285500D02*
X85106742Y-52285500D01*
X85581258Y-51240500D02*
X85106742Y-51240500D01*
%TO.C,C9*%
X82182580Y-50491000D02*
X81901420Y-50491000D01*
X82182580Y-51511000D02*
X81901420Y-51511000D01*
%TO.C,C5*%
X59946000Y-57390420D02*
X59946000Y-57671580D01*
X58926000Y-57390420D02*
X58926000Y-57671580D01*
%TO.C,Y1*%
X78145000Y-48093990D02*
X76795000Y-48093990D01*
X78145000Y-49843990D02*
X76795000Y-49843990D01*
%TO.C,U4*%
X88186622Y-58166000D02*
X88186622Y-57366000D01*
X91306622Y-58166000D02*
X91306622Y-58966000D01*
X91306622Y-58166000D02*
X91306622Y-57366000D01*
X88186622Y-58166000D02*
X88186622Y-59966000D01*
%TO.C,J3*%
X91450800Y-46976000D02*
X91450800Y-45976000D01*
X87490800Y-51336000D02*
X95310800Y-51336000D01*
X93050800Y-45976000D02*
X93050800Y-46976000D01*
X89090800Y-50416000D02*
X87490800Y-50416000D01*
X93050800Y-46976000D02*
X91450800Y-46976000D01*
X89090800Y-50136000D02*
X89090800Y-50416000D01*
X91450800Y-45976000D02*
X93050800Y-45976000D01*
X95310800Y-48776000D02*
X90950800Y-48776000D01*
X89090800Y-46136000D02*
X89090800Y-46416000D01*
X93050800Y-50076000D02*
X95310800Y-50076000D01*
X91450800Y-49576000D02*
X91450800Y-50576000D01*
X93050800Y-50576000D02*
X93050800Y-49576000D01*
X91450800Y-50576000D02*
X93050800Y-50576000D01*
X87490800Y-45216000D02*
X87490800Y-46136000D01*
X93050800Y-49576000D02*
X91450800Y-49576000D01*
X93050800Y-49576000D02*
X95310800Y-49576000D01*
X90950800Y-47776000D02*
X95310800Y-47776000D01*
X87490800Y-50416000D02*
X87490800Y-51336000D01*
X87490800Y-46136000D02*
X89090800Y-46136000D01*
X95310800Y-51336000D02*
X95310800Y-45216000D01*
X89090800Y-51336000D02*
X89090800Y-50416000D01*
X89090800Y-50136000D02*
X87875800Y-50136000D01*
X89090800Y-45216000D02*
X89090800Y-46136000D01*
X90950800Y-48776000D02*
X90950800Y-47776000D01*
X95310800Y-45216000D02*
X87490800Y-45216000D01*
%TO.C,R12*%
X89678742Y-54796500D02*
X90153258Y-54796500D01*
X89678742Y-55841500D02*
X90153258Y-55841500D01*
%TO.C,C1*%
X73658000Y-55131580D02*
X73658000Y-54850420D01*
X74678000Y-55131580D02*
X74678000Y-54850420D01*
%TO.C,R8*%
X88406500Y-33702266D02*
X88406500Y-33227750D01*
X87361500Y-33702266D02*
X87361500Y-33227750D01*
%TO.C,D4*%
X87002000Y-34249500D02*
X87002000Y-31964500D01*
X87002000Y-31964500D02*
X85532000Y-31964500D01*
X85532000Y-31964500D02*
X85532000Y-34249500D01*
%TO.C,D7*%
X89152173Y-36211489D02*
X89152173Y-38061489D01*
X87952173Y-36211489D02*
X87952173Y-38061489D01*
X87952173Y-38061489D02*
X89152173Y-38061489D01*
%TO.C,D6*%
X88046000Y-40324000D02*
X88046000Y-38474000D01*
X89246000Y-38474000D02*
X88046000Y-38474000D01*
X89246000Y-40324000D02*
X89246000Y-38474000D01*
%TO.C,D8*%
X89952000Y-44634990D02*
X93852000Y-44634990D01*
X89952000Y-42634990D02*
X93852000Y-42634990D01*
X89952000Y-42634990D02*
X89952000Y-44634990D01*
D11*
%TO.C,SW1*%
X96566004Y-62412986D02*
X96566004Y-60212986D01*
X91966004Y-62412986D02*
X91966004Y-53812986D01*
X96566004Y-56112986D02*
X96566004Y-53812986D01*
D19*
%TO.C,U2*%
X80918000Y-46754007D02*
X80118000Y-46754007D01*
X80768000Y-46604007D02*
X67568000Y-46604007D01*
X80768000Y-30104007D02*
X80768000Y-46604007D01*
X68268000Y-29954007D02*
X67418000Y-29954007D01*
X80918000Y-45954007D02*
X80918000Y-46754007D01*
X67418000Y-46754007D02*
X68218000Y-46754007D01*
X80168000Y-29954007D02*
X80918000Y-29954007D01*
X80918000Y-29954007D02*
X80918000Y-30604007D01*
X67568000Y-35404007D02*
X80768000Y-35404007D01*
X67568000Y-46604007D02*
X67568000Y-30104007D01*
X67568000Y-30104007D02*
X80768000Y-30104007D01*
X67418000Y-45954007D02*
X67418000Y-46754007D01*
%TO.C,JP1*%
X56878000Y-60415000D02*
X60978000Y-60415000D01*
X56878000Y-62415000D02*
X56878000Y-60415000D01*
X57328000Y-62915000D02*
X57928000Y-62915000D01*
X57628000Y-62615000D02*
X57328000Y-62915000D01*
X60978000Y-60415000D02*
X60978000Y-62415000D01*
X57628000Y-62615000D02*
X57928000Y-62915000D01*
X60978000Y-62415000D02*
X56878000Y-62415000D01*
%TO.C,J4*%
X92638000Y-39832990D02*
X94558000Y-39832990D01*
X96568000Y-30672990D02*
X98273000Y-30672990D01*
X94558000Y-30672990D02*
X92638000Y-30672990D01*
X98273000Y-39832990D02*
X96568000Y-39832990D01*
X98273000Y-30672990D02*
X98273000Y-39832990D01*
D20*
%TO.C,U1*%
X66181460Y-55837462D02*
X63641460Y-55837462D01*
X63641460Y-55837462D02*
X50687460Y-55837462D01*
X50687460Y-55837462D02*
X50687460Y-30437462D01*
X50687460Y-30437462D02*
X66181460Y-30437462D01*
X66181460Y-30437462D02*
X66181460Y-55837462D01*
D21*
X54981460Y-33231462D02*
G75*
G03*
X54981460Y-33231462I-1500000J0D01*
G01*
X54981460Y-53043462D02*
G75*
G03*
X54981460Y-53043462I-1500000J0D01*
G01*
D19*
%TO.C,TP2*%
X96458000Y-43635000D02*
G75*
G03*
X96458000Y-43635000I-700000J0D01*
G01*
%TO.C,C12*%
X89762420Y-63195000D02*
X90043580Y-63195000D01*
X89762420Y-62175000D02*
X90043580Y-62175000D01*
%TO.C,D9*%
X94871999Y-41002990D02*
X93021999Y-41002990D01*
X93021999Y-41002990D02*
X93021999Y-42202990D01*
X94871999Y-42202990D02*
X93021999Y-42202990D01*
%TO.C,R1*%
X74436500Y-49005258D02*
X74436500Y-48530742D01*
X73391500Y-49005258D02*
X73391500Y-48530742D01*
%TO.C,U3*%
X87396000Y-38808990D02*
X87396000Y-40758990D01*
X87396000Y-38808990D02*
X87396000Y-36858990D01*
X82276000Y-38808990D02*
X82276000Y-36858990D01*
X82276000Y-38808990D02*
X82276000Y-42258990D01*
%TO.C,R13*%
X87359258Y-31457490D02*
X86884742Y-31457490D01*
X87359258Y-30412490D02*
X86884742Y-30412490D01*
%TO.C,JP3*%
X62212000Y-56859000D02*
X66312000Y-56859000D01*
X66312000Y-58859000D02*
X62212000Y-58859000D01*
X62962000Y-59059000D02*
X62662000Y-59359000D01*
X62662000Y-59359000D02*
X63262000Y-59359000D01*
X62962000Y-59059000D02*
X63262000Y-59359000D01*
X62212000Y-58859000D02*
X62212000Y-56859000D01*
X66312000Y-56859000D02*
X66312000Y-58859000D01*
%TO.C,R6*%
X85265500Y-33712258D02*
X85265500Y-33237742D01*
X84220500Y-33712258D02*
X84220500Y-33237742D01*
%TO.C,C11*%
X89762420Y-61671000D02*
X90043580Y-61671000D01*
X89762420Y-60651000D02*
X90043580Y-60651000D01*
%TO.C,JP2*%
X62962000Y-62615000D02*
X62662000Y-62915000D01*
X62212000Y-60415000D02*
X66312000Y-60415000D01*
X62962000Y-62615000D02*
X63262000Y-62915000D01*
X62662000Y-62915000D02*
X63262000Y-62915000D01*
X66312000Y-62415000D02*
X62212000Y-62415000D01*
X66312000Y-60415000D02*
X66312000Y-62415000D01*
X62212000Y-62415000D02*
X62212000Y-60415000D01*
%TO.C,C4*%
X68023200Y-48576620D02*
X68023200Y-48857780D01*
X67003200Y-48576620D02*
X67003200Y-48857780D01*
%TO.C,C6*%
X76710000Y-52157580D02*
X76710000Y-51876420D01*
X75690000Y-52157580D02*
X75690000Y-51876420D01*
%TO.C,C2*%
X71626000Y-48627420D02*
X71626000Y-48908580D01*
X72646000Y-48627420D02*
X72646000Y-48908580D01*
%TO.C,R2*%
X86851258Y-43903490D02*
X86376742Y-43903490D01*
X86851258Y-42858490D02*
X86376742Y-42858490D01*
%TO.C,L1*%
X83363000Y-57477000D02*
X83363000Y-57077000D01*
X86563000Y-57477000D02*
X86563000Y-57077000D01*
%TO.C,J2*%
X56455000Y-35687000D02*
X59115000Y-35687000D01*
X56455000Y-34417000D02*
X56455000Y-33087000D01*
X56455000Y-50987000D02*
X59115000Y-50987000D01*
X56455000Y-33087000D02*
X57785000Y-33087000D01*
X56455000Y-35687000D02*
X56455000Y-50987000D01*
X59115000Y-35687000D02*
X59115000Y-50987000D01*
%TO.C,C7*%
X78230000Y-52157580D02*
X78230000Y-51876420D01*
X79250000Y-52157580D02*
X79250000Y-51876420D01*
%TO.C,R14*%
X90948742Y-42125500D02*
X91423258Y-42125500D01*
X90948742Y-41080500D02*
X91423258Y-41080500D01*
%TO.C,C8*%
X88390000Y-42224420D02*
X88390000Y-42505580D01*
X89410000Y-42224420D02*
X89410000Y-42505580D01*
%TD*%
M02*
