M48
; DRILL file {KiCad (6.0.2)} date Wed Jan 11 06:25:54 2023
; FORMAT={-:-/ absolute / inch / decimal}
; #@! TF.CreationDate,2023-01-11T06:25:54-05:00
; #@! TF.GenerationSoftware,Kicad,Pcbnew,(6.0.2)
; #@! TF.FileFunction,Plated,1,2,PTH
FMAT,2
INCH
; #@! TA.AperFunction,Plated,PTH,ViaDrill
T1C0.0079
; #@! TA.AperFunction,Plated,PTH,ViaDrill
T2C0.0157
; #@! TA.AperFunction,Plated,PTH,ComponentDrill
T3C0.0236
; #@! TA.AperFunction,Plated,PTH,ComponentDrill
T4C0.0295
; #@! TA.AperFunction,Plated,PTH,ComponentDrill
T5C0.0350
; #@! TA.AperFunction,Plated,PTH,ComponentDrill
T6C0.0354
; #@! TA.AperFunction,Plated,PTH,ComponentDrill
T7C0.0394
; #@! TA.AperFunction,Plated,PTH,ComponentDrill
T8C0.0591
%
G90
G05
T1
X2.22Y-2.135
X2.245Y-1.27
X2.245Y-1.605
X2.255Y-2.24
X2.31Y-2.04
X2.35Y-1.525
X2.355Y-1.47
X2.355Y-1.77
X2.355Y-1.9
X2.355Y-2.285
X2.36Y-1.605
X2.385Y-1.37
X2.41Y-2.06
X2.415Y-1.61
X2.415Y-1.905
X2.4604Y-1.865
X2.47Y-1.73
X2.485Y-1.36
X2.5078Y-1.415
X2.515Y-1.895
X2.605Y-1.59
X2.61Y-1.27
X2.61Y-1.71
X2.615Y-1.885
X2.615Y-1.985
X2.625Y-1.205
X2.66Y-2.085
X2.705Y-2.285
X2.725Y-1.715
X2.725Y-1.85
X2.74Y-2.12
X2.755Y-2.475
X2.76Y-2.405
X2.8Y-1.88
X2.8Y-2.065
X2.815Y-1.765
X2.83Y-1.5328
X2.84Y-1.495
X2.845Y-1.575
X2.85Y-2.35
X2.87Y-1.7
X2.88Y-2.16
X2.89Y-1.77
X2.895Y-2.475
X2.915Y-1.915
X2.95Y-1.495
X2.965Y-1.89
X2.97Y-2.095
X2.995Y-1.945
X3.005Y-1.845
X3.02Y-2.165
X3.04Y-1.495
X3.04Y-1.99
X3.06Y-2.475
X3.065Y-2.365
X3.115Y-2.185
X3.135Y-1.655
X3.16Y-1.865
X3.185Y-1.48
X3.205Y-2.13
X3.23Y-2.48
X3.255Y-1.485
X3.305Y-1.35
X3.32Y-1.73
X3.335Y-2.25
X3.345Y-1.3
X3.36Y-1.87
X3.375Y-1.695
X3.385Y-2.485
X3.425Y-1.7
X3.445Y-2.045
X3.455Y-2.415
X3.46Y-2.285
X3.465Y-2.15
X3.475Y-1.685
X3.495Y-1.81
X3.525Y-1.61
X3.53Y-1.545
X3.535Y-2.21
X3.57Y-1.875
X3.63Y-1.38
X3.64Y-2.04
X3.64Y-2.18
X3.655Y-1.585
X3.6622Y-1.485
X3.68Y-1.9
X3.69Y-1.265
X3.71Y-1.59
X3.715Y-1.41
X3.715Y-1.525
X3.78Y-1.275
X3.78Y-2.18
X3.78Y-2.4
X3.785Y-1.505
T2
X2.245Y-2.08
X2.345Y-1.325
X2.36Y-2.085
X2.3832Y-2.415
X2.3838Y-2.3609
X2.43Y-2.285
X2.435Y-1.42
X2.46Y-1.465
X2.495Y-1.59
X2.61Y-2.135
X2.675Y-2.22
X2.68Y-1.965
X2.71Y-1.57
X2.76Y-1.9921
X2.79Y-1.675
X2.8152Y-1.6206
X2.88Y-2.09
X2.9Y-1.87
X2.91Y-1.9921
X2.9145Y-1.7454
X2.945Y-2.125
X2.95Y-1.58
X2.95Y-1.655
X2.97Y-1.765
X3.025Y-1.655
X3.025Y-1.775
X3.03Y-1.58
X3.12Y-1.74
X3.125Y-2.01
X3.135Y-1.585
X3.175Y-1.545
X3.18Y-1.705
X3.18Y-1.745
X3.19Y-2.45
X3.215Y-2.005
X3.23Y-2.35
X3.29Y-1.79
X3.305Y-1.3
X3.315Y-2.455
X3.35Y-2.48
X3.36Y-2.065
X3.365Y-1.525
X3.37Y-1.375
X3.385Y-1.57
X3.385Y-1.62
X3.395Y-1.25
X3.4Y-1.7375
X3.4198Y-1.7948
X3.425Y-1.595
X3.445Y-1.249
X3.455Y-1.335
X3.455Y-1.375
X3.455Y-1.415
X3.465Y-1.57
X3.465Y-1.62
X3.465Y-1.725
X3.4675Y-1.465
X3.49Y-2.295
X3.505Y-1.66
X3.532Y-1.508
X3.535Y-1.23
X3.54Y-1.29
X3.5402Y-2.3002
X3.555Y-1.7192
X3.605Y-2.18
X3.605Y-2.41
X3.62Y-1.44
X3.625Y-1.8
X3.745Y-1.725
T4
X2.75Y-2.2979
X2.8287Y-2.2979
X2.9075Y-2.2979
X2.9862Y-2.2979
X3.065Y-2.2979
X3.502Y-1.8756
X3.502Y-1.9544
T5
X2.5506Y-1.2483
X2.5506Y-1.3433
X2.5506Y-1.4483
X2.5506Y-1.5483
X2.5506Y-1.6483
X2.5506Y-1.7483
X2.5506Y-1.8483
X2.5506Y-1.9483
X2.5506Y-2.0483
X2.5506Y-2.1483
T6
X3.7113Y-2.2092
X3.7113Y-2.2879
X3.7113Y-2.3667
T7
X2.275Y-1.355
X2.275Y-1.455
X2.275Y-1.555
X2.275Y-1.655
X2.275Y-1.755
X2.275Y-1.855
X2.275Y-1.955
X2.55Y-2.2479
T8
X3.7113Y-2.1265
X3.7113Y-2.4493
T3
G00X3.5761Y-1.2178
M15
G01X3.6194Y-1.2178
M16
G05
G00X3.5761Y-1.558
M15
G01X3.6194Y-1.558
M16
G05
G00X3.7505Y-1.2178
M15
G01X3.7741Y-1.2178
M16
G05
G00X3.7505Y-1.558
M15
G01X3.7741Y-1.558
M16
G05
T0
M30
