%TF.GenerationSoftware,KiCad,Pcbnew,(6.0.2)*%
%TF.CreationDate,2022-10-12T05:28:59-04:00*%
%TF.ProjectId,ferrous_slime,66657272-6f75-4735-9f73-6c696d652e6b,v0.3.0*%
%TF.SameCoordinates,Original*%
%TF.FileFunction,Legend,Top*%
%TF.FilePolarity,Positive*%
%FSLAX46Y46*%
G04 Gerber Fmt 4.6, Leading zero omitted, Abs format (unit mm)*
G04 Created by KiCad (PCBNEW (6.0.2)) date 2022-10-12 05:28:59*
%MOMM*%
%LPD*%
G01*
G04 APERTURE LIST*
%ADD10C,0.200000*%
%ADD11C,0.150000*%
%ADD12C,0.076200*%
%ADD13C,0.050800*%
%ADD14C,0.101600*%
%ADD15C,0.060000*%
%ADD16C,0.127000*%
%ADD17C,0.100000*%
%ADD18C,0.088900*%
%ADD19C,0.120000*%
%ADD20C,0.250000*%
%ADD21C,0.203000*%
G04 APERTURE END LIST*
D10*
X56279857Y-31281714D02*
X56517952Y-31948380D01*
X56756047Y-31281714D01*
X57327476Y-30948380D02*
X57422714Y-30948380D01*
X57517952Y-30996000D01*
X57565571Y-31043619D01*
X57613190Y-31138857D01*
X57660809Y-31329333D01*
X57660809Y-31567428D01*
X57613190Y-31757904D01*
X57565571Y-31853142D01*
X57517952Y-31900761D01*
X57422714Y-31948380D01*
X57327476Y-31948380D01*
X57232238Y-31900761D01*
X57184619Y-31853142D01*
X57137000Y-31757904D01*
X57089380Y-31567428D01*
X57089380Y-31329333D01*
X57137000Y-31138857D01*
X57184619Y-31043619D01*
X57232238Y-30996000D01*
X57327476Y-30948380D01*
X58089380Y-31853142D02*
X58137000Y-31900761D01*
X58089380Y-31948380D01*
X58041761Y-31900761D01*
X58089380Y-31853142D01*
X58089380Y-31948380D01*
X58470333Y-30948380D02*
X59089380Y-30948380D01*
X58756047Y-31329333D01*
X58898904Y-31329333D01*
X58994142Y-31376952D01*
X59041761Y-31424571D01*
X59089380Y-31519809D01*
X59089380Y-31757904D01*
X59041761Y-31853142D01*
X58994142Y-31900761D01*
X58898904Y-31948380D01*
X58613190Y-31948380D01*
X58517952Y-31900761D01*
X58470333Y-31853142D01*
X59517952Y-31853142D02*
X59565571Y-31900761D01*
X59517952Y-31948380D01*
X59470333Y-31900761D01*
X59517952Y-31853142D01*
X59517952Y-31948380D01*
X60184619Y-30948380D02*
X60279857Y-30948380D01*
X60375095Y-30996000D01*
X60422714Y-31043619D01*
X60470333Y-31138857D01*
X60517952Y-31329333D01*
X60517952Y-31567428D01*
X60470333Y-31757904D01*
X60422714Y-31853142D01*
X60375095Y-31900761D01*
X60279857Y-31948380D01*
X60184619Y-31948380D01*
X60089380Y-31900761D01*
X60041761Y-31853142D01*
X59994142Y-31757904D01*
X59946523Y-31567428D01*
X59946523Y-31329333D01*
X59994142Y-31138857D01*
X60041761Y-31043619D01*
X60089380Y-30996000D01*
X60184619Y-30948380D01*
D11*
X71278479Y-43318551D02*
X71682540Y-43722612D01*
X71736415Y-43830362D01*
X71736415Y-43938112D01*
X71682540Y-44045861D01*
X71628666Y-44099736D01*
X72382913Y-43345489D02*
X72113539Y-43614863D01*
X71547853Y-43049177D01*
X72840849Y-42779803D02*
X72840849Y-42833678D01*
X72786974Y-42941428D01*
X72733099Y-42995302D01*
X72625350Y-43049177D01*
X72517600Y-43049177D01*
X72436788Y-43022240D01*
X72302101Y-42941428D01*
X72221289Y-42860615D01*
X72140476Y-42725928D01*
X72113539Y-42645116D01*
X72113539Y-42537367D01*
X72167414Y-42429617D01*
X72221289Y-42375742D01*
X72329038Y-42321867D01*
X72382913Y-42321867D01*
X72733099Y-41863932D02*
X73137160Y-42267993D01*
X73191035Y-42375742D01*
X73191035Y-42483492D01*
X73137160Y-42591241D01*
X73083285Y-42645116D01*
X73837533Y-41890869D02*
X73568159Y-42160243D01*
X73002473Y-41594558D01*
X74295468Y-41325184D02*
X74295468Y-41379058D01*
X74241594Y-41486808D01*
X74187719Y-41540683D01*
X74079969Y-41594558D01*
X73972220Y-41594558D01*
X73891407Y-41567620D01*
X73756720Y-41486808D01*
X73675908Y-41405996D01*
X73595096Y-41271309D01*
X73568159Y-41190497D01*
X73568159Y-41082747D01*
X73622033Y-40974997D01*
X73675908Y-40921123D01*
X73783658Y-40867248D01*
X73837533Y-40867248D01*
X74187719Y-40409312D02*
X74591780Y-40813373D01*
X74645655Y-40921123D01*
X74645655Y-41028872D01*
X74591780Y-41136622D01*
X74537905Y-41190497D01*
X75292152Y-40436249D02*
X75022778Y-40705623D01*
X74457093Y-40139938D01*
X75750088Y-39870564D02*
X75750088Y-39924439D01*
X75696213Y-40032188D01*
X75642338Y-40086063D01*
X75534589Y-40139938D01*
X75426839Y-40139938D01*
X75346027Y-40113001D01*
X75211340Y-40032188D01*
X75130528Y-39951376D01*
X75049716Y-39816689D01*
X75022778Y-39735877D01*
X75022778Y-39628127D01*
X75076653Y-39520378D01*
X75130528Y-39466503D01*
X75238277Y-39412628D01*
X75292152Y-39412628D01*
X75642338Y-38954692D02*
X76046399Y-39358753D01*
X76100274Y-39466503D01*
X76100274Y-39574253D01*
X76046399Y-39682002D01*
X75992525Y-39735877D01*
X76746772Y-38981630D02*
X76477398Y-39251004D01*
X75911712Y-38685318D01*
X77204708Y-38415944D02*
X77204708Y-38469819D01*
X77150833Y-38577569D01*
X77096958Y-38631443D01*
X76989209Y-38685318D01*
X76881459Y-38685318D01*
X76800647Y-38658381D01*
X76665960Y-38577569D01*
X76585148Y-38496756D01*
X76504335Y-38362069D01*
X76477398Y-38281257D01*
X76477398Y-38173508D01*
X76531273Y-38065758D01*
X76585148Y-38011883D01*
X76692897Y-37958008D01*
X76746772Y-37958008D01*
%TO.C,J1*%
X73516658Y-61174380D02*
X73516658Y-61888666D01*
X73469039Y-62031523D01*
X73373801Y-62126761D01*
X73230944Y-62174380D01*
X73135706Y-62174380D01*
X74516658Y-62174380D02*
X73945230Y-62174380D01*
X74230944Y-62174380D02*
X74230944Y-61174380D01*
X74135706Y-61317238D01*
X74040468Y-61412476D01*
X73945230Y-61460095D01*
D12*
%TO.C,R11*%
X89720057Y-53678875D02*
X89618457Y-53533732D01*
X89545885Y-53678875D02*
X89545885Y-53374075D01*
X89662000Y-53374075D01*
X89691028Y-53388590D01*
X89705542Y-53403104D01*
X89720057Y-53432132D01*
X89720057Y-53475675D01*
X89705542Y-53504704D01*
X89691028Y-53519218D01*
X89662000Y-53533732D01*
X89545885Y-53533732D01*
X90010342Y-53678875D02*
X89836171Y-53678875D01*
X89923257Y-53678875D02*
X89923257Y-53374075D01*
X89894228Y-53417618D01*
X89865200Y-53446647D01*
X89836171Y-53461161D01*
X90300628Y-53678875D02*
X90126457Y-53678875D01*
X90213542Y-53678875D02*
X90213542Y-53374075D01*
X90184514Y-53417618D01*
X90155485Y-53446647D01*
X90126457Y-53461161D01*
%TO.C,C10*%
X84444265Y-63146552D02*
X84458779Y-63161067D01*
X84473293Y-63204610D01*
X84473293Y-63233638D01*
X84458779Y-63277181D01*
X84429750Y-63306210D01*
X84400722Y-63320724D01*
X84342665Y-63335238D01*
X84299122Y-63335238D01*
X84241065Y-63320724D01*
X84212036Y-63306210D01*
X84183008Y-63277181D01*
X84168493Y-63233638D01*
X84168493Y-63204610D01*
X84183008Y-63161067D01*
X84197522Y-63146552D01*
X84473293Y-62856267D02*
X84473293Y-63030438D01*
X84473293Y-62943352D02*
X84168493Y-62943352D01*
X84212036Y-62972381D01*
X84241065Y-63001410D01*
X84255579Y-63030438D01*
X84168493Y-62667581D02*
X84168493Y-62638552D01*
X84183008Y-62609524D01*
X84197522Y-62595010D01*
X84226550Y-62580495D01*
X84284608Y-62565981D01*
X84357179Y-62565981D01*
X84415236Y-62580495D01*
X84444265Y-62595010D01*
X84458779Y-62609524D01*
X84473293Y-62638552D01*
X84473293Y-62667581D01*
X84458779Y-62696610D01*
X84444265Y-62711124D01*
X84415236Y-62725638D01*
X84357179Y-62740152D01*
X84284608Y-62740152D01*
X84226550Y-62725638D01*
X84197522Y-62711124D01*
X84183008Y-62696610D01*
X84168493Y-62667581D01*
%TO.C,R10*%
X71130885Y-55186942D02*
X70985742Y-55288542D01*
X71130885Y-55361114D02*
X70826085Y-55361114D01*
X70826085Y-55245000D01*
X70840600Y-55215971D01*
X70855114Y-55201457D01*
X70884142Y-55186942D01*
X70927685Y-55186942D01*
X70956714Y-55201457D01*
X70971228Y-55215971D01*
X70985742Y-55245000D01*
X70985742Y-55361114D01*
X71130885Y-54896657D02*
X71130885Y-55070828D01*
X71130885Y-54983742D02*
X70826085Y-54983742D01*
X70869628Y-55012771D01*
X70898657Y-55041800D01*
X70913171Y-55070828D01*
X70826085Y-54707971D02*
X70826085Y-54678942D01*
X70840600Y-54649914D01*
X70855114Y-54635400D01*
X70884142Y-54620885D01*
X70942200Y-54606371D01*
X71014771Y-54606371D01*
X71072828Y-54620885D01*
X71101857Y-54635400D01*
X71116371Y-54649914D01*
X71130885Y-54678942D01*
X71130885Y-54707971D01*
X71116371Y-54737000D01*
X71101857Y-54751514D01*
X71072828Y-54766028D01*
X71014771Y-54780542D01*
X70942200Y-54780542D01*
X70884142Y-54766028D01*
X70855114Y-54751514D01*
X70840600Y-54737000D01*
X70826085Y-54707971D01*
%TO.C,R2*%
X77385333Y-55982809D02*
X77216000Y-55740904D01*
X77095047Y-55982809D02*
X77095047Y-55474809D01*
X77288571Y-55474809D01*
X77336952Y-55499000D01*
X77361142Y-55523190D01*
X77385333Y-55571571D01*
X77385333Y-55644142D01*
X77361142Y-55692523D01*
X77336952Y-55716714D01*
X77288571Y-55740904D01*
X77095047Y-55740904D01*
X77578857Y-55523190D02*
X77603047Y-55499000D01*
X77651428Y-55474809D01*
X77772380Y-55474809D01*
X77820761Y-55499000D01*
X77844952Y-55523190D01*
X77869142Y-55571571D01*
X77869142Y-55619952D01*
X77844952Y-55692523D01*
X77554666Y-55982809D01*
X77869142Y-55982809D01*
D13*
%TO.C,C3*%
X73895857Y-51866800D02*
X73910371Y-51881314D01*
X73924885Y-51924857D01*
X73924885Y-51953885D01*
X73910371Y-51997428D01*
X73881342Y-52026457D01*
X73852314Y-52040971D01*
X73794257Y-52055485D01*
X73750714Y-52055485D01*
X73692657Y-52040971D01*
X73663628Y-52026457D01*
X73634600Y-51997428D01*
X73620085Y-51953885D01*
X73620085Y-51924857D01*
X73634600Y-51881314D01*
X73649114Y-51866800D01*
X73620085Y-51765200D02*
X73620085Y-51576514D01*
X73736200Y-51678114D01*
X73736200Y-51634571D01*
X73750714Y-51605542D01*
X73765228Y-51591028D01*
X73794257Y-51576514D01*
X73866828Y-51576514D01*
X73895857Y-51591028D01*
X73910371Y-51605542D01*
X73924885Y-51634571D01*
X73924885Y-51721657D01*
X73910371Y-51750685D01*
X73895857Y-51765200D01*
D14*
%TO.C,TP3*%
X85985047Y-61120261D02*
X86378142Y-61120261D01*
X86166476Y-61362166D01*
X86257190Y-61362166D01*
X86317666Y-61392404D01*
X86347904Y-61422642D01*
X86378142Y-61483119D01*
X86378142Y-61634309D01*
X86347904Y-61694785D01*
X86317666Y-61725023D01*
X86257190Y-61755261D01*
X86075761Y-61755261D01*
X86015285Y-61725023D01*
X85985047Y-61694785D01*
X86589809Y-61331928D02*
X86741000Y-61755261D01*
X86892190Y-61331928D01*
X87073619Y-61120261D02*
X87466714Y-61120261D01*
X87255047Y-61362166D01*
X87345761Y-61362166D01*
X87406238Y-61392404D01*
X87436476Y-61422642D01*
X87466714Y-61483119D01*
X87466714Y-61634309D01*
X87436476Y-61694785D01*
X87406238Y-61725023D01*
X87345761Y-61755261D01*
X87164333Y-61755261D01*
X87103857Y-61725023D01*
X87073619Y-61694785D01*
D12*
%TO.C,R9*%
X72697952Y-55057666D02*
X72507476Y-55191000D01*
X72697952Y-55286238D02*
X72297952Y-55286238D01*
X72297952Y-55133857D01*
X72317000Y-55095761D01*
X72336047Y-55076714D01*
X72374142Y-55057666D01*
X72431285Y-55057666D01*
X72469380Y-55076714D01*
X72488428Y-55095761D01*
X72507476Y-55133857D01*
X72507476Y-55286238D01*
X72697952Y-54867190D02*
X72697952Y-54791000D01*
X72678904Y-54752904D01*
X72659857Y-54733857D01*
X72602714Y-54695761D01*
X72526523Y-54676714D01*
X72374142Y-54676714D01*
X72336047Y-54695761D01*
X72317000Y-54714809D01*
X72297952Y-54752904D01*
X72297952Y-54829095D01*
X72317000Y-54867190D01*
X72336047Y-54886238D01*
X72374142Y-54905285D01*
X72469380Y-54905285D01*
X72507476Y-54886238D01*
X72526523Y-54867190D01*
X72545571Y-54829095D01*
X72545571Y-54752904D01*
X72526523Y-54714809D01*
X72507476Y-54695761D01*
X72469380Y-54676714D01*
D15*
%TO.C,R5*%
X83078952Y-33541656D02*
X82888476Y-33674990D01*
X83078952Y-33770228D02*
X82678952Y-33770228D01*
X82678952Y-33617847D01*
X82698000Y-33579751D01*
X82717047Y-33560704D01*
X82755142Y-33541656D01*
X82812285Y-33541656D01*
X82850380Y-33560704D01*
X82869428Y-33579751D01*
X82888476Y-33617847D01*
X82888476Y-33770228D01*
X82678952Y-33179751D02*
X82678952Y-33370228D01*
X82869428Y-33389275D01*
X82850380Y-33370228D01*
X82831333Y-33332132D01*
X82831333Y-33236894D01*
X82850380Y-33198799D01*
X82869428Y-33179751D01*
X82907523Y-33160704D01*
X83002761Y-33160704D01*
X83040857Y-33179751D01*
X83059904Y-33198799D01*
X83078952Y-33236894D01*
X83078952Y-33332132D01*
X83059904Y-33370228D01*
X83040857Y-33389275D01*
D14*
%TO.C,D5*%
X81821261Y-44743309D02*
X81821261Y-45045690D01*
X81186261Y-45045690D01*
X81488642Y-44531642D02*
X81488642Y-44319976D01*
X81821261Y-44229261D02*
X81821261Y-44531642D01*
X81186261Y-44531642D01*
X81186261Y-44229261D01*
X81821261Y-43957119D02*
X81186261Y-43957119D01*
X81186261Y-43805928D01*
X81216500Y-43715214D01*
X81276976Y-43654738D01*
X81337452Y-43624500D01*
X81458404Y-43594261D01*
X81549119Y-43594261D01*
X81670071Y-43624500D01*
X81730547Y-43654738D01*
X81791023Y-43715214D01*
X81821261Y-43805928D01*
X81821261Y-43957119D01*
X81881738Y-43473309D02*
X81881738Y-42989500D01*
X81821261Y-42838309D02*
X81186261Y-42838309D01*
X81186261Y-42414976D02*
X81186261Y-42294023D01*
X81216500Y-42233547D01*
X81276976Y-42173071D01*
X81397928Y-42142833D01*
X81609595Y-42142833D01*
X81730547Y-42173071D01*
X81791023Y-42233547D01*
X81821261Y-42294023D01*
X81821261Y-42414976D01*
X81791023Y-42475452D01*
X81730547Y-42535928D01*
X81609595Y-42566166D01*
X81397928Y-42566166D01*
X81276976Y-42535928D01*
X81216500Y-42475452D01*
X81186261Y-42414976D01*
X81186261Y-41568309D02*
X81186261Y-41870690D01*
X81488642Y-41900928D01*
X81458404Y-41870690D01*
X81428166Y-41810214D01*
X81428166Y-41659023D01*
X81458404Y-41598547D01*
X81488642Y-41568309D01*
X81549119Y-41538071D01*
X81700309Y-41538071D01*
X81760785Y-41568309D01*
X81791023Y-41598547D01*
X81821261Y-41659023D01*
X81821261Y-41810214D01*
X81791023Y-41870690D01*
X81760785Y-41900928D01*
D15*
X83270761Y-43561952D02*
X83270761Y-43161952D01*
X83366000Y-43161952D01*
X83423142Y-43181000D01*
X83461238Y-43219095D01*
X83480285Y-43257190D01*
X83499333Y-43333380D01*
X83499333Y-43390523D01*
X83480285Y-43466714D01*
X83461238Y-43504809D01*
X83423142Y-43542904D01*
X83366000Y-43561952D01*
X83270761Y-43561952D01*
X83861238Y-43161952D02*
X83670761Y-43161952D01*
X83651714Y-43352428D01*
X83670761Y-43333380D01*
X83708857Y-43314333D01*
X83804095Y-43314333D01*
X83842190Y-43333380D01*
X83861238Y-43352428D01*
X83880285Y-43390523D01*
X83880285Y-43485761D01*
X83861238Y-43523857D01*
X83842190Y-43542904D01*
X83804095Y-43561952D01*
X83708857Y-43561952D01*
X83670761Y-43542904D01*
X83651714Y-43523857D01*
D14*
%TO.C,TP1*%
X80611738Y-61882261D02*
X80400071Y-61579880D01*
X80248880Y-61882261D02*
X80248880Y-61247261D01*
X80490785Y-61247261D01*
X80551261Y-61277500D01*
X80581500Y-61307738D01*
X80611738Y-61368214D01*
X80611738Y-61458928D01*
X80581500Y-61519404D01*
X80551261Y-61549642D01*
X80490785Y-61579880D01*
X80248880Y-61579880D01*
X80883880Y-61549642D02*
X81095547Y-61549642D01*
X81186261Y-61882261D02*
X80883880Y-61882261D01*
X80883880Y-61247261D01*
X81186261Y-61247261D01*
X81428166Y-61852023D02*
X81518880Y-61882261D01*
X81670071Y-61882261D01*
X81730547Y-61852023D01*
X81760785Y-61821785D01*
X81791023Y-61761309D01*
X81791023Y-61700833D01*
X81760785Y-61640357D01*
X81730547Y-61610119D01*
X81670071Y-61579880D01*
X81549119Y-61549642D01*
X81488642Y-61519404D01*
X81458404Y-61489166D01*
X81428166Y-61428690D01*
X81428166Y-61368214D01*
X81458404Y-61307738D01*
X81488642Y-61277500D01*
X81549119Y-61247261D01*
X81700309Y-61247261D01*
X81791023Y-61277500D01*
X82063166Y-61549642D02*
X82274833Y-61549642D01*
X82365547Y-61882261D02*
X82063166Y-61882261D01*
X82063166Y-61247261D01*
X82365547Y-61247261D01*
X82546976Y-61247261D02*
X82909833Y-61247261D01*
X82728404Y-61882261D02*
X82728404Y-61247261D01*
%TO.C,D3*%
X82014785Y-32140071D02*
X82045023Y-32170309D01*
X82075261Y-32261023D01*
X82075261Y-32321500D01*
X82045023Y-32412214D01*
X81984547Y-32472690D01*
X81924071Y-32502928D01*
X81803119Y-32533166D01*
X81712404Y-32533166D01*
X81591452Y-32502928D01*
X81530976Y-32472690D01*
X81470500Y-32412214D01*
X81440261Y-32321500D01*
X81440261Y-32261023D01*
X81470500Y-32170309D01*
X81500738Y-32140071D01*
X82075261Y-31867928D02*
X81440261Y-31867928D01*
X81742642Y-31867928D02*
X81742642Y-31505071D01*
X82075261Y-31505071D02*
X81440261Y-31505071D01*
X82075261Y-30839833D02*
X81772880Y-31051500D01*
X82075261Y-31202690D02*
X81440261Y-31202690D01*
X81440261Y-30960785D01*
X81470500Y-30900309D01*
X81500738Y-30870071D01*
X81561214Y-30839833D01*
X81651928Y-30839833D01*
X81712404Y-30870071D01*
X81742642Y-30900309D01*
X81772880Y-30960785D01*
X81772880Y-31202690D01*
X81470500Y-30235071D02*
X81440261Y-30295547D01*
X81440261Y-30386261D01*
X81470500Y-30476976D01*
X81530976Y-30537452D01*
X81591452Y-30567690D01*
X81712404Y-30597928D01*
X81803119Y-30597928D01*
X81924071Y-30567690D01*
X81984547Y-30537452D01*
X82045023Y-30476976D01*
X82075261Y-30386261D01*
X82075261Y-30325785D01*
X82045023Y-30235071D01*
X82014785Y-30204833D01*
X81803119Y-30204833D01*
X81803119Y-30325785D01*
D15*
X83685772Y-31115942D02*
X83685772Y-30715942D01*
X83781011Y-30715942D01*
X83838153Y-30734990D01*
X83876249Y-30773085D01*
X83895296Y-30811180D01*
X83914344Y-30887370D01*
X83914344Y-30944513D01*
X83895296Y-31020704D01*
X83876249Y-31058799D01*
X83838153Y-31096894D01*
X83781011Y-31115942D01*
X83685772Y-31115942D01*
X84047677Y-30715942D02*
X84295296Y-30715942D01*
X84161963Y-30868323D01*
X84219106Y-30868323D01*
X84257201Y-30887370D01*
X84276249Y-30906418D01*
X84295296Y-30944513D01*
X84295296Y-31039751D01*
X84276249Y-31077847D01*
X84257201Y-31096894D01*
X84219106Y-31115942D01*
X84104820Y-31115942D01*
X84066725Y-31096894D01*
X84047677Y-31077847D01*
%TO.C,R7*%
X81975333Y-49456952D02*
X81842000Y-49266476D01*
X81746761Y-49456952D02*
X81746761Y-49056952D01*
X81899142Y-49056952D01*
X81937238Y-49076000D01*
X81956285Y-49095047D01*
X81975333Y-49133142D01*
X81975333Y-49190285D01*
X81956285Y-49228380D01*
X81937238Y-49247428D01*
X81899142Y-49266476D01*
X81746761Y-49266476D01*
X82108666Y-49056952D02*
X82375333Y-49056952D01*
X82203904Y-49456952D01*
%TO.C,Q1*%
X86706047Y-49187095D02*
X86687000Y-49225190D01*
X86648904Y-49263285D01*
X86591761Y-49320428D01*
X86572714Y-49358523D01*
X86572714Y-49396619D01*
X86667952Y-49377571D02*
X86648904Y-49415666D01*
X86610809Y-49453761D01*
X86534619Y-49472809D01*
X86401285Y-49472809D01*
X86325095Y-49453761D01*
X86287000Y-49415666D01*
X86267952Y-49377571D01*
X86267952Y-49301380D01*
X86287000Y-49263285D01*
X86325095Y-49225190D01*
X86401285Y-49206142D01*
X86534619Y-49206142D01*
X86610809Y-49225190D01*
X86648904Y-49263285D01*
X86667952Y-49301380D01*
X86667952Y-49377571D01*
X86667952Y-48825190D02*
X86667952Y-49053761D01*
X86667952Y-48939476D02*
X86267952Y-48939476D01*
X86325095Y-48977571D01*
X86363190Y-49015666D01*
X86382238Y-49053761D01*
D11*
%TO.C,D2*%
X83793904Y-46172380D02*
X83793904Y-45172380D01*
X84032000Y-45172380D01*
X84174857Y-45220000D01*
X84270095Y-45315238D01*
X84317714Y-45410476D01*
X84365333Y-45600952D01*
X84365333Y-45743809D01*
X84317714Y-45934285D01*
X84270095Y-46029523D01*
X84174857Y-46124761D01*
X84032000Y-46172380D01*
X83793904Y-46172380D01*
X84746285Y-45267619D02*
X84793904Y-45220000D01*
X84889142Y-45172380D01*
X85127238Y-45172380D01*
X85222476Y-45220000D01*
X85270095Y-45267619D01*
X85317714Y-45362857D01*
X85317714Y-45458095D01*
X85270095Y-45600952D01*
X84698666Y-46172380D01*
X85317714Y-46172380D01*
D15*
%TO.C,R4*%
X85277333Y-51943952D02*
X85144000Y-51753476D01*
X85048761Y-51943952D02*
X85048761Y-51543952D01*
X85201142Y-51543952D01*
X85239238Y-51563000D01*
X85258285Y-51582047D01*
X85277333Y-51620142D01*
X85277333Y-51677285D01*
X85258285Y-51715380D01*
X85239238Y-51734428D01*
X85201142Y-51753476D01*
X85048761Y-51753476D01*
X85620190Y-51677285D02*
X85620190Y-51943952D01*
X85524952Y-51524904D02*
X85429714Y-51810619D01*
X85677333Y-51810619D01*
D13*
%TO.C,C9*%
X81991200Y-51109847D02*
X81976685Y-51124361D01*
X81933142Y-51138875D01*
X81904114Y-51138875D01*
X81860571Y-51124361D01*
X81831542Y-51095332D01*
X81817028Y-51066304D01*
X81802514Y-51008247D01*
X81802514Y-50964704D01*
X81817028Y-50906647D01*
X81831542Y-50877618D01*
X81860571Y-50848590D01*
X81904114Y-50834075D01*
X81933142Y-50834075D01*
X81976685Y-50848590D01*
X81991200Y-50863104D01*
X82136342Y-51138875D02*
X82194400Y-51138875D01*
X82223428Y-51124361D01*
X82237942Y-51109847D01*
X82266971Y-51066304D01*
X82281485Y-51008247D01*
X82281485Y-50892132D01*
X82266971Y-50863104D01*
X82252457Y-50848590D01*
X82223428Y-50834075D01*
X82165371Y-50834075D01*
X82136342Y-50848590D01*
X82121828Y-50863104D01*
X82107314Y-50892132D01*
X82107314Y-50964704D01*
X82121828Y-50993732D01*
X82136342Y-51008247D01*
X82165371Y-51022761D01*
X82223428Y-51022761D01*
X82252457Y-51008247D01*
X82266971Y-50993732D01*
X82281485Y-50964704D01*
D12*
%TO.C,C5*%
X68942857Y-54787800D02*
X68957371Y-54802314D01*
X68971885Y-54845857D01*
X68971885Y-54874885D01*
X68957371Y-54918428D01*
X68928342Y-54947457D01*
X68899314Y-54961971D01*
X68841257Y-54976485D01*
X68797714Y-54976485D01*
X68739657Y-54961971D01*
X68710628Y-54947457D01*
X68681600Y-54918428D01*
X68667085Y-54874885D01*
X68667085Y-54845857D01*
X68681600Y-54802314D01*
X68696114Y-54787800D01*
X68667085Y-54512028D02*
X68667085Y-54657171D01*
X68812228Y-54671685D01*
X68797714Y-54657171D01*
X68783200Y-54628142D01*
X68783200Y-54555571D01*
X68797714Y-54526542D01*
X68812228Y-54512028D01*
X68841257Y-54497514D01*
X68913828Y-54497514D01*
X68942857Y-54512028D01*
X68957371Y-54526542D01*
X68971885Y-54555571D01*
X68971885Y-54628142D01*
X68957371Y-54657171D01*
X68942857Y-54671685D01*
D14*
%TO.C,Y1*%
X75307976Y-47150261D02*
X75701071Y-47150261D01*
X75489404Y-47392166D01*
X75580119Y-47392166D01*
X75640595Y-47422404D01*
X75670833Y-47452642D01*
X75701071Y-47513119D01*
X75701071Y-47664309D01*
X75670833Y-47724785D01*
X75640595Y-47755023D01*
X75580119Y-47785261D01*
X75398690Y-47785261D01*
X75338214Y-47755023D01*
X75307976Y-47724785D01*
X75942976Y-47210738D02*
X75973214Y-47180500D01*
X76033690Y-47150261D01*
X76184880Y-47150261D01*
X76245357Y-47180500D01*
X76275595Y-47210738D01*
X76305833Y-47271214D01*
X76305833Y-47331690D01*
X76275595Y-47422404D01*
X75912738Y-47785261D01*
X76305833Y-47785261D01*
X76577976Y-47724785D02*
X76608214Y-47755023D01*
X76577976Y-47785261D01*
X76547738Y-47755023D01*
X76577976Y-47724785D01*
X76577976Y-47785261D01*
X76819880Y-47150261D02*
X77243214Y-47150261D01*
X76971071Y-47785261D01*
X77757261Y-47150261D02*
X77636309Y-47150261D01*
X77575833Y-47180500D01*
X77545595Y-47210738D01*
X77485119Y-47301452D01*
X77454880Y-47422404D01*
X77454880Y-47664309D01*
X77485119Y-47724785D01*
X77515357Y-47755023D01*
X77575833Y-47785261D01*
X77696785Y-47785261D01*
X77757261Y-47755023D01*
X77787500Y-47724785D01*
X77817738Y-47664309D01*
X77817738Y-47513119D01*
X77787500Y-47452642D01*
X77757261Y-47422404D01*
X77696785Y-47392166D01*
X77575833Y-47392166D01*
X77515357Y-47422404D01*
X77485119Y-47452642D01*
X77454880Y-47513119D01*
X78180595Y-47422404D02*
X78120119Y-47392166D01*
X78089880Y-47361928D01*
X78059642Y-47301452D01*
X78059642Y-47271214D01*
X78089880Y-47210738D01*
X78120119Y-47180500D01*
X78180595Y-47150261D01*
X78301547Y-47150261D01*
X78362023Y-47180500D01*
X78392261Y-47210738D01*
X78422500Y-47271214D01*
X78422500Y-47301452D01*
X78392261Y-47361928D01*
X78362023Y-47392166D01*
X78301547Y-47422404D01*
X78180595Y-47422404D01*
X78120119Y-47452642D01*
X78089880Y-47482880D01*
X78059642Y-47543357D01*
X78059642Y-47664309D01*
X78089880Y-47724785D01*
X78120119Y-47755023D01*
X78180595Y-47785261D01*
X78301547Y-47785261D01*
X78362023Y-47755023D01*
X78392261Y-47724785D01*
X78422500Y-47664309D01*
X78422500Y-47543357D01*
X78392261Y-47482880D01*
X78362023Y-47452642D01*
X78301547Y-47422404D01*
X78694642Y-47785261D02*
X78694642Y-47150261D01*
X78694642Y-47452642D02*
X79057500Y-47452642D01*
X79057500Y-47785261D02*
X79057500Y-47150261D01*
X79299404Y-47361928D02*
X79632023Y-47361928D01*
X79299404Y-47785261D01*
X79632023Y-47785261D01*
D16*
X77107142Y-48950847D02*
X77107142Y-49313704D01*
X76853142Y-48551704D02*
X77107142Y-48950847D01*
X77361142Y-48551704D01*
X78014285Y-49313704D02*
X77578857Y-49313704D01*
X77796571Y-49313704D02*
X77796571Y-48551704D01*
X77724000Y-48660561D01*
X77651428Y-48733132D01*
X77578857Y-48769418D01*
D14*
%TO.C,U4*%
X89262823Y-57691261D02*
X89262823Y-58205309D01*
X89293061Y-58265785D01*
X89323299Y-58296023D01*
X89383775Y-58326261D01*
X89504728Y-58326261D01*
X89565204Y-58296023D01*
X89595442Y-58265785D01*
X89625680Y-58205309D01*
X89625680Y-57691261D01*
X90200204Y-57902928D02*
X90200204Y-58326261D01*
X90049013Y-57661023D02*
X89897823Y-58114595D01*
X90290918Y-58114595D01*
D11*
%TO.C,J3*%
X93686380Y-47053331D02*
X94400666Y-47053331D01*
X94543523Y-47100950D01*
X94638761Y-47196188D01*
X94686380Y-47339045D01*
X94686380Y-47434283D01*
X93686380Y-46672378D02*
X93686380Y-46053331D01*
X94067333Y-46386664D01*
X94067333Y-46243807D01*
X94114952Y-46148569D01*
X94162571Y-46100950D01*
X94257809Y-46053331D01*
X94495904Y-46053331D01*
X94591142Y-46100950D01*
X94638761Y-46148569D01*
X94686380Y-46243807D01*
X94686380Y-46529521D01*
X94638761Y-46624759D01*
X94591142Y-46672378D01*
D12*
%TO.C,R12*%
X89720057Y-55456875D02*
X89618457Y-55311732D01*
X89545885Y-55456875D02*
X89545885Y-55152075D01*
X89662000Y-55152075D01*
X89691028Y-55166590D01*
X89705542Y-55181104D01*
X89720057Y-55210132D01*
X89720057Y-55253675D01*
X89705542Y-55282704D01*
X89691028Y-55297218D01*
X89662000Y-55311732D01*
X89545885Y-55311732D01*
X90010342Y-55456875D02*
X89836171Y-55456875D01*
X89923257Y-55456875D02*
X89923257Y-55152075D01*
X89894228Y-55195618D01*
X89865200Y-55224647D01*
X89836171Y-55239161D01*
X90126457Y-55181104D02*
X90140971Y-55166590D01*
X90170000Y-55152075D01*
X90242571Y-55152075D01*
X90271600Y-55166590D01*
X90286114Y-55181104D01*
X90300628Y-55210132D01*
X90300628Y-55239161D01*
X90286114Y-55282704D01*
X90111942Y-55456875D01*
X90300628Y-55456875D01*
%TO.C,C1*%
X74276857Y-55041800D02*
X74291371Y-55056314D01*
X74305885Y-55099857D01*
X74305885Y-55128885D01*
X74291371Y-55172428D01*
X74262342Y-55201457D01*
X74233314Y-55215971D01*
X74175257Y-55230485D01*
X74131714Y-55230485D01*
X74073657Y-55215971D01*
X74044628Y-55201457D01*
X74015600Y-55172428D01*
X74001085Y-55128885D01*
X74001085Y-55099857D01*
X74015600Y-55056314D01*
X74030114Y-55041800D01*
X74305885Y-54751514D02*
X74305885Y-54925685D01*
X74305885Y-54838600D02*
X74001085Y-54838600D01*
X74044628Y-54867628D01*
X74073657Y-54896657D01*
X74088171Y-54925685D01*
D15*
%TO.C,R8*%
X88064952Y-33531674D02*
X87874476Y-33665008D01*
X88064952Y-33760246D02*
X87664952Y-33760246D01*
X87664952Y-33607865D01*
X87684000Y-33569769D01*
X87703047Y-33550722D01*
X87741142Y-33531674D01*
X87798285Y-33531674D01*
X87836380Y-33550722D01*
X87855428Y-33569769D01*
X87874476Y-33607865D01*
X87874476Y-33760246D01*
X87836380Y-33303103D02*
X87817333Y-33341198D01*
X87798285Y-33360246D01*
X87760190Y-33379293D01*
X87741142Y-33379293D01*
X87703047Y-33360246D01*
X87684000Y-33341198D01*
X87664952Y-33303103D01*
X87664952Y-33226912D01*
X87684000Y-33188817D01*
X87703047Y-33169769D01*
X87741142Y-33150722D01*
X87760190Y-33150722D01*
X87798285Y-33169769D01*
X87817333Y-33188817D01*
X87836380Y-33226912D01*
X87836380Y-33303103D01*
X87855428Y-33341198D01*
X87874476Y-33360246D01*
X87912571Y-33379293D01*
X87988761Y-33379293D01*
X88026857Y-33360246D01*
X88045904Y-33341198D01*
X88064952Y-33303103D01*
X88064952Y-33226912D01*
X88045904Y-33188817D01*
X88026857Y-33169769D01*
X87988761Y-33150722D01*
X87912571Y-33150722D01*
X87874476Y-33169769D01*
X87855428Y-33188817D01*
X87836380Y-33226912D01*
D14*
%TO.C,D4*%
X88981642Y-33902952D02*
X88981642Y-34114619D01*
X89314261Y-34114619D02*
X88679261Y-34114619D01*
X88679261Y-33812238D01*
X88679261Y-33570333D02*
X89193309Y-33570333D01*
X89253785Y-33540095D01*
X89284023Y-33509857D01*
X89314261Y-33449380D01*
X89314261Y-33328428D01*
X89284023Y-33267952D01*
X89253785Y-33237714D01*
X89193309Y-33207476D01*
X88679261Y-33207476D01*
X89314261Y-32602714D02*
X89314261Y-32905095D01*
X88679261Y-32905095D01*
X89314261Y-32088666D02*
X89314261Y-32391047D01*
X88679261Y-32391047D01*
D15*
X86532368Y-33730692D02*
X86151368Y-33730692D01*
X86151368Y-33639978D01*
X86169511Y-33585549D01*
X86205796Y-33549263D01*
X86242082Y-33531120D01*
X86314653Y-33512978D01*
X86369082Y-33512978D01*
X86441653Y-33531120D01*
X86477939Y-33549263D01*
X86514225Y-33585549D01*
X86532368Y-33639978D01*
X86532368Y-33730692D01*
X86278368Y-33186406D02*
X86532368Y-33186406D01*
X86133225Y-33277120D02*
X86405368Y-33367835D01*
X86405368Y-33131978D01*
%TO.C,D7*%
X88826952Y-37252238D02*
X88426952Y-37252238D01*
X88426952Y-37157000D01*
X88446000Y-37099857D01*
X88484095Y-37061761D01*
X88522190Y-37042714D01*
X88598380Y-37023666D01*
X88655523Y-37023666D01*
X88731714Y-37042714D01*
X88769809Y-37061761D01*
X88807904Y-37099857D01*
X88826952Y-37157000D01*
X88826952Y-37252238D01*
X88426952Y-36890333D02*
X88426952Y-36623666D01*
X88826952Y-36795095D01*
%TO.C,D6*%
X88826952Y-39919238D02*
X88426952Y-39919238D01*
X88426952Y-39824000D01*
X88446000Y-39766857D01*
X88484095Y-39728761D01*
X88522190Y-39709714D01*
X88598380Y-39690666D01*
X88655523Y-39690666D01*
X88731714Y-39709714D01*
X88769809Y-39728761D01*
X88807904Y-39766857D01*
X88826952Y-39824000D01*
X88826952Y-39919238D01*
X88426952Y-39347809D02*
X88426952Y-39424000D01*
X88446000Y-39462095D01*
X88465047Y-39481142D01*
X88522190Y-39519238D01*
X88598380Y-39538285D01*
X88750761Y-39538285D01*
X88788857Y-39519238D01*
X88807904Y-39500190D01*
X88826952Y-39462095D01*
X88826952Y-39385904D01*
X88807904Y-39347809D01*
X88788857Y-39328761D01*
X88750761Y-39309714D01*
X88655523Y-39309714D01*
X88617428Y-39328761D01*
X88598380Y-39347809D01*
X88579333Y-39385904D01*
X88579333Y-39462095D01*
X88598380Y-39500190D01*
X88617428Y-39519238D01*
X88655523Y-39538285D01*
D11*
%TO.C,D8*%
X91463904Y-44066390D02*
X91463904Y-43066390D01*
X91702000Y-43066390D01*
X91844857Y-43114010D01*
X91940095Y-43209248D01*
X91987714Y-43304486D01*
X92035333Y-43494962D01*
X92035333Y-43637819D01*
X91987714Y-43828295D01*
X91940095Y-43923533D01*
X91844857Y-44018771D01*
X91702000Y-44066390D01*
X91463904Y-44066390D01*
X92606761Y-43494962D02*
X92511523Y-43447343D01*
X92463904Y-43399724D01*
X92416285Y-43304486D01*
X92416285Y-43256867D01*
X92463904Y-43161629D01*
X92511523Y-43114010D01*
X92606761Y-43066390D01*
X92797238Y-43066390D01*
X92892476Y-43114010D01*
X92940095Y-43161629D01*
X92987714Y-43256867D01*
X92987714Y-43304486D01*
X92940095Y-43399724D01*
X92892476Y-43447343D01*
X92797238Y-43494962D01*
X92606761Y-43494962D01*
X92511523Y-43542581D01*
X92463904Y-43590200D01*
X92416285Y-43685438D01*
X92416285Y-43875914D01*
X92463904Y-43971152D01*
X92511523Y-44018771D01*
X92606761Y-44066390D01*
X92797238Y-44066390D01*
X92892476Y-44018771D01*
X92940095Y-43971152D01*
X92987714Y-43875914D01*
X92987714Y-43685438D01*
X92940095Y-43590200D01*
X92892476Y-43542581D01*
X92797238Y-43494962D01*
D17*
%TO.C,SW1*%
X96168381Y-58479657D02*
X96192191Y-58408229D01*
X96192191Y-58289181D01*
X96168381Y-58241562D01*
X96144572Y-58217752D01*
X96096953Y-58193943D01*
X96049334Y-58193943D01*
X96001715Y-58217752D01*
X95977905Y-58241562D01*
X95954096Y-58289181D01*
X95930286Y-58384419D01*
X95906477Y-58432038D01*
X95882667Y-58455848D01*
X95835048Y-58479657D01*
X95787429Y-58479657D01*
X95739810Y-58455848D01*
X95716001Y-58432038D01*
X95692191Y-58384419D01*
X95692191Y-58265371D01*
X95716001Y-58193943D01*
X95692191Y-58027276D02*
X96192191Y-57908229D01*
X95835048Y-57812991D01*
X96192191Y-57717752D01*
X95692191Y-57598705D01*
X96192191Y-57146324D02*
X96192191Y-57432038D01*
X96192191Y-57289181D02*
X95692191Y-57289181D01*
X95763620Y-57336800D01*
X95811239Y-57384419D01*
X95835048Y-57432038D01*
D11*
%TO.C,U2*%
X73406162Y-36790380D02*
X73406162Y-37599904D01*
X73453781Y-37695142D01*
X73501400Y-37742761D01*
X73596638Y-37790380D01*
X73787114Y-37790380D01*
X73882352Y-37742761D01*
X73929971Y-37695142D01*
X73977590Y-37599904D01*
X73977590Y-36790380D01*
X74406162Y-36885619D02*
X74453781Y-36838000D01*
X74549019Y-36790380D01*
X74787114Y-36790380D01*
X74882352Y-36838000D01*
X74929971Y-36885619D01*
X74977590Y-36980857D01*
X74977590Y-37076095D01*
X74929971Y-37218952D01*
X74358543Y-37790380D01*
X74977590Y-37790380D01*
%TO.C,J4*%
X93940380Y-35586323D02*
X94654666Y-35586323D01*
X94797523Y-35633942D01*
X94892761Y-35729180D01*
X94940380Y-35872037D01*
X94940380Y-35967275D01*
X94273714Y-34681561D02*
X94940380Y-34681561D01*
X93892761Y-34919656D02*
X94607047Y-35157751D01*
X94607047Y-34538704D01*
D16*
%TO.C,U1*%
X61929735Y-51689000D02*
X61857164Y-51652714D01*
X61748307Y-51652714D01*
X61639450Y-51689000D01*
X61566878Y-51761571D01*
X61530592Y-51834142D01*
X61494307Y-51979285D01*
X61494307Y-52088142D01*
X61530592Y-52233285D01*
X61566878Y-52305857D01*
X61639450Y-52378428D01*
X61748307Y-52414714D01*
X61820878Y-52414714D01*
X61929735Y-52378428D01*
X61966021Y-52342142D01*
X61966021Y-52088142D01*
X61820878Y-52088142D01*
X62292592Y-52414714D02*
X62292592Y-51652714D01*
X62728021Y-52414714D01*
X62728021Y-51652714D01*
X63090878Y-52414714D02*
X63090878Y-51652714D01*
X63272307Y-51652714D01*
X63381164Y-51689000D01*
X63453735Y-51761571D01*
X63490021Y-51834142D01*
X63526307Y-51979285D01*
X63526307Y-52088142D01*
X63490021Y-52233285D01*
X63453735Y-52305857D01*
X63381164Y-52378428D01*
X63272307Y-52414714D01*
X63090878Y-52414714D01*
X58228592Y-54192714D02*
X58482592Y-54954714D01*
X58736592Y-54192714D01*
X59426021Y-54882142D02*
X59389735Y-54918428D01*
X59280878Y-54954714D01*
X59208307Y-54954714D01*
X59099450Y-54918428D01*
X59026878Y-54845857D01*
X58990592Y-54773285D01*
X58954307Y-54628142D01*
X58954307Y-54519285D01*
X58990592Y-54374142D01*
X59026878Y-54301571D01*
X59099450Y-54229000D01*
X59208307Y-54192714D01*
X59280878Y-54192714D01*
X59389735Y-54229000D01*
X59426021Y-54265285D01*
X60188021Y-54882142D02*
X60151735Y-54918428D01*
X60042878Y-54954714D01*
X59970307Y-54954714D01*
X59861450Y-54918428D01*
X59788878Y-54845857D01*
X59752592Y-54773285D01*
X59716307Y-54628142D01*
X59716307Y-54519285D01*
X59752592Y-54374142D01*
X59788878Y-54301571D01*
X59861450Y-54229000D01*
X59970307Y-54192714D01*
X60042878Y-54192714D01*
X60151735Y-54229000D01*
X60188021Y-54265285D01*
X60333164Y-55027285D02*
X60913735Y-55027285D01*
X61494307Y-54229000D02*
X61421735Y-54192714D01*
X61312878Y-54192714D01*
X61204021Y-54229000D01*
X61131450Y-54301571D01*
X61095164Y-54374142D01*
X61058878Y-54519285D01*
X61058878Y-54628142D01*
X61095164Y-54773285D01*
X61131450Y-54845857D01*
X61204021Y-54918428D01*
X61312878Y-54954714D01*
X61385450Y-54954714D01*
X61494307Y-54918428D01*
X61530592Y-54882142D01*
X61530592Y-54628142D01*
X61385450Y-54628142D01*
X62111164Y-54555571D02*
X62220021Y-54591857D01*
X62256307Y-54628142D01*
X62292592Y-54700714D01*
X62292592Y-54809571D01*
X62256307Y-54882142D01*
X62220021Y-54918428D01*
X62147450Y-54954714D01*
X61857164Y-54954714D01*
X61857164Y-54192714D01*
X62111164Y-54192714D01*
X62183735Y-54229000D01*
X62220021Y-54265285D01*
X62256307Y-54337857D01*
X62256307Y-54410428D01*
X62220021Y-54483000D01*
X62183735Y-54519285D01*
X62111164Y-54555571D01*
X61857164Y-54555571D01*
X62619164Y-54954714D02*
X62619164Y-54192714D01*
X62982021Y-54954714D02*
X62982021Y-54192714D01*
X63236021Y-54737000D01*
X63490021Y-54192714D01*
X63490021Y-54954714D01*
X59571164Y-56605714D02*
X59825164Y-57367714D01*
X60079164Y-56605714D01*
X60768592Y-57295142D02*
X60732307Y-57331428D01*
X60623450Y-57367714D01*
X60550878Y-57367714D01*
X60442021Y-57331428D01*
X60369450Y-57258857D01*
X60333164Y-57186285D01*
X60296878Y-57041142D01*
X60296878Y-56932285D01*
X60333164Y-56787142D01*
X60369450Y-56714571D01*
X60442021Y-56642000D01*
X60550878Y-56605714D01*
X60623450Y-56605714D01*
X60732307Y-56642000D01*
X60768592Y-56678285D01*
X61530592Y-57295142D02*
X61494307Y-57331428D01*
X61385450Y-57367714D01*
X61312878Y-57367714D01*
X61204021Y-57331428D01*
X61131450Y-57258857D01*
X61095164Y-57186285D01*
X61058878Y-57041142D01*
X61058878Y-56932285D01*
X61095164Y-56787142D01*
X61131450Y-56714571D01*
X61204021Y-56642000D01*
X61312878Y-56605714D01*
X61385450Y-56605714D01*
X61494307Y-56642000D01*
X61530592Y-56678285D01*
X61675735Y-57440285D02*
X62256307Y-57440285D01*
X62401450Y-57150000D02*
X62764307Y-57150000D01*
X62328878Y-57367714D02*
X62582878Y-56605714D01*
X62836878Y-57367714D01*
X63344878Y-56968571D02*
X63453735Y-57004857D01*
X63490021Y-57041142D01*
X63526307Y-57113714D01*
X63526307Y-57222571D01*
X63490021Y-57295142D01*
X63453735Y-57331428D01*
X63381164Y-57367714D01*
X63090878Y-57367714D01*
X63090878Y-56605714D01*
X63344878Y-56605714D01*
X63417450Y-56642000D01*
X63453735Y-56678285D01*
X63490021Y-56750857D01*
X63490021Y-56823428D01*
X63453735Y-56896000D01*
X63417450Y-56932285D01*
X63344878Y-56968571D01*
X63090878Y-56968571D01*
D14*
%TO.C,TP2*%
X96347642Y-42493595D02*
X96377880Y-42402880D01*
X96408119Y-42372642D01*
X96468595Y-42342404D01*
X96559309Y-42342404D01*
X96619785Y-42372642D01*
X96650023Y-42402880D01*
X96680261Y-42463357D01*
X96680261Y-42705261D01*
X96045261Y-42705261D01*
X96045261Y-42493595D01*
X96075500Y-42433119D01*
X96105738Y-42402880D01*
X96166214Y-42372642D01*
X96226690Y-42372642D01*
X96287166Y-42402880D01*
X96317404Y-42433119D01*
X96347642Y-42493595D01*
X96347642Y-42705261D01*
X96498833Y-42100500D02*
X96498833Y-41798119D01*
X96680261Y-42160976D02*
X96045261Y-41949309D01*
X96680261Y-41737642D01*
X96045261Y-41616690D02*
X96045261Y-41253833D01*
X96680261Y-41435261D02*
X96045261Y-41435261D01*
X96045261Y-41132880D02*
X96045261Y-40770023D01*
X96680261Y-40951452D02*
X96045261Y-40951452D01*
D12*
%TO.C,C12*%
X90011852Y-62880932D02*
X90026366Y-62895447D01*
X90040880Y-62938990D01*
X90040880Y-62968018D01*
X90026366Y-63011561D01*
X89997337Y-63040590D01*
X89968309Y-63055104D01*
X89910252Y-63069618D01*
X89866709Y-63069618D01*
X89808652Y-63055104D01*
X89779623Y-63040590D01*
X89750595Y-63011561D01*
X89736080Y-62968018D01*
X89736080Y-62938990D01*
X89750595Y-62895447D01*
X89765109Y-62880932D01*
X90040880Y-62590647D02*
X90040880Y-62764818D01*
X90040880Y-62677732D02*
X89736080Y-62677732D01*
X89779623Y-62706761D01*
X89808652Y-62735790D01*
X89823166Y-62764818D01*
X89765109Y-62474532D02*
X89750595Y-62460018D01*
X89736080Y-62430990D01*
X89736080Y-62358418D01*
X89750595Y-62329390D01*
X89765109Y-62314875D01*
X89794137Y-62300361D01*
X89823166Y-62300361D01*
X89866709Y-62314875D01*
X90040880Y-62489047D01*
X90040880Y-62300361D01*
D15*
%TO.C,D9*%
X93875315Y-41784825D02*
X93875315Y-41384825D01*
X93970554Y-41384825D01*
X94027696Y-41403873D01*
X94065792Y-41441968D01*
X94084839Y-41480063D01*
X94103887Y-41556253D01*
X94103887Y-41613396D01*
X94084839Y-41689587D01*
X94065792Y-41727682D01*
X94027696Y-41765777D01*
X93970554Y-41784825D01*
X93875315Y-41784825D01*
X94294363Y-41784825D02*
X94370554Y-41784825D01*
X94408649Y-41765777D01*
X94427696Y-41746730D01*
X94465792Y-41689587D01*
X94484839Y-41613396D01*
X94484839Y-41461015D01*
X94465792Y-41422920D01*
X94446744Y-41403873D01*
X94408649Y-41384825D01*
X94332458Y-41384825D01*
X94294363Y-41403873D01*
X94275315Y-41422920D01*
X94256268Y-41461015D01*
X94256268Y-41556253D01*
X94275315Y-41594349D01*
X94294363Y-41613396D01*
X94332458Y-41632444D01*
X94408649Y-41632444D01*
X94446744Y-41613396D01*
X94465792Y-41594349D01*
X94484839Y-41556253D01*
D13*
%TO.C,R1*%
X74051885Y-48818800D02*
X73906742Y-48920400D01*
X74051885Y-48992971D02*
X73747085Y-48992971D01*
X73747085Y-48876857D01*
X73761600Y-48847828D01*
X73776114Y-48833314D01*
X73805142Y-48818800D01*
X73848685Y-48818800D01*
X73877714Y-48833314D01*
X73892228Y-48847828D01*
X73906742Y-48876857D01*
X73906742Y-48992971D01*
X74051885Y-48528514D02*
X74051885Y-48702685D01*
X74051885Y-48615600D02*
X73747085Y-48615600D01*
X73790628Y-48644628D01*
X73819657Y-48673657D01*
X73834171Y-48702685D01*
D11*
%TO.C,U3*%
X84074095Y-38314380D02*
X84074095Y-39123904D01*
X84121714Y-39219142D01*
X84169333Y-39266761D01*
X84264571Y-39314380D01*
X84455047Y-39314380D01*
X84550285Y-39266761D01*
X84597904Y-39219142D01*
X84645523Y-39123904D01*
X84645523Y-38314380D01*
X85026476Y-38314380D02*
X85645523Y-38314380D01*
X85312190Y-38695333D01*
X85455047Y-38695333D01*
X85550285Y-38742952D01*
X85597904Y-38790571D01*
X85645523Y-38885809D01*
X85645523Y-39123904D01*
X85597904Y-39219142D01*
X85550285Y-39266761D01*
X85455047Y-39314380D01*
X85169333Y-39314380D01*
X85074095Y-39266761D01*
X85026476Y-39219142D01*
D13*
%TO.C,R13*%
X86958714Y-31049894D02*
X86874047Y-30928942D01*
X86813571Y-31049894D02*
X86813571Y-30795894D01*
X86910333Y-30795894D01*
X86934523Y-30807990D01*
X86946619Y-30820085D01*
X86958714Y-30844275D01*
X86958714Y-30880561D01*
X86946619Y-30904751D01*
X86934523Y-30916847D01*
X86910333Y-30928942D01*
X86813571Y-30928942D01*
X87200619Y-31049894D02*
X87055476Y-31049894D01*
X87128047Y-31049894D02*
X87128047Y-30795894D01*
X87103857Y-30832180D01*
X87079666Y-30856370D01*
X87055476Y-30868466D01*
X87285285Y-30795894D02*
X87442523Y-30795894D01*
X87357857Y-30892656D01*
X87394142Y-30892656D01*
X87418333Y-30904751D01*
X87430428Y-30916847D01*
X87442523Y-30941037D01*
X87442523Y-31001513D01*
X87430428Y-31025704D01*
X87418333Y-31037799D01*
X87394142Y-31049894D01*
X87321571Y-31049894D01*
X87297380Y-31037799D01*
X87285285Y-31025704D01*
D15*
%TO.C,R6*%
X85017943Y-33541656D02*
X84827467Y-33674990D01*
X85017943Y-33770228D02*
X84617943Y-33770228D01*
X84617943Y-33617847D01*
X84636991Y-33579751D01*
X84656038Y-33560704D01*
X84694133Y-33541656D01*
X84751276Y-33541656D01*
X84789371Y-33560704D01*
X84808419Y-33579751D01*
X84827467Y-33617847D01*
X84827467Y-33770228D01*
X84617943Y-33198799D02*
X84617943Y-33274990D01*
X84636991Y-33313085D01*
X84656038Y-33332132D01*
X84713181Y-33370228D01*
X84789371Y-33389275D01*
X84941752Y-33389275D01*
X84979848Y-33370228D01*
X84998895Y-33351180D01*
X85017943Y-33313085D01*
X85017943Y-33236894D01*
X84998895Y-33198799D01*
X84979848Y-33179751D01*
X84941752Y-33160704D01*
X84846514Y-33160704D01*
X84808419Y-33179751D01*
X84789371Y-33198799D01*
X84770324Y-33236894D01*
X84770324Y-33313085D01*
X84789371Y-33351180D01*
X84808419Y-33370228D01*
X84846514Y-33389275D01*
D12*
%TO.C,C11*%
X90011847Y-61356922D02*
X90026361Y-61371437D01*
X90040875Y-61414980D01*
X90040875Y-61444008D01*
X90026361Y-61487551D01*
X89997332Y-61516580D01*
X89968304Y-61531094D01*
X89910247Y-61545608D01*
X89866704Y-61545608D01*
X89808647Y-61531094D01*
X89779618Y-61516580D01*
X89750590Y-61487551D01*
X89736075Y-61444008D01*
X89736075Y-61414980D01*
X89750590Y-61371437D01*
X89765104Y-61356922D01*
X90040875Y-61066637D02*
X90040875Y-61240808D01*
X90040875Y-61153722D02*
X89736075Y-61153722D01*
X89779618Y-61182751D01*
X89808647Y-61211780D01*
X89823161Y-61240808D01*
X90040875Y-60776351D02*
X90040875Y-60950522D01*
X90040875Y-60863437D02*
X89736075Y-60863437D01*
X89779618Y-60892465D01*
X89808647Y-60921494D01*
X89823161Y-60950522D01*
D13*
%TO.C,C4*%
X68180857Y-48691800D02*
X68195371Y-48706314D01*
X68209885Y-48749857D01*
X68209885Y-48778885D01*
X68195371Y-48822428D01*
X68166342Y-48851457D01*
X68137314Y-48865971D01*
X68079257Y-48880485D01*
X68035714Y-48880485D01*
X67977657Y-48865971D01*
X67948628Y-48851457D01*
X67919600Y-48822428D01*
X67905085Y-48778885D01*
X67905085Y-48749857D01*
X67919600Y-48706314D01*
X67934114Y-48691800D01*
X68006685Y-48430542D02*
X68209885Y-48430542D01*
X67890571Y-48503114D02*
X68108285Y-48575685D01*
X68108285Y-48387000D01*
D12*
%TO.C,C6*%
X77270428Y-52101666D02*
X77294619Y-52125857D01*
X77318809Y-52198428D01*
X77318809Y-52246809D01*
X77294619Y-52319380D01*
X77246238Y-52367761D01*
X77197857Y-52391952D01*
X77101095Y-52416142D01*
X77028523Y-52416142D01*
X76931761Y-52391952D01*
X76883380Y-52367761D01*
X76835000Y-52319380D01*
X76810809Y-52246809D01*
X76810809Y-52198428D01*
X76835000Y-52125857D01*
X76859190Y-52101666D01*
X76810809Y-51666238D02*
X76810809Y-51763000D01*
X76835000Y-51811380D01*
X76859190Y-51835571D01*
X76931761Y-51883952D01*
X77028523Y-51908142D01*
X77222047Y-51908142D01*
X77270428Y-51883952D01*
X77294619Y-51859761D01*
X77318809Y-51811380D01*
X77318809Y-51714619D01*
X77294619Y-51666238D01*
X77270428Y-51642047D01*
X77222047Y-51617857D01*
X77101095Y-51617857D01*
X77052714Y-51642047D01*
X77028523Y-51666238D01*
X77004333Y-51714619D01*
X77004333Y-51811380D01*
X77028523Y-51859761D01*
X77052714Y-51883952D01*
X77101095Y-51908142D01*
D13*
%TO.C,C2*%
X72226714Y-48810333D02*
X72238809Y-48822428D01*
X72250904Y-48858714D01*
X72250904Y-48882904D01*
X72238809Y-48919190D01*
X72214619Y-48943380D01*
X72190428Y-48955476D01*
X72142047Y-48967571D01*
X72105761Y-48967571D01*
X72057380Y-48955476D01*
X72033190Y-48943380D01*
X72009000Y-48919190D01*
X71996904Y-48882904D01*
X71996904Y-48858714D01*
X72009000Y-48822428D01*
X72021095Y-48810333D01*
X72021095Y-48713571D02*
X72009000Y-48701476D01*
X71996904Y-48677285D01*
X71996904Y-48616809D01*
X72009000Y-48592619D01*
X72021095Y-48580523D01*
X72045285Y-48568428D01*
X72069476Y-48568428D01*
X72105761Y-48580523D01*
X72250904Y-48725666D01*
X72250904Y-48568428D01*
D15*
%TO.C,R3*%
X86547333Y-43561942D02*
X86414000Y-43371466D01*
X86318761Y-43561942D02*
X86318761Y-43161942D01*
X86471142Y-43161942D01*
X86509238Y-43180990D01*
X86528285Y-43200037D01*
X86547333Y-43238132D01*
X86547333Y-43295275D01*
X86528285Y-43333370D01*
X86509238Y-43352418D01*
X86471142Y-43371466D01*
X86318761Y-43371466D01*
X86680666Y-43161942D02*
X86928285Y-43161942D01*
X86794952Y-43314323D01*
X86852095Y-43314323D01*
X86890190Y-43333370D01*
X86909238Y-43352418D01*
X86928285Y-43390513D01*
X86928285Y-43485751D01*
X86909238Y-43523847D01*
X86890190Y-43542894D01*
X86852095Y-43561942D01*
X86737809Y-43561942D01*
X86699714Y-43542894D01*
X86680666Y-43523847D01*
D13*
%TO.C,D1*%
X70260028Y-49286885D02*
X70260028Y-48982085D01*
X70332600Y-48982085D01*
X70376142Y-48996600D01*
X70405171Y-49025628D01*
X70419685Y-49054657D01*
X70434200Y-49112714D01*
X70434200Y-49156257D01*
X70419685Y-49214314D01*
X70405171Y-49243342D01*
X70376142Y-49272371D01*
X70332600Y-49286885D01*
X70260028Y-49286885D01*
X70724485Y-49286885D02*
X70550314Y-49286885D01*
X70637400Y-49286885D02*
X70637400Y-48982085D01*
X70608371Y-49025628D01*
X70579342Y-49054657D01*
X70550314Y-49069171D01*
D18*
%TO.C,L1*%
X85885866Y-54989790D02*
X85619771Y-54989790D01*
X85619771Y-54430990D01*
X86364838Y-54989790D02*
X86045523Y-54989790D01*
X86205180Y-54989790D02*
X86205180Y-54430990D01*
X86151961Y-54510819D01*
X86098742Y-54564038D01*
X86045523Y-54590647D01*
D16*
%TO.C,J2*%
X59572978Y-50001714D02*
X59572978Y-49239714D01*
X60080978Y-49239714D02*
X60226121Y-49239714D01*
X60298692Y-49276000D01*
X60371264Y-49348571D01*
X60407550Y-49493714D01*
X60407550Y-49747714D01*
X60371264Y-49892857D01*
X60298692Y-49965428D01*
X60226121Y-50001714D01*
X60080978Y-50001714D01*
X60008407Y-49965428D01*
X59935835Y-49892857D01*
X59899550Y-49747714D01*
X59899550Y-49493714D01*
X59935835Y-49348571D01*
X60008407Y-49276000D01*
X60080978Y-49239714D01*
X60697835Y-49312285D02*
X60734121Y-49276000D01*
X60806692Y-49239714D01*
X60988121Y-49239714D01*
X61060692Y-49276000D01*
X61096978Y-49312285D01*
X61133264Y-49384857D01*
X61133264Y-49457428D01*
X61096978Y-49566285D01*
X60661550Y-50001714D01*
X61133264Y-50001714D01*
X61858978Y-50001714D02*
X61423550Y-50001714D01*
X61641264Y-50001714D02*
X61641264Y-49239714D01*
X61568692Y-49348571D01*
X61496121Y-49421142D01*
X61423550Y-49457428D01*
X59972121Y-44196000D02*
X59899550Y-44159714D01*
X59790692Y-44159714D01*
X59681835Y-44196000D01*
X59609264Y-44268571D01*
X59572978Y-44341142D01*
X59536692Y-44486285D01*
X59536692Y-44595142D01*
X59572978Y-44740285D01*
X59609264Y-44812857D01*
X59681835Y-44885428D01*
X59790692Y-44921714D01*
X59863264Y-44921714D01*
X59972121Y-44885428D01*
X60008407Y-44849142D01*
X60008407Y-44595142D01*
X59863264Y-44595142D01*
X60334978Y-44921714D02*
X60334978Y-44159714D01*
X60770407Y-44921714D01*
X60770407Y-44159714D01*
X61133264Y-44921714D02*
X61133264Y-44159714D01*
X61314692Y-44159714D01*
X61423550Y-44196000D01*
X61496121Y-44268571D01*
X61532407Y-44341142D01*
X61568692Y-44486285D01*
X61568692Y-44595142D01*
X61532407Y-44740285D01*
X61496121Y-44812857D01*
X61423550Y-44885428D01*
X61314692Y-44921714D01*
X61133264Y-44921714D01*
X59572978Y-47461714D02*
X59572978Y-46699714D01*
X60080978Y-46699714D02*
X60226121Y-46699714D01*
X60298692Y-46736000D01*
X60371264Y-46808571D01*
X60407550Y-46953714D01*
X60407550Y-47207714D01*
X60371264Y-47352857D01*
X60298692Y-47425428D01*
X60226121Y-47461714D01*
X60080978Y-47461714D01*
X60008407Y-47425428D01*
X59935835Y-47352857D01*
X59899550Y-47207714D01*
X59899550Y-46953714D01*
X59935835Y-46808571D01*
X60008407Y-46736000D01*
X60080978Y-46699714D01*
X60697835Y-46772285D02*
X60734121Y-46736000D01*
X60806692Y-46699714D01*
X60988121Y-46699714D01*
X61060692Y-46736000D01*
X61096978Y-46772285D01*
X61133264Y-46844857D01*
X61133264Y-46917428D01*
X61096978Y-47026285D01*
X60661550Y-47461714D01*
X61133264Y-47461714D01*
X61604978Y-46699714D02*
X61677550Y-46699714D01*
X61750121Y-46736000D01*
X61786407Y-46772285D01*
X61822692Y-46844857D01*
X61858978Y-46990000D01*
X61858978Y-47171428D01*
X61822692Y-47316571D01*
X61786407Y-47389142D01*
X61750121Y-47425428D01*
X61677550Y-47461714D01*
X61604978Y-47461714D01*
X61532407Y-47425428D01*
X61496121Y-47389142D01*
X61459835Y-47316571D01*
X61423550Y-47171428D01*
X61423550Y-46990000D01*
X61459835Y-46844857D01*
X61496121Y-46772285D01*
X61532407Y-46736000D01*
X61604978Y-46699714D01*
X59500407Y-33999714D02*
X59972121Y-33999714D01*
X59718121Y-34290000D01*
X59826978Y-34290000D01*
X59899550Y-34326285D01*
X59935835Y-34362571D01*
X59972121Y-34435142D01*
X59972121Y-34616571D01*
X59935835Y-34689142D01*
X59899550Y-34725428D01*
X59826978Y-34761714D01*
X59609264Y-34761714D01*
X59536692Y-34725428D01*
X59500407Y-34689142D01*
X60226121Y-34253714D02*
X60407550Y-34761714D01*
X60588978Y-34253714D01*
X60806692Y-33999714D02*
X61278407Y-33999714D01*
X61024407Y-34290000D01*
X61133264Y-34290000D01*
X61205835Y-34326285D01*
X61242121Y-34362571D01*
X61278407Y-34435142D01*
X61278407Y-34616571D01*
X61242121Y-34689142D01*
X61205835Y-34725428D01*
X61133264Y-34761714D01*
X60915550Y-34761714D01*
X60842978Y-34725428D01*
X60806692Y-34689142D01*
X59572978Y-42381714D02*
X59572978Y-41619714D01*
X60080978Y-41619714D02*
X60226121Y-41619714D01*
X60298692Y-41656000D01*
X60371264Y-41728571D01*
X60407550Y-41873714D01*
X60407550Y-42127714D01*
X60371264Y-42272857D01*
X60298692Y-42345428D01*
X60226121Y-42381714D01*
X60080978Y-42381714D01*
X60008407Y-42345428D01*
X59935835Y-42272857D01*
X59899550Y-42127714D01*
X59899550Y-41873714D01*
X59935835Y-41728571D01*
X60008407Y-41656000D01*
X60080978Y-41619714D01*
X60770407Y-42381714D02*
X60915550Y-42381714D01*
X60988121Y-42345428D01*
X61024407Y-42309142D01*
X61096978Y-42200285D01*
X61133264Y-42055142D01*
X61133264Y-41764857D01*
X61096978Y-41692285D01*
X61060692Y-41656000D01*
X60988121Y-41619714D01*
X60842978Y-41619714D01*
X60770407Y-41656000D01*
X60734121Y-41692285D01*
X60697835Y-41764857D01*
X60697835Y-41946285D01*
X60734121Y-42018857D01*
X60770407Y-42055142D01*
X60842978Y-42091428D01*
X60988121Y-42091428D01*
X61060692Y-42055142D01*
X61096978Y-42018857D01*
X61133264Y-41946285D01*
X59572978Y-37301714D02*
X59572978Y-36539714D01*
X60080978Y-36539714D02*
X60226121Y-36539714D01*
X60298692Y-36576000D01*
X60371264Y-36648571D01*
X60407550Y-36793714D01*
X60407550Y-37047714D01*
X60371264Y-37192857D01*
X60298692Y-37265428D01*
X60226121Y-37301714D01*
X60080978Y-37301714D01*
X60008407Y-37265428D01*
X59935835Y-37192857D01*
X59899550Y-37047714D01*
X59899550Y-36793714D01*
X59935835Y-36648571D01*
X60008407Y-36576000D01*
X60080978Y-36539714D01*
X60697835Y-36612285D02*
X60734121Y-36576000D01*
X60806692Y-36539714D01*
X60988121Y-36539714D01*
X61060692Y-36576000D01*
X61096978Y-36612285D01*
X61133264Y-36684857D01*
X61133264Y-36757428D01*
X61096978Y-36866285D01*
X60661550Y-37301714D01*
X61133264Y-37301714D01*
X59572978Y-39841714D02*
X59572978Y-39079714D01*
X60080978Y-39079714D02*
X60226121Y-39079714D01*
X60298692Y-39116000D01*
X60371264Y-39188571D01*
X60407550Y-39333714D01*
X60407550Y-39587714D01*
X60371264Y-39732857D01*
X60298692Y-39805428D01*
X60226121Y-39841714D01*
X60080978Y-39841714D01*
X60008407Y-39805428D01*
X59935835Y-39732857D01*
X59899550Y-39587714D01*
X59899550Y-39333714D01*
X59935835Y-39188571D01*
X60008407Y-39116000D01*
X60080978Y-39079714D01*
X61060692Y-39333714D02*
X61060692Y-39841714D01*
X60879264Y-39043428D02*
X60697835Y-39587714D01*
X61169550Y-39587714D01*
D12*
%TO.C,C8*%
X78032428Y-52101666D02*
X78056619Y-52125857D01*
X78080809Y-52198428D01*
X78080809Y-52246809D01*
X78056619Y-52319380D01*
X78008238Y-52367761D01*
X77959857Y-52391952D01*
X77863095Y-52416142D01*
X77790523Y-52416142D01*
X77693761Y-52391952D01*
X77645380Y-52367761D01*
X77597000Y-52319380D01*
X77572809Y-52246809D01*
X77572809Y-52198428D01*
X77597000Y-52125857D01*
X77621190Y-52101666D01*
X77790523Y-51811380D02*
X77766333Y-51859761D01*
X77742142Y-51883952D01*
X77693761Y-51908142D01*
X77669571Y-51908142D01*
X77621190Y-51883952D01*
X77597000Y-51859761D01*
X77572809Y-51811380D01*
X77572809Y-51714619D01*
X77597000Y-51666238D01*
X77621190Y-51642047D01*
X77669571Y-51617857D01*
X77693761Y-51617857D01*
X77742142Y-51642047D01*
X77766333Y-51666238D01*
X77790523Y-51714619D01*
X77790523Y-51811380D01*
X77814714Y-51859761D01*
X77838904Y-51883952D01*
X77887285Y-51908142D01*
X77984047Y-51908142D01*
X78032428Y-51883952D01*
X78056619Y-51859761D01*
X78080809Y-51811380D01*
X78080809Y-51714619D01*
X78056619Y-51666238D01*
X78032428Y-51642047D01*
X77984047Y-51617857D01*
X77887285Y-51617857D01*
X77838904Y-51642047D01*
X77814714Y-51666238D01*
X77790523Y-51714619D01*
D13*
%TO.C,R14*%
X91022714Y-41717894D02*
X90938047Y-41596942D01*
X90877571Y-41717894D02*
X90877571Y-41463894D01*
X90974333Y-41463894D01*
X90998523Y-41475990D01*
X91010619Y-41488085D01*
X91022714Y-41512275D01*
X91022714Y-41548561D01*
X91010619Y-41572751D01*
X90998523Y-41584847D01*
X90974333Y-41596942D01*
X90877571Y-41596942D01*
X91264619Y-41717894D02*
X91119476Y-41717894D01*
X91192047Y-41717894D02*
X91192047Y-41463894D01*
X91167857Y-41500180D01*
X91143666Y-41524370D01*
X91119476Y-41536466D01*
X91482333Y-41548561D02*
X91482333Y-41717894D01*
X91421857Y-41451799D02*
X91361380Y-41633228D01*
X91518619Y-41633228D01*
%TO.C,C7*%
X89008857Y-42415790D02*
X89023371Y-42430304D01*
X89037885Y-42473847D01*
X89037885Y-42502875D01*
X89023371Y-42546418D01*
X88994342Y-42575447D01*
X88965314Y-42589961D01*
X88907257Y-42604475D01*
X88863714Y-42604475D01*
X88805657Y-42589961D01*
X88776628Y-42575447D01*
X88747600Y-42546418D01*
X88733085Y-42502875D01*
X88733085Y-42473847D01*
X88747600Y-42430304D01*
X88762114Y-42415790D01*
X88733085Y-42314190D02*
X88733085Y-42110990D01*
X89037885Y-42241618D01*
D19*
%TO.C,J1*%
X68550000Y-60867000D02*
X68550000Y-62467000D01*
X77350000Y-60367000D02*
X77350000Y-64727000D01*
X70350000Y-60367000D02*
X77350000Y-60367000D01*
X69550000Y-60867000D02*
X68550000Y-60867000D01*
X79150000Y-60867000D02*
X79150000Y-62467000D01*
X68990000Y-58507000D02*
X68710000Y-58507000D01*
X79910000Y-64727000D02*
X79910000Y-56907000D01*
X67790000Y-58507000D02*
X68710000Y-58507000D01*
X78150000Y-60867000D02*
X79150000Y-60867000D01*
X68990000Y-58507000D02*
X68990000Y-57292000D01*
X68710000Y-56907000D02*
X67790000Y-56907000D01*
X69550000Y-62467000D02*
X69550000Y-64727000D01*
X78990000Y-56907000D02*
X78990000Y-58507000D01*
X78150000Y-62467000D02*
X78150000Y-60867000D01*
X70350000Y-64727000D02*
X70350000Y-60367000D01*
X78990000Y-58507000D02*
X78710000Y-58507000D01*
X79910000Y-56907000D02*
X78990000Y-56907000D01*
X79910000Y-58507000D02*
X78990000Y-58507000D01*
X79150000Y-62467000D02*
X78150000Y-62467000D01*
X69550000Y-62467000D02*
X69550000Y-60867000D01*
X69050000Y-62467000D02*
X69050000Y-64727000D01*
X68710000Y-58507000D02*
X68710000Y-56907000D01*
X68550000Y-62467000D02*
X69550000Y-62467000D01*
X67790000Y-56907000D02*
X67790000Y-64727000D01*
X67790000Y-64727000D02*
X79910000Y-64727000D01*
%TO.C,R11*%
X89678742Y-53018490D02*
X90153258Y-53018490D01*
X89678742Y-54063490D02*
X90153258Y-54063490D01*
%TO.C,C10*%
X84468580Y-63449000D02*
X84187420Y-63449000D01*
X84468580Y-62429000D02*
X84187420Y-62429000D01*
%TO.C,R10*%
X70470500Y-54753742D02*
X70470500Y-55228258D01*
X71515500Y-54753742D02*
X71515500Y-55228258D01*
%TO.C,R2*%
X77232742Y-55333500D02*
X77707258Y-55333500D01*
X77232742Y-54288500D02*
X77707258Y-54288500D01*
%TO.C,C3*%
X73277000Y-51675420D02*
X73277000Y-51956580D01*
X74297000Y-51675420D02*
X74297000Y-51956580D01*
%TO.C,TP3*%
X87822000Y-62685000D02*
G75*
G03*
X87822000Y-62685000I-700000J0D01*
G01*
%TO.C,R9*%
X71994500Y-55228258D02*
X71994500Y-54753742D01*
X73039500Y-55228258D02*
X73039500Y-54753742D01*
%TO.C,R5*%
X82281500Y-33712248D02*
X82281500Y-33237732D01*
X83326500Y-33712248D02*
X83326500Y-33237732D01*
%TO.C,D5*%
X82081000Y-44116000D02*
X84366000Y-44116000D01*
X82081000Y-42646000D02*
X82081000Y-44116000D01*
X84366000Y-42646000D02*
X82081000Y-42646000D01*
%TO.C,TP1*%
X82234000Y-62738000D02*
G75*
G03*
X82234000Y-62738000I-700000J0D01*
G01*
%TO.C,D3*%
X82496000Y-30200000D02*
X82496000Y-31670000D01*
X84781000Y-30200000D02*
X82496000Y-30200000D01*
X82496000Y-31670000D02*
X84781000Y-31670000D01*
%TO.C,R7*%
X81804742Y-48753500D02*
X82279258Y-48753500D01*
X81804742Y-49798500D02*
X82279258Y-49798500D01*
%TO.C,Q1*%
X86904000Y-48968990D02*
X86904000Y-49618990D01*
X86904000Y-48968990D02*
X86904000Y-47293990D01*
X83784000Y-48968990D02*
X83784000Y-48318990D01*
X83784000Y-48968990D02*
X83784000Y-49618990D01*
%TO.C,D2*%
X82332000Y-44667000D02*
X82332000Y-46667000D01*
X82332000Y-44667000D02*
X86232000Y-44667000D01*
X82332000Y-46667000D02*
X86232000Y-46667000D01*
%TO.C,R4*%
X85581258Y-51240500D02*
X85106742Y-51240500D01*
X85581258Y-52285500D02*
X85106742Y-52285500D01*
%TO.C,C9*%
X82182580Y-51511000D02*
X81901420Y-51511000D01*
X82182580Y-50491000D02*
X81901420Y-50491000D01*
%TO.C,C5*%
X68324000Y-54596420D02*
X68324000Y-54877580D01*
X69344000Y-54596420D02*
X69344000Y-54877580D01*
%TO.C,Y1*%
X78145000Y-49843990D02*
X76795000Y-49843990D01*
X78145000Y-48093990D02*
X76795000Y-48093990D01*
%TO.C,U4*%
X88186622Y-58166000D02*
X88186622Y-59966000D01*
X91306622Y-58166000D02*
X91306622Y-57366000D01*
X91306622Y-58166000D02*
X91306622Y-58966000D01*
X88186622Y-58166000D02*
X88186622Y-57366000D01*
%TO.C,J3*%
X95310800Y-45326998D02*
X87490800Y-45326998D01*
X90950800Y-48886998D02*
X90950800Y-47886998D01*
X89090800Y-45326998D02*
X89090800Y-46246998D01*
X89090800Y-50246998D02*
X87875800Y-50246998D01*
X89090800Y-51446998D02*
X89090800Y-50526998D01*
X95310800Y-51446998D02*
X95310800Y-45326998D01*
X87490800Y-46246998D02*
X89090800Y-46246998D01*
X87490800Y-50526998D02*
X87490800Y-51446998D01*
X90950800Y-47886998D02*
X95310800Y-47886998D01*
X93050800Y-49686998D02*
X95310800Y-49686998D01*
X93050800Y-49686998D02*
X91450800Y-49686998D01*
X87490800Y-45326998D02*
X87490800Y-46246998D01*
X91450800Y-50686998D02*
X93050800Y-50686998D01*
X93050800Y-50686998D02*
X93050800Y-49686998D01*
X91450800Y-49686998D02*
X91450800Y-50686998D01*
X93050800Y-50186998D02*
X95310800Y-50186998D01*
X89090800Y-46246998D02*
X89090800Y-46526998D01*
X95310800Y-48886998D02*
X90950800Y-48886998D01*
X91450800Y-46086998D02*
X93050800Y-46086998D01*
X89090800Y-50246998D02*
X89090800Y-50526998D01*
X93050800Y-47086998D02*
X91450800Y-47086998D01*
X89090800Y-50526998D02*
X87490800Y-50526998D01*
X93050800Y-46086998D02*
X93050800Y-47086998D01*
X87490800Y-51446998D02*
X95310800Y-51446998D01*
X91450800Y-47086998D02*
X91450800Y-46086998D01*
%TO.C,R12*%
X89678742Y-55841500D02*
X90153258Y-55841500D01*
X89678742Y-54796500D02*
X90153258Y-54796500D01*
%TO.C,C1*%
X74678000Y-55131580D02*
X74678000Y-54850420D01*
X73658000Y-55131580D02*
X73658000Y-54850420D01*
%TO.C,R8*%
X87361500Y-33702266D02*
X87361500Y-33227750D01*
X88406500Y-33702266D02*
X88406500Y-33227750D01*
%TO.C,D4*%
X85532011Y-31964489D02*
X85532011Y-34249489D01*
X87002011Y-31964489D02*
X85532011Y-31964489D01*
X87002011Y-34249489D02*
X87002011Y-31964489D01*
%TO.C,D7*%
X87952173Y-38061489D02*
X89152173Y-38061489D01*
X87952173Y-36211489D02*
X87952173Y-38061489D01*
X89152173Y-36211489D02*
X89152173Y-38061489D01*
%TO.C,D6*%
X89246000Y-40324000D02*
X89246000Y-38474000D01*
X89246000Y-38474000D02*
X88046000Y-38474000D01*
X88046000Y-40324000D02*
X88046000Y-38474000D01*
%TO.C,D8*%
X89952000Y-42561000D02*
X89952000Y-44561000D01*
X89952000Y-42561000D02*
X93852000Y-42561000D01*
X89952000Y-44561000D02*
X93852000Y-44561000D01*
D11*
%TO.C,SW1*%
X96566004Y-56112986D02*
X96566004Y-53812986D01*
X91966004Y-62412986D02*
X91966004Y-53812986D01*
X96566004Y-62412986D02*
X96566004Y-60212986D01*
D19*
%TO.C,U2*%
X67418000Y-45954007D02*
X67418000Y-46754007D01*
X67568000Y-30104007D02*
X80768000Y-30104007D01*
X67568000Y-46604007D02*
X67568000Y-30104007D01*
X67568000Y-35404007D02*
X80768000Y-35404007D01*
X80918000Y-29954007D02*
X80918000Y-30604007D01*
X80168000Y-29954007D02*
X80918000Y-29954007D01*
X67418000Y-46754007D02*
X68218000Y-46754007D01*
X80918000Y-45954007D02*
X80918000Y-46754007D01*
X68268000Y-29954007D02*
X67418000Y-29954007D01*
X80768000Y-30104007D02*
X80768000Y-46604007D01*
X80768000Y-46604007D02*
X67568000Y-46604007D01*
X80918000Y-46754007D02*
X80118000Y-46754007D01*
%TO.C,J4*%
X98273000Y-30672990D02*
X98273000Y-39832990D01*
X98273000Y-39832990D02*
X96568000Y-39832990D01*
X94558000Y-30672990D02*
X92638000Y-30672990D01*
X96568000Y-30672990D02*
X98273000Y-30672990D01*
X92638000Y-39832990D02*
X94558000Y-39832990D01*
D20*
%TO.C,U1*%
X48514002Y-60906989D02*
G75*
G03*
X48514002Y-60906989I-1524001J0D01*
G01*
X66293998Y-60906989D02*
G75*
G03*
X66293998Y-60906989I-1523999J0D01*
G01*
X48535024Y-40586991D02*
G75*
G03*
X48535024Y-40586991I-1545023J0D01*
G01*
X54727460Y-53043462D02*
G75*
G03*
X54727460Y-53043462I-1500000J0D01*
G01*
X54727460Y-33231462D02*
G75*
G03*
X54727460Y-33231462I-1500000J0D01*
G01*
D19*
X44577000Y-60906990D02*
G75*
G03*
X46990000Y-63319990I2413002J2D01*
G01*
X46990000Y-38173990D02*
G75*
G03*
X44577000Y-40586990I2J-2413002D01*
G01*
X67183000Y-40586990D02*
G75*
G03*
X64770000Y-38173990I-2412999J1D01*
G01*
X64770000Y-63319990D02*
G75*
G03*
X67183000Y-60906990I-2J2413002D01*
G01*
D21*
X63387460Y-55837462D02*
X50433460Y-55837462D01*
X65927460Y-55837462D02*
X63387460Y-55837462D01*
D16*
X46990000Y-63319990D02*
X64770000Y-63319990D01*
X44577000Y-40586990D02*
X44577000Y-60906990D01*
X64770000Y-38173990D02*
X46990000Y-38173990D01*
X67183000Y-60906990D02*
X67183000Y-40586990D01*
D21*
X50433460Y-55837462D02*
X50433460Y-30437462D01*
X50433460Y-30437462D02*
X65927460Y-30437462D01*
X65927460Y-30437462D02*
X65927460Y-55837462D01*
D19*
%TO.C,TP2*%
X96458000Y-43635000D02*
G75*
G03*
X96458000Y-43635000I-700000J0D01*
G01*
%TO.C,G\u002A\u002A\u002A*%
G36*
X58585869Y-62709750D02*
G01*
X58602967Y-62771289D01*
X58618446Y-62821486D01*
X58630856Y-62856034D01*
X58638750Y-62870627D01*
X58639954Y-62870551D01*
X58646995Y-62854905D01*
X58659849Y-62819215D01*
X58676764Y-62768576D01*
X58695993Y-62708084D01*
X58698519Y-62699933D01*
X58748198Y-62539132D01*
X58833969Y-62539132D01*
X58890110Y-62709240D01*
X58910817Y-62770678D01*
X58928785Y-62821540D01*
X58942405Y-62857458D01*
X58950072Y-62874065D01*
X58950971Y-62874628D01*
X58956189Y-62861394D01*
X58967044Y-62826089D01*
X58983781Y-62767861D01*
X59006645Y-62685860D01*
X59033393Y-62588357D01*
X59043401Y-62557910D01*
X59057236Y-62543615D01*
X59083808Y-62539381D01*
X59105387Y-62539132D01*
X59142372Y-62542110D01*
X59162252Y-62549948D01*
X59163951Y-62553712D01*
X59160115Y-62570149D01*
X59149407Y-62607579D01*
X59133032Y-62662015D01*
X59112194Y-62729472D01*
X59088095Y-62805960D01*
X59082530Y-62823433D01*
X59001110Y-63078573D01*
X58949003Y-63074667D01*
X58929853Y-63073548D01*
X58915428Y-63071210D01*
X58903887Y-63064207D01*
X58893389Y-63049092D01*
X58882095Y-63022418D01*
X58868164Y-62980738D01*
X58849755Y-62920606D01*
X58827760Y-62847608D01*
X58792046Y-62729468D01*
X58766944Y-62814791D01*
X58748905Y-62875866D01*
X58728610Y-62944225D01*
X58715339Y-62988719D01*
X58688836Y-63077323D01*
X58637196Y-63077323D01*
X58601849Y-63073461D01*
X58581113Y-63063652D01*
X58579429Y-63060915D01*
X58572498Y-63040571D01*
X58559640Y-63001243D01*
X58542305Y-62947496D01*
X58521940Y-62883895D01*
X58499995Y-62815006D01*
X58477919Y-62745394D01*
X58457161Y-62679624D01*
X58439169Y-62622262D01*
X58425394Y-62577873D01*
X58417283Y-62551023D01*
X58415734Y-62545161D01*
X58427516Y-62541648D01*
X58457491Y-62539475D01*
X58478202Y-62539132D01*
X58540671Y-62539132D01*
X58585869Y-62709750D01*
G37*
G36*
X60067366Y-62698194D02*
G01*
X60080719Y-62666769D01*
X60085184Y-62658040D01*
X60121599Y-62601438D01*
X60163447Y-62566536D01*
X60217382Y-62549355D01*
X60273150Y-62545696D01*
X60340709Y-62551576D01*
X60392212Y-62572045D01*
X60435732Y-62611346D01*
X60460204Y-62644012D01*
X60478433Y-62678435D01*
X60487481Y-62719121D01*
X60489739Y-62770789D01*
X60489739Y-62854171D01*
X60332220Y-62854171D01*
X60265380Y-62854521D01*
X60220528Y-62855984D01*
X60193403Y-62859186D01*
X60179744Y-62864747D01*
X60175290Y-62873292D01*
X60175118Y-62877143D01*
X60187288Y-62916785D01*
X60217726Y-62946269D01*
X60259727Y-62963534D01*
X60306587Y-62966519D01*
X60351599Y-62953161D01*
X60373201Y-62938045D01*
X60389361Y-62926646D01*
X60405660Y-62927871D01*
X60430533Y-62943538D01*
X60443346Y-62953167D01*
X60471540Y-62976119D01*
X60481307Y-62991048D01*
X60475716Y-63005002D01*
X60469226Y-63012601D01*
X60422107Y-63047288D01*
X60359888Y-63069527D01*
X60291081Y-63078343D01*
X60224198Y-63072764D01*
X60167752Y-63051816D01*
X60161441Y-63047789D01*
X60117808Y-63013864D01*
X60088907Y-62978406D01*
X60071523Y-62934573D01*
X60062440Y-62875522D01*
X60059695Y-62831260D01*
X60058094Y-62772010D01*
X60059781Y-62739313D01*
X60175118Y-62739313D01*
X60178201Y-62751156D01*
X60191482Y-62758113D01*
X60220204Y-62761412D01*
X60269613Y-62762283D01*
X60273150Y-62762285D01*
X60323892Y-62761515D01*
X60353649Y-62758387D01*
X60367667Y-62751671D01*
X60371189Y-62740139D01*
X60371182Y-62739313D01*
X60358770Y-62701096D01*
X60328294Y-62671576D01*
X60287665Y-62655637D01*
X60244796Y-62658159D01*
X60241525Y-62659298D01*
X60202374Y-62684059D01*
X60178864Y-62719449D01*
X60175118Y-62739313D01*
X60059781Y-62739313D01*
X60060238Y-62730464D01*
X60067366Y-62698194D01*
G37*
G36*
X57085685Y-61834534D02*
G01*
X57123468Y-61775341D01*
X57175875Y-61737511D01*
X57243609Y-61720383D01*
X57271165Y-61719156D01*
X57349174Y-61730105D01*
X57412116Y-61761954D01*
X57458622Y-61813213D01*
X57487328Y-61882387D01*
X57496871Y-61965706D01*
X57496871Y-62040321D01*
X57333200Y-62040321D01*
X57265253Y-62040600D01*
X57219561Y-62041829D01*
X57192132Y-62044599D01*
X57178971Y-62049499D01*
X57176083Y-62057119D01*
X57177637Y-62063292D01*
X57192263Y-62089828D01*
X57212330Y-62115799D01*
X57248736Y-62138575D01*
X57295907Y-62145332D01*
X57343340Y-62135442D01*
X57362822Y-62124803D01*
X57400904Y-62111203D01*
X57439296Y-62123727D01*
X57465482Y-62146911D01*
X57480583Y-62165911D01*
X57479841Y-62179939D01*
X57461343Y-62198743D01*
X57454065Y-62205035D01*
X57392490Y-62241654D01*
X57318756Y-62259402D01*
X57240109Y-62257095D01*
X57197830Y-62246990D01*
X57142887Y-62216263D01*
X57099735Y-62165547D01*
X57070125Y-62099110D01*
X57055812Y-62021223D01*
X57058547Y-61936156D01*
X57058683Y-61935308D01*
X57168630Y-61935308D01*
X57273681Y-61935308D01*
X57322460Y-61934478D01*
X57359195Y-61932271D01*
X57377674Y-61929114D01*
X57378732Y-61928093D01*
X57373276Y-61912596D01*
X57360021Y-61884710D01*
X57358803Y-61882340D01*
X57328292Y-61847264D01*
X57288230Y-61831919D01*
X57245878Y-61835870D01*
X57208497Y-61858684D01*
X57186031Y-61892646D01*
X57168630Y-61935308D01*
X57058683Y-61935308D01*
X57061823Y-61915749D01*
X57085685Y-61834534D01*
G37*
G36*
X59413357Y-61888747D02*
G01*
X59414560Y-61958489D01*
X59417877Y-62018552D01*
X59422870Y-62063151D01*
X59428186Y-62084759D01*
X59456446Y-62120064D01*
X59495390Y-62136622D01*
X59537351Y-62134459D01*
X59574663Y-62113599D01*
X59595682Y-62084199D01*
X59601503Y-62058379D01*
X59606172Y-62012376D01*
X59609239Y-61952251D01*
X59610256Y-61888747D01*
X59610256Y-61725282D01*
X59728396Y-61725282D01*
X59728396Y-62250347D01*
X59669326Y-62250347D01*
X59629222Y-62247365D01*
X59611662Y-62237780D01*
X59610256Y-62232072D01*
X59605417Y-62222737D01*
X59587515Y-62226431D01*
X59561537Y-62238635D01*
X59511067Y-62258102D01*
X59463283Y-62259793D01*
X59433047Y-62253855D01*
X59383612Y-62230512D01*
X59339381Y-62191030D01*
X59313422Y-62150367D01*
X59304808Y-62117225D01*
X59299036Y-62064539D01*
X59295922Y-61989924D01*
X59295217Y-61916040D01*
X59295217Y-61725282D01*
X59413357Y-61725282D01*
X59413357Y-61888747D01*
G37*
G36*
X60650314Y-61834367D02*
G01*
X60655104Y-61824253D01*
X60691912Y-61777280D01*
X60744471Y-61739300D01*
X60803086Y-61716289D01*
X60836878Y-61712156D01*
X60889513Y-61722105D01*
X60946238Y-61748088D01*
X60996560Y-61784308D01*
X61024543Y-61815828D01*
X61041938Y-61848567D01*
X61051091Y-61886324D01*
X61054124Y-61938731D01*
X61054184Y-61950376D01*
X61054184Y-62040321D01*
X60896664Y-62040321D01*
X60822823Y-62041267D01*
X60773016Y-62044950D01*
X60745067Y-62052634D01*
X60736798Y-62065583D01*
X60746032Y-62085063D01*
X60770591Y-62112339D01*
X60771365Y-62113114D01*
X60815470Y-62140010D01*
X60869359Y-62142913D01*
X60927360Y-62124012D01*
X60958001Y-62111233D01*
X60979331Y-62111706D01*
X61004630Y-62126818D01*
X61013008Y-62132955D01*
X61038673Y-62153450D01*
X61045518Y-62167337D01*
X61036259Y-62183024D01*
X61031093Y-62188948D01*
X60979277Y-62228867D01*
X60912629Y-62253039D01*
X60838487Y-62259778D01*
X60769536Y-62249009D01*
X60717329Y-62221910D01*
X60671448Y-62176530D01*
X60639285Y-62120819D01*
X60633140Y-62102271D01*
X60623315Y-62038165D01*
X60623463Y-61965046D01*
X60629655Y-61917354D01*
X60739780Y-61917354D01*
X60754994Y-61929158D01*
X60792268Y-61934366D01*
X60837595Y-61935308D01*
X60888585Y-61934476D01*
X60918535Y-61931204D01*
X60932626Y-61924326D01*
X60936044Y-61913182D01*
X60927530Y-61888392D01*
X60907503Y-61860676D01*
X60867634Y-61834660D01*
X60823194Y-61830872D01*
X60782070Y-61849077D01*
X60766351Y-61864882D01*
X60744331Y-61896685D01*
X60739780Y-61917354D01*
X60629655Y-61917354D01*
X60632743Y-61893564D01*
X60650314Y-61834367D01*
G37*
G36*
X56054246Y-61931349D02*
G01*
X56059756Y-61876545D01*
X56069184Y-61837736D01*
X56071386Y-61832925D01*
X56112432Y-61778252D01*
X56166100Y-61741186D01*
X56227446Y-61721384D01*
X56291527Y-61718504D01*
X56353396Y-61732205D01*
X56408110Y-61762144D01*
X56450724Y-61807979D01*
X56474180Y-61860788D01*
X56483067Y-61913994D01*
X56485569Y-61977439D01*
X56482281Y-62043236D01*
X56473798Y-62103500D01*
X56460712Y-62150343D01*
X56450989Y-62168608D01*
X56401514Y-62214713D01*
X56337294Y-62245823D01*
X56266764Y-62259263D01*
X56198362Y-62252360D01*
X56192339Y-62250568D01*
X56140679Y-62222827D01*
X56094353Y-62177752D01*
X56071386Y-62142704D01*
X56061224Y-62107826D01*
X56054980Y-62055381D01*
X56053334Y-62011749D01*
X56171934Y-62011749D01*
X56175941Y-62059547D01*
X56184126Y-62092536D01*
X56185068Y-62094431D01*
X56210583Y-62121261D01*
X56247841Y-62140474D01*
X56266903Y-62144502D01*
X56284916Y-62139567D01*
X56313804Y-62126507D01*
X56314537Y-62126129D01*
X56343389Y-62106119D01*
X56359828Y-62085676D01*
X56365742Y-62053862D01*
X56367766Y-62007041D01*
X56366119Y-61956135D01*
X56361020Y-61912066D01*
X56355960Y-61892269D01*
X56330991Y-61858872D01*
X56292819Y-61840942D01*
X56249837Y-61839016D01*
X56210435Y-61853634D01*
X56185008Y-61881310D01*
X56176464Y-61912449D01*
X56172107Y-61959322D01*
X56171934Y-62011749D01*
X56053334Y-62011749D01*
X56052655Y-61993758D01*
X56054246Y-61931349D01*
G37*
G36*
X57091499Y-62824016D02*
G01*
X57117590Y-62795945D01*
X57141043Y-62778669D01*
X57165647Y-62768531D01*
X57199274Y-62763691D01*
X57249797Y-62762308D01*
X57261599Y-62762285D01*
X57365605Y-62762285D01*
X57365404Y-62726187D01*
X57361954Y-62694150D01*
X57355559Y-62675744D01*
X57330800Y-62659686D01*
X57290181Y-62653296D01*
X57242509Y-62657263D01*
X57214649Y-62664737D01*
X57179297Y-62675299D01*
X57156169Y-62674623D01*
X57133397Y-62661902D01*
X57129326Y-62658940D01*
X57102550Y-62632493D01*
X57100550Y-62607993D01*
X57123496Y-62581222D01*
X57132749Y-62573979D01*
X57180460Y-62551672D01*
X57242589Y-62540795D01*
X57309753Y-62541701D01*
X57372567Y-62554741D01*
X57395749Y-62564092D01*
X57433480Y-62587590D01*
X57461786Y-62614509D01*
X57468599Y-62625267D01*
X57474896Y-62653264D01*
X57479642Y-62704503D01*
X57482653Y-62776012D01*
X57483743Y-62864814D01*
X57483745Y-62867915D01*
X57483745Y-63077323D01*
X57424675Y-63077323D01*
X57384807Y-63074035D01*
X57366436Y-63064780D01*
X57365605Y-63061572D01*
X57361731Y-63052439D01*
X57349853Y-63061572D01*
X57328363Y-63069873D01*
X57289644Y-63074812D01*
X57242523Y-63076241D01*
X57195827Y-63074014D01*
X57158382Y-63067983D01*
X57149016Y-63064914D01*
X57102584Y-63033225D01*
X57072881Y-62987005D01*
X57060644Y-62932539D01*
X57064353Y-62897435D01*
X57174036Y-62897435D01*
X57176507Y-62925609D01*
X57198339Y-62949060D01*
X57232765Y-62965639D01*
X57273021Y-62973201D01*
X57312339Y-62969597D01*
X57343955Y-62952681D01*
X57344977Y-62951683D01*
X57360277Y-62923657D01*
X57365605Y-62892613D01*
X57363970Y-62869431D01*
X57354439Y-62858175D01*
X57330076Y-62854587D01*
X57303254Y-62854350D01*
X57242088Y-62857373D01*
X57202471Y-62866953D01*
X57180214Y-62884486D01*
X57174036Y-62897435D01*
X57064353Y-62897435D01*
X57066605Y-62876114D01*
X57091499Y-62824016D01*
G37*
G36*
X58876337Y-58086614D02*
G01*
X58891573Y-58165350D01*
X58906051Y-58235383D01*
X58918836Y-58292550D01*
X58928991Y-58332687D01*
X58935580Y-58351629D01*
X58936075Y-58352269D01*
X58952550Y-58361681D01*
X58987919Y-58378093D01*
X59036530Y-58399198D01*
X59092729Y-58422690D01*
X59150861Y-58446262D01*
X59205275Y-58467608D01*
X59250315Y-58484420D01*
X59280329Y-58494393D01*
X59288689Y-58496135D01*
X59303765Y-58488999D01*
X59336698Y-58469151D01*
X59383836Y-58438932D01*
X59441527Y-58400684D01*
X59506119Y-58356748D01*
X59506168Y-58356714D01*
X59571077Y-58312306D01*
X59629285Y-58272995D01*
X59677064Y-58241258D01*
X59710685Y-58219573D01*
X59726345Y-58210444D01*
X59740776Y-58217133D01*
X59769626Y-58239635D01*
X59809442Y-58274535D01*
X59856767Y-58318420D01*
X59908145Y-58367876D01*
X59960123Y-58419488D01*
X60009243Y-58469841D01*
X60052051Y-58515523D01*
X60085091Y-58553118D01*
X60104908Y-58579212D01*
X60109068Y-58588606D01*
X60101943Y-58605576D01*
X60082137Y-58640275D01*
X60051998Y-58688910D01*
X60013877Y-58747685D01*
X59971238Y-58811174D01*
X59927659Y-58875867D01*
X59889749Y-58933760D01*
X59859845Y-58981148D01*
X59840286Y-59014326D01*
X59833409Y-59029504D01*
X59838451Y-59047196D01*
X59852018Y-59083308D01*
X59871765Y-59132360D01*
X59895350Y-59188874D01*
X59920429Y-59247370D01*
X59944661Y-59302369D01*
X59965702Y-59348391D01*
X59981209Y-59379959D01*
X59988023Y-59391091D01*
X60003581Y-59396633D01*
X60040718Y-59405928D01*
X60095185Y-59418030D01*
X60162731Y-59431993D01*
X60237001Y-59446473D01*
X60313474Y-59461269D01*
X60381287Y-59474957D01*
X60436114Y-59486618D01*
X60473629Y-59495333D01*
X60489371Y-59500093D01*
X60494358Y-59516316D01*
X60498279Y-59557038D01*
X60501048Y-59620526D01*
X60502577Y-59705045D01*
X60502866Y-59770516D01*
X60502789Y-59859593D01*
X60502303Y-59925952D01*
X60501027Y-59973128D01*
X60498576Y-60004658D01*
X60494570Y-60024076D01*
X60488625Y-60034918D01*
X60480359Y-60040719D01*
X60473331Y-60043547D01*
X60450634Y-60049533D01*
X60407234Y-60058920D01*
X60348303Y-60070663D01*
X60279011Y-60083719D01*
X60235515Y-60091587D01*
X60154504Y-60107052D01*
X60087095Y-60121993D01*
X60037051Y-60135472D01*
X60008135Y-60146552D01*
X60004186Y-60149229D01*
X59992141Y-60167644D01*
X59973330Y-60205103D01*
X59950076Y-60256019D01*
X59924700Y-60314804D01*
X59899528Y-60375872D01*
X59876881Y-60433637D01*
X59859082Y-60482512D01*
X59848455Y-60516911D01*
X59846486Y-60528483D01*
X59853656Y-60544509D01*
X59873512Y-60578158D01*
X59903626Y-60625589D01*
X59941568Y-60682960D01*
X59977801Y-60736152D01*
X60020525Y-60799291D01*
X60057434Y-60856158D01*
X60086087Y-60902800D01*
X60104041Y-60935264D01*
X60109068Y-60948631D01*
X60100228Y-60963294D01*
X60076011Y-60992624D01*
X60039874Y-61033065D01*
X59995272Y-61081058D01*
X59945660Y-61133046D01*
X59894493Y-61185472D01*
X59845228Y-61234779D01*
X59801319Y-61277410D01*
X59766222Y-61309807D01*
X59743392Y-61328413D01*
X59737175Y-61331484D01*
X59723465Y-61324406D01*
X59691771Y-61304734D01*
X59645698Y-61274808D01*
X59588851Y-61236970D01*
X59527319Y-61195255D01*
X59328034Y-61059027D01*
X59234533Y-61105413D01*
X59188275Y-61126458D01*
X59149642Y-61140577D01*
X59125589Y-61145317D01*
X59122843Y-61144820D01*
X59114944Y-61132051D01*
X59098461Y-61098393D01*
X59074840Y-61047217D01*
X59045526Y-60981896D01*
X59011964Y-60905803D01*
X58975599Y-60822310D01*
X58937876Y-60734790D01*
X58900242Y-60646614D01*
X58864139Y-60561156D01*
X58831015Y-60481788D01*
X58802314Y-60411882D01*
X58779481Y-60354811D01*
X58763962Y-60313948D01*
X58757201Y-60292664D01*
X58757026Y-60291149D01*
X58766954Y-60280046D01*
X58793246Y-60258298D01*
X58830665Y-60230181D01*
X58839369Y-60223922D01*
X58935084Y-60142876D01*
X59006392Y-60053178D01*
X59054139Y-59953355D01*
X59079170Y-59841937D01*
X59082692Y-59800488D01*
X59076810Y-59685532D01*
X59048460Y-59579624D01*
X59000393Y-59484640D01*
X58935360Y-59402454D01*
X58856113Y-59334939D01*
X58765402Y-59283970D01*
X58665979Y-59251421D01*
X58560594Y-59239166D01*
X58451999Y-59249080D01*
X58342945Y-59283036D01*
X58330940Y-59288364D01*
X58233185Y-59346527D01*
X58153078Y-59421378D01*
X58091408Y-59509481D01*
X58048962Y-59607402D01*
X58026528Y-59711705D01*
X58024894Y-59818955D01*
X58044848Y-59925717D01*
X58087178Y-60028555D01*
X58142186Y-60111371D01*
X58175483Y-60146748D01*
X58220918Y-60187423D01*
X58267758Y-60223922D01*
X58306835Y-60252828D01*
X58335875Y-60276254D01*
X58349641Y-60289926D01*
X58350101Y-60291149D01*
X58345107Y-60308468D01*
X58331089Y-60345986D01*
X58309492Y-60400332D01*
X58281761Y-60468132D01*
X58249341Y-60546014D01*
X58213678Y-60630606D01*
X58176216Y-60718535D01*
X58138402Y-60806429D01*
X58101679Y-60890915D01*
X58067493Y-60968621D01*
X58037290Y-61036174D01*
X58012514Y-61090202D01*
X57994611Y-61127332D01*
X57985026Y-61144193D01*
X57984284Y-61144820D01*
X57964584Y-61142593D01*
X57928699Y-61130421D01*
X57883584Y-61110757D01*
X57872595Y-61105413D01*
X57779093Y-61059027D01*
X57579809Y-61195255D01*
X57515972Y-61238505D01*
X57459408Y-61276094D01*
X57413730Y-61305679D01*
X57382551Y-61324919D01*
X57369607Y-61331484D01*
X57357372Y-61322605D01*
X57329734Y-61297869D01*
X57289707Y-61260125D01*
X57240310Y-61212222D01*
X57184556Y-61157010D01*
X57178375Y-61150823D01*
X57122481Y-61093739D01*
X57073637Y-61041787D01*
X57034716Y-60998194D01*
X57008591Y-60966186D01*
X56998134Y-60948990D01*
X56998060Y-60948285D01*
X57005238Y-60930761D01*
X57025146Y-60895756D01*
X57055342Y-60847215D01*
X57093385Y-60789083D01*
X57129326Y-60736152D01*
X57171976Y-60673391D01*
X57208842Y-60617335D01*
X57237497Y-60571826D01*
X57255510Y-60540706D01*
X57260641Y-60528483D01*
X57255760Y-60508145D01*
X57242569Y-60469355D01*
X57223319Y-60417698D01*
X57200265Y-60358756D01*
X57175659Y-60298112D01*
X57151754Y-60241350D01*
X57130803Y-60194051D01*
X57115060Y-60161800D01*
X57108395Y-60151221D01*
X57090016Y-60142551D01*
X57050060Y-60130608D01*
X56992839Y-60116480D01*
X56922665Y-60101256D01*
X56868108Y-60090524D01*
X56793611Y-60076235D01*
X56727246Y-60063090D01*
X56673686Y-60052047D01*
X56637610Y-60044066D01*
X56624601Y-60040578D01*
X56617565Y-60034691D01*
X56612326Y-60020963D01*
X56608634Y-59996057D01*
X56606237Y-59956641D01*
X56604883Y-59899380D01*
X56604323Y-59820940D01*
X56604261Y-59770603D01*
X56604938Y-59673309D01*
X56606909Y-59595920D01*
X56610089Y-59540169D01*
X56614391Y-59507790D01*
X56617756Y-59500093D01*
X56634428Y-59495099D01*
X56672593Y-59486270D01*
X56727925Y-59474526D01*
X56796098Y-59460786D01*
X56870126Y-59446473D01*
X56946322Y-59431606D01*
X57013575Y-59417680D01*
X57067637Y-59405641D01*
X57104256Y-59396434D01*
X57119104Y-59391091D01*
X57128749Y-59374653D01*
X57145730Y-59339396D01*
X57167707Y-59290814D01*
X57192340Y-59234400D01*
X57217289Y-59175648D01*
X57240214Y-59120053D01*
X57258774Y-59073107D01*
X57270630Y-59040306D01*
X57273719Y-59028101D01*
X57266572Y-59012069D01*
X57246707Y-58978284D01*
X57216484Y-58930483D01*
X57178264Y-58872403D01*
X57135889Y-58809935D01*
X57092132Y-58745241D01*
X57054102Y-58686951D01*
X57024169Y-58638867D01*
X57004702Y-58604791D01*
X56998060Y-58588770D01*
X57006989Y-58572348D01*
X57031473Y-58542119D01*
X57068057Y-58501498D01*
X57113287Y-58453900D01*
X57163709Y-58402741D01*
X57215867Y-58351436D01*
X57266307Y-58303399D01*
X57311575Y-58262045D01*
X57348216Y-58230790D01*
X57372775Y-58213048D01*
X57380782Y-58210433D01*
X57396784Y-58219753D01*
X57430643Y-58241549D01*
X57478633Y-58273349D01*
X57537026Y-58312684D01*
X57601537Y-58356703D01*
X57666211Y-58400596D01*
X57723931Y-58438818D01*
X57771059Y-58469038D01*
X57803956Y-58488921D01*
X57818983Y-58496135D01*
X57819016Y-58496135D01*
X57837396Y-58491265D01*
X57874140Y-58478195D01*
X57923599Y-58459233D01*
X57980124Y-58436688D01*
X58038066Y-58412868D01*
X58091775Y-58390082D01*
X58135604Y-58370638D01*
X58163903Y-58356846D01*
X58171052Y-58352269D01*
X58177163Y-58336080D01*
X58186949Y-58298210D01*
X58199474Y-58242821D01*
X58213802Y-58174079D01*
X58228997Y-58096147D01*
X58230790Y-58086614D01*
X58278245Y-57833241D01*
X58828882Y-57833241D01*
X58876337Y-58086614D01*
G37*
G36*
X59799936Y-62541633D02*
G01*
X59817676Y-62550241D01*
X59820282Y-62559159D01*
X59822915Y-62571423D01*
X59835421Y-62570436D01*
X59859010Y-62559159D01*
X59922827Y-62540642D01*
X59993468Y-62546964D01*
X60015222Y-62553543D01*
X60044432Y-62567325D01*
X60053783Y-62584605D01*
X60043407Y-62610261D01*
X60017640Y-62644145D01*
X59992078Y-62671700D01*
X59975174Y-62680077D01*
X59962861Y-62673680D01*
X59931011Y-62658697D01*
X59891630Y-62661807D01*
X59854935Y-62681758D01*
X59848823Y-62687653D01*
X59837326Y-62701736D01*
X59829402Y-62718467D01*
X59824395Y-62742689D01*
X59821645Y-62779247D01*
X59820494Y-62832986D01*
X59820282Y-62897679D01*
X59820282Y-63077323D01*
X59702142Y-63077323D01*
X59702142Y-62539132D01*
X59761212Y-62539132D01*
X59799936Y-62541633D01*
G37*
G36*
X57882480Y-61730987D02*
G01*
X57894957Y-61736050D01*
X57929444Y-61753382D01*
X57955082Y-61773224D01*
X57973161Y-61799545D01*
X57984971Y-61836318D01*
X57991802Y-61887512D01*
X57994942Y-61957100D01*
X57995683Y-62046232D01*
X57995683Y-62250347D01*
X57893245Y-62250347D01*
X57888676Y-62071990D01*
X57886696Y-62000493D01*
X57884399Y-61950377D01*
X57880804Y-61916777D01*
X57874930Y-61894829D01*
X57865798Y-61879668D01*
X57852428Y-61866431D01*
X57846161Y-61861004D01*
X57802835Y-61837498D01*
X57759818Y-61839854D01*
X57720131Y-61867824D01*
X57716742Y-61871689D01*
X57707169Y-61886771D01*
X57700618Y-61908533D01*
X57696558Y-61941672D01*
X57694456Y-61990888D01*
X57693782Y-62060880D01*
X57693770Y-62074592D01*
X57693770Y-62250347D01*
X57575631Y-62250347D01*
X57575631Y-61725282D01*
X57633607Y-61725282D01*
X57673066Y-61728848D01*
X57695058Y-61738387D01*
X57697105Y-61741690D01*
X57706474Y-61751323D01*
X57721171Y-61742865D01*
X57765716Y-61721844D01*
X57822258Y-61717776D01*
X57882480Y-61730987D01*
G37*
G36*
X58623264Y-61734734D02*
G01*
X58668422Y-61755121D01*
X58698425Y-61773500D01*
X58715580Y-61787149D01*
X58717174Y-61790051D01*
X58709323Y-61804080D01*
X58690474Y-61829467D01*
X58684974Y-61836302D01*
X58653245Y-61875125D01*
X58606241Y-61852710D01*
X58552468Y-61834346D01*
X58502557Y-61830050D01*
X58461855Y-61838879D01*
X58435709Y-61859887D01*
X58428861Y-61884022D01*
X58431963Y-61899735D01*
X58444563Y-61910696D01*
X58471598Y-61918888D01*
X58518006Y-61926292D01*
X58541661Y-61929301D01*
X58604032Y-61938718D01*
X58646596Y-61950656D01*
X58675795Y-61968068D01*
X58698072Y-61993904D01*
X58704465Y-62003896D01*
X58727805Y-62063685D01*
X58727092Y-62121964D01*
X58704385Y-62174495D01*
X58661741Y-62217040D01*
X58601219Y-62245363D01*
X58585235Y-62249366D01*
X58535481Y-62258815D01*
X58498172Y-62261305D01*
X58460440Y-62256826D01*
X58425621Y-62249242D01*
X58391643Y-62237444D01*
X58351976Y-62218415D01*
X58313885Y-62196397D01*
X58284636Y-62175631D01*
X58271492Y-62160357D01*
X58271341Y-62159172D01*
X58279973Y-62145264D01*
X58301485Y-62121566D01*
X58309506Y-62113682D01*
X58347670Y-62077118D01*
X58387859Y-62106830D01*
X58439948Y-62131661D01*
X58497390Y-62142294D01*
X58541326Y-62143994D01*
X58568665Y-62138535D01*
X58588568Y-62123831D01*
X58591275Y-62120925D01*
X58610123Y-62094210D01*
X58610715Y-62073635D01*
X58591163Y-62057892D01*
X58549581Y-62045676D01*
X58484082Y-62035679D01*
X58465034Y-62033513D01*
X58414216Y-62024896D01*
X58378561Y-62009487D01*
X58350176Y-61985869D01*
X58325186Y-61956219D01*
X58313583Y-61925484D01*
X58310721Y-61881294D01*
X58310721Y-61880782D01*
X58313621Y-61836014D01*
X58325232Y-61805091D01*
X58348027Y-61777843D01*
X58403360Y-61740028D01*
X58471996Y-61719932D01*
X58547457Y-61718014D01*
X58623264Y-61734734D01*
G37*
G36*
X60463107Y-61722470D02*
G01*
X60536652Y-61753704D01*
X60555998Y-61766624D01*
X60611297Y-61806682D01*
X60570094Y-61847885D01*
X60542509Y-61872802D01*
X60523924Y-61880295D01*
X60506773Y-61873308D01*
X60506034Y-61872786D01*
X60448919Y-61843595D01*
X60394451Y-61837390D01*
X60346585Y-61854025D01*
X60318692Y-61879729D01*
X60299630Y-61921183D01*
X60291779Y-61975672D01*
X60295112Y-62032506D01*
X60309602Y-62080994D01*
X60319253Y-62096613D01*
X60360270Y-62130193D01*
X60410022Y-62140134D01*
X60465621Y-62126335D01*
X60505670Y-62103072D01*
X60523176Y-62095708D01*
X60542335Y-62103038D01*
X60568982Y-62126012D01*
X60609799Y-62165024D01*
X60566401Y-62201349D01*
X60497768Y-62243703D01*
X60424623Y-62260875D01*
X60349642Y-62252472D01*
X60312530Y-62238663D01*
X60249709Y-62200269D01*
X60206772Y-62150496D01*
X60181684Y-62085769D01*
X60172410Y-62002515D01*
X60172270Y-61992455D01*
X60177591Y-61910373D01*
X60195904Y-61846923D01*
X60228996Y-61796992D01*
X60246573Y-61779834D01*
X60314724Y-61735678D01*
X60388016Y-61716510D01*
X60463107Y-61722470D01*
G37*
G36*
X59175715Y-62866670D02*
G01*
X59196944Y-62820415D01*
X59230591Y-62788978D01*
X59280411Y-62770417D01*
X59350160Y-62762785D01*
X59377259Y-62762334D01*
X59478990Y-62762285D01*
X59478990Y-62724512D01*
X59472437Y-62691124D01*
X59459080Y-62670216D01*
X59429171Y-62658220D01*
X59385496Y-62654244D01*
X59339293Y-62658298D01*
X59302413Y-62670060D01*
X59278859Y-62678694D01*
X59256678Y-62673249D01*
X59231016Y-62656255D01*
X59204819Y-62634594D01*
X59190894Y-62618614D01*
X59190204Y-62616317D01*
X59199911Y-62603187D01*
X59224044Y-62582647D01*
X59232308Y-62576573D01*
X59277690Y-62554181D01*
X59338398Y-62542962D01*
X59353729Y-62541820D01*
X59440535Y-62544713D01*
X59508149Y-62565132D01*
X59557080Y-62603258D01*
X59567115Y-62616552D01*
X59578473Y-62635032D01*
X59586543Y-62654407D01*
X59591883Y-62679375D01*
X59595051Y-62714631D01*
X59596605Y-62764872D01*
X59597102Y-62834794D01*
X59597130Y-62869239D01*
X59597130Y-63077323D01*
X59538060Y-63077323D01*
X59502833Y-63074625D01*
X59481701Y-63067797D01*
X59478990Y-63063735D01*
X59470955Y-63056851D01*
X59453600Y-63063735D01*
X59414141Y-63074869D01*
X59360631Y-63077755D01*
X59303739Y-63072978D01*
X59254138Y-63061124D01*
X59233581Y-63051649D01*
X59193220Y-63012602D01*
X59171094Y-62959075D01*
X59169931Y-62922905D01*
X59283359Y-62922905D01*
X59296218Y-62951118D01*
X59305062Y-62958133D01*
X59345323Y-62970020D01*
X59394526Y-62969852D01*
X59438613Y-62958238D01*
X59449816Y-62951876D01*
X59474579Y-62919480D01*
X59478990Y-62892807D01*
X59477745Y-62870815D01*
X59469728Y-62859309D01*
X59448516Y-62854894D01*
X59407687Y-62854171D01*
X59405931Y-62854171D01*
X59360276Y-62856554D01*
X59322368Y-62862663D01*
X59307481Y-62867759D01*
X59287220Y-62891129D01*
X59283359Y-62922905D01*
X59169931Y-62922905D01*
X59169102Y-62897138D01*
X59175715Y-62866670D01*
G37*
G36*
X56623951Y-61725282D02*
G01*
X56664055Y-61728264D01*
X56681615Y-61737849D01*
X56683021Y-61743557D01*
X56688039Y-61752712D01*
X56706341Y-61748630D01*
X56732246Y-61736166D01*
X56795398Y-61716884D01*
X56859228Y-61721375D01*
X56917729Y-61748026D01*
X56964892Y-61795223D01*
X56967734Y-61799438D01*
X56979447Y-61831975D01*
X56987402Y-61883312D01*
X56991601Y-61946267D01*
X56992042Y-62013657D01*
X56988727Y-62078300D01*
X56981654Y-62133014D01*
X56970825Y-62170614D01*
X56967734Y-62176191D01*
X56921636Y-62224827D01*
X56863761Y-62253036D01*
X56800118Y-62259203D01*
X56736712Y-62241715D01*
X56732246Y-62239463D01*
X56683021Y-62213797D01*
X56683021Y-62577173D01*
X56728543Y-62558152D01*
X56798699Y-62540697D01*
X56864457Y-62547772D01*
X56902179Y-62564808D01*
X56933260Y-62585747D01*
X56956270Y-62608063D01*
X56972527Y-62636040D01*
X56983347Y-62673965D01*
X56990046Y-62726123D01*
X56993941Y-62796799D01*
X56995931Y-62869959D01*
X57000366Y-63077323D01*
X56879920Y-63077323D01*
X56879920Y-62912589D01*
X56878748Y-62831027D01*
X56875000Y-62771955D01*
X56868326Y-62731702D01*
X56860716Y-62710717D01*
X56829137Y-62672108D01*
X56789484Y-62657078D01*
X56746561Y-62666329D01*
X56715241Y-62689492D01*
X56702283Y-62703666D01*
X56693363Y-62719002D01*
X56687730Y-62740406D01*
X56684631Y-62772785D01*
X56683312Y-62821043D01*
X56683022Y-62890087D01*
X56683021Y-62899518D01*
X56683021Y-63077323D01*
X56564881Y-63077323D01*
X56564881Y-61957796D01*
X56686025Y-61957796D01*
X56687318Y-62025802D01*
X56701448Y-62086192D01*
X56727944Y-62126596D01*
X56764539Y-62145282D01*
X56808966Y-62140517D01*
X56826896Y-62132484D01*
X56854916Y-62104430D01*
X56872186Y-62060594D01*
X56879137Y-62007617D01*
X56876201Y-61952139D01*
X56863808Y-61900800D01*
X56842390Y-61860242D01*
X56812378Y-61837104D01*
X56807621Y-61835660D01*
X56760573Y-61834703D01*
X56723670Y-61856249D01*
X56698343Y-61898035D01*
X56686025Y-61957796D01*
X56564881Y-61957796D01*
X56564881Y-61725282D01*
X56623951Y-61725282D01*
G37*
G36*
X57950643Y-62745670D02*
G01*
X57953179Y-62696900D01*
X57958426Y-62662608D01*
X57967155Y-62636918D01*
X57975462Y-62621386D01*
X58017404Y-62575387D01*
X58072600Y-62547881D01*
X58134209Y-62540469D01*
X58195390Y-62554750D01*
X58215553Y-62565242D01*
X58258215Y-62591253D01*
X58258215Y-62329106D01*
X58376354Y-62329106D01*
X58376354Y-63077323D01*
X58317285Y-63077323D01*
X58278561Y-63074823D01*
X58260821Y-63066215D01*
X58258215Y-63057296D01*
X58255582Y-63045032D01*
X58243076Y-63046020D01*
X58219487Y-63057296D01*
X58163061Y-63074242D01*
X58099497Y-63074884D01*
X58041075Y-63059575D01*
X58026055Y-63051724D01*
X57995760Y-63030328D01*
X57974675Y-63005999D01*
X57961184Y-62973698D01*
X57953671Y-62928386D01*
X57950519Y-62865024D01*
X57950188Y-62829824D01*
X58062832Y-62829824D01*
X58070170Y-62884556D01*
X58086416Y-62927216D01*
X58095585Y-62939072D01*
X58129148Y-62956239D01*
X58171577Y-62957689D01*
X58211225Y-62944092D01*
X58226645Y-62931553D01*
X58240392Y-62910461D01*
X58248162Y-62880528D01*
X58251345Y-62834760D01*
X58251652Y-62805690D01*
X58250745Y-62753804D01*
X58246831Y-62721005D01*
X58238116Y-62700158D01*
X58222806Y-62684125D01*
X58220662Y-62682365D01*
X58178346Y-62661258D01*
X58134434Y-62660426D01*
X58097665Y-62679827D01*
X58094614Y-62682992D01*
X58075020Y-62720062D01*
X58064438Y-62771999D01*
X58062832Y-62829824D01*
X57950188Y-62829824D01*
X57950046Y-62814791D01*
X57950643Y-62745670D01*
G37*
G36*
X58785214Y-61949625D02*
G01*
X58792118Y-61877898D01*
X58807645Y-61825656D01*
X58835409Y-61786613D01*
X58879022Y-61754482D01*
X58905538Y-61740223D01*
X58977160Y-61717817D01*
X59049115Y-61721357D01*
X59119022Y-61750676D01*
X59126891Y-61755739D01*
X59166357Y-61788223D01*
X59192837Y-61826943D01*
X59208160Y-61877108D01*
X59214153Y-61943927D01*
X59213780Y-62003298D01*
X59209132Y-62078249D01*
X59198605Y-62132823D01*
X59179336Y-62172724D01*
X59148464Y-62203654D01*
X59103128Y-62231317D01*
X59098050Y-62233938D01*
X59033007Y-62257623D01*
X58967722Y-62259548D01*
X58919161Y-62249133D01*
X58874819Y-62225276D01*
X58832975Y-62184522D01*
X58801332Y-62135704D01*
X58789086Y-62099976D01*
X58785496Y-62064311D01*
X58784024Y-62012886D01*
X58784473Y-61985035D01*
X58901419Y-61985035D01*
X58904952Y-62049856D01*
X58916709Y-62093743D01*
X58938423Y-62121199D01*
X58958065Y-62132116D01*
X58987976Y-62142332D01*
X59010587Y-62141491D01*
X59040038Y-62128617D01*
X59044873Y-62126129D01*
X59071643Y-62108905D01*
X59087754Y-62086891D01*
X59095770Y-62053445D01*
X59098258Y-62001928D01*
X59098318Y-61987814D01*
X59096691Y-61931566D01*
X59090079Y-61894800D01*
X59075889Y-61870857D01*
X59051525Y-61853075D01*
X59044334Y-61849221D01*
X58995039Y-61834031D01*
X58954657Y-61842627D01*
X58924650Y-61873622D01*
X58906474Y-61925629D01*
X58901419Y-61985035D01*
X58784473Y-61985035D01*
X58784939Y-61956127D01*
X58785214Y-61949625D01*
G37*
G36*
X57686761Y-62541709D02*
G01*
X57704495Y-62550471D01*
X57706897Y-62558822D01*
X57708329Y-62573897D01*
X57717003Y-62576527D01*
X57739484Y-62566724D01*
X57754621Y-62558903D01*
X57815019Y-62541157D01*
X57879242Y-62545111D01*
X57917575Y-62559159D01*
X57943870Y-62574301D01*
X57956178Y-62584427D01*
X57956303Y-62584956D01*
X57948427Y-62597367D01*
X57928501Y-62622125D01*
X57916653Y-62635883D01*
X57890560Y-62663203D01*
X57871174Y-62673446D01*
X57849148Y-62670306D01*
X57838819Y-62666628D01*
X57791713Y-62660792D01*
X57750231Y-62677020D01*
X57721765Y-62712182D01*
X57719760Y-62717035D01*
X57714768Y-62743032D01*
X57710679Y-62788822D01*
X57707915Y-62847948D01*
X57706897Y-62913956D01*
X57706897Y-63077323D01*
X57588757Y-63077323D01*
X57588757Y-62539132D01*
X57647827Y-62539132D01*
X57686761Y-62541709D01*
G37*
G36*
X60109964Y-61720633D02*
G01*
X60160798Y-61738667D01*
X60169620Y-61744433D01*
X60182797Y-61756519D01*
X60183280Y-61769998D01*
X60169543Y-61792419D01*
X60156359Y-61810005D01*
X60127893Y-61841385D01*
X60105816Y-61850952D01*
X60097877Y-61849185D01*
X60050940Y-61835296D01*
X60013747Y-61840363D01*
X59987354Y-61856542D01*
X59951548Y-61884707D01*
X59951548Y-62250347D01*
X59833409Y-62250347D01*
X59833409Y-61725282D01*
X59891384Y-61725282D01*
X59927422Y-61728091D01*
X59950386Y-61735169D01*
X59953916Y-61738950D01*
X59967816Y-61743470D01*
X59998690Y-61732536D01*
X60001241Y-61731281D01*
X60052506Y-61717837D01*
X60109964Y-61720633D01*
G37*
%TO.C,C12*%
X89762415Y-62174990D02*
X90043575Y-62174990D01*
X89762415Y-63194990D02*
X90043575Y-63194990D01*
%TO.C,D9*%
X94871999Y-42202990D02*
X93021999Y-42202990D01*
X93021999Y-41002990D02*
X93021999Y-42202990D01*
X94871999Y-41002990D02*
X93021999Y-41002990D01*
%TO.C,R1*%
X73391500Y-49005258D02*
X73391500Y-48530742D01*
X74436500Y-49005258D02*
X74436500Y-48530742D01*
%TO.C,U3*%
X87396000Y-38808990D02*
X87396000Y-40758990D01*
X82276000Y-38808990D02*
X82276000Y-42258990D01*
X87396000Y-38808990D02*
X87396000Y-36858990D01*
X82276000Y-38808990D02*
X82276000Y-36858990D01*
%TO.C,R13*%
X87359258Y-30412490D02*
X86884742Y-30412490D01*
X87359258Y-31457490D02*
X86884742Y-31457490D01*
%TO.C,R6*%
X84220500Y-33712258D02*
X84220500Y-33237742D01*
X85265500Y-33712258D02*
X85265500Y-33237742D01*
%TO.C,C11*%
X89762415Y-60650990D02*
X90043575Y-60650990D01*
X89762415Y-61670990D02*
X90043575Y-61670990D01*
%TO.C,C4*%
X67562000Y-48500420D02*
X67562000Y-48781580D01*
X68582000Y-48500420D02*
X68582000Y-48781580D01*
%TO.C,C6*%
X75690000Y-52157580D02*
X75690000Y-51876420D01*
X76710000Y-52157580D02*
X76710000Y-51876420D01*
%TO.C,C2*%
X72646000Y-48627420D02*
X72646000Y-48908580D01*
X71626000Y-48627420D02*
X71626000Y-48908580D01*
%TO.C,R3*%
X86851258Y-42858490D02*
X86376742Y-42858490D01*
X86851258Y-43903490D02*
X86376742Y-43903490D01*
%TO.C,L1*%
X87579000Y-54937000D02*
X87579000Y-54537000D01*
X84379000Y-54937000D02*
X84379000Y-54537000D01*
%TO.C,J2*%
X59115000Y-35687000D02*
X59115000Y-50987000D01*
X56455000Y-35687000D02*
X56455000Y-50987000D01*
X56455000Y-33087000D02*
X57785000Y-33087000D01*
X56455000Y-50987000D02*
X59115000Y-50987000D01*
X56455000Y-34417000D02*
X56455000Y-33087000D01*
X56455000Y-35687000D02*
X59115000Y-35687000D01*
%TO.C,C8*%
X79250000Y-52157580D02*
X79250000Y-51876420D01*
X78230000Y-52157580D02*
X78230000Y-51876420D01*
%TO.C,R14*%
X90948742Y-41080500D02*
X91423258Y-41080500D01*
X90948742Y-42125500D02*
X91423258Y-42125500D01*
%TO.C,C7*%
X89410000Y-42224420D02*
X89410000Y-42505580D01*
X88390000Y-42224420D02*
X88390000Y-42505580D01*
%TD*%
M02*
