%TF.GenerationSoftware,KiCad,Pcbnew,(6.0.2)*%
%TF.CreationDate,2022-10-11T17:03:13-04:00*%
%TF.ProjectId,ferrous_slime,66657272-6f75-4735-9f73-6c696d652e6b,v0.2.0*%
%TF.SameCoordinates,Original*%
%TF.FileFunction,Legend,Top*%
%TF.FilePolarity,Positive*%
%FSLAX46Y46*%
G04 Gerber Fmt 4.6, Leading zero omitted, Abs format (unit mm)*
G04 Created by KiCad (PCBNEW (6.0.2)) date 2022-10-11 17:03:13*
%MOMM*%
%LPD*%
G01*
G04 APERTURE LIST*
%ADD10C,0.200000*%
%ADD11C,0.150000*%
%ADD12C,0.076200*%
%ADD13C,0.050800*%
%ADD14C,0.101600*%
%ADD15C,0.060000*%
%ADD16C,0.127000*%
%ADD17C,0.100000*%
%ADD18C,0.088900*%
%ADD19C,0.120000*%
%ADD20C,0.250000*%
%ADD21C,0.203000*%
G04 APERTURE END LIST*
D10*
X56279857Y-31281714D02*
X56517952Y-31948380D01*
X56756047Y-31281714D01*
X57327476Y-30948380D02*
X57422714Y-30948380D01*
X57517952Y-30996000D01*
X57565571Y-31043619D01*
X57613190Y-31138857D01*
X57660809Y-31329333D01*
X57660809Y-31567428D01*
X57613190Y-31757904D01*
X57565571Y-31853142D01*
X57517952Y-31900761D01*
X57422714Y-31948380D01*
X57327476Y-31948380D01*
X57232238Y-31900761D01*
X57184619Y-31853142D01*
X57137000Y-31757904D01*
X57089380Y-31567428D01*
X57089380Y-31329333D01*
X57137000Y-31138857D01*
X57184619Y-31043619D01*
X57232238Y-30996000D01*
X57327476Y-30948380D01*
X58089380Y-31853142D02*
X58137000Y-31900761D01*
X58089380Y-31948380D01*
X58041761Y-31900761D01*
X58089380Y-31853142D01*
X58089380Y-31948380D01*
X58517952Y-31043619D02*
X58565571Y-30996000D01*
X58660809Y-30948380D01*
X58898904Y-30948380D01*
X58994142Y-30996000D01*
X59041761Y-31043619D01*
X59089380Y-31138857D01*
X59089380Y-31234095D01*
X59041761Y-31376952D01*
X58470333Y-31948380D01*
X59089380Y-31948380D01*
X59517952Y-31853142D02*
X59565571Y-31900761D01*
X59517952Y-31948380D01*
X59470333Y-31900761D01*
X59517952Y-31853142D01*
X59517952Y-31948380D01*
X60184619Y-30948380D02*
X60279857Y-30948380D01*
X60375095Y-30996000D01*
X60422714Y-31043619D01*
X60470333Y-31138857D01*
X60517952Y-31329333D01*
X60517952Y-31567428D01*
X60470333Y-31757904D01*
X60422714Y-31853142D01*
X60375095Y-31900761D01*
X60279857Y-31948380D01*
X60184619Y-31948380D01*
X60089380Y-31900761D01*
X60041761Y-31853142D01*
X59994142Y-31757904D01*
X59946523Y-31567428D01*
X59946523Y-31329333D01*
X59994142Y-31138857D01*
X60041761Y-31043619D01*
X60089380Y-30996000D01*
X60184619Y-30948380D01*
D11*
X71278479Y-43318551D02*
X71682540Y-43722612D01*
X71736415Y-43830362D01*
X71736415Y-43938112D01*
X71682540Y-44045861D01*
X71628666Y-44099736D01*
X72382913Y-43345489D02*
X72113539Y-43614863D01*
X71547853Y-43049177D01*
X72840849Y-42779803D02*
X72840849Y-42833678D01*
X72786974Y-42941428D01*
X72733099Y-42995302D01*
X72625350Y-43049177D01*
X72517600Y-43049177D01*
X72436788Y-43022240D01*
X72302101Y-42941428D01*
X72221289Y-42860615D01*
X72140476Y-42725928D01*
X72113539Y-42645116D01*
X72113539Y-42537367D01*
X72167414Y-42429617D01*
X72221289Y-42375742D01*
X72329038Y-42321867D01*
X72382913Y-42321867D01*
X72733099Y-41863932D02*
X73137160Y-42267993D01*
X73191035Y-42375742D01*
X73191035Y-42483492D01*
X73137160Y-42591241D01*
X73083285Y-42645116D01*
X73837533Y-41890869D02*
X73568159Y-42160243D01*
X73002473Y-41594558D01*
X74295468Y-41325184D02*
X74295468Y-41379058D01*
X74241594Y-41486808D01*
X74187719Y-41540683D01*
X74079969Y-41594558D01*
X73972220Y-41594558D01*
X73891407Y-41567620D01*
X73756720Y-41486808D01*
X73675908Y-41405996D01*
X73595096Y-41271309D01*
X73568159Y-41190497D01*
X73568159Y-41082747D01*
X73622033Y-40974997D01*
X73675908Y-40921123D01*
X73783658Y-40867248D01*
X73837533Y-40867248D01*
X74187719Y-40409312D02*
X74591780Y-40813373D01*
X74645655Y-40921123D01*
X74645655Y-41028872D01*
X74591780Y-41136622D01*
X74537905Y-41190497D01*
X75292152Y-40436249D02*
X75022778Y-40705623D01*
X74457093Y-40139938D01*
X75750088Y-39870564D02*
X75750088Y-39924439D01*
X75696213Y-40032188D01*
X75642338Y-40086063D01*
X75534589Y-40139938D01*
X75426839Y-40139938D01*
X75346027Y-40113001D01*
X75211340Y-40032188D01*
X75130528Y-39951376D01*
X75049716Y-39816689D01*
X75022778Y-39735877D01*
X75022778Y-39628127D01*
X75076653Y-39520378D01*
X75130528Y-39466503D01*
X75238277Y-39412628D01*
X75292152Y-39412628D01*
X75642338Y-38954692D02*
X76046399Y-39358753D01*
X76100274Y-39466503D01*
X76100274Y-39574253D01*
X76046399Y-39682002D01*
X75992525Y-39735877D01*
X76746772Y-38981630D02*
X76477398Y-39251004D01*
X75911712Y-38685318D01*
X77204708Y-38415944D02*
X77204708Y-38469819D01*
X77150833Y-38577569D01*
X77096958Y-38631443D01*
X76989209Y-38685318D01*
X76881459Y-38685318D01*
X76800647Y-38658381D01*
X76665960Y-38577569D01*
X76585148Y-38496756D01*
X76504335Y-38362069D01*
X76477398Y-38281257D01*
X76477398Y-38173508D01*
X76531273Y-38065758D01*
X76585148Y-38011883D01*
X76692897Y-37958008D01*
X76746772Y-37958008D01*
%TO.C,J1*%
X73516658Y-61174380D02*
X73516658Y-61888666D01*
X73469039Y-62031523D01*
X73373801Y-62126761D01*
X73230944Y-62174380D01*
X73135706Y-62174380D01*
X74516658Y-62174380D02*
X73945230Y-62174380D01*
X74230944Y-62174380D02*
X74230944Y-61174380D01*
X74135706Y-61317238D01*
X74040468Y-61412476D01*
X73945230Y-61460095D01*
D12*
%TO.C,R11*%
X89720057Y-53678875D02*
X89618457Y-53533732D01*
X89545885Y-53678875D02*
X89545885Y-53374075D01*
X89662000Y-53374075D01*
X89691028Y-53388590D01*
X89705542Y-53403104D01*
X89720057Y-53432132D01*
X89720057Y-53475675D01*
X89705542Y-53504704D01*
X89691028Y-53519218D01*
X89662000Y-53533732D01*
X89545885Y-53533732D01*
X90010342Y-53678875D02*
X89836171Y-53678875D01*
X89923257Y-53678875D02*
X89923257Y-53374075D01*
X89894228Y-53417618D01*
X89865200Y-53446647D01*
X89836171Y-53461161D01*
X90300628Y-53678875D02*
X90126457Y-53678875D01*
X90213542Y-53678875D02*
X90213542Y-53374075D01*
X90184514Y-53417618D01*
X90155485Y-53446647D01*
X90126457Y-53461161D01*
%TO.C,C10*%
X84444265Y-63146552D02*
X84458779Y-63161067D01*
X84473293Y-63204610D01*
X84473293Y-63233638D01*
X84458779Y-63277181D01*
X84429750Y-63306210D01*
X84400722Y-63320724D01*
X84342665Y-63335238D01*
X84299122Y-63335238D01*
X84241065Y-63320724D01*
X84212036Y-63306210D01*
X84183008Y-63277181D01*
X84168493Y-63233638D01*
X84168493Y-63204610D01*
X84183008Y-63161067D01*
X84197522Y-63146552D01*
X84473293Y-62856267D02*
X84473293Y-63030438D01*
X84473293Y-62943352D02*
X84168493Y-62943352D01*
X84212036Y-62972381D01*
X84241065Y-63001410D01*
X84255579Y-63030438D01*
X84168493Y-62667581D02*
X84168493Y-62638552D01*
X84183008Y-62609524D01*
X84197522Y-62595010D01*
X84226550Y-62580495D01*
X84284608Y-62565981D01*
X84357179Y-62565981D01*
X84415236Y-62580495D01*
X84444265Y-62595010D01*
X84458779Y-62609524D01*
X84473293Y-62638552D01*
X84473293Y-62667581D01*
X84458779Y-62696610D01*
X84444265Y-62711124D01*
X84415236Y-62725638D01*
X84357179Y-62740152D01*
X84284608Y-62740152D01*
X84226550Y-62725638D01*
X84197522Y-62711124D01*
X84183008Y-62696610D01*
X84168493Y-62667581D01*
%TO.C,R10*%
X71130885Y-55186942D02*
X70985742Y-55288542D01*
X71130885Y-55361114D02*
X70826085Y-55361114D01*
X70826085Y-55245000D01*
X70840600Y-55215971D01*
X70855114Y-55201457D01*
X70884142Y-55186942D01*
X70927685Y-55186942D01*
X70956714Y-55201457D01*
X70971228Y-55215971D01*
X70985742Y-55245000D01*
X70985742Y-55361114D01*
X71130885Y-54896657D02*
X71130885Y-55070828D01*
X71130885Y-54983742D02*
X70826085Y-54983742D01*
X70869628Y-55012771D01*
X70898657Y-55041800D01*
X70913171Y-55070828D01*
X70826085Y-54707971D02*
X70826085Y-54678942D01*
X70840600Y-54649914D01*
X70855114Y-54635400D01*
X70884142Y-54620885D01*
X70942200Y-54606371D01*
X71014771Y-54606371D01*
X71072828Y-54620885D01*
X71101857Y-54635400D01*
X71116371Y-54649914D01*
X71130885Y-54678942D01*
X71130885Y-54707971D01*
X71116371Y-54737000D01*
X71101857Y-54751514D01*
X71072828Y-54766028D01*
X71014771Y-54780542D01*
X70942200Y-54780542D01*
X70884142Y-54766028D01*
X70855114Y-54751514D01*
X70840600Y-54737000D01*
X70826085Y-54707971D01*
%TO.C,R3*%
X77385333Y-55982809D02*
X77216000Y-55740904D01*
X77095047Y-55982809D02*
X77095047Y-55474809D01*
X77288571Y-55474809D01*
X77336952Y-55499000D01*
X77361142Y-55523190D01*
X77385333Y-55571571D01*
X77385333Y-55644142D01*
X77361142Y-55692523D01*
X77336952Y-55716714D01*
X77288571Y-55740904D01*
X77095047Y-55740904D01*
X77554666Y-55474809D02*
X77869142Y-55474809D01*
X77699809Y-55668333D01*
X77772380Y-55668333D01*
X77820761Y-55692523D01*
X77844952Y-55716714D01*
X77869142Y-55765095D01*
X77869142Y-55886047D01*
X77844952Y-55934428D01*
X77820761Y-55958619D01*
X77772380Y-55982809D01*
X77627238Y-55982809D01*
X77578857Y-55958619D01*
X77554666Y-55934428D01*
D13*
%TO.C,C3*%
X73895857Y-51866800D02*
X73910371Y-51881314D01*
X73924885Y-51924857D01*
X73924885Y-51953885D01*
X73910371Y-51997428D01*
X73881342Y-52026457D01*
X73852314Y-52040971D01*
X73794257Y-52055485D01*
X73750714Y-52055485D01*
X73692657Y-52040971D01*
X73663628Y-52026457D01*
X73634600Y-51997428D01*
X73620085Y-51953885D01*
X73620085Y-51924857D01*
X73634600Y-51881314D01*
X73649114Y-51866800D01*
X73620085Y-51765200D02*
X73620085Y-51576514D01*
X73736200Y-51678114D01*
X73736200Y-51634571D01*
X73750714Y-51605542D01*
X73765228Y-51591028D01*
X73794257Y-51576514D01*
X73866828Y-51576514D01*
X73895857Y-51591028D01*
X73910371Y-51605542D01*
X73924885Y-51634571D01*
X73924885Y-51721657D01*
X73910371Y-51750685D01*
X73895857Y-51765200D01*
D14*
%TO.C,TP3*%
X85985047Y-61120261D02*
X86378142Y-61120261D01*
X86166476Y-61362166D01*
X86257190Y-61362166D01*
X86317666Y-61392404D01*
X86347904Y-61422642D01*
X86378142Y-61483119D01*
X86378142Y-61634309D01*
X86347904Y-61694785D01*
X86317666Y-61725023D01*
X86257190Y-61755261D01*
X86075761Y-61755261D01*
X86015285Y-61725023D01*
X85985047Y-61694785D01*
X86589809Y-61331928D02*
X86741000Y-61755261D01*
X86892190Y-61331928D01*
X87073619Y-61120261D02*
X87466714Y-61120261D01*
X87255047Y-61362166D01*
X87345761Y-61362166D01*
X87406238Y-61392404D01*
X87436476Y-61422642D01*
X87466714Y-61483119D01*
X87466714Y-61634309D01*
X87436476Y-61694785D01*
X87406238Y-61725023D01*
X87345761Y-61755261D01*
X87164333Y-61755261D01*
X87103857Y-61725023D01*
X87073619Y-61694785D01*
D12*
%TO.C,R9*%
X72697952Y-55057666D02*
X72507476Y-55191000D01*
X72697952Y-55286238D02*
X72297952Y-55286238D01*
X72297952Y-55133857D01*
X72317000Y-55095761D01*
X72336047Y-55076714D01*
X72374142Y-55057666D01*
X72431285Y-55057666D01*
X72469380Y-55076714D01*
X72488428Y-55095761D01*
X72507476Y-55133857D01*
X72507476Y-55286238D01*
X72697952Y-54867190D02*
X72697952Y-54791000D01*
X72678904Y-54752904D01*
X72659857Y-54733857D01*
X72602714Y-54695761D01*
X72526523Y-54676714D01*
X72374142Y-54676714D01*
X72336047Y-54695761D01*
X72317000Y-54714809D01*
X72297952Y-54752904D01*
X72297952Y-54829095D01*
X72317000Y-54867190D01*
X72336047Y-54886238D01*
X72374142Y-54905285D01*
X72469380Y-54905285D01*
X72507476Y-54886238D01*
X72526523Y-54867190D01*
X72545571Y-54829095D01*
X72545571Y-54752904D01*
X72526523Y-54714809D01*
X72507476Y-54695761D01*
X72469380Y-54676714D01*
D15*
%TO.C,R5*%
X83078952Y-33541656D02*
X82888476Y-33674990D01*
X83078952Y-33770228D02*
X82678952Y-33770228D01*
X82678952Y-33617847D01*
X82698000Y-33579751D01*
X82717047Y-33560704D01*
X82755142Y-33541656D01*
X82812285Y-33541656D01*
X82850380Y-33560704D01*
X82869428Y-33579751D01*
X82888476Y-33617847D01*
X82888476Y-33770228D01*
X82678952Y-33179751D02*
X82678952Y-33370228D01*
X82869428Y-33389275D01*
X82850380Y-33370228D01*
X82831333Y-33332132D01*
X82831333Y-33236894D01*
X82850380Y-33198799D01*
X82869428Y-33179751D01*
X82907523Y-33160704D01*
X83002761Y-33160704D01*
X83040857Y-33179751D01*
X83059904Y-33198799D01*
X83078952Y-33236894D01*
X83078952Y-33332132D01*
X83059904Y-33370228D01*
X83040857Y-33389275D01*
D14*
%TO.C,D5*%
X81821261Y-44743309D02*
X81821261Y-45045690D01*
X81186261Y-45045690D01*
X81488642Y-44531642D02*
X81488642Y-44319976D01*
X81821261Y-44229261D02*
X81821261Y-44531642D01*
X81186261Y-44531642D01*
X81186261Y-44229261D01*
X81821261Y-43957119D02*
X81186261Y-43957119D01*
X81186261Y-43805928D01*
X81216500Y-43715214D01*
X81276976Y-43654738D01*
X81337452Y-43624500D01*
X81458404Y-43594261D01*
X81549119Y-43594261D01*
X81670071Y-43624500D01*
X81730547Y-43654738D01*
X81791023Y-43715214D01*
X81821261Y-43805928D01*
X81821261Y-43957119D01*
X81881738Y-43473309D02*
X81881738Y-42989500D01*
X81821261Y-42838309D02*
X81186261Y-42838309D01*
X81186261Y-42414976D02*
X81186261Y-42294023D01*
X81216500Y-42233547D01*
X81276976Y-42173071D01*
X81397928Y-42142833D01*
X81609595Y-42142833D01*
X81730547Y-42173071D01*
X81791023Y-42233547D01*
X81821261Y-42294023D01*
X81821261Y-42414976D01*
X81791023Y-42475452D01*
X81730547Y-42535928D01*
X81609595Y-42566166D01*
X81397928Y-42566166D01*
X81276976Y-42535928D01*
X81216500Y-42475452D01*
X81186261Y-42414976D01*
X81186261Y-41568309D02*
X81186261Y-41870690D01*
X81488642Y-41900928D01*
X81458404Y-41870690D01*
X81428166Y-41810214D01*
X81428166Y-41659023D01*
X81458404Y-41598547D01*
X81488642Y-41568309D01*
X81549119Y-41538071D01*
X81700309Y-41538071D01*
X81760785Y-41568309D01*
X81791023Y-41598547D01*
X81821261Y-41659023D01*
X81821261Y-41810214D01*
X81791023Y-41870690D01*
X81760785Y-41900928D01*
D15*
X83270761Y-43561952D02*
X83270761Y-43161952D01*
X83366000Y-43161952D01*
X83423142Y-43181000D01*
X83461238Y-43219095D01*
X83480285Y-43257190D01*
X83499333Y-43333380D01*
X83499333Y-43390523D01*
X83480285Y-43466714D01*
X83461238Y-43504809D01*
X83423142Y-43542904D01*
X83366000Y-43561952D01*
X83270761Y-43561952D01*
X83861238Y-43161952D02*
X83670761Y-43161952D01*
X83651714Y-43352428D01*
X83670761Y-43333380D01*
X83708857Y-43314333D01*
X83804095Y-43314333D01*
X83842190Y-43333380D01*
X83861238Y-43352428D01*
X83880285Y-43390523D01*
X83880285Y-43485761D01*
X83861238Y-43523857D01*
X83842190Y-43542904D01*
X83804095Y-43561952D01*
X83708857Y-43561952D01*
X83670761Y-43542904D01*
X83651714Y-43523857D01*
D14*
%TO.C,TP1*%
X80611738Y-61882261D02*
X80400071Y-61579880D01*
X80248880Y-61882261D02*
X80248880Y-61247261D01*
X80490785Y-61247261D01*
X80551261Y-61277500D01*
X80581500Y-61307738D01*
X80611738Y-61368214D01*
X80611738Y-61458928D01*
X80581500Y-61519404D01*
X80551261Y-61549642D01*
X80490785Y-61579880D01*
X80248880Y-61579880D01*
X80883880Y-61549642D02*
X81095547Y-61549642D01*
X81186261Y-61882261D02*
X80883880Y-61882261D01*
X80883880Y-61247261D01*
X81186261Y-61247261D01*
X81428166Y-61852023D02*
X81518880Y-61882261D01*
X81670071Y-61882261D01*
X81730547Y-61852023D01*
X81760785Y-61821785D01*
X81791023Y-61761309D01*
X81791023Y-61700833D01*
X81760785Y-61640357D01*
X81730547Y-61610119D01*
X81670071Y-61579880D01*
X81549119Y-61549642D01*
X81488642Y-61519404D01*
X81458404Y-61489166D01*
X81428166Y-61428690D01*
X81428166Y-61368214D01*
X81458404Y-61307738D01*
X81488642Y-61277500D01*
X81549119Y-61247261D01*
X81700309Y-61247261D01*
X81791023Y-61277500D01*
X82063166Y-61549642D02*
X82274833Y-61549642D01*
X82365547Y-61882261D02*
X82063166Y-61882261D01*
X82063166Y-61247261D01*
X82365547Y-61247261D01*
X82546976Y-61247261D02*
X82909833Y-61247261D01*
X82728404Y-61882261D02*
X82728404Y-61247261D01*
%TO.C,D3*%
X82014785Y-32140071D02*
X82045023Y-32170309D01*
X82075261Y-32261023D01*
X82075261Y-32321500D01*
X82045023Y-32412214D01*
X81984547Y-32472690D01*
X81924071Y-32502928D01*
X81803119Y-32533166D01*
X81712404Y-32533166D01*
X81591452Y-32502928D01*
X81530976Y-32472690D01*
X81470500Y-32412214D01*
X81440261Y-32321500D01*
X81440261Y-32261023D01*
X81470500Y-32170309D01*
X81500738Y-32140071D01*
X82075261Y-31867928D02*
X81440261Y-31867928D01*
X81742642Y-31867928D02*
X81742642Y-31505071D01*
X82075261Y-31505071D02*
X81440261Y-31505071D01*
X82075261Y-30839833D02*
X81772880Y-31051500D01*
X82075261Y-31202690D02*
X81440261Y-31202690D01*
X81440261Y-30960785D01*
X81470500Y-30900309D01*
X81500738Y-30870071D01*
X81561214Y-30839833D01*
X81651928Y-30839833D01*
X81712404Y-30870071D01*
X81742642Y-30900309D01*
X81772880Y-30960785D01*
X81772880Y-31202690D01*
X81470500Y-30235071D02*
X81440261Y-30295547D01*
X81440261Y-30386261D01*
X81470500Y-30476976D01*
X81530976Y-30537452D01*
X81591452Y-30567690D01*
X81712404Y-30597928D01*
X81803119Y-30597928D01*
X81924071Y-30567690D01*
X81984547Y-30537452D01*
X82045023Y-30476976D01*
X82075261Y-30386261D01*
X82075261Y-30325785D01*
X82045023Y-30235071D01*
X82014785Y-30204833D01*
X81803119Y-30204833D01*
X81803119Y-30325785D01*
D15*
X83685772Y-31115942D02*
X83685772Y-30715942D01*
X83781011Y-30715942D01*
X83838153Y-30734990D01*
X83876249Y-30773085D01*
X83895296Y-30811180D01*
X83914344Y-30887370D01*
X83914344Y-30944513D01*
X83895296Y-31020704D01*
X83876249Y-31058799D01*
X83838153Y-31096894D01*
X83781011Y-31115942D01*
X83685772Y-31115942D01*
X84047677Y-30715942D02*
X84295296Y-30715942D01*
X84161963Y-30868323D01*
X84219106Y-30868323D01*
X84257201Y-30887370D01*
X84276249Y-30906418D01*
X84295296Y-30944513D01*
X84295296Y-31039751D01*
X84276249Y-31077847D01*
X84257201Y-31096894D01*
X84219106Y-31115942D01*
X84104820Y-31115942D01*
X84066725Y-31096894D01*
X84047677Y-31077847D01*
%TO.C,R7*%
X81975333Y-49456952D02*
X81842000Y-49266476D01*
X81746761Y-49456952D02*
X81746761Y-49056952D01*
X81899142Y-49056952D01*
X81937238Y-49076000D01*
X81956285Y-49095047D01*
X81975333Y-49133142D01*
X81975333Y-49190285D01*
X81956285Y-49228380D01*
X81937238Y-49247428D01*
X81899142Y-49266476D01*
X81746761Y-49266476D01*
X82108666Y-49056952D02*
X82375333Y-49056952D01*
X82203904Y-49456952D01*
%TO.C,Q1*%
X86706047Y-49187095D02*
X86687000Y-49225190D01*
X86648904Y-49263285D01*
X86591761Y-49320428D01*
X86572714Y-49358523D01*
X86572714Y-49396619D01*
X86667952Y-49377571D02*
X86648904Y-49415666D01*
X86610809Y-49453761D01*
X86534619Y-49472809D01*
X86401285Y-49472809D01*
X86325095Y-49453761D01*
X86287000Y-49415666D01*
X86267952Y-49377571D01*
X86267952Y-49301380D01*
X86287000Y-49263285D01*
X86325095Y-49225190D01*
X86401285Y-49206142D01*
X86534619Y-49206142D01*
X86610809Y-49225190D01*
X86648904Y-49263285D01*
X86667952Y-49301380D01*
X86667952Y-49377571D01*
X86667952Y-48825190D02*
X86667952Y-49053761D01*
X86667952Y-48939476D02*
X86267952Y-48939476D01*
X86325095Y-48977571D01*
X86363190Y-49015666D01*
X86382238Y-49053761D01*
D11*
%TO.C,D2*%
X83793904Y-46172380D02*
X83793904Y-45172380D01*
X84032000Y-45172380D01*
X84174857Y-45220000D01*
X84270095Y-45315238D01*
X84317714Y-45410476D01*
X84365333Y-45600952D01*
X84365333Y-45743809D01*
X84317714Y-45934285D01*
X84270095Y-46029523D01*
X84174857Y-46124761D01*
X84032000Y-46172380D01*
X83793904Y-46172380D01*
X84746285Y-45267619D02*
X84793904Y-45220000D01*
X84889142Y-45172380D01*
X85127238Y-45172380D01*
X85222476Y-45220000D01*
X85270095Y-45267619D01*
X85317714Y-45362857D01*
X85317714Y-45458095D01*
X85270095Y-45600952D01*
X84698666Y-46172380D01*
X85317714Y-46172380D01*
D15*
%TO.C,R4*%
X85277333Y-51943952D02*
X85144000Y-51753476D01*
X85048761Y-51943952D02*
X85048761Y-51543952D01*
X85201142Y-51543952D01*
X85239238Y-51563000D01*
X85258285Y-51582047D01*
X85277333Y-51620142D01*
X85277333Y-51677285D01*
X85258285Y-51715380D01*
X85239238Y-51734428D01*
X85201142Y-51753476D01*
X85048761Y-51753476D01*
X85620190Y-51677285D02*
X85620190Y-51943952D01*
X85524952Y-51524904D02*
X85429714Y-51810619D01*
X85677333Y-51810619D01*
D13*
%TO.C,C9*%
X81991200Y-51109847D02*
X81976685Y-51124361D01*
X81933142Y-51138875D01*
X81904114Y-51138875D01*
X81860571Y-51124361D01*
X81831542Y-51095332D01*
X81817028Y-51066304D01*
X81802514Y-51008247D01*
X81802514Y-50964704D01*
X81817028Y-50906647D01*
X81831542Y-50877618D01*
X81860571Y-50848590D01*
X81904114Y-50834075D01*
X81933142Y-50834075D01*
X81976685Y-50848590D01*
X81991200Y-50863104D01*
X82136342Y-51138875D02*
X82194400Y-51138875D01*
X82223428Y-51124361D01*
X82237942Y-51109847D01*
X82266971Y-51066304D01*
X82281485Y-51008247D01*
X82281485Y-50892132D01*
X82266971Y-50863104D01*
X82252457Y-50848590D01*
X82223428Y-50834075D01*
X82165371Y-50834075D01*
X82136342Y-50848590D01*
X82121828Y-50863104D01*
X82107314Y-50892132D01*
X82107314Y-50964704D01*
X82121828Y-50993732D01*
X82136342Y-51008247D01*
X82165371Y-51022761D01*
X82223428Y-51022761D01*
X82252457Y-51008247D01*
X82266971Y-50993732D01*
X82281485Y-50964704D01*
D12*
%TO.C,C5*%
X68942857Y-54787800D02*
X68957371Y-54802314D01*
X68971885Y-54845857D01*
X68971885Y-54874885D01*
X68957371Y-54918428D01*
X68928342Y-54947457D01*
X68899314Y-54961971D01*
X68841257Y-54976485D01*
X68797714Y-54976485D01*
X68739657Y-54961971D01*
X68710628Y-54947457D01*
X68681600Y-54918428D01*
X68667085Y-54874885D01*
X68667085Y-54845857D01*
X68681600Y-54802314D01*
X68696114Y-54787800D01*
X68667085Y-54512028D02*
X68667085Y-54657171D01*
X68812228Y-54671685D01*
X68797714Y-54657171D01*
X68783200Y-54628142D01*
X68783200Y-54555571D01*
X68797714Y-54526542D01*
X68812228Y-54512028D01*
X68841257Y-54497514D01*
X68913828Y-54497514D01*
X68942857Y-54512028D01*
X68957371Y-54526542D01*
X68971885Y-54555571D01*
X68971885Y-54628142D01*
X68957371Y-54657171D01*
X68942857Y-54671685D01*
D14*
%TO.C,Y1*%
X75307976Y-47150261D02*
X75701071Y-47150261D01*
X75489404Y-47392166D01*
X75580119Y-47392166D01*
X75640595Y-47422404D01*
X75670833Y-47452642D01*
X75701071Y-47513119D01*
X75701071Y-47664309D01*
X75670833Y-47724785D01*
X75640595Y-47755023D01*
X75580119Y-47785261D01*
X75398690Y-47785261D01*
X75338214Y-47755023D01*
X75307976Y-47724785D01*
X75942976Y-47210738D02*
X75973214Y-47180500D01*
X76033690Y-47150261D01*
X76184880Y-47150261D01*
X76245357Y-47180500D01*
X76275595Y-47210738D01*
X76305833Y-47271214D01*
X76305833Y-47331690D01*
X76275595Y-47422404D01*
X75912738Y-47785261D01*
X76305833Y-47785261D01*
X76577976Y-47724785D02*
X76608214Y-47755023D01*
X76577976Y-47785261D01*
X76547738Y-47755023D01*
X76577976Y-47724785D01*
X76577976Y-47785261D01*
X76819880Y-47150261D02*
X77243214Y-47150261D01*
X76971071Y-47785261D01*
X77757261Y-47150261D02*
X77636309Y-47150261D01*
X77575833Y-47180500D01*
X77545595Y-47210738D01*
X77485119Y-47301452D01*
X77454880Y-47422404D01*
X77454880Y-47664309D01*
X77485119Y-47724785D01*
X77515357Y-47755023D01*
X77575833Y-47785261D01*
X77696785Y-47785261D01*
X77757261Y-47755023D01*
X77787500Y-47724785D01*
X77817738Y-47664309D01*
X77817738Y-47513119D01*
X77787500Y-47452642D01*
X77757261Y-47422404D01*
X77696785Y-47392166D01*
X77575833Y-47392166D01*
X77515357Y-47422404D01*
X77485119Y-47452642D01*
X77454880Y-47513119D01*
X78180595Y-47422404D02*
X78120119Y-47392166D01*
X78089880Y-47361928D01*
X78059642Y-47301452D01*
X78059642Y-47271214D01*
X78089880Y-47210738D01*
X78120119Y-47180500D01*
X78180595Y-47150261D01*
X78301547Y-47150261D01*
X78362023Y-47180500D01*
X78392261Y-47210738D01*
X78422500Y-47271214D01*
X78422500Y-47301452D01*
X78392261Y-47361928D01*
X78362023Y-47392166D01*
X78301547Y-47422404D01*
X78180595Y-47422404D01*
X78120119Y-47452642D01*
X78089880Y-47482880D01*
X78059642Y-47543357D01*
X78059642Y-47664309D01*
X78089880Y-47724785D01*
X78120119Y-47755023D01*
X78180595Y-47785261D01*
X78301547Y-47785261D01*
X78362023Y-47755023D01*
X78392261Y-47724785D01*
X78422500Y-47664309D01*
X78422500Y-47543357D01*
X78392261Y-47482880D01*
X78362023Y-47452642D01*
X78301547Y-47422404D01*
X78694642Y-47785261D02*
X78694642Y-47150261D01*
X78694642Y-47452642D02*
X79057500Y-47452642D01*
X79057500Y-47785261D02*
X79057500Y-47150261D01*
X79299404Y-47361928D02*
X79632023Y-47361928D01*
X79299404Y-47785261D01*
X79632023Y-47785261D01*
D16*
X77107142Y-48950847D02*
X77107142Y-49313704D01*
X76853142Y-48551704D02*
X77107142Y-48950847D01*
X77361142Y-48551704D01*
X78014285Y-49313704D02*
X77578857Y-49313704D01*
X77796571Y-49313704D02*
X77796571Y-48551704D01*
X77724000Y-48660561D01*
X77651428Y-48733132D01*
X77578857Y-48769418D01*
D14*
%TO.C,U4*%
X89262823Y-57691261D02*
X89262823Y-58205309D01*
X89293061Y-58265785D01*
X89323299Y-58296023D01*
X89383775Y-58326261D01*
X89504728Y-58326261D01*
X89565204Y-58296023D01*
X89595442Y-58265785D01*
X89625680Y-58205309D01*
X89625680Y-57691261D01*
X90200204Y-57902928D02*
X90200204Y-58326261D01*
X90049013Y-57661023D02*
X89897823Y-58114595D01*
X90290918Y-58114595D01*
D11*
%TO.C,J3*%
X93686380Y-46942333D02*
X94400666Y-46942333D01*
X94543523Y-46989952D01*
X94638761Y-47085190D01*
X94686380Y-47228047D01*
X94686380Y-47323285D01*
X93686380Y-46561380D02*
X93686380Y-45942333D01*
X94067333Y-46275666D01*
X94067333Y-46132809D01*
X94114952Y-46037571D01*
X94162571Y-45989952D01*
X94257809Y-45942333D01*
X94495904Y-45942333D01*
X94591142Y-45989952D01*
X94638761Y-46037571D01*
X94686380Y-46132809D01*
X94686380Y-46418523D01*
X94638761Y-46513761D01*
X94591142Y-46561380D01*
D12*
%TO.C,R12*%
X89720057Y-55456875D02*
X89618457Y-55311732D01*
X89545885Y-55456875D02*
X89545885Y-55152075D01*
X89662000Y-55152075D01*
X89691028Y-55166590D01*
X89705542Y-55181104D01*
X89720057Y-55210132D01*
X89720057Y-55253675D01*
X89705542Y-55282704D01*
X89691028Y-55297218D01*
X89662000Y-55311732D01*
X89545885Y-55311732D01*
X90010342Y-55456875D02*
X89836171Y-55456875D01*
X89923257Y-55456875D02*
X89923257Y-55152075D01*
X89894228Y-55195618D01*
X89865200Y-55224647D01*
X89836171Y-55239161D01*
X90126457Y-55181104D02*
X90140971Y-55166590D01*
X90170000Y-55152075D01*
X90242571Y-55152075D01*
X90271600Y-55166590D01*
X90286114Y-55181104D01*
X90300628Y-55210132D01*
X90300628Y-55239161D01*
X90286114Y-55282704D01*
X90111942Y-55456875D01*
X90300628Y-55456875D01*
%TO.C,C1*%
X74276857Y-55041800D02*
X74291371Y-55056314D01*
X74305885Y-55099857D01*
X74305885Y-55128885D01*
X74291371Y-55172428D01*
X74262342Y-55201457D01*
X74233314Y-55215971D01*
X74175257Y-55230485D01*
X74131714Y-55230485D01*
X74073657Y-55215971D01*
X74044628Y-55201457D01*
X74015600Y-55172428D01*
X74001085Y-55128885D01*
X74001085Y-55099857D01*
X74015600Y-55056314D01*
X74030114Y-55041800D01*
X74305885Y-54751514D02*
X74305885Y-54925685D01*
X74305885Y-54838600D02*
X74001085Y-54838600D01*
X74044628Y-54867628D01*
X74073657Y-54896657D01*
X74088171Y-54925685D01*
D15*
%TO.C,R8*%
X88064952Y-33531674D02*
X87874476Y-33665008D01*
X88064952Y-33760246D02*
X87664952Y-33760246D01*
X87664952Y-33607865D01*
X87684000Y-33569769D01*
X87703047Y-33550722D01*
X87741142Y-33531674D01*
X87798285Y-33531674D01*
X87836380Y-33550722D01*
X87855428Y-33569769D01*
X87874476Y-33607865D01*
X87874476Y-33760246D01*
X87836380Y-33303103D02*
X87817333Y-33341198D01*
X87798285Y-33360246D01*
X87760190Y-33379293D01*
X87741142Y-33379293D01*
X87703047Y-33360246D01*
X87684000Y-33341198D01*
X87664952Y-33303103D01*
X87664952Y-33226912D01*
X87684000Y-33188817D01*
X87703047Y-33169769D01*
X87741142Y-33150722D01*
X87760190Y-33150722D01*
X87798285Y-33169769D01*
X87817333Y-33188817D01*
X87836380Y-33226912D01*
X87836380Y-33303103D01*
X87855428Y-33341198D01*
X87874476Y-33360246D01*
X87912571Y-33379293D01*
X87988761Y-33379293D01*
X88026857Y-33360246D01*
X88045904Y-33341198D01*
X88064952Y-33303103D01*
X88064952Y-33226912D01*
X88045904Y-33188817D01*
X88026857Y-33169769D01*
X87988761Y-33150722D01*
X87912571Y-33150722D01*
X87874476Y-33169769D01*
X87855428Y-33188817D01*
X87836380Y-33226912D01*
D14*
%TO.C,D4*%
X85661650Y-35015714D02*
X85492316Y-35015714D01*
X85492316Y-35281809D02*
X85492316Y-34773809D01*
X85734221Y-34773809D01*
X85927745Y-34773809D02*
X85927745Y-35185047D01*
X85951935Y-35233428D01*
X85976126Y-35257619D01*
X86024507Y-35281809D01*
X86121269Y-35281809D01*
X86169650Y-35257619D01*
X86193840Y-35233428D01*
X86218031Y-35185047D01*
X86218031Y-34773809D01*
X86701840Y-35281809D02*
X86459935Y-35281809D01*
X86459935Y-34773809D01*
X87113078Y-35281809D02*
X86871173Y-35281809D01*
X86871173Y-34773809D01*
D15*
X86532368Y-33730692D02*
X86151368Y-33730692D01*
X86151368Y-33639978D01*
X86169511Y-33585549D01*
X86205796Y-33549263D01*
X86242082Y-33531120D01*
X86314653Y-33512978D01*
X86369082Y-33512978D01*
X86441653Y-33531120D01*
X86477939Y-33549263D01*
X86514225Y-33585549D01*
X86532368Y-33639978D01*
X86532368Y-33730692D01*
X86278368Y-33186406D02*
X86532368Y-33186406D01*
X86133225Y-33277120D02*
X86405368Y-33367835D01*
X86405368Y-33131978D01*
%TO.C,D7*%
X88826952Y-37252238D02*
X88426952Y-37252238D01*
X88426952Y-37157000D01*
X88446000Y-37099857D01*
X88484095Y-37061761D01*
X88522190Y-37042714D01*
X88598380Y-37023666D01*
X88655523Y-37023666D01*
X88731714Y-37042714D01*
X88769809Y-37061761D01*
X88807904Y-37099857D01*
X88826952Y-37157000D01*
X88826952Y-37252238D01*
X88426952Y-36890333D02*
X88426952Y-36623666D01*
X88826952Y-36795095D01*
%TO.C,D6*%
X88826952Y-39919238D02*
X88426952Y-39919238D01*
X88426952Y-39824000D01*
X88446000Y-39766857D01*
X88484095Y-39728761D01*
X88522190Y-39709714D01*
X88598380Y-39690666D01*
X88655523Y-39690666D01*
X88731714Y-39709714D01*
X88769809Y-39728761D01*
X88807904Y-39766857D01*
X88826952Y-39824000D01*
X88826952Y-39919238D01*
X88426952Y-39347809D02*
X88426952Y-39424000D01*
X88446000Y-39462095D01*
X88465047Y-39481142D01*
X88522190Y-39519238D01*
X88598380Y-39538285D01*
X88750761Y-39538285D01*
X88788857Y-39519238D01*
X88807904Y-39500190D01*
X88826952Y-39462095D01*
X88826952Y-39385904D01*
X88807904Y-39347809D01*
X88788857Y-39328761D01*
X88750761Y-39309714D01*
X88655523Y-39309714D01*
X88617428Y-39328761D01*
X88598380Y-39347809D01*
X88579333Y-39385904D01*
X88579333Y-39462095D01*
X88598380Y-39500190D01*
X88617428Y-39519238D01*
X88655523Y-39538285D01*
D11*
%TO.C,D8*%
X91463904Y-44140380D02*
X91463904Y-43140380D01*
X91702000Y-43140380D01*
X91844857Y-43188000D01*
X91940095Y-43283238D01*
X91987714Y-43378476D01*
X92035333Y-43568952D01*
X92035333Y-43711809D01*
X91987714Y-43902285D01*
X91940095Y-43997523D01*
X91844857Y-44092761D01*
X91702000Y-44140380D01*
X91463904Y-44140380D01*
X92606761Y-43568952D02*
X92511523Y-43521333D01*
X92463904Y-43473714D01*
X92416285Y-43378476D01*
X92416285Y-43330857D01*
X92463904Y-43235619D01*
X92511523Y-43188000D01*
X92606761Y-43140380D01*
X92797238Y-43140380D01*
X92892476Y-43188000D01*
X92940095Y-43235619D01*
X92987714Y-43330857D01*
X92987714Y-43378476D01*
X92940095Y-43473714D01*
X92892476Y-43521333D01*
X92797238Y-43568952D01*
X92606761Y-43568952D01*
X92511523Y-43616571D01*
X92463904Y-43664190D01*
X92416285Y-43759428D01*
X92416285Y-43949904D01*
X92463904Y-44045142D01*
X92511523Y-44092761D01*
X92606761Y-44140380D01*
X92797238Y-44140380D01*
X92892476Y-44092761D01*
X92940095Y-44045142D01*
X92987714Y-43949904D01*
X92987714Y-43759428D01*
X92940095Y-43664190D01*
X92892476Y-43616571D01*
X92797238Y-43568952D01*
D17*
%TO.C,SW1*%
X96168381Y-58479657D02*
X96192191Y-58408229D01*
X96192191Y-58289181D01*
X96168381Y-58241562D01*
X96144572Y-58217752D01*
X96096953Y-58193943D01*
X96049334Y-58193943D01*
X96001715Y-58217752D01*
X95977905Y-58241562D01*
X95954096Y-58289181D01*
X95930286Y-58384419D01*
X95906477Y-58432038D01*
X95882667Y-58455848D01*
X95835048Y-58479657D01*
X95787429Y-58479657D01*
X95739810Y-58455848D01*
X95716001Y-58432038D01*
X95692191Y-58384419D01*
X95692191Y-58265371D01*
X95716001Y-58193943D01*
X95692191Y-58027276D02*
X96192191Y-57908229D01*
X95835048Y-57812991D01*
X96192191Y-57717752D01*
X95692191Y-57598705D01*
X96192191Y-57146324D02*
X96192191Y-57432038D01*
X96192191Y-57289181D02*
X95692191Y-57289181D01*
X95763620Y-57336800D01*
X95811239Y-57384419D01*
X95835048Y-57432038D01*
D11*
%TO.C,U2*%
X73406162Y-36790380D02*
X73406162Y-37599904D01*
X73453781Y-37695142D01*
X73501400Y-37742761D01*
X73596638Y-37790380D01*
X73787114Y-37790380D01*
X73882352Y-37742761D01*
X73929971Y-37695142D01*
X73977590Y-37599904D01*
X73977590Y-36790380D01*
X74406162Y-36885619D02*
X74453781Y-36838000D01*
X74549019Y-36790380D01*
X74787114Y-36790380D01*
X74882352Y-36838000D01*
X74929971Y-36885619D01*
X74977590Y-36980857D01*
X74977590Y-37076095D01*
X74929971Y-37218952D01*
X74358543Y-37790380D01*
X74977590Y-37790380D01*
%TO.C,J4*%
X93940380Y-35586323D02*
X94654666Y-35586323D01*
X94797523Y-35633942D01*
X94892761Y-35729180D01*
X94940380Y-35872037D01*
X94940380Y-35967275D01*
X94273714Y-34681561D02*
X94940380Y-34681561D01*
X93892761Y-34919656D02*
X94607047Y-35157751D01*
X94607047Y-34538704D01*
D14*
%TO.C,TP2*%
X96347642Y-42493595D02*
X96377880Y-42402880D01*
X96408119Y-42372642D01*
X96468595Y-42342404D01*
X96559309Y-42342404D01*
X96619785Y-42372642D01*
X96650023Y-42402880D01*
X96680261Y-42463357D01*
X96680261Y-42705261D01*
X96045261Y-42705261D01*
X96045261Y-42493595D01*
X96075500Y-42433119D01*
X96105738Y-42402880D01*
X96166214Y-42372642D01*
X96226690Y-42372642D01*
X96287166Y-42402880D01*
X96317404Y-42433119D01*
X96347642Y-42493595D01*
X96347642Y-42705261D01*
X96498833Y-42100500D02*
X96498833Y-41798119D01*
X96680261Y-42160976D02*
X96045261Y-41949309D01*
X96680261Y-41737642D01*
X96045261Y-41616690D02*
X96045261Y-41253833D01*
X96680261Y-41435261D02*
X96045261Y-41435261D01*
X96045261Y-41132880D02*
X96045261Y-40770023D01*
X96680261Y-40951452D02*
X96045261Y-40951452D01*
D12*
%TO.C,C12*%
X90011852Y-62880932D02*
X90026366Y-62895447D01*
X90040880Y-62938990D01*
X90040880Y-62968018D01*
X90026366Y-63011561D01*
X89997337Y-63040590D01*
X89968309Y-63055104D01*
X89910252Y-63069618D01*
X89866709Y-63069618D01*
X89808652Y-63055104D01*
X89779623Y-63040590D01*
X89750595Y-63011561D01*
X89736080Y-62968018D01*
X89736080Y-62938990D01*
X89750595Y-62895447D01*
X89765109Y-62880932D01*
X90040880Y-62590647D02*
X90040880Y-62764818D01*
X90040880Y-62677732D02*
X89736080Y-62677732D01*
X89779623Y-62706761D01*
X89808652Y-62735790D01*
X89823166Y-62764818D01*
X89765109Y-62474532D02*
X89750595Y-62460018D01*
X89736080Y-62430990D01*
X89736080Y-62358418D01*
X89750595Y-62329390D01*
X89765109Y-62314875D01*
X89794137Y-62300361D01*
X89823166Y-62300361D01*
X89866709Y-62314875D01*
X90040880Y-62489047D01*
X90040880Y-62300361D01*
D15*
%TO.C,D9*%
X93875315Y-41784825D02*
X93875315Y-41384825D01*
X93970554Y-41384825D01*
X94027696Y-41403873D01*
X94065792Y-41441968D01*
X94084839Y-41480063D01*
X94103887Y-41556253D01*
X94103887Y-41613396D01*
X94084839Y-41689587D01*
X94065792Y-41727682D01*
X94027696Y-41765777D01*
X93970554Y-41784825D01*
X93875315Y-41784825D01*
X94294363Y-41784825D02*
X94370554Y-41784825D01*
X94408649Y-41765777D01*
X94427696Y-41746730D01*
X94465792Y-41689587D01*
X94484839Y-41613396D01*
X94484839Y-41461015D01*
X94465792Y-41422920D01*
X94446744Y-41403873D01*
X94408649Y-41384825D01*
X94332458Y-41384825D01*
X94294363Y-41403873D01*
X94275315Y-41422920D01*
X94256268Y-41461015D01*
X94256268Y-41556253D01*
X94275315Y-41594349D01*
X94294363Y-41613396D01*
X94332458Y-41632444D01*
X94408649Y-41632444D01*
X94446744Y-41613396D01*
X94465792Y-41594349D01*
X94484839Y-41556253D01*
D13*
%TO.C,R1*%
X74051885Y-48818800D02*
X73906742Y-48920400D01*
X74051885Y-48992971D02*
X73747085Y-48992971D01*
X73747085Y-48876857D01*
X73761600Y-48847828D01*
X73776114Y-48833314D01*
X73805142Y-48818800D01*
X73848685Y-48818800D01*
X73877714Y-48833314D01*
X73892228Y-48847828D01*
X73906742Y-48876857D01*
X73906742Y-48992971D01*
X74051885Y-48528514D02*
X74051885Y-48702685D01*
X74051885Y-48615600D02*
X73747085Y-48615600D01*
X73790628Y-48644628D01*
X73819657Y-48673657D01*
X73834171Y-48702685D01*
D12*
%TO.C,U3*%
X86589809Y-39196037D02*
X87001047Y-39196037D01*
X87049428Y-39171847D01*
X87073619Y-39147656D01*
X87097809Y-39099275D01*
X87097809Y-39002513D01*
X87073619Y-38954132D01*
X87049428Y-38929942D01*
X87001047Y-38905751D01*
X86589809Y-38905751D01*
X86589809Y-38712228D02*
X86589809Y-38397751D01*
X86783333Y-38567085D01*
X86783333Y-38494513D01*
X86807523Y-38446132D01*
X86831714Y-38421942D01*
X86880095Y-38397751D01*
X87001047Y-38397751D01*
X87049428Y-38421942D01*
X87073619Y-38446132D01*
X87097809Y-38494513D01*
X87097809Y-38639656D01*
X87073619Y-38688037D01*
X87049428Y-38712228D01*
D13*
%TO.C,R13*%
X86958714Y-31049894D02*
X86874047Y-30928942D01*
X86813571Y-31049894D02*
X86813571Y-30795894D01*
X86910333Y-30795894D01*
X86934523Y-30807990D01*
X86946619Y-30820085D01*
X86958714Y-30844275D01*
X86958714Y-30880561D01*
X86946619Y-30904751D01*
X86934523Y-30916847D01*
X86910333Y-30928942D01*
X86813571Y-30928942D01*
X87200619Y-31049894D02*
X87055476Y-31049894D01*
X87128047Y-31049894D02*
X87128047Y-30795894D01*
X87103857Y-30832180D01*
X87079666Y-30856370D01*
X87055476Y-30868466D01*
X87285285Y-30795894D02*
X87442523Y-30795894D01*
X87357857Y-30892656D01*
X87394142Y-30892656D01*
X87418333Y-30904751D01*
X87430428Y-30916847D01*
X87442523Y-30941037D01*
X87442523Y-31001513D01*
X87430428Y-31025704D01*
X87418333Y-31037799D01*
X87394142Y-31049894D01*
X87321571Y-31049894D01*
X87297380Y-31037799D01*
X87285285Y-31025704D01*
D15*
%TO.C,R6*%
X85017943Y-33541656D02*
X84827467Y-33674990D01*
X85017943Y-33770228D02*
X84617943Y-33770228D01*
X84617943Y-33617847D01*
X84636991Y-33579751D01*
X84656038Y-33560704D01*
X84694133Y-33541656D01*
X84751276Y-33541656D01*
X84789371Y-33560704D01*
X84808419Y-33579751D01*
X84827467Y-33617847D01*
X84827467Y-33770228D01*
X84617943Y-33198799D02*
X84617943Y-33274990D01*
X84636991Y-33313085D01*
X84656038Y-33332132D01*
X84713181Y-33370228D01*
X84789371Y-33389275D01*
X84941752Y-33389275D01*
X84979848Y-33370228D01*
X84998895Y-33351180D01*
X85017943Y-33313085D01*
X85017943Y-33236894D01*
X84998895Y-33198799D01*
X84979848Y-33179751D01*
X84941752Y-33160704D01*
X84846514Y-33160704D01*
X84808419Y-33179751D01*
X84789371Y-33198799D01*
X84770324Y-33236894D01*
X84770324Y-33313085D01*
X84789371Y-33351180D01*
X84808419Y-33370228D01*
X84846514Y-33389275D01*
D12*
%TO.C,C11*%
X90011847Y-61356922D02*
X90026361Y-61371437D01*
X90040875Y-61414980D01*
X90040875Y-61444008D01*
X90026361Y-61487551D01*
X89997332Y-61516580D01*
X89968304Y-61531094D01*
X89910247Y-61545608D01*
X89866704Y-61545608D01*
X89808647Y-61531094D01*
X89779618Y-61516580D01*
X89750590Y-61487551D01*
X89736075Y-61444008D01*
X89736075Y-61414980D01*
X89750590Y-61371437D01*
X89765104Y-61356922D01*
X90040875Y-61066637D02*
X90040875Y-61240808D01*
X90040875Y-61153722D02*
X89736075Y-61153722D01*
X89779618Y-61182751D01*
X89808647Y-61211780D01*
X89823161Y-61240808D01*
X90040875Y-60776351D02*
X90040875Y-60950522D01*
X90040875Y-60863437D02*
X89736075Y-60863437D01*
X89779618Y-60892465D01*
X89808647Y-60921494D01*
X89823161Y-60950522D01*
D13*
%TO.C,C4*%
X68180857Y-48691800D02*
X68195371Y-48706314D01*
X68209885Y-48749857D01*
X68209885Y-48778885D01*
X68195371Y-48822428D01*
X68166342Y-48851457D01*
X68137314Y-48865971D01*
X68079257Y-48880485D01*
X68035714Y-48880485D01*
X67977657Y-48865971D01*
X67948628Y-48851457D01*
X67919600Y-48822428D01*
X67905085Y-48778885D01*
X67905085Y-48749857D01*
X67919600Y-48706314D01*
X67934114Y-48691800D01*
X68006685Y-48430542D02*
X68209885Y-48430542D01*
X67890571Y-48503114D02*
X68108285Y-48575685D01*
X68108285Y-48387000D01*
D12*
%TO.C,C6*%
X77270428Y-52101666D02*
X77294619Y-52125857D01*
X77318809Y-52198428D01*
X77318809Y-52246809D01*
X77294619Y-52319380D01*
X77246238Y-52367761D01*
X77197857Y-52391952D01*
X77101095Y-52416142D01*
X77028523Y-52416142D01*
X76931761Y-52391952D01*
X76883380Y-52367761D01*
X76835000Y-52319380D01*
X76810809Y-52246809D01*
X76810809Y-52198428D01*
X76835000Y-52125857D01*
X76859190Y-52101666D01*
X76810809Y-51666238D02*
X76810809Y-51763000D01*
X76835000Y-51811380D01*
X76859190Y-51835571D01*
X76931761Y-51883952D01*
X77028523Y-51908142D01*
X77222047Y-51908142D01*
X77270428Y-51883952D01*
X77294619Y-51859761D01*
X77318809Y-51811380D01*
X77318809Y-51714619D01*
X77294619Y-51666238D01*
X77270428Y-51642047D01*
X77222047Y-51617857D01*
X77101095Y-51617857D01*
X77052714Y-51642047D01*
X77028523Y-51666238D01*
X77004333Y-51714619D01*
X77004333Y-51811380D01*
X77028523Y-51859761D01*
X77052714Y-51883952D01*
X77101095Y-51908142D01*
D13*
%TO.C,C2*%
X72226714Y-48810333D02*
X72238809Y-48822428D01*
X72250904Y-48858714D01*
X72250904Y-48882904D01*
X72238809Y-48919190D01*
X72214619Y-48943380D01*
X72190428Y-48955476D01*
X72142047Y-48967571D01*
X72105761Y-48967571D01*
X72057380Y-48955476D01*
X72033190Y-48943380D01*
X72009000Y-48919190D01*
X71996904Y-48882904D01*
X71996904Y-48858714D01*
X72009000Y-48822428D01*
X72021095Y-48810333D01*
X72021095Y-48713571D02*
X72009000Y-48701476D01*
X71996904Y-48677285D01*
X71996904Y-48616809D01*
X72009000Y-48592619D01*
X72021095Y-48580523D01*
X72045285Y-48568428D01*
X72069476Y-48568428D01*
X72105761Y-48580523D01*
X72250904Y-48725666D01*
X72250904Y-48568428D01*
D15*
%TO.C,R2*%
X86547333Y-43561942D02*
X86414000Y-43371466D01*
X86318761Y-43561942D02*
X86318761Y-43161942D01*
X86471142Y-43161942D01*
X86509238Y-43180990D01*
X86528285Y-43200037D01*
X86547333Y-43238132D01*
X86547333Y-43295275D01*
X86528285Y-43333370D01*
X86509238Y-43352418D01*
X86471142Y-43371466D01*
X86318761Y-43371466D01*
X86699714Y-43200037D02*
X86718761Y-43180990D01*
X86756857Y-43161942D01*
X86852095Y-43161942D01*
X86890190Y-43180990D01*
X86909238Y-43200037D01*
X86928285Y-43238132D01*
X86928285Y-43276228D01*
X86909238Y-43333370D01*
X86680666Y-43561942D01*
X86928285Y-43561942D01*
D13*
%TO.C,D1*%
X70260028Y-49286885D02*
X70260028Y-48982085D01*
X70332600Y-48982085D01*
X70376142Y-48996600D01*
X70405171Y-49025628D01*
X70419685Y-49054657D01*
X70434200Y-49112714D01*
X70434200Y-49156257D01*
X70419685Y-49214314D01*
X70405171Y-49243342D01*
X70376142Y-49272371D01*
X70332600Y-49286885D01*
X70260028Y-49286885D01*
X70724485Y-49286885D02*
X70550314Y-49286885D01*
X70637400Y-49286885D02*
X70637400Y-48982085D01*
X70608371Y-49025628D01*
X70579342Y-49054657D01*
X70550314Y-49069171D01*
D18*
%TO.C,L1*%
X85885866Y-54989790D02*
X85619771Y-54989790D01*
X85619771Y-54430990D01*
X86364838Y-54989790D02*
X86045523Y-54989790D01*
X86205180Y-54989790D02*
X86205180Y-54430990D01*
X86151961Y-54510819D01*
X86098742Y-54564038D01*
X86045523Y-54590647D01*
D16*
%TO.C,J2*%
X59572978Y-39841714D02*
X59572978Y-39079714D01*
X60080978Y-39079714D02*
X60226121Y-39079714D01*
X60298692Y-39116000D01*
X60371264Y-39188571D01*
X60407550Y-39333714D01*
X60407550Y-39587714D01*
X60371264Y-39732857D01*
X60298692Y-39805428D01*
X60226121Y-39841714D01*
X60080978Y-39841714D01*
X60008407Y-39805428D01*
X59935835Y-39732857D01*
X59899550Y-39587714D01*
X59899550Y-39333714D01*
X59935835Y-39188571D01*
X60008407Y-39116000D01*
X60080978Y-39079714D01*
X61060692Y-39333714D02*
X61060692Y-39841714D01*
X60879264Y-39043428D02*
X60697835Y-39587714D01*
X61169550Y-39587714D01*
X59572978Y-37301714D02*
X59572978Y-36539714D01*
X60080978Y-36539714D02*
X60226121Y-36539714D01*
X60298692Y-36576000D01*
X60371264Y-36648571D01*
X60407550Y-36793714D01*
X60407550Y-37047714D01*
X60371264Y-37192857D01*
X60298692Y-37265428D01*
X60226121Y-37301714D01*
X60080978Y-37301714D01*
X60008407Y-37265428D01*
X59935835Y-37192857D01*
X59899550Y-37047714D01*
X59899550Y-36793714D01*
X59935835Y-36648571D01*
X60008407Y-36576000D01*
X60080978Y-36539714D01*
X60697835Y-36612285D02*
X60734121Y-36576000D01*
X60806692Y-36539714D01*
X60988121Y-36539714D01*
X61060692Y-36576000D01*
X61096978Y-36612285D01*
X61133264Y-36684857D01*
X61133264Y-36757428D01*
X61096978Y-36866285D01*
X60661550Y-37301714D01*
X61133264Y-37301714D01*
X59572978Y-42381714D02*
X59572978Y-41619714D01*
X60080978Y-41619714D02*
X60226121Y-41619714D01*
X60298692Y-41656000D01*
X60371264Y-41728571D01*
X60407550Y-41873714D01*
X60407550Y-42127714D01*
X60371264Y-42272857D01*
X60298692Y-42345428D01*
X60226121Y-42381714D01*
X60080978Y-42381714D01*
X60008407Y-42345428D01*
X59935835Y-42272857D01*
X59899550Y-42127714D01*
X59899550Y-41873714D01*
X59935835Y-41728571D01*
X60008407Y-41656000D01*
X60080978Y-41619714D01*
X60770407Y-42381714D02*
X60915550Y-42381714D01*
X60988121Y-42345428D01*
X61024407Y-42309142D01*
X61096978Y-42200285D01*
X61133264Y-42055142D01*
X61133264Y-41764857D01*
X61096978Y-41692285D01*
X61060692Y-41656000D01*
X60988121Y-41619714D01*
X60842978Y-41619714D01*
X60770407Y-41656000D01*
X60734121Y-41692285D01*
X60697835Y-41764857D01*
X60697835Y-41946285D01*
X60734121Y-42018857D01*
X60770407Y-42055142D01*
X60842978Y-42091428D01*
X60988121Y-42091428D01*
X61060692Y-42055142D01*
X61096978Y-42018857D01*
X61133264Y-41946285D01*
X59500407Y-33999714D02*
X59972121Y-33999714D01*
X59718121Y-34290000D01*
X59826978Y-34290000D01*
X59899550Y-34326285D01*
X59935835Y-34362571D01*
X59972121Y-34435142D01*
X59972121Y-34616571D01*
X59935835Y-34689142D01*
X59899550Y-34725428D01*
X59826978Y-34761714D01*
X59609264Y-34761714D01*
X59536692Y-34725428D01*
X59500407Y-34689142D01*
X60226121Y-34253714D02*
X60407550Y-34761714D01*
X60588978Y-34253714D01*
X60806692Y-33999714D02*
X61278407Y-33999714D01*
X61024407Y-34290000D01*
X61133264Y-34290000D01*
X61205835Y-34326285D01*
X61242121Y-34362571D01*
X61278407Y-34435142D01*
X61278407Y-34616571D01*
X61242121Y-34689142D01*
X61205835Y-34725428D01*
X61133264Y-34761714D01*
X60915550Y-34761714D01*
X60842978Y-34725428D01*
X60806692Y-34689142D01*
X59572978Y-47461714D02*
X59572978Y-46699714D01*
X60080978Y-46699714D02*
X60226121Y-46699714D01*
X60298692Y-46736000D01*
X60371264Y-46808571D01*
X60407550Y-46953714D01*
X60407550Y-47207714D01*
X60371264Y-47352857D01*
X60298692Y-47425428D01*
X60226121Y-47461714D01*
X60080978Y-47461714D01*
X60008407Y-47425428D01*
X59935835Y-47352857D01*
X59899550Y-47207714D01*
X59899550Y-46953714D01*
X59935835Y-46808571D01*
X60008407Y-46736000D01*
X60080978Y-46699714D01*
X60697835Y-46772285D02*
X60734121Y-46736000D01*
X60806692Y-46699714D01*
X60988121Y-46699714D01*
X61060692Y-46736000D01*
X61096978Y-46772285D01*
X61133264Y-46844857D01*
X61133264Y-46917428D01*
X61096978Y-47026285D01*
X60661550Y-47461714D01*
X61133264Y-47461714D01*
X61604978Y-46699714D02*
X61677550Y-46699714D01*
X61750121Y-46736000D01*
X61786407Y-46772285D01*
X61822692Y-46844857D01*
X61858978Y-46990000D01*
X61858978Y-47171428D01*
X61822692Y-47316571D01*
X61786407Y-47389142D01*
X61750121Y-47425428D01*
X61677550Y-47461714D01*
X61604978Y-47461714D01*
X61532407Y-47425428D01*
X61496121Y-47389142D01*
X61459835Y-47316571D01*
X61423550Y-47171428D01*
X61423550Y-46990000D01*
X61459835Y-46844857D01*
X61496121Y-46772285D01*
X61532407Y-46736000D01*
X61604978Y-46699714D01*
X59972121Y-44196000D02*
X59899550Y-44159714D01*
X59790692Y-44159714D01*
X59681835Y-44196000D01*
X59609264Y-44268571D01*
X59572978Y-44341142D01*
X59536692Y-44486285D01*
X59536692Y-44595142D01*
X59572978Y-44740285D01*
X59609264Y-44812857D01*
X59681835Y-44885428D01*
X59790692Y-44921714D01*
X59863264Y-44921714D01*
X59972121Y-44885428D01*
X60008407Y-44849142D01*
X60008407Y-44595142D01*
X59863264Y-44595142D01*
X60334978Y-44921714D02*
X60334978Y-44159714D01*
X60770407Y-44921714D01*
X60770407Y-44159714D01*
X61133264Y-44921714D02*
X61133264Y-44159714D01*
X61314692Y-44159714D01*
X61423550Y-44196000D01*
X61496121Y-44268571D01*
X61532407Y-44341142D01*
X61568692Y-44486285D01*
X61568692Y-44595142D01*
X61532407Y-44740285D01*
X61496121Y-44812857D01*
X61423550Y-44885428D01*
X61314692Y-44921714D01*
X61133264Y-44921714D01*
X59572978Y-50001714D02*
X59572978Y-49239714D01*
X60080978Y-49239714D02*
X60226121Y-49239714D01*
X60298692Y-49276000D01*
X60371264Y-49348571D01*
X60407550Y-49493714D01*
X60407550Y-49747714D01*
X60371264Y-49892857D01*
X60298692Y-49965428D01*
X60226121Y-50001714D01*
X60080978Y-50001714D01*
X60008407Y-49965428D01*
X59935835Y-49892857D01*
X59899550Y-49747714D01*
X59899550Y-49493714D01*
X59935835Y-49348571D01*
X60008407Y-49276000D01*
X60080978Y-49239714D01*
X60697835Y-49312285D02*
X60734121Y-49276000D01*
X60806692Y-49239714D01*
X60988121Y-49239714D01*
X61060692Y-49276000D01*
X61096978Y-49312285D01*
X61133264Y-49384857D01*
X61133264Y-49457428D01*
X61096978Y-49566285D01*
X60661550Y-50001714D01*
X61133264Y-50001714D01*
X61858978Y-50001714D02*
X61423550Y-50001714D01*
X61641264Y-50001714D02*
X61641264Y-49239714D01*
X61568692Y-49348571D01*
X61496121Y-49421142D01*
X61423550Y-49457428D01*
D12*
%TO.C,C7*%
X78032428Y-52101666D02*
X78056619Y-52125857D01*
X78080809Y-52198428D01*
X78080809Y-52246809D01*
X78056619Y-52319380D01*
X78008238Y-52367761D01*
X77959857Y-52391952D01*
X77863095Y-52416142D01*
X77790523Y-52416142D01*
X77693761Y-52391952D01*
X77645380Y-52367761D01*
X77597000Y-52319380D01*
X77572809Y-52246809D01*
X77572809Y-52198428D01*
X77597000Y-52125857D01*
X77621190Y-52101666D01*
X77572809Y-51932333D02*
X77572809Y-51593666D01*
X78080809Y-51811380D01*
D13*
%TO.C,R14*%
X91022714Y-41717894D02*
X90938047Y-41596942D01*
X90877571Y-41717894D02*
X90877571Y-41463894D01*
X90974333Y-41463894D01*
X90998523Y-41475990D01*
X91010619Y-41488085D01*
X91022714Y-41512275D01*
X91022714Y-41548561D01*
X91010619Y-41572751D01*
X90998523Y-41584847D01*
X90974333Y-41596942D01*
X90877571Y-41596942D01*
X91264619Y-41717894D02*
X91119476Y-41717894D01*
X91192047Y-41717894D02*
X91192047Y-41463894D01*
X91167857Y-41500180D01*
X91143666Y-41524370D01*
X91119476Y-41536466D01*
X91482333Y-41548561D02*
X91482333Y-41717894D01*
X91421857Y-41451799D02*
X91361380Y-41633228D01*
X91518619Y-41633228D01*
%TO.C,C8*%
X89008857Y-42415790D02*
X89023371Y-42430304D01*
X89037885Y-42473847D01*
X89037885Y-42502875D01*
X89023371Y-42546418D01*
X88994342Y-42575447D01*
X88965314Y-42589961D01*
X88907257Y-42604475D01*
X88863714Y-42604475D01*
X88805657Y-42589961D01*
X88776628Y-42575447D01*
X88747600Y-42546418D01*
X88733085Y-42502875D01*
X88733085Y-42473847D01*
X88747600Y-42430304D01*
X88762114Y-42415790D01*
X88863714Y-42241618D02*
X88849200Y-42270647D01*
X88834685Y-42285161D01*
X88805657Y-42299675D01*
X88791142Y-42299675D01*
X88762114Y-42285161D01*
X88747600Y-42270647D01*
X88733085Y-42241618D01*
X88733085Y-42183561D01*
X88747600Y-42154532D01*
X88762114Y-42140018D01*
X88791142Y-42125504D01*
X88805657Y-42125504D01*
X88834685Y-42140018D01*
X88849200Y-42154532D01*
X88863714Y-42183561D01*
X88863714Y-42241618D01*
X88878228Y-42270647D01*
X88892742Y-42285161D01*
X88921771Y-42299675D01*
X88979828Y-42299675D01*
X89008857Y-42285161D01*
X89023371Y-42270647D01*
X89037885Y-42241618D01*
X89037885Y-42183561D01*
X89023371Y-42154532D01*
X89008857Y-42140018D01*
X88979828Y-42125504D01*
X88921771Y-42125504D01*
X88892742Y-42140018D01*
X88878228Y-42154532D01*
X88863714Y-42183561D01*
D19*
%TO.C,J1*%
X67790000Y-64727000D02*
X79910000Y-64727000D01*
X67790000Y-56907000D02*
X67790000Y-64727000D01*
X68550000Y-62467000D02*
X69550000Y-62467000D01*
X68710000Y-58507000D02*
X68710000Y-56907000D01*
X69050000Y-62467000D02*
X69050000Y-64727000D01*
X69550000Y-62467000D02*
X69550000Y-60867000D01*
X79150000Y-62467000D02*
X78150000Y-62467000D01*
X79910000Y-58507000D02*
X78990000Y-58507000D01*
X79910000Y-56907000D02*
X78990000Y-56907000D01*
X78990000Y-58507000D02*
X78710000Y-58507000D01*
X70350000Y-64727000D02*
X70350000Y-60367000D01*
X78150000Y-62467000D02*
X78150000Y-60867000D01*
X78990000Y-56907000D02*
X78990000Y-58507000D01*
X69550000Y-62467000D02*
X69550000Y-64727000D01*
X68710000Y-56907000D02*
X67790000Y-56907000D01*
X68990000Y-58507000D02*
X68990000Y-57292000D01*
X78150000Y-60867000D02*
X79150000Y-60867000D01*
X67790000Y-58507000D02*
X68710000Y-58507000D01*
X79910000Y-64727000D02*
X79910000Y-56907000D01*
X68990000Y-58507000D02*
X68710000Y-58507000D01*
X79150000Y-60867000D02*
X79150000Y-62467000D01*
X69550000Y-60867000D02*
X68550000Y-60867000D01*
X70350000Y-60367000D02*
X77350000Y-60367000D01*
X77350000Y-60367000D02*
X77350000Y-64727000D01*
X68550000Y-60867000D02*
X68550000Y-62467000D01*
%TO.C,R11*%
X89678742Y-54063490D02*
X90153258Y-54063490D01*
X89678742Y-53018490D02*
X90153258Y-53018490D01*
%TO.C,C10*%
X84468580Y-62429000D02*
X84187420Y-62429000D01*
X84468580Y-63449000D02*
X84187420Y-63449000D01*
%TO.C,R10*%
X71515500Y-54753742D02*
X71515500Y-55228258D01*
X70470500Y-54753742D02*
X70470500Y-55228258D01*
%TO.C,R3*%
X77232742Y-54288500D02*
X77707258Y-54288500D01*
X77232742Y-55333500D02*
X77707258Y-55333500D01*
%TO.C,C3*%
X74297000Y-51675420D02*
X74297000Y-51956580D01*
X73277000Y-51675420D02*
X73277000Y-51956580D01*
%TO.C,TP3*%
X87822000Y-62685000D02*
G75*
G03*
X87822000Y-62685000I-700000J0D01*
G01*
%TO.C,R9*%
X73039500Y-55228258D02*
X73039500Y-54753742D01*
X71994500Y-55228258D02*
X71994500Y-54753742D01*
%TO.C,R5*%
X83326500Y-33712248D02*
X83326500Y-33237732D01*
X82281500Y-33712248D02*
X82281500Y-33237732D01*
%TO.C,D5*%
X84366000Y-42646000D02*
X82081000Y-42646000D01*
X82081000Y-42646000D02*
X82081000Y-44116000D01*
X82081000Y-44116000D02*
X84366000Y-44116000D01*
%TO.C,TP1*%
X82234000Y-62738000D02*
G75*
G03*
X82234000Y-62738000I-700000J0D01*
G01*
%TO.C,D3*%
X82496000Y-31670000D02*
X84781000Y-31670000D01*
X84781000Y-30200000D02*
X82496000Y-30200000D01*
X82496000Y-30200000D02*
X82496000Y-31670000D01*
%TO.C,R7*%
X81804742Y-49798500D02*
X82279258Y-49798500D01*
X81804742Y-48753500D02*
X82279258Y-48753500D01*
%TO.C,Q1*%
X83784000Y-48968990D02*
X83784000Y-49618990D01*
X83784000Y-48968990D02*
X83784000Y-48318990D01*
X86904000Y-48968990D02*
X86904000Y-47293990D01*
X86904000Y-48968990D02*
X86904000Y-49618990D01*
%TO.C,D2*%
X82332000Y-46667000D02*
X86232000Y-46667000D01*
X82332000Y-44667000D02*
X86232000Y-44667000D01*
X82332000Y-44667000D02*
X82332000Y-46667000D01*
%TO.C,R4*%
X85581258Y-52285500D02*
X85106742Y-52285500D01*
X85581258Y-51240500D02*
X85106742Y-51240500D01*
%TO.C,C9*%
X82182580Y-50491000D02*
X81901420Y-50491000D01*
X82182580Y-51511000D02*
X81901420Y-51511000D01*
%TO.C,C5*%
X69344000Y-54596420D02*
X69344000Y-54877580D01*
X68324000Y-54596420D02*
X68324000Y-54877580D01*
%TO.C,Y1*%
X78145000Y-48093990D02*
X76795000Y-48093990D01*
X78145000Y-49843990D02*
X76795000Y-49843990D01*
%TO.C,U4*%
X88186622Y-58166000D02*
X88186622Y-57366000D01*
X91306622Y-58166000D02*
X91306622Y-58966000D01*
X91306622Y-58166000D02*
X91306622Y-57366000D01*
X88186622Y-58166000D02*
X88186622Y-59966000D01*
%TO.C,J3*%
X91450800Y-46976000D02*
X91450800Y-45976000D01*
X87490800Y-51336000D02*
X95310800Y-51336000D01*
X93050800Y-45976000D02*
X93050800Y-46976000D01*
X89090800Y-50416000D02*
X87490800Y-50416000D01*
X93050800Y-46976000D02*
X91450800Y-46976000D01*
X89090800Y-50136000D02*
X89090800Y-50416000D01*
X91450800Y-45976000D02*
X93050800Y-45976000D01*
X95310800Y-48776000D02*
X90950800Y-48776000D01*
X89090800Y-46136000D02*
X89090800Y-46416000D01*
X93050800Y-50076000D02*
X95310800Y-50076000D01*
X91450800Y-49576000D02*
X91450800Y-50576000D01*
X93050800Y-50576000D02*
X93050800Y-49576000D01*
X91450800Y-50576000D02*
X93050800Y-50576000D01*
X87490800Y-45216000D02*
X87490800Y-46136000D01*
X93050800Y-49576000D02*
X91450800Y-49576000D01*
X93050800Y-49576000D02*
X95310800Y-49576000D01*
X90950800Y-47776000D02*
X95310800Y-47776000D01*
X87490800Y-50416000D02*
X87490800Y-51336000D01*
X87490800Y-46136000D02*
X89090800Y-46136000D01*
X95310800Y-51336000D02*
X95310800Y-45216000D01*
X89090800Y-51336000D02*
X89090800Y-50416000D01*
X89090800Y-50136000D02*
X87875800Y-50136000D01*
X89090800Y-45216000D02*
X89090800Y-46136000D01*
X90950800Y-48776000D02*
X90950800Y-47776000D01*
X95310800Y-45216000D02*
X87490800Y-45216000D01*
%TO.C,R12*%
X89678742Y-54796500D02*
X90153258Y-54796500D01*
X89678742Y-55841500D02*
X90153258Y-55841500D01*
%TO.C,C1*%
X73658000Y-55131580D02*
X73658000Y-54850420D01*
X74678000Y-55131580D02*
X74678000Y-54850420D01*
%TO.C,R8*%
X88406500Y-33702266D02*
X88406500Y-33227750D01*
X87361500Y-33702266D02*
X87361500Y-33227750D01*
%TO.C,D4*%
X87002011Y-34249489D02*
X87002011Y-31964489D01*
X87002011Y-31964489D02*
X85532011Y-31964489D01*
X85532011Y-31964489D02*
X85532011Y-34249489D01*
%TO.C,D7*%
X89152173Y-36211489D02*
X89152173Y-38061489D01*
X87952173Y-36211489D02*
X87952173Y-38061489D01*
X87952173Y-38061489D02*
X89152173Y-38061489D01*
%TO.C,D6*%
X88046000Y-40324000D02*
X88046000Y-38474000D01*
X89246000Y-38474000D02*
X88046000Y-38474000D01*
X89246000Y-40324000D02*
X89246000Y-38474000D01*
%TO.C,D8*%
X89952000Y-44634990D02*
X93852000Y-44634990D01*
X89952000Y-42634990D02*
X93852000Y-42634990D01*
X89952000Y-42634990D02*
X89952000Y-44634990D01*
D11*
%TO.C,SW1*%
X96566004Y-56112986D02*
X96566004Y-53812986D01*
X91966004Y-62412986D02*
X91966004Y-53812986D01*
X96566004Y-62412986D02*
X96566004Y-60212986D01*
D19*
%TO.C,U2*%
X80918000Y-46754007D02*
X80118000Y-46754007D01*
X80768000Y-46604007D02*
X67568000Y-46604007D01*
X80768000Y-30104007D02*
X80768000Y-46604007D01*
X68268000Y-29954007D02*
X67418000Y-29954007D01*
X80918000Y-45954007D02*
X80918000Y-46754007D01*
X67418000Y-46754007D02*
X68218000Y-46754007D01*
X80168000Y-29954007D02*
X80918000Y-29954007D01*
X80918000Y-29954007D02*
X80918000Y-30604007D01*
X67568000Y-35404007D02*
X80768000Y-35404007D01*
X67568000Y-46604007D02*
X67568000Y-30104007D01*
X67568000Y-30104007D02*
X80768000Y-30104007D01*
X67418000Y-45954007D02*
X67418000Y-46754007D01*
%TO.C,J4*%
X98273000Y-30672990D02*
X98273000Y-39832990D01*
X98273000Y-39832990D02*
X96568000Y-39832990D01*
X94558000Y-30672990D02*
X92638000Y-30672990D01*
X96568000Y-30672990D02*
X98273000Y-30672990D01*
X92638000Y-39832990D02*
X94558000Y-39832990D01*
D20*
%TO.C,U1*%
X48535024Y-40586991D02*
G75*
G03*
X48535024Y-40586991I-1545023J0D01*
G01*
X54727460Y-33231462D02*
G75*
G03*
X54727460Y-33231462I-1500000J0D01*
G01*
X66293998Y-60906989D02*
G75*
G03*
X66293998Y-60906989I-1523999J0D01*
G01*
X48514002Y-60906989D02*
G75*
G03*
X48514002Y-60906989I-1524001J0D01*
G01*
X54727460Y-53043462D02*
G75*
G03*
X54727460Y-53043462I-1500000J0D01*
G01*
D19*
X46990000Y-38173990D02*
G75*
G03*
X44577000Y-40586990I2J-2413002D01*
G01*
X64770000Y-63319990D02*
G75*
G03*
X67183000Y-60906990I-2J2413002D01*
G01*
X67183000Y-40586990D02*
G75*
G03*
X64770000Y-38173990I-2412999J1D01*
G01*
X44577000Y-60906990D02*
G75*
G03*
X46990000Y-63319990I2413002J2D01*
G01*
D16*
X44577000Y-40586990D02*
X44577000Y-60906990D01*
D21*
X50433460Y-30437462D02*
X65927460Y-30437462D01*
X65927460Y-55837462D02*
X63387460Y-55837462D01*
D16*
X67183000Y-60906990D02*
X67183000Y-40586990D01*
X46990000Y-63319990D02*
X64770000Y-63319990D01*
X64770000Y-38173990D02*
X46990000Y-38173990D01*
D21*
X65927460Y-30437462D02*
X65927460Y-55837462D01*
X63387460Y-55837462D02*
X50433460Y-55837462D01*
X50433460Y-55837462D02*
X50433460Y-30437462D01*
D19*
%TO.C,TP2*%
X96458000Y-43635000D02*
G75*
G03*
X96458000Y-43635000I-700000J0D01*
G01*
%TO.C,G\u002A\u002A\u002A*%
G36*
X60109964Y-61847633D02*
G01*
X60160798Y-61865667D01*
X60169620Y-61871433D01*
X60182797Y-61883519D01*
X60183280Y-61896998D01*
X60169543Y-61919419D01*
X60156359Y-61937005D01*
X60127893Y-61968385D01*
X60105816Y-61977952D01*
X60097877Y-61976185D01*
X60050940Y-61962296D01*
X60013747Y-61967363D01*
X59987354Y-61983542D01*
X59951548Y-62011707D01*
X59951548Y-62377347D01*
X59833409Y-62377347D01*
X59833409Y-61852282D01*
X59891384Y-61852282D01*
X59927422Y-61855091D01*
X59950386Y-61862169D01*
X59953916Y-61865950D01*
X59967816Y-61870470D01*
X59998690Y-61859536D01*
X60001241Y-61858281D01*
X60052506Y-61844837D01*
X60109964Y-61847633D01*
G37*
G36*
X57686761Y-62668709D02*
G01*
X57704495Y-62677471D01*
X57706897Y-62685822D01*
X57708329Y-62700897D01*
X57717003Y-62703527D01*
X57739484Y-62693724D01*
X57754621Y-62685903D01*
X57815019Y-62668157D01*
X57879242Y-62672111D01*
X57917575Y-62686159D01*
X57943870Y-62701301D01*
X57956178Y-62711427D01*
X57956303Y-62711956D01*
X57948427Y-62724367D01*
X57928501Y-62749125D01*
X57916653Y-62762883D01*
X57890560Y-62790203D01*
X57871174Y-62800446D01*
X57849148Y-62797306D01*
X57838819Y-62793628D01*
X57791713Y-62787792D01*
X57750231Y-62804020D01*
X57721765Y-62839182D01*
X57719760Y-62844035D01*
X57714768Y-62870032D01*
X57710679Y-62915822D01*
X57707915Y-62974948D01*
X57706897Y-63040956D01*
X57706897Y-63204323D01*
X57588757Y-63204323D01*
X57588757Y-62666132D01*
X57647827Y-62666132D01*
X57686761Y-62668709D01*
G37*
G36*
X58785214Y-62076625D02*
G01*
X58792118Y-62004898D01*
X58807645Y-61952656D01*
X58835409Y-61913613D01*
X58879022Y-61881482D01*
X58905538Y-61867223D01*
X58977160Y-61844817D01*
X59049115Y-61848357D01*
X59119022Y-61877676D01*
X59126891Y-61882739D01*
X59166357Y-61915223D01*
X59192837Y-61953943D01*
X59208160Y-62004108D01*
X59214153Y-62070927D01*
X59213780Y-62130298D01*
X59209132Y-62205249D01*
X59198605Y-62259823D01*
X59179336Y-62299724D01*
X59148464Y-62330654D01*
X59103128Y-62358317D01*
X59098050Y-62360938D01*
X59033007Y-62384623D01*
X58967722Y-62386548D01*
X58919161Y-62376133D01*
X58874819Y-62352276D01*
X58832975Y-62311522D01*
X58801332Y-62262704D01*
X58789086Y-62226976D01*
X58785496Y-62191311D01*
X58784024Y-62139886D01*
X58784473Y-62112035D01*
X58901419Y-62112035D01*
X58904952Y-62176856D01*
X58916709Y-62220743D01*
X58938423Y-62248199D01*
X58958065Y-62259116D01*
X58987976Y-62269332D01*
X59010587Y-62268491D01*
X59040038Y-62255617D01*
X59044873Y-62253129D01*
X59071643Y-62235905D01*
X59087754Y-62213891D01*
X59095770Y-62180445D01*
X59098258Y-62128928D01*
X59098318Y-62114814D01*
X59096691Y-62058566D01*
X59090079Y-62021800D01*
X59075889Y-61997857D01*
X59051525Y-61980075D01*
X59044334Y-61976221D01*
X58995039Y-61961031D01*
X58954657Y-61969627D01*
X58924650Y-62000622D01*
X58906474Y-62052629D01*
X58901419Y-62112035D01*
X58784473Y-62112035D01*
X58784939Y-62083127D01*
X58785214Y-62076625D01*
G37*
G36*
X57950643Y-62872670D02*
G01*
X57953179Y-62823900D01*
X57958426Y-62789608D01*
X57967155Y-62763918D01*
X57975462Y-62748386D01*
X58017404Y-62702387D01*
X58072600Y-62674881D01*
X58134209Y-62667469D01*
X58195390Y-62681750D01*
X58215553Y-62692242D01*
X58258215Y-62718253D01*
X58258215Y-62456106D01*
X58376354Y-62456106D01*
X58376354Y-63204323D01*
X58317285Y-63204323D01*
X58278561Y-63201823D01*
X58260821Y-63193215D01*
X58258215Y-63184296D01*
X58255582Y-63172032D01*
X58243076Y-63173020D01*
X58219487Y-63184296D01*
X58163061Y-63201242D01*
X58099497Y-63201884D01*
X58041075Y-63186575D01*
X58026055Y-63178724D01*
X57995760Y-63157328D01*
X57974675Y-63132999D01*
X57961184Y-63100698D01*
X57953671Y-63055386D01*
X57950519Y-62992024D01*
X57950188Y-62956824D01*
X58062832Y-62956824D01*
X58070170Y-63011556D01*
X58086416Y-63054216D01*
X58095585Y-63066072D01*
X58129148Y-63083239D01*
X58171577Y-63084689D01*
X58211225Y-63071092D01*
X58226645Y-63058553D01*
X58240392Y-63037461D01*
X58248162Y-63007528D01*
X58251345Y-62961760D01*
X58251652Y-62932690D01*
X58250745Y-62880804D01*
X58246831Y-62848005D01*
X58238116Y-62827158D01*
X58222806Y-62811125D01*
X58220662Y-62809365D01*
X58178346Y-62788258D01*
X58134434Y-62787426D01*
X58097665Y-62806827D01*
X58094614Y-62809992D01*
X58075020Y-62847062D01*
X58064438Y-62898999D01*
X58062832Y-62956824D01*
X57950188Y-62956824D01*
X57950046Y-62941791D01*
X57950643Y-62872670D01*
G37*
G36*
X56623951Y-61852282D02*
G01*
X56664055Y-61855264D01*
X56681615Y-61864849D01*
X56683021Y-61870557D01*
X56688039Y-61879712D01*
X56706341Y-61875630D01*
X56732246Y-61863166D01*
X56795398Y-61843884D01*
X56859228Y-61848375D01*
X56917729Y-61875026D01*
X56964892Y-61922223D01*
X56967734Y-61926438D01*
X56979447Y-61958975D01*
X56987402Y-62010312D01*
X56991601Y-62073267D01*
X56992042Y-62140657D01*
X56988727Y-62205300D01*
X56981654Y-62260014D01*
X56970825Y-62297614D01*
X56967734Y-62303191D01*
X56921636Y-62351827D01*
X56863761Y-62380036D01*
X56800118Y-62386203D01*
X56736712Y-62368715D01*
X56732246Y-62366463D01*
X56683021Y-62340797D01*
X56683021Y-62704173D01*
X56728543Y-62685152D01*
X56798699Y-62667697D01*
X56864457Y-62674772D01*
X56902179Y-62691808D01*
X56933260Y-62712747D01*
X56956270Y-62735063D01*
X56972527Y-62763040D01*
X56983347Y-62800965D01*
X56990046Y-62853123D01*
X56993941Y-62923799D01*
X56995931Y-62996959D01*
X57000366Y-63204323D01*
X56879920Y-63204323D01*
X56879920Y-63039589D01*
X56878748Y-62958027D01*
X56875000Y-62898955D01*
X56868326Y-62858702D01*
X56860716Y-62837717D01*
X56829137Y-62799108D01*
X56789484Y-62784078D01*
X56746561Y-62793329D01*
X56715241Y-62816492D01*
X56702283Y-62830666D01*
X56693363Y-62846002D01*
X56687730Y-62867406D01*
X56684631Y-62899785D01*
X56683312Y-62948043D01*
X56683022Y-63017087D01*
X56683021Y-63026518D01*
X56683021Y-63204323D01*
X56564881Y-63204323D01*
X56564881Y-62084796D01*
X56686025Y-62084796D01*
X56687318Y-62152802D01*
X56701448Y-62213192D01*
X56727944Y-62253596D01*
X56764539Y-62272282D01*
X56808966Y-62267517D01*
X56826896Y-62259484D01*
X56854916Y-62231430D01*
X56872186Y-62187594D01*
X56879137Y-62134617D01*
X56876201Y-62079139D01*
X56863808Y-62027800D01*
X56842390Y-61987242D01*
X56812378Y-61964104D01*
X56807621Y-61962660D01*
X56760573Y-61961703D01*
X56723670Y-61983249D01*
X56698343Y-62025035D01*
X56686025Y-62084796D01*
X56564881Y-62084796D01*
X56564881Y-61852282D01*
X56623951Y-61852282D01*
G37*
G36*
X59175715Y-62993670D02*
G01*
X59196944Y-62947415D01*
X59230591Y-62915978D01*
X59280411Y-62897417D01*
X59350160Y-62889785D01*
X59377259Y-62889334D01*
X59478990Y-62889285D01*
X59478990Y-62851512D01*
X59472437Y-62818124D01*
X59459080Y-62797216D01*
X59429171Y-62785220D01*
X59385496Y-62781244D01*
X59339293Y-62785298D01*
X59302413Y-62797060D01*
X59278859Y-62805694D01*
X59256678Y-62800249D01*
X59231016Y-62783255D01*
X59204819Y-62761594D01*
X59190894Y-62745614D01*
X59190204Y-62743317D01*
X59199911Y-62730187D01*
X59224044Y-62709647D01*
X59232308Y-62703573D01*
X59277690Y-62681181D01*
X59338398Y-62669962D01*
X59353729Y-62668820D01*
X59440535Y-62671713D01*
X59508149Y-62692132D01*
X59557080Y-62730258D01*
X59567115Y-62743552D01*
X59578473Y-62762032D01*
X59586543Y-62781407D01*
X59591883Y-62806375D01*
X59595051Y-62841631D01*
X59596605Y-62891872D01*
X59597102Y-62961794D01*
X59597130Y-62996239D01*
X59597130Y-63204323D01*
X59538060Y-63204323D01*
X59502833Y-63201625D01*
X59481701Y-63194797D01*
X59478990Y-63190735D01*
X59470955Y-63183851D01*
X59453600Y-63190735D01*
X59414141Y-63201869D01*
X59360631Y-63204755D01*
X59303739Y-63199978D01*
X59254138Y-63188124D01*
X59233581Y-63178649D01*
X59193220Y-63139602D01*
X59171094Y-63086075D01*
X59169931Y-63049905D01*
X59283359Y-63049905D01*
X59296218Y-63078118D01*
X59305062Y-63085133D01*
X59345323Y-63097020D01*
X59394526Y-63096852D01*
X59438613Y-63085238D01*
X59449816Y-63078876D01*
X59474579Y-63046480D01*
X59478990Y-63019807D01*
X59477745Y-62997815D01*
X59469728Y-62986309D01*
X59448516Y-62981894D01*
X59407687Y-62981171D01*
X59405931Y-62981171D01*
X59360276Y-62983554D01*
X59322368Y-62989663D01*
X59307481Y-62994759D01*
X59287220Y-63018129D01*
X59283359Y-63049905D01*
X59169931Y-63049905D01*
X59169102Y-63024138D01*
X59175715Y-62993670D01*
G37*
G36*
X60463107Y-61849470D02*
G01*
X60536652Y-61880704D01*
X60555998Y-61893624D01*
X60611297Y-61933682D01*
X60570094Y-61974885D01*
X60542509Y-61999802D01*
X60523924Y-62007295D01*
X60506773Y-62000308D01*
X60506034Y-61999786D01*
X60448919Y-61970595D01*
X60394451Y-61964390D01*
X60346585Y-61981025D01*
X60318692Y-62006729D01*
X60299630Y-62048183D01*
X60291779Y-62102672D01*
X60295112Y-62159506D01*
X60309602Y-62207994D01*
X60319253Y-62223613D01*
X60360270Y-62257193D01*
X60410022Y-62267134D01*
X60465621Y-62253335D01*
X60505670Y-62230072D01*
X60523176Y-62222708D01*
X60542335Y-62230038D01*
X60568982Y-62253012D01*
X60609799Y-62292024D01*
X60566401Y-62328349D01*
X60497768Y-62370703D01*
X60424623Y-62387875D01*
X60349642Y-62379472D01*
X60312530Y-62365663D01*
X60249709Y-62327269D01*
X60206772Y-62277496D01*
X60181684Y-62212769D01*
X60172410Y-62129515D01*
X60172270Y-62119455D01*
X60177591Y-62037373D01*
X60195904Y-61973923D01*
X60228996Y-61923992D01*
X60246573Y-61906834D01*
X60314724Y-61862678D01*
X60388016Y-61843510D01*
X60463107Y-61849470D01*
G37*
G36*
X58623264Y-61861734D02*
G01*
X58668422Y-61882121D01*
X58698425Y-61900500D01*
X58715580Y-61914149D01*
X58717174Y-61917051D01*
X58709323Y-61931080D01*
X58690474Y-61956467D01*
X58684974Y-61963302D01*
X58653245Y-62002125D01*
X58606241Y-61979710D01*
X58552468Y-61961346D01*
X58502557Y-61957050D01*
X58461855Y-61965879D01*
X58435709Y-61986887D01*
X58428861Y-62011022D01*
X58431963Y-62026735D01*
X58444563Y-62037696D01*
X58471598Y-62045888D01*
X58518006Y-62053292D01*
X58541661Y-62056301D01*
X58604032Y-62065718D01*
X58646596Y-62077656D01*
X58675795Y-62095068D01*
X58698072Y-62120904D01*
X58704465Y-62130896D01*
X58727805Y-62190685D01*
X58727092Y-62248964D01*
X58704385Y-62301495D01*
X58661741Y-62344040D01*
X58601219Y-62372363D01*
X58585235Y-62376366D01*
X58535481Y-62385815D01*
X58498172Y-62388305D01*
X58460440Y-62383826D01*
X58425621Y-62376242D01*
X58391643Y-62364444D01*
X58351976Y-62345415D01*
X58313885Y-62323397D01*
X58284636Y-62302631D01*
X58271492Y-62287357D01*
X58271341Y-62286172D01*
X58279973Y-62272264D01*
X58301485Y-62248566D01*
X58309506Y-62240682D01*
X58347670Y-62204118D01*
X58387859Y-62233830D01*
X58439948Y-62258661D01*
X58497390Y-62269294D01*
X58541326Y-62270994D01*
X58568665Y-62265535D01*
X58588568Y-62250831D01*
X58591275Y-62247925D01*
X58610123Y-62221210D01*
X58610715Y-62200635D01*
X58591163Y-62184892D01*
X58549581Y-62172676D01*
X58484082Y-62162679D01*
X58465034Y-62160513D01*
X58414216Y-62151896D01*
X58378561Y-62136487D01*
X58350176Y-62112869D01*
X58325186Y-62083219D01*
X58313583Y-62052484D01*
X58310721Y-62008294D01*
X58310721Y-62007782D01*
X58313621Y-61963014D01*
X58325232Y-61932091D01*
X58348027Y-61904843D01*
X58403360Y-61867028D01*
X58471996Y-61846932D01*
X58547457Y-61845014D01*
X58623264Y-61861734D01*
G37*
G36*
X57882480Y-61857987D02*
G01*
X57894957Y-61863050D01*
X57929444Y-61880382D01*
X57955082Y-61900224D01*
X57973161Y-61926545D01*
X57984971Y-61963318D01*
X57991802Y-62014512D01*
X57994942Y-62084100D01*
X57995683Y-62173232D01*
X57995683Y-62377347D01*
X57893245Y-62377347D01*
X57888676Y-62198990D01*
X57886696Y-62127493D01*
X57884399Y-62077377D01*
X57880804Y-62043777D01*
X57874930Y-62021829D01*
X57865798Y-62006668D01*
X57852428Y-61993431D01*
X57846161Y-61988004D01*
X57802835Y-61964498D01*
X57759818Y-61966854D01*
X57720131Y-61994824D01*
X57716742Y-61998689D01*
X57707169Y-62013771D01*
X57700618Y-62035533D01*
X57696558Y-62068672D01*
X57694456Y-62117888D01*
X57693782Y-62187880D01*
X57693770Y-62201592D01*
X57693770Y-62377347D01*
X57575631Y-62377347D01*
X57575631Y-61852282D01*
X57633607Y-61852282D01*
X57673066Y-61855848D01*
X57695058Y-61865387D01*
X57697105Y-61868690D01*
X57706474Y-61878323D01*
X57721171Y-61869865D01*
X57765716Y-61848844D01*
X57822258Y-61844776D01*
X57882480Y-61857987D01*
G37*
G36*
X59799936Y-62668633D02*
G01*
X59817676Y-62677241D01*
X59820282Y-62686159D01*
X59822915Y-62698423D01*
X59835421Y-62697436D01*
X59859010Y-62686159D01*
X59922827Y-62667642D01*
X59993468Y-62673964D01*
X60015222Y-62680543D01*
X60044432Y-62694325D01*
X60053783Y-62711605D01*
X60043407Y-62737261D01*
X60017640Y-62771145D01*
X59992078Y-62798700D01*
X59975174Y-62807077D01*
X59962861Y-62800680D01*
X59931011Y-62785697D01*
X59891630Y-62788807D01*
X59854935Y-62808758D01*
X59848823Y-62814653D01*
X59837326Y-62828736D01*
X59829402Y-62845467D01*
X59824395Y-62869689D01*
X59821645Y-62906247D01*
X59820494Y-62959986D01*
X59820282Y-63024679D01*
X59820282Y-63204323D01*
X59702142Y-63204323D01*
X59702142Y-62666132D01*
X59761212Y-62666132D01*
X59799936Y-62668633D01*
G37*
G36*
X58876337Y-58213614D02*
G01*
X58891573Y-58292350D01*
X58906051Y-58362383D01*
X58918836Y-58419550D01*
X58928991Y-58459687D01*
X58935580Y-58478629D01*
X58936075Y-58479269D01*
X58952550Y-58488681D01*
X58987919Y-58505093D01*
X59036530Y-58526198D01*
X59092729Y-58549690D01*
X59150861Y-58573262D01*
X59205275Y-58594608D01*
X59250315Y-58611420D01*
X59280329Y-58621393D01*
X59288689Y-58623135D01*
X59303765Y-58615999D01*
X59336698Y-58596151D01*
X59383836Y-58565932D01*
X59441527Y-58527684D01*
X59506119Y-58483748D01*
X59506168Y-58483714D01*
X59571077Y-58439306D01*
X59629285Y-58399995D01*
X59677064Y-58368258D01*
X59710685Y-58346573D01*
X59726345Y-58337444D01*
X59740776Y-58344133D01*
X59769626Y-58366635D01*
X59809442Y-58401535D01*
X59856767Y-58445420D01*
X59908145Y-58494876D01*
X59960123Y-58546488D01*
X60009243Y-58596841D01*
X60052051Y-58642523D01*
X60085091Y-58680118D01*
X60104908Y-58706212D01*
X60109068Y-58715606D01*
X60101943Y-58732576D01*
X60082137Y-58767275D01*
X60051998Y-58815910D01*
X60013877Y-58874685D01*
X59971238Y-58938174D01*
X59927659Y-59002867D01*
X59889749Y-59060760D01*
X59859845Y-59108148D01*
X59840286Y-59141326D01*
X59833409Y-59156504D01*
X59838451Y-59174196D01*
X59852018Y-59210308D01*
X59871765Y-59259360D01*
X59895350Y-59315874D01*
X59920429Y-59374370D01*
X59944661Y-59429369D01*
X59965702Y-59475391D01*
X59981209Y-59506959D01*
X59988023Y-59518091D01*
X60003581Y-59523633D01*
X60040718Y-59532928D01*
X60095185Y-59545030D01*
X60162731Y-59558993D01*
X60237001Y-59573473D01*
X60313474Y-59588269D01*
X60381287Y-59601957D01*
X60436114Y-59613618D01*
X60473629Y-59622333D01*
X60489371Y-59627093D01*
X60494358Y-59643316D01*
X60498279Y-59684038D01*
X60501048Y-59747526D01*
X60502577Y-59832045D01*
X60502866Y-59897516D01*
X60502789Y-59986593D01*
X60502303Y-60052952D01*
X60501027Y-60100128D01*
X60498576Y-60131658D01*
X60494570Y-60151076D01*
X60488625Y-60161918D01*
X60480359Y-60167719D01*
X60473331Y-60170547D01*
X60450634Y-60176533D01*
X60407234Y-60185920D01*
X60348303Y-60197663D01*
X60279011Y-60210719D01*
X60235515Y-60218587D01*
X60154504Y-60234052D01*
X60087095Y-60248993D01*
X60037051Y-60262472D01*
X60008135Y-60273552D01*
X60004186Y-60276229D01*
X59992141Y-60294644D01*
X59973330Y-60332103D01*
X59950076Y-60383019D01*
X59924700Y-60441804D01*
X59899528Y-60502872D01*
X59876881Y-60560637D01*
X59859082Y-60609512D01*
X59848455Y-60643911D01*
X59846486Y-60655483D01*
X59853656Y-60671509D01*
X59873512Y-60705158D01*
X59903626Y-60752589D01*
X59941568Y-60809960D01*
X59977801Y-60863152D01*
X60020525Y-60926291D01*
X60057434Y-60983158D01*
X60086087Y-61029800D01*
X60104041Y-61062264D01*
X60109068Y-61075631D01*
X60100228Y-61090294D01*
X60076011Y-61119624D01*
X60039874Y-61160065D01*
X59995272Y-61208058D01*
X59945660Y-61260046D01*
X59894493Y-61312472D01*
X59845228Y-61361779D01*
X59801319Y-61404410D01*
X59766222Y-61436807D01*
X59743392Y-61455413D01*
X59737175Y-61458484D01*
X59723465Y-61451406D01*
X59691771Y-61431734D01*
X59645698Y-61401808D01*
X59588851Y-61363970D01*
X59527319Y-61322255D01*
X59328034Y-61186027D01*
X59234533Y-61232413D01*
X59188275Y-61253458D01*
X59149642Y-61267577D01*
X59125589Y-61272317D01*
X59122843Y-61271820D01*
X59114944Y-61259051D01*
X59098461Y-61225393D01*
X59074840Y-61174217D01*
X59045526Y-61108896D01*
X59011964Y-61032803D01*
X58975599Y-60949310D01*
X58937876Y-60861790D01*
X58900242Y-60773614D01*
X58864139Y-60688156D01*
X58831015Y-60608788D01*
X58802314Y-60538882D01*
X58779481Y-60481811D01*
X58763962Y-60440948D01*
X58757201Y-60419664D01*
X58757026Y-60418149D01*
X58766954Y-60407046D01*
X58793246Y-60385298D01*
X58830665Y-60357181D01*
X58839369Y-60350922D01*
X58935084Y-60269876D01*
X59006392Y-60180178D01*
X59054139Y-60080355D01*
X59079170Y-59968937D01*
X59082692Y-59927488D01*
X59076810Y-59812532D01*
X59048460Y-59706624D01*
X59000393Y-59611640D01*
X58935360Y-59529454D01*
X58856113Y-59461939D01*
X58765402Y-59410970D01*
X58665979Y-59378421D01*
X58560594Y-59366166D01*
X58451999Y-59376080D01*
X58342945Y-59410036D01*
X58330940Y-59415364D01*
X58233185Y-59473527D01*
X58153078Y-59548378D01*
X58091408Y-59636481D01*
X58048962Y-59734402D01*
X58026528Y-59838705D01*
X58024894Y-59945955D01*
X58044848Y-60052717D01*
X58087178Y-60155555D01*
X58142186Y-60238371D01*
X58175483Y-60273748D01*
X58220918Y-60314423D01*
X58267758Y-60350922D01*
X58306835Y-60379828D01*
X58335875Y-60403254D01*
X58349641Y-60416926D01*
X58350101Y-60418149D01*
X58345107Y-60435468D01*
X58331089Y-60472986D01*
X58309492Y-60527332D01*
X58281761Y-60595132D01*
X58249341Y-60673014D01*
X58213678Y-60757606D01*
X58176216Y-60845535D01*
X58138402Y-60933429D01*
X58101679Y-61017915D01*
X58067493Y-61095621D01*
X58037290Y-61163174D01*
X58012514Y-61217202D01*
X57994611Y-61254332D01*
X57985026Y-61271193D01*
X57984284Y-61271820D01*
X57964584Y-61269593D01*
X57928699Y-61257421D01*
X57883584Y-61237757D01*
X57872595Y-61232413D01*
X57779093Y-61186027D01*
X57579809Y-61322255D01*
X57515972Y-61365505D01*
X57459408Y-61403094D01*
X57413730Y-61432679D01*
X57382551Y-61451919D01*
X57369607Y-61458484D01*
X57357372Y-61449605D01*
X57329734Y-61424869D01*
X57289707Y-61387125D01*
X57240310Y-61339222D01*
X57184556Y-61284010D01*
X57178375Y-61277823D01*
X57122481Y-61220739D01*
X57073637Y-61168787D01*
X57034716Y-61125194D01*
X57008591Y-61093186D01*
X56998134Y-61075990D01*
X56998060Y-61075285D01*
X57005238Y-61057761D01*
X57025146Y-61022756D01*
X57055342Y-60974215D01*
X57093385Y-60916083D01*
X57129326Y-60863152D01*
X57171976Y-60800391D01*
X57208842Y-60744335D01*
X57237497Y-60698826D01*
X57255510Y-60667706D01*
X57260641Y-60655483D01*
X57255760Y-60635145D01*
X57242569Y-60596355D01*
X57223319Y-60544698D01*
X57200265Y-60485756D01*
X57175659Y-60425112D01*
X57151754Y-60368350D01*
X57130803Y-60321051D01*
X57115060Y-60288800D01*
X57108395Y-60278221D01*
X57090016Y-60269551D01*
X57050060Y-60257608D01*
X56992839Y-60243480D01*
X56922665Y-60228256D01*
X56868108Y-60217524D01*
X56793611Y-60203235D01*
X56727246Y-60190090D01*
X56673686Y-60179047D01*
X56637610Y-60171066D01*
X56624601Y-60167578D01*
X56617565Y-60161691D01*
X56612326Y-60147963D01*
X56608634Y-60123057D01*
X56606237Y-60083641D01*
X56604883Y-60026380D01*
X56604323Y-59947940D01*
X56604261Y-59897603D01*
X56604938Y-59800309D01*
X56606909Y-59722920D01*
X56610089Y-59667169D01*
X56614391Y-59634790D01*
X56617756Y-59627093D01*
X56634428Y-59622099D01*
X56672593Y-59613270D01*
X56727925Y-59601526D01*
X56796098Y-59587786D01*
X56870126Y-59573473D01*
X56946322Y-59558606D01*
X57013575Y-59544680D01*
X57067637Y-59532641D01*
X57104256Y-59523434D01*
X57119104Y-59518091D01*
X57128749Y-59501653D01*
X57145730Y-59466396D01*
X57167707Y-59417814D01*
X57192340Y-59361400D01*
X57217289Y-59302648D01*
X57240214Y-59247053D01*
X57258774Y-59200107D01*
X57270630Y-59167306D01*
X57273719Y-59155101D01*
X57266572Y-59139069D01*
X57246707Y-59105284D01*
X57216484Y-59057483D01*
X57178264Y-58999403D01*
X57135889Y-58936935D01*
X57092132Y-58872241D01*
X57054102Y-58813951D01*
X57024169Y-58765867D01*
X57004702Y-58731791D01*
X56998060Y-58715770D01*
X57006989Y-58699348D01*
X57031473Y-58669119D01*
X57068057Y-58628498D01*
X57113287Y-58580900D01*
X57163709Y-58529741D01*
X57215867Y-58478436D01*
X57266307Y-58430399D01*
X57311575Y-58389045D01*
X57348216Y-58357790D01*
X57372775Y-58340048D01*
X57380782Y-58337433D01*
X57396784Y-58346753D01*
X57430643Y-58368549D01*
X57478633Y-58400349D01*
X57537026Y-58439684D01*
X57601537Y-58483703D01*
X57666211Y-58527596D01*
X57723931Y-58565818D01*
X57771059Y-58596038D01*
X57803956Y-58615921D01*
X57818983Y-58623135D01*
X57819016Y-58623135D01*
X57837396Y-58618265D01*
X57874140Y-58605195D01*
X57923599Y-58586233D01*
X57980124Y-58563688D01*
X58038066Y-58539868D01*
X58091775Y-58517082D01*
X58135604Y-58497638D01*
X58163903Y-58483846D01*
X58171052Y-58479269D01*
X58177163Y-58463080D01*
X58186949Y-58425210D01*
X58199474Y-58369821D01*
X58213802Y-58301079D01*
X58228997Y-58223147D01*
X58230790Y-58213614D01*
X58278245Y-57960241D01*
X58828882Y-57960241D01*
X58876337Y-58213614D01*
G37*
G36*
X57091499Y-62951016D02*
G01*
X57117590Y-62922945D01*
X57141043Y-62905669D01*
X57165647Y-62895531D01*
X57199274Y-62890691D01*
X57249797Y-62889308D01*
X57261599Y-62889285D01*
X57365605Y-62889285D01*
X57365404Y-62853187D01*
X57361954Y-62821150D01*
X57355559Y-62802744D01*
X57330800Y-62786686D01*
X57290181Y-62780296D01*
X57242509Y-62784263D01*
X57214649Y-62791737D01*
X57179297Y-62802299D01*
X57156169Y-62801623D01*
X57133397Y-62788902D01*
X57129326Y-62785940D01*
X57102550Y-62759493D01*
X57100550Y-62734993D01*
X57123496Y-62708222D01*
X57132749Y-62700979D01*
X57180460Y-62678672D01*
X57242589Y-62667795D01*
X57309753Y-62668701D01*
X57372567Y-62681741D01*
X57395749Y-62691092D01*
X57433480Y-62714590D01*
X57461786Y-62741509D01*
X57468599Y-62752267D01*
X57474896Y-62780264D01*
X57479642Y-62831503D01*
X57482653Y-62903012D01*
X57483743Y-62991814D01*
X57483745Y-62994915D01*
X57483745Y-63204323D01*
X57424675Y-63204323D01*
X57384807Y-63201035D01*
X57366436Y-63191780D01*
X57365605Y-63188572D01*
X57361731Y-63179439D01*
X57349853Y-63188572D01*
X57328363Y-63196873D01*
X57289644Y-63201812D01*
X57242523Y-63203241D01*
X57195827Y-63201014D01*
X57158382Y-63194983D01*
X57149016Y-63191914D01*
X57102584Y-63160225D01*
X57072881Y-63114005D01*
X57060644Y-63059539D01*
X57064353Y-63024435D01*
X57174036Y-63024435D01*
X57176507Y-63052609D01*
X57198339Y-63076060D01*
X57232765Y-63092639D01*
X57273021Y-63100201D01*
X57312339Y-63096597D01*
X57343955Y-63079681D01*
X57344977Y-63078683D01*
X57360277Y-63050657D01*
X57365605Y-63019613D01*
X57363970Y-62996431D01*
X57354439Y-62985175D01*
X57330076Y-62981587D01*
X57303254Y-62981350D01*
X57242088Y-62984373D01*
X57202471Y-62993953D01*
X57180214Y-63011486D01*
X57174036Y-63024435D01*
X57064353Y-63024435D01*
X57066605Y-63003114D01*
X57091499Y-62951016D01*
G37*
G36*
X56054246Y-62058349D02*
G01*
X56059756Y-62003545D01*
X56069184Y-61964736D01*
X56071386Y-61959925D01*
X56112432Y-61905252D01*
X56166100Y-61868186D01*
X56227446Y-61848384D01*
X56291527Y-61845504D01*
X56353396Y-61859205D01*
X56408110Y-61889144D01*
X56450724Y-61934979D01*
X56474180Y-61987788D01*
X56483067Y-62040994D01*
X56485569Y-62104439D01*
X56482281Y-62170236D01*
X56473798Y-62230500D01*
X56460712Y-62277343D01*
X56450989Y-62295608D01*
X56401514Y-62341713D01*
X56337294Y-62372823D01*
X56266764Y-62386263D01*
X56198362Y-62379360D01*
X56192339Y-62377568D01*
X56140679Y-62349827D01*
X56094353Y-62304752D01*
X56071386Y-62269704D01*
X56061224Y-62234826D01*
X56054980Y-62182381D01*
X56053334Y-62138749D01*
X56171934Y-62138749D01*
X56175941Y-62186547D01*
X56184126Y-62219536D01*
X56185068Y-62221431D01*
X56210583Y-62248261D01*
X56247841Y-62267474D01*
X56266903Y-62271502D01*
X56284916Y-62266567D01*
X56313804Y-62253507D01*
X56314537Y-62253129D01*
X56343389Y-62233119D01*
X56359828Y-62212676D01*
X56365742Y-62180862D01*
X56367766Y-62134041D01*
X56366119Y-62083135D01*
X56361020Y-62039066D01*
X56355960Y-62019269D01*
X56330991Y-61985872D01*
X56292819Y-61967942D01*
X56249837Y-61966016D01*
X56210435Y-61980634D01*
X56185008Y-62008310D01*
X56176464Y-62039449D01*
X56172107Y-62086322D01*
X56171934Y-62138749D01*
X56053334Y-62138749D01*
X56052655Y-62120758D01*
X56054246Y-62058349D01*
G37*
G36*
X60650314Y-61961367D02*
G01*
X60655104Y-61951253D01*
X60691912Y-61904280D01*
X60744471Y-61866300D01*
X60803086Y-61843289D01*
X60836878Y-61839156D01*
X60889513Y-61849105D01*
X60946238Y-61875088D01*
X60996560Y-61911308D01*
X61024543Y-61942828D01*
X61041938Y-61975567D01*
X61051091Y-62013324D01*
X61054124Y-62065731D01*
X61054184Y-62077376D01*
X61054184Y-62167321D01*
X60896664Y-62167321D01*
X60822823Y-62168267D01*
X60773016Y-62171950D01*
X60745067Y-62179634D01*
X60736798Y-62192583D01*
X60746032Y-62212063D01*
X60770591Y-62239339D01*
X60771365Y-62240114D01*
X60815470Y-62267010D01*
X60869359Y-62269913D01*
X60927360Y-62251012D01*
X60958001Y-62238233D01*
X60979331Y-62238706D01*
X61004630Y-62253818D01*
X61013008Y-62259955D01*
X61038673Y-62280450D01*
X61045518Y-62294337D01*
X61036259Y-62310024D01*
X61031093Y-62315948D01*
X60979277Y-62355867D01*
X60912629Y-62380039D01*
X60838487Y-62386778D01*
X60769536Y-62376009D01*
X60717329Y-62348910D01*
X60671448Y-62303530D01*
X60639285Y-62247819D01*
X60633140Y-62229271D01*
X60623315Y-62165165D01*
X60623463Y-62092046D01*
X60629655Y-62044354D01*
X60739780Y-62044354D01*
X60754994Y-62056158D01*
X60792268Y-62061366D01*
X60837595Y-62062308D01*
X60888585Y-62061476D01*
X60918535Y-62058204D01*
X60932626Y-62051326D01*
X60936044Y-62040182D01*
X60927530Y-62015392D01*
X60907503Y-61987676D01*
X60867634Y-61961660D01*
X60823194Y-61957872D01*
X60782070Y-61976077D01*
X60766351Y-61991882D01*
X60744331Y-62023685D01*
X60739780Y-62044354D01*
X60629655Y-62044354D01*
X60632743Y-62020564D01*
X60650314Y-61961367D01*
G37*
G36*
X59413357Y-62015747D02*
G01*
X59414560Y-62085489D01*
X59417877Y-62145552D01*
X59422870Y-62190151D01*
X59428186Y-62211759D01*
X59456446Y-62247064D01*
X59495390Y-62263622D01*
X59537351Y-62261459D01*
X59574663Y-62240599D01*
X59595682Y-62211199D01*
X59601503Y-62185379D01*
X59606172Y-62139376D01*
X59609239Y-62079251D01*
X59610256Y-62015747D01*
X59610256Y-61852282D01*
X59728396Y-61852282D01*
X59728396Y-62377347D01*
X59669326Y-62377347D01*
X59629222Y-62374365D01*
X59611662Y-62364780D01*
X59610256Y-62359072D01*
X59605417Y-62349737D01*
X59587515Y-62353431D01*
X59561537Y-62365635D01*
X59511067Y-62385102D01*
X59463283Y-62386793D01*
X59433047Y-62380855D01*
X59383612Y-62357512D01*
X59339381Y-62318030D01*
X59313422Y-62277367D01*
X59304808Y-62244225D01*
X59299036Y-62191539D01*
X59295922Y-62116924D01*
X59295217Y-62043040D01*
X59295217Y-61852282D01*
X59413357Y-61852282D01*
X59413357Y-62015747D01*
G37*
G36*
X57085685Y-61961534D02*
G01*
X57123468Y-61902341D01*
X57175875Y-61864511D01*
X57243609Y-61847383D01*
X57271165Y-61846156D01*
X57349174Y-61857105D01*
X57412116Y-61888954D01*
X57458622Y-61940213D01*
X57487328Y-62009387D01*
X57496871Y-62092706D01*
X57496871Y-62167321D01*
X57333200Y-62167321D01*
X57265253Y-62167600D01*
X57219561Y-62168829D01*
X57192132Y-62171599D01*
X57178971Y-62176499D01*
X57176083Y-62184119D01*
X57177637Y-62190292D01*
X57192263Y-62216828D01*
X57212330Y-62242799D01*
X57248736Y-62265575D01*
X57295907Y-62272332D01*
X57343340Y-62262442D01*
X57362822Y-62251803D01*
X57400904Y-62238203D01*
X57439296Y-62250727D01*
X57465482Y-62273911D01*
X57480583Y-62292911D01*
X57479841Y-62306939D01*
X57461343Y-62325743D01*
X57454065Y-62332035D01*
X57392490Y-62368654D01*
X57318756Y-62386402D01*
X57240109Y-62384095D01*
X57197830Y-62373990D01*
X57142887Y-62343263D01*
X57099735Y-62292547D01*
X57070125Y-62226110D01*
X57055812Y-62148223D01*
X57058547Y-62063156D01*
X57058683Y-62062308D01*
X57168630Y-62062308D01*
X57273681Y-62062308D01*
X57322460Y-62061478D01*
X57359195Y-62059271D01*
X57377674Y-62056114D01*
X57378732Y-62055093D01*
X57373276Y-62039596D01*
X57360021Y-62011710D01*
X57358803Y-62009340D01*
X57328292Y-61974264D01*
X57288230Y-61958919D01*
X57245878Y-61962870D01*
X57208497Y-61985684D01*
X57186031Y-62019646D01*
X57168630Y-62062308D01*
X57058683Y-62062308D01*
X57061823Y-62042749D01*
X57085685Y-61961534D01*
G37*
G36*
X60067366Y-62825194D02*
G01*
X60080719Y-62793769D01*
X60085184Y-62785040D01*
X60121599Y-62728438D01*
X60163447Y-62693536D01*
X60217382Y-62676355D01*
X60273150Y-62672696D01*
X60340709Y-62678576D01*
X60392212Y-62699045D01*
X60435732Y-62738346D01*
X60460204Y-62771012D01*
X60478433Y-62805435D01*
X60487481Y-62846121D01*
X60489739Y-62897789D01*
X60489739Y-62981171D01*
X60332220Y-62981171D01*
X60265380Y-62981521D01*
X60220528Y-62982984D01*
X60193403Y-62986186D01*
X60179744Y-62991747D01*
X60175290Y-63000292D01*
X60175118Y-63004143D01*
X60187288Y-63043785D01*
X60217726Y-63073269D01*
X60259727Y-63090534D01*
X60306587Y-63093519D01*
X60351599Y-63080161D01*
X60373201Y-63065045D01*
X60389361Y-63053646D01*
X60405660Y-63054871D01*
X60430533Y-63070538D01*
X60443346Y-63080167D01*
X60471540Y-63103119D01*
X60481307Y-63118048D01*
X60475716Y-63132002D01*
X60469226Y-63139601D01*
X60422107Y-63174288D01*
X60359888Y-63196527D01*
X60291081Y-63205343D01*
X60224198Y-63199764D01*
X60167752Y-63178816D01*
X60161441Y-63174789D01*
X60117808Y-63140864D01*
X60088907Y-63105406D01*
X60071523Y-63061573D01*
X60062440Y-63002522D01*
X60059695Y-62958260D01*
X60058094Y-62899010D01*
X60059781Y-62866313D01*
X60175118Y-62866313D01*
X60178201Y-62878156D01*
X60191482Y-62885113D01*
X60220204Y-62888412D01*
X60269613Y-62889283D01*
X60273150Y-62889285D01*
X60323892Y-62888515D01*
X60353649Y-62885387D01*
X60367667Y-62878671D01*
X60371189Y-62867139D01*
X60371182Y-62866313D01*
X60358770Y-62828096D01*
X60328294Y-62798576D01*
X60287665Y-62782637D01*
X60244796Y-62785159D01*
X60241525Y-62786298D01*
X60202374Y-62811059D01*
X60178864Y-62846449D01*
X60175118Y-62866313D01*
X60059781Y-62866313D01*
X60060238Y-62857464D01*
X60067366Y-62825194D01*
G37*
G36*
X58585869Y-62836750D02*
G01*
X58602967Y-62898289D01*
X58618446Y-62948486D01*
X58630856Y-62983034D01*
X58638750Y-62997627D01*
X58639954Y-62997551D01*
X58646995Y-62981905D01*
X58659849Y-62946215D01*
X58676764Y-62895576D01*
X58695993Y-62835084D01*
X58698519Y-62826933D01*
X58748198Y-62666132D01*
X58833969Y-62666132D01*
X58890110Y-62836240D01*
X58910817Y-62897678D01*
X58928785Y-62948540D01*
X58942405Y-62984458D01*
X58950072Y-63001065D01*
X58950971Y-63001628D01*
X58956189Y-62988394D01*
X58967044Y-62953089D01*
X58983781Y-62894861D01*
X59006645Y-62812860D01*
X59033393Y-62715357D01*
X59043401Y-62684910D01*
X59057236Y-62670615D01*
X59083808Y-62666381D01*
X59105387Y-62666132D01*
X59142372Y-62669110D01*
X59162252Y-62676948D01*
X59163951Y-62680712D01*
X59160115Y-62697149D01*
X59149407Y-62734579D01*
X59133032Y-62789015D01*
X59112194Y-62856472D01*
X59088095Y-62932960D01*
X59082530Y-62950433D01*
X59001110Y-63205573D01*
X58949003Y-63201667D01*
X58929853Y-63200548D01*
X58915428Y-63198210D01*
X58903887Y-63191207D01*
X58893389Y-63176092D01*
X58882095Y-63149418D01*
X58868164Y-63107738D01*
X58849755Y-63047606D01*
X58827760Y-62974608D01*
X58792046Y-62856468D01*
X58766944Y-62941791D01*
X58748905Y-63002866D01*
X58728610Y-63071225D01*
X58715339Y-63115719D01*
X58688836Y-63204323D01*
X58637196Y-63204323D01*
X58601849Y-63200461D01*
X58581113Y-63190652D01*
X58579429Y-63187915D01*
X58572498Y-63167571D01*
X58559640Y-63128243D01*
X58542305Y-63074496D01*
X58521940Y-63010895D01*
X58499995Y-62942006D01*
X58477919Y-62872394D01*
X58457161Y-62806624D01*
X58439169Y-62749262D01*
X58425394Y-62704873D01*
X58417283Y-62678023D01*
X58415734Y-62672161D01*
X58427516Y-62668648D01*
X58457491Y-62666475D01*
X58478202Y-62666132D01*
X58540671Y-62666132D01*
X58585869Y-62836750D01*
G37*
%TO.C,C12*%
X89762415Y-63194990D02*
X90043575Y-63194990D01*
X89762415Y-62174990D02*
X90043575Y-62174990D01*
%TO.C,D9*%
X94871999Y-41002990D02*
X93021999Y-41002990D01*
X93021999Y-41002990D02*
X93021999Y-42202990D01*
X94871999Y-42202990D02*
X93021999Y-42202990D01*
%TO.C,R1*%
X74436500Y-49005258D02*
X74436500Y-48530742D01*
X73391500Y-49005258D02*
X73391500Y-48530742D01*
%TO.C,U3*%
X82276000Y-38808990D02*
X82276000Y-42258990D01*
X82276000Y-38808990D02*
X82276000Y-36858990D01*
X87396000Y-38808990D02*
X87396000Y-36858990D01*
X87396000Y-38808990D02*
X87396000Y-40758990D01*
%TO.C,R13*%
X87359258Y-31457490D02*
X86884742Y-31457490D01*
X87359258Y-30412490D02*
X86884742Y-30412490D01*
%TO.C,R6*%
X85265500Y-33712258D02*
X85265500Y-33237742D01*
X84220500Y-33712258D02*
X84220500Y-33237742D01*
%TO.C,C11*%
X89762415Y-61670990D02*
X90043575Y-61670990D01*
X89762415Y-60650990D02*
X90043575Y-60650990D01*
%TO.C,C4*%
X68582000Y-48500420D02*
X68582000Y-48781580D01*
X67562000Y-48500420D02*
X67562000Y-48781580D01*
%TO.C,C6*%
X76710000Y-52157580D02*
X76710000Y-51876420D01*
X75690000Y-52157580D02*
X75690000Y-51876420D01*
%TO.C,C2*%
X71626000Y-48627420D02*
X71626000Y-48908580D01*
X72646000Y-48627420D02*
X72646000Y-48908580D01*
%TO.C,R2*%
X86851258Y-43903490D02*
X86376742Y-43903490D01*
X86851258Y-42858490D02*
X86376742Y-42858490D01*
%TO.C,L1*%
X84379000Y-54937000D02*
X84379000Y-54537000D01*
X87579000Y-54937000D02*
X87579000Y-54537000D01*
%TO.C,J2*%
X56455000Y-35687000D02*
X59115000Y-35687000D01*
X56455000Y-34417000D02*
X56455000Y-33087000D01*
X56455000Y-50987000D02*
X59115000Y-50987000D01*
X56455000Y-33087000D02*
X57785000Y-33087000D01*
X56455000Y-35687000D02*
X56455000Y-50987000D01*
X59115000Y-35687000D02*
X59115000Y-50987000D01*
%TO.C,C7*%
X78230000Y-52157580D02*
X78230000Y-51876420D01*
X79250000Y-52157580D02*
X79250000Y-51876420D01*
%TO.C,R14*%
X90948742Y-42125500D02*
X91423258Y-42125500D01*
X90948742Y-41080500D02*
X91423258Y-41080500D01*
%TO.C,C8*%
X88390000Y-42224420D02*
X88390000Y-42505580D01*
X89410000Y-42224420D02*
X89410000Y-42505580D01*
%TD*%
M02*
