%TF.GenerationSoftware,KiCad,Pcbnew,(6.0.2)*%
%TF.CreationDate,2022-10-12T05:29:00-04:00*%
%TF.ProjectId,ferrous_slime,66657272-6f75-4735-9f73-6c696d652e6b,v0.3.0*%
%TF.SameCoordinates,Original*%
%TF.FileFunction,Legend,Bot*%
%TF.FilePolarity,Positive*%
%FSLAX46Y46*%
G04 Gerber Fmt 4.6, Leading zero omitted, Abs format (unit mm)*
G04 Created by KiCad (PCBNEW (6.0.2)) date 2022-10-12 05:29:00*
%MOMM*%
%LPD*%
G01*
G04 APERTURE LIST*
%ADD10C,0.127000*%
%ADD11C,0.200000*%
%ADD12C,0.160020*%
%ADD13C,0.101600*%
%ADD14C,0.120000*%
G04 APERTURE END LIST*
D10*
X77778428Y-59663692D02*
X77814714Y-59772550D01*
X77814714Y-59953978D01*
X77778428Y-60026550D01*
X77742142Y-60062835D01*
X77669571Y-60099121D01*
X77597000Y-60099121D01*
X77524428Y-60062835D01*
X77488142Y-60026550D01*
X77451857Y-59953978D01*
X77415571Y-59808835D01*
X77379285Y-59736264D01*
X77343000Y-59699978D01*
X77270428Y-59663692D01*
X77197857Y-59663692D01*
X77125285Y-59699978D01*
X77089000Y-59736264D01*
X77052714Y-59808835D01*
X77052714Y-59990264D01*
X77089000Y-60099121D01*
X77742142Y-60861121D02*
X77778428Y-60824835D01*
X77814714Y-60715978D01*
X77814714Y-60643407D01*
X77778428Y-60534550D01*
X77705857Y-60461978D01*
X77633285Y-60425692D01*
X77488142Y-60389407D01*
X77379285Y-60389407D01*
X77234142Y-60425692D01*
X77161571Y-60461978D01*
X77089000Y-60534550D01*
X77052714Y-60643407D01*
X77052714Y-60715978D01*
X77089000Y-60824835D01*
X77125285Y-60861121D01*
X77814714Y-61550550D02*
X77814714Y-61187692D01*
X77052714Y-61187692D01*
X75057000Y-60099121D02*
X75020714Y-60026550D01*
X75020714Y-59917692D01*
X75057000Y-59808835D01*
X75129571Y-59736264D01*
X75202142Y-59699978D01*
X75347285Y-59663692D01*
X75456142Y-59663692D01*
X75601285Y-59699978D01*
X75673857Y-59736264D01*
X75746428Y-59808835D01*
X75782714Y-59917692D01*
X75782714Y-59990264D01*
X75746428Y-60099121D01*
X75710142Y-60135407D01*
X75456142Y-60135407D01*
X75456142Y-59990264D01*
X75782714Y-60461978D02*
X75020714Y-60461978D01*
X75782714Y-60897407D01*
X75020714Y-60897407D01*
X75782714Y-61260264D02*
X75020714Y-61260264D01*
X75020714Y-61441692D01*
X75057000Y-61550550D01*
X75129571Y-61623121D01*
X75202142Y-61659407D01*
X75347285Y-61695692D01*
X75456142Y-61695692D01*
X75601285Y-61659407D01*
X75673857Y-61623121D01*
X75746428Y-61550550D01*
X75782714Y-61441692D01*
X75782714Y-61260264D01*
D11*
X68846571Y-38166428D02*
X68846571Y-37833095D01*
X69370380Y-37833095D02*
X68370380Y-37833095D01*
X68370380Y-38309285D01*
X69370380Y-38833095D02*
X69322761Y-38737857D01*
X69275142Y-38690238D01*
X69179904Y-38642619D01*
X68894190Y-38642619D01*
X68798952Y-38690238D01*
X68751333Y-38737857D01*
X68703714Y-38833095D01*
X68703714Y-38975952D01*
X68751333Y-39071190D01*
X68798952Y-39118809D01*
X68894190Y-39166428D01*
X69179904Y-39166428D01*
X69275142Y-39118809D01*
X69322761Y-39071190D01*
X69370380Y-38975952D01*
X69370380Y-38833095D01*
X69370380Y-39595000D02*
X68703714Y-39595000D01*
X68894190Y-39595000D02*
X68798952Y-39642619D01*
X68751333Y-39690238D01*
X68703714Y-39785476D01*
X68703714Y-39880714D01*
X68703714Y-41404523D02*
X69370380Y-41404523D01*
X68703714Y-40975952D02*
X69227523Y-40975952D01*
X69322761Y-41023571D01*
X69370380Y-41118809D01*
X69370380Y-41261666D01*
X69322761Y-41356904D01*
X69275142Y-41404523D01*
X69322761Y-41833095D02*
X69370380Y-41928333D01*
X69370380Y-42118809D01*
X69322761Y-42214047D01*
X69227523Y-42261666D01*
X69179904Y-42261666D01*
X69084666Y-42214047D01*
X69037047Y-42118809D01*
X69037047Y-41975952D01*
X68989428Y-41880714D01*
X68894190Y-41833095D01*
X68846571Y-41833095D01*
X68751333Y-41880714D01*
X68703714Y-41975952D01*
X68703714Y-42118809D01*
X68751333Y-42214047D01*
X69322761Y-43071190D02*
X69370380Y-42975952D01*
X69370380Y-42785476D01*
X69322761Y-42690238D01*
X69227523Y-42642619D01*
X68846571Y-42642619D01*
X68751333Y-42690238D01*
X68703714Y-42785476D01*
X68703714Y-42975952D01*
X68751333Y-43071190D01*
X68846571Y-43118809D01*
X68941809Y-43118809D01*
X69037047Y-42642619D01*
X68703714Y-44214047D02*
X69370380Y-44404523D01*
X68894190Y-44595000D01*
X69370380Y-44785476D01*
X68703714Y-44975952D01*
X69370380Y-45356904D02*
X68703714Y-45356904D01*
X68370380Y-45356904D02*
X68418000Y-45309285D01*
X68465619Y-45356904D01*
X68418000Y-45404523D01*
X68370380Y-45356904D01*
X68465619Y-45356904D01*
X68703714Y-45690238D02*
X68703714Y-46071190D01*
X68370380Y-45833095D02*
X69227523Y-45833095D01*
X69322761Y-45880714D01*
X69370380Y-45975952D01*
X69370380Y-46071190D01*
X69370380Y-46404523D02*
X68370380Y-46404523D01*
X69370380Y-46833095D02*
X68846571Y-46833095D01*
X68751333Y-46785476D01*
X68703714Y-46690238D01*
X68703714Y-46547380D01*
X68751333Y-46452142D01*
X68798952Y-46404523D01*
X69322761Y-48023571D02*
X69370380Y-48166428D01*
X69370380Y-48404523D01*
X69322761Y-48499761D01*
X69275142Y-48547380D01*
X69179904Y-48595000D01*
X69084666Y-48595000D01*
X68989428Y-48547380D01*
X68941809Y-48499761D01*
X68894190Y-48404523D01*
X68846571Y-48214047D01*
X68798952Y-48118809D01*
X68751333Y-48071190D01*
X68656095Y-48023571D01*
X68560857Y-48023571D01*
X68465619Y-48071190D01*
X68418000Y-48118809D01*
X68370380Y-48214047D01*
X68370380Y-48452142D01*
X68418000Y-48595000D01*
X69370380Y-49166428D02*
X69322761Y-49071190D01*
X69227523Y-49023571D01*
X68370380Y-49023571D01*
X69370380Y-49547380D02*
X68703714Y-49547380D01*
X68370380Y-49547380D02*
X68418000Y-49499761D01*
X68465619Y-49547380D01*
X68418000Y-49595000D01*
X68370380Y-49547380D01*
X68465619Y-49547380D01*
X69370380Y-50023571D02*
X68703714Y-50023571D01*
X68798952Y-50023571D02*
X68751333Y-50071190D01*
X68703714Y-50166428D01*
X68703714Y-50309285D01*
X68751333Y-50404523D01*
X68846571Y-50452142D01*
X69370380Y-50452142D01*
X68846571Y-50452142D02*
X68751333Y-50499761D01*
X68703714Y-50595000D01*
X68703714Y-50737857D01*
X68751333Y-50833095D01*
X68846571Y-50880714D01*
X69370380Y-50880714D01*
X69322761Y-51737857D02*
X69370380Y-51642619D01*
X69370380Y-51452142D01*
X69322761Y-51356904D01*
X69227523Y-51309285D01*
X68846571Y-51309285D01*
X68751333Y-51356904D01*
X68703714Y-51452142D01*
X68703714Y-51642619D01*
X68751333Y-51737857D01*
X68846571Y-51785476D01*
X68941809Y-51785476D01*
X69037047Y-51309285D01*
X68370380Y-52071190D02*
X69370380Y-52404523D01*
X68370380Y-52737857D01*
X69370380Y-53642619D02*
X68894190Y-53309285D01*
X69370380Y-53071190D02*
X68370380Y-53071190D01*
X68370380Y-53452142D01*
X68418000Y-53547380D01*
X68465619Y-53595000D01*
X68560857Y-53642619D01*
X68703714Y-53642619D01*
X68798952Y-53595000D01*
X68846571Y-53547380D01*
X68894190Y-53452142D01*
X68894190Y-53071190D01*
X70980380Y-37833095D02*
X69980380Y-37833095D01*
X70694666Y-38166428D01*
X69980380Y-38499761D01*
X70980380Y-38499761D01*
X70980380Y-39404523D02*
X70456571Y-39404523D01*
X70361333Y-39356904D01*
X70313714Y-39261666D01*
X70313714Y-39071190D01*
X70361333Y-38975952D01*
X70932761Y-39404523D02*
X70980380Y-39309285D01*
X70980380Y-39071190D01*
X70932761Y-38975952D01*
X70837523Y-38928333D01*
X70742285Y-38928333D01*
X70647047Y-38975952D01*
X70599428Y-39071190D01*
X70599428Y-39309285D01*
X70551809Y-39404523D01*
X70980380Y-40309285D02*
X69980380Y-40309285D01*
X70932761Y-40309285D02*
X70980380Y-40214047D01*
X70980380Y-40023571D01*
X70932761Y-39928333D01*
X70885142Y-39880714D01*
X70789904Y-39833095D01*
X70504190Y-39833095D01*
X70408952Y-39880714D01*
X70361333Y-39928333D01*
X70313714Y-40023571D01*
X70313714Y-40214047D01*
X70361333Y-40309285D01*
X70932761Y-41166428D02*
X70980380Y-41071190D01*
X70980380Y-40880714D01*
X70932761Y-40785476D01*
X70837523Y-40737857D01*
X70456571Y-40737857D01*
X70361333Y-40785476D01*
X70313714Y-40880714D01*
X70313714Y-41071190D01*
X70361333Y-41166428D01*
X70456571Y-41214047D01*
X70551809Y-41214047D01*
X70647047Y-40737857D01*
X70313714Y-42309285D02*
X70980380Y-42499761D01*
X70504190Y-42690238D01*
X70980380Y-42880714D01*
X70313714Y-43071190D01*
X70980380Y-43452142D02*
X70313714Y-43452142D01*
X69980380Y-43452142D02*
X70028000Y-43404523D01*
X70075619Y-43452142D01*
X70028000Y-43499761D01*
X69980380Y-43452142D01*
X70075619Y-43452142D01*
X70313714Y-43785476D02*
X70313714Y-44166428D01*
X69980380Y-43928333D02*
X70837523Y-43928333D01*
X70932761Y-43975952D01*
X70980380Y-44071190D01*
X70980380Y-44166428D01*
X70980380Y-44499761D02*
X69980380Y-44499761D01*
X70980380Y-44928333D02*
X70456571Y-44928333D01*
X70361333Y-44880714D01*
X70313714Y-44785476D01*
X70313714Y-44642619D01*
X70361333Y-44547380D01*
X70408952Y-44499761D01*
X70313714Y-46928333D02*
X70599428Y-46166428D01*
X70885142Y-46928333D01*
X69980380Y-47309285D02*
X69980380Y-47928333D01*
X70361333Y-47595000D01*
X70361333Y-47737857D01*
X70408952Y-47833095D01*
X70456571Y-47880714D01*
X70551809Y-47928333D01*
X70789904Y-47928333D01*
X70885142Y-47880714D01*
X70932761Y-47833095D01*
X70980380Y-47737857D01*
X70980380Y-47452142D01*
X70932761Y-47356904D01*
X70885142Y-47309285D01*
D10*
X69650428Y-59663692D02*
X69686714Y-59772550D01*
X69686714Y-59953978D01*
X69650428Y-60026550D01*
X69614142Y-60062835D01*
X69541571Y-60099121D01*
X69469000Y-60099121D01*
X69396428Y-60062835D01*
X69360142Y-60026550D01*
X69323857Y-59953978D01*
X69287571Y-59808835D01*
X69251285Y-59736264D01*
X69215000Y-59699978D01*
X69142428Y-59663692D01*
X69069857Y-59663692D01*
X68997285Y-59699978D01*
X68961000Y-59736264D01*
X68924714Y-59808835D01*
X68924714Y-59990264D01*
X68961000Y-60099121D01*
X69686714Y-60425692D02*
X68924714Y-60425692D01*
X68924714Y-60607121D01*
X68961000Y-60715978D01*
X69033571Y-60788550D01*
X69106142Y-60824835D01*
X69251285Y-60861121D01*
X69360142Y-60861121D01*
X69505285Y-60824835D01*
X69577857Y-60788550D01*
X69650428Y-60715978D01*
X69686714Y-60607121D01*
X69686714Y-60425692D01*
X69469000Y-61151407D02*
X69469000Y-61514264D01*
X69686714Y-61078835D02*
X68924714Y-61332835D01*
X69686714Y-61586835D01*
X70956714Y-59627407D02*
X70956714Y-60099121D01*
X71247000Y-59845121D01*
X71247000Y-59953978D01*
X71283285Y-60026550D01*
X71319571Y-60062835D01*
X71392142Y-60099121D01*
X71573571Y-60099121D01*
X71646142Y-60062835D01*
X71682428Y-60026550D01*
X71718714Y-59953978D01*
X71718714Y-59736264D01*
X71682428Y-59663692D01*
X71646142Y-59627407D01*
X71210714Y-60353121D02*
X71718714Y-60534550D01*
X71210714Y-60715978D01*
X70956714Y-60933692D02*
X70956714Y-61405407D01*
X71247000Y-61151407D01*
X71247000Y-61260264D01*
X71283285Y-61332835D01*
X71319571Y-61369121D01*
X71392142Y-61405407D01*
X71573571Y-61405407D01*
X71646142Y-61369121D01*
X71682428Y-61332835D01*
X71718714Y-61260264D01*
X71718714Y-61042550D01*
X71682428Y-60969978D01*
X71646142Y-60933692D01*
X73750714Y-59699978D02*
X72988714Y-59699978D01*
X73750714Y-60062835D02*
X72988714Y-60062835D01*
X73750714Y-60498264D01*
X72988714Y-60498264D01*
X72988714Y-60752264D02*
X72988714Y-61187692D01*
X73750714Y-60969978D02*
X72988714Y-60969978D01*
X73061285Y-61405407D02*
X73025000Y-61441692D01*
X72988714Y-61514264D01*
X72988714Y-61695692D01*
X73025000Y-61768264D01*
X73061285Y-61804550D01*
X73133857Y-61840835D01*
X73206428Y-61840835D01*
X73315285Y-61804550D01*
X73750714Y-61369121D01*
X73750714Y-61840835D01*
D12*
X60458894Y-33577584D02*
X60458894Y-33867870D01*
X60966894Y-33686441D02*
X60313751Y-33686441D01*
X60241180Y-33722727D01*
X60204894Y-33795298D01*
X60204894Y-33867870D01*
X60930608Y-34412155D02*
X60966894Y-34339584D01*
X60966894Y-34194441D01*
X60930608Y-34121870D01*
X60858037Y-34085584D01*
X60567751Y-34085584D01*
X60495180Y-34121870D01*
X60458894Y-34194441D01*
X60458894Y-34339584D01*
X60495180Y-34412155D01*
X60567751Y-34448441D01*
X60640322Y-34448441D01*
X60712894Y-34085584D01*
X60966894Y-34775013D02*
X60458894Y-34775013D01*
X60604037Y-34775013D02*
X60531465Y-34811298D01*
X60495180Y-34847584D01*
X60458894Y-34920155D01*
X60458894Y-34992727D01*
X60966894Y-35246727D02*
X60458894Y-35246727D01*
X60604037Y-35246727D02*
X60531465Y-35283013D01*
X60495180Y-35319298D01*
X60458894Y-35391870D01*
X60458894Y-35464441D01*
X60966894Y-35827298D02*
X60930608Y-35754727D01*
X60894322Y-35718441D01*
X60821751Y-35682155D01*
X60604037Y-35682155D01*
X60531465Y-35718441D01*
X60495180Y-35754727D01*
X60458894Y-35827298D01*
X60458894Y-35936155D01*
X60495180Y-36008727D01*
X60531465Y-36045013D01*
X60604037Y-36081298D01*
X60821751Y-36081298D01*
X60894322Y-36045013D01*
X60930608Y-36008727D01*
X60966894Y-35936155D01*
X60966894Y-35827298D01*
X60458894Y-36734441D02*
X60966894Y-36734441D01*
X60458894Y-36407870D02*
X60858037Y-36407870D01*
X60930608Y-36444155D01*
X60966894Y-36516727D01*
X60966894Y-36625584D01*
X60930608Y-36698155D01*
X60894322Y-36734441D01*
X60930608Y-37061013D02*
X60966894Y-37133584D01*
X60966894Y-37278727D01*
X60930608Y-37351298D01*
X60858037Y-37387584D01*
X60821751Y-37387584D01*
X60749180Y-37351298D01*
X60712894Y-37278727D01*
X60712894Y-37169870D01*
X60676608Y-37097298D01*
X60604037Y-37061013D01*
X60567751Y-37061013D01*
X60495180Y-37097298D01*
X60458894Y-37169870D01*
X60458894Y-37278727D01*
X60495180Y-37351298D01*
X61039465Y-37532727D02*
X61039465Y-38113298D01*
X60930608Y-38258441D02*
X60966894Y-38331013D01*
X60966894Y-38476155D01*
X60930608Y-38548727D01*
X60858037Y-38585013D01*
X60821751Y-38585013D01*
X60749180Y-38548727D01*
X60712894Y-38476155D01*
X60712894Y-38367298D01*
X60676608Y-38294727D01*
X60604037Y-38258441D01*
X60567751Y-38258441D01*
X60495180Y-38294727D01*
X60458894Y-38367298D01*
X60458894Y-38476155D01*
X60495180Y-38548727D01*
X60966894Y-39020441D02*
X60930608Y-38947870D01*
X60858037Y-38911584D01*
X60204894Y-38911584D01*
X60966894Y-39310727D02*
X60458894Y-39310727D01*
X60204894Y-39310727D02*
X60241180Y-39274441D01*
X60277465Y-39310727D01*
X60241180Y-39347013D01*
X60204894Y-39310727D01*
X60277465Y-39310727D01*
X60966894Y-39673584D02*
X60458894Y-39673584D01*
X60531465Y-39673584D02*
X60495180Y-39709870D01*
X60458894Y-39782441D01*
X60458894Y-39891298D01*
X60495180Y-39963870D01*
X60567751Y-40000155D01*
X60966894Y-40000155D01*
X60567751Y-40000155D02*
X60495180Y-40036441D01*
X60458894Y-40109013D01*
X60458894Y-40217870D01*
X60495180Y-40290441D01*
X60567751Y-40326727D01*
X60966894Y-40326727D01*
X60930608Y-40979870D02*
X60966894Y-40907298D01*
X60966894Y-40762155D01*
X60930608Y-40689584D01*
X60858037Y-40653298D01*
X60567751Y-40653298D01*
X60495180Y-40689584D01*
X60458894Y-40762155D01*
X60458894Y-40907298D01*
X60495180Y-40979870D01*
X60567751Y-41016155D01*
X60640322Y-41016155D01*
X60712894Y-40653298D01*
X60458894Y-41850727D02*
X60966894Y-42032155D01*
X60458894Y-42213584D01*
X60204894Y-42649013D02*
X60204894Y-42721584D01*
X60241180Y-42794155D01*
X60277465Y-42830441D01*
X60350037Y-42866727D01*
X60495180Y-42903013D01*
X60676608Y-42903013D01*
X60821751Y-42866727D01*
X60894322Y-42830441D01*
X60930608Y-42794155D01*
X60966894Y-42721584D01*
X60966894Y-42649013D01*
X60930608Y-42576441D01*
X60894322Y-42540155D01*
X60821751Y-42503870D01*
X60676608Y-42467584D01*
X60495180Y-42467584D01*
X60350037Y-42503870D01*
X60277465Y-42540155D01*
X60241180Y-42576441D01*
X60204894Y-42649013D01*
X60894322Y-43229584D02*
X60930608Y-43265870D01*
X60966894Y-43229584D01*
X60930608Y-43193298D01*
X60894322Y-43229584D01*
X60966894Y-43229584D01*
X60204894Y-43519870D02*
X60204894Y-43991584D01*
X60495180Y-43737584D01*
X60495180Y-43846441D01*
X60531465Y-43919013D01*
X60567751Y-43955298D01*
X60640322Y-43991584D01*
X60821751Y-43991584D01*
X60894322Y-43955298D01*
X60930608Y-43919013D01*
X60966894Y-43846441D01*
X60966894Y-43628727D01*
X60930608Y-43556155D01*
X60894322Y-43519870D01*
X60894322Y-44318155D02*
X60930608Y-44354441D01*
X60966894Y-44318155D01*
X60930608Y-44281870D01*
X60894322Y-44318155D01*
X60966894Y-44318155D01*
X60204894Y-44826155D02*
X60204894Y-44898727D01*
X60241180Y-44971298D01*
X60277465Y-45007584D01*
X60350037Y-45043870D01*
X60495180Y-45080155D01*
X60676608Y-45080155D01*
X60821751Y-45043870D01*
X60894322Y-45007584D01*
X60930608Y-44971298D01*
X60966894Y-44898727D01*
X60966894Y-44826155D01*
X60930608Y-44753584D01*
X60894322Y-44717298D01*
X60821751Y-44681013D01*
X60676608Y-44644727D01*
X60495180Y-44644727D01*
X60350037Y-44681013D01*
X60277465Y-44717298D01*
X60241180Y-44753584D01*
X60204894Y-44826155D01*
X60966894Y-45987298D02*
X60204894Y-45987298D01*
X60495180Y-45987298D02*
X60458894Y-46059870D01*
X60458894Y-46205013D01*
X60495180Y-46277584D01*
X60531465Y-46313870D01*
X60604037Y-46350155D01*
X60821751Y-46350155D01*
X60894322Y-46313870D01*
X60930608Y-46277584D01*
X60966894Y-46205013D01*
X60966894Y-46059870D01*
X60930608Y-45987298D01*
X60458894Y-46604155D02*
X60966894Y-46785584D01*
X60458894Y-46967013D02*
X60966894Y-46785584D01*
X61148322Y-46713013D01*
X61184608Y-46676727D01*
X61220894Y-46604155D01*
X60204894Y-47729013D02*
X60204894Y-48164441D01*
X60966894Y-47946727D02*
X60204894Y-47946727D01*
X60966894Y-48418441D02*
X60204894Y-48418441D01*
X60966894Y-48745013D02*
X60567751Y-48745013D01*
X60495180Y-48708727D01*
X60458894Y-48636155D01*
X60458894Y-48527298D01*
X60495180Y-48454727D01*
X60531465Y-48418441D01*
X60930608Y-49398155D02*
X60966894Y-49325584D01*
X60966894Y-49180441D01*
X60930608Y-49107870D01*
X60858037Y-49071584D01*
X60567751Y-49071584D01*
X60495180Y-49107870D01*
X60458894Y-49180441D01*
X60458894Y-49325584D01*
X60495180Y-49398155D01*
X60567751Y-49434441D01*
X60640322Y-49434441D01*
X60712894Y-49071584D01*
X60567751Y-50015013D02*
X60604037Y-50123870D01*
X60640322Y-50160155D01*
X60712894Y-50196441D01*
X60821751Y-50196441D01*
X60894322Y-50160155D01*
X60930608Y-50123870D01*
X60966894Y-50051298D01*
X60966894Y-49761013D01*
X60204894Y-49761013D01*
X60204894Y-50015013D01*
X60241180Y-50087584D01*
X60277465Y-50123870D01*
X60350037Y-50160155D01*
X60422608Y-50160155D01*
X60495180Y-50123870D01*
X60531465Y-50087584D01*
X60567751Y-50015013D01*
X60567751Y-49761013D01*
X60458894Y-50849584D02*
X60966894Y-50849584D01*
X60458894Y-50523013D02*
X60858037Y-50523013D01*
X60930608Y-50559298D01*
X60966894Y-50631870D01*
X60966894Y-50740727D01*
X60930608Y-50813298D01*
X60894322Y-50849584D01*
X60458894Y-51103584D02*
X60458894Y-51393870D01*
X60204894Y-51212441D02*
X60858037Y-51212441D01*
X60930608Y-51248727D01*
X60966894Y-51321298D01*
X60966894Y-51393870D01*
X60966894Y-51756727D02*
X60930608Y-51684155D01*
X60858037Y-51647870D01*
X60204894Y-51647870D01*
X60966894Y-52373584D02*
X60567751Y-52373584D01*
X60495180Y-52337298D01*
X60458894Y-52264727D01*
X60458894Y-52119584D01*
X60495180Y-52047013D01*
X60930608Y-52373584D02*
X60966894Y-52301013D01*
X60966894Y-52119584D01*
X60930608Y-52047013D01*
X60858037Y-52010727D01*
X60785465Y-52010727D01*
X60712894Y-52047013D01*
X60676608Y-52119584D01*
X60676608Y-52301013D01*
X60640322Y-52373584D01*
X60966894Y-52736441D02*
X60204894Y-52736441D01*
X60966894Y-53063013D02*
X60567751Y-53063013D01*
X60495180Y-53026727D01*
X60458894Y-52954155D01*
X60458894Y-52845298D01*
X60495180Y-52772727D01*
X60531465Y-52736441D01*
X62193714Y-34049298D02*
X62193714Y-33686441D01*
X61431714Y-33686441D01*
X62193714Y-34303298D02*
X61685714Y-34303298D01*
X61431714Y-34303298D02*
X61468000Y-34267013D01*
X61504285Y-34303298D01*
X61468000Y-34339584D01*
X61431714Y-34303298D01*
X61504285Y-34303298D01*
X62157428Y-34992727D02*
X62193714Y-34920155D01*
X62193714Y-34775013D01*
X62157428Y-34702441D01*
X62121142Y-34666155D01*
X62048571Y-34629870D01*
X61830857Y-34629870D01*
X61758285Y-34666155D01*
X61722000Y-34702441D01*
X61685714Y-34775013D01*
X61685714Y-34920155D01*
X61722000Y-34992727D01*
X62157428Y-35609584D02*
X62193714Y-35537013D01*
X62193714Y-35391870D01*
X62157428Y-35319298D01*
X62084857Y-35283013D01*
X61794571Y-35283013D01*
X61722000Y-35319298D01*
X61685714Y-35391870D01*
X61685714Y-35537013D01*
X61722000Y-35609584D01*
X61794571Y-35645870D01*
X61867142Y-35645870D01*
X61939714Y-35283013D01*
X61685714Y-35972441D02*
X62193714Y-35972441D01*
X61758285Y-35972441D02*
X61722000Y-36008727D01*
X61685714Y-36081298D01*
X61685714Y-36190155D01*
X61722000Y-36262727D01*
X61794571Y-36299013D01*
X62193714Y-36299013D01*
X62157428Y-36625584D02*
X62193714Y-36698155D01*
X62193714Y-36843298D01*
X62157428Y-36915870D01*
X62084857Y-36952155D01*
X62048571Y-36952155D01*
X61976000Y-36915870D01*
X61939714Y-36843298D01*
X61939714Y-36734441D01*
X61903428Y-36661870D01*
X61830857Y-36625584D01*
X61794571Y-36625584D01*
X61722000Y-36661870D01*
X61685714Y-36734441D01*
X61685714Y-36843298D01*
X61722000Y-36915870D01*
X62157428Y-37569013D02*
X62193714Y-37496441D01*
X62193714Y-37351298D01*
X62157428Y-37278727D01*
X62084857Y-37242441D01*
X61794571Y-37242441D01*
X61722000Y-37278727D01*
X61685714Y-37351298D01*
X61685714Y-37496441D01*
X61722000Y-37569013D01*
X61794571Y-37605298D01*
X61867142Y-37605298D01*
X61939714Y-37242441D01*
X62121142Y-37931870D02*
X62157428Y-37968155D01*
X62193714Y-37931870D01*
X62157428Y-37895584D01*
X62121142Y-37931870D01*
X62193714Y-37931870D01*
X61722000Y-37931870D02*
X61758285Y-37968155D01*
X61794571Y-37931870D01*
X61758285Y-37895584D01*
X61722000Y-37931870D01*
X61794571Y-37931870D01*
X62121142Y-39310727D02*
X62157428Y-39274441D01*
X62193714Y-39165584D01*
X62193714Y-39093013D01*
X62157428Y-38984155D01*
X62084857Y-38911584D01*
X62012285Y-38875298D01*
X61867142Y-38839013D01*
X61758285Y-38839013D01*
X61613142Y-38875298D01*
X61540571Y-38911584D01*
X61468000Y-38984155D01*
X61431714Y-39093013D01*
X61431714Y-39165584D01*
X61468000Y-39274441D01*
X61504285Y-39310727D01*
X61794571Y-39637298D02*
X61794571Y-39891298D01*
X62193714Y-40000155D02*
X62193714Y-39637298D01*
X61431714Y-39637298D01*
X61431714Y-40000155D01*
X62193714Y-40762155D02*
X61830857Y-40508155D01*
X62193714Y-40326727D02*
X61431714Y-40326727D01*
X61431714Y-40617013D01*
X61468000Y-40689584D01*
X61504285Y-40725870D01*
X61576857Y-40762155D01*
X61685714Y-40762155D01*
X61758285Y-40725870D01*
X61794571Y-40689584D01*
X61830857Y-40617013D01*
X61830857Y-40326727D01*
X62193714Y-41088727D02*
X61431714Y-41088727D01*
X62193714Y-41524155D01*
X61431714Y-41524155D01*
X61903428Y-41887013D02*
X61903428Y-42467584D01*
X61431714Y-42975584D02*
X61431714Y-43120727D01*
X61468000Y-43193298D01*
X61540571Y-43265870D01*
X61685714Y-43302155D01*
X61939714Y-43302155D01*
X62084857Y-43265870D01*
X62157428Y-43193298D01*
X62193714Y-43120727D01*
X62193714Y-42975584D01*
X62157428Y-42903013D01*
X62084857Y-42830441D01*
X61939714Y-42794155D01*
X61685714Y-42794155D01*
X61540571Y-42830441D01*
X61468000Y-42903013D01*
X61431714Y-42975584D01*
X62193714Y-43628727D02*
X61431714Y-43628727D01*
X61794571Y-43628727D02*
X61794571Y-44064155D01*
X62193714Y-44064155D02*
X61431714Y-44064155D01*
X62193714Y-44789870D02*
X62193714Y-44427013D01*
X61431714Y-44427013D01*
X61903428Y-45043870D02*
X61903428Y-45624441D01*
X62193714Y-45987298D02*
X61431714Y-45987298D01*
X61431714Y-46277584D01*
X61468000Y-46350155D01*
X61504285Y-46386441D01*
X61576857Y-46422727D01*
X61685714Y-46422727D01*
X61758285Y-46386441D01*
X61794571Y-46350155D01*
X61830857Y-46277584D01*
X61830857Y-45987298D01*
X61685714Y-47257298D02*
X62193714Y-47438727D01*
X61685714Y-47620155D01*
X61504285Y-47874155D02*
X61468000Y-47910441D01*
X61431714Y-47983013D01*
X61431714Y-48164441D01*
X61468000Y-48237013D01*
X61504285Y-48273298D01*
X61576857Y-48309584D01*
X61649428Y-48309584D01*
X61758285Y-48273298D01*
X62193714Y-47837870D01*
X62193714Y-48309584D01*
X62193714Y-49325584D02*
X62157428Y-49253013D01*
X62121142Y-49216727D01*
X62048571Y-49180441D01*
X61830857Y-49180441D01*
X61758285Y-49216727D01*
X61722000Y-49253013D01*
X61685714Y-49325584D01*
X61685714Y-49434441D01*
X61722000Y-49507013D01*
X61758285Y-49543298D01*
X61830857Y-49579584D01*
X62048571Y-49579584D01*
X62121142Y-49543298D01*
X62157428Y-49507013D01*
X62193714Y-49434441D01*
X62193714Y-49325584D01*
X62193714Y-49906155D02*
X61685714Y-49906155D01*
X61830857Y-49906155D02*
X61758285Y-49942441D01*
X61722000Y-49978727D01*
X61685714Y-50051298D01*
X61685714Y-50123870D01*
X62193714Y-51067298D02*
X62157428Y-50994727D01*
X62084857Y-50958441D01*
X61431714Y-50958441D01*
X62193714Y-51684155D02*
X61794571Y-51684155D01*
X61722000Y-51647870D01*
X61685714Y-51575298D01*
X61685714Y-51430155D01*
X61722000Y-51357584D01*
X62157428Y-51684155D02*
X62193714Y-51611584D01*
X62193714Y-51430155D01*
X62157428Y-51357584D01*
X62084857Y-51321298D01*
X62012285Y-51321298D01*
X61939714Y-51357584D01*
X61903428Y-51430155D01*
X61903428Y-51611584D01*
X61867142Y-51684155D01*
X61685714Y-51938155D02*
X61685714Y-52228441D01*
X61431714Y-52047013D02*
X62084857Y-52047013D01*
X62157428Y-52083298D01*
X62193714Y-52155870D01*
X62193714Y-52228441D01*
X62157428Y-52772727D02*
X62193714Y-52700155D01*
X62193714Y-52555013D01*
X62157428Y-52482441D01*
X62084857Y-52446155D01*
X61794571Y-52446155D01*
X61722000Y-52482441D01*
X61685714Y-52555013D01*
X61685714Y-52700155D01*
X61722000Y-52772727D01*
X61794571Y-52809013D01*
X61867142Y-52809013D01*
X61939714Y-52446155D01*
X62193714Y-53135584D02*
X61685714Y-53135584D01*
X61830857Y-53135584D02*
X61758285Y-53171870D01*
X61722000Y-53208155D01*
X61685714Y-53280727D01*
X61685714Y-53353298D01*
X62912534Y-34013013D02*
X63529391Y-34013013D01*
X63601962Y-33976727D01*
X63638248Y-33940441D01*
X63674534Y-33867870D01*
X63674534Y-33759013D01*
X63638248Y-33686441D01*
X63384248Y-34013013D02*
X63420534Y-33940441D01*
X63420534Y-33795298D01*
X63384248Y-33722727D01*
X63347962Y-33686441D01*
X63275391Y-33650155D01*
X63057677Y-33650155D01*
X62985105Y-33686441D01*
X62948820Y-33722727D01*
X62912534Y-33795298D01*
X62912534Y-33940441D01*
X62948820Y-34013013D01*
X63420534Y-34375870D02*
X62912534Y-34375870D01*
X62658534Y-34375870D02*
X62694820Y-34339584D01*
X62731105Y-34375870D01*
X62694820Y-34412155D01*
X62658534Y-34375870D01*
X62731105Y-34375870D01*
X62912534Y-34629870D02*
X62912534Y-34920155D01*
X62658534Y-34738727D02*
X63311677Y-34738727D01*
X63384248Y-34775013D01*
X63420534Y-34847584D01*
X63420534Y-34920155D01*
X63420534Y-35174155D02*
X62658534Y-35174155D01*
X63420534Y-35500727D02*
X63021391Y-35500727D01*
X62948820Y-35464441D01*
X62912534Y-35391870D01*
X62912534Y-35283013D01*
X62948820Y-35210441D01*
X62985105Y-35174155D01*
X62912534Y-36190155D02*
X63420534Y-36190155D01*
X62912534Y-35863584D02*
X63311677Y-35863584D01*
X63384248Y-35899870D01*
X63420534Y-35972441D01*
X63420534Y-36081298D01*
X63384248Y-36153870D01*
X63347962Y-36190155D01*
X63420534Y-36553013D02*
X62658534Y-36553013D01*
X62948820Y-36553013D02*
X62912534Y-36625584D01*
X62912534Y-36770727D01*
X62948820Y-36843298D01*
X62985105Y-36879584D01*
X63057677Y-36915870D01*
X63275391Y-36915870D01*
X63347962Y-36879584D01*
X63384248Y-36843298D01*
X63420534Y-36770727D01*
X63420534Y-36625584D01*
X63384248Y-36553013D01*
X63347962Y-37242441D02*
X63384248Y-37278727D01*
X63420534Y-37242441D01*
X63384248Y-37206155D01*
X63347962Y-37242441D01*
X63420534Y-37242441D01*
X63384248Y-37931870D02*
X63420534Y-37859298D01*
X63420534Y-37714155D01*
X63384248Y-37641584D01*
X63347962Y-37605298D01*
X63275391Y-37569013D01*
X63057677Y-37569013D01*
X62985105Y-37605298D01*
X62948820Y-37641584D01*
X62912534Y-37714155D01*
X62912534Y-37859298D01*
X62948820Y-37931870D01*
X63420534Y-38367298D02*
X63384248Y-38294727D01*
X63347962Y-38258441D01*
X63275391Y-38222155D01*
X63057677Y-38222155D01*
X62985105Y-38258441D01*
X62948820Y-38294727D01*
X62912534Y-38367298D01*
X62912534Y-38476155D01*
X62948820Y-38548727D01*
X62985105Y-38585013D01*
X63057677Y-38621298D01*
X63275391Y-38621298D01*
X63347962Y-38585013D01*
X63384248Y-38548727D01*
X63420534Y-38476155D01*
X63420534Y-38367298D01*
X63420534Y-38947870D02*
X62912534Y-38947870D01*
X62985105Y-38947870D02*
X62948820Y-38984155D01*
X62912534Y-39056727D01*
X62912534Y-39165584D01*
X62948820Y-39238155D01*
X63021391Y-39274441D01*
X63420534Y-39274441D01*
X63021391Y-39274441D02*
X62948820Y-39310727D01*
X62912534Y-39383298D01*
X62912534Y-39492155D01*
X62948820Y-39564727D01*
X63021391Y-39601013D01*
X63420534Y-39601013D01*
X62622248Y-40508155D02*
X63601962Y-39855013D01*
X62658534Y-40653298D02*
X62658534Y-41088727D01*
X63420534Y-40871013D02*
X62658534Y-40871013D01*
X63420534Y-41342727D02*
X62658534Y-41342727D01*
X63420534Y-41669298D02*
X63021391Y-41669298D01*
X62948820Y-41633013D01*
X62912534Y-41560441D01*
X62912534Y-41451584D01*
X62948820Y-41379013D01*
X62985105Y-41342727D01*
X63384248Y-42322441D02*
X63420534Y-42249870D01*
X63420534Y-42104727D01*
X63384248Y-42032155D01*
X63311677Y-41995870D01*
X63021391Y-41995870D01*
X62948820Y-42032155D01*
X62912534Y-42104727D01*
X62912534Y-42249870D01*
X62948820Y-42322441D01*
X63021391Y-42358727D01*
X63093962Y-42358727D01*
X63166534Y-41995870D01*
X63021391Y-42939298D02*
X63057677Y-43048155D01*
X63093962Y-43084441D01*
X63166534Y-43120727D01*
X63275391Y-43120727D01*
X63347962Y-43084441D01*
X63384248Y-43048155D01*
X63420534Y-42975584D01*
X63420534Y-42685298D01*
X62658534Y-42685298D01*
X62658534Y-42939298D01*
X62694820Y-43011870D01*
X62731105Y-43048155D01*
X62803677Y-43084441D01*
X62876248Y-43084441D01*
X62948820Y-43048155D01*
X62985105Y-43011870D01*
X63021391Y-42939298D01*
X63021391Y-42685298D01*
X62912534Y-43773870D02*
X63420534Y-43773870D01*
X62912534Y-43447298D02*
X63311677Y-43447298D01*
X63384248Y-43483584D01*
X63420534Y-43556155D01*
X63420534Y-43665013D01*
X63384248Y-43737584D01*
X63347962Y-43773870D01*
X62912534Y-44027870D02*
X62912534Y-44318155D01*
X62658534Y-44136727D02*
X63311677Y-44136727D01*
X63384248Y-44173013D01*
X63420534Y-44245584D01*
X63420534Y-44318155D01*
X63420534Y-44681013D02*
X63384248Y-44608441D01*
X63311677Y-44572155D01*
X62658534Y-44572155D01*
X63420534Y-45297870D02*
X63021391Y-45297870D01*
X62948820Y-45261584D01*
X62912534Y-45189013D01*
X62912534Y-45043870D01*
X62948820Y-44971298D01*
X63384248Y-45297870D02*
X63420534Y-45225298D01*
X63420534Y-45043870D01*
X63384248Y-44971298D01*
X63311677Y-44935013D01*
X63239105Y-44935013D01*
X63166534Y-44971298D01*
X63130248Y-45043870D01*
X63130248Y-45225298D01*
X63093962Y-45297870D01*
X63420534Y-45660727D02*
X62658534Y-45660727D01*
X63420534Y-45987298D02*
X63021391Y-45987298D01*
X62948820Y-45951013D01*
X62912534Y-45878441D01*
X62912534Y-45769584D01*
X62948820Y-45697013D01*
X62985105Y-45660727D01*
X62622248Y-46894441D02*
X63601962Y-46241298D01*
X63384248Y-47112155D02*
X63420534Y-47184727D01*
X63420534Y-47329870D01*
X63384248Y-47402441D01*
X63311677Y-47438727D01*
X63275391Y-47438727D01*
X63202820Y-47402441D01*
X63166534Y-47329870D01*
X63166534Y-47221013D01*
X63130248Y-47148441D01*
X63057677Y-47112155D01*
X63021391Y-47112155D01*
X62948820Y-47148441D01*
X62912534Y-47221013D01*
X62912534Y-47329870D01*
X62948820Y-47402441D01*
X63420534Y-47874155D02*
X63384248Y-47801584D01*
X63311677Y-47765298D01*
X62658534Y-47765298D01*
X63420534Y-48164441D02*
X62912534Y-48164441D01*
X62658534Y-48164441D02*
X62694820Y-48128155D01*
X62731105Y-48164441D01*
X62694820Y-48200727D01*
X62658534Y-48164441D01*
X62731105Y-48164441D01*
X63420534Y-48527298D02*
X62912534Y-48527298D01*
X62985105Y-48527298D02*
X62948820Y-48563584D01*
X62912534Y-48636155D01*
X62912534Y-48745013D01*
X62948820Y-48817584D01*
X63021391Y-48853870D01*
X63420534Y-48853870D01*
X63021391Y-48853870D02*
X62948820Y-48890155D01*
X62912534Y-48962727D01*
X62912534Y-49071584D01*
X62948820Y-49144155D01*
X63021391Y-49180441D01*
X63420534Y-49180441D01*
X63384248Y-49833584D02*
X63420534Y-49761013D01*
X63420534Y-49615870D01*
X63384248Y-49543298D01*
X63311677Y-49507013D01*
X63021391Y-49507013D01*
X62948820Y-49543298D01*
X62912534Y-49615870D01*
X62912534Y-49761013D01*
X62948820Y-49833584D01*
X63021391Y-49869870D01*
X63093962Y-49869870D01*
X63166534Y-49507013D01*
X62912534Y-50123870D02*
X63420534Y-50305298D01*
X62912534Y-50486727D01*
X63420534Y-50777013D02*
X62912534Y-50777013D01*
X63057677Y-50777013D02*
X62985105Y-50813298D01*
X62948820Y-50849584D01*
X62912534Y-50922155D01*
X62912534Y-50994727D01*
X63493105Y-51067298D02*
X63493105Y-51647870D01*
X62912534Y-51829298D02*
X63674534Y-51829298D01*
X62948820Y-51829298D02*
X62912534Y-51901870D01*
X62912534Y-52047013D01*
X62948820Y-52119584D01*
X62985105Y-52155870D01*
X63057677Y-52192155D01*
X63275391Y-52192155D01*
X63347962Y-52155870D01*
X63384248Y-52119584D01*
X63420534Y-52047013D01*
X63420534Y-51901870D01*
X63384248Y-51829298D01*
X63384248Y-52845298D02*
X63420534Y-52772727D01*
X63420534Y-52627584D01*
X63384248Y-52555013D01*
X63347962Y-52518727D01*
X63275391Y-52482441D01*
X63057677Y-52482441D01*
X62985105Y-52518727D01*
X62948820Y-52555013D01*
X62912534Y-52627584D01*
X62912534Y-52772727D01*
X62948820Y-52845298D01*
X63420534Y-53171870D02*
X62658534Y-53171870D01*
X62948820Y-53171870D02*
X62912534Y-53244441D01*
X62912534Y-53389584D01*
X62948820Y-53462155D01*
X62985105Y-53498441D01*
X63057677Y-53534727D01*
X63275391Y-53534727D01*
X63347962Y-53498441D01*
X63384248Y-53462155D01*
X63420534Y-53389584D01*
X63420534Y-53244441D01*
X63384248Y-53171870D01*
D10*
%TO.C,J3*%
X91268550Y-49332569D02*
X91159692Y-49368855D01*
X91123407Y-49405140D01*
X91087121Y-49477712D01*
X91087121Y-49586569D01*
X91123407Y-49659140D01*
X91159692Y-49695426D01*
X91232264Y-49731712D01*
X91522550Y-49731712D01*
X91522550Y-48969712D01*
X91268550Y-48969712D01*
X91195978Y-49005998D01*
X91159692Y-49042283D01*
X91123407Y-49114855D01*
X91123407Y-49187426D01*
X91159692Y-49259998D01*
X91195978Y-49296283D01*
X91268550Y-49332569D01*
X91522550Y-49332569D01*
X90760550Y-49441426D02*
X90179978Y-49441426D01*
X90470264Y-49731712D02*
X90470264Y-49151140D01*
X91740264Y-46990000D02*
X91812835Y-46953714D01*
X91921692Y-46953714D01*
X92030550Y-46990000D01*
X92103121Y-47062571D01*
X92139407Y-47135142D01*
X92175692Y-47280285D01*
X92175692Y-47389142D01*
X92139407Y-47534285D01*
X92103121Y-47606857D01*
X92030550Y-47679428D01*
X91921692Y-47715714D01*
X91849121Y-47715714D01*
X91740264Y-47679428D01*
X91703978Y-47643142D01*
X91703978Y-47389142D01*
X91849121Y-47389142D01*
X91377407Y-47715714D02*
X91377407Y-46953714D01*
X90941978Y-47715714D01*
X90941978Y-46953714D01*
X90579121Y-47715714D02*
X90579121Y-46953714D01*
X90397692Y-46953714D01*
X90288835Y-46990000D01*
X90216264Y-47062571D01*
X90179978Y-47135142D01*
X90143692Y-47280285D01*
X90143692Y-47389142D01*
X90179978Y-47534285D01*
X90216264Y-47606857D01*
X90288835Y-47679428D01*
X90397692Y-47715714D01*
X90579121Y-47715714D01*
D13*
%TO.C,JP4*%
X65946261Y-53388380D02*
X66581261Y-53600047D01*
X65946261Y-53811714D01*
X66520785Y-54386238D02*
X66551023Y-54356000D01*
X66581261Y-54265285D01*
X66581261Y-54204809D01*
X66551023Y-54114095D01*
X66490547Y-54053619D01*
X66430071Y-54023380D01*
X66309119Y-53993142D01*
X66218404Y-53993142D01*
X66097452Y-54023380D01*
X66036976Y-54053619D01*
X65976500Y-54114095D01*
X65946261Y-54204809D01*
X65946261Y-54265285D01*
X65976500Y-54356000D01*
X66006738Y-54386238D01*
X66520785Y-55021238D02*
X66551023Y-54991000D01*
X66581261Y-54900285D01*
X66581261Y-54839809D01*
X66551023Y-54749095D01*
X66490547Y-54688619D01*
X66430071Y-54658380D01*
X66309119Y-54628142D01*
X66218404Y-54628142D01*
X66097452Y-54658380D01*
X66036976Y-54688619D01*
X65976500Y-54749095D01*
X65946261Y-54839809D01*
X65946261Y-54900285D01*
X65976500Y-54991000D01*
X66006738Y-55021238D01*
X66641738Y-55142190D02*
X66641738Y-55626000D01*
X65976500Y-56109809D02*
X65946261Y-56049333D01*
X65946261Y-55958619D01*
X65976500Y-55867904D01*
X66036976Y-55807428D01*
X66097452Y-55777190D01*
X66218404Y-55746952D01*
X66309119Y-55746952D01*
X66430071Y-55777190D01*
X66490547Y-55807428D01*
X66551023Y-55867904D01*
X66581261Y-55958619D01*
X66581261Y-56019095D01*
X66551023Y-56109809D01*
X66520785Y-56140047D01*
X66309119Y-56140047D01*
X66309119Y-56019095D01*
X66248642Y-56623857D02*
X66278880Y-56714571D01*
X66309119Y-56744809D01*
X66369595Y-56775047D01*
X66460309Y-56775047D01*
X66520785Y-56744809D01*
X66551023Y-56714571D01*
X66581261Y-56654095D01*
X66581261Y-56412190D01*
X65946261Y-56412190D01*
X65946261Y-56623857D01*
X65976500Y-56684333D01*
X66006738Y-56714571D01*
X66067214Y-56744809D01*
X66127690Y-56744809D01*
X66188166Y-56714571D01*
X66218404Y-56684333D01*
X66248642Y-56623857D01*
X66248642Y-56412190D01*
X66581261Y-57047190D02*
X65946261Y-57047190D01*
X66581261Y-57349571D02*
X65946261Y-57349571D01*
X66399833Y-57561238D01*
X65946261Y-57772904D01*
X66581261Y-57772904D01*
%TO.C,JP1*%
X57957357Y-52133500D02*
X57957357Y-52617309D01*
X58199261Y-52375404D02*
X57715452Y-52375404D01*
X58017833Y-52889452D02*
X58017833Y-53191833D01*
X58199261Y-52828976D02*
X57564261Y-53040642D01*
X58199261Y-53252309D01*
X58199261Y-53463976D02*
X57564261Y-53463976D01*
X57564261Y-53615166D01*
X57594500Y-53705880D01*
X57654976Y-53766357D01*
X57715452Y-53796595D01*
X57836404Y-53826833D01*
X57927119Y-53826833D01*
X58048071Y-53796595D01*
X58108547Y-53766357D01*
X58169023Y-53705880D01*
X58199261Y-53615166D01*
X58199261Y-53463976D01*
X57564261Y-54219928D02*
X57564261Y-54280404D01*
X57594500Y-54340880D01*
X57624738Y-54371119D01*
X57685214Y-54401357D01*
X57806166Y-54431595D01*
X57957357Y-54431595D01*
X58078309Y-54401357D01*
X58138785Y-54371119D01*
X58169023Y-54340880D01*
X58199261Y-54280404D01*
X58199261Y-54219928D01*
X58169023Y-54159452D01*
X58138785Y-54129214D01*
X58078309Y-54098976D01*
X57957357Y-54068738D01*
X57806166Y-54068738D01*
X57685214Y-54098976D01*
X57624738Y-54129214D01*
X57594500Y-54159452D01*
X57564261Y-54219928D01*
X58259738Y-54552547D02*
X58259738Y-55036357D01*
X57594500Y-55520166D02*
X57564261Y-55459690D01*
X57564261Y-55368976D01*
X57594500Y-55278261D01*
X57654976Y-55217785D01*
X57715452Y-55187547D01*
X57836404Y-55157309D01*
X57927119Y-55157309D01*
X58048071Y-55187547D01*
X58108547Y-55217785D01*
X58169023Y-55278261D01*
X58199261Y-55368976D01*
X58199261Y-55429452D01*
X58169023Y-55520166D01*
X58138785Y-55550404D01*
X57927119Y-55550404D01*
X57927119Y-55429452D01*
X58199261Y-55822547D02*
X57564261Y-55822547D01*
X57534023Y-56578500D02*
X58350452Y-56034214D01*
X57594500Y-57122785D02*
X57564261Y-57062309D01*
X57564261Y-56971595D01*
X57594500Y-56880880D01*
X57654976Y-56820404D01*
X57715452Y-56790166D01*
X57836404Y-56759928D01*
X57927119Y-56759928D01*
X58048071Y-56790166D01*
X58108547Y-56820404D01*
X58169023Y-56880880D01*
X58199261Y-56971595D01*
X58199261Y-57032071D01*
X58169023Y-57122785D01*
X58138785Y-57153023D01*
X57927119Y-57153023D01*
X57927119Y-57032071D01*
X58199261Y-57425166D02*
X57564261Y-57425166D01*
X58017833Y-57636833D01*
X57564261Y-57848500D01*
X58199261Y-57848500D01*
%TO.C,JP3*%
X56802261Y-57860595D02*
X56167261Y-57860595D01*
X56802261Y-58162976D02*
X56167261Y-58162976D01*
X56802261Y-58525833D01*
X56167261Y-58525833D01*
X56167261Y-58737500D02*
X56167261Y-59100357D01*
X56802261Y-58918928D02*
X56167261Y-58918928D01*
X56862738Y-59160833D02*
X56862738Y-59644642D01*
X56197500Y-60128452D02*
X56167261Y-60067976D01*
X56167261Y-59977261D01*
X56197500Y-59886547D01*
X56257976Y-59826071D01*
X56318452Y-59795833D01*
X56439404Y-59765595D01*
X56530119Y-59765595D01*
X56651071Y-59795833D01*
X56711547Y-59826071D01*
X56772023Y-59886547D01*
X56802261Y-59977261D01*
X56802261Y-60037738D01*
X56772023Y-60128452D01*
X56741785Y-60158690D01*
X56530119Y-60158690D01*
X56530119Y-60037738D01*
X56469642Y-60642500D02*
X56499880Y-60733214D01*
X56530119Y-60763452D01*
X56590595Y-60793690D01*
X56681309Y-60793690D01*
X56741785Y-60763452D01*
X56772023Y-60733214D01*
X56802261Y-60672738D01*
X56802261Y-60430833D01*
X56167261Y-60430833D01*
X56167261Y-60642500D01*
X56197500Y-60702976D01*
X56227738Y-60733214D01*
X56288214Y-60763452D01*
X56348690Y-60763452D01*
X56409166Y-60733214D01*
X56439404Y-60702976D01*
X56469642Y-60642500D01*
X56469642Y-60430833D01*
X56137023Y-61519404D02*
X56953452Y-60975119D01*
X56197500Y-62063690D02*
X56167261Y-62003214D01*
X56167261Y-61912500D01*
X56197500Y-61821785D01*
X56257976Y-61761309D01*
X56318452Y-61731071D01*
X56439404Y-61700833D01*
X56530119Y-61700833D01*
X56651071Y-61731071D01*
X56711547Y-61761309D01*
X56772023Y-61821785D01*
X56802261Y-61912500D01*
X56802261Y-61972976D01*
X56772023Y-62063690D01*
X56741785Y-62093928D01*
X56530119Y-62093928D01*
X56530119Y-61972976D01*
X56802261Y-62366071D02*
X56167261Y-62366071D01*
X56620833Y-62577738D01*
X56167261Y-62789404D01*
X56802261Y-62789404D01*
%TO.C,JP2*%
X66121642Y-63533261D02*
X66121642Y-62898261D01*
X65819261Y-63533261D02*
X65819261Y-62898261D01*
X65456404Y-63533261D01*
X65456404Y-62898261D01*
X65244738Y-62898261D02*
X64881880Y-62898261D01*
X65063309Y-63533261D02*
X65063309Y-62898261D01*
X64821404Y-63593738D02*
X64337595Y-63593738D01*
X64216642Y-63351833D02*
X63914261Y-63351833D01*
X64277119Y-63533261D02*
X64065452Y-62898261D01*
X63853785Y-63533261D01*
X63430452Y-63200642D02*
X63339738Y-63230880D01*
X63309500Y-63261119D01*
X63279261Y-63321595D01*
X63279261Y-63412309D01*
X63309500Y-63472785D01*
X63339738Y-63503023D01*
X63400214Y-63533261D01*
X63642119Y-63533261D01*
X63642119Y-62898261D01*
X63430452Y-62898261D01*
X63369976Y-62928500D01*
X63339738Y-62958738D01*
X63309500Y-63019214D01*
X63309500Y-63079690D01*
X63339738Y-63140166D01*
X63369976Y-63170404D01*
X63430452Y-63200642D01*
X63642119Y-63200642D01*
X62674500Y-62928500D02*
X62734976Y-62898261D01*
X62825690Y-62898261D01*
X62916404Y-62928500D01*
X62976880Y-62988976D01*
X63007119Y-63049452D01*
X63037357Y-63170404D01*
X63037357Y-63261119D01*
X63007119Y-63382071D01*
X62976880Y-63442547D01*
X62916404Y-63503023D01*
X62825690Y-63533261D01*
X62765214Y-63533261D01*
X62674500Y-63503023D01*
X62644261Y-63472785D01*
X62644261Y-63261119D01*
X62765214Y-63261119D01*
X62372119Y-63533261D02*
X62372119Y-62898261D01*
X61616166Y-62868023D02*
X62160452Y-63684452D01*
X61404500Y-63291357D02*
X60920690Y-63291357D01*
X60648547Y-63351833D02*
X60346166Y-63351833D01*
X60709023Y-63533261D02*
X60497357Y-62898261D01*
X60285690Y-63533261D01*
X60074023Y-63533261D02*
X60074023Y-62898261D01*
X59922833Y-62898261D01*
X59832119Y-62928500D01*
X59771642Y-62988976D01*
X59741404Y-63049452D01*
X59711166Y-63170404D01*
X59711166Y-63261119D01*
X59741404Y-63382071D01*
X59771642Y-63442547D01*
X59832119Y-63503023D01*
X59922833Y-63533261D01*
X60074023Y-63533261D01*
X59318071Y-62898261D02*
X59197119Y-62898261D01*
X59136642Y-62928500D01*
X59076166Y-62988976D01*
X59045928Y-63109928D01*
X59045928Y-63321595D01*
X59076166Y-63442547D01*
X59136642Y-63503023D01*
X59197119Y-63533261D01*
X59318071Y-63533261D01*
X59378547Y-63503023D01*
X59439023Y-63442547D01*
X59469261Y-63321595D01*
X59469261Y-63109928D01*
X59439023Y-62988976D01*
X59378547Y-62928500D01*
X59318071Y-62898261D01*
X58924976Y-63593738D02*
X58441166Y-63593738D01*
X57957357Y-62928500D02*
X58017833Y-62898261D01*
X58108547Y-62898261D01*
X58199261Y-62928500D01*
X58259738Y-62988976D01*
X58289976Y-63049452D01*
X58320214Y-63170404D01*
X58320214Y-63261119D01*
X58289976Y-63382071D01*
X58259738Y-63442547D01*
X58199261Y-63503023D01*
X58108547Y-63533261D01*
X58048071Y-63533261D01*
X57957357Y-63503023D01*
X57927119Y-63472785D01*
X57927119Y-63261119D01*
X58048071Y-63261119D01*
X57443309Y-63200642D02*
X57352595Y-63230880D01*
X57322357Y-63261119D01*
X57292119Y-63321595D01*
X57292119Y-63412309D01*
X57322357Y-63472785D01*
X57352595Y-63503023D01*
X57413071Y-63533261D01*
X57654976Y-63533261D01*
X57654976Y-62898261D01*
X57443309Y-62898261D01*
X57382833Y-62928500D01*
X57352595Y-62958738D01*
X57322357Y-63019214D01*
X57322357Y-63079690D01*
X57352595Y-63140166D01*
X57382833Y-63170404D01*
X57443309Y-63200642D01*
X57654976Y-63200642D01*
D14*
%TO.C,JP4*%
X63611000Y-54926000D02*
G75*
G03*
X62911000Y-54226000I-699999J1D01*
G01*
X61611000Y-56326000D02*
G75*
G03*
X62311000Y-57026000I699999J-1D01*
G01*
X62311000Y-54226000D02*
G75*
G03*
X61611000Y-54926000I-1J-699999D01*
G01*
X62911000Y-57026000D02*
G75*
G03*
X63611000Y-56326000I1J699999D01*
G01*
X62311000Y-57026000D02*
X62911000Y-57026000D01*
X61611000Y-54926000D02*
X61611000Y-56326000D01*
X63611000Y-56326000D02*
X63611000Y-54926000D01*
X62911000Y-54226000D02*
X62311000Y-54226000D01*
%TO.C,JP1*%
X60563000Y-57549000D02*
X60563000Y-53449000D01*
X60763000Y-54199000D02*
X61063000Y-54499000D01*
X58563000Y-57549000D02*
X60563000Y-57549000D01*
X60763000Y-54199000D02*
X61063000Y-53899000D01*
X61063000Y-53899000D02*
X61063000Y-54499000D01*
X60563000Y-53449000D02*
X58563000Y-53449000D01*
X58563000Y-53449000D02*
X58563000Y-57549000D01*
%TO.C,G\u002A\u002A\u002A*%
G36*
X82877929Y-45618380D02*
G01*
X83041069Y-45619544D01*
X83242833Y-45643205D01*
X83369997Y-45664571D01*
X83750789Y-45774868D01*
X84056202Y-45944112D01*
X84286564Y-46172527D01*
X84442201Y-46460336D01*
X84470865Y-46562287D01*
X84490024Y-46814561D01*
X84455397Y-47081691D01*
X84370424Y-47322355D01*
X84354223Y-47352251D01*
X84206361Y-47551826D01*
X83995992Y-47757315D01*
X83747495Y-47947293D01*
X83485248Y-48100333D01*
X83307464Y-48175977D01*
X82941803Y-48273741D01*
X82568580Y-48306419D01*
X82212678Y-48272886D01*
X81898978Y-48172017D01*
X81894126Y-48169694D01*
X81666200Y-48012463D01*
X81463545Y-47784849D01*
X81300740Y-47511248D01*
X81192365Y-47216059D01*
X81153000Y-46923680D01*
X81154848Y-46836278D01*
X81165445Y-46753146D01*
X81501020Y-46753146D01*
X81540854Y-46883840D01*
X81573372Y-46958493D01*
X81702398Y-47130019D01*
X81885094Y-47226328D01*
X82130151Y-47252864D01*
X82183150Y-47250211D01*
X82490265Y-47182091D01*
X82782604Y-47032099D01*
X83037079Y-46811472D01*
X83131132Y-46696689D01*
X83195999Y-46570262D01*
X83213755Y-46433319D01*
X83200367Y-46327308D01*
X83112037Y-46154940D01*
X82955273Y-46026877D01*
X82746706Y-45959973D01*
X82647755Y-45953532D01*
X82392081Y-45985033D01*
X82128777Y-46072313D01*
X81883674Y-46202773D01*
X81682604Y-46363818D01*
X81551399Y-46542852D01*
X81507353Y-46651172D01*
X81501020Y-46753146D01*
X81165445Y-46753146D01*
X81170071Y-46716852D01*
X81209337Y-46600092D01*
X81282871Y-46458876D01*
X81400896Y-46266084D01*
X81555368Y-46027261D01*
X81692359Y-45833250D01*
X81795177Y-45714296D01*
X81869417Y-45665247D01*
X81920673Y-45680951D01*
X81954540Y-45756258D01*
X81987406Y-45819948D01*
X82057884Y-45820168D01*
X82069389Y-45815509D01*
X82168199Y-45783525D01*
X82325229Y-45738583D01*
X82512165Y-45688865D01*
X82647755Y-45656914D01*
X82708951Y-45642494D01*
X82877929Y-45618380D01*
G37*
G36*
X86262791Y-35070608D02*
G01*
X86644835Y-35117845D01*
X87095642Y-35192903D01*
X87364841Y-35249229D01*
X87610118Y-35324011D01*
X87780687Y-35410914D01*
X87888055Y-35514609D01*
X87896381Y-35526685D01*
X87945575Y-35617610D01*
X87955115Y-35702525D01*
X87917318Y-35793755D01*
X87824503Y-35903625D01*
X87668989Y-36044463D01*
X87443095Y-36228592D01*
X87440342Y-36230784D01*
X87217005Y-36409219D01*
X86989158Y-36592316D01*
X86783349Y-36758683D01*
X86626125Y-36886928D01*
X86484032Y-36999864D01*
X86374798Y-37072803D01*
X86304071Y-37095959D01*
X86255320Y-37077844D01*
X86236942Y-37064091D01*
X86140251Y-37038436D01*
X86074709Y-37087541D01*
X86068294Y-37194029D01*
X86069520Y-37268596D01*
X86022171Y-37352806D01*
X85943105Y-37390624D01*
X85861122Y-37359102D01*
X85797396Y-37329671D01*
X85740658Y-37362297D01*
X85737897Y-37442479D01*
X85741624Y-37484767D01*
X85694267Y-37564480D01*
X85603255Y-37619949D01*
X85502151Y-37625163D01*
X85450593Y-37620951D01*
X85418283Y-37672991D01*
X85413170Y-37695193D01*
X85355746Y-37780301D01*
X85255052Y-37876310D01*
X85091821Y-38006555D01*
X85482694Y-38170336D01*
X85533105Y-38191448D01*
X85781671Y-38295341D01*
X86055837Y-38409686D01*
X86304887Y-38513327D01*
X86428416Y-38567022D01*
X86650923Y-38670126D01*
X86912774Y-38796596D01*
X87195967Y-38937252D01*
X87482496Y-39082910D01*
X87754361Y-39224387D01*
X87993555Y-39352501D01*
X88182077Y-39458069D01*
X88301923Y-39531909D01*
X88393639Y-39588869D01*
X88548943Y-39675633D01*
X88720921Y-39764694D01*
X88955395Y-39896010D01*
X89157579Y-40041582D01*
X89298186Y-40181851D01*
X89362499Y-40304435D01*
X89376315Y-40371818D01*
X89389493Y-40425094D01*
X89387780Y-40466903D01*
X89329397Y-40553680D01*
X89223251Y-40646136D01*
X89092392Y-40721291D01*
X88979908Y-40761593D01*
X88784339Y-40808384D01*
X88573769Y-40839396D01*
X88375024Y-40852112D01*
X88214927Y-40844011D01*
X88120302Y-40812576D01*
X88111583Y-40805478D01*
X88047909Y-40777308D01*
X87999189Y-40831566D01*
X87955396Y-40887605D01*
X87869943Y-40905043D01*
X87757876Y-40833401D01*
X87697371Y-40786866D01*
X87641034Y-40789842D01*
X87559315Y-40857363D01*
X87452186Y-40933438D01*
X87339607Y-40958403D01*
X87261939Y-40910843D01*
X87241074Y-40889971D01*
X87175243Y-40906554D01*
X87161729Y-40915602D01*
X87063927Y-40954127D01*
X86927906Y-40987062D01*
X86776315Y-41018489D01*
X86700168Y-41051812D01*
X86695228Y-41098094D01*
X86749283Y-41169829D01*
X86764618Y-41187557D01*
X86880180Y-41351129D01*
X87011875Y-41578898D01*
X87151763Y-41852426D01*
X87291908Y-42153271D01*
X87424372Y-42462994D01*
X87541217Y-42763153D01*
X87634505Y-43035307D01*
X87696299Y-43261018D01*
X87718661Y-43421843D01*
X87719337Y-43445009D01*
X87744982Y-43607188D01*
X87796246Y-43770808D01*
X87804059Y-43789788D01*
X87879050Y-44000844D01*
X87943716Y-44229723D01*
X87989091Y-44441043D01*
X88006208Y-44599419D01*
X88007026Y-44624466D01*
X88019805Y-44756294D01*
X88044854Y-44940819D01*
X88078007Y-45146305D01*
X88081782Y-45168272D01*
X88119145Y-45419060D01*
X88150367Y-45683341D01*
X88169024Y-45907394D01*
X88169045Y-45907777D01*
X88183625Y-46137979D01*
X88203358Y-46405593D01*
X88223979Y-46652761D01*
X88238136Y-46897376D01*
X88226880Y-47125576D01*
X88184316Y-47347666D01*
X88172004Y-47399386D01*
X88129870Y-47609739D01*
X88088444Y-47858357D01*
X88055156Y-48101849D01*
X87979097Y-48663978D01*
X87832019Y-49460788D01*
X87646395Y-50186566D01*
X87625982Y-50255392D01*
X87510763Y-50639103D01*
X87407273Y-50968982D01*
X87309043Y-51258402D01*
X87209607Y-51520734D01*
X87102495Y-51769353D01*
X86981240Y-52017629D01*
X86839374Y-52278937D01*
X86670429Y-52566650D01*
X86467937Y-52894138D01*
X86225429Y-53274777D01*
X85936438Y-53721937D01*
X85834896Y-53880444D01*
X85754543Y-54014210D01*
X85717624Y-54093199D01*
X85718189Y-54130783D01*
X85750288Y-54140339D01*
X85764902Y-54133665D01*
X85817977Y-54066537D01*
X85878479Y-53950553D01*
X85900690Y-53903525D01*
X85966303Y-53793175D01*
X86020218Y-53738508D01*
X86057082Y-53734979D01*
X86153643Y-53772066D01*
X86242156Y-53844837D01*
X86280925Y-53923680D01*
X86260749Y-53972004D01*
X86175408Y-54072275D01*
X86039414Y-54197981D01*
X85870415Y-54334242D01*
X85686057Y-54466173D01*
X85503989Y-54578894D01*
X85356628Y-54664986D01*
X85203205Y-54761787D01*
X85098691Y-54835928D01*
X84979623Y-54932460D01*
X85139047Y-54931777D01*
X85155885Y-54931764D01*
X85253047Y-54942296D01*
X85296190Y-54991880D01*
X85313232Y-55108904D01*
X85313774Y-55116023D01*
X85308686Y-55291679D01*
X85278588Y-55465643D01*
X85269503Y-55500145D01*
X85247438Y-55609800D01*
X85247964Y-55663353D01*
X85266781Y-55667507D01*
X85306877Y-55615760D01*
X85346510Y-55508293D01*
X85377282Y-55370674D01*
X85390796Y-55228471D01*
X85393351Y-55130213D01*
X85406327Y-55043535D01*
X85442089Y-55016934D01*
X85514034Y-55028687D01*
X85565846Y-55041789D01*
X85627224Y-55066437D01*
X85661806Y-55113706D01*
X85682896Y-55207706D01*
X85703800Y-55372544D01*
X85724973Y-55512375D01*
X85749095Y-55583436D01*
X85774767Y-55565863D01*
X85776708Y-55561200D01*
X85795690Y-55452793D01*
X85792536Y-55314077D01*
X85785360Y-55208265D01*
X85806976Y-55166588D01*
X85871187Y-55175329D01*
X86002722Y-55234928D01*
X86170740Y-55352727D01*
X86335956Y-55503114D01*
X86478530Y-55665600D01*
X86578624Y-55819698D01*
X86616397Y-55944918D01*
X86616272Y-55947675D01*
X86568618Y-56011443D01*
X86447733Y-56089290D01*
X86272345Y-56172297D01*
X86061185Y-56251541D01*
X85832982Y-56318099D01*
X85724650Y-56343670D01*
X85518755Y-56387313D01*
X85300646Y-56428882D01*
X85091521Y-56464819D01*
X84912575Y-56491566D01*
X84785004Y-56505564D01*
X84730005Y-56503256D01*
X84728088Y-56495058D01*
X84732481Y-56416410D01*
X84749726Y-56274375D01*
X84777169Y-56092102D01*
X84802730Y-55929026D01*
X84831298Y-55711751D01*
X84839401Y-55574566D01*
X84827301Y-55508902D01*
X84795265Y-55506189D01*
X84762190Y-55565598D01*
X84747340Y-55675990D01*
X84745866Y-55711802D01*
X84726077Y-55870004D01*
X84687235Y-56089467D01*
X84634481Y-56347067D01*
X84572954Y-56619679D01*
X84507794Y-56884179D01*
X84444144Y-57117444D01*
X84387142Y-57296347D01*
X84325455Y-57448303D01*
X84232740Y-57650190D01*
X84121003Y-57877433D01*
X84000145Y-58111319D01*
X83880072Y-58333134D01*
X83770686Y-58524168D01*
X83681891Y-58665707D01*
X83623591Y-58739038D01*
X83616289Y-58745389D01*
X83586841Y-58794796D01*
X83597459Y-58872675D01*
X83650994Y-59006897D01*
X83656231Y-59019080D01*
X83717869Y-59216581D01*
X83768479Y-59471510D01*
X83803491Y-59748457D01*
X83818334Y-60012009D01*
X83808438Y-60226755D01*
X83796581Y-60310006D01*
X83684157Y-60818440D01*
X83505676Y-61270501D01*
X83252046Y-61685041D01*
X82914174Y-62080914D01*
X82833924Y-62161853D01*
X82610800Y-62367192D01*
X82405049Y-62520347D01*
X82189704Y-62642209D01*
X81981138Y-62733597D01*
X81719564Y-62823417D01*
X81454843Y-62892554D01*
X81205308Y-62937795D01*
X80989293Y-62955924D01*
X80825132Y-62943726D01*
X80731158Y-62897986D01*
X80705107Y-62814352D01*
X80725004Y-62646382D01*
X80740466Y-62576882D01*
X80776989Y-62405373D01*
X80821777Y-62189230D01*
X80868425Y-61959156D01*
X80898278Y-61821759D01*
X80985007Y-61485383D01*
X81092342Y-61126388D01*
X81208209Y-60783836D01*
X81320529Y-60496790D01*
X81326954Y-60481348D01*
X81332226Y-60428335D01*
X81268080Y-60436100D01*
X81159820Y-60466725D01*
X80925866Y-60520563D01*
X80656296Y-60572092D01*
X80383210Y-60615876D01*
X80138707Y-60646480D01*
X79954887Y-60658468D01*
X79805553Y-60663436D01*
X79606040Y-60680365D01*
X79451680Y-60704801D01*
X79351578Y-60720624D01*
X79186100Y-60699920D01*
X79081071Y-60611553D01*
X79044321Y-60460222D01*
X79058614Y-60332553D01*
X79069870Y-60283181D01*
X79276535Y-60283181D01*
X79304621Y-60322604D01*
X79345792Y-60312502D01*
X79425911Y-60252894D01*
X79463572Y-60219737D01*
X79587448Y-60142693D01*
X79766485Y-60049604D01*
X79978394Y-59950670D01*
X80200888Y-59856092D01*
X80411678Y-59776071D01*
X80588477Y-59720808D01*
X80800492Y-59675963D01*
X81085021Y-59645717D01*
X81337027Y-59652308D01*
X81528833Y-59696452D01*
X81598745Y-59733275D01*
X81710641Y-59839712D01*
X81763314Y-59963731D01*
X81741905Y-60078677D01*
X81677437Y-60201589D01*
X81592636Y-60401330D01*
X81499042Y-60651558D01*
X81401305Y-60936666D01*
X81304071Y-61241049D01*
X81211989Y-61549098D01*
X81129707Y-61845207D01*
X81061874Y-62113769D01*
X81013137Y-62339178D01*
X80988145Y-62505826D01*
X80991546Y-62598107D01*
X81017000Y-62619954D01*
X81109385Y-62610670D01*
X81253340Y-62552611D01*
X81436026Y-62454673D01*
X81644604Y-62325751D01*
X81866235Y-62174744D01*
X82088081Y-62010547D01*
X82297303Y-61842058D01*
X82481063Y-61678172D01*
X82626520Y-61527786D01*
X82720837Y-61399798D01*
X82764008Y-61321338D01*
X82817274Y-61205682D01*
X82812908Y-61166282D01*
X82749761Y-61202066D01*
X82626680Y-61311957D01*
X82536922Y-61395207D01*
X82367659Y-61537290D01*
X82231829Y-61630811D01*
X82144843Y-61664490D01*
X82135688Y-61660694D01*
X82144906Y-61607542D01*
X82200723Y-61505803D01*
X82291100Y-61373560D01*
X82404001Y-61228893D01*
X82527387Y-61089885D01*
X82542774Y-61073532D01*
X82700898Y-60876425D01*
X82849806Y-60645114D01*
X82969710Y-60413322D01*
X83040825Y-60214773D01*
X83051647Y-60141693D01*
X83034473Y-60088018D01*
X82988785Y-60112802D01*
X82930711Y-60215883D01*
X82896940Y-60279589D01*
X82826148Y-60383405D01*
X82738803Y-60495024D01*
X82649749Y-60597571D01*
X82573825Y-60674172D01*
X82525873Y-60707953D01*
X82520734Y-60682038D01*
X82552402Y-60580197D01*
X82590013Y-60442415D01*
X82596462Y-60420634D01*
X82647686Y-60295406D01*
X82730165Y-60126229D01*
X82829415Y-59943301D01*
X83032662Y-59587960D01*
X82974510Y-59224433D01*
X82972859Y-59214211D01*
X82934613Y-59012373D01*
X82890491Y-58828076D01*
X82849714Y-58700060D01*
X82826423Y-58638268D01*
X82808939Y-58520994D01*
X82859655Y-58465905D01*
X82983066Y-58465081D01*
X83061398Y-58469604D01*
X83121904Y-58442569D01*
X83180517Y-58364871D01*
X83257728Y-58218084D01*
X83321295Y-58084548D01*
X83520932Y-57572720D01*
X83690920Y-56978450D01*
X83832693Y-56296943D01*
X83972128Y-55506189D01*
X83869684Y-55425946D01*
X83767240Y-55345702D01*
X83900474Y-55312263D01*
X83939699Y-55300977D01*
X84011055Y-55251581D01*
X84019109Y-55156916D01*
X84005314Y-55099548D01*
X83944022Y-55030636D01*
X83932426Y-55025980D01*
X84901353Y-55025980D01*
X84907088Y-55082855D01*
X84921503Y-55090353D01*
X84939038Y-55050906D01*
X84935579Y-55025534D01*
X84907088Y-55018956D01*
X84901353Y-55025980D01*
X83932426Y-55025980D01*
X83812812Y-54977953D01*
X83708011Y-54942465D01*
X83669898Y-54912476D01*
X83706460Y-54884358D01*
X83783502Y-54867946D01*
X83948237Y-54879652D01*
X84136302Y-54932865D01*
X84184194Y-54943429D01*
X84220170Y-54921136D01*
X84198751Y-54883931D01*
X84105087Y-54822895D01*
X83959999Y-54761986D01*
X83788793Y-54711281D01*
X83616773Y-54680856D01*
X83500742Y-54670912D01*
X83398552Y-54678774D01*
X83325797Y-54724304D01*
X83244719Y-54821806D01*
X83228656Y-54843209D01*
X83169945Y-54936460D01*
X83136476Y-55036136D01*
X83121409Y-55172007D01*
X83117906Y-55373842D01*
X83117613Y-55435228D01*
X83084376Y-56075620D01*
X83000456Y-56747301D01*
X82872168Y-57409696D01*
X82705825Y-58022226D01*
X82634792Y-58241784D01*
X82578531Y-58386539D01*
X82524313Y-58462104D01*
X82457711Y-58479408D01*
X82364299Y-58449379D01*
X82229649Y-58382947D01*
X82053170Y-58305443D01*
X81845744Y-58251090D01*
X81591367Y-58224327D01*
X81545840Y-58221857D01*
X81359591Y-58218462D01*
X81206147Y-58234591D01*
X81045529Y-58277051D01*
X80837761Y-58352651D01*
X80652992Y-58431376D01*
X80310303Y-58618903D01*
X80015787Y-58835868D01*
X79793257Y-59066007D01*
X79789515Y-59070882D01*
X79686551Y-59225206D01*
X79582446Y-59414195D01*
X79483820Y-59620821D01*
X79397296Y-59828060D01*
X79329493Y-60018883D01*
X79287032Y-60176266D01*
X79276535Y-60283181D01*
X79069870Y-60283181D01*
X79105333Y-60127633D01*
X79176042Y-59886710D01*
X79261953Y-59637025D01*
X79354280Y-59405821D01*
X79444238Y-59220339D01*
X79496204Y-59137998D01*
X79626526Y-58964802D01*
X79790375Y-58772674D01*
X79964244Y-58590103D01*
X80157828Y-58407740D01*
X80332293Y-58267593D01*
X80505868Y-58160198D01*
X80708998Y-58064052D01*
X80819388Y-58017578D01*
X80960360Y-57964863D01*
X81088605Y-57931643D01*
X81231263Y-57913375D01*
X81415478Y-57905519D01*
X81668391Y-57903533D01*
X82255668Y-57902415D01*
X82303280Y-57758258D01*
X82312723Y-57729000D01*
X82365562Y-57544089D01*
X82418154Y-57330072D01*
X82466569Y-57107272D01*
X82506877Y-56896014D01*
X82535147Y-56716623D01*
X82547451Y-56589424D01*
X82539858Y-56534740D01*
X82528431Y-56531144D01*
X82437316Y-56518416D01*
X82270451Y-56502587D01*
X82042533Y-56484837D01*
X81768256Y-56466345D01*
X81462316Y-56448290D01*
X81315176Y-56440000D01*
X80930995Y-56415134D01*
X80625569Y-56387696D01*
X80386081Y-56354161D01*
X80199713Y-56311003D01*
X80053650Y-56254698D01*
X79935075Y-56181722D01*
X79831170Y-56088550D01*
X79729120Y-55971657D01*
X79664510Y-55887651D01*
X79562092Y-55709306D01*
X79525448Y-55534467D01*
X79533061Y-55477330D01*
X79773039Y-55477330D01*
X79779450Y-55571797D01*
X79801485Y-55694540D01*
X79849681Y-55774142D01*
X79939631Y-55845018D01*
X79944666Y-55848377D01*
X80012635Y-55887918D01*
X80092807Y-55920440D01*
X80197115Y-55947595D01*
X80337494Y-55971034D01*
X80525878Y-55992408D01*
X80774201Y-56013367D01*
X81094397Y-56035562D01*
X81498400Y-56060644D01*
X81782448Y-56076453D01*
X82037890Y-56088212D01*
X82246230Y-56095236D01*
X82391290Y-56096982D01*
X82456890Y-56092903D01*
X82461769Y-56084604D01*
X82417326Y-56041560D01*
X82308539Y-55973438D01*
X82151185Y-55890673D01*
X82140108Y-55885218D01*
X81942626Y-55779286D01*
X81833269Y-55699679D01*
X81808859Y-55644108D01*
X81809143Y-55602698D01*
X81741668Y-55578075D01*
X81619370Y-55561978D01*
X81422126Y-55511292D01*
X81182209Y-55433815D01*
X80922485Y-55337552D01*
X80665820Y-55230507D01*
X80435077Y-55120685D01*
X80308132Y-55057854D01*
X80134131Y-54981216D01*
X80000850Y-54934091D01*
X79929900Y-54924856D01*
X79895358Y-54944921D01*
X79821067Y-55056420D01*
X79778832Y-55239036D01*
X79773039Y-55477330D01*
X79533061Y-55477330D01*
X79551838Y-55336415D01*
X79638521Y-55088433D01*
X79751201Y-54814452D01*
X79649365Y-54747888D01*
X79648858Y-54747557D01*
X79519943Y-54678441D01*
X79391848Y-54652018D01*
X79235133Y-54667098D01*
X79020359Y-54722494D01*
X78969807Y-54737097D01*
X78684976Y-54803938D01*
X78444865Y-54833672D01*
X78263627Y-54825386D01*
X78155414Y-54778171D01*
X78073447Y-54641945D01*
X78052435Y-54484819D01*
X78101400Y-54484819D01*
X78120016Y-54580036D01*
X78203619Y-54649402D01*
X78232937Y-54651487D01*
X78333449Y-54614686D01*
X78457857Y-54532741D01*
X78556220Y-54461234D01*
X78650744Y-54420547D01*
X78724183Y-54435515D01*
X78795674Y-54465233D01*
X78860392Y-54453716D01*
X78861738Y-54379962D01*
X78828638Y-54321423D01*
X78746297Y-54219772D01*
X78639130Y-54107582D01*
X78528764Y-54005827D01*
X78436827Y-53935485D01*
X78384946Y-53917530D01*
X78370756Y-53932721D01*
X78325738Y-54019576D01*
X78277852Y-54149918D01*
X78259584Y-54203044D01*
X78200384Y-54333979D01*
X78143566Y-54413603D01*
X78101400Y-54484819D01*
X78052435Y-54484819D01*
X78047083Y-54444797D01*
X78076311Y-54178330D01*
X78096431Y-54049754D01*
X78107987Y-53913678D01*
X78101655Y-53838346D01*
X78064174Y-53789588D01*
X77972105Y-53693967D01*
X77849727Y-53579091D01*
X77625000Y-53377276D01*
X77316264Y-53428423D01*
X77067016Y-53451418D01*
X76797403Y-53421388D01*
X76588530Y-53327341D01*
X76446264Y-53172207D01*
X76376473Y-52958918D01*
X76376165Y-52956522D01*
X76376222Y-52946650D01*
X76480359Y-52946650D01*
X76593498Y-53040287D01*
X76747718Y-53122159D01*
X76895702Y-53112980D01*
X77024192Y-53012507D01*
X77029549Y-53005809D01*
X77103605Y-52937914D01*
X77150310Y-52940621D01*
X77161329Y-52955684D01*
X77216858Y-52990151D01*
X77257372Y-52976543D01*
X77341993Y-52924927D01*
X77354341Y-52915674D01*
X77389515Y-52876768D01*
X77383528Y-52828687D01*
X77327880Y-52751530D01*
X77214074Y-52625398D01*
X77106728Y-52504133D01*
X77002353Y-52374462D01*
X76940650Y-52283264D01*
X76931852Y-52267151D01*
X76865308Y-52188282D01*
X76813034Y-52190466D01*
X76791868Y-52274674D01*
X76772162Y-52359074D01*
X76715982Y-52499303D01*
X76636114Y-52660282D01*
X76480359Y-52946650D01*
X76376222Y-52946650D01*
X76377003Y-52812276D01*
X76416669Y-52631876D01*
X76500212Y-52392187D01*
X76526012Y-52324879D01*
X76588396Y-52156304D01*
X76631810Y-52030259D01*
X76648095Y-51970038D01*
X76640979Y-51948770D01*
X76589871Y-51865499D01*
X76505690Y-51752987D01*
X76363285Y-51575783D01*
X75800154Y-51562838D01*
X75596570Y-51555096D01*
X75366168Y-51539159D01*
X75176133Y-51518327D01*
X75054205Y-51495119D01*
X74975138Y-51463003D01*
X74820214Y-51360593D01*
X74680083Y-51225234D01*
X74578550Y-51081877D01*
X74539415Y-50955475D01*
X74540798Y-50933530D01*
X74687061Y-50933530D01*
X74695279Y-51038746D01*
X74762652Y-51101525D01*
X74900606Y-51128889D01*
X75120570Y-51127859D01*
X75133204Y-51127218D01*
X75318452Y-51111914D01*
X75472220Y-51089236D01*
X75562333Y-51063847D01*
X75583506Y-51054053D01*
X75666616Y-51053514D01*
X75766013Y-51125342D01*
X75780367Y-51138412D01*
X75852097Y-51188223D01*
X75881302Y-51180201D01*
X75879585Y-51164984D01*
X75833378Y-51097132D01*
X75799467Y-51068296D01*
X75797353Y-51008837D01*
X75881302Y-50963435D01*
X75936929Y-50944077D01*
X75965678Y-50904371D01*
X75946253Y-50827108D01*
X75878417Y-50689773D01*
X75864764Y-50662933D01*
X75810804Y-50534587D01*
X75787755Y-50440425D01*
X75777323Y-50368974D01*
X75740845Y-50248727D01*
X75706741Y-50150825D01*
X75668046Y-50006849D01*
X75637076Y-49916145D01*
X75597969Y-49875056D01*
X75579089Y-49877911D01*
X75532869Y-49934385D01*
X75530245Y-50041348D01*
X75573600Y-50169965D01*
X75621448Y-50300781D01*
X75618985Y-50401582D01*
X75573211Y-50444628D01*
X75499145Y-50417225D01*
X75411809Y-50306680D01*
X75404155Y-50293633D01*
X75333628Y-50201003D01*
X75274412Y-50162907D01*
X75248858Y-50172682D01*
X75167315Y-50241169D01*
X75058669Y-50357138D01*
X74940263Y-50499264D01*
X74829438Y-50646225D01*
X74743535Y-50776697D01*
X74699896Y-50869355D01*
X74687061Y-50933530D01*
X74540798Y-50933530D01*
X74542635Y-50904388D01*
X74601833Y-50696282D01*
X74729125Y-50452405D01*
X74916027Y-50187121D01*
X75154055Y-49914797D01*
X75415503Y-49643029D01*
X75336893Y-49446563D01*
X75319069Y-49399610D01*
X75275654Y-49258970D01*
X75258283Y-49157936D01*
X75234083Y-49081730D01*
X75155572Y-48993833D01*
X75126153Y-48975646D01*
X75004910Y-48912303D01*
X74824568Y-48825699D01*
X74605609Y-48725017D01*
X74368518Y-48619440D01*
X74133777Y-48518151D01*
X73921870Y-48430332D01*
X73753281Y-48365168D01*
X73600193Y-48295668D01*
X73387775Y-48154620D01*
X73212712Y-47987409D01*
X73103075Y-47817670D01*
X73075297Y-47723862D01*
X73071988Y-47591364D01*
X73073890Y-47579584D01*
X73300884Y-47579584D01*
X73328309Y-47681998D01*
X73398651Y-47742805D01*
X73505266Y-47737231D01*
X73557736Y-47731322D01*
X73643133Y-47784845D01*
X73665701Y-47806034D01*
X73770561Y-47867947D01*
X73929258Y-47941748D01*
X74115439Y-48017125D01*
X74302752Y-48083766D01*
X74464842Y-48131362D01*
X74575359Y-48149600D01*
X74650219Y-48166713D01*
X74683189Y-48242794D01*
X74687448Y-48298051D01*
X74718414Y-48358629D01*
X74759768Y-48337003D01*
X74787915Y-48234944D01*
X74794427Y-48192205D01*
X74837292Y-48092207D01*
X74896200Y-48052832D01*
X74948366Y-48080642D01*
X74971003Y-48182203D01*
X74973905Y-48242361D01*
X74995601Y-48386598D01*
X75031322Y-48527504D01*
X75072449Y-48634484D01*
X75110364Y-48676943D01*
X75110889Y-48676914D01*
X75127600Y-48631228D01*
X75134331Y-48515224D01*
X75129620Y-48353453D01*
X75125065Y-48203148D01*
X75126411Y-47967561D01*
X75134280Y-47699090D01*
X75148000Y-47431456D01*
X75160327Y-47253822D01*
X75179336Y-47048560D01*
X75200367Y-46916777D01*
X75225866Y-46844885D01*
X75258283Y-46819294D01*
X75268577Y-46817967D01*
X75331306Y-46845978D01*
X75380885Y-46943518D01*
X75418817Y-47117102D01*
X75446604Y-47373243D01*
X75465749Y-47718453D01*
X75476590Y-47947584D01*
X75497984Y-48210279D01*
X75532389Y-48445037D01*
X75585990Y-48691285D01*
X75597969Y-48736355D01*
X75664973Y-48988453D01*
X75743601Y-49252769D01*
X75834918Y-49530744D01*
X75925465Y-49781839D01*
X76003873Y-49973034D01*
X76029041Y-50028655D01*
X76100356Y-50192000D01*
X76150137Y-50314882D01*
X76168849Y-50374119D01*
X76179892Y-50404699D01*
X76233086Y-50504541D01*
X76319340Y-50651506D01*
X76426392Y-50826036D01*
X76541982Y-51008573D01*
X76653849Y-51179558D01*
X76749734Y-51319434D01*
X76817374Y-51408641D01*
X76830726Y-51424918D01*
X76865308Y-51471519D01*
X76906945Y-51527626D01*
X77018874Y-51686955D01*
X77153664Y-51884400D01*
X77298464Y-52101457D01*
X77314115Y-52125088D01*
X77480421Y-52366115D01*
X77655914Y-52605263D01*
X77820631Y-52816046D01*
X77954607Y-52971978D01*
X78096728Y-53117006D01*
X78384946Y-53369199D01*
X78529373Y-53495574D01*
X79022501Y-53851216D01*
X79559570Y-54176026D01*
X79929900Y-54363708D01*
X80124035Y-54462095D01*
X80699354Y-54701519D01*
X81268983Y-54886389D01*
X81816380Y-55008798D01*
X82325001Y-55060840D01*
X82802095Y-55074868D01*
X82930629Y-54808862D01*
X82991371Y-54691898D01*
X83075447Y-54574962D01*
X83187315Y-54482399D01*
X83204538Y-54472425D01*
X83793467Y-54472425D01*
X83821356Y-54517136D01*
X83936810Y-54567253D01*
X83947675Y-54570455D01*
X84099955Y-54599676D01*
X84182316Y-54580759D01*
X84186298Y-54576645D01*
X84202608Y-54530926D01*
X84145750Y-54493824D01*
X84004510Y-54457570D01*
X83968443Y-54450978D01*
X83845158Y-54446060D01*
X83793467Y-54472425D01*
X83204538Y-54472425D01*
X83357436Y-54383878D01*
X83371638Y-54376335D01*
X83500742Y-54313536D01*
X83535826Y-54296471D01*
X83679377Y-54248953D01*
X83841092Y-54224356D01*
X83845158Y-54224150D01*
X84059770Y-54213255D01*
X84069832Y-54212969D01*
X84276468Y-54210943D01*
X84414126Y-54221492D01*
X84508291Y-54248658D01*
X84584448Y-54296486D01*
X84705065Y-54391363D01*
X84826802Y-54277832D01*
X84855494Y-54248604D01*
X84907088Y-54188442D01*
X84945542Y-54143602D01*
X85060464Y-53998831D01*
X85186143Y-53833403D01*
X85308465Y-53666426D01*
X85413315Y-53517011D01*
X85486575Y-53404267D01*
X85514132Y-53347305D01*
X85514348Y-53345251D01*
X85542290Y-53283868D01*
X85607987Y-53167442D01*
X85698343Y-53019292D01*
X85835558Y-52795422D01*
X86075027Y-52377856D01*
X86301058Y-51951297D01*
X86502862Y-51537335D01*
X86669651Y-51157555D01*
X86790637Y-50833547D01*
X86825583Y-50725214D01*
X86956435Y-50287792D01*
X87059595Y-49888011D01*
X87132368Y-49538408D01*
X87172061Y-49251522D01*
X87175981Y-49039889D01*
X87175955Y-49039592D01*
X87174602Y-48785319D01*
X87215712Y-48584606D01*
X87248623Y-48479244D01*
X87292779Y-48296236D01*
X87329282Y-48101849D01*
X87354593Y-47894937D01*
X87377931Y-47606090D01*
X87395604Y-47281126D01*
X87406292Y-46951144D01*
X87408677Y-46647245D01*
X87401439Y-46400528D01*
X87401144Y-46395647D01*
X87384620Y-46160861D01*
X87360307Y-45863578D01*
X87330385Y-45526378D01*
X87297032Y-45171839D01*
X87262427Y-44822541D01*
X87228748Y-44501063D01*
X87198175Y-44229984D01*
X87172886Y-44031884D01*
X87115448Y-43628146D01*
X86906345Y-43876129D01*
X86795369Y-43998246D01*
X86676102Y-44094405D01*
X86576725Y-44124113D01*
X86486744Y-44139080D01*
X86376893Y-44195892D01*
X86351177Y-44214775D01*
X86220821Y-44269975D01*
X86042906Y-44313685D01*
X85853998Y-44338407D01*
X85690661Y-44336641D01*
X85680970Y-44335336D01*
X85452141Y-44271091D01*
X85187571Y-44146226D01*
X84908933Y-43975380D01*
X84637901Y-43773193D01*
X84396149Y-43554306D01*
X84205352Y-43333358D01*
X84118571Y-43213051D01*
X84016928Y-43059339D01*
X83969200Y-42949936D01*
X83972870Y-42864721D01*
X84025417Y-42783575D01*
X84124321Y-42686377D01*
X84232222Y-42566731D01*
X84287169Y-42456329D01*
X84275025Y-42379637D01*
X84192878Y-42350906D01*
X84136401Y-42340448D01*
X84010874Y-42303319D01*
X83854447Y-42248588D01*
X83804416Y-42228836D01*
X83703294Y-42179882D01*
X83599104Y-42112948D01*
X83479339Y-42017656D01*
X83355462Y-41905357D01*
X83795639Y-41905357D01*
X83855885Y-41933442D01*
X84004510Y-41943547D01*
X84091212Y-41941224D01*
X84196628Y-41922188D01*
X84208597Y-41883693D01*
X84127459Y-41825415D01*
X84066642Y-41803900D01*
X83911799Y-41822543D01*
X83826335Y-41862638D01*
X83795639Y-41905357D01*
X83355462Y-41905357D01*
X83331490Y-41883625D01*
X83143050Y-41700478D01*
X82901510Y-41457833D01*
X82859899Y-41415790D01*
X82653305Y-41210608D01*
X82468833Y-41033058D01*
X82326168Y-40901363D01*
X82734340Y-40901363D01*
X82761804Y-40952782D01*
X82842437Y-41041656D01*
X82984579Y-41182079D01*
X83180176Y-41355177D01*
X83386997Y-41485361D01*
X83610668Y-41560679D01*
X83884698Y-41596561D01*
X83990182Y-41597231D01*
X84046400Y-41564594D01*
X84066642Y-41480616D01*
X84067540Y-41476890D01*
X84069116Y-41453164D01*
X84047810Y-41354520D01*
X83973794Y-41246740D01*
X83836635Y-41117483D01*
X83625904Y-40954410D01*
X83614257Y-40945933D01*
X83481871Y-40865365D01*
X83349783Y-40828675D01*
X83170621Y-40822098D01*
X83063543Y-40826088D01*
X82902289Y-40839549D01*
X82792881Y-40858041D01*
X82751710Y-40873306D01*
X82734340Y-40901363D01*
X82326168Y-40901363D01*
X82317606Y-40893459D01*
X82210751Y-40802132D01*
X82159391Y-40769396D01*
X82156905Y-40769284D01*
X82081621Y-40744239D01*
X81951987Y-40683845D01*
X81794530Y-40600391D01*
X81709505Y-40548171D01*
X81454753Y-40344286D01*
X81196679Y-40077215D01*
X80951531Y-39768672D01*
X80735554Y-39440374D01*
X80564993Y-39114034D01*
X80494133Y-38917091D01*
X80699532Y-38917091D01*
X80738863Y-39059244D01*
X80748522Y-39081916D01*
X80912091Y-39388140D01*
X81127734Y-39688691D01*
X81375953Y-39961919D01*
X81637248Y-40186172D01*
X81892120Y-40339798D01*
X82017739Y-40390177D01*
X82341770Y-40474238D01*
X82685896Y-40510469D01*
X83024270Y-40498970D01*
X83170621Y-40470762D01*
X83331044Y-40439842D01*
X83580372Y-40333186D01*
X83731329Y-40240340D01*
X83875750Y-40361862D01*
X84014021Y-40496086D01*
X84229118Y-40800668D01*
X84387711Y-41167811D01*
X84484880Y-41584629D01*
X84515706Y-42038237D01*
X84515764Y-42140058D01*
X84524947Y-42320440D01*
X84549786Y-42437334D01*
X84593951Y-42513025D01*
X84638232Y-42565605D01*
X84641367Y-42592556D01*
X84567623Y-42578576D01*
X84498170Y-42572464D01*
X84455799Y-42606996D01*
X84435397Y-42770717D01*
X84391537Y-42931271D01*
X84385836Y-42957446D01*
X84417790Y-43061195D01*
X84510996Y-43185533D01*
X84648482Y-43310885D01*
X84813274Y-43417676D01*
X84884260Y-43451899D01*
X84990834Y-43487639D01*
X85121560Y-43509189D01*
X85300310Y-43519971D01*
X85550955Y-43523405D01*
X85730103Y-43524827D01*
X85901627Y-43530159D01*
X85997612Y-43540819D01*
X86029791Y-43558364D01*
X86009893Y-43584352D01*
X85870808Y-43644364D01*
X85667546Y-43680089D01*
X85431603Y-43690716D01*
X85193040Y-43676497D01*
X84981918Y-43637680D01*
X84828297Y-43574517D01*
X84824986Y-43572359D01*
X84732226Y-43526589D01*
X84699415Y-43546025D01*
X84730071Y-43586935D01*
X84833015Y-43654860D01*
X84988492Y-43734871D01*
X85175696Y-43817224D01*
X85373820Y-43892175D01*
X85562057Y-43949982D01*
X85669662Y-43976586D01*
X85788882Y-43994612D01*
X85876548Y-43981792D01*
X85969390Y-43936949D01*
X85981220Y-43930084D01*
X86067487Y-43861343D01*
X86118773Y-43763231D01*
X86153358Y-43602516D01*
X86172963Y-43443366D01*
X86165578Y-43340321D01*
X86122573Y-43311379D01*
X86039773Y-43347154D01*
X86021991Y-43357037D01*
X85915606Y-43390922D01*
X85795951Y-43404076D01*
X85698295Y-43395080D01*
X85657906Y-43362516D01*
X85692892Y-43324540D01*
X85786775Y-43287443D01*
X85915459Y-43237345D01*
X86050360Y-43159173D01*
X86130964Y-43080577D01*
X86181977Y-42987262D01*
X86193261Y-42907365D01*
X86161936Y-42863999D01*
X86085122Y-42880272D01*
X86084603Y-42880550D01*
X85988732Y-42912299D01*
X85952048Y-42885769D01*
X85989072Y-42811377D01*
X86017680Y-42750366D01*
X85959958Y-42712636D01*
X85906267Y-42683864D01*
X85793793Y-42602677D01*
X85665176Y-42494234D01*
X85565204Y-42400870D01*
X85503890Y-42327876D01*
X85496789Y-42277629D01*
X85533383Y-42228959D01*
X85577858Y-42169264D01*
X85609463Y-42071916D01*
X85607016Y-42035096D01*
X85574311Y-41878366D01*
X85514483Y-41690447D01*
X85441550Y-41511630D01*
X85369526Y-41382203D01*
X85335311Y-41325586D01*
X85269788Y-41171702D01*
X85219991Y-40999146D01*
X85187458Y-40886601D01*
X85055959Y-40637078D01*
X84838435Y-40378933D01*
X84530915Y-40107025D01*
X84473609Y-40061716D01*
X84364315Y-39980604D01*
X84295411Y-39949257D01*
X84241742Y-39960575D01*
X84178153Y-40007457D01*
X84116859Y-40053763D01*
X84022895Y-40102728D01*
X83989215Y-40084626D01*
X84019557Y-40007397D01*
X84117662Y-39878983D01*
X84192893Y-39783101D01*
X84311577Y-39592492D01*
X84324528Y-39563868D01*
X84726729Y-39563868D01*
X84788379Y-39653581D01*
X84932885Y-39777558D01*
X85007888Y-39838608D01*
X85168882Y-39983003D01*
X85351020Y-40158294D01*
X85527480Y-40339147D01*
X85886520Y-40721099D01*
X86034371Y-40569873D01*
X86118933Y-40490018D01*
X86178466Y-40459486D01*
X86209995Y-40491022D01*
X86220031Y-40526242D01*
X86223403Y-40630453D01*
X86222672Y-40643330D01*
X86251983Y-40674304D01*
X86336925Y-40690714D01*
X86487320Y-40692872D01*
X86712989Y-40681086D01*
X87023755Y-40655666D01*
X87254574Y-40627902D01*
X87515697Y-40584946D01*
X87739333Y-40537278D01*
X88071514Y-40453440D01*
X87894060Y-40257020D01*
X87871216Y-40232161D01*
X87655297Y-40028195D01*
X87377549Y-39814018D01*
X87032046Y-39585931D01*
X86612864Y-39340237D01*
X86114080Y-39073237D01*
X85529769Y-38781234D01*
X85496528Y-38764938D01*
X85270712Y-38644184D01*
X85122750Y-38544517D01*
X85059259Y-38470310D01*
X85027544Y-38409241D01*
X84937525Y-38324435D01*
X84930150Y-38320536D01*
X84884632Y-38304444D01*
X84863005Y-38329672D01*
X84860650Y-38414220D01*
X84872948Y-38576090D01*
X84877595Y-38673252D01*
X84860600Y-38963182D01*
X84807892Y-39264424D01*
X84727487Y-39524696D01*
X84726729Y-39563868D01*
X84324528Y-39563868D01*
X84393370Y-39411719D01*
X84401467Y-39386332D01*
X84451442Y-39144609D01*
X84465589Y-38887780D01*
X84444133Y-38650605D01*
X84387297Y-38467840D01*
X84324273Y-38369223D01*
X84270791Y-38327059D01*
X84248115Y-38354805D01*
X84271594Y-38454262D01*
X84274590Y-38462851D01*
X84295940Y-38571081D01*
X84311621Y-38728231D01*
X84320678Y-38905462D01*
X84322158Y-39073933D01*
X84315105Y-39204806D01*
X84298566Y-39269239D01*
X84290162Y-39269512D01*
X84258074Y-39208650D01*
X84213301Y-39066403D01*
X84158581Y-38852181D01*
X84096652Y-38575392D01*
X84082709Y-38515345D01*
X83986830Y-38226225D01*
X83853595Y-37948800D01*
X83702508Y-37725140D01*
X83699460Y-37721566D01*
X83624728Y-37648143D01*
X83523771Y-37563722D01*
X83421193Y-37486813D01*
X83341602Y-37435926D01*
X83309604Y-37429572D01*
X83309606Y-37429662D01*
X83332808Y-37478942D01*
X83393036Y-37586622D01*
X83477340Y-37729544D01*
X83544335Y-37842781D01*
X83625536Y-37992464D01*
X83654130Y-38071939D01*
X83628003Y-38080831D01*
X83545044Y-38018763D01*
X83403139Y-37885360D01*
X83200175Y-37680247D01*
X83036040Y-37514479D01*
X82900359Y-37388908D01*
X82794664Y-37310377D01*
X82701327Y-37265977D01*
X82602717Y-37242801D01*
X82546871Y-37235285D01*
X82441042Y-37230421D01*
X82399038Y-37243957D01*
X82408072Y-37268274D01*
X82456254Y-37362313D01*
X82536657Y-37506997D01*
X82638661Y-37682873D01*
X82704592Y-37795239D01*
X82794068Y-37950586D01*
X82855475Y-38060966D01*
X82878283Y-38107711D01*
X82878326Y-38108279D01*
X82898433Y-38161533D01*
X82948175Y-38276661D01*
X83017228Y-38429732D01*
X83050464Y-38502916D01*
X83176703Y-38802025D01*
X83252394Y-39025899D01*
X83278782Y-39178872D01*
X83257112Y-39265278D01*
X83199616Y-39301507D01*
X83050816Y-39329111D01*
X82837623Y-39330709D01*
X82575585Y-39309027D01*
X82280250Y-39266793D01*
X81967167Y-39206735D01*
X81651885Y-39131578D01*
X81349952Y-39044051D01*
X81076916Y-38946880D01*
X80848327Y-38842792D01*
X80792472Y-38820445D01*
X80719056Y-38834221D01*
X80699532Y-38917091D01*
X80494133Y-38917091D01*
X80456094Y-38811368D01*
X80446958Y-38775565D01*
X80411646Y-38625206D01*
X80402623Y-38536798D01*
X80420602Y-38484543D01*
X80466297Y-38442646D01*
X80481584Y-38432624D01*
X80598732Y-38390257D01*
X80745642Y-38369702D01*
X80792507Y-38368237D01*
X80946840Y-38363941D01*
X81164033Y-38358284D01*
X81422139Y-38351830D01*
X81699209Y-38345145D01*
X81863565Y-38340806D01*
X82103324Y-38332701D01*
X82297176Y-38323931D01*
X82428479Y-38315295D01*
X82480590Y-38307592D01*
X82468756Y-38274445D01*
X82414000Y-38171549D01*
X82322433Y-38012404D01*
X82201825Y-37810467D01*
X82059947Y-37579193D01*
X82028751Y-37528890D01*
X81875894Y-37279265D01*
X81768074Y-37094718D01*
X81699087Y-36962239D01*
X81662727Y-36868818D01*
X81652788Y-36801446D01*
X81663066Y-36747114D01*
X81676949Y-36715719D01*
X81774117Y-36617390D01*
X81947013Y-36547890D01*
X82201342Y-36505545D01*
X82441042Y-36493704D01*
X82542812Y-36488677D01*
X82634516Y-36487943D01*
X82838551Y-36492280D01*
X82990580Y-36510182D01*
X83122743Y-36546937D01*
X83267180Y-36607830D01*
X83621532Y-36793563D01*
X83974996Y-37024081D01*
X84267824Y-37265147D01*
X84363713Y-37352409D01*
X84461870Y-37431937D01*
X84515518Y-37462604D01*
X84556776Y-37429714D01*
X84545485Y-37341688D01*
X84487004Y-37218268D01*
X84387906Y-37079207D01*
X84320589Y-36997183D01*
X84248259Y-36904380D01*
X84220170Y-36861286D01*
X84220445Y-36860778D01*
X84268005Y-36832721D01*
X84389660Y-36768354D01*
X84574411Y-36673294D01*
X84811261Y-36553157D01*
X84884632Y-36516308D01*
X85089212Y-36413562D01*
X85397265Y-36260123D01*
X85488094Y-36214976D01*
X85842573Y-36036600D01*
X86116720Y-35894305D01*
X86316094Y-35784939D01*
X86446251Y-35705351D01*
X86512750Y-35652389D01*
X86521149Y-35622904D01*
X86520724Y-35622491D01*
X86445612Y-35599784D01*
X86276993Y-35583841D01*
X86016944Y-35574783D01*
X85667545Y-35572732D01*
X85422235Y-35574649D01*
X85154452Y-35581408D01*
X84936427Y-35595352D01*
X84741671Y-35619102D01*
X84543698Y-35655279D01*
X84316019Y-35706506D01*
X84125210Y-35752828D01*
X83744663Y-35854277D01*
X83431084Y-35953589D01*
X83164818Y-36057348D01*
X82926208Y-36172140D01*
X82859361Y-36205774D01*
X82681757Y-36275186D01*
X82476405Y-36323028D01*
X82209296Y-36358121D01*
X81988462Y-36386307D01*
X81766583Y-36436698D01*
X81618902Y-36507389D01*
X81533259Y-36604828D01*
X81497494Y-36735460D01*
X81499753Y-36861571D01*
X81527689Y-36966097D01*
X81535199Y-36983088D01*
X81531986Y-37052817D01*
X81477434Y-37154035D01*
X81362913Y-37304467D01*
X81256991Y-37444744D01*
X81179296Y-37567269D01*
X81147696Y-37644186D01*
X81149723Y-37819613D01*
X81196984Y-37969075D01*
X81303562Y-38092800D01*
X81449381Y-38219789D01*
X80977700Y-38249262D01*
X80859508Y-38257630D01*
X80651326Y-38277081D01*
X80482248Y-38298775D01*
X80380595Y-38319386D01*
X80337381Y-38330032D01*
X80271427Y-38325220D01*
X80191829Y-38284864D01*
X80080260Y-38198508D01*
X79918391Y-38055696D01*
X79827263Y-37970342D01*
X79607831Y-37738630D01*
X79514137Y-37620951D01*
X80777166Y-37620951D01*
X80806623Y-37721391D01*
X80855140Y-37809942D01*
X80899660Y-37838927D01*
X80922606Y-37777949D01*
X80920816Y-37629552D01*
X80919604Y-37611969D01*
X80949528Y-37324102D01*
X81068778Y-37029698D01*
X81272092Y-36735145D01*
X81554206Y-36446833D01*
X81909855Y-36171150D01*
X82333778Y-35914485D01*
X82498435Y-35821540D01*
X82659178Y-35710483D01*
X82785780Y-35587432D01*
X82909553Y-35425811D01*
X82921684Y-35408424D01*
X83017968Y-35266372D01*
X83086932Y-35157574D01*
X83114342Y-35104373D01*
X83109403Y-35103434D01*
X83048085Y-35135677D01*
X82927646Y-35211328D01*
X82761850Y-35321548D01*
X82564460Y-35457499D01*
X82490681Y-35508639D01*
X82298436Y-35637365D01*
X82139507Y-35737275D01*
X82028715Y-35799303D01*
X81980883Y-35814386D01*
X81972105Y-35800736D01*
X81978670Y-35778461D01*
X82013409Y-35742089D01*
X82086484Y-35683575D01*
X82208055Y-35594878D01*
X82388281Y-35467955D01*
X82637324Y-35294763D01*
X82807305Y-35172344D01*
X83073349Y-34967911D01*
X83334322Y-34754779D01*
X83552420Y-34563170D01*
X83724420Y-34406573D01*
X83989524Y-34175565D01*
X84243347Y-33965763D01*
X84466996Y-33792631D01*
X84641583Y-33671632D01*
X84685919Y-33641667D01*
X84744170Y-33579168D01*
X84722167Y-33543254D01*
X84628928Y-33535403D01*
X84473470Y-33557097D01*
X84264812Y-33609814D01*
X84069717Y-33679921D01*
X83810823Y-33791995D01*
X83514956Y-33933297D01*
X83204310Y-34092446D01*
X82901079Y-34258061D01*
X82627456Y-34418762D01*
X82405634Y-34563170D01*
X82270442Y-34658454D01*
X82013411Y-34842519D01*
X81815967Y-34990074D01*
X81664132Y-35112752D01*
X81543927Y-35222184D01*
X81441374Y-35330003D01*
X81342495Y-35447839D01*
X81294225Y-35508820D01*
X81072699Y-35821747D01*
X80922605Y-36106557D01*
X80835514Y-36382318D01*
X80802995Y-36668099D01*
X80803469Y-36828227D01*
X80819462Y-36994848D01*
X80851102Y-37085804D01*
X80877491Y-37136966D01*
X80874347Y-37228078D01*
X80829243Y-37375994D01*
X80788016Y-37507498D01*
X80777166Y-37620951D01*
X79514137Y-37620951D01*
X79422088Y-37505338D01*
X79284589Y-37289859D01*
X79209887Y-37111588D01*
X79201313Y-37084186D01*
X79127471Y-36997901D01*
X79010061Y-36988427D01*
X78863287Y-37057963D01*
X78857724Y-37062031D01*
X78781644Y-37176054D01*
X78755859Y-37350034D01*
X78780571Y-37563323D01*
X78855986Y-37795272D01*
X78886705Y-37873573D01*
X78900278Y-37913429D01*
X78950306Y-38060333D01*
X79019943Y-38287782D01*
X79085253Y-38523024D01*
X79215308Y-39020151D01*
X79500767Y-39021156D01*
X79512161Y-39021213D01*
X79677625Y-39028864D01*
X79767503Y-39052233D01*
X79800442Y-39095978D01*
X79784753Y-39159307D01*
X79701376Y-39227518D01*
X79574046Y-39270422D01*
X79431616Y-39274085D01*
X79425309Y-39273171D01*
X79325255Y-39262338D01*
X79283944Y-39264954D01*
X79296439Y-39306332D01*
X79330682Y-39400427D01*
X79386980Y-39486374D01*
X79480491Y-39519732D01*
X79625910Y-39501005D01*
X79838082Y-39431091D01*
X79929350Y-39399448D01*
X80080711Y-39367625D01*
X80163279Y-39383873D01*
X80170896Y-39445384D01*
X80097405Y-39549350D01*
X80020468Y-39623920D01*
X79795614Y-39764110D01*
X79549909Y-39810906D01*
X79522538Y-39811005D01*
X79424557Y-39821658D01*
X79386314Y-39870395D01*
X79379793Y-39986062D01*
X79379734Y-39995809D01*
X79362804Y-40114610D01*
X79303282Y-40221001D01*
X79183017Y-40348406D01*
X79097043Y-40426122D01*
X79007747Y-40495677D01*
X78964521Y-40513873D01*
X78962643Y-40479153D01*
X78981550Y-40374262D01*
X79019588Y-40228007D01*
X79026860Y-40201884D01*
X79060433Y-40024566D01*
X79066009Y-39868469D01*
X79044619Y-39757373D01*
X78997299Y-39715056D01*
X78983899Y-39727984D01*
X78958328Y-39810033D01*
X78938499Y-39942698D01*
X78930090Y-40004935D01*
X78883145Y-40206765D01*
X78816784Y-40394591D01*
X78804142Y-40422696D01*
X78740305Y-40543076D01*
X78683837Y-40593528D01*
X78616124Y-40592401D01*
X78564109Y-40572216D01*
X78533638Y-40517586D01*
X78545377Y-40404093D01*
X78553458Y-40315332D01*
X78530030Y-40245832D01*
X78479909Y-40259343D01*
X78421302Y-40362038D01*
X78388604Y-40437181D01*
X78345551Y-40472780D01*
X78266551Y-40468817D01*
X78123506Y-40431883D01*
X78110338Y-40428159D01*
X77963243Y-40369583D01*
X77907451Y-40302533D01*
X77938758Y-40222239D01*
X77945226Y-40213491D01*
X77966771Y-40127149D01*
X77944540Y-40041444D01*
X77889005Y-40002604D01*
X77882206Y-40003096D01*
X77846208Y-40041368D01*
X77831942Y-40084769D01*
X77779507Y-40171352D01*
X77713199Y-40231629D01*
X77647715Y-40209121D01*
X77629498Y-40196013D01*
X77514351Y-40135103D01*
X77339465Y-40058883D01*
X77129413Y-39976348D01*
X76908770Y-39896494D01*
X76702109Y-39828318D01*
X76534005Y-39780814D01*
X76429030Y-39762981D01*
X76317236Y-39774407D01*
X76238120Y-39822985D01*
X76208627Y-39921367D01*
X76225541Y-40081993D01*
X76285644Y-40317297D01*
X76286989Y-40321893D01*
X76367256Y-40551781D01*
X76470467Y-40789772D01*
X76574635Y-40985056D01*
X76670255Y-41139853D01*
X76765788Y-41295530D01*
X76832277Y-41405015D01*
X76865068Y-41454850D01*
X76938916Y-41513253D01*
X77043512Y-41509029D01*
X77138035Y-41505491D01*
X77207985Y-41551674D01*
X77206584Y-41634236D01*
X77125103Y-41729574D01*
X77064870Y-41780549D01*
X77038215Y-41846896D01*
X77072519Y-41947550D01*
X77132984Y-42080255D01*
X77254383Y-41949331D01*
X77271928Y-41931377D01*
X77372703Y-41856167D01*
X77455241Y-41833542D01*
X77531198Y-41882162D01*
X77548228Y-41973075D01*
X77515927Y-42083332D01*
X77445130Y-42190214D01*
X77346669Y-42271003D01*
X77231379Y-42302981D01*
X77151974Y-42314126D01*
X77092396Y-42369290D01*
X77043160Y-42493924D01*
X77031284Y-42533401D01*
X76997248Y-42666874D01*
X76983566Y-42755823D01*
X76966626Y-42806087D01*
X76893007Y-42875244D01*
X76884000Y-42879948D01*
X76813320Y-42894407D01*
X76777683Y-42829006D01*
X76775724Y-42821875D01*
X76726725Y-42744558D01*
X76660500Y-42754880D01*
X76592888Y-42850957D01*
X76577746Y-42879634D01*
X76493010Y-42956366D01*
X76342312Y-42998232D01*
X76306142Y-43004027D01*
X76159274Y-43030835D01*
X76053770Y-43054843D01*
X75989258Y-43058987D01*
X75991771Y-43004952D01*
X76000146Y-42962817D01*
X75974969Y-42900689D01*
X75932273Y-42912264D01*
X75884782Y-42988734D01*
X75831626Y-43070326D01*
X75728838Y-43128659D01*
X75619608Y-43125368D01*
X75537463Y-43054139D01*
X75531278Y-43042621D01*
X75493620Y-42987825D01*
X75454028Y-42998342D01*
X75383406Y-43078837D01*
X75340384Y-43122843D01*
X75240224Y-43185470D01*
X75086807Y-43241813D01*
X74859179Y-43300740D01*
X74576469Y-43375802D01*
X74366557Y-43455507D01*
X74243859Y-43537694D01*
X74203944Y-43624553D01*
X74221844Y-43698453D01*
X74289142Y-43817445D01*
X74411478Y-43980033D01*
X74594147Y-44193176D01*
X74842443Y-44463835D01*
X75265281Y-44914868D01*
X75376928Y-44776158D01*
X75476249Y-44682536D01*
X75565128Y-44666824D01*
X75627071Y-44715587D01*
X75627204Y-44814947D01*
X75542716Y-44955867D01*
X75514540Y-44995616D01*
X75475405Y-45098554D01*
X75502759Y-45160956D01*
X75592357Y-45164932D01*
X75696044Y-45166349D01*
X75792311Y-45215573D01*
X75833378Y-45293218D01*
X75807837Y-45357843D01*
X75734410Y-45444860D01*
X75662365Y-45549469D01*
X75649187Y-45703891D01*
X75651189Y-45774364D01*
X75630702Y-45976486D01*
X75581629Y-46190030D01*
X75513459Y-46379240D01*
X75435683Y-46508358D01*
X75424909Y-46520027D01*
X75329948Y-46602063D01*
X75278555Y-46598829D01*
X75270830Y-46510323D01*
X75272659Y-46463545D01*
X75245882Y-46393205D01*
X75185358Y-46394691D01*
X75106174Y-46462961D01*
X75023419Y-46592976D01*
X74960660Y-46701586D01*
X74883371Y-46781098D01*
X74823856Y-46774868D01*
X74788745Y-46680423D01*
X74788095Y-46676079D01*
X74775011Y-46626557D01*
X74741436Y-46613275D01*
X74665457Y-46638105D01*
X74525160Y-46702916D01*
X74338974Y-46795084D01*
X74105368Y-46918503D01*
X73873822Y-47047675D01*
X73665302Y-47170544D01*
X73500775Y-47275056D01*
X73401208Y-47349155D01*
X73323019Y-47460334D01*
X73300884Y-47579584D01*
X73073890Y-47579584D01*
X73102093Y-47404950D01*
X73137692Y-47272831D01*
X73221165Y-47096980D01*
X73351108Y-46937563D01*
X73538978Y-46784008D01*
X73796230Y-46625739D01*
X74134321Y-46452184D01*
X74142618Y-46448172D01*
X74380591Y-46330439D01*
X74608040Y-46213379D01*
X74799546Y-46110333D01*
X74929692Y-46034647D01*
X75053811Y-45939536D01*
X75173931Y-45806219D01*
X75245175Y-45675561D01*
X75251108Y-45571255D01*
X75244219Y-45559355D01*
X75185150Y-45482772D01*
X75076379Y-45352897D01*
X74929068Y-45182544D01*
X74754377Y-44984527D01*
X74563469Y-44771663D01*
X74367505Y-44556765D01*
X74243403Y-44403358D01*
X74049307Y-44066885D01*
X73909527Y-43683420D01*
X73835251Y-43279802D01*
X73807534Y-42982996D01*
X74028208Y-42768526D01*
X74176973Y-42639136D01*
X74340718Y-42545738D01*
X74549903Y-42480021D01*
X74579187Y-42472963D01*
X74836043Y-42418671D01*
X75160144Y-42360132D01*
X75526764Y-42301342D01*
X75911178Y-42246298D01*
X76288661Y-42198995D01*
X76384490Y-42187620D01*
X76560012Y-42164743D01*
X76684866Y-42145626D01*
X76736739Y-42133528D01*
X76739743Y-42085534D01*
X76706385Y-41970112D01*
X76641788Y-41810210D01*
X76554482Y-41626672D01*
X76453000Y-41440339D01*
X76394480Y-41337123D01*
X76234691Y-41019308D01*
X76101164Y-40699814D01*
X75998951Y-40395141D01*
X75933107Y-40121790D01*
X75908684Y-39896259D01*
X75930736Y-39735049D01*
X75952933Y-39682140D01*
X76071916Y-39482887D01*
X76223631Y-39315177D01*
X76237758Y-39305765D01*
X78767058Y-39305765D01*
X78777573Y-39360265D01*
X78876585Y-39379585D01*
X78954176Y-39372481D01*
X78991954Y-39330809D01*
X78951391Y-39238893D01*
X78948301Y-39234090D01*
X78900278Y-39194926D01*
X78832313Y-39232780D01*
X78767058Y-39305765D01*
X76237758Y-39305765D01*
X76381433Y-39210046D01*
X76505363Y-39174740D01*
X76735178Y-39145523D01*
X77024367Y-39135705D01*
X77353321Y-39145788D01*
X77702434Y-39176272D01*
X78157717Y-39229014D01*
X78713121Y-38661016D01*
X78660970Y-38373418D01*
X78636176Y-38250184D01*
X78588497Y-38052578D01*
X78541635Y-37895401D01*
X78506740Y-37769320D01*
X78470011Y-37559469D01*
X78445375Y-37326044D01*
X78434860Y-37098361D01*
X78440494Y-36905739D01*
X78464305Y-36777495D01*
X78551469Y-36661589D01*
X78707977Y-36558303D01*
X78903800Y-36485448D01*
X79110266Y-36457241D01*
X79144895Y-36459504D01*
X79291833Y-36489486D01*
X79490383Y-36547066D01*
X79714344Y-36623004D01*
X79937516Y-36708061D01*
X80133699Y-36792998D01*
X80276692Y-36868574D01*
X80306342Y-36886867D01*
X80396969Y-36929200D01*
X80430123Y-36902968D01*
X80419390Y-36801815D01*
X80418276Y-36689455D01*
X80458395Y-36493385D01*
X80538070Y-36252225D01*
X80650612Y-35985657D01*
X80789333Y-35713358D01*
X80878368Y-35567190D01*
X81157849Y-35209304D01*
X81518772Y-34853155D01*
X81951171Y-34505681D01*
X82445081Y-34173822D01*
X82990534Y-33864516D01*
X83577565Y-33584703D01*
X84196208Y-33341320D01*
X84387568Y-33279891D01*
X84628928Y-33220555D01*
X84683416Y-33207160D01*
X84962019Y-33163372D01*
X85205423Y-33150150D01*
X85395676Y-33169122D01*
X85514828Y-33221912D01*
X85569736Y-33279908D01*
X85600203Y-33351997D01*
X85589406Y-33445835D01*
X85534381Y-33581399D01*
X85432161Y-33778664D01*
X85376837Y-33878133D01*
X85288053Y-34015801D01*
X85215923Y-34087372D01*
X85147442Y-34107887D01*
X85053730Y-34125831D01*
X85001592Y-34186461D01*
X85031588Y-34271647D01*
X85062239Y-34361722D01*
X85022737Y-34463595D01*
X84920391Y-34536860D01*
X84904233Y-34543566D01*
X84838083Y-34608940D01*
X84819227Y-34736036D01*
X84816709Y-34801796D01*
X84790452Y-34878058D01*
X84723378Y-34898149D01*
X84699216Y-34899931D01*
X84639066Y-34941170D01*
X84612537Y-35054047D01*
X84609976Y-35086205D01*
X84617964Y-35174581D01*
X84660462Y-35186439D01*
X84710302Y-35174832D01*
X84840929Y-35151783D01*
X85026324Y-35122734D01*
X85244052Y-35091340D01*
X85303500Y-35083443D01*
X85614698Y-35054645D01*
X85667545Y-35053851D01*
X85926937Y-35049954D01*
X86262791Y-35070608D01*
G37*
G36*
X82109222Y-37855884D02*
G01*
X82138687Y-37932827D01*
X82144830Y-37999157D01*
X82097051Y-38047956D01*
X81979698Y-38109922D01*
X81857603Y-38161443D01*
X81723789Y-38198403D01*
X81623691Y-38206475D01*
X81584321Y-38180815D01*
X81610670Y-38134751D01*
X81687854Y-38046708D01*
X81791297Y-37943965D01*
X81895999Y-37851210D01*
X81976956Y-37793131D01*
X81994494Y-37784377D01*
X82061436Y-37779955D01*
X82109222Y-37855884D01*
G37*
G36*
X82633689Y-51050928D02*
G01*
X82967000Y-51102725D01*
X83248871Y-51216437D01*
X83470998Y-51390738D01*
X83625074Y-51624302D01*
X83672657Y-51771242D01*
X83681738Y-52020871D01*
X83613599Y-52271365D01*
X83479119Y-52513979D01*
X83289177Y-52739967D01*
X83054652Y-52940582D01*
X82786425Y-53107080D01*
X82495375Y-53230714D01*
X82192381Y-53302739D01*
X81888322Y-53314408D01*
X81594079Y-53256977D01*
X81506488Y-53231790D01*
X81351864Y-53204266D01*
X81241518Y-53205920D01*
X81200226Y-53212226D01*
X81130560Y-53193568D01*
X81050528Y-53123464D01*
X80939721Y-52987119D01*
X80895042Y-52927396D01*
X80693887Y-52616965D01*
X80571372Y-52342766D01*
X80529982Y-52110118D01*
X80529982Y-52108553D01*
X80538391Y-51999338D01*
X80573593Y-51907399D01*
X80645604Y-51813261D01*
X81027753Y-51813261D01*
X81034100Y-51886311D01*
X81090788Y-51994722D01*
X81130155Y-52056227D01*
X81262913Y-52188170D01*
X81435175Y-52250682D01*
X81667862Y-52253128D01*
X81915199Y-52198356D01*
X82131208Y-52073217D01*
X82279950Y-51886488D01*
X82342049Y-51716600D01*
X82327536Y-51565687D01*
X82227489Y-51424434D01*
X82212995Y-51410139D01*
X82125021Y-51341469D01*
X82029603Y-51318958D01*
X81883923Y-51330956D01*
X81798548Y-51346042D01*
X81577447Y-51410476D01*
X81364830Y-51502575D01*
X81189496Y-51608584D01*
X81080243Y-51714753D01*
X81070050Y-51730440D01*
X81027753Y-51813261D01*
X80645604Y-51813261D01*
X80650969Y-51806248D01*
X80785899Y-51669398D01*
X80961436Y-51517197D01*
X81167092Y-51387756D01*
X81426170Y-51273300D01*
X81845974Y-51138383D01*
X82029603Y-51104445D01*
X82257245Y-51062372D01*
X82633689Y-51050928D01*
G37*
G36*
X77215784Y-52865763D02*
G01*
X77237074Y-52880557D01*
X77271114Y-52921092D01*
X77270647Y-52927792D01*
X77242905Y-52938346D01*
X77194650Y-52886897D01*
X77182990Y-52860115D01*
X77215784Y-52865763D01*
G37*
G36*
X86381729Y-49077950D02*
G01*
X86479305Y-49258979D01*
X86489184Y-49296146D01*
X86521195Y-49556111D01*
X86476561Y-49798041D01*
X86350230Y-50037136D01*
X86137151Y-50288595D01*
X86036815Y-50381081D01*
X85830288Y-50539907D01*
X85583888Y-50703065D01*
X85316906Y-50860073D01*
X85048634Y-51000446D01*
X84798360Y-51113700D01*
X84585378Y-51189353D01*
X84428977Y-51216919D01*
X84416068Y-51216779D01*
X84357808Y-51208713D01*
X84318905Y-51180799D01*
X84300408Y-51122722D01*
X84303363Y-51024165D01*
X84328819Y-50874813D01*
X84377823Y-50664350D01*
X84428154Y-50471580D01*
X85045363Y-50471580D01*
X85049466Y-50528629D01*
X85055335Y-50532059D01*
X85127705Y-50522129D01*
X85253956Y-50473774D01*
X85411393Y-50397768D01*
X85577324Y-50304889D01*
X85729052Y-50205914D01*
X85799681Y-50150988D01*
X85949371Y-50011916D01*
X86063497Y-49877607D01*
X86102567Y-49815428D01*
X86178735Y-49602598D01*
X86166829Y-49399002D01*
X86066779Y-49218767D01*
X86037882Y-49186050D01*
X85975682Y-49122596D01*
X85951674Y-49126470D01*
X85946968Y-49193725D01*
X85941173Y-49244754D01*
X85888160Y-49406087D01*
X85794815Y-49590072D01*
X85679539Y-49763404D01*
X85560736Y-49892776D01*
X85543482Y-49906651D01*
X85404963Y-49986801D01*
X85275613Y-50018830D01*
X85225678Y-50021059D01*
X85163148Y-50046060D01*
X85121609Y-50118177D01*
X85082191Y-50261040D01*
X85062407Y-50352975D01*
X85045363Y-50471580D01*
X84428154Y-50471580D01*
X84451423Y-50382461D01*
X84550667Y-50018830D01*
X84570337Y-49945971D01*
X84635103Y-49687548D01*
X84698106Y-49411591D01*
X84754881Y-49140161D01*
X84800964Y-48895320D01*
X84831889Y-48699128D01*
X84843189Y-48573647D01*
X84843403Y-48542624D01*
X84855388Y-48469262D01*
X84905978Y-48448421D01*
X85022906Y-48463030D01*
X85260338Y-48510229D01*
X85627664Y-48616302D01*
X85944566Y-48750412D01*
X85975682Y-48769431D01*
X86199702Y-48906361D01*
X86381729Y-49077950D01*
G37*
G36*
X94357671Y-35417404D02*
G01*
X94351204Y-35518197D01*
X94027603Y-35524055D01*
X93704002Y-35529912D01*
X93704002Y-35995641D01*
X94361813Y-35995641D01*
X94361813Y-36207838D01*
X92961312Y-36207838D01*
X92961312Y-35995641D01*
X93534244Y-35995641D01*
X93534244Y-35528807D01*
X92961312Y-35528807D01*
X92961312Y-35316610D01*
X94364139Y-35316610D01*
X94357671Y-35417404D01*
G37*
G36*
X95770266Y-32587143D02*
G01*
X95783534Y-32621706D01*
X95784743Y-32635557D01*
X95793654Y-32648843D01*
X95817265Y-32657222D01*
X95862511Y-32661817D01*
X95936325Y-32663750D01*
X96045643Y-32664145D01*
X96095721Y-32664236D01*
X96193368Y-32665672D01*
X96261431Y-32669894D01*
X96309054Y-32678227D01*
X96345377Y-32691997D01*
X96379544Y-32712527D01*
X96389950Y-32719885D01*
X96442622Y-32766870D01*
X96477858Y-32813320D01*
X96481674Y-32821264D01*
X96502732Y-32913374D01*
X96490181Y-33009106D01*
X96447801Y-33095211D01*
X96379374Y-33158436D01*
X96359707Y-33168411D01*
X96317313Y-33181243D01*
X96257175Y-33189288D01*
X96171080Y-33193452D01*
X96050812Y-33194638D01*
X95958030Y-33194868D01*
X95876895Y-33196377D01*
X95825747Y-33200261D01*
X95797717Y-33207613D01*
X95785935Y-33219521D01*
X95783534Y-33237078D01*
X95777627Y-33261826D01*
X95751705Y-33279517D01*
X95744481Y-33278507D01*
X95729593Y-33261955D01*
X95722000Y-33218955D01*
X95719875Y-33141589D01*
X95720108Y-33110286D01*
X95723928Y-33045772D01*
X95733851Y-33012869D01*
X95751705Y-33003661D01*
X95774045Y-33016781D01*
X95783534Y-33067320D01*
X95783534Y-33130979D01*
X96018005Y-33130979D01*
X96118120Y-33128994D01*
X96238456Y-33117367D01*
X96324469Y-33093375D01*
X96380515Y-33054788D01*
X96410949Y-32999373D01*
X96420126Y-32924899D01*
X96416419Y-32881362D01*
X96391640Y-32821648D01*
X96340377Y-32778155D01*
X96258904Y-32749176D01*
X96143496Y-32733001D01*
X95990427Y-32727923D01*
X95783534Y-32727805D01*
X95783534Y-32802074D01*
X95783477Y-32808838D01*
X95775246Y-32860237D01*
X95751705Y-32876343D01*
X95741740Y-32874177D01*
X95728478Y-32854697D01*
X95721747Y-32808508D01*
X95719875Y-32727805D01*
X95720339Y-32681302D01*
X95724514Y-32619412D01*
X95734411Y-32588002D01*
X95751705Y-32579267D01*
X95770266Y-32587143D01*
G37*
G36*
X96396715Y-33429715D02*
G01*
X96456048Y-33442138D01*
X96480800Y-33464825D01*
X96467239Y-33495529D01*
X96458204Y-33519533D01*
X96475323Y-33573254D01*
X96493840Y-33621937D01*
X96504015Y-33717528D01*
X96489290Y-33816174D01*
X96452486Y-33903813D01*
X96396426Y-33966385D01*
X96391566Y-33969551D01*
X96333707Y-33991855D01*
X96265902Y-34000987D01*
X96210095Y-33994361D01*
X96142322Y-33957586D01*
X96092879Y-33886095D01*
X96059159Y-33777065D01*
X96056931Y-33766437D01*
X96032155Y-33665583D01*
X96006394Y-33599253D01*
X95975926Y-33560269D01*
X95937028Y-33541448D01*
X95881622Y-33546197D01*
X95828922Y-33582702D01*
X95790143Y-33641110D01*
X95775046Y-33711190D01*
X95780371Y-33759061D01*
X95805611Y-33826367D01*
X95844749Y-33875720D01*
X95890122Y-33894889D01*
X95917003Y-33901797D01*
X95932072Y-33937328D01*
X95931655Y-33946788D01*
X95921550Y-33967914D01*
X95890022Y-33977505D01*
X95826620Y-33979768D01*
X95791099Y-33980230D01*
X95757290Y-33978752D01*
X95735522Y-33968687D01*
X95722951Y-33943274D01*
X95716733Y-33895755D01*
X95714023Y-33819371D01*
X95711977Y-33707363D01*
X95711939Y-33638599D01*
X95718414Y-33588360D01*
X95735939Y-33554064D01*
X95768803Y-33521691D01*
X95775559Y-33516058D01*
X95840039Y-33480789D01*
X95922958Y-33470495D01*
X95932212Y-33470531D01*
X95990937Y-33475579D01*
X96027345Y-33495404D01*
X96059188Y-33538921D01*
X96074939Y-33569581D01*
X96103213Y-33644202D01*
X96124742Y-33724594D01*
X96142621Y-33793631D01*
X96181332Y-33875310D01*
X96230764Y-33917557D01*
X96289726Y-33919571D01*
X96357026Y-33880552D01*
X96357709Y-33879977D01*
X96397520Y-33839255D01*
X96415758Y-33794249D01*
X96420126Y-33726107D01*
X96413286Y-33659959D01*
X96386056Y-33584678D01*
X96343449Y-33532470D01*
X96291267Y-33512934D01*
X96265542Y-33506148D01*
X96250368Y-33470495D01*
X96250752Y-33461376D01*
X96260705Y-33440038D01*
X96292035Y-33430344D01*
X96355214Y-33428055D01*
X96396715Y-33429715D01*
G37*
G36*
X92987471Y-36314398D02*
G01*
X93034959Y-36320721D01*
X93116219Y-36332096D01*
X93226176Y-36347797D01*
X93359755Y-36367098D01*
X93511881Y-36389271D01*
X93677478Y-36413590D01*
X94361813Y-36514451D01*
X94361813Y-36707114D01*
X93990468Y-36789871D01*
X93880837Y-36814586D01*
X93776172Y-36838792D01*
X93693294Y-36858634D01*
X93638759Y-36872538D01*
X93619123Y-36878931D01*
X93619787Y-36880225D01*
X93632193Y-36886188D01*
X93663704Y-36895776D01*
X93718783Y-36910118D01*
X93801890Y-36930340D01*
X93917490Y-36957572D01*
X94070042Y-36992942D01*
X94361813Y-37060279D01*
X94361813Y-37152511D01*
X94360527Y-37190620D01*
X94349654Y-37236147D01*
X94324679Y-37255505D01*
X94296680Y-37262250D01*
X94231812Y-37276852D01*
X94135174Y-37298173D01*
X94011344Y-37325231D01*
X93864900Y-37357046D01*
X93700420Y-37392636D01*
X93522482Y-37431019D01*
X93335664Y-37471214D01*
X93144543Y-37512240D01*
X92953699Y-37553114D01*
X92767708Y-37592855D01*
X92591148Y-37630482D01*
X92428599Y-37665013D01*
X92284637Y-37695467D01*
X92163840Y-37720862D01*
X92070787Y-37740216D01*
X92010056Y-37752548D01*
X91986224Y-37756877D01*
X91979781Y-37752828D01*
X91968465Y-37719265D01*
X91963986Y-37662818D01*
X91965410Y-37622047D01*
X91976353Y-37576993D01*
X92001120Y-37557700D01*
X92027617Y-37551542D01*
X92091739Y-37537597D01*
X92189050Y-37516820D01*
X92315308Y-37490106D01*
X92466272Y-37458349D01*
X92637699Y-37422444D01*
X92825346Y-37383285D01*
X93024971Y-37341768D01*
X93223022Y-37300515D01*
X93408523Y-37261621D01*
X93576978Y-37226046D01*
X93724300Y-37194666D01*
X93846403Y-37168355D01*
X93939200Y-37147989D01*
X93998604Y-37134442D01*
X94020530Y-37128590D01*
X94021214Y-37124810D01*
X93999310Y-37120554D01*
X93989550Y-37119610D01*
X93942257Y-37111681D01*
X93865399Y-37096989D01*
X93767045Y-37077104D01*
X93655263Y-37053598D01*
X93341278Y-36986375D01*
X93347577Y-36879294D01*
X93353877Y-36772212D01*
X93659352Y-36708687D01*
X93669564Y-36706557D01*
X93795555Y-36678710D01*
X93880211Y-36656578D01*
X93923302Y-36640230D01*
X93924599Y-36629735D01*
X93923282Y-36629276D01*
X93886951Y-36621930D01*
X93816279Y-36611299D01*
X93718503Y-36598346D01*
X93600860Y-36584033D01*
X93470585Y-36569323D01*
X93431178Y-36565054D01*
X93280274Y-36548805D01*
X93165482Y-36535884D01*
X93081901Y-36524749D01*
X93024629Y-36513857D01*
X92988762Y-36501663D01*
X92969399Y-36486626D01*
X92961638Y-36467202D01*
X92960577Y-36441848D01*
X92961312Y-36409021D01*
X92962024Y-36380936D01*
X92967711Y-36332690D01*
X92977227Y-36313333D01*
X92987471Y-36314398D01*
G37*
G36*
X94977185Y-38181272D02*
G01*
X92303501Y-38181272D01*
X92303501Y-37926635D01*
X94722549Y-37926635D01*
X94722549Y-32685365D01*
X92558138Y-32685365D01*
X92558138Y-37162725D01*
X92303501Y-37162725D01*
X92303501Y-32430729D01*
X94977185Y-32430729D01*
X94977185Y-38181272D01*
G37*
G36*
X96483785Y-35528807D02*
G01*
X96420126Y-35528807D01*
X96375446Y-35522247D01*
X96356467Y-35496977D01*
X96360164Y-35482134D01*
X96388296Y-35465148D01*
X96390222Y-35465079D01*
X96405140Y-35455883D01*
X96414281Y-35426123D01*
X96418868Y-35368524D01*
X96420126Y-35275813D01*
X96420126Y-35086478D01*
X96201094Y-35307642D01*
X96161742Y-35347319D01*
X96086633Y-35421872D01*
X96031952Y-35472591D01*
X95991199Y-35504061D01*
X95957875Y-35520865D01*
X95925482Y-35527585D01*
X95887520Y-35528807D01*
X95791013Y-35514831D01*
X95716074Y-35468872D01*
X95664584Y-35388787D01*
X95642236Y-35321683D01*
X95639148Y-35242983D01*
X95667169Y-35159737D01*
X95704377Y-35106006D01*
X95757762Y-35059213D01*
X95813561Y-35030130D01*
X95858902Y-35027629D01*
X95886186Y-35048493D01*
X95880529Y-35077202D01*
X95838725Y-35103599D01*
X95787123Y-35133167D01*
X95738596Y-35194698D01*
X95720770Y-35268964D01*
X95735629Y-35344593D01*
X95785162Y-35410212D01*
X95798419Y-35421000D01*
X95843532Y-35452485D01*
X95872842Y-35465148D01*
X95922908Y-35447941D01*
X95995706Y-35395957D01*
X96089796Y-35309979D01*
X96204229Y-35190791D01*
X96289112Y-35101209D01*
X96352599Y-35041633D01*
X96398887Y-35008541D01*
X96432263Y-34998314D01*
X96483785Y-34998314D01*
X96483785Y-35528807D01*
G37*
G36*
X96323486Y-37427413D02*
G01*
X96408229Y-37469761D01*
X96465944Y-37531975D01*
X96480567Y-37561011D01*
X96497868Y-37642548D01*
X96490574Y-37726048D01*
X96459168Y-37792902D01*
X96428946Y-37820396D01*
X96348634Y-37861068D01*
X96243682Y-37889902D01*
X96124730Y-37905763D01*
X96002415Y-37907519D01*
X95887374Y-37894034D01*
X95790247Y-37864177D01*
X95785381Y-37861925D01*
X95700228Y-37802774D01*
X95650835Y-37725810D01*
X95641207Y-37650779D01*
X95730485Y-37650779D01*
X95732028Y-37679497D01*
X95750392Y-37727502D01*
X95798305Y-37769061D01*
X95887188Y-37810001D01*
X96003643Y-37832612D01*
X96127946Y-37833429D01*
X96245352Y-37812437D01*
X96341114Y-37769621D01*
X96371144Y-37746087D01*
X96413198Y-37685240D01*
X96415388Y-37621505D01*
X96378524Y-37560509D01*
X96303417Y-37507877D01*
X96226431Y-37481724D01*
X96114298Y-37467698D01*
X95995315Y-37471985D01*
X95884858Y-37493834D01*
X95798305Y-37532496D01*
X95772442Y-37551577D01*
X95739148Y-37593666D01*
X95730485Y-37650779D01*
X95641207Y-37650779D01*
X95639428Y-37636912D01*
X95668233Y-37541959D01*
X95715156Y-37482120D01*
X95797212Y-37434280D01*
X95912739Y-37406086D01*
X96064266Y-37396608D01*
X96114298Y-37399020D01*
X96207511Y-37403513D01*
X96323486Y-37427413D01*
G37*
G36*
X93928513Y-33074651D02*
G01*
X94069749Y-33109235D01*
X94188413Y-33159554D01*
X94276051Y-33225527D01*
X94281698Y-33231880D01*
X94320679Y-33289918D01*
X94352081Y-33357079D01*
X94377852Y-33471805D01*
X94371932Y-33600377D01*
X94330549Y-33718324D01*
X94256417Y-33818362D01*
X94152252Y-33893205D01*
X94081136Y-33922694D01*
X93940156Y-33958014D01*
X93779044Y-33977241D01*
X93609679Y-33980373D01*
X93443942Y-33967411D01*
X93293713Y-33938355D01*
X93170874Y-33893205D01*
X93109970Y-33855389D01*
X93024184Y-33768035D01*
X92968157Y-33661900D01*
X92943150Y-33545214D01*
X92945334Y-33509486D01*
X93121425Y-33509486D01*
X93121539Y-33517075D01*
X93143816Y-33607184D01*
X93203448Y-33678843D01*
X93298643Y-33729820D01*
X93336284Y-33738845D01*
X93418642Y-33748635D01*
X93524625Y-33754731D01*
X93643250Y-33757135D01*
X93763532Y-33755846D01*
X93874487Y-33750864D01*
X93965132Y-33742188D01*
X94024483Y-33729820D01*
X94029754Y-33727876D01*
X94094486Y-33694811D01*
X94146169Y-33654531D01*
X94159046Y-33639718D01*
X94199672Y-33560122D01*
X94201626Y-33477764D01*
X94166310Y-33401293D01*
X94095124Y-33339363D01*
X94082570Y-33332738D01*
X94004770Y-33305973D01*
X93899774Y-33284530D01*
X93779906Y-33270004D01*
X93657492Y-33263992D01*
X93544854Y-33268090D01*
X93490587Y-33273765D01*
X93348763Y-33297017D01*
X93244282Y-33330307D01*
X93173797Y-33375543D01*
X93133960Y-33434633D01*
X93121425Y-33509486D01*
X92945334Y-33509486D01*
X92950424Y-33426209D01*
X92991239Y-33313115D01*
X93066856Y-33214164D01*
X93080389Y-33202016D01*
X93179565Y-33140526D01*
X93306882Y-33095246D01*
X93453887Y-33066099D01*
X93612129Y-33053003D01*
X93657492Y-33053813D01*
X93773155Y-33055880D01*
X93928513Y-33074651D01*
G37*
G36*
X96265750Y-35843195D02*
G01*
X96357203Y-35873627D01*
X96386792Y-35890399D01*
X96443671Y-35933340D01*
X96478095Y-35974421D01*
X96500689Y-36051488D01*
X96491922Y-36142682D01*
X96447908Y-36224519D01*
X96372022Y-36287053D01*
X96334883Y-36301306D01*
X96251151Y-36317225D01*
X96146353Y-36325826D01*
X96033063Y-36327110D01*
X95923854Y-36321075D01*
X95831302Y-36307723D01*
X95767979Y-36287053D01*
X95701525Y-36232624D01*
X95653391Y-36158152D01*
X95637746Y-36092126D01*
X95723557Y-36092126D01*
X95732390Y-36130314D01*
X95766565Y-36180435D01*
X95828865Y-36215156D01*
X95923726Y-36236539D01*
X96055580Y-36246647D01*
X96136034Y-36248822D01*
X96208180Y-36247847D01*
X96257987Y-36241120D01*
X96296621Y-36226922D01*
X96335247Y-36203531D01*
X96357822Y-36186697D01*
X96408173Y-36125347D01*
X96419619Y-36061637D01*
X96394028Y-36001216D01*
X96333264Y-35949732D01*
X96239194Y-35912833D01*
X96185602Y-35901484D01*
X96064653Y-35890960D01*
X95952558Y-35900387D01*
X95855860Y-35927493D01*
X95781099Y-35970001D01*
X95734817Y-36025637D01*
X95723557Y-36092126D01*
X95637746Y-36092126D01*
X95634996Y-36080520D01*
X95635004Y-36078946D01*
X95655522Y-35996144D01*
X95710005Y-35921775D01*
X95790247Y-35867121D01*
X95803111Y-35861677D01*
X95902800Y-35835675D01*
X96023301Y-35824044D01*
X96064653Y-35824885D01*
X96149366Y-35826609D01*
X96265750Y-35843195D01*
G37*
G36*
X93379563Y-34193254D02*
G01*
X93492183Y-34216836D01*
X93582753Y-34274288D01*
X93653503Y-34367508D01*
X93706659Y-34498392D01*
X93732261Y-34582070D01*
X93760316Y-34670793D01*
X93782776Y-34738824D01*
X93791351Y-34760835D01*
X93842960Y-34836689D01*
X93911452Y-34880312D01*
X93988218Y-34891801D01*
X94064648Y-34871250D01*
X94132132Y-34818755D01*
X94182061Y-34734410D01*
X94193730Y-34699248D01*
X94207355Y-34593207D01*
X94189239Y-34477338D01*
X94138480Y-34343555D01*
X94115435Y-34292947D01*
X94094164Y-34243951D01*
X94085957Y-34221687D01*
X94092378Y-34218747D01*
X94129786Y-34214751D01*
X94189481Y-34213185D01*
X94189824Y-34213185D01*
X94246814Y-34216155D01*
X94285897Y-34230139D01*
X94313583Y-34262797D01*
X94336381Y-34321788D01*
X94360801Y-34414772D01*
X94370047Y-34466183D01*
X94376090Y-34576813D01*
X94369150Y-34694786D01*
X94350571Y-34803825D01*
X94321700Y-34887655D01*
X94287792Y-34944426D01*
X94216276Y-35017246D01*
X94122470Y-35060856D01*
X93998883Y-35079713D01*
X93903669Y-35079497D01*
X93800295Y-35058892D01*
X93717265Y-35011626D01*
X93650249Y-34933780D01*
X93594919Y-34821437D01*
X93546947Y-34670681D01*
X93523273Y-34589382D01*
X93486569Y-34496438D01*
X93445564Y-34436816D01*
X93396023Y-34405049D01*
X93333709Y-34395674D01*
X93302093Y-34398025D01*
X93224439Y-34428431D01*
X93166666Y-34488746D01*
X93130857Y-34572350D01*
X93119096Y-34672620D01*
X93133466Y-34782935D01*
X93176052Y-34896675D01*
X93179525Y-34903558D01*
X93207358Y-34966116D01*
X93209103Y-35001045D01*
X93181162Y-35016225D01*
X93119935Y-35019534D01*
X93095587Y-35019048D01*
X93050275Y-35011709D01*
X93018232Y-34990051D01*
X92994897Y-34947115D01*
X92975711Y-34875946D01*
X92956113Y-34769586D01*
X92951563Y-34738700D01*
X92949123Y-34591832D01*
X92978238Y-34461088D01*
X93035756Y-34351122D01*
X93118523Y-34266588D01*
X93223386Y-34212140D01*
X93347191Y-34192431D01*
X93379563Y-34193254D01*
G37*
G36*
X96066670Y-36685116D02*
G01*
X96133638Y-36751270D01*
X96167268Y-36833663D01*
X96164865Y-36923811D01*
X96123732Y-37013229D01*
X96118908Y-37020025D01*
X96093887Y-37058659D01*
X96093394Y-37074530D01*
X96116300Y-37077380D01*
X96128369Y-37076067D01*
X96179737Y-37061950D01*
X96241784Y-37037446D01*
X96266237Y-37025173D01*
X96350926Y-36955789D01*
X96402625Y-36860439D01*
X96420126Y-36741131D01*
X96422338Y-36689385D01*
X96433740Y-36642710D01*
X96453979Y-36635663D01*
X96482085Y-36669367D01*
X96496151Y-36701999D01*
X96503383Y-36786078D01*
X96481828Y-36879168D01*
X96435899Y-36971188D01*
X96370004Y-37052057D01*
X96288556Y-37111692D01*
X96252005Y-37124337D01*
X96170786Y-37136787D01*
X96065749Y-37141039D01*
X95976658Y-37137177D01*
X95840764Y-37111483D01*
X95739633Y-37061629D01*
X95673123Y-36987532D01*
X95646327Y-36905192D01*
X95723535Y-36905192D01*
X95756245Y-36970970D01*
X95825549Y-37024577D01*
X95862127Y-37041711D01*
X95919111Y-37053716D01*
X95970174Y-37035579D01*
X96029683Y-36984480D01*
X96062056Y-36948599D01*
X96096086Y-36885061D01*
X96090495Y-36827026D01*
X96045682Y-36769147D01*
X96006559Y-36740952D01*
X95925536Y-36716362D01*
X95842821Y-36725777D01*
X95771960Y-36769196D01*
X95728987Y-36834716D01*
X95723535Y-36905192D01*
X95646327Y-36905192D01*
X95641093Y-36889108D01*
X95638766Y-36869924D01*
X95639253Y-36819751D01*
X95658212Y-36779222D01*
X95702755Y-36729987D01*
X95711017Y-36721960D01*
X95803988Y-36659308D01*
X95905154Y-36637062D01*
X95925536Y-36640780D01*
X96010279Y-36656239D01*
X96066670Y-36685116D01*
G37*
G36*
X96199156Y-34262533D02*
G01*
X96305625Y-34276826D01*
X96382297Y-34303280D01*
X96437151Y-34345279D01*
X96478167Y-34406208D01*
X96499866Y-34467722D01*
X96497681Y-34556961D01*
X96456796Y-34638908D01*
X96379348Y-34707064D01*
X96352119Y-34722628D01*
X96310583Y-34739004D01*
X96258585Y-34748617D01*
X96185476Y-34753150D01*
X96080610Y-34754287D01*
X96079396Y-34754287D01*
X95967004Y-34752447D01*
X95886149Y-34746036D01*
X95826142Y-34733633D01*
X95776296Y-34713817D01*
X95772752Y-34712027D01*
X95695994Y-34652568D01*
X95651093Y-34575351D01*
X95639419Y-34489863D01*
X95642212Y-34479594D01*
X95722231Y-34479594D01*
X95728875Y-34538685D01*
X95765427Y-34597352D01*
X95826201Y-34643885D01*
X95892987Y-34665551D01*
X95987670Y-34677701D01*
X96093967Y-34679225D01*
X96198589Y-34670606D01*
X96288249Y-34652327D01*
X96349657Y-34624871D01*
X96376986Y-34599862D01*
X96412354Y-34535444D01*
X96413947Y-34466908D01*
X96380057Y-34406533D01*
X96349271Y-34382222D01*
X96260991Y-34344809D01*
X96145102Y-34325084D01*
X96009706Y-34324836D01*
X95992159Y-34326239D01*
X95875932Y-34347242D01*
X95791628Y-34388148D01*
X95732941Y-34451852D01*
X95722231Y-34479594D01*
X95642212Y-34479594D01*
X95662339Y-34405589D01*
X95721221Y-34332017D01*
X95768150Y-34298912D01*
X95825935Y-34274883D01*
X95899874Y-34261222D01*
X95998599Y-34256386D01*
X96009706Y-34256592D01*
X96130742Y-34258833D01*
X96199156Y-34262533D01*
G37*
%TO.C,JP3*%
X57166000Y-62375000D02*
X59166000Y-62375000D01*
X59166000Y-58275000D02*
X57166000Y-58275000D01*
X59366000Y-59025000D02*
X59666000Y-59325000D01*
X59666000Y-58725000D02*
X59666000Y-59325000D01*
X59366000Y-59025000D02*
X59666000Y-58725000D01*
X59166000Y-62375000D02*
X59166000Y-58275000D01*
X57166000Y-58275000D02*
X57166000Y-62375000D01*
%TO.C,JP2*%
X60722000Y-62502000D02*
X62722000Y-62502000D01*
X62722000Y-58402000D02*
X60722000Y-58402000D01*
X60722000Y-58402000D02*
X60722000Y-62502000D01*
X60222000Y-62052000D02*
X60222000Y-61452000D01*
X60522000Y-61752000D02*
X60222000Y-61452000D01*
X62722000Y-62502000D02*
X62722000Y-58402000D01*
X60522000Y-61752000D02*
X60222000Y-62052000D01*
%TD*%
M02*
