M48
; DRILL file {KiCad (6.0.2)} date Thu Mar 17 07:21:37 2022
; FORMAT={-:-/ absolute / inch / decimal}
; #@! TF.CreationDate,2022-03-17T07:21:37-04:00
; #@! TF.GenerationSoftware,Kicad,Pcbnew,(6.0.2)
; #@! TF.FileFunction,Plated,1,2,PTH
FMAT,2
INCH
; #@! TA.AperFunction,Plated,PTH,ViaDrill
T1C0.0079
; #@! TA.AperFunction,Plated,PTH,ViaDrill
T2C0.0118
; #@! TA.AperFunction,Plated,PTH,ViaDrill
T3C0.0157
; #@! TA.AperFunction,Plated,PTH,ComponentDrill
T4C0.0236
; #@! TA.AperFunction,Plated,PTH,ComponentDrill
T5C0.0295
; #@! TA.AperFunction,Plated,PTH,ComponentDrill
T6C0.0350
; #@! TA.AperFunction,Plated,PTH,ComponentDrill
T7C0.0354
; #@! TA.AperFunction,Plated,PTH,ComponentDrill
T8C0.0394
; #@! TA.AperFunction,Plated,PTH,ComponentDrill
T9C0.0591
%
G90
G05
T1
X2.24Y-2.045
X2.245Y-1.27
X2.245Y-1.605
X2.265Y-2.13
X2.265Y-2.265
X2.33Y-2.095
X2.335Y-1.635
X2.355Y-1.47
X2.38Y-1.58
X2.39Y-1.3
X2.395Y-1.655
X2.395Y-2.24
X2.425Y-2.43
X2.435Y-1.84
X2.435Y-1.94
X2.45Y-1.35
X2.45Y-1.74
X2.5Y-1.255
X2.51Y-1.98
X2.515Y-1.415
X2.515Y-1.885
X2.5972Y-1.3788
X2.6Y-2.215
X2.605Y-1.515
X2.61Y-1.27
X2.625Y-1.205
X2.65Y-2.09
X2.65Y-2.195
X2.69Y-2.09
X2.695Y-1.99
X2.73Y-1.605
X2.73Y-1.695
X2.745Y-2.025
X2.75Y-2.475
X2.77Y-1.61
X2.83Y-2.065
X2.85Y-2.35
X2.875Y-1.765
X2.875Y-1.85
X2.885Y-2.165
X2.895Y-2.475
X2.935Y-2.04
X3.035Y-2.24
X3.045Y-2.475
X3.065Y-1.85
X3.065Y-2.365
X3.075Y-1.635
X3.14Y-1.94
X3.205Y-1.65
X3.215Y-1.435
X3.215Y-1.77
X3.22Y-1.27
X3.23Y-1.91
X3.295Y-1.745
X3.345Y-2.255
X3.35Y-1.745
X3.36Y-1.255
X3.36Y-1.87
X3.385Y-2.485
X3.425Y-1.315
X3.44Y-2.105
X3.445Y-2.045
X3.455Y-2.415
X3.63Y-1.38
X3.64Y-2.04
X3.64Y-2.18
X3.655Y-1.585
X3.6622Y-1.485
X3.68Y-1.9
X3.69Y-1.265
X3.71Y-1.59
X3.715Y-1.41
X3.715Y-1.525
X3.78Y-2.18
X3.78Y-2.4
X3.785Y-1.3
X3.785Y-1.49
T2
X3.4866Y-1.4255
T3
X2.3594Y-2.3044
X2.36Y-1.325
X2.36Y-2.14
X2.37Y-2.368
X2.41Y-2.07
X2.455Y-1.445
X2.47Y-1.59
X2.49Y-2.18
X2.53Y-2.2356
X2.53Y-2.36
X2.59Y-2.36
X2.6Y-1.8
X2.63Y-1.58
X2.635Y-1.775
X2.665Y-1.945
X2.6675Y-1.88
X2.704Y-1.88
X2.71Y-2.185
X2.7242Y-1.65
X2.725Y-1.56
X2.7356Y-1.4494
X2.745Y-1.73
X2.745Y-2.23
X2.75Y-2.1174
X2.79Y-1.465
X2.79Y-1.744
X2.795Y-2.1325
X2.795Y-2.195
X2.7969Y-1.794
X2.8Y-1.5001
X2.84Y-1.9505
X2.849Y-2.011
X2.8807Y-1.5741
X2.8807Y-1.6524
X2.9062Y-1.9562
X2.91Y-1.875
X2.93Y-1.75
X2.9344Y-2.095
X2.9583Y-1.5741
X2.9602Y-1.6544
X2.985Y-1.77
X2.988Y-2.022
X3.0008Y-1.9279
X3.0209Y-1.78
X3.07Y-1.735
X3.08Y-2.22
X3.1Y-1.92
X3.1Y-2.02
X3.11Y-1.46
X3.1376Y-1.8004
X3.14Y-1.706
X3.141Y-1.743
X3.15Y-1.9
X3.18Y-1.87
X3.18Y-2.33
X3.19Y-2.01
X3.2Y-2.115
X3.224Y-1.612
X3.23Y-2.23
X3.26Y-1.785
X3.29Y-2.48
X3.32Y-1.89
X3.32Y-2.04
X3.3281Y-2.1319
X3.35Y-2.48
X3.37Y-1.645
X3.3814Y-1.9985
X3.41Y-1.42
X3.45Y-1.71
X3.4586Y-1.2863
X3.49Y-1.77
X3.4959Y-2.3387
X3.4992Y-1.6992
X3.5Y-1.59
X3.5047Y-1.291
X3.51Y-1.21
X3.52Y-1.348
X3.52Y-1.388
X3.5331Y-2.3396
X3.562Y-1.874
X3.566Y-1.792
X3.5666Y-1.5172
X3.57Y-2.41
X3.58Y-2.18
X3.62Y-1.64
X3.73Y-1.64
T5
X2.7325Y-2.2979
X2.8113Y-2.2979
X2.89Y-2.2979
X2.9687Y-2.2979
X3.0475Y-2.2979
X3.502Y-1.8613
X3.502Y-1.94
T6
X2.5606Y-1.2483
X2.5606Y-1.3433
X2.5606Y-1.4483
X2.5606Y-1.5483
X2.5606Y-1.6483
X2.5606Y-1.7483
X2.5606Y-1.8483
X2.5606Y-1.9483
X2.5606Y-2.0483
X2.5606Y-2.1483
T7
X3.7113Y-2.2092
X3.7113Y-2.2879
X3.7113Y-2.3667
T8
X2.275Y-1.355
X2.275Y-1.455
X2.275Y-1.555
X2.275Y-1.655
X2.275Y-1.755
X2.275Y-1.855
X2.275Y-1.955
T9
X3.7113Y-2.1265
X3.7113Y-2.4493
T4
G00X3.5761Y-1.2178
M15
G01X3.6194Y-1.2178
M16
G05
G00X3.5761Y-1.558
M15
G01X3.6194Y-1.558
M16
G05
G00X3.7505Y-1.2178
M15
G01X3.7741Y-1.2178
M16
G05
G00X3.7505Y-1.558
M15
G01X3.7741Y-1.558
M16
G05
T0
M30
