%TF.GenerationSoftware,KiCad,Pcbnew,(6.0.2)*%
%TF.CreationDate,2022-10-11T17:03:13-04:00*%
%TF.ProjectId,ferrous_slime,66657272-6f75-4735-9f73-6c696d652e6b,v0.2.0*%
%TF.SameCoordinates,Original*%
%TF.FileFunction,Profile,NP*%
%FSLAX46Y46*%
G04 Gerber Fmt 4.6, Leading zero omitted, Abs format (unit mm)*
G04 Created by KiCad (PCBNEW (6.0.2)) date 2022-10-11 17:03:13*
%MOMM*%
%LPD*%
G01*
G04 APERTURE LIST*
%TA.AperFunction,Profile*%
%ADD10C,0.050000*%
%TD*%
G04 APERTURE END LIST*
D10*
X97155000Y-30353000D02*
G75*
G03*
X96647000Y-29845000I-508001J-1D01*
G01*
X95377000Y-51943000D02*
X96647000Y-51943000D01*
X55753000Y-63373000D02*
X55753000Y-30353000D01*
X97155000Y-30353000D02*
X97155000Y-44323000D01*
X97155000Y-52451000D02*
G75*
G03*
X96647000Y-51943000I-508001J-1D01*
G01*
X97155000Y-52451000D02*
X97155000Y-63373000D01*
X96647000Y-63881000D02*
X56261000Y-63881000D01*
X96647000Y-44831000D02*
G75*
G03*
X97155000Y-44323000I-1J508001D01*
G01*
X56261000Y-29845000D02*
G75*
G03*
X55753000Y-30353000I1J-508001D01*
G01*
X81534000Y-29845000D02*
G75*
G03*
X81026000Y-30353000I1J-508001D01*
G01*
X56261000Y-29845000D02*
X66802000Y-29845000D01*
X95377000Y-44831000D02*
X95377000Y-51943000D01*
X67310000Y-30353000D02*
G75*
G03*
X66802000Y-29845000I-508001J-1D01*
G01*
X81534000Y-29845000D02*
X96647000Y-29845000D01*
X96647000Y-63881000D02*
G75*
G03*
X97155000Y-63373000I-1J508001D01*
G01*
X96647000Y-44831000D02*
X95377000Y-44831000D01*
X81026000Y-35232010D02*
X81026000Y-30353000D01*
X55753000Y-63373000D02*
G75*
G03*
X56261000Y-63881000I508001J1D01*
G01*
X67310000Y-30353000D02*
X67310000Y-35232010D01*
X67310000Y-35232010D02*
X81026000Y-35232010D01*
M02*
