%TF.GenerationSoftware,KiCad,Pcbnew,(6.0.2)*%
%TF.CreationDate,2022-03-17T07:21:37-04:00*%
%TF.ProjectId,ferrous_slime,66657272-6f75-4735-9f73-6c696d652e6b,v0.1.0*%
%TF.SameCoordinates,Original*%
%TF.FileFunction,Soldermask,Top*%
%TF.FilePolarity,Negative*%
%FSLAX46Y46*%
G04 Gerber Fmt 4.6, Leading zero omitted, Abs format (unit mm)*
G04 Created by KiCad (PCBNEW (6.0.2)) date 2022-03-17 07:21:37*
%MOMM*%
%LPD*%
G01*
G04 APERTURE LIST*
G04 Aperture macros list*
%AMRoundRect*
0 Rectangle with rounded corners*
0 $1 Rounding radius*
0 $2 $3 $4 $5 $6 $7 $8 $9 X,Y pos of 4 corners*
0 Add a 4 corners polygon primitive as box body*
4,1,4,$2,$3,$4,$5,$6,$7,$8,$9,$2,$3,0*
0 Add four circle primitives for the rounded corners*
1,1,$1+$1,$2,$3*
1,1,$1+$1,$4,$5*
1,1,$1+$1,$6,$7*
1,1,$1+$1,$8,$9*
0 Add four rect primitives between the rounded corners*
20,1,$1+$1,$2,$3,$4,$5,0*
20,1,$1+$1,$4,$5,$6,$7,0*
20,1,$1+$1,$6,$7,$8,$9,0*
20,1,$1+$1,$8,$9,$2,$3,0*%
%AMFreePoly0*
4,1,6,0.725000,-0.725000,-0.725000,-0.725000,-0.725000,0.125000,-0.125000,0.725000,0.725000,0.725000,0.725000,-0.725000,0.725000,-0.725000,$1*%
G04 Aperture macros list end*
%ADD10RoundRect,0.250000X-0.350000X-0.625000X0.350000X-0.625000X0.350000X0.625000X-0.350000X0.625000X0*%
%ADD11O,1.200000X1.750000*%
%ADD12RoundRect,0.200000X-0.200000X-0.275000X0.200000X-0.275000X0.200000X0.275000X-0.200000X0.275000X0*%
%ADD13RoundRect,0.225000X0.225000X0.250000X-0.225000X0.250000X-0.225000X-0.250000X0.225000X-0.250000X0*%
%ADD14RoundRect,0.200000X-0.275000X0.200000X-0.275000X-0.200000X0.275000X-0.200000X0.275000X0.200000X0*%
%ADD15RoundRect,0.225000X-0.250000X0.225000X-0.250000X-0.225000X0.250000X-0.225000X0.250000X0.225000X0*%
%ADD16C,1.000000*%
%ADD17RoundRect,0.200000X0.275000X-0.200000X0.275000X0.200000X-0.275000X0.200000X-0.275000X-0.200000X0*%
%ADD18RoundRect,0.218750X-0.218750X-0.256250X0.218750X-0.256250X0.218750X0.256250X-0.218750X0.256250X0*%
%ADD19RoundRect,0.150000X-0.150000X0.587500X-0.150000X-0.587500X0.150000X-0.587500X0.150000X0.587500X0*%
%ADD20R,0.900000X1.200000*%
%ADD21RoundRect,0.200000X0.200000X0.275000X-0.200000X0.275000X-0.200000X-0.275000X0.200000X-0.275000X0*%
%ADD22R,1.000000X1.800000*%
%ADD23RoundRect,0.150000X0.150000X-0.512500X0.150000X0.512500X-0.150000X0.512500X-0.150000X-0.512500X0*%
%ADD24RoundRect,0.250000X0.625000X-0.350000X0.625000X0.350000X-0.625000X0.350000X-0.625000X-0.350000X0*%
%ADD25O,1.750000X1.200000*%
%ADD26RoundRect,0.225000X0.250000X-0.225000X0.250000X0.225000X-0.250000X0.225000X-0.250000X-0.225000X0*%
%ADD27RoundRect,0.218750X-0.256250X0.218750X-0.256250X-0.218750X0.256250X-0.218750X0.256250X0.218750X0*%
%ADD28R,0.700000X0.600000*%
%ADD29O,3.500000X2.200000*%
%ADD30R,2.500000X1.500000*%
%ADD31O,2.500000X1.500000*%
%ADD32R,0.800000X0.400000*%
%ADD33R,0.400000X0.800000*%
%ADD34R,0.700000X0.700000*%
%ADD35R,1.450000X1.450000*%
%ADD36FreePoly0,0.000000*%
%ADD37R,1.000000X1.500000*%
%ADD38C,0.650000*%
%ADD39R,1.150000X0.300000*%
%ADD40O,2.100000X1.000000*%
%ADD41O,1.600000X1.000000*%
%ADD42C,1.651000*%
%ADD43R,1.651000X1.651000*%
%ADD44RoundRect,0.225000X-0.225000X-0.250000X0.225000X-0.250000X0.225000X0.250000X-0.225000X0.250000X0*%
%ADD45R,0.600000X0.700000*%
%ADD46RoundRect,0.150000X0.150000X-0.650000X0.150000X0.650000X-0.150000X0.650000X-0.150000X-0.650000X0*%
%ADD47R,3.200000X2.400000*%
%ADD48R,0.700000X0.500000*%
%ADD49R,3.400000X1.300000*%
%ADD50R,1.700000X1.700000*%
%ADD51O,1.700000X1.700000*%
G04 APERTURE END LIST*
D10*
%TO.C,J1*%
X69406008Y-58367000D03*
D11*
X71406008Y-58367000D03*
X73406008Y-58367000D03*
X75406008Y-58367000D03*
X77406008Y-58367000D03*
%TD*%
D12*
%TO.C,R11*%
X89091000Y-53541000D03*
X90741000Y-53541000D03*
%TD*%
D13*
%TO.C,C10*%
X85103000Y-62939000D03*
X83553000Y-62939000D03*
%TD*%
D14*
%TO.C,R10*%
X70993000Y-54166000D03*
X70993000Y-55816000D03*
%TD*%
D12*
%TO.C,R3*%
X76645000Y-54811000D03*
X78295000Y-54811000D03*
%TD*%
D15*
%TO.C,C3*%
X73787000Y-51041000D03*
X73787000Y-52591000D03*
%TD*%
D16*
%TO.C,TP3*%
X87122000Y-62685000D03*
%TD*%
D17*
%TO.C,R9*%
X72517000Y-55816000D03*
X72517000Y-54166000D03*
%TD*%
%TO.C,R5*%
X82804000Y-34299990D03*
X82804000Y-32649990D03*
%TD*%
D18*
%TO.C,D5*%
X82778500Y-43381000D03*
X84353500Y-43381000D03*
%TD*%
D16*
%TO.C,TP1*%
X81534000Y-62738000D03*
%TD*%
D18*
%TO.C,D3*%
X83193500Y-30935000D03*
X84768500Y-30935000D03*
%TD*%
D12*
%TO.C,R7*%
X81217000Y-49276000D03*
X82867000Y-49276000D03*
%TD*%
D19*
%TO.C,Q1*%
X86294000Y-48031490D03*
X84394000Y-48031490D03*
X85344000Y-49906490D03*
%TD*%
D20*
%TO.C,D2*%
X82932000Y-45667000D03*
X86232000Y-45667000D03*
%TD*%
D21*
%TO.C,R4*%
X86169000Y-51763000D03*
X84519000Y-51763000D03*
%TD*%
D13*
%TO.C,C9*%
X82817000Y-51001000D03*
X81267000Y-51001000D03*
%TD*%
D15*
%TO.C,C5*%
X59436000Y-56756000D03*
X59436000Y-58306000D03*
%TD*%
D22*
%TO.C,Y1*%
X76220000Y-48968990D03*
X78720000Y-48968990D03*
%TD*%
D23*
%TO.C,U4*%
X88796622Y-59303500D03*
X89746622Y-59303500D03*
X90696622Y-59303500D03*
X90696622Y-57028500D03*
X88796622Y-57028500D03*
%TD*%
D24*
%TO.C,J3*%
X88950800Y-49276000D03*
D25*
X88950800Y-47276000D03*
%TD*%
D12*
%TO.C,R12*%
X89091000Y-55319000D03*
X90741000Y-55319000D03*
%TD*%
D26*
%TO.C,C1*%
X74168000Y-55766000D03*
X74168000Y-54216000D03*
%TD*%
D17*
%TO.C,R8*%
X87884000Y-34290008D03*
X87884000Y-32640008D03*
%TD*%
D27*
%TO.C,D4*%
X86267000Y-32662000D03*
X86267000Y-34237000D03*
%TD*%
D28*
%TO.C,D7*%
X88552173Y-37611489D03*
X88552173Y-36211489D03*
%TD*%
%TO.C,D6*%
X88646000Y-38924000D03*
X88646000Y-40324000D03*
%TD*%
D20*
%TO.C,D8*%
X90552000Y-43634990D03*
X93852000Y-43634990D03*
%TD*%
D29*
%TO.C,SW1*%
X94266004Y-62212986D03*
X94266004Y-54012986D03*
D30*
X94266004Y-60112986D03*
D31*
X94266004Y-58112986D03*
X94266004Y-56112986D03*
%TD*%
D32*
%TO.C,U2*%
X68268000Y-37004007D03*
X68268000Y-37804007D03*
X68268000Y-38604007D03*
X68268000Y-39404007D03*
X68268000Y-40204007D03*
X68268000Y-41004007D03*
X68268000Y-41804007D03*
X68268000Y-42604007D03*
X68268000Y-43404007D03*
X68268000Y-44204007D03*
X68268000Y-45004007D03*
D33*
X69368000Y-45904007D03*
X70168000Y-45904007D03*
X70968000Y-45904007D03*
X71768000Y-45904007D03*
X72568000Y-45904007D03*
X73368000Y-45904007D03*
X74168000Y-45904007D03*
X74968000Y-45904007D03*
X75768000Y-45904007D03*
X76568000Y-45904007D03*
X77368000Y-45904007D03*
X78168000Y-45904007D03*
X78968000Y-45904007D03*
D32*
X80068000Y-45004007D03*
X80068000Y-44204007D03*
X80068000Y-43404007D03*
X80068000Y-42604007D03*
X80068000Y-41804007D03*
X80068000Y-41004007D03*
X80068000Y-40204007D03*
X80068000Y-39404007D03*
X80068000Y-38604007D03*
X80068000Y-37804007D03*
X80068000Y-37004007D03*
D33*
X74968000Y-36104007D03*
X73368000Y-36104007D03*
D34*
X68218000Y-45954007D03*
D35*
X76143000Y-42979007D03*
X74168000Y-41004007D03*
D33*
X74168000Y-36104007D03*
X70968000Y-36104007D03*
D35*
X74168000Y-42979007D03*
X76143000Y-39029007D03*
D34*
X80118000Y-36054007D03*
D36*
X72193000Y-39029007D03*
D34*
X80118000Y-45954007D03*
D33*
X76568000Y-36104007D03*
D34*
X68218000Y-36054007D03*
D35*
X72193000Y-42979007D03*
X76143000Y-41004007D03*
X72193000Y-41054007D03*
X74168000Y-39029007D03*
D33*
X78968000Y-36104007D03*
X70168000Y-36104007D03*
X69368000Y-36104007D03*
X78168000Y-36104007D03*
X75768000Y-36104007D03*
X71768000Y-36104007D03*
X72568000Y-36104007D03*
X77368000Y-36104007D03*
%TD*%
D37*
%TO.C,JP1*%
X57628000Y-61415000D03*
X58928000Y-61415000D03*
X60228000Y-61415000D03*
%TD*%
D38*
%TO.C,J4*%
X91883000Y-32362990D03*
X91883000Y-38142990D03*
D39*
X90818000Y-38602990D03*
X90818000Y-37802990D03*
X90818000Y-36502990D03*
X90818000Y-35502990D03*
X90818000Y-35002990D03*
X90818000Y-34002990D03*
X90818000Y-32702990D03*
X90818000Y-31902990D03*
X90818000Y-32202990D03*
X90818000Y-33002990D03*
X90818000Y-33502990D03*
X90818000Y-34502990D03*
X90818000Y-36002990D03*
X90818000Y-37002990D03*
X90818000Y-37502990D03*
X90818000Y-38302990D03*
D40*
X91383000Y-39572990D03*
X91383000Y-30932990D03*
D41*
X95563000Y-30932990D03*
X95563000Y-39572990D03*
%TD*%
D42*
%TO.C,U1*%
X65038460Y-31707462D03*
X65038460Y-34120462D03*
D43*
X65038460Y-54567462D03*
D42*
X65038460Y-52027462D03*
X65038460Y-49487462D03*
X65038460Y-46947462D03*
X65038460Y-44407462D03*
X65038460Y-41867462D03*
X65038460Y-39327462D03*
X65038460Y-36787462D03*
%TD*%
D16*
%TO.C,TP2*%
X95758000Y-43635000D03*
%TD*%
D44*
%TO.C,C12*%
X89128000Y-62685000D03*
X90678000Y-62685000D03*
%TD*%
D45*
%TO.C,D9*%
X93471999Y-41602990D03*
X94871999Y-41602990D03*
%TD*%
D17*
%TO.C,R1*%
X73914000Y-49593000D03*
X73914000Y-47943000D03*
%TD*%
D46*
%TO.C,U3*%
X82931000Y-41458990D03*
X84201000Y-41458990D03*
X85471000Y-41458990D03*
X86741000Y-41458990D03*
X86741000Y-36158990D03*
X85471000Y-36158990D03*
X84201000Y-36158990D03*
X82931000Y-36158990D03*
D47*
X84836000Y-38808990D03*
%TD*%
D21*
%TO.C,R13*%
X87947000Y-30934990D03*
X86297000Y-30934990D03*
%TD*%
D37*
%TO.C,JP3*%
X62962000Y-57859000D03*
X64262000Y-57859000D03*
X65562000Y-57859000D03*
%TD*%
D17*
%TO.C,R6*%
X84743000Y-34300000D03*
X84743000Y-32650000D03*
%TD*%
D44*
%TO.C,C11*%
X89128000Y-61161000D03*
X90678000Y-61161000D03*
%TD*%
D37*
%TO.C,JP2*%
X62962000Y-61415000D03*
X64262000Y-61415000D03*
X65562000Y-61415000D03*
%TD*%
D15*
%TO.C,C4*%
X67513200Y-47942200D03*
X67513200Y-49492200D03*
%TD*%
D26*
%TO.C,C6*%
X76200000Y-52792000D03*
X76200000Y-51242000D03*
%TD*%
D15*
%TO.C,C2*%
X72136000Y-47993000D03*
X72136000Y-49543000D03*
%TD*%
D21*
%TO.C,R2*%
X87439000Y-43380990D03*
X85789000Y-43380990D03*
%TD*%
D48*
%TO.C,D1*%
X69850000Y-50438000D03*
X69850000Y-49638000D03*
%TD*%
D49*
%TO.C,L1*%
X84963000Y-58327000D03*
X84963000Y-56227000D03*
%TD*%
D50*
%TO.C,J2*%
X57785000Y-34417000D03*
D51*
X57785000Y-36957000D03*
X57785000Y-39497000D03*
X57785000Y-42037000D03*
X57785000Y-44577000D03*
X57785000Y-47117000D03*
X57785000Y-49657000D03*
%TD*%
D26*
%TO.C,C7*%
X78740000Y-52792000D03*
X78740000Y-51242000D03*
%TD*%
D12*
%TO.C,R14*%
X90361000Y-41603000D03*
X92011000Y-41603000D03*
%TD*%
D15*
%TO.C,C8*%
X88900000Y-41590000D03*
X88900000Y-43140000D03*
%TD*%
M02*
