%TF.GenerationSoftware,KiCad,Pcbnew,(6.0.2)*%
%TF.CreationDate,2022-10-11T17:03:13-04:00*%
%TF.ProjectId,ferrous_slime,66657272-6f75-4735-9f73-6c696d652e6b,v0.2.0*%
%TF.SameCoordinates,Original*%
%TF.FileFunction,Soldermask,Bot*%
%TF.FilePolarity,Negative*%
%FSLAX46Y46*%
G04 Gerber Fmt 4.6, Leading zero omitted, Abs format (unit mm)*
G04 Created by KiCad (PCBNEW (6.0.2)) date 2022-10-11 17:03:13*
%MOMM*%
%LPD*%
G01*
G04 APERTURE LIST*
G04 Aperture macros list*
%AMRoundRect*
0 Rectangle with rounded corners*
0 $1 Rounding radius*
0 $2 $3 $4 $5 $6 $7 $8 $9 X,Y pos of 4 corners*
0 Add a 4 corners polygon primitive as box body*
4,1,4,$2,$3,$4,$5,$6,$7,$8,$9,$2,$3,0*
0 Add four circle primitives for the rounded corners*
1,1,$1+$1,$2,$3*
1,1,$1+$1,$4,$5*
1,1,$1+$1,$6,$7*
1,1,$1+$1,$8,$9*
0 Add four rect primitives between the rounded corners*
20,1,$1+$1,$2,$3,$4,$5,0*
20,1,$1+$1,$4,$5,$6,$7,0*
20,1,$1+$1,$6,$7,$8,$9,0*
20,1,$1+$1,$8,$9,$2,$3,0*%
%AMFreePoly0*
4,1,20,0.000000,0.744959,0.073905,0.744508,0.209726,0.703889,0.328688,0.626782,0.421226,0.519385,0.479903,0.390333,0.500000,0.250000,0.500000,-0.250000,0.499851,-0.262216,0.476331,-0.402017,0.414519,-0.529596,0.319384,-0.634700,0.198574,-0.708877,0.061801,-0.746166,0.000000,-0.745033,0.000000,-0.750000,-0.500000,-0.750000,-0.500000,0.750000,0.000000,0.750000,0.000000,0.744959,
0.000000,0.744959,$1*%
%AMFreePoly1*
4,1,22,0.500000,-0.750000,0.000000,-0.750000,0.000000,-0.745033,-0.079941,-0.743568,-0.215256,-0.701293,-0.333266,-0.622738,-0.424486,-0.514219,-0.481581,-0.384460,-0.499164,-0.250000,-0.500000,-0.250000,-0.500000,0.250000,-0.499164,0.250000,-0.499963,0.256109,-0.478152,0.396186,-0.417904,0.524511,-0.324060,0.630769,-0.204165,0.706417,-0.067858,0.745374,0.000000,0.744959,0.000000,0.750000,
0.500000,0.750000,0.500000,-0.750000,0.500000,-0.750000,$1*%
G04 Aperture macros list end*
%ADD10C,2.100000*%
%ADD11RoundRect,0.250000X-0.350000X-0.625000X0.350000X-0.625000X0.350000X0.625000X-0.350000X0.625000X0*%
%ADD12O,1.200000X1.750000*%
%ADD13RoundRect,0.250000X0.625000X-0.350000X0.625000X0.350000X-0.625000X0.350000X-0.625000X-0.350000X0*%
%ADD14O,1.750000X1.200000*%
%ADD15O,2.500000X1.500000*%
%ADD16R,2.500000X1.500000*%
%ADD17O,3.500000X2.200000*%
%ADD18O,1.600000X1.000000*%
%ADD19O,2.100000X1.000000*%
%ADD20C,0.650000*%
%ADD21C,1.651000*%
%ADD22R,1.651000X1.651000*%
%ADD23R,1.778000X1.778000*%
%ADD24R,1.700000X1.700000*%
%ADD25O,1.700000X1.700000*%
%ADD26FreePoly0,90.000000*%
%ADD27FreePoly1,90.000000*%
%ADD28R,1.500000X1.000000*%
G04 APERTURE END LIST*
D10*
%TO.C,H3*%
X61722000Y-32258000D03*
%TD*%
D11*
%TO.C,J1*%
X69850000Y-58367000D03*
D12*
X71850000Y-58367000D03*
X73850000Y-58367000D03*
X75850000Y-58367000D03*
X77850000Y-58367000D03*
%TD*%
D10*
%TO.C,H1*%
X64770000Y-60833000D03*
%TD*%
D13*
%TO.C,J3*%
X88950800Y-49276000D03*
D14*
X88950800Y-47276000D03*
%TD*%
D10*
%TO.C,H2*%
X85598000Y-59563000D03*
%TD*%
D15*
%TO.C,SW1*%
X94266004Y-56112986D03*
X94266004Y-58112986D03*
D16*
X94266004Y-60112986D03*
D17*
X94266004Y-54012986D03*
X94266004Y-62212986D03*
%TD*%
D18*
%TO.C,J4*%
X95563000Y-39572990D03*
X95563000Y-30932990D03*
D19*
X91383000Y-30932990D03*
X91383000Y-39572990D03*
D20*
X91883000Y-38142990D03*
X91883000Y-32362990D03*
%TD*%
D21*
%TO.C,U1*%
X64784460Y-34120462D03*
X64784460Y-36787462D03*
X64784460Y-39327462D03*
X64784460Y-41867462D03*
X64784460Y-44407462D03*
X64784460Y-46947462D03*
X64784460Y-49487462D03*
X64784460Y-52027462D03*
D22*
X64784460Y-54567462D03*
D23*
X64770000Y-57096990D03*
D21*
X64784460Y-31707462D03*
%TD*%
D24*
%TO.C,J2*%
X57785000Y-34417000D03*
D25*
X57785000Y-36957000D03*
X57785000Y-39497000D03*
X57785000Y-42037000D03*
X57785000Y-44577000D03*
X57785000Y-47117000D03*
X57785000Y-49657000D03*
%TD*%
D26*
%TO.C,JP4*%
X62611000Y-54976000D03*
D27*
X62611000Y-56276000D03*
%TD*%
D28*
%TO.C,JP1*%
X59563000Y-54199000D03*
X59563000Y-55499000D03*
X59563000Y-56799000D03*
%TD*%
%TO.C,JP3*%
X58166000Y-59025000D03*
X58166000Y-60325000D03*
X58166000Y-61625000D03*
%TD*%
%TO.C,JP2*%
X61722000Y-61752000D03*
X61722000Y-60452000D03*
X61722000Y-59152000D03*
%TD*%
M02*
