M48
; DRILL file {KiCad (6.0.2)} date Wed Oct 12 05:29:00 2022
; FORMAT={-:-/ absolute / inch / decimal}
; #@! TF.CreationDate,2022-10-12T05:29:00-04:00
; #@! TF.GenerationSoftware,Kicad,Pcbnew,(6.0.2)
; #@! TF.FileFunction,Plated,1,2,PTH
FMAT,2
INCH
; #@! TA.AperFunction,Plated,PTH,ViaDrill
T1C0.0079
; #@! TA.AperFunction,Plated,PTH,ViaDrill
T2C0.0118
; #@! TA.AperFunction,Plated,PTH,ViaDrill
T3C0.0157
; #@! TA.AperFunction,Plated,PTH,ComponentDrill
T4C0.0236
; #@! TA.AperFunction,Plated,PTH,ComponentDrill
T5C0.0295
; #@! TA.AperFunction,Plated,PTH,ComponentDrill
T6C0.0350
; #@! TA.AperFunction,Plated,PTH,ComponentDrill
T7C0.0354
; #@! TA.AperFunction,Plated,PTH,ComponentDrill
T8C0.0394
; #@! TA.AperFunction,Plated,PTH,ComponentDrill
T9C0.0591
%
G90
G05
T1
X2.22Y-2.135
X2.245Y-1.27
X2.245Y-1.605
X2.255Y-2.24
X2.31Y-2.04
X2.35Y-1.525
X2.355Y-1.47
X2.355Y-1.77
X2.355Y-2.285
X2.36Y-1.605
X2.385Y-1.37
X2.41Y-2.06
X2.415Y-1.61
X2.415Y-1.905
X2.4604Y-1.865
X2.47Y-1.73
X2.485Y-1.36
X2.5078Y-1.415
X2.515Y-1.895
X2.5972Y-1.3788
X2.6Y-1.475
X2.605Y-1.515
X2.61Y-1.27
X2.625Y-1.205
X2.655Y-2.09
X2.72Y-1.705
X2.73Y-1.605
X2.745Y-2.1
X2.755Y-2.02
X2.755Y-2.475
X2.76Y-2.4
X2.77Y-1.61
X2.83Y-2.065
X2.85Y-2.35
X2.875Y-1.765
X2.875Y-1.85
X2.885Y-2.165
X2.895Y-2.475
X2.935Y-2.04
X3.05Y-2.24
X3.06Y-2.475
X3.065Y-1.85
X3.065Y-2.365
X3.075Y-1.635
X3.105Y-1.76
X3.14Y-1.94
X3.205Y-1.6984
X3.215Y-1.435
X3.215Y-1.765
X3.22Y-1.27
X3.23Y-1.91
X3.295Y-1.745
X3.335Y-2.25
X3.35Y-1.745
X3.36Y-1.255
X3.36Y-1.87
X3.385Y-2.485
X3.425Y-1.315
X3.445Y-2.045
X3.455Y-2.415
X3.535Y-2.21
X3.57Y-1.875
X3.63Y-1.38
X3.64Y-2.04
X3.64Y-2.18
X3.655Y-1.585
X3.6622Y-1.485
X3.68Y-1.9
X3.69Y-1.265
X3.71Y-1.59
X3.715Y-1.41
X3.715Y-1.525
X3.78Y-1.275
X3.78Y-2.18
X3.78Y-2.4
X3.785Y-1.505
T2
X3.49Y-1.415
T3
X2.245Y-2.08
X2.345Y-1.325
X2.36Y-2.085
X2.3832Y-2.415
X2.3838Y-2.3609
X2.43Y-2.285
X2.435Y-1.42
X2.46Y-1.465
X2.495Y-1.59
X2.605Y-1.8
X2.61Y-2.135
X2.63Y-1.58
X2.635Y-1.775
X2.6636Y-1.8776
X2.6636Y-1.93
X2.7Y-2.0599
X2.7Y-1.6744
X2.72Y-1.575
X2.7227Y-1.9023
X2.7295Y-2.1855
X2.73Y-2.135
X2.7356Y-1.4494
X2.745Y-1.73
X2.745Y-2.23
X2.79Y-1.465
X2.79Y-1.744
X2.795Y-2.115
X2.795Y-2.2014
X2.7982Y-1.7843
X2.8Y-1.5001
X2.84Y-1.9505
X2.849Y-2.011
X2.8807Y-1.5741
X2.8807Y-1.6524
X2.9062Y-1.9562
X2.91Y-1.875
X2.93Y-1.75
X2.9344Y-2.095
X2.9583Y-1.5741
X2.9602Y-1.6544
X2.9806Y-2.03
X2.985Y-1.77
X3.0008Y-1.9279
X3.0209Y-1.78
X3.07Y-1.735
X3.075Y-2.0
X3.08Y-2.22
X3.1Y-1.92
X3.11Y-1.46
X3.1376Y-1.8004
X3.14Y-1.706
X3.141Y-1.743
X3.15Y-1.9
X3.18Y-1.87
X3.18Y-2.33
X3.19Y-2.01
X3.2Y-2.115
X3.224Y-1.612
X3.23Y-2.23
X3.24Y-1.785
X3.29Y-2.48
X3.3135Y-1.5
X3.3135Y-1.555
X3.32Y-1.89
X3.32Y-2.04
X3.33Y-2.1
X3.35Y-2.48
X3.38Y-1.66
X3.3814Y-1.9985
X3.385Y-1.5
X3.385Y-1.555
X3.4Y-1.42
X3.445Y-1.735
X3.45Y-1.27
X3.48Y-1.33
X3.4959Y-2.3387
X3.51Y-1.21
X3.51Y-1.72
X3.5104Y-1.5858
X3.52Y-1.348
X3.52Y-1.388
X3.5331Y-2.3396
X3.5666Y-1.5172
X3.57Y-2.41
X3.575Y-1.81
X3.58Y-2.18
X3.625Y-1.8
X3.64Y-1.64
X3.76Y-1.64
T5
X2.75Y-2.2979
X2.8287Y-2.2979
X2.9075Y-2.2979
X2.9862Y-2.2979
X3.065Y-2.2979
X3.502Y-1.8656
X3.502Y-1.9444
T6
X2.5506Y-1.2483
X2.5506Y-1.3433
X2.5506Y-1.4483
X2.5506Y-1.5483
X2.5506Y-1.6483
X2.5506Y-1.7483
X2.5506Y-1.8483
X2.5506Y-1.9483
X2.5506Y-2.0483
X2.5506Y-2.1483
T7
X3.7113Y-2.2092
X3.7113Y-2.2879
X3.7113Y-2.3667
T8
X2.275Y-1.355
X2.275Y-1.455
X2.275Y-1.555
X2.275Y-1.655
X2.275Y-1.755
X2.275Y-1.855
X2.275Y-1.955
X2.55Y-2.2479
T9
X3.7113Y-2.1265
X3.7113Y-2.4493
T4
G00X3.5761Y-1.2178
M15
G01X3.6194Y-1.2178
M16
G05
G00X3.5761Y-1.558
M15
G01X3.6194Y-1.558
M16
G05
G00X3.7505Y-1.2178
M15
G01X3.7741Y-1.2178
M16
G05
G00X3.7505Y-1.558
M15
G01X3.7741Y-1.558
M16
G05
T0
M30
