%TF.GenerationSoftware,KiCad,Pcbnew,(6.0.2)*%
%TF.CreationDate,2022-10-12T05:28:59-04:00*%
%TF.ProjectId,ferrous_slime,66657272-6f75-4735-9f73-6c696d652e6b,v0.3.0*%
%TF.SameCoordinates,Original*%
%TF.FileFunction,Paste,Top*%
%TF.FilePolarity,Positive*%
%FSLAX46Y46*%
G04 Gerber Fmt 4.6, Leading zero omitted, Abs format (unit mm)*
G04 Created by KiCad (PCBNEW (6.0.2)) date 2022-10-12 05:28:59*
%MOMM*%
%LPD*%
G01*
G04 APERTURE LIST*
G04 Aperture macros list*
%AMRoundRect*
0 Rectangle with rounded corners*
0 $1 Rounding radius*
0 $2 $3 $4 $5 $6 $7 $8 $9 X,Y pos of 4 corners*
0 Add a 4 corners polygon primitive as box body*
4,1,4,$2,$3,$4,$5,$6,$7,$8,$9,$2,$3,0*
0 Add four circle primitives for the rounded corners*
1,1,$1+$1,$2,$3*
1,1,$1+$1,$4,$5*
1,1,$1+$1,$6,$7*
1,1,$1+$1,$8,$9*
0 Add four rect primitives between the rounded corners*
20,1,$1+$1,$2,$3,$4,$5,0*
20,1,$1+$1,$4,$5,$6,$7,0*
20,1,$1+$1,$6,$7,$8,$9,0*
20,1,$1+$1,$8,$9,$2,$3,0*%
%AMFreePoly0*
4,1,6,0.725000,-0.725000,-0.725000,-0.725000,-0.725000,0.125000,-0.125000,0.725000,0.725000,0.725000,0.725000,-0.725000,0.725000,-0.725000,$1*%
G04 Aperture macros list end*
%ADD10RoundRect,0.200000X-0.200000X-0.275000X0.200000X-0.275000X0.200000X0.275000X-0.200000X0.275000X0*%
%ADD11RoundRect,0.225000X0.225000X0.250000X-0.225000X0.250000X-0.225000X-0.250000X0.225000X-0.250000X0*%
%ADD12RoundRect,0.200000X-0.275000X0.200000X-0.275000X-0.200000X0.275000X-0.200000X0.275000X0.200000X0*%
%ADD13RoundRect,0.225000X-0.250000X0.225000X-0.250000X-0.225000X0.250000X-0.225000X0.250000X0.225000X0*%
%ADD14RoundRect,0.200000X0.275000X-0.200000X0.275000X0.200000X-0.275000X0.200000X-0.275000X-0.200000X0*%
%ADD15RoundRect,0.218750X-0.218750X-0.256250X0.218750X-0.256250X0.218750X0.256250X-0.218750X0.256250X0*%
%ADD16RoundRect,0.150000X-0.150000X0.587500X-0.150000X-0.587500X0.150000X-0.587500X0.150000X0.587500X0*%
%ADD17R,0.900000X1.200000*%
%ADD18RoundRect,0.200000X0.200000X0.275000X-0.200000X0.275000X-0.200000X-0.275000X0.200000X-0.275000X0*%
%ADD19R,1.000000X1.800000*%
%ADD20RoundRect,0.150000X0.150000X-0.512500X0.150000X0.512500X-0.150000X0.512500X-0.150000X-0.512500X0*%
%ADD21RoundRect,0.225000X0.250000X-0.225000X0.250000X0.225000X-0.250000X0.225000X-0.250000X-0.225000X0*%
%ADD22RoundRect,0.218750X-0.256250X0.218750X-0.256250X-0.218750X0.256250X-0.218750X0.256250X0.218750X0*%
%ADD23R,0.700000X0.600000*%
%ADD24R,0.400000X0.800000*%
%ADD25R,1.450000X1.450000*%
%ADD26R,0.700000X0.700000*%
%ADD27FreePoly0,0.000000*%
%ADD28R,0.800000X0.400000*%
%ADD29R,1.150000X0.300000*%
%ADD30RoundRect,0.225000X-0.225000X-0.250000X0.225000X-0.250000X0.225000X0.250000X-0.225000X0.250000X0*%
%ADD31R,0.600000X0.700000*%
%ADD32RoundRect,0.150000X0.150000X-0.650000X0.150000X0.650000X-0.150000X0.650000X-0.150000X-0.650000X0*%
%ADD33RoundRect,0.242500X0.402500X-0.242500X0.402500X0.242500X-0.402500X0.242500X-0.402500X-0.242500X0*%
%ADD34R,0.560000X0.400000*%
%ADD35R,3.400000X1.300000*%
G04 APERTURE END LIST*
D10*
%TO.C,R11*%
X90741000Y-53540990D03*
X89091000Y-53540990D03*
%TD*%
D11*
%TO.C,C10*%
X83553000Y-62939000D03*
X85103000Y-62939000D03*
%TD*%
D12*
%TO.C,R10*%
X70993000Y-55816000D03*
X70993000Y-54166000D03*
%TD*%
D10*
%TO.C,R2*%
X78295000Y-54811000D03*
X76645000Y-54811000D03*
%TD*%
D13*
%TO.C,C3*%
X73787000Y-52591000D03*
X73787000Y-51041000D03*
%TD*%
D14*
%TO.C,R9*%
X72517000Y-54166000D03*
X72517000Y-55816000D03*
%TD*%
%TO.C,R5*%
X82804000Y-32649990D03*
X82804000Y-34299990D03*
%TD*%
D15*
%TO.C,D5*%
X84353500Y-43381000D03*
X82778500Y-43381000D03*
%TD*%
%TO.C,D3*%
X84768500Y-30935000D03*
X83193500Y-30935000D03*
%TD*%
D10*
%TO.C,R7*%
X82867000Y-49276000D03*
X81217000Y-49276000D03*
%TD*%
D16*
%TO.C,Q1*%
X85344000Y-49906490D03*
X84394000Y-48031490D03*
X86294000Y-48031490D03*
%TD*%
D17*
%TO.C,D2*%
X86232000Y-45667000D03*
X82932000Y-45667000D03*
%TD*%
D18*
%TO.C,R4*%
X84519000Y-51763000D03*
X86169000Y-51763000D03*
%TD*%
D11*
%TO.C,C9*%
X81267000Y-51001000D03*
X82817000Y-51001000D03*
%TD*%
D13*
%TO.C,C5*%
X68834000Y-55512000D03*
X68834000Y-53962000D03*
%TD*%
D19*
%TO.C,Y1*%
X78720000Y-48968990D03*
X76220000Y-48968990D03*
%TD*%
D20*
%TO.C,U4*%
X88796622Y-57028500D03*
X90696622Y-57028500D03*
X90696622Y-59303500D03*
X89746622Y-59303500D03*
X88796622Y-59303500D03*
%TD*%
D10*
%TO.C,R12*%
X90741000Y-55319000D03*
X89091000Y-55319000D03*
%TD*%
D21*
%TO.C,C1*%
X74168000Y-54216000D03*
X74168000Y-55766000D03*
%TD*%
D14*
%TO.C,R8*%
X87884000Y-32640008D03*
X87884000Y-34290008D03*
%TD*%
D22*
%TO.C,D4*%
X86267011Y-34236989D03*
X86267011Y-32661989D03*
%TD*%
D23*
%TO.C,D7*%
X88552173Y-36211489D03*
X88552173Y-37611489D03*
%TD*%
%TO.C,D6*%
X88646000Y-40324000D03*
X88646000Y-38924000D03*
%TD*%
D17*
%TO.C,D8*%
X93852000Y-43561000D03*
X90552000Y-43561000D03*
%TD*%
D24*
%TO.C,U2*%
X77368000Y-36104007D03*
X72568000Y-36104007D03*
X71768000Y-36104007D03*
X75768000Y-36104007D03*
X78168000Y-36104007D03*
X69368000Y-36104007D03*
X70168000Y-36104007D03*
X78968000Y-36104007D03*
D25*
X74168000Y-39029007D03*
X72193000Y-41054007D03*
X76143000Y-41004007D03*
X72193000Y-42979007D03*
D26*
X68218000Y-36054007D03*
D24*
X76568000Y-36104007D03*
D26*
X80118000Y-45954007D03*
D27*
X72193000Y-39029007D03*
D26*
X80118000Y-36054007D03*
D25*
X76143000Y-39029007D03*
X74168000Y-42979007D03*
D24*
X70968000Y-36104007D03*
X74168000Y-36104007D03*
D25*
X74168000Y-41004007D03*
X76143000Y-42979007D03*
D26*
X68218000Y-45954007D03*
D24*
X73368000Y-36104007D03*
X74968000Y-36104007D03*
D28*
X80068000Y-37004007D03*
X80068000Y-37804007D03*
X80068000Y-38604007D03*
X80068000Y-39404007D03*
X80068000Y-40204007D03*
X80068000Y-41004007D03*
X80068000Y-41804007D03*
X80068000Y-42604007D03*
X80068000Y-43404007D03*
X80068000Y-44204007D03*
X80068000Y-45004007D03*
D24*
X78968000Y-45904007D03*
X78168000Y-45904007D03*
X77368000Y-45904007D03*
X76568000Y-45904007D03*
X75768000Y-45904007D03*
X74968000Y-45904007D03*
X74168000Y-45904007D03*
X73368000Y-45904007D03*
X72568000Y-45904007D03*
X71768000Y-45904007D03*
X70968000Y-45904007D03*
X70168000Y-45904007D03*
X69368000Y-45904007D03*
D28*
X68268000Y-45004007D03*
X68268000Y-44204007D03*
X68268000Y-43404007D03*
X68268000Y-42604007D03*
X68268000Y-41804007D03*
X68268000Y-41004007D03*
X68268000Y-40204007D03*
X68268000Y-39404007D03*
X68268000Y-38604007D03*
X68268000Y-37804007D03*
X68268000Y-37004007D03*
%TD*%
D29*
%TO.C,J4*%
X90818000Y-38302990D03*
X90818000Y-37502990D03*
X90818000Y-37002990D03*
X90818000Y-36002990D03*
X90818000Y-34502990D03*
X90818000Y-33502990D03*
X90818000Y-33002990D03*
X90818000Y-32202990D03*
X90818000Y-31902990D03*
X90818000Y-32702990D03*
X90818000Y-34002990D03*
X90818000Y-35002990D03*
X90818000Y-35502990D03*
X90818000Y-36502990D03*
X90818000Y-37802990D03*
X90818000Y-38602990D03*
%TD*%
D30*
%TO.C,C12*%
X90677995Y-62684990D03*
X89127995Y-62684990D03*
%TD*%
D31*
%TO.C,D9*%
X94871999Y-41602990D03*
X93471999Y-41602990D03*
%TD*%
D14*
%TO.C,R1*%
X73914000Y-47943000D03*
X73914000Y-49593000D03*
%TD*%
D32*
%TO.C,U3*%
X82931000Y-36158990D03*
X84201000Y-36158990D03*
X85471000Y-36158990D03*
X86741000Y-36158990D03*
X86741000Y-41458990D03*
X85471000Y-41458990D03*
X84201000Y-41458990D03*
X82931000Y-41458990D03*
D33*
X84036000Y-39408990D03*
X85636000Y-39408990D03*
X84036000Y-38208990D03*
X85636000Y-38208990D03*
%TD*%
D18*
%TO.C,R13*%
X86297000Y-30934990D03*
X87947000Y-30934990D03*
%TD*%
D14*
%TO.C,R6*%
X84743000Y-32650000D03*
X84743000Y-34300000D03*
%TD*%
D30*
%TO.C,C11*%
X90677995Y-61160990D03*
X89127995Y-61160990D03*
%TD*%
D13*
%TO.C,C4*%
X68072000Y-49416000D03*
X68072000Y-47866000D03*
%TD*%
D21*
%TO.C,C6*%
X76200000Y-51242000D03*
X76200000Y-52792000D03*
%TD*%
D13*
%TO.C,C2*%
X72136000Y-49543000D03*
X72136000Y-47993000D03*
%TD*%
D18*
%TO.C,R3*%
X85789000Y-43380990D03*
X87439000Y-43380990D03*
%TD*%
D34*
%TO.C,D1*%
X70485000Y-49638000D03*
X70485000Y-50438000D03*
%TD*%
D35*
%TO.C,L1*%
X85979000Y-53687000D03*
X85979000Y-55787000D03*
%TD*%
D21*
%TO.C,C8*%
X78740000Y-51242000D03*
X78740000Y-52792000D03*
%TD*%
D10*
%TO.C,R14*%
X92011000Y-41603000D03*
X90361000Y-41603000D03*
%TD*%
D13*
%TO.C,C7*%
X88900000Y-43140000D03*
X88900000Y-41590000D03*
%TD*%
M02*
