%TF.GenerationSoftware,KiCad,Pcbnew,(6.0.2)*%
%TF.CreationDate,2022-04-13T16:43:27-04:00*%
%TF.ProjectId,breakout_slime,62726561-6b6f-4757-945f-736c696d652e,v0.1.3*%
%TF.SameCoordinates,Original*%
%TF.FileFunction,Copper,L2,Bot*%
%TF.FilePolarity,Positive*%
%FSLAX46Y46*%
G04 Gerber Fmt 4.6, Leading zero omitted, Abs format (unit mm)*
G04 Created by KiCad (PCBNEW (6.0.2)) date 2022-04-13 16:43:27*
%MOMM*%
%LPD*%
G01*
G04 APERTURE LIST*
G04 Aperture macros list*
%AMRoundRect*
0 Rectangle with rounded corners*
0 $1 Rounding radius*
0 $2 $3 $4 $5 $6 $7 $8 $9 X,Y pos of 4 corners*
0 Add a 4 corners polygon primitive as box body*
4,1,4,$2,$3,$4,$5,$6,$7,$8,$9,$2,$3,0*
0 Add four circle primitives for the rounded corners*
1,1,$1+$1,$2,$3*
1,1,$1+$1,$4,$5*
1,1,$1+$1,$6,$7*
1,1,$1+$1,$8,$9*
0 Add four rect primitives between the rounded corners*
20,1,$1+$1,$2,$3,$4,$5,0*
20,1,$1+$1,$4,$5,$6,$7,0*
20,1,$1+$1,$6,$7,$8,$9,0*
20,1,$1+$1,$8,$9,$2,$3,0*%
G04 Aperture macros list end*
%TA.AperFunction,ComponentPad*%
%ADD10C,1.600000*%
%TD*%
%TA.AperFunction,ComponentPad*%
%ADD11O,1.600000X1.600000*%
%TD*%
%TA.AperFunction,ComponentPad*%
%ADD12C,1.651000*%
%TD*%
%TA.AperFunction,ComponentPad*%
%ADD13R,1.651000X1.651000*%
%TD*%
%TA.AperFunction,ComponentPad*%
%ADD14R,2.000000X2.000000*%
%TD*%
%TA.AperFunction,ComponentPad*%
%ADD15O,2.000000X1.600000*%
%TD*%
%TA.AperFunction,ComponentPad*%
%ADD16R,2.200000X2.200000*%
%TD*%
%TA.AperFunction,ComponentPad*%
%ADD17O,2.200000X2.200000*%
%TD*%
%TA.AperFunction,SMDPad,CuDef*%
%ADD18R,1.000000X1.500000*%
%TD*%
%TA.AperFunction,ComponentPad*%
%ADD19RoundRect,0.250000X0.350000X0.625000X-0.350000X0.625000X-0.350000X-0.625000X0.350000X-0.625000X0*%
%TD*%
%TA.AperFunction,ComponentPad*%
%ADD20O,1.200000X1.750000*%
%TD*%
%TA.AperFunction,ComponentPad*%
%ADD21O,2.200000X3.500000*%
%TD*%
%TA.AperFunction,ComponentPad*%
%ADD22R,1.500000X2.500000*%
%TD*%
%TA.AperFunction,ComponentPad*%
%ADD23O,1.500000X2.500000*%
%TD*%
%TA.AperFunction,ComponentPad*%
%ADD24RoundRect,0.250000X-0.625000X0.350000X-0.625000X-0.350000X0.625000X-0.350000X0.625000X0.350000X0*%
%TD*%
%TA.AperFunction,ComponentPad*%
%ADD25O,1.750000X1.200000*%
%TD*%
%TA.AperFunction,ViaPad*%
%ADD26C,0.800000*%
%TD*%
%TA.AperFunction,Conductor*%
%ADD27C,0.500000*%
%TD*%
%TA.AperFunction,Conductor*%
%ADD28C,0.250000*%
%TD*%
G04 APERTURE END LIST*
D10*
%TO.P,R1,1*%
%TO.N,Net-(R1-Pad1)*%
X76673634Y-57293815D03*
D11*
%TO.P,R1,2*%
%TO.N,B+*%
X76673634Y-47133815D03*
%TD*%
D12*
%TO.P,U3,*%
%TO.N,*%
X102206037Y-62860969D03*
X99793037Y-62860969D03*
D13*
%TO.P,U3,1,VCC*%
%TO.N,+3V3*%
X79346037Y-62860969D03*
D12*
%TO.P,U3,2,GND*%
%TO.N,GND*%
X81886037Y-62860969D03*
%TO.P,U3,3,SCL*%
%TO.N,SCL*%
X84426037Y-62860969D03*
%TO.P,U3,4,SDA*%
%TO.N,SDA*%
X86966037Y-62860969D03*
%TO.P,U3,5,AD0_BNO/INT_ICM*%
%TO.N,Net-(JP1-Pad1)*%
X89506037Y-62860969D03*
%TO.P,U3,6,AD0_ICM*%
%TO.N,unconnected-(U3-Pad6)*%
X92046037Y-62860969D03*
%TO.P,U3,7,INT_BNO/AD0_MPU*%
%TO.N,INT1*%
X94586037Y-62860969D03*
%TO.P,U3,8,INT_MPU*%
%TO.N,unconnected-(U3-Pad8)*%
X97126037Y-62860969D03*
%TD*%
D14*
%TO.P,U2,1,~{RST}*%
%TO.N,unconnected-(U2-Pad1)*%
X50631522Y-38208509D03*
D15*
%TO.P,U2,2,A0*%
%TO.N,Net-(R1-Pad1)*%
X50631522Y-40748509D03*
%TO.P,U2,3,D0*%
%TO.N,unconnected-(U2-Pad3)*%
X50631522Y-43288509D03*
%TO.P,U2,4,SCK/D5*%
%TO.N,INT1*%
X50631522Y-45828509D03*
%TO.P,U2,5,MISO/D6*%
%TO.N,INT2*%
X50631522Y-48368509D03*
%TO.P,U2,6,MOSI/D7*%
%TO.N,unconnected-(U2-Pad6)*%
X50631522Y-50908509D03*
%TO.P,U2,7,CS/D8*%
%TO.N,unconnected-(U2-Pad7)*%
X50631522Y-53448509D03*
%TO.P,U2,8,3V3*%
%TO.N,+3V3*%
X50631522Y-55988509D03*
%TO.P,U2,9,5V*%
%TO.N,+5V*%
X73491522Y-55988509D03*
%TO.P,U2,10,GND*%
%TO.N,GND*%
X73491522Y-53448509D03*
%TO.P,U2,11,D4*%
%TO.N,unconnected-(U2-Pad11)*%
X73491522Y-50908509D03*
%TO.P,U2,12,D3*%
%TO.N,unconnected-(U2-Pad12)*%
X73491522Y-48368509D03*
%TO.P,U2,13,SDA/D2*%
%TO.N,SDA*%
X73491522Y-45828509D03*
%TO.P,U2,14,SCL/D1*%
%TO.N,SCL*%
X73491522Y-43288509D03*
%TO.P,U2,15,RX*%
%TO.N,unconnected-(U2-Pad15)*%
X73491522Y-40748509D03*
%TO.P,U2,16,TX*%
%TO.N,unconnected-(U2-Pad16)*%
X73491522Y-38208509D03*
%TD*%
D14*
%TO.P,U1,1,In+*%
%TO.N,Net-(D1-Pad2)*%
X101641015Y-44670579D03*
%TO.P,U1,2,In-*%
%TO.N,unconnected-(U1-Pad2)*%
X101641015Y-30700579D03*
%TO.P,U1,3,Out-*%
%TO.N,Net-(SW1-Pad3)*%
X78781015Y-30700579D03*
%TO.P,U1,4,B-*%
%TO.N,Net-(J1-Pad2)*%
X78781015Y-33748579D03*
%TO.P,U1,5,B+*%
%TO.N,B+*%
X78781015Y-41622579D03*
%TO.P,U1,6,Out+*%
%TO.N,Net-(D2-Pad2)*%
X78781015Y-44670579D03*
%TD*%
D16*
%TO.P,D2,1,K*%
%TO.N,+5V*%
X89770520Y-56750520D03*
D17*
%TO.P,D2,2,A*%
%TO.N,Net-(D2-Pad2)*%
X79610520Y-56750520D03*
%TD*%
D18*
%TO.P,JP2,1,A*%
%TO.N,INT1*%
X65274520Y-54972520D03*
%TO.P,JP2,2,B*%
%TO.N,+3V3*%
X63974520Y-54972520D03*
%TD*%
%TO.P,JP1,1,A*%
%TO.N,Net-(JP1-Pad1)*%
X69338520Y-54972520D03*
%TO.P,JP1,2,B*%
%TO.N,GND*%
X68038520Y-54972520D03*
%TD*%
D19*
%TO.P,J2,1,Pin_1*%
%TO.N,SDA*%
X71164520Y-60142520D03*
D20*
%TO.P,J2,2,Pin_2*%
%TO.N,+3V3*%
X69164520Y-60142520D03*
%TO.P,J2,3,Pin_3*%
%TO.N,INT2*%
X67164520Y-60142520D03*
%TO.P,J2,4,Pin_4*%
%TO.N,GND*%
X65164520Y-60142520D03*
%TO.P,J2,5,Pin_5*%
%TO.N,SCL*%
X63164520Y-60142520D03*
%TD*%
D16*
%TO.P,D1,1,K*%
%TO.N,+5V*%
X85198520Y-60052520D03*
D17*
%TO.P,D1,2,A*%
%TO.N,Net-(D1-Pad2)*%
X75038520Y-60052520D03*
%TD*%
D21*
%TO.P,SW1,*%
%TO.N,*%
X58850509Y-60814509D03*
X50650509Y-60814509D03*
D22*
%TO.P,SW1,1,A*%
%TO.N,unconnected-(SW1-Pad1)*%
X56750509Y-60814509D03*
D23*
%TO.P,SW1,2,B*%
%TO.N,GND*%
X54750509Y-60814509D03*
%TO.P,SW1,3,C*%
%TO.N,Net-(SW1-Pad3)*%
X52750509Y-60814509D03*
%TD*%
D24*
%TO.P,J1,1,Pin_1*%
%TO.N,B+*%
X96266000Y-57547000D03*
D25*
%TO.P,J1,2,Pin_2*%
%TO.N,Net-(J1-Pad2)*%
X96266000Y-59547000D03*
%TD*%
D26*
%TO.N,Net-(D1-Pad2)*%
X88754520Y-49130520D03*
X83166520Y-56496520D03*
%TO.N,+3V3*%
X69196520Y-51416520D03*
%TO.N,GND*%
X92457105Y-60374427D03*
X76200000Y-50800000D03*
X99060000Y-38100000D03*
X89408000Y-59817000D03*
X51943000Y-52197000D03*
X93980000Y-43180000D03*
X51803147Y-57892192D03*
X93980000Y-33020000D03*
X88900000Y-33020000D03*
X86360000Y-43180000D03*
X101600000Y-53340000D03*
X68580000Y-40640000D03*
X71374000Y-39370000D03*
X66040000Y-48260000D03*
X63500000Y-45720000D03*
X70960621Y-62885079D03*
X61879222Y-62372795D03*
X81280000Y-43180000D03*
X81280000Y-38100000D03*
X96520000Y-48260000D03*
X93980000Y-38100000D03*
X70241042Y-57226835D03*
X99060000Y-58420000D03*
X79654400Y-53340000D03*
X72898000Y-58293000D03*
X55372000Y-47117000D03*
X75946000Y-31877000D03*
X88900000Y-38100000D03*
X88900000Y-53340000D03*
X101600000Y-48260000D03*
X75946000Y-38354000D03*
X55880000Y-43180000D03*
X81026000Y-60346945D03*
X53848000Y-38100000D03*
X99060000Y-33020000D03*
X86360000Y-48260000D03*
X63500000Y-40640000D03*
X99060000Y-43180000D03*
X58191400Y-57277000D03*
X61932100Y-56681339D03*
X83820000Y-33020000D03*
X75641034Y-62954936D03*
X95614624Y-52385288D03*
X70054757Y-48254103D03*
X81280000Y-48260000D03*
X55880000Y-53340000D03*
X58420000Y-43180000D03*
X60960000Y-50800000D03*
X83820000Y-45720000D03*
X74676000Y-44577000D03*
X83820000Y-50800000D03*
X68580000Y-45720000D03*
%TO.N,INT1*%
X65386520Y-51670520D03*
%TO.N,Net-(R1-Pad1)*%
X76816520Y-52686520D03*
%TO.N,Net-(SW1-Pad3)*%
X53721000Y-43434000D03*
X53721000Y-49657000D03*
%TD*%
D27*
%TO.N,+5V*%
X73491520Y-55988520D02*
X76793520Y-59290520D01*
X86849520Y-60052520D02*
X85198520Y-60052520D01*
X86868000Y-60071000D02*
X86849520Y-60052520D01*
X76793520Y-59290520D02*
X84436520Y-59290520D01*
X89770520Y-57168480D02*
X86868000Y-60071000D01*
%TO.N,B+*%
X76673634Y-47133815D02*
X76673634Y-42579366D01*
X78781015Y-41622579D02*
X82897579Y-41622579D01*
X76673634Y-42579366D02*
X77630421Y-41622579D01*
X77630421Y-41622579D02*
X78781015Y-41622579D01*
X93853000Y-55134000D02*
X96266000Y-57547000D01*
X93853000Y-52578000D02*
X93853000Y-55134000D01*
X82897579Y-41622579D02*
X93853000Y-52578000D01*
%TO.N,Net-(D1-Pad2)*%
X88754520Y-49130520D02*
X83166520Y-54718520D01*
X83166520Y-54718520D02*
X83166520Y-56496520D01*
%TO.N,Net-(D2-Pad2)*%
X78781015Y-55921015D02*
X79610520Y-56750520D01*
X78781015Y-44670579D02*
X78781015Y-55921015D01*
%TO.N,+3V3*%
X60052520Y-54972520D02*
X65132520Y-49892520D01*
X65132520Y-49892520D02*
X67672520Y-49892520D01*
D28*
X71106520Y-62084520D02*
X77324520Y-62084520D01*
X78100980Y-62860980D02*
X79346048Y-62860980D01*
D27*
X59036520Y-55988520D02*
X60052520Y-54972520D01*
X67672520Y-49892520D02*
X69196520Y-51416520D01*
D28*
X69164520Y-60142520D02*
X71106520Y-62084520D01*
D27*
X50631520Y-55988520D02*
X59036520Y-55988520D01*
X60052520Y-54972520D02*
X63974520Y-54972520D01*
D28*
X77324520Y-62084520D02*
X78100980Y-62860980D01*
D27*
%TO.N,GND*%
X65164520Y-57846520D02*
X68038520Y-54972520D01*
X65164520Y-60142520D02*
X65164520Y-57846520D01*
X71462029Y-39458029D02*
X71374000Y-39370000D01*
D28*
%TO.N,Net-(JP1-Pad1)*%
X88392000Y-54737000D02*
X90805000Y-54737000D01*
X90805000Y-54737000D02*
X91694000Y-55626000D01*
X79119956Y-58274520D02*
X84854480Y-58274520D01*
X91694000Y-55626000D02*
X91694000Y-60673028D01*
X69447040Y-54864000D02*
X76012300Y-54864000D01*
X78086520Y-56938220D02*
X78086520Y-57241084D01*
X91694000Y-60673028D02*
X89506048Y-62860980D01*
X76012300Y-54864000D02*
X78086520Y-56938220D01*
X78086520Y-57241084D02*
X79119956Y-58274520D01*
X84854480Y-58274520D02*
X88392000Y-54737000D01*
%TO.N,INT1*%
X65274520Y-51782520D02*
X65386520Y-51670520D01*
X65274520Y-54972520D02*
X65274520Y-51782520D01*
%TO.N,Net-(R1-Pad1)*%
X71983600Y-52171600D02*
X60560520Y-40748520D01*
X76301600Y-52171600D02*
X71983600Y-52171600D01*
X60560520Y-40748520D02*
X50631520Y-40748520D01*
X76816520Y-52686520D02*
X76301600Y-52171600D01*
D27*
%TO.N,Net-(SW1-Pad3)*%
X53721000Y-43434000D02*
X53721000Y-49657000D01*
%TO.N,Net-(J1-Pad2)*%
X97790000Y-52451000D02*
X79087579Y-33748579D01*
X96266000Y-59547000D02*
X97044000Y-59547000D01*
X97044000Y-59547000D02*
X97790000Y-58801000D01*
X97790000Y-58801000D02*
X97790000Y-52451000D01*
%TD*%
%TA.AperFunction,Conductor*%
%TO.N,GND*%
G36*
X77220678Y-29484002D02*
G01*
X77267171Y-29537658D01*
X77277820Y-29603607D01*
X77272515Y-29652445D01*
X77272515Y-31748713D01*
X77279270Y-31810895D01*
X77330400Y-31947284D01*
X77417754Y-32063840D01*
X77424934Y-32069221D01*
X77497696Y-32123753D01*
X77540211Y-32180612D01*
X77545237Y-32251430D01*
X77511177Y-32313724D01*
X77497698Y-32325403D01*
X77417754Y-32385318D01*
X77330400Y-32501874D01*
X77279270Y-32638263D01*
X77272515Y-32700445D01*
X77272515Y-34796713D01*
X77279270Y-34858895D01*
X77330400Y-34995284D01*
X77417754Y-35111840D01*
X77534310Y-35199194D01*
X77670699Y-35250324D01*
X77732881Y-35257079D01*
X79471208Y-35257079D01*
X79539329Y-35277081D01*
X79560303Y-35293984D01*
X96994595Y-52728276D01*
X97028621Y-52790588D01*
X97031500Y-52817371D01*
X97031500Y-56312500D01*
X97011498Y-56380621D01*
X96957842Y-56427114D01*
X96905500Y-56438500D01*
X96282371Y-56438500D01*
X96214250Y-56418498D01*
X96193276Y-56401595D01*
X94648405Y-54856724D01*
X94614379Y-54794412D01*
X94611500Y-54767629D01*
X94611500Y-52645070D01*
X94612933Y-52626120D01*
X94615099Y-52611885D01*
X94615099Y-52611881D01*
X94616199Y-52604651D01*
X94611915Y-52551982D01*
X94611500Y-52541767D01*
X94611500Y-52533707D01*
X94608209Y-52505480D01*
X94607778Y-52501121D01*
X94606899Y-52490314D01*
X94601860Y-52428364D01*
X94599605Y-52421403D01*
X94598418Y-52415463D01*
X94597029Y-52409588D01*
X94596182Y-52402319D01*
X94571264Y-52333670D01*
X94569847Y-52329542D01*
X94549607Y-52267064D01*
X94549606Y-52267062D01*
X94547351Y-52260101D01*
X94543555Y-52253846D01*
X94541049Y-52248372D01*
X94538330Y-52242942D01*
X94535833Y-52236063D01*
X94521515Y-52214225D01*
X94495814Y-52175024D01*
X94493467Y-52171305D01*
X94455595Y-52108893D01*
X94450340Y-52102942D01*
X94448197Y-52100516D01*
X94448224Y-52100492D01*
X94445571Y-52097500D01*
X94442868Y-52094267D01*
X94438856Y-52088148D01*
X94382617Y-52034872D01*
X94380175Y-52032494D01*
X83481349Y-41133668D01*
X83468963Y-41119256D01*
X83460430Y-41107661D01*
X83460425Y-41107656D01*
X83456087Y-41101761D01*
X83450509Y-41097022D01*
X83450506Y-41097019D01*
X83415811Y-41067544D01*
X83408295Y-41060614D01*
X83402600Y-41054919D01*
X83386315Y-41042035D01*
X83380328Y-41037298D01*
X83376924Y-41034507D01*
X83326876Y-40991988D01*
X83326874Y-40991987D01*
X83321294Y-40987246D01*
X83314778Y-40983918D01*
X83309729Y-40980551D01*
X83304600Y-40977384D01*
X83298863Y-40972845D01*
X83232704Y-40941924D01*
X83228804Y-40940018D01*
X83163771Y-40906810D01*
X83156663Y-40905071D01*
X83151020Y-40902972D01*
X83145257Y-40901055D01*
X83138629Y-40897957D01*
X83067162Y-40883092D01*
X83062878Y-40882122D01*
X83060667Y-40881581D01*
X82991969Y-40864771D01*
X82986367Y-40864423D01*
X82986364Y-40864423D01*
X82980815Y-40864079D01*
X82980817Y-40864043D01*
X82976824Y-40863804D01*
X82972632Y-40863430D01*
X82965464Y-40861939D01*
X82899254Y-40863730D01*
X82888058Y-40864033D01*
X82884651Y-40864079D01*
X80415515Y-40864079D01*
X80347394Y-40844077D01*
X80300901Y-40790421D01*
X80289515Y-40738079D01*
X80289515Y-40574445D01*
X80282760Y-40512263D01*
X80231630Y-40375874D01*
X80144276Y-40259318D01*
X80027720Y-40171964D01*
X79891331Y-40120834D01*
X79835455Y-40114764D01*
X79832546Y-40114448D01*
X79829149Y-40114079D01*
X77732881Y-40114079D01*
X77729484Y-40114448D01*
X77726575Y-40114764D01*
X77670699Y-40120834D01*
X77534310Y-40171964D01*
X77417754Y-40259318D01*
X77330400Y-40375874D01*
X77279270Y-40512263D01*
X77272515Y-40574445D01*
X77272515Y-40881581D01*
X77252513Y-40949702D01*
X77211880Y-40989300D01*
X77166115Y-41017070D01*
X77166110Y-41017074D01*
X77161314Y-41019984D01*
X77152937Y-41027382D01*
X77152913Y-41027355D01*
X77149921Y-41030008D01*
X77146688Y-41032711D01*
X77140569Y-41036723D01*
X77111372Y-41067544D01*
X77087293Y-41092962D01*
X77084915Y-41095404D01*
X76184723Y-41995596D01*
X76170311Y-42007982D01*
X76158716Y-42016515D01*
X76158711Y-42016520D01*
X76152816Y-42020858D01*
X76148077Y-42026436D01*
X76148074Y-42026439D01*
X76118599Y-42061134D01*
X76111669Y-42068650D01*
X76105974Y-42074345D01*
X76103694Y-42077227D01*
X76088353Y-42096617D01*
X76085562Y-42100021D01*
X76057796Y-42132704D01*
X76038301Y-42155651D01*
X76034973Y-42162167D01*
X76031606Y-42167216D01*
X76028439Y-42172345D01*
X76023900Y-42178082D01*
X75992979Y-42244241D01*
X75991076Y-42248135D01*
X75957865Y-42313174D01*
X75956126Y-42320282D01*
X75954027Y-42325925D01*
X75952110Y-42331688D01*
X75949012Y-42338316D01*
X75947522Y-42345478D01*
X75947522Y-42345479D01*
X75934148Y-42409778D01*
X75933178Y-42414062D01*
X75915826Y-42484976D01*
X75915134Y-42496130D01*
X75915098Y-42496128D01*
X75914859Y-42500121D01*
X75914485Y-42504313D01*
X75912994Y-42511481D01*
X75913192Y-42518798D01*
X75915088Y-42588887D01*
X75915134Y-42592294D01*
X75915134Y-46001948D01*
X75895132Y-46070069D01*
X75861406Y-46105160D01*
X75829334Y-46127617D01*
X75667436Y-46289515D01*
X75536111Y-46477066D01*
X75533788Y-46482048D01*
X75533785Y-46482053D01*
X75444835Y-46672809D01*
X75439350Y-46684572D01*
X75437928Y-46689880D01*
X75437927Y-46689882D01*
X75400165Y-46830810D01*
X75380091Y-46905728D01*
X75360136Y-47133815D01*
X75380091Y-47361902D01*
X75439350Y-47583058D01*
X75441673Y-47588039D01*
X75441673Y-47588040D01*
X75533785Y-47785577D01*
X75533788Y-47785582D01*
X75536111Y-47790564D01*
X75667436Y-47978115D01*
X75829334Y-48140013D01*
X75833842Y-48143170D01*
X75833845Y-48143172D01*
X75837744Y-48145902D01*
X76016885Y-48271338D01*
X76021867Y-48273661D01*
X76021872Y-48273664D01*
X76213529Y-48363034D01*
X76224391Y-48368099D01*
X76229699Y-48369521D01*
X76229701Y-48369522D01*
X76440232Y-48425934D01*
X76440234Y-48425934D01*
X76445547Y-48427358D01*
X76673634Y-48447313D01*
X76901721Y-48427358D01*
X76907034Y-48425934D01*
X76907036Y-48425934D01*
X77117567Y-48369522D01*
X77117569Y-48369521D01*
X77122877Y-48368099D01*
X77133739Y-48363034D01*
X77325396Y-48273664D01*
X77325401Y-48273661D01*
X77330383Y-48271338D01*
X77509524Y-48145902D01*
X77513423Y-48143172D01*
X77513426Y-48143170D01*
X77517934Y-48140013D01*
X77679832Y-47978115D01*
X77764177Y-47857659D01*
X77793302Y-47816064D01*
X77848759Y-47771736D01*
X77919379Y-47764427D01*
X77982739Y-47796458D01*
X78018724Y-47857659D01*
X78022515Y-47888335D01*
X78022515Y-55674121D01*
X78002513Y-55742242D01*
X77948857Y-55788735D01*
X77878583Y-55798839D01*
X77814003Y-55769345D01*
X77807420Y-55763216D01*
X77264522Y-55220317D01*
X76515952Y-54471747D01*
X76508412Y-54463461D01*
X76504300Y-54456982D01*
X76497728Y-54450810D01*
X76454649Y-54410357D01*
X76451807Y-54407602D01*
X76432070Y-54387865D01*
X76428873Y-54385385D01*
X76419851Y-54377680D01*
X76387621Y-54347414D01*
X76380675Y-54343595D01*
X76380672Y-54343593D01*
X76369866Y-54337652D01*
X76353347Y-54326801D01*
X76350454Y-54324557D01*
X76337341Y-54314386D01*
X76330072Y-54311241D01*
X76330068Y-54311238D01*
X76296763Y-54296826D01*
X76286113Y-54291609D01*
X76247360Y-54270305D01*
X76227737Y-54265267D01*
X76209034Y-54258863D01*
X76197720Y-54253967D01*
X76197719Y-54253967D01*
X76190445Y-54250819D01*
X76182622Y-54249580D01*
X76182612Y-54249577D01*
X76146776Y-54243901D01*
X76135156Y-54241495D01*
X76100011Y-54232472D01*
X76100010Y-54232472D01*
X76092330Y-54230500D01*
X76072076Y-54230500D01*
X76052365Y-54228949D01*
X76040186Y-54227020D01*
X76032357Y-54225780D01*
X76024465Y-54226526D01*
X75988339Y-54229941D01*
X75976481Y-54230500D01*
X74967872Y-54230500D01*
X74899751Y-54210498D01*
X74853258Y-54156842D01*
X74843154Y-54086568D01*
X74853677Y-54051250D01*
X74923012Y-53902562D01*
X74926758Y-53892270D01*
X74972916Y-53720006D01*
X74972580Y-53705910D01*
X74964638Y-53702509D01*
X72023555Y-53702509D01*
X72010024Y-53706482D01*
X72008795Y-53715031D01*
X72056286Y-53892270D01*
X72060032Y-53902562D01*
X72129367Y-54051250D01*
X72140028Y-54121441D01*
X72111048Y-54186254D01*
X72051629Y-54225111D01*
X72015172Y-54230500D01*
X70466169Y-54230500D01*
X70398048Y-54210498D01*
X70351555Y-54156842D01*
X70343518Y-54127606D01*
X70342945Y-54127742D01*
X70341118Y-54120060D01*
X70340265Y-54112204D01*
X70289135Y-53975815D01*
X70201781Y-53859259D01*
X70085225Y-53771905D01*
X69948836Y-53720775D01*
X69886654Y-53714020D01*
X68790386Y-53714020D01*
X68728204Y-53720775D01*
X68720804Y-53723549D01*
X68716578Y-53724554D01*
X68658281Y-53724554D01*
X68640874Y-53720415D01*
X68590006Y-53714889D01*
X68583192Y-53714520D01*
X68310635Y-53714520D01*
X68295396Y-53718995D01*
X68294191Y-53720385D01*
X68292520Y-53728068D01*
X68292520Y-56212404D01*
X68296995Y-56227643D01*
X68298385Y-56228848D01*
X68306068Y-56230519D01*
X68583189Y-56230519D01*
X68590010Y-56230149D01*
X68640869Y-56224625D01*
X68658284Y-56220485D01*
X68716578Y-56220486D01*
X68720804Y-56221491D01*
X68728204Y-56224265D01*
X68790386Y-56231020D01*
X69886654Y-56231020D01*
X69948836Y-56224265D01*
X70085225Y-56173135D01*
X70201781Y-56085781D01*
X70289135Y-55969225D01*
X70340265Y-55832836D01*
X70347020Y-55770654D01*
X70347020Y-55623500D01*
X70367022Y-55555379D01*
X70420678Y-55508886D01*
X70473020Y-55497500D01*
X71904222Y-55497500D01*
X71972343Y-55517502D01*
X72018836Y-55571158D01*
X72028940Y-55641432D01*
X72025929Y-55656111D01*
X72005857Y-55731020D01*
X71997979Y-55760422D01*
X71978024Y-55988509D01*
X71997979Y-56216596D01*
X71999403Y-56221909D01*
X71999403Y-56221911D01*
X72054388Y-56427114D01*
X72057238Y-56437752D01*
X72059561Y-56442733D01*
X72059561Y-56442734D01*
X72151673Y-56640271D01*
X72151676Y-56640276D01*
X72153999Y-56645258D01*
X72285324Y-56832809D01*
X72447222Y-56994707D01*
X72451730Y-56997864D01*
X72451733Y-56997866D01*
X72509582Y-57038372D01*
X72634773Y-57126032D01*
X72639755Y-57128355D01*
X72639760Y-57128358D01*
X72791846Y-57199276D01*
X72842279Y-57222793D01*
X72847587Y-57224215D01*
X72847589Y-57224216D01*
X73058120Y-57280628D01*
X73058122Y-57280628D01*
X73063435Y-57282052D01*
X73163002Y-57290763D01*
X73231671Y-57296771D01*
X73231678Y-57296771D01*
X73234395Y-57297009D01*
X73675138Y-57297009D01*
X73743259Y-57317011D01*
X73764233Y-57333914D01*
X74710176Y-58279857D01*
X74744202Y-58342169D01*
X74739137Y-58412984D01*
X74696590Y-58469820D01*
X74650496Y-58491470D01*
X74539929Y-58518015D01*
X74535358Y-58519908D01*
X74535356Y-58519909D01*
X74310592Y-58613009D01*
X74310588Y-58613011D01*
X74306018Y-58614904D01*
X74090144Y-58747192D01*
X73897622Y-58911622D01*
X73733192Y-59104144D01*
X73600904Y-59320018D01*
X73599011Y-59324588D01*
X73599009Y-59324592D01*
X73505909Y-59549356D01*
X73504015Y-59553929D01*
X73502860Y-59558741D01*
X73453109Y-59765971D01*
X73444911Y-59800117D01*
X73425046Y-60052520D01*
X73444911Y-60304923D01*
X73446065Y-60309730D01*
X73446066Y-60309736D01*
X73470287Y-60410623D01*
X73504015Y-60551111D01*
X73505908Y-60555682D01*
X73505909Y-60555684D01*
X73598025Y-60778071D01*
X73600904Y-60785022D01*
X73733192Y-61000896D01*
X73897622Y-61193418D01*
X73901378Y-61196626D01*
X73901383Y-61196631D01*
X73939527Y-61229209D01*
X73978337Y-61288659D01*
X73978844Y-61359654D01*
X73940887Y-61419653D01*
X73876519Y-61449606D01*
X73857697Y-61451020D01*
X72206805Y-61451020D01*
X72138684Y-61431018D01*
X72092191Y-61377362D01*
X72082087Y-61307088D01*
X72107924Y-61246926D01*
X72108649Y-61246008D01*
X72113825Y-61240823D01*
X72191161Y-61115361D01*
X72202795Y-61096488D01*
X72202796Y-61096486D01*
X72206635Y-61090258D01*
X72262317Y-60922381D01*
X72263782Y-60908088D01*
X72271633Y-60831454D01*
X72273020Y-60817920D01*
X72273020Y-59467120D01*
X72271657Y-59453986D01*
X72262758Y-59368212D01*
X72262757Y-59368208D01*
X72262046Y-59361354D01*
X72258269Y-59350031D01*
X72208388Y-59200522D01*
X72206070Y-59193574D01*
X72112998Y-59043172D01*
X71987823Y-58918215D01*
X71971923Y-58908414D01*
X71843488Y-58829245D01*
X71843486Y-58829244D01*
X71837258Y-58825405D01*
X71734974Y-58791479D01*
X71675909Y-58771888D01*
X71675907Y-58771888D01*
X71669381Y-58769723D01*
X71662545Y-58769023D01*
X71662542Y-58769022D01*
X71619489Y-58764611D01*
X71564920Y-58759020D01*
X70764120Y-58759020D01*
X70760874Y-58759357D01*
X70760870Y-58759357D01*
X70665212Y-58769282D01*
X70665208Y-58769283D01*
X70658354Y-58769994D01*
X70651818Y-58772175D01*
X70651816Y-58772175D01*
X70587637Y-58793587D01*
X70490574Y-58825970D01*
X70340172Y-58919042D01*
X70215215Y-59044217D01*
X70211375Y-59050447D01*
X70211374Y-59050448D01*
X70202072Y-59065538D01*
X70189531Y-59085885D01*
X70183446Y-59095756D01*
X70130674Y-59143249D01*
X70060602Y-59154673D01*
X69995478Y-59126399D01*
X69977102Y-59107475D01*
X69970916Y-59099600D01*
X69966385Y-59095668D01*
X69966382Y-59095665D01*
X69815687Y-58964899D01*
X69811157Y-58960968D01*
X69805971Y-58957968D01*
X69805967Y-58957965D01*
X69633262Y-58858053D01*
X69628066Y-58855047D01*
X69428249Y-58785659D01*
X69422314Y-58784798D01*
X69422312Y-58784798D01*
X69224856Y-58756168D01*
X69224853Y-58756168D01*
X69218916Y-58755307D01*
X69007621Y-58765087D01*
X68898111Y-58791479D01*
X68807819Y-58813239D01*
X68807817Y-58813240D01*
X68801986Y-58814645D01*
X68796528Y-58817127D01*
X68796524Y-58817128D01*
X68698785Y-58861568D01*
X68609433Y-58902194D01*
X68436909Y-59024574D01*
X68290639Y-59177370D01*
X68287388Y-59182405D01*
X68287386Y-59182408D01*
X68269774Y-59209683D01*
X68216019Y-59256060D01*
X68145723Y-59266013D01*
X68081206Y-59236381D01*
X68064837Y-59219167D01*
X68057713Y-59210097D01*
X67970916Y-59099600D01*
X67966385Y-59095668D01*
X67966382Y-59095665D01*
X67815687Y-58964899D01*
X67811157Y-58960968D01*
X67805971Y-58957968D01*
X67805967Y-58957965D01*
X67633262Y-58858053D01*
X67628066Y-58855047D01*
X67428249Y-58785659D01*
X67422314Y-58784798D01*
X67422312Y-58784798D01*
X67224856Y-58756168D01*
X67224853Y-58756168D01*
X67218916Y-58755307D01*
X67007621Y-58765087D01*
X66898111Y-58791479D01*
X66807819Y-58813239D01*
X66807817Y-58813240D01*
X66801986Y-58814645D01*
X66796528Y-58817127D01*
X66796524Y-58817128D01*
X66698785Y-58861568D01*
X66609433Y-58902194D01*
X66436909Y-59024574D01*
X66290639Y-59177370D01*
X66287390Y-59182401D01*
X66287385Y-59182408D01*
X66269487Y-59210127D01*
X66215731Y-59256504D01*
X66145435Y-59266457D01*
X66080918Y-59236824D01*
X66064550Y-59219611D01*
X65974258Y-59104663D01*
X65966021Y-59096014D01*
X65815397Y-58965308D01*
X65805673Y-58958373D01*
X65633053Y-58858510D01*
X65622189Y-58853536D01*
X65433793Y-58788113D01*
X65432804Y-58787872D01*
X65422512Y-58789340D01*
X65418520Y-58802905D01*
X65418520Y-61477922D01*
X65422493Y-61491453D01*
X65431919Y-61492808D01*
X65521057Y-61471326D01*
X65532352Y-61467437D01*
X65713902Y-61384891D01*
X65724244Y-61378944D01*
X65886917Y-61263552D01*
X65895945Y-61255759D01*
X66033862Y-61111689D01*
X66041261Y-61102320D01*
X66058938Y-61074943D01*
X66112692Y-61028565D01*
X66182988Y-61018611D01*
X66247505Y-61048242D01*
X66263876Y-61065457D01*
X66358124Y-61185440D01*
X66362655Y-61189372D01*
X66362658Y-61189375D01*
X66471303Y-61283652D01*
X66517883Y-61324072D01*
X66523069Y-61327072D01*
X66523073Y-61327075D01*
X66653855Y-61402734D01*
X66700974Y-61429993D01*
X66900791Y-61499381D01*
X66906726Y-61500242D01*
X66906728Y-61500242D01*
X67104184Y-61528872D01*
X67104187Y-61528872D01*
X67110124Y-61529733D01*
X67321419Y-61519953D01*
X67473419Y-61483321D01*
X67521221Y-61471801D01*
X67521223Y-61471800D01*
X67527054Y-61470395D01*
X67532512Y-61467913D01*
X67532516Y-61467912D01*
X67691303Y-61395715D01*
X67719607Y-61382846D01*
X67892131Y-61260466D01*
X67999953Y-61147833D01*
X68034256Y-61112000D01*
X68038401Y-61107670D01*
X68049644Y-61090258D01*
X68059266Y-61075357D01*
X68113021Y-61028980D01*
X68183317Y-61019027D01*
X68247834Y-61048659D01*
X68264201Y-61065871D01*
X68358124Y-61185440D01*
X68362655Y-61189372D01*
X68362658Y-61189375D01*
X68471303Y-61283652D01*
X68517883Y-61324072D01*
X68523069Y-61327072D01*
X68523073Y-61327075D01*
X68653855Y-61402734D01*
X68700974Y-61429993D01*
X68900791Y-61499381D01*
X68906726Y-61500242D01*
X68906728Y-61500242D01*
X69104184Y-61528872D01*
X69104187Y-61528872D01*
X69110124Y-61529733D01*
X69321419Y-61519953D01*
X69473419Y-61483321D01*
X69514337Y-61473460D01*
X69585248Y-61476945D01*
X69632953Y-61506858D01*
X70602868Y-62476773D01*
X70610408Y-62485059D01*
X70614520Y-62491538D01*
X70620297Y-62496963D01*
X70664171Y-62538163D01*
X70667013Y-62540918D01*
X70686750Y-62560655D01*
X70689947Y-62563135D01*
X70698967Y-62570838D01*
X70731199Y-62601106D01*
X70738145Y-62604925D01*
X70738148Y-62604927D01*
X70748954Y-62610868D01*
X70765473Y-62621719D01*
X70781479Y-62634134D01*
X70788748Y-62637279D01*
X70788752Y-62637282D01*
X70822057Y-62651694D01*
X70832707Y-62656911D01*
X70871460Y-62678215D01*
X70879135Y-62680186D01*
X70879136Y-62680186D01*
X70891082Y-62683253D01*
X70909787Y-62689657D01*
X70928375Y-62697701D01*
X70936198Y-62698940D01*
X70936208Y-62698943D01*
X70972044Y-62704619D01*
X70983664Y-62707025D01*
X71018809Y-62716048D01*
X71026490Y-62718020D01*
X71046744Y-62718020D01*
X71066454Y-62719571D01*
X71086463Y-62722740D01*
X71094355Y-62721994D01*
X71130481Y-62718579D01*
X71142339Y-62718020D01*
X77009926Y-62718020D01*
X77078047Y-62738022D01*
X77099021Y-62754925D01*
X77597323Y-63253227D01*
X77604867Y-63261517D01*
X77608980Y-63267998D01*
X77614757Y-63273423D01*
X77658647Y-63314638D01*
X77661489Y-63317393D01*
X77681210Y-63337114D01*
X77684405Y-63339592D01*
X77693427Y-63347298D01*
X77725659Y-63377566D01*
X77732608Y-63381386D01*
X77743412Y-63387326D01*
X77759936Y-63398179D01*
X77775939Y-63410593D01*
X77816523Y-63428156D01*
X77827153Y-63433363D01*
X77865920Y-63454675D01*
X77873597Y-63456646D01*
X77873602Y-63456648D01*
X77885538Y-63459712D01*
X77904246Y-63466117D01*
X77910892Y-63468992D01*
X77915567Y-63471016D01*
X77915569Y-63471016D01*
X77922835Y-63474161D01*
X77923796Y-63474313D01*
X77981027Y-63510864D01*
X78010703Y-63575360D01*
X78012037Y-63593646D01*
X78012037Y-63628000D01*
X77992035Y-63696121D01*
X77938379Y-63742614D01*
X77886037Y-63754000D01*
X49529000Y-63754000D01*
X49460879Y-63733998D01*
X49414386Y-63680342D01*
X49403000Y-63628000D01*
X49403000Y-62787668D01*
X49423002Y-62719547D01*
X49476658Y-62673054D01*
X49546932Y-62662950D01*
X49610830Y-62691857D01*
X49641463Y-62718020D01*
X49698374Y-62766627D01*
X49698378Y-62766630D01*
X49702133Y-62769837D01*
X49918007Y-62902125D01*
X49922577Y-62904018D01*
X49922581Y-62904020D01*
X50147345Y-62997120D01*
X50151918Y-62999014D01*
X50236541Y-63019330D01*
X50393293Y-63056963D01*
X50393299Y-63056964D01*
X50398106Y-63058118D01*
X50650509Y-63077983D01*
X50902912Y-63058118D01*
X50907719Y-63056964D01*
X50907725Y-63056963D01*
X51064477Y-63019330D01*
X51149100Y-62999014D01*
X51153673Y-62997120D01*
X51378437Y-62904020D01*
X51378441Y-62904018D01*
X51383011Y-62902125D01*
X51598885Y-62769837D01*
X51791407Y-62605407D01*
X51945892Y-62424529D01*
X52005343Y-62385720D01*
X52076337Y-62385214D01*
X52111975Y-62401776D01*
X52141771Y-62421799D01*
X52347476Y-62512097D01*
X52352927Y-62513406D01*
X52352931Y-62513407D01*
X52559830Y-62563079D01*
X52565920Y-62564541D01*
X52649984Y-62569388D01*
X52784592Y-62577149D01*
X52784595Y-62577149D01*
X52790199Y-62577472D01*
X53013224Y-62550484D01*
X53227944Y-62484427D01*
X53232924Y-62481857D01*
X53232928Y-62481855D01*
X53422590Y-62383963D01*
X53422591Y-62383963D01*
X53427573Y-62381391D01*
X53432574Y-62377554D01*
X53493636Y-62330699D01*
X53605801Y-62244632D01*
X53609567Y-62240493D01*
X53609577Y-62240484D01*
X53657327Y-62188007D01*
X53717967Y-62151085D01*
X53788943Y-62152808D01*
X53838205Y-62182323D01*
X53951591Y-62292202D01*
X53960288Y-62299244D01*
X54137353Y-62418228D01*
X54147151Y-62423614D01*
X54342499Y-62509366D01*
X54353091Y-62512931D01*
X54478893Y-62543133D01*
X54492979Y-62542428D01*
X54496509Y-62533549D01*
X54496509Y-62532920D01*
X55004509Y-62532920D01*
X55008614Y-62546902D01*
X55018237Y-62548395D01*
X55018482Y-62548343D01*
X55222392Y-62485611D01*
X55232738Y-62481390D01*
X55422323Y-62383538D01*
X55431752Y-62377554D01*
X55437224Y-62373355D01*
X55503445Y-62347756D01*
X55572994Y-62362022D01*
X55614751Y-62397752D01*
X55637248Y-62427770D01*
X55753804Y-62515124D01*
X55890193Y-62566254D01*
X55952375Y-62573009D01*
X57548643Y-62573009D01*
X57552038Y-62572640D01*
X57552042Y-62572640D01*
X57605095Y-62566877D01*
X57674978Y-62579406D01*
X57707269Y-62602664D01*
X57709611Y-62605407D01*
X57902133Y-62769837D01*
X58118007Y-62902125D01*
X58122577Y-62904018D01*
X58122581Y-62904020D01*
X58347345Y-62997120D01*
X58351918Y-62999014D01*
X58436541Y-63019330D01*
X58593293Y-63056963D01*
X58593299Y-63056964D01*
X58598106Y-63058118D01*
X58850509Y-63077983D01*
X59102912Y-63058118D01*
X59107719Y-63056964D01*
X59107725Y-63056963D01*
X59264477Y-63019330D01*
X59349100Y-62999014D01*
X59353673Y-62997120D01*
X59578437Y-62904020D01*
X59578441Y-62904018D01*
X59583011Y-62902125D01*
X59798885Y-62769837D01*
X59991407Y-62605407D01*
X60155837Y-62412885D01*
X60288125Y-62197011D01*
X60290441Y-62191421D01*
X60383120Y-61967673D01*
X60383121Y-61967671D01*
X60385014Y-61963100D01*
X60405897Y-61876115D01*
X60442963Y-61721725D01*
X60442964Y-61721719D01*
X60444118Y-61716912D01*
X60454355Y-61586840D01*
X60458816Y-61530164D01*
X60458816Y-61530157D01*
X60459009Y-61527708D01*
X60459009Y-60470366D01*
X62056020Y-60470366D01*
X62071068Y-60628086D01*
X62130612Y-60831054D01*
X62133356Y-60836381D01*
X62133356Y-60836382D01*
X62181011Y-60928909D01*
X62227462Y-61019100D01*
X62358124Y-61185440D01*
X62362655Y-61189372D01*
X62362658Y-61189375D01*
X62471303Y-61283652D01*
X62517883Y-61324072D01*
X62523069Y-61327072D01*
X62523073Y-61327075D01*
X62653855Y-61402734D01*
X62700974Y-61429993D01*
X62900791Y-61499381D01*
X62906726Y-61500242D01*
X62906728Y-61500242D01*
X63104184Y-61528872D01*
X63104187Y-61528872D01*
X63110124Y-61529733D01*
X63321419Y-61519953D01*
X63473419Y-61483321D01*
X63521221Y-61471801D01*
X63521223Y-61471800D01*
X63527054Y-61470395D01*
X63532512Y-61467913D01*
X63532516Y-61467912D01*
X63691303Y-61395715D01*
X63719607Y-61382846D01*
X63892131Y-61260466D01*
X63999953Y-61147833D01*
X64034256Y-61112000D01*
X64038401Y-61107670D01*
X64041650Y-61102639D01*
X64041655Y-61102632D01*
X64059553Y-61074913D01*
X64113309Y-61028536D01*
X64183605Y-61018583D01*
X64248122Y-61048216D01*
X64264490Y-61065429D01*
X64354782Y-61180377D01*
X64363019Y-61189026D01*
X64513643Y-61319732D01*
X64523367Y-61326667D01*
X64695987Y-61426530D01*
X64706851Y-61431504D01*
X64895247Y-61496927D01*
X64896236Y-61497168D01*
X64906528Y-61495700D01*
X64910520Y-61482135D01*
X64910520Y-58807118D01*
X64906547Y-58793587D01*
X64897121Y-58792232D01*
X64807983Y-58813714D01*
X64796688Y-58817603D01*
X64615138Y-58900149D01*
X64604796Y-58906096D01*
X64442123Y-59021488D01*
X64433095Y-59029281D01*
X64295178Y-59173351D01*
X64287779Y-59182720D01*
X64270102Y-59210097D01*
X64216348Y-59256475D01*
X64146052Y-59266429D01*
X64081535Y-59236798D01*
X64065164Y-59219583D01*
X64057387Y-59209683D01*
X63970916Y-59099600D01*
X63966385Y-59095668D01*
X63966382Y-59095665D01*
X63815687Y-58964899D01*
X63811157Y-58960968D01*
X63805971Y-58957968D01*
X63805967Y-58957965D01*
X63633262Y-58858053D01*
X63628066Y-58855047D01*
X63428249Y-58785659D01*
X63422314Y-58784798D01*
X63422312Y-58784798D01*
X63224856Y-58756168D01*
X63224853Y-58756168D01*
X63218916Y-58755307D01*
X63007621Y-58765087D01*
X62898111Y-58791479D01*
X62807819Y-58813239D01*
X62807817Y-58813240D01*
X62801986Y-58814645D01*
X62796528Y-58817127D01*
X62796524Y-58817128D01*
X62698785Y-58861568D01*
X62609433Y-58902194D01*
X62436909Y-59024574D01*
X62290639Y-59177370D01*
X62175900Y-59355068D01*
X62166648Y-59378026D01*
X62110892Y-59516375D01*
X62096834Y-59551257D01*
X62056292Y-59758857D01*
X62056020Y-59764419D01*
X62056020Y-60470366D01*
X60459009Y-60470366D01*
X60459009Y-60101310D01*
X60456874Y-60074175D01*
X60444506Y-59917040D01*
X60444118Y-59912106D01*
X60442101Y-59903701D01*
X60386169Y-59670730D01*
X60385014Y-59665918D01*
X60337520Y-59551257D01*
X60290020Y-59436581D01*
X60290018Y-59436577D01*
X60288125Y-59432007D01*
X60155837Y-59216133D01*
X59991407Y-59023611D01*
X59798885Y-58859181D01*
X59583011Y-58726893D01*
X59578441Y-58725000D01*
X59578437Y-58724998D01*
X59353673Y-58631898D01*
X59353671Y-58631897D01*
X59349100Y-58630004D01*
X59209291Y-58596439D01*
X59107725Y-58572055D01*
X59107719Y-58572054D01*
X59102912Y-58570900D01*
X58850509Y-58551035D01*
X58598106Y-58570900D01*
X58593299Y-58572054D01*
X58593293Y-58572055D01*
X58491727Y-58596439D01*
X58351918Y-58630004D01*
X58347347Y-58631897D01*
X58347345Y-58631898D01*
X58122581Y-58724998D01*
X58122577Y-58725000D01*
X58118007Y-58726893D01*
X57902133Y-58859181D01*
X57709611Y-59023611D01*
X57707416Y-59026181D01*
X57645485Y-59059999D01*
X57605095Y-59062141D01*
X57552042Y-59056378D01*
X57552038Y-59056378D01*
X57548643Y-59056009D01*
X55952375Y-59056009D01*
X55890193Y-59062764D01*
X55753804Y-59113894D01*
X55637248Y-59201248D01*
X55612628Y-59234098D01*
X55555771Y-59276611D01*
X55484953Y-59281637D01*
X55441528Y-59263113D01*
X55363657Y-59210786D01*
X55353867Y-59205404D01*
X55158519Y-59119652D01*
X55147927Y-59116087D01*
X55022125Y-59085885D01*
X55008039Y-59086590D01*
X55004509Y-59095469D01*
X55004509Y-62532920D01*
X54496509Y-62532920D01*
X54496509Y-59096098D01*
X54492404Y-59082116D01*
X54482781Y-59080623D01*
X54482536Y-59080675D01*
X54278626Y-59143407D01*
X54268280Y-59147628D01*
X54078695Y-59245480D01*
X54069264Y-59251466D01*
X53900008Y-59381341D01*
X53891779Y-59388907D01*
X53844389Y-59440988D01*
X53783748Y-59477911D01*
X53712773Y-59476188D01*
X53663510Y-59446673D01*
X53549738Y-59336420D01*
X53549735Y-59336418D01*
X53545710Y-59332517D01*
X53359247Y-59207219D01*
X53153542Y-59116921D01*
X53148091Y-59115612D01*
X53148087Y-59115611D01*
X52940555Y-59065787D01*
X52940554Y-59065787D01*
X52935098Y-59064477D01*
X52845289Y-59059299D01*
X52716426Y-59051869D01*
X52716423Y-59051869D01*
X52710819Y-59051546D01*
X52487794Y-59078534D01*
X52273074Y-59144591D01*
X52268094Y-59147161D01*
X52268090Y-59147163D01*
X52140243Y-59213150D01*
X52107022Y-59230297D01*
X52099231Y-59234318D01*
X52029524Y-59247787D01*
X51963600Y-59221432D01*
X51945630Y-59204182D01*
X51794620Y-59027372D01*
X51794615Y-59027367D01*
X51791407Y-59023611D01*
X51598885Y-58859181D01*
X51383011Y-58726893D01*
X51378441Y-58725000D01*
X51378437Y-58724998D01*
X51153673Y-58631898D01*
X51153671Y-58631897D01*
X51149100Y-58630004D01*
X51009291Y-58596439D01*
X50907725Y-58572055D01*
X50907719Y-58572054D01*
X50902912Y-58570900D01*
X50650509Y-58551035D01*
X50398106Y-58570900D01*
X50393299Y-58572054D01*
X50393293Y-58572055D01*
X50291727Y-58596439D01*
X50151918Y-58630004D01*
X50147347Y-58631897D01*
X50147345Y-58631898D01*
X49922581Y-58724998D01*
X49922577Y-58725000D01*
X49918007Y-58726893D01*
X49702133Y-58859181D01*
X49698378Y-58862388D01*
X49698374Y-58862391D01*
X49698373Y-58862392D01*
X49633014Y-58918215D01*
X49610831Y-58937161D01*
X49546041Y-58966192D01*
X49475841Y-58955587D01*
X49422519Y-58908713D01*
X49403000Y-58841350D01*
X49403000Y-57107757D01*
X49423002Y-57039636D01*
X49476658Y-56993143D01*
X49546932Y-56983039D01*
X49601270Y-57004544D01*
X49774773Y-57126032D01*
X49779755Y-57128355D01*
X49779760Y-57128358D01*
X49931846Y-57199276D01*
X49982279Y-57222793D01*
X49987587Y-57224215D01*
X49987589Y-57224216D01*
X50198120Y-57280628D01*
X50198122Y-57280628D01*
X50203435Y-57282052D01*
X50303002Y-57290763D01*
X50371671Y-57296771D01*
X50371678Y-57296771D01*
X50374395Y-57297009D01*
X50888649Y-57297009D01*
X50891366Y-57296771D01*
X50891373Y-57296771D01*
X50960042Y-57290763D01*
X51059609Y-57282052D01*
X51064922Y-57280628D01*
X51064924Y-57280628D01*
X51275455Y-57224216D01*
X51275457Y-57224215D01*
X51280765Y-57222793D01*
X51331198Y-57199276D01*
X51483284Y-57128358D01*
X51483289Y-57128355D01*
X51488271Y-57126032D01*
X51613462Y-57038372D01*
X51671311Y-56997866D01*
X51671314Y-56997864D01*
X51675822Y-56994707D01*
X51837720Y-56832809D01*
X51860169Y-56800749D01*
X51915627Y-56756420D01*
X51963382Y-56747020D01*
X58969450Y-56747020D01*
X58988400Y-56748453D01*
X59002635Y-56750619D01*
X59002639Y-56750619D01*
X59009869Y-56751719D01*
X59017161Y-56751126D01*
X59017164Y-56751126D01*
X59062538Y-56747435D01*
X59072753Y-56747020D01*
X59080813Y-56747020D01*
X59094103Y-56745471D01*
X59109027Y-56743731D01*
X59113402Y-56743298D01*
X59178859Y-56737974D01*
X59178862Y-56737973D01*
X59186157Y-56737380D01*
X59193121Y-56735124D01*
X59199080Y-56733933D01*
X59204935Y-56732549D01*
X59212201Y-56731702D01*
X59280847Y-56706785D01*
X59284975Y-56705368D01*
X59347456Y-56685127D01*
X59347458Y-56685126D01*
X59354419Y-56682871D01*
X59360674Y-56679075D01*
X59366148Y-56676569D01*
X59371578Y-56673850D01*
X59378457Y-56671353D01*
X59384578Y-56667340D01*
X59439496Y-56631334D01*
X59443200Y-56628997D01*
X59505627Y-56591115D01*
X59514004Y-56583717D01*
X59514028Y-56583744D01*
X59517020Y-56581091D01*
X59520253Y-56578388D01*
X59526372Y-56574376D01*
X59579648Y-56518137D01*
X59582026Y-56515695D01*
X60329796Y-55767925D01*
X60392108Y-55733899D01*
X60418891Y-55731020D01*
X62850027Y-55731020D01*
X62918148Y-55751022D01*
X62964641Y-55804678D01*
X62972063Y-55826283D01*
X62972775Y-55832836D01*
X62975547Y-55840231D01*
X62975548Y-55840234D01*
X63015092Y-55945716D01*
X63023905Y-55969225D01*
X63111259Y-56085781D01*
X63227815Y-56173135D01*
X63364204Y-56224265D01*
X63426386Y-56231020D01*
X64522654Y-56231020D01*
X64584836Y-56224265D01*
X64592235Y-56221491D01*
X64595374Y-56220745D01*
X64653666Y-56220745D01*
X64656805Y-56221491D01*
X64664204Y-56224265D01*
X64726386Y-56231020D01*
X65822654Y-56231020D01*
X65884836Y-56224265D01*
X66021225Y-56173135D01*
X66137781Y-56085781D01*
X66225135Y-55969225D01*
X66276265Y-55832836D01*
X66283020Y-55770654D01*
X66283020Y-55767189D01*
X67030521Y-55767189D01*
X67030891Y-55774010D01*
X67036415Y-55824872D01*
X67040041Y-55840124D01*
X67085196Y-55960574D01*
X67093734Y-55976169D01*
X67170235Y-56078244D01*
X67182796Y-56090805D01*
X67284871Y-56167306D01*
X67300466Y-56175844D01*
X67420914Y-56220998D01*
X67436169Y-56224625D01*
X67487034Y-56230151D01*
X67493848Y-56230520D01*
X67766405Y-56230520D01*
X67781644Y-56226045D01*
X67782849Y-56224655D01*
X67784520Y-56216972D01*
X67784520Y-55244635D01*
X67780045Y-55229396D01*
X67778655Y-55228191D01*
X67770972Y-55226520D01*
X67048636Y-55226520D01*
X67033397Y-55230995D01*
X67032192Y-55232385D01*
X67030521Y-55240068D01*
X67030521Y-55767189D01*
X66283020Y-55767189D01*
X66283020Y-54700405D01*
X67030520Y-54700405D01*
X67034995Y-54715644D01*
X67036385Y-54716849D01*
X67044068Y-54718520D01*
X67766405Y-54718520D01*
X67781644Y-54714045D01*
X67782849Y-54712655D01*
X67784520Y-54704972D01*
X67784520Y-53732636D01*
X67780045Y-53717397D01*
X67778655Y-53716192D01*
X67770972Y-53714521D01*
X67493851Y-53714521D01*
X67487030Y-53714891D01*
X67436168Y-53720415D01*
X67420916Y-53724041D01*
X67300466Y-53769196D01*
X67284871Y-53777734D01*
X67182796Y-53854235D01*
X67170235Y-53866796D01*
X67093734Y-53968871D01*
X67085196Y-53984466D01*
X67040042Y-54104914D01*
X67036415Y-54120169D01*
X67030889Y-54171034D01*
X67030520Y-54177848D01*
X67030520Y-54700405D01*
X66283020Y-54700405D01*
X66283020Y-54174386D01*
X66276265Y-54112204D01*
X66225135Y-53975815D01*
X66137781Y-53859259D01*
X66021225Y-53771905D01*
X66012816Y-53768752D01*
X66012813Y-53768751D01*
X65989789Y-53760119D01*
X65933025Y-53717477D01*
X65908326Y-53650915D01*
X65908020Y-53642138D01*
X65908020Y-52478796D01*
X65928022Y-52410675D01*
X65959958Y-52376861D01*
X65992427Y-52353271D01*
X65992432Y-52353267D01*
X65997773Y-52349386D01*
X66029506Y-52314143D01*
X66121141Y-52212372D01*
X66121142Y-52212371D01*
X66125560Y-52207464D01*
X66194447Y-52088148D01*
X66217743Y-52047799D01*
X66217744Y-52047798D01*
X66221047Y-52042076D01*
X66280062Y-51860448D01*
X66284697Y-51816354D01*
X66299334Y-51677085D01*
X66300024Y-51670520D01*
X66292600Y-51599885D01*
X66280752Y-51487155D01*
X66280752Y-51487153D01*
X66280062Y-51480592D01*
X66221047Y-51298964D01*
X66125560Y-51133576D01*
X66092369Y-51096713D01*
X66002195Y-50996565D01*
X66002194Y-50996564D01*
X65997773Y-50991654D01*
X65843272Y-50879402D01*
X65844940Y-50877107D01*
X65804552Y-50834725D01*
X65791135Y-50765008D01*
X65817540Y-50699104D01*
X65875383Y-50657938D01*
X65916561Y-50651020D01*
X67306149Y-50651020D01*
X67374270Y-50671022D01*
X67395244Y-50687925D01*
X68276395Y-51569076D01*
X68307133Y-51619234D01*
X68361993Y-51788076D01*
X68457480Y-51953464D01*
X68461898Y-51958371D01*
X68461899Y-51958372D01*
X68542629Y-52048032D01*
X68585267Y-52095386D01*
X68637177Y-52133101D01*
X68701051Y-52179508D01*
X68739768Y-52207638D01*
X68745796Y-52210322D01*
X68745798Y-52210323D01*
X68908201Y-52282629D01*
X68914232Y-52285314D01*
X69007632Y-52305167D01*
X69094576Y-52323648D01*
X69094581Y-52323648D01*
X69101033Y-52325020D01*
X69292007Y-52325020D01*
X69298459Y-52323648D01*
X69298464Y-52323648D01*
X69385408Y-52305167D01*
X69478808Y-52285314D01*
X69484839Y-52282629D01*
X69647242Y-52210323D01*
X69647244Y-52210322D01*
X69653272Y-52207638D01*
X69691990Y-52179508D01*
X69755863Y-52133101D01*
X69807773Y-52095386D01*
X69850411Y-52048032D01*
X69931141Y-51958372D01*
X69931142Y-51958371D01*
X69935560Y-51953464D01*
X70031047Y-51788076D01*
X70090062Y-51606448D01*
X70090752Y-51599885D01*
X70103582Y-51477815D01*
X70130595Y-51412158D01*
X70188817Y-51371529D01*
X70259762Y-51368826D01*
X70317987Y-51401891D01*
X71479943Y-52563847D01*
X71487487Y-52572137D01*
X71491600Y-52578618D01*
X71497377Y-52584043D01*
X71541267Y-52625258D01*
X71544109Y-52628013D01*
X71563831Y-52647735D01*
X71566955Y-52650158D01*
X71566959Y-52650162D01*
X71567024Y-52650212D01*
X71576045Y-52657917D01*
X71608279Y-52688186D01*
X71615227Y-52692005D01*
X71615229Y-52692007D01*
X71626032Y-52697946D01*
X71642559Y-52708802D01*
X71652298Y-52716357D01*
X71652300Y-52716358D01*
X71658560Y-52721214D01*
X71699140Y-52738774D01*
X71709788Y-52743991D01*
X71748540Y-52765295D01*
X71756216Y-52767266D01*
X71756219Y-52767267D01*
X71768162Y-52770333D01*
X71786867Y-52776737D01*
X71805455Y-52784781D01*
X71813278Y-52786020D01*
X71813288Y-52786023D01*
X71849124Y-52791699D01*
X71860744Y-52794105D01*
X71895889Y-52803128D01*
X71903570Y-52805100D01*
X71923824Y-52805100D01*
X71943535Y-52806651D01*
X71963543Y-52809820D01*
X71963219Y-52811863D01*
X72020407Y-52830621D01*
X72065194Y-52885708D01*
X72073090Y-52956264D01*
X72063192Y-52987678D01*
X72060034Y-52994450D01*
X72056286Y-53004748D01*
X72010128Y-53177012D01*
X72010464Y-53191108D01*
X72018406Y-53194509D01*
X74959489Y-53194509D01*
X74973020Y-53190536D01*
X74974249Y-53181987D01*
X74926758Y-53004748D01*
X74923012Y-52994456D01*
X74918300Y-52984352D01*
X74907638Y-52914161D01*
X74936616Y-52849347D01*
X74996035Y-52810490D01*
X75032494Y-52805100D01*
X75808251Y-52805100D01*
X75876372Y-52825102D01*
X75922865Y-52878758D01*
X75928084Y-52892163D01*
X75981993Y-53058076D01*
X76077480Y-53223464D01*
X76205267Y-53365386D01*
X76304363Y-53437384D01*
X76319676Y-53448509D01*
X76359768Y-53477638D01*
X76365796Y-53480322D01*
X76365798Y-53480323D01*
X76528201Y-53552629D01*
X76534232Y-53555314D01*
X76627632Y-53575167D01*
X76714576Y-53593648D01*
X76714581Y-53593648D01*
X76721033Y-53595020D01*
X76912007Y-53595020D01*
X76918459Y-53593648D01*
X76918464Y-53593648D01*
X77005407Y-53575167D01*
X77098808Y-53555314D01*
X77104839Y-53552629D01*
X77267242Y-53480323D01*
X77267244Y-53480322D01*
X77273272Y-53477638D01*
X77313365Y-53448509D01*
X77328677Y-53437384D01*
X77427773Y-53365386D01*
X77555560Y-53223464D01*
X77651047Y-53058076D01*
X77710062Y-52876448D01*
X77712911Y-52849347D01*
X77729334Y-52693085D01*
X77730024Y-52686520D01*
X77725948Y-52647735D01*
X77710752Y-52503155D01*
X77710752Y-52503153D01*
X77710062Y-52496592D01*
X77651047Y-52314964D01*
X77647408Y-52308660D01*
X77572841Y-52179508D01*
X77555560Y-52149576D01*
X77546996Y-52140064D01*
X77432195Y-52012565D01*
X77432194Y-52012564D01*
X77427773Y-52007654D01*
X77294479Y-51910810D01*
X77278614Y-51899283D01*
X77278613Y-51899282D01*
X77273272Y-51895402D01*
X77267244Y-51892718D01*
X77267242Y-51892717D01*
X77104839Y-51820411D01*
X77104838Y-51820411D01*
X77098808Y-51817726D01*
X76986241Y-51793799D01*
X76918464Y-51779392D01*
X76918459Y-51779392D01*
X76912007Y-51778020D01*
X76857797Y-51778020D01*
X76789676Y-51758018D01*
X76771545Y-51743871D01*
X76743950Y-51717958D01*
X76741107Y-51715202D01*
X76721370Y-51695465D01*
X76718173Y-51692985D01*
X76709151Y-51685280D01*
X76682700Y-51660441D01*
X76676921Y-51655014D01*
X76669975Y-51651195D01*
X76669972Y-51651193D01*
X76659166Y-51645252D01*
X76642647Y-51634401D01*
X76642183Y-51634041D01*
X76626641Y-51621986D01*
X76619372Y-51618841D01*
X76619368Y-51618838D01*
X76586063Y-51604426D01*
X76575413Y-51599209D01*
X76536660Y-51577905D01*
X76517037Y-51572867D01*
X76498334Y-51566463D01*
X76487020Y-51561567D01*
X76487019Y-51561567D01*
X76479745Y-51558419D01*
X76471922Y-51557180D01*
X76471912Y-51557177D01*
X76436076Y-51551501D01*
X76424456Y-51549095D01*
X76389311Y-51540072D01*
X76389310Y-51540072D01*
X76381630Y-51538100D01*
X76361376Y-51538100D01*
X76341665Y-51536549D01*
X76329486Y-51534620D01*
X76321657Y-51533380D01*
X76313765Y-51534126D01*
X76277639Y-51537541D01*
X76265781Y-51538100D01*
X75039489Y-51538100D01*
X74971368Y-51518098D01*
X74924875Y-51464442D01*
X74914771Y-51394168D01*
X74922498Y-51368234D01*
X74921600Y-51367907D01*
X74923483Y-51362734D01*
X74925806Y-51357752D01*
X74960951Y-51226592D01*
X74983641Y-51141911D01*
X74983641Y-51141909D01*
X74985065Y-51136596D01*
X75005020Y-50908509D01*
X74985065Y-50680422D01*
X74982546Y-50671022D01*
X74927229Y-50464576D01*
X74927228Y-50464574D01*
X74925806Y-50459266D01*
X74865974Y-50330955D01*
X74831371Y-50256747D01*
X74831368Y-50256742D01*
X74829045Y-50251760D01*
X74697720Y-50064209D01*
X74535822Y-49902311D01*
X74531314Y-49899154D01*
X74531311Y-49899152D01*
X74408657Y-49813269D01*
X74348271Y-49770986D01*
X74343289Y-49768663D01*
X74343284Y-49768660D01*
X74309065Y-49752704D01*
X74255780Y-49705787D01*
X74236319Y-49637510D01*
X74256861Y-49569550D01*
X74309065Y-49524314D01*
X74343284Y-49508358D01*
X74343289Y-49508355D01*
X74348271Y-49506032D01*
X74478255Y-49415016D01*
X74531311Y-49377866D01*
X74531314Y-49377864D01*
X74535822Y-49374707D01*
X74697720Y-49212809D01*
X74703559Y-49204471D01*
X74762705Y-49120001D01*
X74829045Y-49025258D01*
X74831368Y-49020276D01*
X74831371Y-49020271D01*
X74923483Y-48822734D01*
X74923483Y-48822733D01*
X74925806Y-48817752D01*
X74985065Y-48596596D01*
X75005020Y-48368509D01*
X74985065Y-48140422D01*
X74983641Y-48135107D01*
X74927229Y-47924576D01*
X74927228Y-47924574D01*
X74925806Y-47919266D01*
X74911383Y-47888335D01*
X74831371Y-47716747D01*
X74831368Y-47716742D01*
X74829045Y-47711760D01*
X74697720Y-47524209D01*
X74535822Y-47362311D01*
X74531314Y-47359154D01*
X74531311Y-47359152D01*
X74374370Y-47249261D01*
X74348271Y-47230986D01*
X74343289Y-47228663D01*
X74343284Y-47228660D01*
X74309065Y-47212704D01*
X74255780Y-47165787D01*
X74236319Y-47097510D01*
X74256861Y-47029550D01*
X74309065Y-46984314D01*
X74343284Y-46968358D01*
X74343289Y-46968355D01*
X74348271Y-46966032D01*
X74471657Y-46879636D01*
X74531311Y-46837866D01*
X74531314Y-46837864D01*
X74535822Y-46834707D01*
X74697720Y-46672809D01*
X74829045Y-46485258D01*
X74831368Y-46480276D01*
X74831371Y-46480271D01*
X74923483Y-46282734D01*
X74923483Y-46282733D01*
X74925806Y-46277752D01*
X74952345Y-46178710D01*
X74983641Y-46061911D01*
X74983641Y-46061909D01*
X74985065Y-46056596D01*
X75005020Y-45828509D01*
X74985065Y-45600422D01*
X74925806Y-45379266D01*
X74923483Y-45374284D01*
X74831371Y-45176747D01*
X74831368Y-45176742D01*
X74829045Y-45171760D01*
X74697720Y-44984209D01*
X74535822Y-44822311D01*
X74531314Y-44819154D01*
X74531311Y-44819152D01*
X74374370Y-44709261D01*
X74348271Y-44690986D01*
X74343289Y-44688663D01*
X74343284Y-44688660D01*
X74309065Y-44672704D01*
X74255780Y-44625787D01*
X74236319Y-44557510D01*
X74256861Y-44489550D01*
X74309065Y-44444314D01*
X74343284Y-44428358D01*
X74343289Y-44428355D01*
X74348271Y-44426032D01*
X74471657Y-44339636D01*
X74531311Y-44297866D01*
X74531314Y-44297864D01*
X74535822Y-44294707D01*
X74697720Y-44132809D01*
X74829045Y-43945258D01*
X74831368Y-43940276D01*
X74831371Y-43940271D01*
X74923483Y-43742734D01*
X74923483Y-43742733D01*
X74925806Y-43737752D01*
X74971260Y-43568119D01*
X74983641Y-43521911D01*
X74983641Y-43521909D01*
X74985065Y-43516596D01*
X75005020Y-43288509D01*
X74985065Y-43060422D01*
X74983641Y-43055107D01*
X74927229Y-42844576D01*
X74927228Y-42844574D01*
X74925806Y-42839266D01*
X74886575Y-42755134D01*
X74831371Y-42636747D01*
X74831368Y-42636742D01*
X74829045Y-42631760D01*
X74749948Y-42518798D01*
X74700879Y-42448720D01*
X74700877Y-42448717D01*
X74697720Y-42444209D01*
X74535822Y-42282311D01*
X74531314Y-42279154D01*
X74531311Y-42279152D01*
X74371965Y-42167577D01*
X74348271Y-42150986D01*
X74343289Y-42148663D01*
X74343284Y-42148660D01*
X74309065Y-42132704D01*
X74255780Y-42085787D01*
X74236319Y-42017510D01*
X74256861Y-41949550D01*
X74309065Y-41904314D01*
X74343284Y-41888358D01*
X74343289Y-41888355D01*
X74348271Y-41886032D01*
X74471657Y-41799636D01*
X74531311Y-41757866D01*
X74531314Y-41757864D01*
X74535822Y-41754707D01*
X74697720Y-41592809D01*
X74829045Y-41405258D01*
X74831368Y-41400276D01*
X74831371Y-41400271D01*
X74923483Y-41202734D01*
X74923483Y-41202733D01*
X74925806Y-41197752D01*
X74942978Y-41133668D01*
X74983641Y-40981911D01*
X74983641Y-40981909D01*
X74985065Y-40976596D01*
X75005020Y-40748509D01*
X74985065Y-40520422D01*
X74944408Y-40368688D01*
X74927229Y-40304576D01*
X74927228Y-40304574D01*
X74925806Y-40299266D01*
X74910526Y-40266498D01*
X74831371Y-40096747D01*
X74831368Y-40096742D01*
X74829045Y-40091760D01*
X74697720Y-39904209D01*
X74535822Y-39742311D01*
X74531314Y-39739154D01*
X74531311Y-39739152D01*
X74430122Y-39668299D01*
X74348271Y-39610986D01*
X74343289Y-39608663D01*
X74343284Y-39608660D01*
X74309065Y-39592704D01*
X74255780Y-39545787D01*
X74236319Y-39477510D01*
X74256861Y-39409550D01*
X74309065Y-39364314D01*
X74343284Y-39348358D01*
X74343289Y-39348355D01*
X74348271Y-39346032D01*
X74471080Y-39260040D01*
X74531311Y-39217866D01*
X74531314Y-39217864D01*
X74535822Y-39214707D01*
X74697720Y-39052809D01*
X74829045Y-38865258D01*
X74831368Y-38860276D01*
X74831371Y-38860271D01*
X74923483Y-38662734D01*
X74923483Y-38662733D01*
X74925806Y-38657752D01*
X74985065Y-38436596D01*
X75005020Y-38208509D01*
X74985065Y-37980422D01*
X74925806Y-37759266D01*
X74923483Y-37754284D01*
X74831371Y-37556747D01*
X74831368Y-37556742D01*
X74829045Y-37551760D01*
X74697720Y-37364209D01*
X74535822Y-37202311D01*
X74531314Y-37199154D01*
X74531311Y-37199152D01*
X74398346Y-37106049D01*
X74348271Y-37070986D01*
X74343283Y-37068660D01*
X74338520Y-37065910D01*
X74339594Y-37064050D01*
X74293285Y-37023270D01*
X74273829Y-36954992D01*
X74294376Y-36887033D01*
X74348402Y-36840971D01*
X74399825Y-36830000D01*
X74794298Y-36830000D01*
X74795069Y-36830002D01*
X74872652Y-36830476D01*
X74881281Y-36828010D01*
X74881286Y-36828009D01*
X74901048Y-36822361D01*
X74917809Y-36818783D01*
X74938152Y-36815870D01*
X74938162Y-36815867D01*
X74947045Y-36814595D01*
X74970395Y-36803979D01*
X74987907Y-36797536D01*
X75003937Y-36792954D01*
X75012565Y-36790488D01*
X75037548Y-36774726D01*
X75052614Y-36766596D01*
X75079510Y-36754367D01*
X75098939Y-36737626D01*
X75113947Y-36726521D01*
X75128039Y-36717630D01*
X75135631Y-36712840D01*
X75155182Y-36690703D01*
X75167374Y-36678659D01*
X75182949Y-36665239D01*
X75182950Y-36665237D01*
X75189747Y-36659381D01*
X75194626Y-36651853D01*
X75194629Y-36651850D01*
X75203696Y-36637861D01*
X75214986Y-36622987D01*
X75226012Y-36610502D01*
X75231956Y-36603772D01*
X75244510Y-36577034D01*
X75252824Y-36562065D01*
X75268893Y-36537273D01*
X75276239Y-36512709D01*
X75282901Y-36495264D01*
X75289983Y-36480179D01*
X75293799Y-36472052D01*
X75298343Y-36442870D01*
X75302126Y-36426151D01*
X75308014Y-36406464D01*
X75308015Y-36406461D01*
X75310587Y-36397859D01*
X75310797Y-36363444D01*
X75310830Y-36362672D01*
X75311000Y-36361577D01*
X75311000Y-36330702D01*
X75311002Y-36329932D01*
X75311452Y-36256284D01*
X75311452Y-36256283D01*
X75311476Y-36252348D01*
X75311092Y-36251004D01*
X75311000Y-36249659D01*
X75311000Y-29590000D01*
X75331002Y-29521879D01*
X75384658Y-29475386D01*
X75437000Y-29464000D01*
X77152557Y-29464000D01*
X77220678Y-29484002D01*
G37*
%TD.AperFunction*%
%TA.AperFunction,Conductor*%
G36*
X83532141Y-60069022D02*
G01*
X83578634Y-60122678D01*
X83590020Y-60175020D01*
X83590020Y-61200654D01*
X83596775Y-61262836D01*
X83647905Y-61399225D01*
X83735259Y-61515781D01*
X83742439Y-61521162D01*
X83747983Y-61526706D01*
X83782009Y-61589018D01*
X83776944Y-61659833D01*
X83731159Y-61719014D01*
X83569794Y-61832003D01*
X83569791Y-61832005D01*
X83565283Y-61835162D01*
X83400230Y-62000215D01*
X83266346Y-62191421D01*
X83264574Y-62195222D01*
X83213484Y-62243936D01*
X83143770Y-62257372D01*
X83077859Y-62230986D01*
X83046629Y-62194946D01*
X83042132Y-62187158D01*
X83001838Y-62129611D01*
X82991360Y-62121236D01*
X82977912Y-62128304D01*
X81975132Y-63131084D01*
X81912820Y-63165110D01*
X81842005Y-63160045D01*
X81796942Y-63131084D01*
X80793440Y-62127582D01*
X80748214Y-62102886D01*
X80745630Y-62102323D01*
X80695438Y-62052111D01*
X80680644Y-61994126D01*
X80680221Y-61994149D01*
X80680105Y-61992015D01*
X80680037Y-61991747D01*
X80680037Y-61987335D01*
X80673282Y-61925153D01*
X80622152Y-61788764D01*
X80597331Y-61755646D01*
X81146304Y-61755646D01*
X81153372Y-61769094D01*
X81873225Y-62488947D01*
X81887169Y-62496561D01*
X81889002Y-62496430D01*
X81895617Y-62492179D01*
X82619424Y-61768372D01*
X82625854Y-61756598D01*
X82616557Y-61744582D01*
X82559839Y-61704868D01*
X82550353Y-61699390D01*
X82348845Y-61605425D01*
X82338553Y-61601679D01*
X82123796Y-61544135D01*
X82113001Y-61542232D01*
X81891512Y-61522854D01*
X81880562Y-61522854D01*
X81659073Y-61542232D01*
X81648278Y-61544135D01*
X81433521Y-61601679D01*
X81423229Y-61605425D01*
X81221721Y-61699390D01*
X81212235Y-61704868D01*
X81154679Y-61745168D01*
X81146304Y-61755646D01*
X80597331Y-61755646D01*
X80534798Y-61672208D01*
X80418242Y-61584854D01*
X80281853Y-61533724D01*
X80219671Y-61526969D01*
X78472403Y-61526969D01*
X78410221Y-61533724D01*
X78273832Y-61584854D01*
X78157276Y-61672208D01*
X78094938Y-61755386D01*
X78094854Y-61755498D01*
X78037995Y-61798013D01*
X77967177Y-61803039D01*
X77904933Y-61769028D01*
X77828172Y-61692267D01*
X77820632Y-61683981D01*
X77816520Y-61677502D01*
X77766868Y-61630876D01*
X77764027Y-61628122D01*
X77744290Y-61608385D01*
X77741093Y-61605905D01*
X77732071Y-61598200D01*
X77731178Y-61597361D01*
X77699841Y-61567934D01*
X77692895Y-61564115D01*
X77692892Y-61564113D01*
X77682086Y-61558172D01*
X77665567Y-61547321D01*
X77661459Y-61544135D01*
X77649561Y-61534906D01*
X77642292Y-61531761D01*
X77642288Y-61531758D01*
X77608983Y-61517346D01*
X77598333Y-61512129D01*
X77559580Y-61490825D01*
X77539957Y-61485787D01*
X77521254Y-61479383D01*
X77509940Y-61474487D01*
X77509939Y-61474487D01*
X77502665Y-61471339D01*
X77494842Y-61470100D01*
X77494832Y-61470097D01*
X77458996Y-61464421D01*
X77447376Y-61462015D01*
X77412231Y-61452992D01*
X77412230Y-61452992D01*
X77404550Y-61451020D01*
X77384296Y-61451020D01*
X77364585Y-61449469D01*
X77359680Y-61448692D01*
X77344577Y-61446300D01*
X77309604Y-61449606D01*
X77300559Y-61450461D01*
X77288701Y-61451020D01*
X76219343Y-61451020D01*
X76151222Y-61431018D01*
X76104729Y-61377362D01*
X76094625Y-61307088D01*
X76124119Y-61242508D01*
X76137513Y-61229209D01*
X76175657Y-61196631D01*
X76175662Y-61196626D01*
X76179418Y-61193418D01*
X76343848Y-61000896D01*
X76476136Y-60785022D01*
X76479016Y-60778071D01*
X76571131Y-60555684D01*
X76571132Y-60555682D01*
X76573025Y-60551111D01*
X76606753Y-60410623D01*
X76630974Y-60309736D01*
X76630975Y-60309730D01*
X76632129Y-60304923D01*
X76643051Y-60166155D01*
X76668335Y-60099815D01*
X76725473Y-60057675D01*
X76765254Y-60050088D01*
X76803040Y-60049066D01*
X76806448Y-60049020D01*
X83464020Y-60049020D01*
X83532141Y-60069022D01*
G37*
%TD.AperFunction*%
%TA.AperFunction,Conductor*%
G36*
X100080678Y-29484002D02*
G01*
X100127171Y-29537658D01*
X100137820Y-29603607D01*
X100132515Y-29652445D01*
X100132515Y-31748713D01*
X100139270Y-31810895D01*
X100190400Y-31947284D01*
X100277754Y-32063840D01*
X100394310Y-32151194D01*
X100530699Y-32202324D01*
X100592881Y-32209079D01*
X102689149Y-32209079D01*
X102751331Y-32202324D01*
X102826771Y-32174043D01*
X102897577Y-32168860D01*
X102959946Y-32202781D01*
X102994076Y-32265036D01*
X102997000Y-32292025D01*
X102997000Y-43079133D01*
X102976998Y-43147254D01*
X102923342Y-43193747D01*
X102853068Y-43203851D01*
X102826770Y-43197115D01*
X102817786Y-43193747D01*
X102751331Y-43168834D01*
X102689149Y-43162079D01*
X100592881Y-43162079D01*
X100530699Y-43168834D01*
X100394310Y-43219964D01*
X100277754Y-43307318D01*
X100190400Y-43423874D01*
X100139270Y-43560263D01*
X100132515Y-43622445D01*
X100132515Y-45718713D01*
X100139270Y-45780895D01*
X100190400Y-45917284D01*
X100277754Y-46033840D01*
X100394310Y-46121194D01*
X100530699Y-46172324D01*
X100592881Y-46179079D01*
X102689149Y-46179079D01*
X102751331Y-46172324D01*
X102826771Y-46144043D01*
X102897577Y-46138860D01*
X102959946Y-46172781D01*
X102994076Y-46235036D01*
X102997000Y-46262025D01*
X102997000Y-55246000D01*
X102976998Y-55314121D01*
X102923342Y-55360614D01*
X102871000Y-55372000D01*
X102116702Y-55372000D01*
X102115932Y-55371998D01*
X102115078Y-55371993D01*
X102038348Y-55371524D01*
X102029719Y-55373990D01*
X102029714Y-55373991D01*
X102009952Y-55379639D01*
X101993191Y-55383217D01*
X101972848Y-55386130D01*
X101972838Y-55386133D01*
X101963955Y-55387405D01*
X101940605Y-55398021D01*
X101923093Y-55404464D01*
X101910200Y-55408149D01*
X101898435Y-55411512D01*
X101873452Y-55427274D01*
X101858386Y-55435404D01*
X101831490Y-55447633D01*
X101812061Y-55464374D01*
X101797053Y-55475479D01*
X101775369Y-55489160D01*
X101769427Y-55495888D01*
X101755819Y-55511296D01*
X101743626Y-55523341D01*
X101730786Y-55534405D01*
X101721253Y-55542619D01*
X101716374Y-55550147D01*
X101716371Y-55550150D01*
X101707304Y-55564139D01*
X101696014Y-55579013D01*
X101679044Y-55598228D01*
X101675229Y-55606354D01*
X101675228Y-55606355D01*
X101674777Y-55607316D01*
X101666490Y-55624966D01*
X101658176Y-55639935D01*
X101642107Y-55664727D01*
X101639535Y-55673327D01*
X101634761Y-55689290D01*
X101628099Y-55706736D01*
X101617201Y-55729948D01*
X101615820Y-55738821D01*
X101612658Y-55759128D01*
X101608874Y-55775849D01*
X101602986Y-55795536D01*
X101602985Y-55795539D01*
X101600413Y-55804141D01*
X101600358Y-55813116D01*
X101600358Y-55813117D01*
X101600203Y-55838546D01*
X101600170Y-55839328D01*
X101600000Y-55840423D01*
X101600000Y-55871298D01*
X101599998Y-55872068D01*
X101599524Y-55949652D01*
X101599908Y-55950996D01*
X101600000Y-55952341D01*
X101600000Y-61205298D01*
X101599998Y-61206068D01*
X101599524Y-61283652D01*
X101601990Y-61292281D01*
X101601991Y-61292286D01*
X101607639Y-61312048D01*
X101611217Y-61328809D01*
X101614130Y-61349152D01*
X101614133Y-61349162D01*
X101615405Y-61358045D01*
X101626021Y-61381395D01*
X101632464Y-61398907D01*
X101639512Y-61423565D01*
X101655274Y-61448548D01*
X101663404Y-61463614D01*
X101670574Y-61479383D01*
X101675634Y-61490512D01*
X101674068Y-61491224D01*
X101690968Y-61549249D01*
X101670816Y-61617325D01*
X101618218Y-61663167D01*
X101541476Y-61698952D01*
X101541471Y-61698955D01*
X101536489Y-61701278D01*
X101531982Y-61704434D01*
X101531980Y-61704435D01*
X101349794Y-61832003D01*
X101349791Y-61832005D01*
X101345283Y-61835162D01*
X101180230Y-62000215D01*
X101177073Y-62004723D01*
X101177071Y-62004726D01*
X101102750Y-62110868D01*
X101047293Y-62155196D01*
X100976674Y-62162505D01*
X100913313Y-62130474D01*
X100896324Y-62110868D01*
X100822003Y-62004726D01*
X100822001Y-62004723D01*
X100818844Y-62000215D01*
X100653791Y-61835162D01*
X100649283Y-61832005D01*
X100649280Y-61832003D01*
X100467094Y-61704435D01*
X100467092Y-61704434D01*
X100462585Y-61701278D01*
X100457603Y-61698955D01*
X100457598Y-61698952D01*
X100256017Y-61604953D01*
X100256015Y-61604952D01*
X100251035Y-61602630D01*
X100245727Y-61601208D01*
X100245725Y-61601207D01*
X100030884Y-61543641D01*
X100030882Y-61543641D01*
X100025569Y-61542217D01*
X99793037Y-61521873D01*
X99560505Y-61542217D01*
X99555192Y-61543641D01*
X99555190Y-61543641D01*
X99340349Y-61601207D01*
X99340347Y-61601208D01*
X99335039Y-61602630D01*
X99330059Y-61604952D01*
X99330057Y-61604953D01*
X99128476Y-61698952D01*
X99128471Y-61698955D01*
X99123489Y-61701278D01*
X99118982Y-61704434D01*
X99118980Y-61704435D01*
X98936794Y-61832003D01*
X98936791Y-61832005D01*
X98932283Y-61835162D01*
X98767230Y-62000215D01*
X98764073Y-62004723D01*
X98764071Y-62004726D01*
X98639716Y-62182323D01*
X98633346Y-62191421D01*
X98631023Y-62196403D01*
X98631020Y-62196408D01*
X98573732Y-62319263D01*
X98526814Y-62372548D01*
X98458537Y-62392009D01*
X98390577Y-62371467D01*
X98345342Y-62319263D01*
X98288054Y-62196408D01*
X98288051Y-62196403D01*
X98285728Y-62191421D01*
X98279358Y-62182323D01*
X98155003Y-62004726D01*
X98155001Y-62004723D01*
X98151844Y-62000215D01*
X97986791Y-61835162D01*
X97982283Y-61832005D01*
X97982280Y-61832003D01*
X97800094Y-61704435D01*
X97800092Y-61704434D01*
X97795585Y-61701278D01*
X97790603Y-61698955D01*
X97790598Y-61698952D01*
X97589017Y-61604953D01*
X97589015Y-61604952D01*
X97584035Y-61602630D01*
X97578727Y-61601208D01*
X97578725Y-61601207D01*
X97363884Y-61543641D01*
X97363882Y-61543641D01*
X97358569Y-61542217D01*
X97126037Y-61521873D01*
X96893505Y-61542217D01*
X96888192Y-61543641D01*
X96888190Y-61543641D01*
X96673349Y-61601207D01*
X96673347Y-61601208D01*
X96668039Y-61602630D01*
X96663059Y-61604952D01*
X96663057Y-61604953D01*
X96461476Y-61698952D01*
X96461471Y-61698955D01*
X96456489Y-61701278D01*
X96451982Y-61704434D01*
X96451980Y-61704435D01*
X96269794Y-61832003D01*
X96269791Y-61832005D01*
X96265283Y-61835162D01*
X96100230Y-62000215D01*
X95966346Y-62191421D01*
X95964763Y-62194816D01*
X95913771Y-62243435D01*
X95844057Y-62256869D01*
X95778147Y-62230481D01*
X95747390Y-62194986D01*
X95745728Y-62191421D01*
X95611844Y-62000215D01*
X95446791Y-61835162D01*
X95442283Y-61832005D01*
X95442280Y-61832003D01*
X95260094Y-61704435D01*
X95260092Y-61704434D01*
X95255585Y-61701278D01*
X95250603Y-61698955D01*
X95250598Y-61698952D01*
X95049017Y-61604953D01*
X95049015Y-61604952D01*
X95044035Y-61602630D01*
X95038727Y-61601208D01*
X95038725Y-61601207D01*
X94823884Y-61543641D01*
X94823882Y-61543641D01*
X94818569Y-61542217D01*
X94586037Y-61521873D01*
X94353505Y-61542217D01*
X94348192Y-61543641D01*
X94348190Y-61543641D01*
X94133349Y-61601207D01*
X94133347Y-61601208D01*
X94128039Y-61602630D01*
X94123059Y-61604952D01*
X94123057Y-61604953D01*
X93921476Y-61698952D01*
X93921471Y-61698955D01*
X93916489Y-61701278D01*
X93911982Y-61704434D01*
X93911980Y-61704435D01*
X93729794Y-61832003D01*
X93729791Y-61832005D01*
X93725283Y-61835162D01*
X93560230Y-62000215D01*
X93426346Y-62191421D01*
X93424763Y-62194816D01*
X93373771Y-62243435D01*
X93304057Y-62256869D01*
X93238147Y-62230481D01*
X93207390Y-62194986D01*
X93205728Y-62191421D01*
X93071844Y-62000215D01*
X92906791Y-61835162D01*
X92902283Y-61832005D01*
X92902280Y-61832003D01*
X92720094Y-61704435D01*
X92720092Y-61704434D01*
X92715585Y-61701278D01*
X92710603Y-61698955D01*
X92710598Y-61698952D01*
X92509017Y-61604953D01*
X92509015Y-61604952D01*
X92504035Y-61602630D01*
X92498727Y-61601208D01*
X92498725Y-61601207D01*
X92283884Y-61543641D01*
X92283882Y-61543641D01*
X92278569Y-61542217D01*
X92046037Y-61521873D01*
X92043804Y-61522068D01*
X91976649Y-61502350D01*
X91930156Y-61448694D01*
X91920052Y-61378420D01*
X91949546Y-61313840D01*
X91955675Y-61307257D01*
X92086247Y-61176685D01*
X92094537Y-61169141D01*
X92101018Y-61165028D01*
X92147659Y-61115360D01*
X92150413Y-61112519D01*
X92170134Y-61092798D01*
X92172612Y-61089603D01*
X92180318Y-61080581D01*
X92205158Y-61054129D01*
X92210586Y-61048349D01*
X92220346Y-61030596D01*
X92231199Y-61014073D01*
X92238753Y-61004334D01*
X92243613Y-60998069D01*
X92261176Y-60957485D01*
X92266383Y-60946855D01*
X92287695Y-60908088D01*
X92289666Y-60900411D01*
X92289668Y-60900406D01*
X92292732Y-60888470D01*
X92299138Y-60869758D01*
X92304034Y-60858445D01*
X92307181Y-60851173D01*
X92309034Y-60839477D01*
X92314097Y-60807509D01*
X92316504Y-60795888D01*
X92325528Y-60760739D01*
X92325528Y-60760738D01*
X92327500Y-60753058D01*
X92327500Y-60732797D01*
X92329051Y-60713086D01*
X92330977Y-60700929D01*
X92332219Y-60693085D01*
X92328059Y-60649074D01*
X92327500Y-60637217D01*
X92327500Y-55704767D01*
X92328027Y-55693584D01*
X92329702Y-55686091D01*
X92327562Y-55618000D01*
X92327500Y-55614043D01*
X92327500Y-55586144D01*
X92326996Y-55582153D01*
X92326063Y-55570311D01*
X92325430Y-55550150D01*
X92324674Y-55526111D01*
X92322462Y-55518497D01*
X92322461Y-55518492D01*
X92319023Y-55506659D01*
X92315012Y-55487295D01*
X92314351Y-55482058D01*
X92312474Y-55467203D01*
X92309557Y-55459836D01*
X92309556Y-55459831D01*
X92296198Y-55426092D01*
X92292354Y-55414865D01*
X92288585Y-55401893D01*
X92280018Y-55372407D01*
X92275697Y-55365100D01*
X92269707Y-55354972D01*
X92261012Y-55337224D01*
X92253552Y-55318383D01*
X92227564Y-55282613D01*
X92221048Y-55272693D01*
X92202580Y-55241465D01*
X92202578Y-55241462D01*
X92198542Y-55234638D01*
X92184221Y-55220317D01*
X92171380Y-55205283D01*
X92164131Y-55195306D01*
X92159472Y-55188893D01*
X92153367Y-55183842D01*
X92153362Y-55183837D01*
X92125396Y-55160701D01*
X92116618Y-55152713D01*
X91308652Y-54344747D01*
X91301112Y-54336461D01*
X91297000Y-54329982D01*
X91247348Y-54283356D01*
X91244507Y-54280602D01*
X91224770Y-54260865D01*
X91221573Y-54258385D01*
X91212551Y-54250680D01*
X91180321Y-54220414D01*
X91173375Y-54216595D01*
X91173372Y-54216593D01*
X91162566Y-54210652D01*
X91146047Y-54199801D01*
X91138591Y-54194018D01*
X91130041Y-54187386D01*
X91122772Y-54184241D01*
X91122768Y-54184238D01*
X91089463Y-54169826D01*
X91078813Y-54164609D01*
X91040060Y-54143305D01*
X91020437Y-54138267D01*
X91001734Y-54131863D01*
X90990420Y-54126967D01*
X90990419Y-54126967D01*
X90983145Y-54123819D01*
X90975322Y-54122580D01*
X90975312Y-54122577D01*
X90939476Y-54116901D01*
X90927856Y-54114495D01*
X90892711Y-54105472D01*
X90892710Y-54105472D01*
X90885030Y-54103500D01*
X90864776Y-54103500D01*
X90845065Y-54101949D01*
X90832886Y-54100020D01*
X90825057Y-54098780D01*
X90795786Y-54101547D01*
X90781039Y-54102941D01*
X90769181Y-54103500D01*
X88470768Y-54103500D01*
X88459585Y-54102973D01*
X88452092Y-54101298D01*
X88444166Y-54101547D01*
X88444165Y-54101547D01*
X88384002Y-54103438D01*
X88380044Y-54103500D01*
X88352144Y-54103500D01*
X88348154Y-54104004D01*
X88336320Y-54104936D01*
X88292111Y-54106326D01*
X88284497Y-54108538D01*
X88284492Y-54108539D01*
X88272659Y-54111977D01*
X88253296Y-54115988D01*
X88233203Y-54118526D01*
X88225836Y-54121443D01*
X88225831Y-54121444D01*
X88192092Y-54134802D01*
X88180865Y-54138646D01*
X88138407Y-54150982D01*
X88131581Y-54155019D01*
X88120972Y-54161293D01*
X88103224Y-54169988D01*
X88084383Y-54177448D01*
X88077967Y-54182110D01*
X88077966Y-54182110D01*
X88048613Y-54203436D01*
X88038693Y-54209952D01*
X88007465Y-54228420D01*
X88007462Y-54228422D01*
X88000638Y-54232458D01*
X87986317Y-54246779D01*
X87971284Y-54259619D01*
X87954893Y-54271528D01*
X87938285Y-54291604D01*
X87926702Y-54305605D01*
X87918712Y-54314384D01*
X84628980Y-57604115D01*
X84566668Y-57638141D01*
X84539885Y-57641020D01*
X83350526Y-57641020D01*
X83282405Y-57621018D01*
X83235912Y-57567362D01*
X83225808Y-57497088D01*
X83255302Y-57432508D01*
X83315028Y-57394124D01*
X83324329Y-57391773D01*
X83329892Y-57390591D01*
X83448808Y-57365314D01*
X83557299Y-57317011D01*
X83617242Y-57290323D01*
X83617244Y-57290322D01*
X83623272Y-57287638D01*
X83630961Y-57282052D01*
X83694096Y-57236181D01*
X83777773Y-57175386D01*
X83820117Y-57128358D01*
X83901141Y-57038372D01*
X83901142Y-57038371D01*
X83905560Y-57033464D01*
X84001047Y-56868076D01*
X84060062Y-56686448D01*
X84061101Y-56676569D01*
X84079334Y-56503085D01*
X84080024Y-56496520D01*
X84069151Y-56393071D01*
X84060752Y-56313155D01*
X84060752Y-56313153D01*
X84060062Y-56306592D01*
X84001047Y-56124964D01*
X83983410Y-56094415D01*
X83957200Y-56049019D01*
X83941901Y-56022520D01*
X83925020Y-55959521D01*
X83925020Y-55084891D01*
X83945022Y-55016770D01*
X83961925Y-54995796D01*
X88910851Y-50046870D01*
X88973748Y-50012719D01*
X89030344Y-50000689D01*
X89030353Y-50000686D01*
X89036808Y-49999314D01*
X89042839Y-49996629D01*
X89205242Y-49924323D01*
X89205244Y-49924322D01*
X89211272Y-49921638D01*
X89220186Y-49915162D01*
X89314101Y-49846928D01*
X89365773Y-49809386D01*
X89397506Y-49774143D01*
X89489141Y-49672372D01*
X89489142Y-49672371D01*
X89493560Y-49667464D01*
X89499602Y-49657000D01*
X89549164Y-49571155D01*
X89600546Y-49522161D01*
X89670259Y-49508724D01*
X89736171Y-49535111D01*
X89747378Y-49545059D01*
X93057595Y-52855276D01*
X93091621Y-52917588D01*
X93094500Y-52944371D01*
X93094500Y-55066930D01*
X93093067Y-55085880D01*
X93089801Y-55107349D01*
X93090394Y-55114641D01*
X93090394Y-55114644D01*
X93094085Y-55160018D01*
X93094500Y-55170233D01*
X93094500Y-55178293D01*
X93094925Y-55181937D01*
X93097789Y-55206507D01*
X93098222Y-55210882D01*
X93103250Y-55272693D01*
X93104140Y-55283637D01*
X93106396Y-55290601D01*
X93107587Y-55296560D01*
X93108971Y-55302415D01*
X93109818Y-55309681D01*
X93134735Y-55378327D01*
X93136152Y-55382455D01*
X93155640Y-55442610D01*
X93158649Y-55451899D01*
X93162445Y-55458154D01*
X93164951Y-55463628D01*
X93167670Y-55469058D01*
X93170167Y-55475937D01*
X93174180Y-55482057D01*
X93174180Y-55482058D01*
X93210186Y-55536976D01*
X93212523Y-55540680D01*
X93250405Y-55603107D01*
X93254121Y-55607315D01*
X93254122Y-55607316D01*
X93257803Y-55611484D01*
X93257776Y-55611508D01*
X93260429Y-55614500D01*
X93263132Y-55617733D01*
X93267144Y-55623852D01*
X93272456Y-55628884D01*
X93323383Y-55677128D01*
X93325825Y-55679506D01*
X94845595Y-57199276D01*
X94879621Y-57261588D01*
X94882500Y-57288371D01*
X94882500Y-57947400D01*
X94882837Y-57950646D01*
X94882837Y-57950650D01*
X94888418Y-58004433D01*
X94893474Y-58053166D01*
X94949450Y-58220946D01*
X95042522Y-58371348D01*
X95167697Y-58496305D01*
X95173927Y-58500145D01*
X95173928Y-58500146D01*
X95219236Y-58528074D01*
X95266729Y-58580846D01*
X95278153Y-58650918D01*
X95249879Y-58716042D01*
X95230955Y-58734418D01*
X95223080Y-58740604D01*
X95219148Y-58745135D01*
X95219145Y-58745138D01*
X95121163Y-58858053D01*
X95084448Y-58900363D01*
X95081448Y-58905549D01*
X95081445Y-58905553D01*
X95015003Y-59020403D01*
X94978527Y-59083454D01*
X94909139Y-59283271D01*
X94908278Y-59289206D01*
X94908278Y-59289208D01*
X94885447Y-59446673D01*
X94878787Y-59492604D01*
X94888567Y-59703899D01*
X94889971Y-59709724D01*
X94889971Y-59709725D01*
X94912945Y-59805051D01*
X94938125Y-59909534D01*
X94940607Y-59914992D01*
X94940608Y-59914996D01*
X94992916Y-60030041D01*
X95025674Y-60102087D01*
X95148054Y-60274611D01*
X95300850Y-60420881D01*
X95478548Y-60535620D01*
X95538646Y-60559840D01*
X95669168Y-60612442D01*
X95669171Y-60612443D01*
X95674737Y-60614686D01*
X95882337Y-60655228D01*
X95887899Y-60655500D01*
X96593846Y-60655500D01*
X96751566Y-60640452D01*
X96954534Y-60580908D01*
X96959862Y-60578164D01*
X97137249Y-60486804D01*
X97137252Y-60486802D01*
X97142580Y-60484058D01*
X97308920Y-60353396D01*
X97442433Y-60199536D01*
X97472230Y-60174400D01*
X97513107Y-60149595D01*
X97521484Y-60142197D01*
X97521508Y-60142224D01*
X97524500Y-60139571D01*
X97527733Y-60136868D01*
X97533852Y-60132856D01*
X97587128Y-60076617D01*
X97589506Y-60074175D01*
X98278911Y-59384770D01*
X98293323Y-59372384D01*
X98304918Y-59363851D01*
X98304923Y-59363846D01*
X98310818Y-59359508D01*
X98315557Y-59353930D01*
X98315560Y-59353927D01*
X98345035Y-59319232D01*
X98351965Y-59311716D01*
X98357660Y-59306021D01*
X98375281Y-59283749D01*
X98378072Y-59280345D01*
X98420591Y-59230297D01*
X98420592Y-59230295D01*
X98425333Y-59224715D01*
X98428661Y-59218199D01*
X98432028Y-59213150D01*
X98435195Y-59208021D01*
X98439734Y-59202284D01*
X98470655Y-59136125D01*
X98472561Y-59132225D01*
X98480376Y-59116921D01*
X98505769Y-59067192D01*
X98507508Y-59060084D01*
X98509607Y-59054441D01*
X98511524Y-59048678D01*
X98514622Y-59042050D01*
X98529487Y-58970583D01*
X98530457Y-58966299D01*
X98530483Y-58966192D01*
X98547808Y-58895390D01*
X98548500Y-58884236D01*
X98548536Y-58884238D01*
X98548775Y-58880245D01*
X98549149Y-58876053D01*
X98550640Y-58868885D01*
X98548546Y-58791479D01*
X98548500Y-58788072D01*
X98548500Y-52518063D01*
X98549933Y-52499114D01*
X98550317Y-52496592D01*
X98553198Y-52477651D01*
X98548915Y-52424990D01*
X98548500Y-52414777D01*
X98548500Y-52406707D01*
X98548078Y-52403087D01*
X98548077Y-52403069D01*
X98545208Y-52378461D01*
X98544775Y-52374086D01*
X98539454Y-52308661D01*
X98539453Y-52308658D01*
X98538860Y-52301363D01*
X98536604Y-52294399D01*
X98535413Y-52288440D01*
X98534029Y-52282585D01*
X98533182Y-52275319D01*
X98508265Y-52206673D01*
X98506848Y-52202545D01*
X98486607Y-52140064D01*
X98486606Y-52140062D01*
X98484351Y-52133101D01*
X98480555Y-52126846D01*
X98478049Y-52121372D01*
X98475330Y-52115942D01*
X98472833Y-52109063D01*
X98432809Y-52048016D01*
X98430472Y-52044312D01*
X98429116Y-52042076D01*
X98408228Y-52007654D01*
X98395509Y-51986693D01*
X98395505Y-51986688D01*
X98392595Y-51981892D01*
X98385197Y-51973516D01*
X98385223Y-51973493D01*
X98382574Y-51970503D01*
X98379866Y-51967264D01*
X98375856Y-51961148D01*
X98370549Y-51956121D01*
X98370546Y-51956117D01*
X98319617Y-51907872D01*
X98317175Y-51905494D01*
X80326420Y-33914739D01*
X80292394Y-33852427D01*
X80289515Y-33825644D01*
X80289515Y-32700445D01*
X80282760Y-32638263D01*
X80231630Y-32501874D01*
X80144276Y-32385318D01*
X80064334Y-32325404D01*
X80021819Y-32268546D01*
X80016793Y-32197728D01*
X80050853Y-32135434D01*
X80064334Y-32123753D01*
X80137096Y-32069221D01*
X80144276Y-32063840D01*
X80231630Y-31947284D01*
X80282760Y-31810895D01*
X80289515Y-31748713D01*
X80289515Y-29652445D01*
X80284210Y-29603607D01*
X80296738Y-29533725D01*
X80345060Y-29481709D01*
X80409473Y-29464000D01*
X100012557Y-29464000D01*
X100080678Y-29484002D01*
G37*
%TD.AperFunction*%
%TA.AperFunction,Conductor*%
G36*
X90925510Y-58359603D02*
G01*
X90990781Y-58371308D01*
X91042794Y-58419632D01*
X91060500Y-58484040D01*
X91060500Y-60358433D01*
X91040498Y-60426554D01*
X91023595Y-60447528D01*
X89940123Y-61531000D01*
X89877811Y-61565026D01*
X89818417Y-61563612D01*
X89743884Y-61543641D01*
X89743882Y-61543641D01*
X89738569Y-61542217D01*
X89506037Y-61521873D01*
X89273505Y-61542217D01*
X89268192Y-61543641D01*
X89268190Y-61543641D01*
X89053349Y-61601207D01*
X89053347Y-61601208D01*
X89048039Y-61602630D01*
X89043059Y-61604952D01*
X89043057Y-61604953D01*
X88841476Y-61698952D01*
X88841471Y-61698955D01*
X88836489Y-61701278D01*
X88831982Y-61704434D01*
X88831980Y-61704435D01*
X88649794Y-61832003D01*
X88649791Y-61832005D01*
X88645283Y-61835162D01*
X88480230Y-62000215D01*
X88346346Y-62191421D01*
X88344763Y-62194816D01*
X88293771Y-62243435D01*
X88224057Y-62256869D01*
X88158147Y-62230481D01*
X88127390Y-62194986D01*
X88125728Y-62191421D01*
X87991844Y-62000215D01*
X87826791Y-61835162D01*
X87822283Y-61832005D01*
X87822280Y-61832003D01*
X87640094Y-61704435D01*
X87640092Y-61704434D01*
X87635585Y-61701278D01*
X87630603Y-61698955D01*
X87630598Y-61698952D01*
X87429017Y-61604953D01*
X87429015Y-61604952D01*
X87424035Y-61602630D01*
X87418727Y-61601208D01*
X87418725Y-61601207D01*
X87203884Y-61543641D01*
X87203882Y-61543641D01*
X87198569Y-61542217D01*
X86966037Y-61521873D01*
X86960562Y-61522352D01*
X86960561Y-61522352D01*
X86893373Y-61528230D01*
X86823769Y-61514241D01*
X86772776Y-61464841D01*
X86756586Y-61395715D01*
X86764410Y-61358479D01*
X86783676Y-61307088D01*
X86800265Y-61262836D01*
X86807020Y-61200654D01*
X86807020Y-60954091D01*
X86827022Y-60885970D01*
X86880678Y-60839477D01*
X86929612Y-60828137D01*
X86949430Y-60827601D01*
X86969606Y-60827055D01*
X86969607Y-60827055D01*
X86976921Y-60826857D01*
X86986104Y-60824422D01*
X87008172Y-60820630D01*
X87017637Y-60819860D01*
X87024596Y-60817606D01*
X87024599Y-60817605D01*
X87055764Y-60807509D01*
X87079001Y-60799981D01*
X87085487Y-60798072D01*
X87147884Y-60781527D01*
X87154341Y-60778072D01*
X87154344Y-60778071D01*
X87156263Y-60777044D01*
X87176860Y-60768279D01*
X87185899Y-60765351D01*
X87192156Y-60761554D01*
X87192163Y-60761551D01*
X87241040Y-60731891D01*
X87246962Y-60728513D01*
X87297375Y-60701539D01*
X87297381Y-60701535D01*
X87303834Y-60698082D01*
X87309325Y-60693233D01*
X87309330Y-60693229D01*
X87310957Y-60691793D01*
X87328994Y-60678518D01*
X87337107Y-60673595D01*
X87345484Y-60666197D01*
X87384650Y-60627031D01*
X87390337Y-60621685D01*
X87430917Y-60585846D01*
X87436404Y-60581000D01*
X87443996Y-60570257D01*
X87457796Y-60553885D01*
X89615756Y-58395925D01*
X89678068Y-58361899D01*
X89704851Y-58359020D01*
X90918654Y-58359020D01*
X90922051Y-58358651D01*
X90925448Y-58358467D01*
X90925510Y-58359603D01*
G37*
%TD.AperFunction*%
%TA.AperFunction,Conductor*%
G36*
X82599329Y-42401081D02*
G01*
X82620303Y-42417984D01*
X88336932Y-48134613D01*
X88370958Y-48196925D01*
X88365893Y-48267740D01*
X88323346Y-48324576D01*
X88309210Y-48332874D01*
X88309521Y-48333413D01*
X88303798Y-48336717D01*
X88297768Y-48339402D01*
X88292427Y-48343282D01*
X88292426Y-48343283D01*
X88250170Y-48373984D01*
X88143267Y-48451654D01*
X88015480Y-48593576D01*
X87919993Y-48758964D01*
X87900892Y-48817752D01*
X87865133Y-48927805D01*
X87834395Y-48977964D01*
X82677609Y-54134750D01*
X82663197Y-54147136D01*
X82651602Y-54155669D01*
X82651597Y-54155674D01*
X82645702Y-54160012D01*
X82640963Y-54165590D01*
X82640960Y-54165593D01*
X82611485Y-54200288D01*
X82604555Y-54207804D01*
X82598860Y-54213499D01*
X82596580Y-54216381D01*
X82581239Y-54235771D01*
X82578448Y-54239175D01*
X82545775Y-54277634D01*
X82531187Y-54294805D01*
X82527859Y-54301321D01*
X82524492Y-54306370D01*
X82521325Y-54311499D01*
X82516786Y-54317236D01*
X82485865Y-54383395D01*
X82483962Y-54387289D01*
X82450751Y-54452328D01*
X82449012Y-54459436D01*
X82446913Y-54465079D01*
X82444996Y-54470842D01*
X82441898Y-54477470D01*
X82440408Y-54484632D01*
X82440408Y-54484633D01*
X82427034Y-54548932D01*
X82426064Y-54553216D01*
X82408712Y-54624130D01*
X82408020Y-54635284D01*
X82407984Y-54635282D01*
X82407745Y-54639275D01*
X82407371Y-54643467D01*
X82405880Y-54650635D01*
X82406078Y-54657952D01*
X82407974Y-54728041D01*
X82408020Y-54731448D01*
X82408020Y-55959521D01*
X82391139Y-56022520D01*
X82375840Y-56049019D01*
X82349631Y-56094415D01*
X82331993Y-56124964D01*
X82272978Y-56306592D01*
X82272288Y-56313153D01*
X82272288Y-56313155D01*
X82263889Y-56393071D01*
X82253016Y-56496520D01*
X82253706Y-56503085D01*
X82271940Y-56676569D01*
X82272978Y-56686448D01*
X82331993Y-56868076D01*
X82427480Y-57033464D01*
X82431898Y-57038371D01*
X82431899Y-57038372D01*
X82512923Y-57128358D01*
X82555267Y-57175386D01*
X82638944Y-57236181D01*
X82702080Y-57282052D01*
X82709768Y-57287638D01*
X82715796Y-57290322D01*
X82715798Y-57290323D01*
X82775741Y-57317011D01*
X82884232Y-57365314D01*
X83003148Y-57390591D01*
X83008711Y-57391773D01*
X83071184Y-57425502D01*
X83105506Y-57487651D01*
X83100778Y-57558490D01*
X83058502Y-57615528D01*
X82992101Y-57640655D01*
X82982514Y-57641020D01*
X81171264Y-57641020D01*
X81103143Y-57621018D01*
X81056650Y-57567362D01*
X81046546Y-57497088D01*
X81054855Y-57466802D01*
X81143131Y-57253684D01*
X81143132Y-57253682D01*
X81145025Y-57249111D01*
X81174015Y-57128358D01*
X81202974Y-57007736D01*
X81202975Y-57007730D01*
X81204129Y-57002923D01*
X81223994Y-56750520D01*
X81204129Y-56498117D01*
X81202170Y-56489955D01*
X81146180Y-56256741D01*
X81145025Y-56251929D01*
X81136364Y-56231020D01*
X81050031Y-56022592D01*
X81050029Y-56022588D01*
X81048136Y-56018018D01*
X80915848Y-55802144D01*
X80751418Y-55609622D01*
X80558896Y-55445192D01*
X80343022Y-55312904D01*
X80338452Y-55311011D01*
X80338448Y-55311009D01*
X80113684Y-55217909D01*
X80113682Y-55217908D01*
X80109111Y-55216015D01*
X79967165Y-55181937D01*
X79867736Y-55158066D01*
X79867730Y-55158065D01*
X79862923Y-55156911D01*
X79741106Y-55147324D01*
X79655629Y-55140596D01*
X79589287Y-55115310D01*
X79547148Y-55058172D01*
X79539515Y-55014984D01*
X79539515Y-46305079D01*
X79559517Y-46236958D01*
X79613173Y-46190465D01*
X79665515Y-46179079D01*
X79829149Y-46179079D01*
X79891331Y-46172324D01*
X80027720Y-46121194D01*
X80144276Y-46033840D01*
X80231630Y-45917284D01*
X80282760Y-45780895D01*
X80289515Y-45718713D01*
X80289515Y-43622445D01*
X80282760Y-43560263D01*
X80231630Y-43423874D01*
X80144276Y-43307318D01*
X80064334Y-43247404D01*
X80021819Y-43190546D01*
X80016793Y-43119728D01*
X80050853Y-43057434D01*
X80064334Y-43045753D01*
X80137096Y-42991221D01*
X80144276Y-42985840D01*
X80231630Y-42869284D01*
X80282760Y-42732895D01*
X80289515Y-42670713D01*
X80289515Y-42507079D01*
X80309517Y-42438958D01*
X80363173Y-42392465D01*
X80415515Y-42381079D01*
X82531208Y-42381079D01*
X82599329Y-42401081D01*
G37*
%TD.AperFunction*%
%TA.AperFunction,Conductor*%
G36*
X60314047Y-41402022D02*
G01*
X60335021Y-41418925D01*
X67833597Y-48917501D01*
X67867623Y-48979813D01*
X67862558Y-49050628D01*
X67820011Y-49107464D01*
X67753491Y-49132275D01*
X67741809Y-49132172D01*
X67740405Y-49131880D01*
X67733085Y-49132078D01*
X67662999Y-49133974D01*
X67659592Y-49134020D01*
X65199590Y-49134020D01*
X65180640Y-49132587D01*
X65166405Y-49130421D01*
X65166401Y-49130421D01*
X65159171Y-49129321D01*
X65151879Y-49129914D01*
X65151876Y-49129914D01*
X65106502Y-49133605D01*
X65096287Y-49134020D01*
X65088227Y-49134020D01*
X65084593Y-49134444D01*
X65084587Y-49134444D01*
X65071562Y-49135963D01*
X65060000Y-49137311D01*
X65055652Y-49137741D01*
X64982884Y-49143660D01*
X64975923Y-49145915D01*
X64969983Y-49147102D01*
X64964108Y-49148491D01*
X64956839Y-49149338D01*
X64888190Y-49174256D01*
X64884062Y-49175673D01*
X64821584Y-49195913D01*
X64821582Y-49195914D01*
X64814621Y-49198169D01*
X64808366Y-49201965D01*
X64802892Y-49204471D01*
X64797462Y-49207190D01*
X64790583Y-49209687D01*
X64784463Y-49213700D01*
X64784462Y-49213700D01*
X64729544Y-49249706D01*
X64725840Y-49252043D01*
X64663413Y-49289925D01*
X64655036Y-49297323D01*
X64655012Y-49297296D01*
X64652020Y-49299949D01*
X64648787Y-49302652D01*
X64642668Y-49306664D01*
X64589392Y-49362903D01*
X64587014Y-49365345D01*
X59578370Y-54373989D01*
X59570097Y-54381557D01*
X59568788Y-54382652D01*
X59562668Y-54386664D01*
X59557636Y-54391976D01*
X59509392Y-54442903D01*
X59507014Y-54445345D01*
X58759244Y-55193115D01*
X58696932Y-55227141D01*
X58670149Y-55230020D01*
X51963397Y-55230020D01*
X51895276Y-55210018D01*
X51860184Y-55176291D01*
X51840879Y-55148720D01*
X51840877Y-55148718D01*
X51837720Y-55144209D01*
X51675822Y-54982311D01*
X51671314Y-54979154D01*
X51671311Y-54979152D01*
X51514370Y-54869261D01*
X51488271Y-54850986D01*
X51483289Y-54848663D01*
X51483284Y-54848660D01*
X51449065Y-54832704D01*
X51395780Y-54785787D01*
X51376319Y-54717510D01*
X51396861Y-54649550D01*
X51449065Y-54604314D01*
X51483284Y-54588358D01*
X51483289Y-54588355D01*
X51488271Y-54586032D01*
X51611657Y-54499636D01*
X51671311Y-54457866D01*
X51671314Y-54457864D01*
X51675822Y-54454707D01*
X51837720Y-54292809D01*
X51844339Y-54283357D01*
X51922988Y-54171034D01*
X51969045Y-54105258D01*
X51971368Y-54100276D01*
X51971371Y-54100271D01*
X52063483Y-53902734D01*
X52063483Y-53902733D01*
X52065806Y-53897752D01*
X52074197Y-53866439D01*
X52123641Y-53681911D01*
X52123641Y-53681909D01*
X52125065Y-53676596D01*
X52145020Y-53448509D01*
X52125065Y-53220422D01*
X52065806Y-52999266D01*
X52063483Y-52994284D01*
X51971371Y-52796747D01*
X51971368Y-52796742D01*
X51969045Y-52791760D01*
X51853398Y-52626599D01*
X51840879Y-52608720D01*
X51840877Y-52608717D01*
X51837720Y-52604209D01*
X51675822Y-52442311D01*
X51671314Y-52439154D01*
X51671311Y-52439152D01*
X51548660Y-52353271D01*
X51488271Y-52310986D01*
X51483289Y-52308663D01*
X51483284Y-52308660D01*
X51449065Y-52292704D01*
X51395780Y-52245787D01*
X51376319Y-52177510D01*
X51396861Y-52109550D01*
X51449065Y-52064314D01*
X51483284Y-52048358D01*
X51483289Y-52048355D01*
X51488271Y-52046032D01*
X51616683Y-51956117D01*
X51671311Y-51917866D01*
X51671314Y-51917864D01*
X51675822Y-51914707D01*
X51837720Y-51752809D01*
X51843979Y-51743871D01*
X51913032Y-51645252D01*
X51969045Y-51565258D01*
X51971368Y-51560276D01*
X51971371Y-51560271D01*
X52063483Y-51362734D01*
X52063483Y-51362733D01*
X52065806Y-51357752D01*
X52100951Y-51226592D01*
X52123641Y-51141911D01*
X52123641Y-51141909D01*
X52125065Y-51136596D01*
X52145020Y-50908509D01*
X52125065Y-50680422D01*
X52122546Y-50671022D01*
X52067229Y-50464576D01*
X52067228Y-50464574D01*
X52065806Y-50459266D01*
X52005974Y-50330955D01*
X51971371Y-50256747D01*
X51971368Y-50256742D01*
X51969045Y-50251760D01*
X51837720Y-50064209D01*
X51675822Y-49902311D01*
X51671314Y-49899154D01*
X51671311Y-49899152D01*
X51548657Y-49813269D01*
X51488271Y-49770986D01*
X51483289Y-49768663D01*
X51483284Y-49768660D01*
X51449065Y-49752704D01*
X51395780Y-49705787D01*
X51381874Y-49657000D01*
X52807496Y-49657000D01*
X52827458Y-49846928D01*
X52886473Y-50028556D01*
X52889776Y-50034278D01*
X52889777Y-50034279D01*
X52904807Y-50060312D01*
X52981960Y-50193944D01*
X53109747Y-50335866D01*
X53264248Y-50448118D01*
X53270276Y-50450802D01*
X53270278Y-50450803D01*
X53301213Y-50464576D01*
X53438712Y-50525794D01*
X53522863Y-50543681D01*
X53619056Y-50564128D01*
X53619061Y-50564128D01*
X53625513Y-50565500D01*
X53816487Y-50565500D01*
X53822939Y-50564128D01*
X53822944Y-50564128D01*
X53919137Y-50543681D01*
X54003288Y-50525794D01*
X54140787Y-50464576D01*
X54171722Y-50450803D01*
X54171724Y-50450802D01*
X54177752Y-50448118D01*
X54332253Y-50335866D01*
X54460040Y-50193944D01*
X54537193Y-50060312D01*
X54552223Y-50034279D01*
X54552224Y-50034278D01*
X54555527Y-50028556D01*
X54614542Y-49846928D01*
X54634504Y-49657000D01*
X54628807Y-49602793D01*
X54615232Y-49473635D01*
X54615232Y-49473633D01*
X54614542Y-49467072D01*
X54555527Y-49285444D01*
X54496381Y-49183000D01*
X54479500Y-49120001D01*
X54479500Y-43970999D01*
X54496381Y-43907999D01*
X54552223Y-43811279D01*
X54552224Y-43811278D01*
X54555527Y-43805556D01*
X54614542Y-43623928D01*
X54621234Y-43560263D01*
X54633814Y-43440565D01*
X54634504Y-43434000D01*
X54619788Y-43293984D01*
X54615232Y-43250635D01*
X54615232Y-43250633D01*
X54614542Y-43244072D01*
X54555527Y-43062444D01*
X54545891Y-43045753D01*
X54463341Y-42902774D01*
X54460040Y-42897056D01*
X54427464Y-42860876D01*
X54336675Y-42760045D01*
X54336674Y-42760044D01*
X54332253Y-42755134D01*
X54233157Y-42683136D01*
X54183094Y-42646763D01*
X54183093Y-42646762D01*
X54177752Y-42642882D01*
X54171724Y-42640198D01*
X54171722Y-42640197D01*
X54009319Y-42567891D01*
X54009318Y-42567891D01*
X54003288Y-42565206D01*
X53909887Y-42545353D01*
X53822944Y-42526872D01*
X53822939Y-42526872D01*
X53816487Y-42525500D01*
X53625513Y-42525500D01*
X53619061Y-42526872D01*
X53619056Y-42526872D01*
X53532113Y-42545353D01*
X53438712Y-42565206D01*
X53432682Y-42567891D01*
X53432681Y-42567891D01*
X53270278Y-42640197D01*
X53270276Y-42640198D01*
X53264248Y-42642882D01*
X53258907Y-42646762D01*
X53258906Y-42646763D01*
X53208843Y-42683136D01*
X53109747Y-42755134D01*
X53105326Y-42760044D01*
X53105325Y-42760045D01*
X53014537Y-42860876D01*
X52981960Y-42897056D01*
X52978659Y-42902774D01*
X52896110Y-43045753D01*
X52886473Y-43062444D01*
X52827458Y-43244072D01*
X52826768Y-43250633D01*
X52826768Y-43250635D01*
X52822212Y-43293984D01*
X52807496Y-43434000D01*
X52808186Y-43440565D01*
X52820767Y-43560263D01*
X52827458Y-43623928D01*
X52886473Y-43805556D01*
X52889776Y-43811278D01*
X52889777Y-43811279D01*
X52945619Y-43907999D01*
X52962500Y-43970999D01*
X52962500Y-49120001D01*
X52945619Y-49183000D01*
X52886473Y-49285444D01*
X52827458Y-49467072D01*
X52826768Y-49473633D01*
X52826768Y-49473635D01*
X52813193Y-49602793D01*
X52807496Y-49657000D01*
X51381874Y-49657000D01*
X51376319Y-49637510D01*
X51396861Y-49569550D01*
X51449065Y-49524314D01*
X51483284Y-49508358D01*
X51483289Y-49508355D01*
X51488271Y-49506032D01*
X51618255Y-49415016D01*
X51671311Y-49377866D01*
X51671314Y-49377864D01*
X51675822Y-49374707D01*
X51837720Y-49212809D01*
X51843559Y-49204471D01*
X51902705Y-49120001D01*
X51969045Y-49025258D01*
X51971368Y-49020276D01*
X51971371Y-49020271D01*
X52063483Y-48822734D01*
X52063483Y-48822733D01*
X52065806Y-48817752D01*
X52125065Y-48596596D01*
X52145020Y-48368509D01*
X52125065Y-48140422D01*
X52123641Y-48135107D01*
X52067229Y-47924576D01*
X52067228Y-47924574D01*
X52065806Y-47919266D01*
X52051383Y-47888335D01*
X51971371Y-47716747D01*
X51971368Y-47716742D01*
X51969045Y-47711760D01*
X51837720Y-47524209D01*
X51675822Y-47362311D01*
X51671314Y-47359154D01*
X51671311Y-47359152D01*
X51514370Y-47249261D01*
X51488271Y-47230986D01*
X51483289Y-47228663D01*
X51483284Y-47228660D01*
X51449065Y-47212704D01*
X51395780Y-47165787D01*
X51376319Y-47097510D01*
X51396861Y-47029550D01*
X51449065Y-46984314D01*
X51483284Y-46968358D01*
X51483289Y-46968355D01*
X51488271Y-46966032D01*
X51611657Y-46879636D01*
X51671311Y-46837866D01*
X51671314Y-46837864D01*
X51675822Y-46834707D01*
X51837720Y-46672809D01*
X51969045Y-46485258D01*
X51971368Y-46480276D01*
X51971371Y-46480271D01*
X52063483Y-46282734D01*
X52063483Y-46282733D01*
X52065806Y-46277752D01*
X52092345Y-46178710D01*
X52123641Y-46061911D01*
X52123641Y-46061909D01*
X52125065Y-46056596D01*
X52145020Y-45828509D01*
X52125065Y-45600422D01*
X52065806Y-45379266D01*
X52063483Y-45374284D01*
X51971371Y-45176747D01*
X51971368Y-45176742D01*
X51969045Y-45171760D01*
X51837720Y-44984209D01*
X51675822Y-44822311D01*
X51671314Y-44819154D01*
X51671311Y-44819152D01*
X51514370Y-44709261D01*
X51488271Y-44690986D01*
X51483289Y-44688663D01*
X51483284Y-44688660D01*
X51449065Y-44672704D01*
X51395780Y-44625787D01*
X51376319Y-44557510D01*
X51396861Y-44489550D01*
X51449065Y-44444314D01*
X51483284Y-44428358D01*
X51483289Y-44428355D01*
X51488271Y-44426032D01*
X51611657Y-44339636D01*
X51671311Y-44297866D01*
X51671314Y-44297864D01*
X51675822Y-44294707D01*
X51837720Y-44132809D01*
X51969045Y-43945258D01*
X51971368Y-43940276D01*
X51971371Y-43940271D01*
X52063483Y-43742734D01*
X52063483Y-43742733D01*
X52065806Y-43737752D01*
X52111260Y-43568119D01*
X52123641Y-43521911D01*
X52123641Y-43521909D01*
X52125065Y-43516596D01*
X52145020Y-43288509D01*
X52125065Y-43060422D01*
X52123641Y-43055107D01*
X52067229Y-42844576D01*
X52067228Y-42844574D01*
X52065806Y-42839266D01*
X52026575Y-42755134D01*
X51971371Y-42636747D01*
X51971368Y-42636742D01*
X51969045Y-42631760D01*
X51889948Y-42518798D01*
X51840879Y-42448720D01*
X51840877Y-42448717D01*
X51837720Y-42444209D01*
X51675822Y-42282311D01*
X51671314Y-42279154D01*
X51671311Y-42279152D01*
X51511965Y-42167577D01*
X51488271Y-42150986D01*
X51483289Y-42148663D01*
X51483284Y-42148660D01*
X51449065Y-42132704D01*
X51395780Y-42085787D01*
X51376319Y-42017510D01*
X51396861Y-41949550D01*
X51449065Y-41904314D01*
X51483284Y-41888358D01*
X51483289Y-41888355D01*
X51488271Y-41886032D01*
X51611657Y-41799636D01*
X51671311Y-41757866D01*
X51671314Y-41757864D01*
X51675822Y-41754707D01*
X51837720Y-41592809D01*
X51947695Y-41435749D01*
X52003152Y-41391421D01*
X52050908Y-41382020D01*
X60245926Y-41382020D01*
X60314047Y-41402022D01*
G37*
%TD.AperFunction*%
%TA.AperFunction,Conductor*%
G36*
X72651340Y-36850002D02*
G01*
X72697833Y-36903658D01*
X72707937Y-36973932D01*
X72678443Y-37038512D01*
X72643803Y-37064661D01*
X72644524Y-37065910D01*
X72639761Y-37068660D01*
X72634773Y-37070986D01*
X72584698Y-37106049D01*
X72451733Y-37199152D01*
X72451730Y-37199154D01*
X72447222Y-37202311D01*
X72285324Y-37364209D01*
X72153999Y-37551760D01*
X72151676Y-37556742D01*
X72151673Y-37556747D01*
X72059561Y-37754284D01*
X72057238Y-37759266D01*
X71997979Y-37980422D01*
X71978024Y-38208509D01*
X71997979Y-38436596D01*
X72057238Y-38657752D01*
X72059561Y-38662733D01*
X72059561Y-38662734D01*
X72151673Y-38860271D01*
X72151676Y-38860276D01*
X72153999Y-38865258D01*
X72285324Y-39052809D01*
X72447222Y-39214707D01*
X72451730Y-39217864D01*
X72451733Y-39217866D01*
X72511964Y-39260040D01*
X72634773Y-39346032D01*
X72639755Y-39348355D01*
X72639760Y-39348358D01*
X72673979Y-39364314D01*
X72727264Y-39411231D01*
X72746725Y-39479508D01*
X72726183Y-39547468D01*
X72673979Y-39592704D01*
X72639760Y-39608660D01*
X72639755Y-39608663D01*
X72634773Y-39610986D01*
X72552922Y-39668299D01*
X72451733Y-39739152D01*
X72451730Y-39739154D01*
X72447222Y-39742311D01*
X72285324Y-39904209D01*
X72153999Y-40091760D01*
X72151676Y-40096742D01*
X72151673Y-40096747D01*
X72072518Y-40266498D01*
X72057238Y-40299266D01*
X72055816Y-40304574D01*
X72055815Y-40304576D01*
X72038636Y-40368688D01*
X71997979Y-40520422D01*
X71978024Y-40748509D01*
X71997979Y-40976596D01*
X71999403Y-40981909D01*
X71999403Y-40981911D01*
X72040067Y-41133668D01*
X72057238Y-41197752D01*
X72059561Y-41202733D01*
X72059561Y-41202734D01*
X72151673Y-41400271D01*
X72151676Y-41400276D01*
X72153999Y-41405258D01*
X72285324Y-41592809D01*
X72447222Y-41754707D01*
X72451730Y-41757864D01*
X72451733Y-41757866D01*
X72511387Y-41799636D01*
X72634773Y-41886032D01*
X72639755Y-41888355D01*
X72639760Y-41888358D01*
X72673979Y-41904314D01*
X72727264Y-41951231D01*
X72746725Y-42019508D01*
X72726183Y-42087468D01*
X72673979Y-42132704D01*
X72639760Y-42148660D01*
X72639755Y-42148663D01*
X72634773Y-42150986D01*
X72611079Y-42167577D01*
X72451733Y-42279152D01*
X72451730Y-42279154D01*
X72447222Y-42282311D01*
X72285324Y-42444209D01*
X72282167Y-42448717D01*
X72282165Y-42448720D01*
X72233096Y-42518798D01*
X72153999Y-42631760D01*
X72151676Y-42636742D01*
X72151673Y-42636747D01*
X72096469Y-42755134D01*
X72057238Y-42839266D01*
X72055816Y-42844574D01*
X72055815Y-42844576D01*
X71999403Y-43055107D01*
X71997979Y-43060422D01*
X71978024Y-43288509D01*
X71997979Y-43516596D01*
X71999403Y-43521909D01*
X71999403Y-43521911D01*
X72011785Y-43568119D01*
X72057238Y-43737752D01*
X72059561Y-43742733D01*
X72059561Y-43742734D01*
X72151673Y-43940271D01*
X72151676Y-43940276D01*
X72153999Y-43945258D01*
X72285324Y-44132809D01*
X72447222Y-44294707D01*
X72451730Y-44297864D01*
X72451733Y-44297866D01*
X72511387Y-44339636D01*
X72634773Y-44426032D01*
X72639755Y-44428355D01*
X72639760Y-44428358D01*
X72673979Y-44444314D01*
X72727264Y-44491231D01*
X72746725Y-44559508D01*
X72726183Y-44627468D01*
X72673979Y-44672704D01*
X72639760Y-44688660D01*
X72639755Y-44688663D01*
X72634773Y-44690986D01*
X72608674Y-44709261D01*
X72451733Y-44819152D01*
X72451730Y-44819154D01*
X72447222Y-44822311D01*
X72285324Y-44984209D01*
X72153999Y-45171760D01*
X72151676Y-45176742D01*
X72151673Y-45176747D01*
X72059561Y-45374284D01*
X72057238Y-45379266D01*
X71997979Y-45600422D01*
X71978024Y-45828509D01*
X71997979Y-46056596D01*
X71999403Y-46061909D01*
X71999403Y-46061911D01*
X72030700Y-46178710D01*
X72057238Y-46277752D01*
X72059561Y-46282733D01*
X72059561Y-46282734D01*
X72151673Y-46480271D01*
X72151676Y-46480276D01*
X72153999Y-46485258D01*
X72285324Y-46672809D01*
X72447222Y-46834707D01*
X72451730Y-46837864D01*
X72451733Y-46837866D01*
X72511387Y-46879636D01*
X72634773Y-46966032D01*
X72639755Y-46968355D01*
X72639760Y-46968358D01*
X72673979Y-46984314D01*
X72727264Y-47031231D01*
X72746725Y-47099508D01*
X72726183Y-47167468D01*
X72673979Y-47212704D01*
X72639760Y-47228660D01*
X72639755Y-47228663D01*
X72634773Y-47230986D01*
X72608674Y-47249261D01*
X72451733Y-47359152D01*
X72451730Y-47359154D01*
X72447222Y-47362311D01*
X72285324Y-47524209D01*
X72153999Y-47711760D01*
X72151676Y-47716742D01*
X72151673Y-47716747D01*
X72071661Y-47888335D01*
X72057238Y-47919266D01*
X72055816Y-47924574D01*
X72055815Y-47924576D01*
X71999403Y-48135107D01*
X71997979Y-48140422D01*
X71978024Y-48368509D01*
X71997979Y-48596596D01*
X72057238Y-48817752D01*
X72059561Y-48822733D01*
X72059561Y-48822734D01*
X72151673Y-49020271D01*
X72151676Y-49020276D01*
X72153999Y-49025258D01*
X72220339Y-49120001D01*
X72279486Y-49204471D01*
X72285324Y-49212809D01*
X72447222Y-49374707D01*
X72451730Y-49377864D01*
X72451733Y-49377866D01*
X72504789Y-49415016D01*
X72634773Y-49506032D01*
X72639755Y-49508355D01*
X72639760Y-49508358D01*
X72673979Y-49524314D01*
X72727264Y-49571231D01*
X72746725Y-49639508D01*
X72726183Y-49707468D01*
X72673979Y-49752704D01*
X72639760Y-49768660D01*
X72639755Y-49768663D01*
X72634773Y-49770986D01*
X72574387Y-49813269D01*
X72451733Y-49899152D01*
X72451730Y-49899154D01*
X72447222Y-49902311D01*
X72285324Y-50064209D01*
X72153999Y-50251760D01*
X72151676Y-50256742D01*
X72151673Y-50256747D01*
X72117070Y-50330955D01*
X72057238Y-50459266D01*
X72055816Y-50464574D01*
X72055815Y-50464576D01*
X72000498Y-50671022D01*
X71997979Y-50680422D01*
X71978024Y-50908509D01*
X71978503Y-50913984D01*
X71978503Y-50913985D01*
X71982522Y-50959926D01*
X71968532Y-51029531D01*
X71919133Y-51080523D01*
X71850007Y-51096713D01*
X71783101Y-51072960D01*
X71767906Y-51060002D01*
X66541889Y-45833984D01*
X61064172Y-40356267D01*
X61056632Y-40347981D01*
X61052520Y-40341502D01*
X61002868Y-40294876D01*
X61000027Y-40292122D01*
X60980290Y-40272385D01*
X60977093Y-40269905D01*
X60968071Y-40262200D01*
X60941620Y-40237361D01*
X60935841Y-40231934D01*
X60928895Y-40228115D01*
X60928892Y-40228113D01*
X60918086Y-40222172D01*
X60901567Y-40211321D01*
X60901103Y-40210961D01*
X60885561Y-40198906D01*
X60878292Y-40195761D01*
X60878288Y-40195758D01*
X60844983Y-40181346D01*
X60834333Y-40176129D01*
X60795580Y-40154825D01*
X60775957Y-40149787D01*
X60757254Y-40143383D01*
X60745940Y-40138487D01*
X60745939Y-40138487D01*
X60738665Y-40135339D01*
X60730842Y-40134100D01*
X60730832Y-40134097D01*
X60694996Y-40128421D01*
X60683376Y-40126015D01*
X60648231Y-40116992D01*
X60648230Y-40116992D01*
X60640550Y-40115020D01*
X60620296Y-40115020D01*
X60600585Y-40113469D01*
X60588406Y-40111540D01*
X60580577Y-40110300D01*
X60536697Y-40114448D01*
X60536559Y-40114461D01*
X60524701Y-40115020D01*
X52050923Y-40115020D01*
X51982802Y-40095018D01*
X51947710Y-40061291D01*
X51840879Y-39908720D01*
X51840877Y-39908717D01*
X51837720Y-39904209D01*
X51808887Y-39875376D01*
X51774861Y-39813064D01*
X51779926Y-39742249D01*
X51822473Y-39685413D01*
X51853754Y-39668299D01*
X51869815Y-39662278D01*
X51869818Y-39662276D01*
X51878227Y-39659124D01*
X51994783Y-39571770D01*
X52082137Y-39455214D01*
X52133267Y-39318825D01*
X52140022Y-39256643D01*
X52140022Y-37160375D01*
X52133267Y-37098193D01*
X52096542Y-37000229D01*
X52091359Y-36929423D01*
X52125280Y-36867054D01*
X52187535Y-36832924D01*
X52214524Y-36830000D01*
X72583219Y-36830000D01*
X72651340Y-36850002D01*
G37*
%TD.AperFunction*%
%TD*%
M02*
