M48
; DRILL file {KiCad (6.0.2)} date Wed May 25 22:27:01 2022
; FORMAT={-:-/ absolute / inch / decimal}
; #@! TF.CreationDate,2022-05-25T22:27:01-04:00
; #@! TF.GenerationSoftware,Kicad,Pcbnew,(6.0.2)
; #@! TF.FileFunction,Plated,1,2,PTH
FMAT,2
INCH
; #@! TA.AperFunction,Plated,PTH,ViaDrill
T1C0.0157
; #@! TA.AperFunction,Plated,PTH,ComponentDrill
T2C0.0295
; #@! TA.AperFunction,Plated,PTH,ComponentDrill
T3C0.0315
; #@! TA.AperFunction,Plated,PTH,ComponentDrill
T4C0.0350
; #@! TA.AperFunction,Plated,PTH,ComponentDrill
T5C0.0354
; #@! TA.AperFunction,Plated,PTH,ComponentDrill
T6C0.0394
; #@! TA.AperFunction,Plated,PTH,ComponentDrill
T7C0.0433
; #@! TA.AperFunction,Plated,PTH,ComponentDrill
T8C0.0591
%
G90
G05
T1
X2.0395Y-2.2792
X2.045Y-2.055
X2.115Y-1.71
X2.115Y-1.955
X2.12Y-1.5
X2.18Y-1.855
X2.2Y-1.7
X2.2Y-2.1
X2.291Y-2.255
X2.3Y-1.7
X2.4Y-2.0
X2.4362Y-2.4556
X2.4383Y-2.2315
X2.5Y-1.6
X2.5Y-1.8
X2.5743Y-2.0343
X2.6Y-1.9
X2.625Y-2.22
X2.7Y-1.6
X2.7Y-1.8
X2.7243Y-2.0243
X2.7581Y-1.8998
X2.78Y-2.09
X2.795Y-2.225
X2.81Y-1.55
X2.85Y-2.44
X2.94Y-1.755
X2.978Y-2.4785
X2.99Y-1.255
X2.99Y-1.51
X3.0Y-2.0
X3.0243Y-2.0743
X3.04Y-2.395
X3.136Y-2.1
X3.2Y-1.5
X3.2Y-1.7
X3.2Y-1.9
X3.3Y-1.3
X3.3Y-1.8
X3.3Y-2.0
X3.315Y-2.255
X3.34Y-2.365
X3.4Y-1.7
X3.4Y-1.9
X3.435Y-2.29
X3.4943Y-1.9343
X3.5Y-1.3
X3.5Y-1.5
X3.5Y-2.1
X3.64Y-2.3769
X3.7Y-1.3
X3.7Y-1.5
X3.7Y-1.7
X3.7644Y-2.0624
X3.8Y-1.9
X3.9Y-1.3
X3.9Y-1.5
X3.9Y-1.7
X3.9Y-2.3
X4.0Y-1.9
X4.0Y-2.1
T2
X2.65Y-2.375
X2.7288Y-2.375
X2.8075Y-2.375
X2.8863Y-2.375
X2.965Y-2.375
X3.79Y-2.2656
X3.79Y-2.3444
T3
X3.0186Y-1.8557
X3.0186Y-2.2557
T4
X3.1239Y-2.4748
X3.2239Y-2.4748
X3.3239Y-2.4748
X3.4239Y-2.4748
X3.5239Y-2.4748
X3.6239Y-2.4748
X3.7239Y-2.4748
X3.8239Y-2.4748
X3.9289Y-2.4748
X4.0239Y-2.4748
T5
X2.0698Y-2.3943
X2.1486Y-2.3943
X2.2273Y-2.3943
T6
X1.9934Y-1.5043
X1.9934Y-1.6043
X1.9934Y-1.7043
X1.9934Y-1.8043
X1.9934Y-1.9043
X1.9934Y-2.0043
X1.9934Y-2.1043
X1.9934Y-2.2043
X2.8934Y-1.5043
X2.8934Y-1.6043
X2.8934Y-1.7043
X2.8934Y-1.8043
X2.8934Y-1.9043
X2.8934Y-2.0043
X2.8934Y-2.1043
X2.8934Y-2.2043
T7
X3.1343Y-2.2343
X3.135Y-2.365
X3.5343Y-2.2343
X3.535Y-2.365
T8
X1.9872Y-2.3943
X2.31Y-2.3943
X3.1016Y-1.2087
X3.1016Y-1.3287
X3.1016Y-1.6387
X3.1016Y-1.7587
X4.0016Y-1.2087
X4.0016Y-1.7587
T0
M30
