%TF.GenerationSoftware,KiCad,Pcbnew,(6.0.2)*%
%TF.CreationDate,2022-05-25T22:27:01-04:00*%
%TF.ProjectId,breakout_slime,62726561-6b6f-4757-945f-736c696d652e,v0.1.4*%
%TF.SameCoordinates,Original*%
%TF.FileFunction,Legend,Top*%
%TF.FilePolarity,Positive*%
%FSLAX46Y46*%
G04 Gerber Fmt 4.6, Leading zero omitted, Abs format (unit mm)*
G04 Created by KiCad (PCBNEW (6.0.2)) date 2022-05-25 22:27:01*
%MOMM*%
%LPD*%
G01*
G04 APERTURE LIST*
%ADD10C,0.150000*%
%ADD11C,0.120000*%
%ADD12C,0.203000*%
%ADD13C,0.254000*%
G04 APERTURE END LIST*
D10*
X95490357Y-30011714D02*
X95728452Y-30678380D01*
X95966547Y-30011714D01*
X96537976Y-29678380D02*
X96633214Y-29678380D01*
X96728452Y-29726000D01*
X96776071Y-29773619D01*
X96823690Y-29868857D01*
X96871309Y-30059333D01*
X96871309Y-30297428D01*
X96823690Y-30487904D01*
X96776071Y-30583142D01*
X96728452Y-30630761D01*
X96633214Y-30678380D01*
X96537976Y-30678380D01*
X96442738Y-30630761D01*
X96395119Y-30583142D01*
X96347500Y-30487904D01*
X96299880Y-30297428D01*
X96299880Y-30059333D01*
X96347500Y-29868857D01*
X96395119Y-29773619D01*
X96442738Y-29726000D01*
X96537976Y-29678380D01*
X97299880Y-30583142D02*
X97347500Y-30630761D01*
X97299880Y-30678380D01*
X97252261Y-30630761D01*
X97299880Y-30583142D01*
X97299880Y-30678380D01*
X98299880Y-30678380D02*
X97728452Y-30678380D01*
X98014166Y-30678380D02*
X98014166Y-29678380D01*
X97918928Y-29821238D01*
X97823690Y-29916476D01*
X97728452Y-29964095D01*
X98728452Y-30583142D02*
X98776071Y-30630761D01*
X98728452Y-30678380D01*
X98680833Y-30630761D01*
X98728452Y-30583142D01*
X98728452Y-30678380D01*
X99633214Y-30011714D02*
X99633214Y-30678380D01*
X99395119Y-29630761D02*
X99157023Y-30345047D01*
X99776071Y-30345047D01*
%TO.C,R1*%
X77126014Y-53380481D02*
X77126014Y-53951910D01*
X77126014Y-53666195D02*
X76126014Y-53666195D01*
X76268872Y-53761434D01*
X76364110Y-53856672D01*
X76411729Y-53951910D01*
X76554586Y-52809053D02*
X76506967Y-52904291D01*
X76459348Y-52951910D01*
X76364110Y-52999529D01*
X76316491Y-52999529D01*
X76221253Y-52951910D01*
X76173634Y-52904291D01*
X76126014Y-52809053D01*
X76126014Y-52618576D01*
X76173634Y-52523338D01*
X76221253Y-52475719D01*
X76316491Y-52428100D01*
X76364110Y-52428100D01*
X76459348Y-52475719D01*
X76506967Y-52523338D01*
X76554586Y-52618576D01*
X76554586Y-52809053D01*
X76602205Y-52904291D01*
X76649824Y-52951910D01*
X76745062Y-52999529D01*
X76935538Y-52999529D01*
X77030776Y-52951910D01*
X77078395Y-52904291D01*
X77126014Y-52809053D01*
X77126014Y-52618576D01*
X77078395Y-52523338D01*
X77030776Y-52475719D01*
X76935538Y-52428100D01*
X76745062Y-52428100D01*
X76649824Y-52475719D01*
X76602205Y-52523338D01*
X76554586Y-52618576D01*
X76126014Y-51809053D02*
X76126014Y-51713815D01*
X76173634Y-51618576D01*
X76221253Y-51570957D01*
X76316491Y-51523338D01*
X76506967Y-51475719D01*
X76745062Y-51475719D01*
X76935538Y-51523338D01*
X77030776Y-51570957D01*
X77078395Y-51618576D01*
X77126014Y-51713815D01*
X77126014Y-51809053D01*
X77078395Y-51904291D01*
X77030776Y-51951910D01*
X76935538Y-51999529D01*
X76745062Y-52047148D01*
X76506967Y-52047148D01*
X76316491Y-51999529D01*
X76221253Y-51951910D01*
X76173634Y-51904291D01*
X76126014Y-51809053D01*
X77126014Y-51047148D02*
X76126014Y-51047148D01*
X77126014Y-50475719D02*
X76554586Y-50904291D01*
X76126014Y-50475719D02*
X76697443Y-51047148D01*
%TO.C,U3*%
X78700380Y-61213904D02*
X79509904Y-61213904D01*
X79605142Y-61166285D01*
X79652761Y-61118666D01*
X79700380Y-61023428D01*
X79700380Y-60832952D01*
X79652761Y-60737714D01*
X79605142Y-60690095D01*
X79509904Y-60642476D01*
X78700380Y-60642476D01*
X78700380Y-60261523D02*
X78700380Y-59642476D01*
X79081333Y-59975809D01*
X79081333Y-59832952D01*
X79128952Y-59737714D01*
X79176571Y-59690095D01*
X79271809Y-59642476D01*
X79509904Y-59642476D01*
X79605142Y-59690095D01*
X79652761Y-59737714D01*
X79700380Y-59832952D01*
X79700380Y-60118666D01*
X79652761Y-60213904D01*
X79605142Y-60261523D01*
%TO.C,U2*%
X52284380Y-38861904D02*
X53093904Y-38861904D01*
X53189142Y-38814285D01*
X53236761Y-38766666D01*
X53284380Y-38671428D01*
X53284380Y-38480952D01*
X53236761Y-38385714D01*
X53189142Y-38338095D01*
X53093904Y-38290476D01*
X52284380Y-38290476D01*
X52379619Y-37861904D02*
X52332000Y-37814285D01*
X52284380Y-37719047D01*
X52284380Y-37480952D01*
X52332000Y-37385714D01*
X52379619Y-37338095D01*
X52474857Y-37290476D01*
X52570095Y-37290476D01*
X52712952Y-37338095D01*
X53284380Y-37909523D01*
X53284380Y-37290476D01*
%TO.C,U1*%
X77557380Y-38480904D02*
X78366904Y-38480904D01*
X78462142Y-38433285D01*
X78509761Y-38385666D01*
X78557380Y-38290428D01*
X78557380Y-38099952D01*
X78509761Y-38004714D01*
X78462142Y-37957095D01*
X78366904Y-37909476D01*
X77557380Y-37909476D01*
X78557380Y-36909476D02*
X78557380Y-37480904D01*
X78557380Y-37195190D02*
X77557380Y-37195190D01*
X77700238Y-37290428D01*
X77795476Y-37385666D01*
X77843095Y-37480904D01*
D11*
%TO.C,R1*%
X76673634Y-56253815D02*
X76673634Y-55483815D01*
X75303634Y-48943815D02*
X75303634Y-55483815D01*
X75303634Y-55483815D02*
X78043634Y-55483815D01*
X78043634Y-55483815D02*
X78043634Y-48943815D01*
X76673634Y-48173815D02*
X76673634Y-48943815D01*
X78043634Y-48943815D02*
X75303634Y-48943815D01*
D12*
%TO.C,U3*%
X78076037Y-48509969D02*
X103476037Y-48509969D01*
X78076037Y-64003969D02*
X78076037Y-61463969D01*
X78076037Y-61463969D02*
X78076037Y-48509969D01*
X103476037Y-48509969D02*
X103476037Y-64003969D01*
X103476037Y-64003969D02*
X78076037Y-64003969D01*
D13*
X102182037Y-51303969D02*
G75*
G03*
X102182037Y-51303969I-1500000J0D01*
G01*
X82370037Y-51303969D02*
G75*
G03*
X82370037Y-51303969I-1500000J0D01*
G01*
D11*
%TO.C,U2*%
X51671522Y-57428509D02*
X51671522Y-64328509D01*
X49131522Y-57428509D02*
X51671522Y-57428509D01*
X49131522Y-57428509D02*
X49131522Y-31998509D01*
X74991522Y-64328509D02*
X74991522Y-31998509D01*
X51671522Y-64328509D02*
X74991522Y-64328509D01*
X72871522Y-29868509D02*
X51261522Y-29868509D01*
X51261522Y-29868509D02*
G75*
G03*
X49131522Y-31998509I2J-2130002D01*
G01*
X74991522Y-31998509D02*
G75*
G03*
X72861522Y-29868509I-2130002J-2D01*
G01*
D10*
X48091522Y-37573509D02*
X48091522Y-38843509D01*
X48091522Y-38843509D02*
X48726522Y-38208509D01*
X48726522Y-38208509D02*
X48091522Y-37573509D01*
G36*
X48726522Y-38208509D02*
G01*
X48091522Y-38843509D01*
X48091522Y-37573509D01*
X48726522Y-38208509D01*
G37*
X48726522Y-38208509D02*
X48091522Y-38843509D01*
X48091522Y-37573509D01*
X48726522Y-38208509D01*
D13*
%TO.C,U1*%
X101895015Y-42130579D02*
X101895015Y-41368579D01*
X101895015Y-36288579D02*
X101895015Y-35780579D01*
X102911015Y-41368579D02*
X97323015Y-41368579D01*
X101133015Y-36288579D02*
X101895015Y-36288579D01*
X97831015Y-36034579D02*
X97831015Y-35526579D01*
X101133015Y-40352579D02*
X100371015Y-40352579D01*
X101895015Y-35780579D02*
X100371015Y-35780579D01*
X100371015Y-39844579D02*
X101133015Y-39844579D01*
X76749015Y-31208579D02*
X76749015Y-37304579D01*
X101133015Y-39844579D02*
X101895015Y-39844579D01*
X76495015Y-30954579D02*
X76749015Y-31208579D01*
X75860015Y-44670579D02*
X75225015Y-44670579D01*
X103165015Y-42130579D02*
X101895015Y-42130579D01*
X75225015Y-46194579D02*
X103165015Y-46194579D01*
X97323015Y-41368579D02*
X97323015Y-40098579D01*
X97323015Y-34256579D02*
X102911015Y-34256579D01*
X103165015Y-46194579D02*
X103165015Y-42130579D01*
X100371015Y-36288579D02*
X101133015Y-36288579D01*
X101895015Y-34256579D02*
X101895015Y-33494579D01*
X97831015Y-39590579D02*
X97323015Y-39590579D01*
X97831015Y-40098579D02*
X97831015Y-39590579D01*
X97323015Y-35526579D02*
X97323015Y-34256579D01*
X102911015Y-34256579D02*
X103165015Y-34002579D01*
X76622015Y-44416579D02*
X76368015Y-44543579D01*
X76749015Y-44162579D02*
X76622015Y-44416579D01*
X97323015Y-40098579D02*
X97831015Y-40098579D01*
X75225015Y-44670579D02*
X75225015Y-46194579D01*
X101895015Y-33494579D02*
X103165015Y-33494579D01*
X76749015Y-37304579D02*
X76749015Y-43654579D01*
X101895015Y-40352579D02*
X101133015Y-40352579D01*
X75225015Y-29176579D02*
X75225015Y-30700579D01*
X103165015Y-34002579D02*
X103165015Y-41622579D01*
X75225015Y-30700579D02*
X75987015Y-30700579D01*
X103165015Y-33494579D02*
X103165015Y-29176579D01*
X101895015Y-39844579D02*
X101895015Y-40352579D01*
X76749015Y-43654579D02*
X76749015Y-44162579D01*
X76241015Y-30827579D02*
X76495015Y-30954579D01*
X103165015Y-41622579D02*
X102911015Y-41368579D01*
X97323015Y-36034579D02*
X97831015Y-36034579D01*
X97323015Y-39590579D02*
X97323015Y-36034579D01*
X75987015Y-30700579D02*
X76241015Y-30827579D01*
X100371015Y-40352579D02*
X100371015Y-39844579D01*
X102657015Y-41368579D02*
X102657015Y-34256579D01*
X103165015Y-29176579D02*
X75225015Y-29176579D01*
X76368015Y-44543579D02*
X75860015Y-44670579D01*
X97831015Y-35526579D02*
X97323015Y-35526579D01*
X100371015Y-35780579D02*
X100371015Y-36288579D01*
%TD*%
M02*
