%TF.GenerationSoftware,KiCad,Pcbnew,(6.0.2)*%
%TF.CreationDate,2022-05-25T22:27:01-04:00*%
%TF.ProjectId,breakout_slime,62726561-6b6f-4757-945f-736c696d652e,v0.1.4*%
%TF.SameCoordinates,Original*%
%TF.FileFunction,Legend,Bot*%
%TF.FilePolarity,Positive*%
%FSLAX46Y46*%
G04 Gerber Fmt 4.6, Leading zero omitted, Abs format (unit mm)*
G04 Created by KiCad (PCBNEW (6.0.2)) date 2022-05-25 22:27:01*
%MOMM*%
%LPD*%
G01*
G04 APERTURE LIST*
%ADD10C,0.100000*%
%ADD11C,0.125000*%
%ADD12C,0.150000*%
%ADD13C,0.120000*%
G04 APERTURE END LIST*
D10*
X94380809Y-59527285D02*
X94309380Y-59551095D01*
X94285571Y-59574904D01*
X94261761Y-59622523D01*
X94261761Y-59693952D01*
X94285571Y-59741571D01*
X94309380Y-59765380D01*
X94357000Y-59789190D01*
X94547476Y-59789190D01*
X94547476Y-59289190D01*
X94380809Y-59289190D01*
X94333190Y-59313000D01*
X94309380Y-59336809D01*
X94285571Y-59384428D01*
X94285571Y-59432047D01*
X94309380Y-59479666D01*
X94333190Y-59503476D01*
X94380809Y-59527285D01*
X94547476Y-59527285D01*
X94047476Y-59598714D02*
X93666523Y-59598714D01*
X94380809Y-57495285D02*
X94309380Y-57519095D01*
X94285571Y-57542904D01*
X94261761Y-57590523D01*
X94261761Y-57661952D01*
X94285571Y-57709571D01*
X94309380Y-57733380D01*
X94357000Y-57757190D01*
X94547476Y-57757190D01*
X94547476Y-57257190D01*
X94380809Y-57257190D01*
X94333190Y-57281000D01*
X94309380Y-57304809D01*
X94285571Y-57352428D01*
X94285571Y-57400047D01*
X94309380Y-57447666D01*
X94333190Y-57471476D01*
X94380809Y-57495285D01*
X94547476Y-57495285D01*
X94047476Y-57566714D02*
X93666523Y-57566714D01*
X93857000Y-57757190D02*
X93857000Y-57376238D01*
D11*
X100197178Y-30119785D02*
X100197178Y-29369785D01*
X100197178Y-29655500D02*
X100125750Y-29619785D01*
X99982892Y-29619785D01*
X99911464Y-29655500D01*
X99875750Y-29691214D01*
X99840035Y-29762642D01*
X99840035Y-29976928D01*
X99875750Y-30048357D01*
X99911464Y-30084071D01*
X99982892Y-30119785D01*
X100125750Y-30119785D01*
X100197178Y-30084071D01*
X99518607Y-30119785D02*
X99518607Y-29619785D01*
X99518607Y-29762642D02*
X99482892Y-29691214D01*
X99447178Y-29655500D01*
X99375750Y-29619785D01*
X99304321Y-29619785D01*
X98768607Y-30084071D02*
X98840035Y-30119785D01*
X98982892Y-30119785D01*
X99054321Y-30084071D01*
X99090035Y-30012642D01*
X99090035Y-29726928D01*
X99054321Y-29655500D01*
X98982892Y-29619785D01*
X98840035Y-29619785D01*
X98768607Y-29655500D01*
X98732892Y-29726928D01*
X98732892Y-29798357D01*
X99090035Y-29869785D01*
X98090035Y-30119785D02*
X98090035Y-29726928D01*
X98125750Y-29655500D01*
X98197178Y-29619785D01*
X98340035Y-29619785D01*
X98411464Y-29655500D01*
X98090035Y-30084071D02*
X98161464Y-30119785D01*
X98340035Y-30119785D01*
X98411464Y-30084071D01*
X98447178Y-30012642D01*
X98447178Y-29941214D01*
X98411464Y-29869785D01*
X98340035Y-29834071D01*
X98161464Y-29834071D01*
X98090035Y-29798357D01*
X97732892Y-30119785D02*
X97732892Y-29369785D01*
X97661464Y-29834071D02*
X97447178Y-30119785D01*
X97447178Y-29619785D02*
X97732892Y-29905500D01*
X97018607Y-30119785D02*
X97090035Y-30084071D01*
X97125750Y-30048357D01*
X97161464Y-29976928D01*
X97161464Y-29762642D01*
X97125750Y-29691214D01*
X97090035Y-29655500D01*
X97018607Y-29619785D01*
X96911464Y-29619785D01*
X96840035Y-29655500D01*
X96804321Y-29691214D01*
X96768607Y-29762642D01*
X96768607Y-29976928D01*
X96804321Y-30048357D01*
X96840035Y-30084071D01*
X96911464Y-30119785D01*
X97018607Y-30119785D01*
X96125750Y-29619785D02*
X96125750Y-30119785D01*
X96447178Y-29619785D02*
X96447178Y-30012642D01*
X96411464Y-30084071D01*
X96340035Y-30119785D01*
X96232892Y-30119785D01*
X96161464Y-30084071D01*
X96125750Y-30048357D01*
X95875750Y-29619785D02*
X95590035Y-29619785D01*
X95768607Y-29369785D02*
X95768607Y-30012642D01*
X95732892Y-30084071D01*
X95661464Y-30119785D01*
X95590035Y-30119785D01*
X95518607Y-30191214D02*
X94947178Y-30191214D01*
X94804321Y-30084071D02*
X94732892Y-30119785D01*
X94590035Y-30119785D01*
X94518607Y-30084071D01*
X94482892Y-30012642D01*
X94482892Y-29976928D01*
X94518607Y-29905500D01*
X94590035Y-29869785D01*
X94697178Y-29869785D01*
X94768607Y-29834071D01*
X94804321Y-29762642D01*
X94804321Y-29726928D01*
X94768607Y-29655500D01*
X94697178Y-29619785D01*
X94590035Y-29619785D01*
X94518607Y-29655500D01*
X94054321Y-30119785D02*
X94125750Y-30084071D01*
X94161464Y-30012642D01*
X94161464Y-29369785D01*
X93768607Y-30119785D02*
X93768607Y-29619785D01*
X93768607Y-29369785D02*
X93804321Y-29405500D01*
X93768607Y-29441214D01*
X93732892Y-29405500D01*
X93768607Y-29369785D01*
X93768607Y-29441214D01*
X93411464Y-30119785D02*
X93411464Y-29619785D01*
X93411464Y-29691214D02*
X93375750Y-29655500D01*
X93304321Y-29619785D01*
X93197178Y-29619785D01*
X93125750Y-29655500D01*
X93090035Y-29726928D01*
X93090035Y-30119785D01*
X93090035Y-29726928D02*
X93054321Y-29655500D01*
X92982892Y-29619785D01*
X92875750Y-29619785D01*
X92804321Y-29655500D01*
X92768607Y-29726928D01*
X92768607Y-30119785D01*
X92125750Y-30084071D02*
X92197178Y-30119785D01*
X92340035Y-30119785D01*
X92411464Y-30084071D01*
X92447178Y-30012642D01*
X92447178Y-29726928D01*
X92411464Y-29655500D01*
X92340035Y-29619785D01*
X92197178Y-29619785D01*
X92125750Y-29655500D01*
X92090035Y-29726928D01*
X92090035Y-29798357D01*
X92447178Y-29869785D01*
X91268607Y-29619785D02*
X91090035Y-30119785D01*
X90911464Y-29619785D01*
X90482892Y-29369785D02*
X90411464Y-29369785D01*
X90340035Y-29405500D01*
X90304321Y-29441214D01*
X90268607Y-29512642D01*
X90232892Y-29655500D01*
X90232892Y-29834071D01*
X90268607Y-29976928D01*
X90304321Y-30048357D01*
X90340035Y-30084071D01*
X90411464Y-30119785D01*
X90482892Y-30119785D01*
X90554321Y-30084071D01*
X90590035Y-30048357D01*
X90625750Y-29976928D01*
X90661464Y-29834071D01*
X90661464Y-29655500D01*
X90625750Y-29512642D01*
X90590035Y-29441214D01*
X90554321Y-29405500D01*
X90482892Y-29369785D01*
X89911464Y-30048357D02*
X89875750Y-30084071D01*
X89911464Y-30119785D01*
X89947178Y-30084071D01*
X89911464Y-30048357D01*
X89911464Y-30119785D01*
X89161464Y-30119785D02*
X89590035Y-30119785D01*
X89375750Y-30119785D02*
X89375750Y-29369785D01*
X89447178Y-29476928D01*
X89518607Y-29548357D01*
X89590035Y-29584071D01*
X88840035Y-30048357D02*
X88804321Y-30084071D01*
X88840035Y-30119785D01*
X88875750Y-30084071D01*
X88840035Y-30048357D01*
X88840035Y-30119785D01*
X88161464Y-29619785D02*
X88161464Y-30119785D01*
X88340035Y-29334071D02*
X88518607Y-29869785D01*
X88054321Y-29869785D01*
X87197178Y-30119785D02*
X87197178Y-29369785D01*
X87197178Y-29655500D02*
X87125750Y-29619785D01*
X86982892Y-29619785D01*
X86911464Y-29655500D01*
X86875750Y-29691214D01*
X86840035Y-29762642D01*
X86840035Y-29976928D01*
X86875750Y-30048357D01*
X86911464Y-30084071D01*
X86982892Y-30119785D01*
X87125750Y-30119785D01*
X87197178Y-30084071D01*
X86590035Y-29619785D02*
X86411464Y-30119785D01*
X86232892Y-29619785D02*
X86411464Y-30119785D01*
X86482892Y-30298357D01*
X86518607Y-30334071D01*
X86590035Y-30369785D01*
X85482892Y-29369785D02*
X85054321Y-29369785D01*
X85268607Y-30119785D02*
X85268607Y-29369785D01*
X84804321Y-30119785D02*
X84804321Y-29369785D01*
X84482892Y-30119785D02*
X84482892Y-29726928D01*
X84518607Y-29655500D01*
X84590035Y-29619785D01*
X84697178Y-29619785D01*
X84768607Y-29655500D01*
X84804321Y-29691214D01*
X83840035Y-30084071D02*
X83911464Y-30119785D01*
X84054321Y-30119785D01*
X84125750Y-30084071D01*
X84161464Y-30012642D01*
X84161464Y-29726928D01*
X84125750Y-29655500D01*
X84054321Y-29619785D01*
X83911464Y-29619785D01*
X83840035Y-29655500D01*
X83804321Y-29726928D01*
X83804321Y-29798357D01*
X84161464Y-29869785D01*
X83232892Y-29726928D02*
X83125750Y-29762642D01*
X83090035Y-29798357D01*
X83054321Y-29869785D01*
X83054321Y-29976928D01*
X83090035Y-30048357D01*
X83125750Y-30084071D01*
X83197178Y-30119785D01*
X83482892Y-30119785D01*
X83482892Y-29369785D01*
X83232892Y-29369785D01*
X83161464Y-29405500D01*
X83125750Y-29441214D01*
X83090035Y-29512642D01*
X83090035Y-29584071D01*
X83125750Y-29655500D01*
X83161464Y-29691214D01*
X83232892Y-29726928D01*
X83482892Y-29726928D01*
X82411464Y-29619785D02*
X82411464Y-30119785D01*
X82732892Y-29619785D02*
X82732892Y-30012642D01*
X82697178Y-30084071D01*
X82625750Y-30119785D01*
X82518607Y-30119785D01*
X82447178Y-30084071D01*
X82411464Y-30048357D01*
X82161464Y-29619785D02*
X81875750Y-29619785D01*
X82054321Y-29369785D02*
X82054321Y-30012642D01*
X82018607Y-30084071D01*
X81947178Y-30119785D01*
X81875750Y-30119785D01*
X81518607Y-30119785D02*
X81590035Y-30084071D01*
X81625750Y-30012642D01*
X81625750Y-29369785D01*
X80911464Y-30119785D02*
X80911464Y-29726928D01*
X80947178Y-29655500D01*
X81018607Y-29619785D01*
X81161464Y-29619785D01*
X81232892Y-29655500D01*
X80911464Y-30084071D02*
X80982892Y-30119785D01*
X81161464Y-30119785D01*
X81232892Y-30084071D01*
X81268607Y-30012642D01*
X81268607Y-29941214D01*
X81232892Y-29869785D01*
X81161464Y-29834071D01*
X80982892Y-29834071D01*
X80911464Y-29798357D01*
X80554321Y-30119785D02*
X80554321Y-29369785D01*
X80232892Y-30119785D02*
X80232892Y-29726928D01*
X80268607Y-29655500D01*
X80340035Y-29619785D01*
X80447178Y-29619785D01*
X80518607Y-29655500D01*
X80554321Y-29691214D01*
X99840035Y-31327285D02*
X100197178Y-31327285D01*
X100197178Y-30577285D01*
X99590035Y-31327285D02*
X99590035Y-30827285D01*
X99590035Y-30577285D02*
X99625750Y-30613000D01*
X99590035Y-30648714D01*
X99554321Y-30613000D01*
X99590035Y-30577285D01*
X99590035Y-30648714D01*
X98911464Y-31291571D02*
X98982892Y-31327285D01*
X99125750Y-31327285D01*
X99197178Y-31291571D01*
X99232892Y-31255857D01*
X99268607Y-31184428D01*
X99268607Y-30970142D01*
X99232892Y-30898714D01*
X99197178Y-30863000D01*
X99125750Y-30827285D01*
X98982892Y-30827285D01*
X98911464Y-30863000D01*
X98304321Y-31291571D02*
X98375750Y-31327285D01*
X98518607Y-31327285D01*
X98590035Y-31291571D01*
X98625750Y-31220142D01*
X98625750Y-30934428D01*
X98590035Y-30863000D01*
X98518607Y-30827285D01*
X98375750Y-30827285D01*
X98304321Y-30863000D01*
X98268607Y-30934428D01*
X98268607Y-31005857D01*
X98625750Y-31077285D01*
X97947178Y-30827285D02*
X97947178Y-31327285D01*
X97947178Y-30898714D02*
X97911464Y-30863000D01*
X97840035Y-30827285D01*
X97732892Y-30827285D01*
X97661464Y-30863000D01*
X97625750Y-30934428D01*
X97625750Y-31327285D01*
X97304321Y-31291571D02*
X97232892Y-31327285D01*
X97090035Y-31327285D01*
X97018607Y-31291571D01*
X96982892Y-31220142D01*
X96982892Y-31184428D01*
X97018607Y-31113000D01*
X97090035Y-31077285D01*
X97197178Y-31077285D01*
X97268607Y-31041571D01*
X97304321Y-30970142D01*
X97304321Y-30934428D01*
X97268607Y-30863000D01*
X97197178Y-30827285D01*
X97090035Y-30827285D01*
X97018607Y-30863000D01*
X96375750Y-31291571D02*
X96447178Y-31327285D01*
X96590035Y-31327285D01*
X96661464Y-31291571D01*
X96697178Y-31220142D01*
X96697178Y-30934428D01*
X96661464Y-30863000D01*
X96590035Y-30827285D01*
X96447178Y-30827285D01*
X96375750Y-30863000D01*
X96340035Y-30934428D01*
X96340035Y-31005857D01*
X96697178Y-31077285D01*
X96018607Y-31255857D02*
X95982892Y-31291571D01*
X96018607Y-31327285D01*
X96054321Y-31291571D01*
X96018607Y-31255857D01*
X96018607Y-31327285D01*
X96018607Y-30863000D02*
X95982892Y-30898714D01*
X96018607Y-30934428D01*
X96054321Y-30898714D01*
X96018607Y-30863000D01*
X96018607Y-30934428D01*
X94661464Y-31255857D02*
X94697178Y-31291571D01*
X94804321Y-31327285D01*
X94875750Y-31327285D01*
X94982892Y-31291571D01*
X95054321Y-31220142D01*
X95090035Y-31148714D01*
X95125750Y-31005857D01*
X95125750Y-30898714D01*
X95090035Y-30755857D01*
X95054321Y-30684428D01*
X94982892Y-30613000D01*
X94875750Y-30577285D01*
X94804321Y-30577285D01*
X94697178Y-30613000D01*
X94661464Y-30648714D01*
X94340035Y-30934428D02*
X94090035Y-30934428D01*
X93982892Y-31327285D02*
X94340035Y-31327285D01*
X94340035Y-30577285D01*
X93982892Y-30577285D01*
X93232892Y-31327285D02*
X93482892Y-30970142D01*
X93661464Y-31327285D02*
X93661464Y-30577285D01*
X93375750Y-30577285D01*
X93304321Y-30613000D01*
X93268607Y-30648714D01*
X93232892Y-30720142D01*
X93232892Y-30827285D01*
X93268607Y-30898714D01*
X93304321Y-30934428D01*
X93375750Y-30970142D01*
X93661464Y-30970142D01*
X92911464Y-31327285D02*
X92911464Y-30577285D01*
X92482892Y-31327285D01*
X92482892Y-30577285D01*
X92125750Y-31041571D02*
X91554321Y-31041571D01*
X91054321Y-30577285D02*
X90911464Y-30577285D01*
X90840035Y-30613000D01*
X90768607Y-30684428D01*
X90732892Y-30827285D01*
X90732892Y-31077285D01*
X90768607Y-31220142D01*
X90840035Y-31291571D01*
X90911464Y-31327285D01*
X91054321Y-31327285D01*
X91125750Y-31291571D01*
X91197178Y-31220142D01*
X91232892Y-31077285D01*
X91232892Y-30827285D01*
X91197178Y-30684428D01*
X91125750Y-30613000D01*
X91054321Y-30577285D01*
X90411464Y-31327285D02*
X90411464Y-30577285D01*
X90411464Y-30934428D02*
X89982892Y-30934428D01*
X89982892Y-31327285D02*
X89982892Y-30577285D01*
X89268607Y-31327285D02*
X89625750Y-31327285D01*
X89625750Y-30577285D01*
X89018607Y-31041571D02*
X88447178Y-31041571D01*
X88090035Y-31327285D02*
X88090035Y-30577285D01*
X87804321Y-30577285D01*
X87732892Y-30613000D01*
X87697178Y-30648714D01*
X87661464Y-30720142D01*
X87661464Y-30827285D01*
X87697178Y-30898714D01*
X87732892Y-30934428D01*
X87804321Y-30970142D01*
X88090035Y-30970142D01*
X86840035Y-30827285D02*
X86661464Y-31327285D01*
X86482892Y-30827285D01*
X86232892Y-30648714D02*
X86197178Y-30613000D01*
X86125750Y-30577285D01*
X85947178Y-30577285D01*
X85875750Y-30613000D01*
X85840035Y-30648714D01*
X85804321Y-30720142D01*
X85804321Y-30791571D01*
X85840035Y-30898714D01*
X86268607Y-31327285D01*
X85804321Y-31327285D01*
X84804321Y-31327285D02*
X84875750Y-31291571D01*
X84911464Y-31255857D01*
X84947178Y-31184428D01*
X84947178Y-30970142D01*
X84911464Y-30898714D01*
X84875750Y-30863000D01*
X84804321Y-30827285D01*
X84697178Y-30827285D01*
X84625750Y-30863000D01*
X84590035Y-30898714D01*
X84554321Y-30970142D01*
X84554321Y-31184428D01*
X84590035Y-31255857D01*
X84625750Y-31291571D01*
X84697178Y-31327285D01*
X84804321Y-31327285D01*
X84232892Y-31327285D02*
X84232892Y-30827285D01*
X84232892Y-30970142D02*
X84197178Y-30898714D01*
X84161464Y-30863000D01*
X84090035Y-30827285D01*
X84018607Y-30827285D01*
X83090035Y-31327285D02*
X83161464Y-31291571D01*
X83197178Y-31220142D01*
X83197178Y-30577285D01*
X82482892Y-31327285D02*
X82482892Y-30934428D01*
X82518607Y-30863000D01*
X82590035Y-30827285D01*
X82732892Y-30827285D01*
X82804321Y-30863000D01*
X82482892Y-31291571D02*
X82554321Y-31327285D01*
X82732892Y-31327285D01*
X82804321Y-31291571D01*
X82840035Y-31220142D01*
X82840035Y-31148714D01*
X82804321Y-31077285D01*
X82732892Y-31041571D01*
X82554321Y-31041571D01*
X82482892Y-31005857D01*
X82232892Y-30827285D02*
X81947178Y-30827285D01*
X82125750Y-30577285D02*
X82125750Y-31220142D01*
X82090035Y-31291571D01*
X82018607Y-31327285D01*
X81947178Y-31327285D01*
X81411464Y-31291571D02*
X81482892Y-31327285D01*
X81625750Y-31327285D01*
X81697178Y-31291571D01*
X81732892Y-31220142D01*
X81732892Y-30934428D01*
X81697178Y-30863000D01*
X81625750Y-30827285D01*
X81482892Y-30827285D01*
X81411464Y-30863000D01*
X81375750Y-30934428D01*
X81375750Y-31005857D01*
X81732892Y-31077285D01*
X81054321Y-31327285D02*
X81054321Y-30827285D01*
X81054321Y-30970142D02*
X81018607Y-30898714D01*
X80982892Y-30863000D01*
X80911464Y-30827285D01*
X80840035Y-30827285D01*
X99875750Y-32034785D02*
X99875750Y-32641928D01*
X99911464Y-32713357D01*
X99947178Y-32749071D01*
X100018607Y-32784785D01*
X100125750Y-32784785D01*
X100197178Y-32749071D01*
X99875750Y-32499071D02*
X99947178Y-32534785D01*
X100090035Y-32534785D01*
X100161464Y-32499071D01*
X100197178Y-32463357D01*
X100232892Y-32391928D01*
X100232892Y-32177642D01*
X100197178Y-32106214D01*
X100161464Y-32070500D01*
X100090035Y-32034785D01*
X99947178Y-32034785D01*
X99875750Y-32070500D01*
X99518607Y-32534785D02*
X99518607Y-32034785D01*
X99518607Y-31784785D02*
X99554321Y-31820500D01*
X99518607Y-31856214D01*
X99482892Y-31820500D01*
X99518607Y-31784785D01*
X99518607Y-31856214D01*
X99268607Y-32034785D02*
X98982892Y-32034785D01*
X99161464Y-31784785D02*
X99161464Y-32427642D01*
X99125750Y-32499071D01*
X99054321Y-32534785D01*
X98982892Y-32534785D01*
X98732892Y-32534785D02*
X98732892Y-31784785D01*
X98411464Y-32534785D02*
X98411464Y-32141928D01*
X98447178Y-32070500D01*
X98518607Y-32034785D01*
X98625749Y-32034785D01*
X98697178Y-32070500D01*
X98732892Y-32106214D01*
X97732892Y-32034785D02*
X97732892Y-32534785D01*
X98054321Y-32034785D02*
X98054321Y-32427642D01*
X98018607Y-32499071D01*
X97947178Y-32534785D01*
X97840035Y-32534785D01*
X97768607Y-32499071D01*
X97732892Y-32463357D01*
X97375749Y-32534785D02*
X97375749Y-31784785D01*
X97375749Y-32070500D02*
X97304321Y-32034785D01*
X97161464Y-32034785D01*
X97090035Y-32070500D01*
X97054321Y-32106214D01*
X97018607Y-32177642D01*
X97018607Y-32391928D01*
X97054321Y-32463357D01*
X97090035Y-32499071D01*
X97161464Y-32534785D01*
X97304321Y-32534785D01*
X97375749Y-32499071D01*
X96697178Y-32463357D02*
X96661464Y-32499071D01*
X96697178Y-32534785D01*
X96732892Y-32499071D01*
X96697178Y-32463357D01*
X96697178Y-32534785D01*
X96018607Y-32499071D02*
X96090035Y-32534785D01*
X96232892Y-32534785D01*
X96304321Y-32499071D01*
X96340035Y-32463357D01*
X96375749Y-32391928D01*
X96375749Y-32177642D01*
X96340035Y-32106214D01*
X96304321Y-32070500D01*
X96232892Y-32034785D01*
X96090035Y-32034785D01*
X96018607Y-32070500D01*
X95590035Y-32534785D02*
X95661464Y-32499071D01*
X95697178Y-32463357D01*
X95732892Y-32391928D01*
X95732892Y-32177642D01*
X95697178Y-32106214D01*
X95661464Y-32070500D01*
X95590035Y-32034785D01*
X95482892Y-32034785D01*
X95411464Y-32070500D01*
X95375749Y-32106214D01*
X95340035Y-32177642D01*
X95340035Y-32391928D01*
X95375749Y-32463357D01*
X95411464Y-32499071D01*
X95482892Y-32534785D01*
X95590035Y-32534785D01*
X95018607Y-32534785D02*
X95018607Y-32034785D01*
X95018607Y-32106214D02*
X94982892Y-32070500D01*
X94911464Y-32034785D01*
X94804321Y-32034785D01*
X94732892Y-32070500D01*
X94697178Y-32141928D01*
X94697178Y-32534785D01*
X94697178Y-32141928D02*
X94661464Y-32070500D01*
X94590035Y-32034785D01*
X94482892Y-32034785D01*
X94411464Y-32070500D01*
X94375749Y-32141928D01*
X94375749Y-32534785D01*
X93482892Y-31749071D02*
X94125749Y-32713357D01*
X93340035Y-31784785D02*
X92911464Y-31784785D01*
X93125749Y-32534785D02*
X93125749Y-31784785D01*
X92661464Y-32534785D02*
X92661464Y-31784785D01*
X92340035Y-32534785D02*
X92340035Y-32141928D01*
X92375749Y-32070500D01*
X92447178Y-32034785D01*
X92554321Y-32034785D01*
X92625749Y-32070500D01*
X92661464Y-32106214D01*
X91697178Y-32499071D02*
X91768607Y-32534785D01*
X91911464Y-32534785D01*
X91982892Y-32499071D01*
X92018607Y-32427642D01*
X92018607Y-32141928D01*
X91982892Y-32070500D01*
X91911464Y-32034785D01*
X91768607Y-32034785D01*
X91697178Y-32070500D01*
X91661464Y-32141928D01*
X91661464Y-32213357D01*
X92018607Y-32284785D01*
X91090035Y-32141928D02*
X90982892Y-32177642D01*
X90947178Y-32213357D01*
X90911464Y-32284785D01*
X90911464Y-32391928D01*
X90947178Y-32463357D01*
X90982892Y-32499071D01*
X91054321Y-32534785D01*
X91340035Y-32534785D01*
X91340035Y-31784785D01*
X91090035Y-31784785D01*
X91018607Y-31820500D01*
X90982892Y-31856214D01*
X90947178Y-31927642D01*
X90947178Y-31999071D01*
X90982892Y-32070500D01*
X91018607Y-32106214D01*
X91090035Y-32141928D01*
X91340035Y-32141928D01*
X90268607Y-32034785D02*
X90268607Y-32534785D01*
X90590035Y-32034785D02*
X90590035Y-32427642D01*
X90554321Y-32499071D01*
X90482892Y-32534785D01*
X90375749Y-32534785D01*
X90304321Y-32499071D01*
X90268607Y-32463357D01*
X90018607Y-32034785D02*
X89732892Y-32034785D01*
X89911464Y-31784785D02*
X89911464Y-32427642D01*
X89875749Y-32499071D01*
X89804321Y-32534785D01*
X89732892Y-32534785D01*
X89375749Y-32534785D02*
X89447178Y-32499071D01*
X89482892Y-32427642D01*
X89482892Y-31784785D01*
X88768607Y-32534785D02*
X88768607Y-32141928D01*
X88804321Y-32070500D01*
X88875749Y-32034785D01*
X89018607Y-32034785D01*
X89090035Y-32070500D01*
X88768607Y-32499071D02*
X88840035Y-32534785D01*
X89018607Y-32534785D01*
X89090035Y-32499071D01*
X89125749Y-32427642D01*
X89125749Y-32356214D01*
X89090035Y-32284785D01*
X89018607Y-32249071D01*
X88840035Y-32249071D01*
X88768607Y-32213357D01*
X88411464Y-32534785D02*
X88411464Y-31784785D01*
X88090035Y-32534785D02*
X88090035Y-32141928D01*
X88125749Y-32070500D01*
X88197178Y-32034785D01*
X88304321Y-32034785D01*
X88375749Y-32070500D01*
X88411464Y-32106214D01*
X87197178Y-31749071D02*
X87840035Y-32713357D01*
X86982892Y-32499071D02*
X86911464Y-32534785D01*
X86768607Y-32534785D01*
X86697178Y-32499071D01*
X86661464Y-32427642D01*
X86661464Y-32391928D01*
X86697178Y-32320500D01*
X86768607Y-32284785D01*
X86875749Y-32284785D01*
X86947178Y-32249071D01*
X86982892Y-32177642D01*
X86982892Y-32141928D01*
X86947178Y-32070500D01*
X86875749Y-32034785D01*
X86768607Y-32034785D01*
X86697178Y-32070500D01*
X86232892Y-32534785D02*
X86304321Y-32499071D01*
X86340035Y-32427642D01*
X86340035Y-31784785D01*
X85947178Y-32534785D02*
X85947178Y-32034785D01*
X85947178Y-31784785D02*
X85982892Y-31820500D01*
X85947178Y-31856214D01*
X85911464Y-31820500D01*
X85947178Y-31784785D01*
X85947178Y-31856214D01*
X85590035Y-32534785D02*
X85590035Y-32034785D01*
X85590035Y-32106214D02*
X85554321Y-32070500D01*
X85482892Y-32034785D01*
X85375749Y-32034785D01*
X85304321Y-32070500D01*
X85268607Y-32141928D01*
X85268607Y-32534785D01*
X85268607Y-32141928D02*
X85232892Y-32070500D01*
X85161464Y-32034785D01*
X85054321Y-32034785D01*
X84982892Y-32070500D01*
X84947178Y-32141928D01*
X84947178Y-32534785D01*
X84304321Y-32499071D02*
X84375749Y-32534785D01*
X84518607Y-32534785D01*
X84590035Y-32499071D01*
X84625749Y-32427642D01*
X84625749Y-32141928D01*
X84590035Y-32070500D01*
X84518607Y-32034785D01*
X84375749Y-32034785D01*
X84304321Y-32070500D01*
X84268607Y-32141928D01*
X84268607Y-32213357D01*
X84625749Y-32284785D01*
X84018607Y-32034785D02*
X83840035Y-32534785D01*
X83661464Y-32034785D01*
X83375749Y-32534785D02*
X83375749Y-32034785D01*
X83375749Y-32177642D02*
X83340035Y-32106214D01*
X83304321Y-32070500D01*
X83232892Y-32034785D01*
X83161464Y-32034785D01*
X83090035Y-32606214D02*
X82518607Y-32606214D01*
X82340035Y-32034785D02*
X82340035Y-32784785D01*
X82340035Y-32070500D02*
X82268607Y-32034785D01*
X82125749Y-32034785D01*
X82054321Y-32070500D01*
X82018607Y-32106214D01*
X81982892Y-32177642D01*
X81982892Y-32391928D01*
X82018607Y-32463357D01*
X82054321Y-32499071D01*
X82125749Y-32534785D01*
X82268607Y-32534785D01*
X82340035Y-32499071D01*
X81340035Y-32499071D02*
X81411464Y-32534785D01*
X81554321Y-32534785D01*
X81625749Y-32499071D01*
X81661464Y-32463357D01*
X81697178Y-32391928D01*
X81697178Y-32177642D01*
X81661464Y-32106214D01*
X81625749Y-32070500D01*
X81554321Y-32034785D01*
X81411464Y-32034785D01*
X81340035Y-32070500D01*
X81018607Y-32534785D02*
X81018607Y-31784785D01*
X81018607Y-32070500D02*
X80947178Y-32034785D01*
X80804321Y-32034785D01*
X80732892Y-32070500D01*
X80697178Y-32106214D01*
X80661464Y-32177642D01*
X80661464Y-32391928D01*
X80697178Y-32463357D01*
X80732892Y-32499071D01*
X80804321Y-32534785D01*
X80947178Y-32534785D01*
X81018607Y-32499071D01*
D12*
%TO.C,D2*%
X85174615Y-57202900D02*
X85174615Y-56202900D01*
X84936520Y-56202900D01*
X84793662Y-56250520D01*
X84698424Y-56345758D01*
X84650805Y-56440996D01*
X84603186Y-56631472D01*
X84603186Y-56774329D01*
X84650805Y-56964805D01*
X84698424Y-57060043D01*
X84793662Y-57155281D01*
X84936520Y-57202900D01*
X85174615Y-57202900D01*
X84222234Y-56298139D02*
X84174615Y-56250520D01*
X84079377Y-56202900D01*
X83841281Y-56202900D01*
X83746043Y-56250520D01*
X83698424Y-56298139D01*
X83650805Y-56393377D01*
X83650805Y-56488615D01*
X83698424Y-56631472D01*
X84269853Y-57202900D01*
X83650805Y-57202900D01*
%TO.C,JP2*%
X65457853Y-52624900D02*
X65457853Y-53339186D01*
X65505472Y-53482043D01*
X65600710Y-53577281D01*
X65743567Y-53624900D01*
X65838805Y-53624900D01*
X64981662Y-53624900D02*
X64981662Y-52624900D01*
X64600710Y-52624900D01*
X64505472Y-52672520D01*
X64457853Y-52720139D01*
X64410234Y-52815377D01*
X64410234Y-52958234D01*
X64457853Y-53053472D01*
X64505472Y-53101091D01*
X64600710Y-53148710D01*
X64981662Y-53148710D01*
X64029281Y-52720139D02*
X63981662Y-52672520D01*
X63886424Y-52624900D01*
X63648329Y-52624900D01*
X63553091Y-52672520D01*
X63505472Y-52720139D01*
X63457853Y-52815377D01*
X63457853Y-52910615D01*
X63505472Y-53053472D01*
X64076900Y-53624900D01*
X63457853Y-53624900D01*
%TO.C,JP1*%
X69521853Y-52624900D02*
X69521853Y-53339186D01*
X69569472Y-53482043D01*
X69664710Y-53577281D01*
X69807567Y-53624900D01*
X69902805Y-53624900D01*
X69045662Y-53624900D02*
X69045662Y-52624900D01*
X68664710Y-52624900D01*
X68569472Y-52672520D01*
X68521853Y-52720139D01*
X68474234Y-52815377D01*
X68474234Y-52958234D01*
X68521853Y-53053472D01*
X68569472Y-53101091D01*
X68664710Y-53148710D01*
X69045662Y-53148710D01*
X67521853Y-53624900D02*
X68093281Y-53624900D01*
X67807567Y-53624900D02*
X67807567Y-52624900D01*
X67902805Y-52767758D01*
X67998043Y-52862996D01*
X68093281Y-52910615D01*
%TO.C,J2*%
X71644333Y-57227380D02*
X71644333Y-57941666D01*
X71691952Y-58084523D01*
X71787190Y-58179761D01*
X71930047Y-58227380D01*
X72025285Y-58227380D01*
X71215761Y-57322619D02*
X71168142Y-57275000D01*
X71072904Y-57227380D01*
X70834809Y-57227380D01*
X70739571Y-57275000D01*
X70691952Y-57322619D01*
X70644333Y-57417857D01*
X70644333Y-57513095D01*
X70691952Y-57655952D01*
X71263380Y-58227380D01*
X70644333Y-58227380D01*
%TO.C,D1*%
X84939095Y-60523380D02*
X84939095Y-59523380D01*
X84701000Y-59523380D01*
X84558142Y-59571000D01*
X84462904Y-59666238D01*
X84415285Y-59761476D01*
X84367666Y-59951952D01*
X84367666Y-60094809D01*
X84415285Y-60285285D01*
X84462904Y-60380523D01*
X84558142Y-60475761D01*
X84701000Y-60523380D01*
X84939095Y-60523380D01*
X83415285Y-60523380D02*
X83986714Y-60523380D01*
X83701000Y-60523380D02*
X83701000Y-59523380D01*
X83796238Y-59666238D01*
X83891476Y-59761476D01*
X83986714Y-59809095D01*
%TO.C,SW1*%
X56507333Y-57619270D02*
X56364476Y-57666889D01*
X56126380Y-57666889D01*
X56031142Y-57619270D01*
X55983523Y-57571651D01*
X55935904Y-57476413D01*
X55935904Y-57381175D01*
X55983523Y-57285937D01*
X56031142Y-57238318D01*
X56126380Y-57190699D01*
X56316857Y-57143080D01*
X56412095Y-57095461D01*
X56459714Y-57047842D01*
X56507333Y-56952604D01*
X56507333Y-56857366D01*
X56459714Y-56762128D01*
X56412095Y-56714509D01*
X56316857Y-56666889D01*
X56078761Y-56666889D01*
X55935904Y-56714509D01*
X55602571Y-56666889D02*
X55364476Y-57666889D01*
X55174000Y-56952604D01*
X54983523Y-57666889D01*
X54745428Y-56666889D01*
X53840666Y-57666889D02*
X54412095Y-57666889D01*
X54126380Y-57666889D02*
X54126380Y-56666889D01*
X54221619Y-56809747D01*
X54316857Y-56904985D01*
X54412095Y-56952604D01*
%TO.C,J1*%
X99139333Y-53935380D02*
X99139333Y-54649666D01*
X99186952Y-54792523D01*
X99282190Y-54887761D01*
X99425047Y-54935380D01*
X99520285Y-54935380D01*
X98139333Y-54935380D02*
X98710761Y-54935380D01*
X98425047Y-54935380D02*
X98425047Y-53935380D01*
X98520285Y-54078238D01*
X98615523Y-54173476D01*
X98710761Y-54221095D01*
D13*
%TO.C,D2*%
X86390520Y-55280520D02*
X86390520Y-58220520D01*
X81970520Y-55280520D02*
X87410520Y-55280520D01*
X86510520Y-55280520D02*
X86510520Y-58220520D01*
X88430520Y-56750520D02*
X87410520Y-56750520D01*
X80950520Y-56750520D02*
X81970520Y-56750520D01*
X81970520Y-58220520D02*
X81970520Y-55280520D01*
X86630520Y-55280520D02*
X86630520Y-58220520D01*
X87410520Y-55280520D02*
X87410520Y-58220520D01*
X87410520Y-58220520D02*
X81970520Y-58220520D01*
%TO.C,JP2*%
X63224520Y-55972520D02*
X66024520Y-55972520D01*
X66024520Y-53972520D02*
X63224520Y-53972520D01*
X66024520Y-55972520D02*
X66024520Y-53972520D01*
X63224520Y-53972520D02*
X63224520Y-55972520D01*
%TO.C,JP1*%
X70088520Y-53972520D02*
X67288520Y-53972520D01*
X67288520Y-53972520D02*
X67288520Y-55972520D01*
X67288520Y-55972520D02*
X70088520Y-55972520D01*
X70088520Y-55972520D02*
X70088520Y-53972520D01*
%TO.C,J2*%
X76111000Y-64425000D02*
X76111000Y-66685000D01*
X76451000Y-60465000D02*
X76451000Y-58865000D01*
X75611000Y-62825000D02*
X76611000Y-62825000D01*
X67811000Y-62325000D02*
X67811000Y-66685000D01*
X77371000Y-60465000D02*
X76451000Y-60465000D01*
X75611000Y-64425000D02*
X75611000Y-66685000D01*
X65251000Y-66685000D02*
X65251000Y-58865000D01*
X65251000Y-60465000D02*
X66171000Y-60465000D01*
X67011000Y-64425000D02*
X67011000Y-62825000D01*
X74811000Y-62325000D02*
X67811000Y-62325000D01*
X66171000Y-60465000D02*
X66451000Y-60465000D01*
X67011000Y-62825000D02*
X66011000Y-62825000D01*
X66011000Y-64425000D02*
X67011000Y-64425000D01*
X76611000Y-62825000D02*
X76611000Y-64425000D01*
X66171000Y-58865000D02*
X66171000Y-60465000D01*
X76171000Y-60465000D02*
X76171000Y-59250000D01*
X77371000Y-58865000D02*
X77371000Y-66685000D01*
X76611000Y-64425000D02*
X75611000Y-64425000D01*
X77371000Y-66685000D02*
X65251000Y-66685000D01*
X76451000Y-58865000D02*
X77371000Y-58865000D01*
X74811000Y-66685000D02*
X74811000Y-62325000D01*
X65251000Y-58865000D02*
X66171000Y-58865000D01*
X66011000Y-62825000D02*
X66011000Y-64425000D01*
X75611000Y-64425000D02*
X75611000Y-62825000D01*
X76171000Y-60465000D02*
X76451000Y-60465000D01*
%TO.C,D1*%
X81989000Y-61541000D02*
X81989000Y-58601000D01*
X86409000Y-58601000D02*
X86409000Y-61541000D01*
X81989000Y-58601000D02*
X87429000Y-58601000D01*
X86529000Y-58601000D02*
X86529000Y-61541000D01*
X80969000Y-60071000D02*
X81989000Y-60071000D01*
X87429000Y-61541000D02*
X81989000Y-61541000D01*
X86649000Y-58601000D02*
X86649000Y-61541000D01*
X87429000Y-58601000D02*
X87429000Y-61541000D01*
X88449000Y-60071000D02*
X87429000Y-60071000D01*
D12*
%TO.C,SW1*%
X58874000Y-58514509D02*
X50274000Y-58514509D01*
X52574000Y-63114509D02*
X50274000Y-63114509D01*
X58874000Y-63114509D02*
X56674000Y-63114509D01*
D13*
%TO.C,J1*%
X96406000Y-55487000D02*
X96406000Y-56407000D01*
X96406000Y-56407000D02*
X94806000Y-56407000D01*
X98766000Y-57247000D02*
X98766000Y-56247000D01*
X102626000Y-58047000D02*
X98266000Y-58047000D01*
X100366000Y-56247000D02*
X100366000Y-57247000D01*
X100366000Y-57247000D02*
X98766000Y-57247000D01*
X94806000Y-61607000D02*
X94806000Y-60687000D01*
X96406000Y-56687000D02*
X95191000Y-56687000D01*
X102626000Y-61607000D02*
X94806000Y-61607000D01*
X94806000Y-56407000D02*
X94806000Y-55487000D01*
X96406000Y-56687000D02*
X96406000Y-56407000D01*
X102626000Y-55487000D02*
X102626000Y-61607000D01*
X94806000Y-60687000D02*
X96406000Y-60687000D01*
X100366000Y-59847000D02*
X98766000Y-59847000D01*
X98766000Y-59847000D02*
X98766000Y-60847000D01*
X94806000Y-55487000D02*
X102626000Y-55487000D01*
X96406000Y-61607000D02*
X96406000Y-60687000D01*
X98266000Y-58047000D02*
X98266000Y-59047000D01*
X98266000Y-59047000D02*
X102626000Y-59047000D01*
X98766000Y-56247000D02*
X100366000Y-56247000D01*
X100366000Y-56747000D02*
X102626000Y-56747000D01*
X96406000Y-60687000D02*
X96406000Y-60407000D01*
X98766000Y-60847000D02*
X100366000Y-60847000D01*
X100366000Y-60847000D02*
X100366000Y-59847000D01*
X100366000Y-57247000D02*
X102626000Y-57247000D01*
%TD*%
M02*
