%TF.GenerationSoftware,KiCad,Pcbnew,(6.0.2)*%
%TF.CreationDate,2022-05-25T22:27:01-04:00*%
%TF.ProjectId,breakout_slime,62726561-6b6f-4757-945f-736c696d652e,v0.1.4*%
%TF.SameCoordinates,Original*%
%TF.FileFunction,Copper,L2,Bot*%
%TF.FilePolarity,Positive*%
%FSLAX46Y46*%
G04 Gerber Fmt 4.6, Leading zero omitted, Abs format (unit mm)*
G04 Created by KiCad (PCBNEW (6.0.2)) date 2022-05-25 22:27:01*
%MOMM*%
%LPD*%
G01*
G04 APERTURE LIST*
G04 Aperture macros list*
%AMRoundRect*
0 Rectangle with rounded corners*
0 $1 Rounding radius*
0 $2 $3 $4 $5 $6 $7 $8 $9 X,Y pos of 4 corners*
0 Add a 4 corners polygon primitive as box body*
4,1,4,$2,$3,$4,$5,$6,$7,$8,$9,$2,$3,0*
0 Add four circle primitives for the rounded corners*
1,1,$1+$1,$2,$3*
1,1,$1+$1,$4,$5*
1,1,$1+$1,$6,$7*
1,1,$1+$1,$8,$9*
0 Add four rect primitives between the rounded corners*
20,1,$1+$1,$2,$3,$4,$5,0*
20,1,$1+$1,$4,$5,$6,$7,0*
20,1,$1+$1,$6,$7,$8,$9,0*
20,1,$1+$1,$8,$9,$2,$3,0*%
G04 Aperture macros list end*
%TA.AperFunction,ComponentPad*%
%ADD10C,1.600000*%
%TD*%
%TA.AperFunction,ComponentPad*%
%ADD11O,1.600000X1.600000*%
%TD*%
%TA.AperFunction,ComponentPad*%
%ADD12C,1.651000*%
%TD*%
%TA.AperFunction,ComponentPad*%
%ADD13R,1.651000X1.651000*%
%TD*%
%TA.AperFunction,ComponentPad*%
%ADD14R,2.000000X2.000000*%
%TD*%
%TA.AperFunction,ComponentPad*%
%ADD15O,2.000000X1.600000*%
%TD*%
%TA.AperFunction,ComponentPad*%
%ADD16R,2.200000X2.200000*%
%TD*%
%TA.AperFunction,ComponentPad*%
%ADD17O,2.200000X2.200000*%
%TD*%
%TA.AperFunction,SMDPad,CuDef*%
%ADD18R,1.000000X1.500000*%
%TD*%
%TA.AperFunction,ComponentPad*%
%ADD19RoundRect,0.250000X0.350000X0.625000X-0.350000X0.625000X-0.350000X-0.625000X0.350000X-0.625000X0*%
%TD*%
%TA.AperFunction,ComponentPad*%
%ADD20O,1.200000X1.750000*%
%TD*%
%TA.AperFunction,ComponentPad*%
%ADD21O,2.200000X3.500000*%
%TD*%
%TA.AperFunction,ComponentPad*%
%ADD22R,1.500000X2.500000*%
%TD*%
%TA.AperFunction,ComponentPad*%
%ADD23O,1.500000X2.500000*%
%TD*%
%TA.AperFunction,ComponentPad*%
%ADD24RoundRect,0.250000X-0.625000X0.350000X-0.625000X-0.350000X0.625000X-0.350000X0.625000X0.350000X0*%
%TD*%
%TA.AperFunction,ComponentPad*%
%ADD25O,1.750000X1.200000*%
%TD*%
%TA.AperFunction,ViaPad*%
%ADD26C,0.800000*%
%TD*%
%TA.AperFunction,Conductor*%
%ADD27C,0.500000*%
%TD*%
%TA.AperFunction,Conductor*%
%ADD28C,0.250000*%
%TD*%
G04 APERTURE END LIST*
D10*
%TO.P,R1,1*%
%TO.N,Net-(R1-Pad1)*%
X76673634Y-57293815D03*
D11*
%TO.P,R1,2*%
%TO.N,B+*%
X76673634Y-47133815D03*
%TD*%
D12*
%TO.P,U3,*%
%TO.N,*%
X102206037Y-62860969D03*
X99793037Y-62860969D03*
D13*
%TO.P,U3,1,VCC*%
%TO.N,+3V3*%
X79346037Y-62860969D03*
D12*
%TO.P,U3,2,GND*%
%TO.N,GND*%
X81886037Y-62860969D03*
%TO.P,U3,3,SCL*%
%TO.N,SCL*%
X84426037Y-62860969D03*
%TO.P,U3,4,SDA*%
%TO.N,SDA*%
X86966037Y-62860969D03*
%TO.P,U3,5,AD0_BNO/INT_ICM*%
%TO.N,Net-(JP1-Pad1)*%
X89506037Y-62860969D03*
%TO.P,U3,6,AD0_ICM*%
%TO.N,unconnected-(U3-Pad6)*%
X92046037Y-62860969D03*
%TO.P,U3,7,INT_BNO/AD0_MPU*%
%TO.N,INT1*%
X94586037Y-62860969D03*
%TO.P,U3,8,INT_MPU*%
%TO.N,unconnected-(U3-Pad8)*%
X97126037Y-62860969D03*
%TD*%
D14*
%TO.P,U2,1,~{RST}*%
%TO.N,unconnected-(U2-Pad1)*%
X50631522Y-38208509D03*
D15*
%TO.P,U2,2,A0*%
%TO.N,Net-(R1-Pad1)*%
X50631522Y-40748509D03*
%TO.P,U2,3,D0*%
%TO.N,unconnected-(U2-Pad3)*%
X50631522Y-43288509D03*
%TO.P,U2,4,SCK/D5*%
%TO.N,INT1*%
X50631522Y-45828509D03*
%TO.P,U2,5,MISO/D6*%
%TO.N,INT2*%
X50631522Y-48368509D03*
%TO.P,U2,6,MOSI/D7*%
%TO.N,unconnected-(U2-Pad6)*%
X50631522Y-50908509D03*
%TO.P,U2,7,CS/D8*%
%TO.N,unconnected-(U2-Pad7)*%
X50631522Y-53448509D03*
%TO.P,U2,8,3V3*%
%TO.N,+3V3*%
X50631522Y-55988509D03*
%TO.P,U2,9,5V*%
%TO.N,+5V*%
X73491522Y-55988509D03*
%TO.P,U2,10,GND*%
%TO.N,GND*%
X73491522Y-53448509D03*
%TO.P,U2,11,D4*%
%TO.N,unconnected-(U2-Pad11)*%
X73491522Y-50908509D03*
%TO.P,U2,12,D3*%
%TO.N,unconnected-(U2-Pad12)*%
X73491522Y-48368509D03*
%TO.P,U2,13,SDA/D2*%
%TO.N,SDA*%
X73491522Y-45828509D03*
%TO.P,U2,14,SCL/D1*%
%TO.N,SCL*%
X73491522Y-43288509D03*
%TO.P,U2,15,RX*%
%TO.N,unconnected-(U2-Pad15)*%
X73491522Y-40748509D03*
%TO.P,U2,16,TX*%
%TO.N,unconnected-(U2-Pad16)*%
X73491522Y-38208509D03*
%TD*%
D14*
%TO.P,U1,1,In+*%
%TO.N,Net-(D1-Pad2)*%
X101641015Y-44670579D03*
%TO.P,U1,2,In-*%
%TO.N,unconnected-(U1-Pad2)*%
X101641015Y-30700579D03*
%TO.P,U1,3,Out-*%
%TO.N,Net-(SW1-Pad3)*%
X78781015Y-30700579D03*
%TO.P,U1,4,B-*%
%TO.N,Net-(J1-Pad2)*%
X78781015Y-33748579D03*
%TO.P,U1,5,B+*%
%TO.N,B+*%
X78781015Y-41622579D03*
%TO.P,U1,6,Out+*%
%TO.N,Net-(D2-Pad2)*%
X78781015Y-44670579D03*
%TD*%
D16*
%TO.P,D2,1,K*%
%TO.N,+5V*%
X89770520Y-56750520D03*
D17*
%TO.P,D2,2,A*%
%TO.N,Net-(D2-Pad2)*%
X79610520Y-56750520D03*
%TD*%
D18*
%TO.P,JP2,1,A*%
%TO.N,INT1*%
X65274520Y-54972520D03*
%TO.P,JP2,2,B*%
%TO.N,+3V3*%
X63974520Y-54972520D03*
%TD*%
%TO.P,JP1,1,A*%
%TO.N,Net-(JP1-Pad1)*%
X69338520Y-54972520D03*
%TO.P,JP1,2,B*%
%TO.N,GND*%
X68038520Y-54972520D03*
%TD*%
D19*
%TO.P,J2,1,Pin_1*%
%TO.N,SDA*%
X75311000Y-60325000D03*
D20*
%TO.P,J2,2,Pin_2*%
%TO.N,+3V3*%
X73311000Y-60325000D03*
%TO.P,J2,3,Pin_3*%
%TO.N,INT2*%
X71311000Y-60325000D03*
%TO.P,J2,4,Pin_4*%
%TO.N,GND*%
X69311000Y-60325000D03*
%TO.P,J2,5,Pin_5*%
%TO.N,SCL*%
X67311000Y-60325000D03*
%TD*%
D16*
%TO.P,D1,1,K*%
%TO.N,+5V*%
X89789000Y-60071000D03*
D17*
%TO.P,D1,2,A*%
%TO.N,Net-(D1-Pad2)*%
X79629000Y-60071000D03*
%TD*%
D21*
%TO.P,SW1,*%
%TO.N,*%
X58674000Y-60814509D03*
X50474000Y-60814509D03*
D22*
%TO.P,SW1,1,A*%
%TO.N,unconnected-(SW1-Pad1)*%
X56574000Y-60814509D03*
D23*
%TO.P,SW1,2,B*%
%TO.N,GND*%
X54574000Y-60814509D03*
%TO.P,SW1,3,C*%
%TO.N,Net-(SW1-Pad3)*%
X52574000Y-60814509D03*
%TD*%
D24*
%TO.P,J1,1,Pin_1*%
%TO.N,B+*%
X96266000Y-57547000D03*
D25*
%TO.P,J1,2,Pin_2*%
%TO.N,Net-(J1-Pad2)*%
X96266000Y-59547000D03*
%TD*%
D26*
%TO.N,Net-(D1-Pad2)*%
X88754520Y-49130520D03*
X84201000Y-57277000D03*
%TO.N,+3V3*%
X69196520Y-51416520D03*
%TO.N,GND*%
X92457105Y-60374427D03*
X76200000Y-50800000D03*
X99060000Y-38100000D03*
X70993000Y-56515000D03*
X51943000Y-52197000D03*
X93980000Y-43180000D03*
X51803147Y-57892192D03*
X93980000Y-33020000D03*
X88900000Y-33020000D03*
X87249000Y-58166000D03*
X86360000Y-43180000D03*
X101600000Y-53340000D03*
X68580000Y-40640000D03*
X71374000Y-39370000D03*
X66040000Y-48260000D03*
X84836000Y-60071000D03*
X63500000Y-45720000D03*
X70612000Y-53086000D03*
X61879222Y-62372795D03*
X81280000Y-43180000D03*
X81280000Y-38100000D03*
X96520000Y-48260000D03*
X93980000Y-38100000D03*
X99060000Y-58420000D03*
X79654400Y-53340000D03*
X55372000Y-47117000D03*
X75946000Y-31877000D03*
X88900000Y-38100000D03*
X88900000Y-53340000D03*
X101600000Y-48260000D03*
X75946000Y-38354000D03*
X55880000Y-43180000D03*
X53848000Y-38100000D03*
X99060000Y-33020000D03*
X86360000Y-48260000D03*
X63500000Y-40640000D03*
X99060000Y-43180000D03*
X72390000Y-61976000D03*
X58191400Y-57277000D03*
X61932100Y-56681339D03*
X83820000Y-33020000D03*
X75641034Y-62954936D03*
X95614624Y-52385288D03*
X70054757Y-48254103D03*
X77216000Y-60833000D03*
X81280000Y-48260000D03*
X55880000Y-53340000D03*
X58420000Y-43180000D03*
X60960000Y-50800000D03*
X83820000Y-45720000D03*
X74676000Y-44577000D03*
X83820000Y-50800000D03*
X68580000Y-45720000D03*
%TO.N,SCL*%
X66675000Y-56388000D03*
%TO.N,INT1*%
X65386520Y-51670520D03*
%TO.N,Net-(R1-Pad1)*%
X76816520Y-52686520D03*
%TO.N,Net-(SW1-Pad3)*%
X53721000Y-43434000D03*
X53721000Y-49657000D03*
%TD*%
D27*
%TO.N,B+*%
X76673634Y-47133815D02*
X76673634Y-42579366D01*
X78781015Y-41622579D02*
X82897579Y-41622579D01*
X76673634Y-42579366D02*
X77630421Y-41622579D01*
X77630421Y-41622579D02*
X78781015Y-41622579D01*
X93853000Y-55134000D02*
X96266000Y-57547000D01*
X93853000Y-52578000D02*
X93853000Y-55134000D01*
X82897579Y-41622579D02*
X93853000Y-52578000D01*
%TO.N,Net-(D1-Pad2)*%
X84201000Y-57277000D02*
X84709000Y-56769000D01*
X84709000Y-56769000D02*
X84709000Y-53176040D01*
X84709000Y-53176040D02*
X88754520Y-49130520D01*
%TO.N,Net-(D2-Pad2)*%
X78781015Y-55921015D02*
X79610520Y-56750520D01*
X78781015Y-44670579D02*
X78781015Y-55921015D01*
%TO.N,+3V3*%
X60052520Y-54972520D02*
X65132520Y-49892520D01*
D28*
X73311000Y-60865000D02*
X74530520Y-62084520D01*
D27*
X65132520Y-49892520D02*
X67672520Y-49892520D01*
X59036520Y-55988520D02*
X60052520Y-54972520D01*
X67672520Y-49892520D02*
X69196520Y-51416520D01*
D28*
X78100980Y-62860980D02*
X79346048Y-62860980D01*
D27*
X50631520Y-55988520D02*
X59036520Y-55988520D01*
D28*
X77324520Y-62084520D02*
X78100980Y-62860980D01*
D27*
X60052520Y-54972520D02*
X63974520Y-54972520D01*
D28*
X74530520Y-62084520D02*
X77324520Y-62084520D01*
%TO.N,GND*%
X80620068Y-61595000D02*
X77978000Y-61595000D01*
X77978000Y-61595000D02*
X77216000Y-60833000D01*
X81886037Y-62860969D02*
X80620068Y-61595000D01*
D27*
X71462029Y-39458029D02*
X71374000Y-39370000D01*
D28*
%TO.N,SCL*%
X67311000Y-57024000D02*
X67311000Y-60325000D01*
X66675000Y-56388000D02*
X67311000Y-57024000D01*
%TO.N,Net-(JP1-Pad1)*%
X69447040Y-54864000D02*
X76012300Y-54864000D01*
X78086520Y-56938220D02*
X78086520Y-57241084D01*
X85235480Y-58274520D02*
X87630000Y-60669040D01*
X87693062Y-60706000D02*
X89848042Y-62860980D01*
X76012300Y-54864000D02*
X78086520Y-56938220D01*
X79119956Y-58274520D02*
X85235480Y-58274520D01*
X78086520Y-57241084D02*
X79119956Y-58274520D01*
%TO.N,INT1*%
X65274520Y-51782520D02*
X65386520Y-51670520D01*
X65274520Y-54972520D02*
X65274520Y-51782520D01*
%TO.N,Net-(R1-Pad1)*%
X71983600Y-52171600D02*
X60560520Y-40748520D01*
X76301600Y-52171600D02*
X71983600Y-52171600D01*
X60560520Y-40748520D02*
X50631520Y-40748520D01*
X76816520Y-52686520D02*
X76301600Y-52171600D01*
D27*
%TO.N,Net-(SW1-Pad3)*%
X53721000Y-43434000D02*
X53721000Y-49657000D01*
%TO.N,Net-(J1-Pad2)*%
X97790000Y-52451000D02*
X79087579Y-33748579D01*
X96266000Y-59547000D02*
X97044000Y-59547000D01*
X97044000Y-59547000D02*
X97790000Y-58801000D01*
X97790000Y-58801000D02*
X97790000Y-52451000D01*
%TD*%
%TA.AperFunction,Conductor*%
%TO.N,GND*%
G36*
X77220678Y-29484002D02*
G01*
X77267171Y-29537658D01*
X77277820Y-29603607D01*
X77272515Y-29652445D01*
X77272515Y-31748713D01*
X77279270Y-31810895D01*
X77330400Y-31947284D01*
X77417754Y-32063840D01*
X77424934Y-32069221D01*
X77497696Y-32123753D01*
X77540211Y-32180612D01*
X77545237Y-32251430D01*
X77511177Y-32313724D01*
X77497698Y-32325403D01*
X77417754Y-32385318D01*
X77330400Y-32501874D01*
X77279270Y-32638263D01*
X77272515Y-32700445D01*
X77272515Y-34796713D01*
X77279270Y-34858895D01*
X77330400Y-34995284D01*
X77417754Y-35111840D01*
X77534310Y-35199194D01*
X77670699Y-35250324D01*
X77732881Y-35257079D01*
X79471208Y-35257079D01*
X79539329Y-35277081D01*
X79560303Y-35293984D01*
X96994595Y-52728276D01*
X97028621Y-52790588D01*
X97031500Y-52817371D01*
X97031500Y-56312500D01*
X97011498Y-56380621D01*
X96957842Y-56427114D01*
X96905500Y-56438500D01*
X96282371Y-56438500D01*
X96214250Y-56418498D01*
X96193276Y-56401595D01*
X94648405Y-54856724D01*
X94614379Y-54794412D01*
X94611500Y-54767629D01*
X94611500Y-52645070D01*
X94612933Y-52626120D01*
X94615099Y-52611885D01*
X94615099Y-52611881D01*
X94616199Y-52604651D01*
X94611915Y-52551982D01*
X94611500Y-52541767D01*
X94611500Y-52533707D01*
X94608209Y-52505480D01*
X94607778Y-52501121D01*
X94606899Y-52490314D01*
X94601860Y-52428364D01*
X94599605Y-52421403D01*
X94598418Y-52415463D01*
X94597029Y-52409588D01*
X94596182Y-52402319D01*
X94571264Y-52333670D01*
X94569847Y-52329542D01*
X94549607Y-52267064D01*
X94549606Y-52267062D01*
X94547351Y-52260101D01*
X94543555Y-52253846D01*
X94541049Y-52248372D01*
X94538330Y-52242942D01*
X94535833Y-52236063D01*
X94521515Y-52214225D01*
X94495814Y-52175024D01*
X94493467Y-52171305D01*
X94455595Y-52108893D01*
X94450340Y-52102942D01*
X94448197Y-52100516D01*
X94448224Y-52100492D01*
X94445571Y-52097500D01*
X94442868Y-52094267D01*
X94438856Y-52088148D01*
X94382617Y-52034872D01*
X94380175Y-52032494D01*
X83481349Y-41133668D01*
X83468963Y-41119256D01*
X83460430Y-41107661D01*
X83460425Y-41107656D01*
X83456087Y-41101761D01*
X83450509Y-41097022D01*
X83450506Y-41097019D01*
X83415811Y-41067544D01*
X83408295Y-41060614D01*
X83402600Y-41054919D01*
X83386315Y-41042035D01*
X83380328Y-41037298D01*
X83376924Y-41034507D01*
X83326876Y-40991988D01*
X83326874Y-40991987D01*
X83321294Y-40987246D01*
X83314778Y-40983918D01*
X83309729Y-40980551D01*
X83304600Y-40977384D01*
X83298863Y-40972845D01*
X83232704Y-40941924D01*
X83228804Y-40940018D01*
X83163771Y-40906810D01*
X83156663Y-40905071D01*
X83151020Y-40902972D01*
X83145257Y-40901055D01*
X83138629Y-40897957D01*
X83067162Y-40883092D01*
X83062878Y-40882122D01*
X83060667Y-40881581D01*
X82991969Y-40864771D01*
X82986367Y-40864423D01*
X82986364Y-40864423D01*
X82980815Y-40864079D01*
X82980817Y-40864043D01*
X82976824Y-40863804D01*
X82972632Y-40863430D01*
X82965464Y-40861939D01*
X82899254Y-40863730D01*
X82888058Y-40864033D01*
X82884651Y-40864079D01*
X80415515Y-40864079D01*
X80347394Y-40844077D01*
X80300901Y-40790421D01*
X80289515Y-40738079D01*
X80289515Y-40574445D01*
X80282760Y-40512263D01*
X80231630Y-40375874D01*
X80144276Y-40259318D01*
X80027720Y-40171964D01*
X79891331Y-40120834D01*
X79835455Y-40114764D01*
X79832546Y-40114448D01*
X79829149Y-40114079D01*
X77732881Y-40114079D01*
X77729484Y-40114448D01*
X77726575Y-40114764D01*
X77670699Y-40120834D01*
X77534310Y-40171964D01*
X77417754Y-40259318D01*
X77330400Y-40375874D01*
X77279270Y-40512263D01*
X77272515Y-40574445D01*
X77272515Y-40881581D01*
X77252513Y-40949702D01*
X77211880Y-40989300D01*
X77166115Y-41017070D01*
X77166110Y-41017074D01*
X77161314Y-41019984D01*
X77152937Y-41027382D01*
X77152913Y-41027355D01*
X77149921Y-41030008D01*
X77146688Y-41032711D01*
X77140569Y-41036723D01*
X77111372Y-41067544D01*
X77087293Y-41092962D01*
X77084915Y-41095404D01*
X76184723Y-41995596D01*
X76170311Y-42007982D01*
X76158716Y-42016515D01*
X76158711Y-42016520D01*
X76152816Y-42020858D01*
X76148077Y-42026436D01*
X76148074Y-42026439D01*
X76118599Y-42061134D01*
X76111669Y-42068650D01*
X76105974Y-42074345D01*
X76103694Y-42077227D01*
X76088353Y-42096617D01*
X76085562Y-42100021D01*
X76057796Y-42132704D01*
X76038301Y-42155651D01*
X76034973Y-42162167D01*
X76031606Y-42167216D01*
X76028439Y-42172345D01*
X76023900Y-42178082D01*
X75992979Y-42244241D01*
X75991076Y-42248135D01*
X75957865Y-42313174D01*
X75956126Y-42320282D01*
X75954027Y-42325925D01*
X75952110Y-42331688D01*
X75949012Y-42338316D01*
X75947522Y-42345478D01*
X75947522Y-42345479D01*
X75934148Y-42409778D01*
X75933178Y-42414062D01*
X75915826Y-42484976D01*
X75915134Y-42496130D01*
X75915098Y-42496128D01*
X75914859Y-42500121D01*
X75914485Y-42504313D01*
X75912994Y-42511481D01*
X75913192Y-42518798D01*
X75915088Y-42588887D01*
X75915134Y-42592294D01*
X75915134Y-46001948D01*
X75895132Y-46070069D01*
X75861406Y-46105160D01*
X75829334Y-46127617D01*
X75667436Y-46289515D01*
X75536111Y-46477066D01*
X75533788Y-46482048D01*
X75533785Y-46482053D01*
X75444835Y-46672809D01*
X75439350Y-46684572D01*
X75437928Y-46689880D01*
X75437927Y-46689882D01*
X75400165Y-46830810D01*
X75380091Y-46905728D01*
X75360136Y-47133815D01*
X75380091Y-47361902D01*
X75439350Y-47583058D01*
X75441673Y-47588039D01*
X75441673Y-47588040D01*
X75533785Y-47785577D01*
X75533788Y-47785582D01*
X75536111Y-47790564D01*
X75667436Y-47978115D01*
X75829334Y-48140013D01*
X75833842Y-48143170D01*
X75833845Y-48143172D01*
X75837744Y-48145902D01*
X76016885Y-48271338D01*
X76021867Y-48273661D01*
X76021872Y-48273664D01*
X76213529Y-48363034D01*
X76224391Y-48368099D01*
X76229699Y-48369521D01*
X76229701Y-48369522D01*
X76440232Y-48425934D01*
X76440234Y-48425934D01*
X76445547Y-48427358D01*
X76673634Y-48447313D01*
X76901721Y-48427358D01*
X76907034Y-48425934D01*
X76907036Y-48425934D01*
X77117567Y-48369522D01*
X77117569Y-48369521D01*
X77122877Y-48368099D01*
X77133739Y-48363034D01*
X77325396Y-48273664D01*
X77325401Y-48273661D01*
X77330383Y-48271338D01*
X77509524Y-48145902D01*
X77513423Y-48143172D01*
X77513426Y-48143170D01*
X77517934Y-48140013D01*
X77679832Y-47978115D01*
X77764177Y-47857659D01*
X77793302Y-47816064D01*
X77848759Y-47771736D01*
X77919379Y-47764427D01*
X77982739Y-47796458D01*
X78018724Y-47857659D01*
X78022515Y-47888335D01*
X78022515Y-55674121D01*
X78002513Y-55742242D01*
X77948857Y-55788735D01*
X77878583Y-55798839D01*
X77814003Y-55769345D01*
X77807420Y-55763216D01*
X77262114Y-55217909D01*
X76515952Y-54471747D01*
X76508412Y-54463461D01*
X76504300Y-54456982D01*
X76497728Y-54450810D01*
X76454649Y-54410357D01*
X76451807Y-54407602D01*
X76432070Y-54387865D01*
X76428873Y-54385385D01*
X76419851Y-54377680D01*
X76387621Y-54347414D01*
X76380675Y-54343595D01*
X76380672Y-54343593D01*
X76369866Y-54337652D01*
X76353347Y-54326801D01*
X76352883Y-54326441D01*
X76337341Y-54314386D01*
X76330072Y-54311241D01*
X76330068Y-54311238D01*
X76296763Y-54296826D01*
X76286113Y-54291609D01*
X76247360Y-54270305D01*
X76227737Y-54265267D01*
X76209034Y-54258863D01*
X76197720Y-54253967D01*
X76197719Y-54253967D01*
X76190445Y-54250819D01*
X76182622Y-54249580D01*
X76182612Y-54249577D01*
X76146776Y-54243901D01*
X76135156Y-54241495D01*
X76100011Y-54232472D01*
X76100010Y-54232472D01*
X76092330Y-54230500D01*
X76072076Y-54230500D01*
X76052365Y-54228949D01*
X76040186Y-54227020D01*
X76032357Y-54225780D01*
X76024465Y-54226526D01*
X75988339Y-54229941D01*
X75976481Y-54230500D01*
X74967872Y-54230500D01*
X74899751Y-54210498D01*
X74853258Y-54156842D01*
X74843154Y-54086568D01*
X74853677Y-54051250D01*
X74923012Y-53902562D01*
X74926758Y-53892270D01*
X74972916Y-53720006D01*
X74972580Y-53705910D01*
X74964638Y-53702509D01*
X72023555Y-53702509D01*
X72010024Y-53706482D01*
X72008795Y-53715031D01*
X72056286Y-53892270D01*
X72060032Y-53902562D01*
X72129367Y-54051250D01*
X72140028Y-54121441D01*
X72111048Y-54186254D01*
X72051629Y-54225111D01*
X72015172Y-54230500D01*
X70466169Y-54230500D01*
X70398048Y-54210498D01*
X70351555Y-54156842D01*
X70343518Y-54127606D01*
X70342945Y-54127742D01*
X70341118Y-54120060D01*
X70340265Y-54112204D01*
X70289135Y-53975815D01*
X70201781Y-53859259D01*
X70085225Y-53771905D01*
X69948836Y-53720775D01*
X69886654Y-53714020D01*
X68790386Y-53714020D01*
X68728204Y-53720775D01*
X68720804Y-53723549D01*
X68716578Y-53724554D01*
X68658281Y-53724554D01*
X68640874Y-53720415D01*
X68590006Y-53714889D01*
X68583192Y-53714520D01*
X68310635Y-53714520D01*
X68295396Y-53718995D01*
X68294191Y-53720385D01*
X68292520Y-53728068D01*
X68292520Y-56212404D01*
X68296995Y-56227643D01*
X68298385Y-56228848D01*
X68306068Y-56230519D01*
X68583189Y-56230519D01*
X68590010Y-56230149D01*
X68640869Y-56224625D01*
X68658284Y-56220485D01*
X68716578Y-56220486D01*
X68720804Y-56221491D01*
X68728204Y-56224265D01*
X68790386Y-56231020D01*
X69886654Y-56231020D01*
X69948836Y-56224265D01*
X70085225Y-56173135D01*
X70201781Y-56085781D01*
X70289135Y-55969225D01*
X70340265Y-55832836D01*
X70347020Y-55770654D01*
X70347020Y-55623500D01*
X70367022Y-55555379D01*
X70420678Y-55508886D01*
X70473020Y-55497500D01*
X71904222Y-55497500D01*
X71972343Y-55517502D01*
X72018836Y-55571158D01*
X72028940Y-55641432D01*
X72025929Y-55656111D01*
X72005857Y-55731020D01*
X71997979Y-55760422D01*
X71978024Y-55988509D01*
X71997979Y-56216596D01*
X71999403Y-56221909D01*
X71999403Y-56221911D01*
X72054388Y-56427114D01*
X72057238Y-56437752D01*
X72059561Y-56442733D01*
X72059561Y-56442734D01*
X72151673Y-56640271D01*
X72151676Y-56640276D01*
X72153999Y-56645258D01*
X72222648Y-56743298D01*
X72246962Y-56778022D01*
X72285324Y-56832809D01*
X72447222Y-56994707D01*
X72451730Y-56997864D01*
X72451733Y-56997866D01*
X72465829Y-57007736D01*
X72634773Y-57126032D01*
X72639755Y-57128355D01*
X72639760Y-57128358D01*
X72791846Y-57199276D01*
X72842279Y-57222793D01*
X72847587Y-57224215D01*
X72847589Y-57224216D01*
X73058120Y-57280628D01*
X73058122Y-57280628D01*
X73063435Y-57282052D01*
X73163002Y-57290763D01*
X73231671Y-57296771D01*
X73231678Y-57296771D01*
X73234395Y-57297009D01*
X73748649Y-57297009D01*
X73751366Y-57296771D01*
X73751373Y-57296771D01*
X73820042Y-57290763D01*
X73919609Y-57282052D01*
X73924922Y-57280628D01*
X73924924Y-57280628D01*
X74135455Y-57224216D01*
X74135457Y-57224215D01*
X74140765Y-57222793D01*
X74191198Y-57199276D01*
X74343284Y-57128358D01*
X74343289Y-57128355D01*
X74348271Y-57126032D01*
X74517215Y-57007736D01*
X74531311Y-56997866D01*
X74531314Y-56997864D01*
X74535822Y-56994707D01*
X74697720Y-56832809D01*
X74736083Y-56778022D01*
X74760396Y-56743298D01*
X74829045Y-56645258D01*
X74831368Y-56640276D01*
X74831371Y-56640271D01*
X74923483Y-56442734D01*
X74923483Y-56442733D01*
X74925806Y-56437752D01*
X74928657Y-56427114D01*
X74983641Y-56221911D01*
X74983641Y-56221909D01*
X74985065Y-56216596D01*
X75005020Y-55988509D01*
X74985065Y-55760422D01*
X74977187Y-55731020D01*
X74957115Y-55656111D01*
X74958805Y-55585135D01*
X74998599Y-55526339D01*
X75063863Y-55498391D01*
X75078822Y-55497500D01*
X75697706Y-55497500D01*
X75765827Y-55517502D01*
X75786801Y-55534405D01*
X76156848Y-55904452D01*
X76190874Y-55966764D01*
X76185809Y-56037579D01*
X76143262Y-56094415D01*
X76121004Y-56107741D01*
X76095380Y-56119689D01*
X76021876Y-56153964D01*
X76021870Y-56153968D01*
X76016885Y-56156292D01*
X75923172Y-56221911D01*
X75833845Y-56284458D01*
X75833842Y-56284460D01*
X75829334Y-56287617D01*
X75667436Y-56449515D01*
X75664279Y-56454023D01*
X75664277Y-56454026D01*
X75621096Y-56515695D01*
X75536111Y-56637066D01*
X75533788Y-56642048D01*
X75533785Y-56642053D01*
X75446346Y-56829569D01*
X75439350Y-56844572D01*
X75437928Y-56849880D01*
X75437927Y-56849882D01*
X75381515Y-57060413D01*
X75380091Y-57065728D01*
X75360136Y-57293815D01*
X75380091Y-57521902D01*
X75381515Y-57527215D01*
X75381515Y-57527217D01*
X75433643Y-57721758D01*
X75439350Y-57743058D01*
X75441673Y-57748039D01*
X75441673Y-57748040D01*
X75533785Y-57945577D01*
X75533788Y-57945582D01*
X75536111Y-57950564D01*
X75667436Y-58138115D01*
X75829334Y-58300013D01*
X75833842Y-58303170D01*
X75833845Y-58303172D01*
X75872271Y-58330078D01*
X76016885Y-58431338D01*
X76021867Y-58433661D01*
X76021872Y-58433664D01*
X76145779Y-58491442D01*
X76224391Y-58528099D01*
X76229699Y-58529521D01*
X76229701Y-58529522D01*
X76440232Y-58585934D01*
X76440234Y-58585934D01*
X76445547Y-58587358D01*
X76673634Y-58607313D01*
X76901721Y-58587358D01*
X76907034Y-58585934D01*
X76907036Y-58585934D01*
X77117567Y-58529522D01*
X77117569Y-58529521D01*
X77122877Y-58528099D01*
X77201489Y-58491442D01*
X77325396Y-58433664D01*
X77325401Y-58433661D01*
X77330383Y-58431338D01*
X77474997Y-58330078D01*
X77513423Y-58303172D01*
X77513426Y-58303170D01*
X77517934Y-58300013D01*
X77679832Y-58138115D01*
X77761657Y-58021257D01*
X77817114Y-57976929D01*
X77887733Y-57969620D01*
X77953965Y-58004433D01*
X78602892Y-58653360D01*
X78636918Y-58715672D01*
X78631853Y-58786487D01*
X78595628Y-58838265D01*
X78488102Y-58930102D01*
X78323672Y-59122624D01*
X78191384Y-59338498D01*
X78189491Y-59343068D01*
X78189489Y-59343072D01*
X78129104Y-59488855D01*
X78094495Y-59572409D01*
X78075963Y-59649600D01*
X78061529Y-59709725D01*
X78035391Y-59818597D01*
X78015526Y-60071000D01*
X78035391Y-60323403D01*
X78036545Y-60328210D01*
X78036546Y-60328216D01*
X78073071Y-60480354D01*
X78094495Y-60569591D01*
X78096388Y-60574162D01*
X78096389Y-60574164D01*
X78174867Y-60763626D01*
X78191384Y-60803502D01*
X78323672Y-61019376D01*
X78488102Y-61211898D01*
X78491858Y-61215106D01*
X78597295Y-61305158D01*
X78636104Y-61364609D01*
X78636610Y-61435603D01*
X78598654Y-61495602D01*
X78534285Y-61525555D01*
X78515464Y-61526969D01*
X78472403Y-61526969D01*
X78410221Y-61533724D01*
X78273832Y-61584854D01*
X78157276Y-61672208D01*
X78094938Y-61755386D01*
X78094854Y-61755498D01*
X78037995Y-61798013D01*
X77967177Y-61803039D01*
X77904933Y-61769028D01*
X77828172Y-61692267D01*
X77820632Y-61683981D01*
X77816520Y-61677502D01*
X77766868Y-61630876D01*
X77764027Y-61628122D01*
X77744290Y-61608385D01*
X77741093Y-61605905D01*
X77732071Y-61598200D01*
X77731178Y-61597361D01*
X77699841Y-61567934D01*
X77692895Y-61564115D01*
X77692892Y-61564113D01*
X77682086Y-61558172D01*
X77665567Y-61547321D01*
X77661459Y-61544135D01*
X77649561Y-61534906D01*
X77642292Y-61531761D01*
X77642288Y-61531758D01*
X77608983Y-61517346D01*
X77598333Y-61512129D01*
X77559580Y-61490825D01*
X77539957Y-61485787D01*
X77521254Y-61479383D01*
X77509940Y-61474487D01*
X77509939Y-61474487D01*
X77502665Y-61471339D01*
X77494842Y-61470100D01*
X77494832Y-61470097D01*
X77458996Y-61464421D01*
X77447376Y-61462015D01*
X77412231Y-61452992D01*
X77412230Y-61452992D01*
X77404550Y-61451020D01*
X77384296Y-61451020D01*
X77364585Y-61449469D01*
X77352406Y-61447540D01*
X77344577Y-61446300D01*
X77336685Y-61447046D01*
X77300559Y-61450461D01*
X77288701Y-61451020D01*
X76466826Y-61451020D01*
X76398705Y-61431018D01*
X76352212Y-61377362D01*
X76342108Y-61307088D01*
X76351620Y-61275163D01*
X76353115Y-61272738D01*
X76355418Y-61265795D01*
X76406632Y-61111389D01*
X76406632Y-61111387D01*
X76408797Y-61104861D01*
X76419500Y-61000400D01*
X76419500Y-59649600D01*
X76418137Y-59636466D01*
X76409238Y-59550692D01*
X76409237Y-59550688D01*
X76408526Y-59543834D01*
X76404749Y-59532511D01*
X76354868Y-59383002D01*
X76352550Y-59376054D01*
X76259478Y-59225652D01*
X76134303Y-59100695D01*
X76128072Y-59096854D01*
X75989968Y-59011725D01*
X75989966Y-59011724D01*
X75983738Y-59007885D01*
X75875005Y-58971820D01*
X75822389Y-58954368D01*
X75822387Y-58954368D01*
X75815861Y-58952203D01*
X75809025Y-58951503D01*
X75809022Y-58951502D01*
X75765969Y-58947091D01*
X75711400Y-58941500D01*
X74910600Y-58941500D01*
X74907354Y-58941837D01*
X74907350Y-58941837D01*
X74811692Y-58951762D01*
X74811688Y-58951763D01*
X74804834Y-58952474D01*
X74798298Y-58954655D01*
X74798296Y-58954655D01*
X74734117Y-58976067D01*
X74637054Y-59008450D01*
X74486652Y-59101522D01*
X74361695Y-59226697D01*
X74357855Y-59232927D01*
X74357854Y-59232928D01*
X74348695Y-59247787D01*
X74330314Y-59277607D01*
X74329926Y-59278236D01*
X74277154Y-59325729D01*
X74207082Y-59337153D01*
X74141958Y-59308879D01*
X74123582Y-59289955D01*
X74117396Y-59282080D01*
X74112865Y-59278148D01*
X74112862Y-59278145D01*
X73962167Y-59147379D01*
X73957637Y-59143448D01*
X73952451Y-59140448D01*
X73952447Y-59140445D01*
X73779742Y-59040533D01*
X73774546Y-59037527D01*
X73574729Y-58968139D01*
X73568794Y-58967278D01*
X73568792Y-58967278D01*
X73371336Y-58938648D01*
X73371333Y-58938648D01*
X73365396Y-58937787D01*
X73154101Y-58947567D01*
X73041466Y-58974712D01*
X72954299Y-58995719D01*
X72954297Y-58995720D01*
X72948466Y-58997125D01*
X72943008Y-58999607D01*
X72943004Y-58999608D01*
X72851990Y-59040990D01*
X72755913Y-59084674D01*
X72583389Y-59207054D01*
X72437119Y-59359850D01*
X72433868Y-59364885D01*
X72433866Y-59364888D01*
X72416254Y-59392163D01*
X72362499Y-59438540D01*
X72292203Y-59448493D01*
X72227686Y-59418861D01*
X72211317Y-59401647D01*
X72204193Y-59392577D01*
X72117396Y-59282080D01*
X72112865Y-59278148D01*
X72112862Y-59278145D01*
X71962167Y-59147379D01*
X71957637Y-59143448D01*
X71952451Y-59140448D01*
X71952447Y-59140445D01*
X71779742Y-59040533D01*
X71774546Y-59037527D01*
X71574729Y-58968139D01*
X71568794Y-58967278D01*
X71568792Y-58967278D01*
X71371336Y-58938648D01*
X71371333Y-58938648D01*
X71365396Y-58937787D01*
X71154101Y-58947567D01*
X71041466Y-58974712D01*
X70954299Y-58995719D01*
X70954297Y-58995720D01*
X70948466Y-58997125D01*
X70943008Y-58999607D01*
X70943004Y-58999608D01*
X70851990Y-59040990D01*
X70755913Y-59084674D01*
X70583389Y-59207054D01*
X70437119Y-59359850D01*
X70433870Y-59364881D01*
X70433865Y-59364888D01*
X70415967Y-59392607D01*
X70362211Y-59438984D01*
X70291915Y-59448937D01*
X70227398Y-59419304D01*
X70211030Y-59402091D01*
X70120738Y-59287143D01*
X70112501Y-59278494D01*
X69961877Y-59147788D01*
X69952153Y-59140853D01*
X69779533Y-59040990D01*
X69768669Y-59036016D01*
X69580273Y-58970593D01*
X69579284Y-58970352D01*
X69568992Y-58971820D01*
X69565000Y-58985385D01*
X69565000Y-61660402D01*
X69568973Y-61673933D01*
X69578399Y-61675288D01*
X69667537Y-61653806D01*
X69678832Y-61649917D01*
X69860382Y-61567371D01*
X69870724Y-61561424D01*
X70033397Y-61446032D01*
X70042425Y-61438239D01*
X70180342Y-61294169D01*
X70187741Y-61284800D01*
X70205418Y-61257423D01*
X70259172Y-61211045D01*
X70329468Y-61201091D01*
X70393985Y-61230722D01*
X70410356Y-61247937D01*
X70504604Y-61367920D01*
X70509135Y-61371852D01*
X70509138Y-61371855D01*
X70637592Y-61483321D01*
X70664363Y-61506552D01*
X70669549Y-61509552D01*
X70669553Y-61509555D01*
X70799713Y-61584854D01*
X70847454Y-61612473D01*
X71047271Y-61681861D01*
X71053206Y-61682722D01*
X71053208Y-61682722D01*
X71250664Y-61711352D01*
X71250667Y-61711352D01*
X71256604Y-61712213D01*
X71467899Y-61702433D01*
X71615642Y-61666827D01*
X71667701Y-61654281D01*
X71667703Y-61654280D01*
X71673534Y-61652875D01*
X71678992Y-61650393D01*
X71678996Y-61650392D01*
X71811982Y-61589926D01*
X71866087Y-61565326D01*
X72038611Y-61442946D01*
X72184881Y-61290150D01*
X72196124Y-61272738D01*
X72205746Y-61257837D01*
X72259501Y-61211460D01*
X72329797Y-61201507D01*
X72394314Y-61231139D01*
X72410681Y-61248351D01*
X72504604Y-61367920D01*
X72509135Y-61371852D01*
X72509138Y-61371855D01*
X72637592Y-61483321D01*
X72664363Y-61506552D01*
X72669549Y-61509552D01*
X72669553Y-61509555D01*
X72799713Y-61584854D01*
X72847454Y-61612473D01*
X73047271Y-61681861D01*
X73053206Y-61682722D01*
X73053208Y-61682722D01*
X73221856Y-61707175D01*
X73286402Y-61736745D01*
X73292871Y-61742776D01*
X74026868Y-62476773D01*
X74034408Y-62485059D01*
X74038520Y-62491538D01*
X74044297Y-62496963D01*
X74088171Y-62538163D01*
X74091013Y-62540918D01*
X74110750Y-62560655D01*
X74113947Y-62563135D01*
X74122967Y-62570838D01*
X74155199Y-62601106D01*
X74162145Y-62604925D01*
X74162148Y-62604927D01*
X74172954Y-62610868D01*
X74189473Y-62621719D01*
X74205479Y-62634134D01*
X74212748Y-62637279D01*
X74212752Y-62637282D01*
X74246057Y-62651694D01*
X74256707Y-62656911D01*
X74295460Y-62678215D01*
X74303135Y-62680186D01*
X74303136Y-62680186D01*
X74315082Y-62683253D01*
X74333787Y-62689657D01*
X74352375Y-62697701D01*
X74360198Y-62698940D01*
X74360208Y-62698943D01*
X74396044Y-62704619D01*
X74407664Y-62707025D01*
X74442809Y-62716048D01*
X74450490Y-62718020D01*
X74470744Y-62718020D01*
X74490454Y-62719571D01*
X74510463Y-62722740D01*
X74518355Y-62721994D01*
X74554481Y-62718579D01*
X74566339Y-62718020D01*
X77009926Y-62718020D01*
X77078047Y-62738022D01*
X77099021Y-62754925D01*
X77597323Y-63253227D01*
X77604867Y-63261517D01*
X77608980Y-63267998D01*
X77614757Y-63273423D01*
X77658647Y-63314638D01*
X77661489Y-63317393D01*
X77681210Y-63337114D01*
X77684405Y-63339592D01*
X77693427Y-63347298D01*
X77725659Y-63377566D01*
X77732608Y-63381386D01*
X77743412Y-63387326D01*
X77759936Y-63398179D01*
X77775939Y-63410593D01*
X77816523Y-63428156D01*
X77827153Y-63433363D01*
X77865920Y-63454675D01*
X77873597Y-63456646D01*
X77873602Y-63456648D01*
X77885538Y-63459712D01*
X77904246Y-63466117D01*
X77910892Y-63468992D01*
X77915567Y-63471016D01*
X77915569Y-63471016D01*
X77922835Y-63474161D01*
X77923796Y-63474313D01*
X77981027Y-63510864D01*
X78010703Y-63575360D01*
X78012037Y-63593646D01*
X78012037Y-63628000D01*
X77992035Y-63696121D01*
X77938379Y-63742614D01*
X77886037Y-63754000D01*
X49529000Y-63754000D01*
X49460879Y-63733998D01*
X49414386Y-63680342D01*
X49403000Y-63628000D01*
X49403000Y-62919683D01*
X49423002Y-62851562D01*
X49476658Y-62805069D01*
X49546932Y-62794965D01*
X49594835Y-62812250D01*
X49737278Y-62899539D01*
X49741498Y-62902125D01*
X49746068Y-62904018D01*
X49746072Y-62904020D01*
X49970836Y-62997120D01*
X49975409Y-62999014D01*
X50060032Y-63019330D01*
X50216784Y-63056963D01*
X50216790Y-63056964D01*
X50221597Y-63058118D01*
X50474000Y-63077983D01*
X50726403Y-63058118D01*
X50731210Y-63056964D01*
X50731216Y-63056963D01*
X50887968Y-63019330D01*
X50972591Y-62999014D01*
X50977164Y-62997120D01*
X51201928Y-62904020D01*
X51201932Y-62904018D01*
X51206502Y-62902125D01*
X51422376Y-62769837D01*
X51614898Y-62605407D01*
X51769383Y-62424529D01*
X51828834Y-62385720D01*
X51899828Y-62385214D01*
X51935466Y-62401776D01*
X51965262Y-62421799D01*
X52170967Y-62512097D01*
X52176418Y-62513406D01*
X52176422Y-62513407D01*
X52383321Y-62563079D01*
X52389411Y-62564541D01*
X52473475Y-62569388D01*
X52608083Y-62577149D01*
X52608086Y-62577149D01*
X52613690Y-62577472D01*
X52836715Y-62550484D01*
X53051435Y-62484427D01*
X53056415Y-62481857D01*
X53056419Y-62481855D01*
X53246081Y-62383963D01*
X53246082Y-62383963D01*
X53251064Y-62381391D01*
X53256065Y-62377554D01*
X53317127Y-62330699D01*
X53429292Y-62244632D01*
X53433058Y-62240493D01*
X53433068Y-62240484D01*
X53480818Y-62188007D01*
X53541458Y-62151085D01*
X53612434Y-62152808D01*
X53661696Y-62182323D01*
X53775082Y-62292202D01*
X53783779Y-62299244D01*
X53960844Y-62418228D01*
X53970642Y-62423614D01*
X54165990Y-62509366D01*
X54176582Y-62512931D01*
X54302384Y-62543133D01*
X54316470Y-62542428D01*
X54320000Y-62533549D01*
X54320000Y-62532920D01*
X54828000Y-62532920D01*
X54832105Y-62546902D01*
X54841728Y-62548395D01*
X54841973Y-62548343D01*
X55045883Y-62485611D01*
X55056229Y-62481390D01*
X55245814Y-62383538D01*
X55255243Y-62377554D01*
X55260715Y-62373355D01*
X55326936Y-62347756D01*
X55396485Y-62362022D01*
X55438242Y-62397752D01*
X55460739Y-62427770D01*
X55577295Y-62515124D01*
X55713684Y-62566254D01*
X55775866Y-62573009D01*
X57372134Y-62573009D01*
X57375529Y-62572640D01*
X57375533Y-62572640D01*
X57428586Y-62566877D01*
X57498469Y-62579406D01*
X57530760Y-62602664D01*
X57533102Y-62605407D01*
X57725624Y-62769837D01*
X57941498Y-62902125D01*
X57946068Y-62904018D01*
X57946072Y-62904020D01*
X58170836Y-62997120D01*
X58175409Y-62999014D01*
X58260032Y-63019330D01*
X58416784Y-63056963D01*
X58416790Y-63056964D01*
X58421597Y-63058118D01*
X58674000Y-63077983D01*
X58926403Y-63058118D01*
X58931210Y-63056964D01*
X58931216Y-63056963D01*
X59087968Y-63019330D01*
X59172591Y-62999014D01*
X59177164Y-62997120D01*
X59401928Y-62904020D01*
X59401932Y-62904018D01*
X59406502Y-62902125D01*
X59622376Y-62769837D01*
X59814898Y-62605407D01*
X59979328Y-62412885D01*
X60111616Y-62197011D01*
X60113932Y-62191421D01*
X60206611Y-61967673D01*
X60206612Y-61967671D01*
X60208505Y-61963100D01*
X60239978Y-61832003D01*
X60266454Y-61721725D01*
X60266455Y-61721719D01*
X60267609Y-61716912D01*
X60277603Y-61589926D01*
X60282307Y-61530164D01*
X60282307Y-61530157D01*
X60282500Y-61527708D01*
X60282500Y-60101310D01*
X60281419Y-60087567D01*
X60270256Y-59945742D01*
X60267609Y-59912106D01*
X60265592Y-59903701D01*
X60209660Y-59670730D01*
X60208505Y-59665918D01*
X60171766Y-59577221D01*
X60113511Y-59436581D01*
X60113509Y-59436577D01*
X60111616Y-59432007D01*
X59979328Y-59216133D01*
X59814898Y-59023611D01*
X59622376Y-58859181D01*
X59406502Y-58726893D01*
X59401932Y-58725000D01*
X59401928Y-58724998D01*
X59177164Y-58631898D01*
X59177162Y-58631897D01*
X59172591Y-58630004D01*
X59076080Y-58606834D01*
X58931216Y-58572055D01*
X58931210Y-58572054D01*
X58926403Y-58570900D01*
X58674000Y-58551035D01*
X58421597Y-58570900D01*
X58416790Y-58572054D01*
X58416784Y-58572055D01*
X58271920Y-58606834D01*
X58175409Y-58630004D01*
X58170838Y-58631897D01*
X58170836Y-58631898D01*
X57946072Y-58724998D01*
X57946068Y-58725000D01*
X57941498Y-58726893D01*
X57725624Y-58859181D01*
X57533102Y-59023611D01*
X57530907Y-59026181D01*
X57468976Y-59059999D01*
X57428586Y-59062141D01*
X57375533Y-59056378D01*
X57375529Y-59056378D01*
X57372134Y-59056009D01*
X55775866Y-59056009D01*
X55713684Y-59062764D01*
X55577295Y-59113894D01*
X55460739Y-59201248D01*
X55436119Y-59234098D01*
X55379262Y-59276611D01*
X55308444Y-59281637D01*
X55265019Y-59263113D01*
X55187148Y-59210786D01*
X55177358Y-59205404D01*
X54982010Y-59119652D01*
X54971418Y-59116087D01*
X54845616Y-59085885D01*
X54831530Y-59086590D01*
X54828000Y-59095469D01*
X54828000Y-62532920D01*
X54320000Y-62532920D01*
X54320000Y-59096098D01*
X54315895Y-59082116D01*
X54306272Y-59080623D01*
X54306027Y-59080675D01*
X54102117Y-59143407D01*
X54091771Y-59147628D01*
X53902186Y-59245480D01*
X53892755Y-59251466D01*
X53723499Y-59381341D01*
X53715270Y-59388907D01*
X53667880Y-59440988D01*
X53607239Y-59477911D01*
X53536264Y-59476188D01*
X53487001Y-59446673D01*
X53373229Y-59336420D01*
X53373226Y-59336418D01*
X53369201Y-59332517D01*
X53182738Y-59207219D01*
X52977033Y-59116921D01*
X52971582Y-59115612D01*
X52971578Y-59115611D01*
X52764046Y-59065787D01*
X52764045Y-59065787D01*
X52758589Y-59064477D01*
X52674525Y-59059630D01*
X52539917Y-59051869D01*
X52539914Y-59051869D01*
X52534310Y-59051546D01*
X52311285Y-59078534D01*
X52096565Y-59144591D01*
X52091585Y-59147161D01*
X52091581Y-59147163D01*
X51963734Y-59213150D01*
X51927446Y-59231880D01*
X51922722Y-59234318D01*
X51853015Y-59247787D01*
X51787091Y-59221432D01*
X51769121Y-59204182D01*
X51618111Y-59027372D01*
X51618106Y-59027367D01*
X51614898Y-59023611D01*
X51422376Y-58859181D01*
X51206502Y-58726893D01*
X51201932Y-58725000D01*
X51201928Y-58724998D01*
X50977164Y-58631898D01*
X50977162Y-58631897D01*
X50972591Y-58630004D01*
X50876080Y-58606834D01*
X50731216Y-58572055D01*
X50731210Y-58572054D01*
X50726403Y-58570900D01*
X50474000Y-58551035D01*
X50221597Y-58570900D01*
X50216790Y-58572054D01*
X50216784Y-58572055D01*
X50071920Y-58606834D01*
X49975409Y-58630004D01*
X49970838Y-58631897D01*
X49970836Y-58631898D01*
X49746072Y-58724998D01*
X49746068Y-58725000D01*
X49741498Y-58726893D01*
X49737278Y-58729479D01*
X49594835Y-58816768D01*
X49526301Y-58835306D01*
X49458624Y-58813850D01*
X49413292Y-58759210D01*
X49403000Y-58709335D01*
X49403000Y-57107757D01*
X49423002Y-57039636D01*
X49476658Y-56993143D01*
X49546932Y-56983039D01*
X49601270Y-57004544D01*
X49774773Y-57126032D01*
X49779755Y-57128355D01*
X49779760Y-57128358D01*
X49931846Y-57199276D01*
X49982279Y-57222793D01*
X49987587Y-57224215D01*
X49987589Y-57224216D01*
X50198120Y-57280628D01*
X50198122Y-57280628D01*
X50203435Y-57282052D01*
X50303002Y-57290763D01*
X50371671Y-57296771D01*
X50371678Y-57296771D01*
X50374395Y-57297009D01*
X50888649Y-57297009D01*
X50891366Y-57296771D01*
X50891373Y-57296771D01*
X50960042Y-57290763D01*
X51059609Y-57282052D01*
X51064922Y-57280628D01*
X51064924Y-57280628D01*
X51275455Y-57224216D01*
X51275457Y-57224215D01*
X51280765Y-57222793D01*
X51331198Y-57199276D01*
X51483284Y-57128358D01*
X51483289Y-57128355D01*
X51488271Y-57126032D01*
X51657215Y-57007736D01*
X51671311Y-56997866D01*
X51671314Y-56997864D01*
X51675822Y-56994707D01*
X51837720Y-56832809D01*
X51860169Y-56800749D01*
X51915627Y-56756420D01*
X51963382Y-56747020D01*
X58969450Y-56747020D01*
X58988400Y-56748453D01*
X59002635Y-56750619D01*
X59002639Y-56750619D01*
X59009869Y-56751719D01*
X59017161Y-56751126D01*
X59017164Y-56751126D01*
X59062538Y-56747435D01*
X59072753Y-56747020D01*
X59080813Y-56747020D01*
X59094103Y-56745471D01*
X59109027Y-56743731D01*
X59113402Y-56743298D01*
X59178859Y-56737974D01*
X59178862Y-56737973D01*
X59186157Y-56737380D01*
X59193121Y-56735124D01*
X59199080Y-56733933D01*
X59204935Y-56732549D01*
X59212201Y-56731702D01*
X59280847Y-56706785D01*
X59284975Y-56705368D01*
X59347456Y-56685127D01*
X59347458Y-56685126D01*
X59354419Y-56682871D01*
X59360674Y-56679075D01*
X59366148Y-56676569D01*
X59371578Y-56673850D01*
X59378457Y-56671353D01*
X59384578Y-56667340D01*
X59439496Y-56631334D01*
X59443200Y-56628997D01*
X59505627Y-56591115D01*
X59514004Y-56583717D01*
X59514028Y-56583744D01*
X59517020Y-56581091D01*
X59520253Y-56578388D01*
X59526372Y-56574376D01*
X59579648Y-56518137D01*
X59582026Y-56515695D01*
X60329796Y-55767925D01*
X60392108Y-55733899D01*
X60418891Y-55731020D01*
X62850027Y-55731020D01*
X62918148Y-55751022D01*
X62964641Y-55804678D01*
X62972063Y-55826283D01*
X62972775Y-55832836D01*
X62975547Y-55840231D01*
X62975548Y-55840234D01*
X63015092Y-55945716D01*
X63023905Y-55969225D01*
X63111259Y-56085781D01*
X63227815Y-56173135D01*
X63364204Y-56224265D01*
X63426386Y-56231020D01*
X64522654Y-56231020D01*
X64584836Y-56224265D01*
X64592235Y-56221491D01*
X64595374Y-56220745D01*
X64653666Y-56220745D01*
X64656805Y-56221491D01*
X64664204Y-56224265D01*
X64726386Y-56231020D01*
X65638058Y-56231020D01*
X65706179Y-56251022D01*
X65752672Y-56304678D01*
X65763368Y-56370190D01*
X65761496Y-56388000D01*
X65762186Y-56394565D01*
X65772192Y-56489763D01*
X65781458Y-56577928D01*
X65840473Y-56759556D01*
X65935960Y-56924944D01*
X65940378Y-56929851D01*
X65940379Y-56929852D01*
X66017948Y-57016001D01*
X66063747Y-57066866D01*
X66145182Y-57126032D01*
X66196960Y-57163651D01*
X66218248Y-57179118D01*
X66224276Y-57181802D01*
X66224278Y-57181803D01*
X66386681Y-57254109D01*
X66392712Y-57256794D01*
X66566881Y-57293815D01*
X66577697Y-57296114D01*
X66640170Y-57329843D01*
X66674492Y-57391992D01*
X66677500Y-57419361D01*
X66677500Y-59075193D01*
X66657498Y-59143314D01*
X66624399Y-59177963D01*
X66588280Y-59203584D01*
X66588276Y-59203587D01*
X66583389Y-59207054D01*
X66437119Y-59359850D01*
X66322380Y-59537548D01*
X66320137Y-59543114D01*
X66272489Y-59661345D01*
X66243314Y-59733737D01*
X66202772Y-59941337D01*
X66202500Y-59946899D01*
X66202500Y-60652846D01*
X66217548Y-60810566D01*
X66277092Y-61013534D01*
X66279836Y-61018861D01*
X66279836Y-61018862D01*
X66344892Y-61145175D01*
X66373942Y-61201580D01*
X66504604Y-61367920D01*
X66509135Y-61371852D01*
X66509138Y-61371855D01*
X66637592Y-61483321D01*
X66664363Y-61506552D01*
X66669549Y-61509552D01*
X66669553Y-61509555D01*
X66799713Y-61584854D01*
X66847454Y-61612473D01*
X67047271Y-61681861D01*
X67053206Y-61682722D01*
X67053208Y-61682722D01*
X67250664Y-61711352D01*
X67250667Y-61711352D01*
X67256604Y-61712213D01*
X67467899Y-61702433D01*
X67615642Y-61666827D01*
X67667701Y-61654281D01*
X67667703Y-61654280D01*
X67673534Y-61652875D01*
X67678992Y-61650393D01*
X67678996Y-61650392D01*
X67811982Y-61589926D01*
X67866087Y-61565326D01*
X68038611Y-61442946D01*
X68184881Y-61290150D01*
X68188130Y-61285119D01*
X68188135Y-61285112D01*
X68206033Y-61257393D01*
X68259789Y-61211016D01*
X68330085Y-61201063D01*
X68394602Y-61230696D01*
X68410970Y-61247909D01*
X68501262Y-61362857D01*
X68509499Y-61371506D01*
X68660123Y-61502212D01*
X68669847Y-61509147D01*
X68842467Y-61609010D01*
X68853331Y-61613984D01*
X69041727Y-61679407D01*
X69042716Y-61679648D01*
X69053008Y-61678180D01*
X69057000Y-61664615D01*
X69057000Y-58989598D01*
X69053027Y-58976067D01*
X69043601Y-58974712D01*
X68954463Y-58996194D01*
X68943168Y-59000083D01*
X68761618Y-59082629D01*
X68751276Y-59088576D01*
X68588603Y-59203968D01*
X68579575Y-59211761D01*
X68441658Y-59355831D01*
X68434259Y-59365200D01*
X68416582Y-59392577D01*
X68362828Y-59438955D01*
X68292532Y-59448909D01*
X68228015Y-59419278D01*
X68211644Y-59402063D01*
X68121102Y-59286798D01*
X68117396Y-59282080D01*
X67987918Y-59169725D01*
X67949579Y-59109973D01*
X67944500Y-59074561D01*
X67944500Y-57102767D01*
X67945027Y-57091584D01*
X67946702Y-57084091D01*
X67944562Y-57016000D01*
X67944500Y-57012043D01*
X67944500Y-56984144D01*
X67943996Y-56980153D01*
X67943063Y-56968311D01*
X67942130Y-56938604D01*
X67941674Y-56924111D01*
X67939462Y-56916497D01*
X67939461Y-56916492D01*
X67936023Y-56904659D01*
X67932012Y-56885295D01*
X67930467Y-56873064D01*
X67929474Y-56865203D01*
X67926557Y-56857836D01*
X67926556Y-56857831D01*
X67913198Y-56824092D01*
X67909354Y-56812865D01*
X67899230Y-56778022D01*
X67897018Y-56770407D01*
X67886707Y-56752972D01*
X67878012Y-56735224D01*
X67870552Y-56716383D01*
X67846205Y-56682871D01*
X67844564Y-56680613D01*
X67838048Y-56670693D01*
X67819580Y-56639465D01*
X67819578Y-56639462D01*
X67815542Y-56632638D01*
X67801221Y-56618317D01*
X67788380Y-56603283D01*
X67781132Y-56593307D01*
X67776472Y-56586893D01*
X67742401Y-56558707D01*
X67733622Y-56550718D01*
X67628519Y-56445615D01*
X67594493Y-56383303D01*
X67599558Y-56312488D01*
X67642105Y-56255652D01*
X67708625Y-56230841D01*
X67717614Y-56230520D01*
X67766405Y-56230520D01*
X67781644Y-56226045D01*
X67782849Y-56224655D01*
X67784520Y-56216972D01*
X67784520Y-55244635D01*
X67780045Y-55229396D01*
X67778655Y-55228191D01*
X67770972Y-55226520D01*
X67048636Y-55226520D01*
X67033397Y-55230995D01*
X67032192Y-55232385D01*
X67030521Y-55240068D01*
X67030521Y-55379175D01*
X67010519Y-55447296D01*
X66956863Y-55493789D01*
X66886589Y-55503893D01*
X66878324Y-55502421D01*
X66776953Y-55480873D01*
X66776940Y-55480872D01*
X66770487Y-55479500D01*
X66579513Y-55479500D01*
X66573061Y-55480872D01*
X66573056Y-55480872D01*
X66435217Y-55510171D01*
X66364426Y-55504769D01*
X66307793Y-55461952D01*
X66283300Y-55395314D01*
X66283020Y-55386924D01*
X66283020Y-54700405D01*
X67030520Y-54700405D01*
X67034995Y-54715644D01*
X67036385Y-54716849D01*
X67044068Y-54718520D01*
X67766405Y-54718520D01*
X67781644Y-54714045D01*
X67782849Y-54712655D01*
X67784520Y-54704972D01*
X67784520Y-53732636D01*
X67780045Y-53717397D01*
X67778655Y-53716192D01*
X67770972Y-53714521D01*
X67493851Y-53714521D01*
X67487030Y-53714891D01*
X67436168Y-53720415D01*
X67420916Y-53724041D01*
X67300466Y-53769196D01*
X67284871Y-53777734D01*
X67182796Y-53854235D01*
X67170235Y-53866796D01*
X67093734Y-53968871D01*
X67085196Y-53984466D01*
X67040042Y-54104914D01*
X67036415Y-54120169D01*
X67030889Y-54171034D01*
X67030520Y-54177848D01*
X67030520Y-54700405D01*
X66283020Y-54700405D01*
X66283020Y-54174386D01*
X66276265Y-54112204D01*
X66225135Y-53975815D01*
X66137781Y-53859259D01*
X66021225Y-53771905D01*
X66012816Y-53768752D01*
X66012813Y-53768751D01*
X65989789Y-53760119D01*
X65933025Y-53717477D01*
X65908326Y-53650915D01*
X65908020Y-53642138D01*
X65908020Y-52478796D01*
X65928022Y-52410675D01*
X65959958Y-52376861D01*
X65992427Y-52353271D01*
X65992432Y-52353267D01*
X65997773Y-52349386D01*
X66029506Y-52314143D01*
X66121141Y-52212372D01*
X66121142Y-52212371D01*
X66125560Y-52207464D01*
X66194447Y-52088148D01*
X66217743Y-52047799D01*
X66217744Y-52047798D01*
X66221047Y-52042076D01*
X66280062Y-51860448D01*
X66284697Y-51816354D01*
X66299334Y-51677085D01*
X66300024Y-51670520D01*
X66292600Y-51599885D01*
X66280752Y-51487155D01*
X66280752Y-51487153D01*
X66280062Y-51480592D01*
X66221047Y-51298964D01*
X66125560Y-51133576D01*
X66092369Y-51096713D01*
X66002195Y-50996565D01*
X66002194Y-50996564D01*
X65997773Y-50991654D01*
X65843272Y-50879402D01*
X65844940Y-50877107D01*
X65804552Y-50834725D01*
X65791135Y-50765008D01*
X65817540Y-50699104D01*
X65875383Y-50657938D01*
X65916561Y-50651020D01*
X67306149Y-50651020D01*
X67374270Y-50671022D01*
X67395244Y-50687925D01*
X68276395Y-51569076D01*
X68307133Y-51619234D01*
X68361993Y-51788076D01*
X68457480Y-51953464D01*
X68461898Y-51958371D01*
X68461899Y-51958372D01*
X68542629Y-52048032D01*
X68585267Y-52095386D01*
X68637177Y-52133101D01*
X68701051Y-52179508D01*
X68739768Y-52207638D01*
X68745796Y-52210322D01*
X68745798Y-52210323D01*
X68908201Y-52282629D01*
X68914232Y-52285314D01*
X69007632Y-52305167D01*
X69094576Y-52323648D01*
X69094581Y-52323648D01*
X69101033Y-52325020D01*
X69292007Y-52325020D01*
X69298459Y-52323648D01*
X69298464Y-52323648D01*
X69385408Y-52305167D01*
X69478808Y-52285314D01*
X69484839Y-52282629D01*
X69647242Y-52210323D01*
X69647244Y-52210322D01*
X69653272Y-52207638D01*
X69691990Y-52179508D01*
X69755863Y-52133101D01*
X69807773Y-52095386D01*
X69850411Y-52048032D01*
X69931141Y-51958372D01*
X69931142Y-51958371D01*
X69935560Y-51953464D01*
X70031047Y-51788076D01*
X70090062Y-51606448D01*
X70090752Y-51599885D01*
X70103582Y-51477815D01*
X70130595Y-51412158D01*
X70188817Y-51371529D01*
X70259762Y-51368826D01*
X70317987Y-51401891D01*
X71479943Y-52563847D01*
X71487487Y-52572137D01*
X71491600Y-52578618D01*
X71497377Y-52584043D01*
X71541267Y-52625258D01*
X71544109Y-52628013D01*
X71563831Y-52647735D01*
X71566955Y-52650158D01*
X71566959Y-52650162D01*
X71567024Y-52650212D01*
X71576045Y-52657917D01*
X71608279Y-52688186D01*
X71615227Y-52692005D01*
X71615229Y-52692007D01*
X71626032Y-52697946D01*
X71642559Y-52708802D01*
X71652298Y-52716357D01*
X71652300Y-52716358D01*
X71658560Y-52721214D01*
X71699140Y-52738774D01*
X71709788Y-52743991D01*
X71724948Y-52752325D01*
X71748540Y-52765295D01*
X71756216Y-52767266D01*
X71756219Y-52767267D01*
X71768162Y-52770333D01*
X71786867Y-52776737D01*
X71805455Y-52784781D01*
X71813278Y-52786020D01*
X71813288Y-52786023D01*
X71849124Y-52791699D01*
X71860744Y-52794105D01*
X71895889Y-52803128D01*
X71903570Y-52805100D01*
X71923824Y-52805100D01*
X71943535Y-52806651D01*
X71963543Y-52809820D01*
X71963219Y-52811863D01*
X72020407Y-52830621D01*
X72065194Y-52885708D01*
X72073090Y-52956264D01*
X72063192Y-52987678D01*
X72060034Y-52994450D01*
X72056286Y-53004748D01*
X72010128Y-53177012D01*
X72010464Y-53191108D01*
X72018406Y-53194509D01*
X74959489Y-53194509D01*
X74973020Y-53190536D01*
X74974249Y-53181987D01*
X74926758Y-53004748D01*
X74923012Y-52994456D01*
X74918300Y-52984352D01*
X74907638Y-52914161D01*
X74936616Y-52849347D01*
X74996035Y-52810490D01*
X75032494Y-52805100D01*
X75808251Y-52805100D01*
X75876372Y-52825102D01*
X75922865Y-52878758D01*
X75928084Y-52892163D01*
X75933830Y-52909848D01*
X75981993Y-53058076D01*
X75985296Y-53063798D01*
X75985297Y-53063799D01*
X76002042Y-53092802D01*
X76077480Y-53223464D01*
X76205267Y-53365386D01*
X76304363Y-53437384D01*
X76319676Y-53448509D01*
X76359768Y-53477638D01*
X76365796Y-53480322D01*
X76365798Y-53480323D01*
X76505251Y-53542411D01*
X76534232Y-53555314D01*
X76627632Y-53575167D01*
X76714576Y-53593648D01*
X76714581Y-53593648D01*
X76721033Y-53595020D01*
X76912007Y-53595020D01*
X76918459Y-53593648D01*
X76918464Y-53593648D01*
X77005407Y-53575167D01*
X77098808Y-53555314D01*
X77127789Y-53542411D01*
X77267242Y-53480323D01*
X77267244Y-53480322D01*
X77273272Y-53477638D01*
X77313365Y-53448509D01*
X77328677Y-53437384D01*
X77427773Y-53365386D01*
X77555560Y-53223464D01*
X77630998Y-53092802D01*
X77647743Y-53063799D01*
X77647744Y-53063798D01*
X77651047Y-53058076D01*
X77710062Y-52876448D01*
X77712911Y-52849347D01*
X77729334Y-52693085D01*
X77730024Y-52686520D01*
X77725948Y-52647735D01*
X77710752Y-52503155D01*
X77710752Y-52503153D01*
X77710062Y-52496592D01*
X77651047Y-52314964D01*
X77647408Y-52308660D01*
X77572841Y-52179508D01*
X77555560Y-52149576D01*
X77546996Y-52140064D01*
X77432195Y-52012565D01*
X77432194Y-52012564D01*
X77427773Y-52007654D01*
X77294479Y-51910810D01*
X77278614Y-51899283D01*
X77278613Y-51899282D01*
X77273272Y-51895402D01*
X77267244Y-51892718D01*
X77267242Y-51892717D01*
X77104839Y-51820411D01*
X77104838Y-51820411D01*
X77098808Y-51817726D01*
X76986241Y-51793799D01*
X76918464Y-51779392D01*
X76918459Y-51779392D01*
X76912007Y-51778020D01*
X76857797Y-51778020D01*
X76789676Y-51758018D01*
X76771545Y-51743871D01*
X76743950Y-51717958D01*
X76741107Y-51715202D01*
X76721370Y-51695465D01*
X76718173Y-51692985D01*
X76709151Y-51685280D01*
X76682700Y-51660441D01*
X76676921Y-51655014D01*
X76669975Y-51651195D01*
X76669972Y-51651193D01*
X76659166Y-51645252D01*
X76642647Y-51634401D01*
X76642183Y-51634041D01*
X76626641Y-51621986D01*
X76619372Y-51618841D01*
X76619368Y-51618838D01*
X76586063Y-51604426D01*
X76575413Y-51599209D01*
X76536660Y-51577905D01*
X76517037Y-51572867D01*
X76498334Y-51566463D01*
X76487020Y-51561567D01*
X76487019Y-51561567D01*
X76479745Y-51558419D01*
X76471922Y-51557180D01*
X76471912Y-51557177D01*
X76436076Y-51551501D01*
X76424456Y-51549095D01*
X76389311Y-51540072D01*
X76389310Y-51540072D01*
X76381630Y-51538100D01*
X76361376Y-51538100D01*
X76341665Y-51536549D01*
X76329486Y-51534620D01*
X76321657Y-51533380D01*
X76313765Y-51534126D01*
X76277639Y-51537541D01*
X76265781Y-51538100D01*
X75039489Y-51538100D01*
X74971368Y-51518098D01*
X74924875Y-51464442D01*
X74914771Y-51394168D01*
X74922498Y-51368234D01*
X74921600Y-51367907D01*
X74923483Y-51362734D01*
X74925806Y-51357752D01*
X74960951Y-51226592D01*
X74983641Y-51141911D01*
X74983641Y-51141909D01*
X74985065Y-51136596D01*
X75005020Y-50908509D01*
X74985065Y-50680422D01*
X74982546Y-50671022D01*
X74927229Y-50464576D01*
X74927228Y-50464574D01*
X74925806Y-50459266D01*
X74865974Y-50330955D01*
X74831371Y-50256747D01*
X74831368Y-50256742D01*
X74829045Y-50251760D01*
X74697720Y-50064209D01*
X74535822Y-49902311D01*
X74531314Y-49899154D01*
X74531311Y-49899152D01*
X74408657Y-49813269D01*
X74348271Y-49770986D01*
X74343289Y-49768663D01*
X74343284Y-49768660D01*
X74309065Y-49752704D01*
X74255780Y-49705787D01*
X74236319Y-49637510D01*
X74256861Y-49569550D01*
X74309065Y-49524314D01*
X74343284Y-49508358D01*
X74343289Y-49508355D01*
X74348271Y-49506032D01*
X74478255Y-49415016D01*
X74531311Y-49377866D01*
X74531314Y-49377864D01*
X74535822Y-49374707D01*
X74697720Y-49212809D01*
X74703559Y-49204471D01*
X74762705Y-49120001D01*
X74829045Y-49025258D01*
X74831368Y-49020276D01*
X74831371Y-49020271D01*
X74923483Y-48822734D01*
X74923483Y-48822733D01*
X74925806Y-48817752D01*
X74985065Y-48596596D01*
X75005020Y-48368509D01*
X74985065Y-48140422D01*
X74983641Y-48135107D01*
X74927229Y-47924576D01*
X74927228Y-47924574D01*
X74925806Y-47919266D01*
X74911383Y-47888335D01*
X74831371Y-47716747D01*
X74831368Y-47716742D01*
X74829045Y-47711760D01*
X74697720Y-47524209D01*
X74535822Y-47362311D01*
X74531314Y-47359154D01*
X74531311Y-47359152D01*
X74374370Y-47249261D01*
X74348271Y-47230986D01*
X74343289Y-47228663D01*
X74343284Y-47228660D01*
X74309065Y-47212704D01*
X74255780Y-47165787D01*
X74236319Y-47097510D01*
X74256861Y-47029550D01*
X74309065Y-46984314D01*
X74343284Y-46968358D01*
X74343289Y-46968355D01*
X74348271Y-46966032D01*
X74471657Y-46879636D01*
X74531311Y-46837866D01*
X74531314Y-46837864D01*
X74535822Y-46834707D01*
X74697720Y-46672809D01*
X74829045Y-46485258D01*
X74831368Y-46480276D01*
X74831371Y-46480271D01*
X74923483Y-46282734D01*
X74923483Y-46282733D01*
X74925806Y-46277752D01*
X74952345Y-46178710D01*
X74983641Y-46061911D01*
X74983641Y-46061909D01*
X74985065Y-46056596D01*
X75005020Y-45828509D01*
X74985065Y-45600422D01*
X74925806Y-45379266D01*
X74923483Y-45374284D01*
X74831371Y-45176747D01*
X74831368Y-45176742D01*
X74829045Y-45171760D01*
X74697720Y-44984209D01*
X74535822Y-44822311D01*
X74531314Y-44819154D01*
X74531311Y-44819152D01*
X74374370Y-44709261D01*
X74348271Y-44690986D01*
X74343289Y-44688663D01*
X74343284Y-44688660D01*
X74309065Y-44672704D01*
X74255780Y-44625787D01*
X74236319Y-44557510D01*
X74256861Y-44489550D01*
X74309065Y-44444314D01*
X74343284Y-44428358D01*
X74343289Y-44428355D01*
X74348271Y-44426032D01*
X74471657Y-44339636D01*
X74531311Y-44297866D01*
X74531314Y-44297864D01*
X74535822Y-44294707D01*
X74697720Y-44132809D01*
X74829045Y-43945258D01*
X74831368Y-43940276D01*
X74831371Y-43940271D01*
X74923483Y-43742734D01*
X74923483Y-43742733D01*
X74925806Y-43737752D01*
X74971260Y-43568119D01*
X74983641Y-43521911D01*
X74983641Y-43521909D01*
X74985065Y-43516596D01*
X75005020Y-43288509D01*
X74985065Y-43060422D01*
X74983641Y-43055107D01*
X74927229Y-42844576D01*
X74927228Y-42844574D01*
X74925806Y-42839266D01*
X74886575Y-42755134D01*
X74831371Y-42636747D01*
X74831368Y-42636742D01*
X74829045Y-42631760D01*
X74749948Y-42518798D01*
X74700879Y-42448720D01*
X74700877Y-42448717D01*
X74697720Y-42444209D01*
X74535822Y-42282311D01*
X74531314Y-42279154D01*
X74531311Y-42279152D01*
X74371965Y-42167577D01*
X74348271Y-42150986D01*
X74343289Y-42148663D01*
X74343284Y-42148660D01*
X74309065Y-42132704D01*
X74255780Y-42085787D01*
X74236319Y-42017510D01*
X74256861Y-41949550D01*
X74309065Y-41904314D01*
X74343284Y-41888358D01*
X74343289Y-41888355D01*
X74348271Y-41886032D01*
X74471657Y-41799636D01*
X74531311Y-41757866D01*
X74531314Y-41757864D01*
X74535822Y-41754707D01*
X74697720Y-41592809D01*
X74829045Y-41405258D01*
X74831368Y-41400276D01*
X74831371Y-41400271D01*
X74923483Y-41202734D01*
X74923483Y-41202733D01*
X74925806Y-41197752D01*
X74942978Y-41133668D01*
X74983641Y-40981911D01*
X74983641Y-40981909D01*
X74985065Y-40976596D01*
X75005020Y-40748509D01*
X74985065Y-40520422D01*
X74944408Y-40368688D01*
X74927229Y-40304576D01*
X74927228Y-40304574D01*
X74925806Y-40299266D01*
X74910526Y-40266498D01*
X74831371Y-40096747D01*
X74831368Y-40096742D01*
X74829045Y-40091760D01*
X74697720Y-39904209D01*
X74535822Y-39742311D01*
X74531314Y-39739154D01*
X74531311Y-39739152D01*
X74430122Y-39668299D01*
X74348271Y-39610986D01*
X74343289Y-39608663D01*
X74343284Y-39608660D01*
X74309065Y-39592704D01*
X74255780Y-39545787D01*
X74236319Y-39477510D01*
X74256861Y-39409550D01*
X74309065Y-39364314D01*
X74343284Y-39348358D01*
X74343289Y-39348355D01*
X74348271Y-39346032D01*
X74471080Y-39260040D01*
X74531311Y-39217866D01*
X74531314Y-39217864D01*
X74535822Y-39214707D01*
X74697720Y-39052809D01*
X74829045Y-38865258D01*
X74831368Y-38860276D01*
X74831371Y-38860271D01*
X74923483Y-38662734D01*
X74923483Y-38662733D01*
X74925806Y-38657752D01*
X74985065Y-38436596D01*
X75005020Y-38208509D01*
X74985065Y-37980422D01*
X74925806Y-37759266D01*
X74923483Y-37754284D01*
X74831371Y-37556747D01*
X74831368Y-37556742D01*
X74829045Y-37551760D01*
X74697720Y-37364209D01*
X74535822Y-37202311D01*
X74531314Y-37199154D01*
X74531311Y-37199152D01*
X74398346Y-37106049D01*
X74348271Y-37070986D01*
X74343283Y-37068660D01*
X74338520Y-37065910D01*
X74339594Y-37064050D01*
X74293285Y-37023270D01*
X74273829Y-36954992D01*
X74294376Y-36887033D01*
X74348402Y-36840971D01*
X74399825Y-36830000D01*
X74794298Y-36830000D01*
X74795069Y-36830002D01*
X74872652Y-36830476D01*
X74881281Y-36828010D01*
X74881286Y-36828009D01*
X74901048Y-36822361D01*
X74917809Y-36818783D01*
X74938152Y-36815870D01*
X74938162Y-36815867D01*
X74947045Y-36814595D01*
X74970395Y-36803979D01*
X74987907Y-36797536D01*
X75003937Y-36792954D01*
X75012565Y-36790488D01*
X75037548Y-36774726D01*
X75052614Y-36766596D01*
X75079510Y-36754367D01*
X75098939Y-36737626D01*
X75113947Y-36726521D01*
X75128039Y-36717630D01*
X75135631Y-36712840D01*
X75155182Y-36690703D01*
X75167374Y-36678659D01*
X75182949Y-36665239D01*
X75182950Y-36665237D01*
X75189747Y-36659381D01*
X75194626Y-36651853D01*
X75194629Y-36651850D01*
X75203696Y-36637861D01*
X75214986Y-36622987D01*
X75226012Y-36610502D01*
X75231956Y-36603772D01*
X75244510Y-36577034D01*
X75252824Y-36562065D01*
X75268893Y-36537273D01*
X75276239Y-36512709D01*
X75282901Y-36495264D01*
X75289983Y-36480179D01*
X75293799Y-36472052D01*
X75298343Y-36442870D01*
X75302126Y-36426151D01*
X75308014Y-36406464D01*
X75308015Y-36406461D01*
X75310587Y-36397859D01*
X75310797Y-36363444D01*
X75310830Y-36362672D01*
X75311000Y-36361577D01*
X75311000Y-36330702D01*
X75311002Y-36329932D01*
X75311452Y-36256284D01*
X75311452Y-36256283D01*
X75311476Y-36252348D01*
X75311092Y-36251004D01*
X75311000Y-36249659D01*
X75311000Y-29590000D01*
X75331002Y-29521879D01*
X75384658Y-29475386D01*
X75437000Y-29464000D01*
X77152557Y-29464000D01*
X77220678Y-29484002D01*
G37*
%TD.AperFunction*%
%TA.AperFunction,Conductor*%
G36*
X84989007Y-58928022D02*
G01*
X85009981Y-58944925D01*
X87210231Y-61145175D01*
X87304960Y-61218654D01*
X87305827Y-61219029D01*
X87325267Y-61234109D01*
X87460016Y-61368858D01*
X87494042Y-61431170D01*
X87488977Y-61501985D01*
X87446430Y-61558821D01*
X87379910Y-61583632D01*
X87338310Y-61579660D01*
X87203884Y-61543641D01*
X87203882Y-61543641D01*
X87198569Y-61542217D01*
X86966037Y-61521873D01*
X86733505Y-61542217D01*
X86728192Y-61543641D01*
X86728190Y-61543641D01*
X86513349Y-61601207D01*
X86513347Y-61601208D01*
X86508039Y-61602630D01*
X86503059Y-61604952D01*
X86503057Y-61604953D01*
X86301476Y-61698952D01*
X86301471Y-61698955D01*
X86296489Y-61701278D01*
X86291982Y-61704434D01*
X86291980Y-61704435D01*
X86109794Y-61832003D01*
X86109791Y-61832005D01*
X86105283Y-61835162D01*
X85940230Y-62000215D01*
X85806346Y-62191421D01*
X85804763Y-62194816D01*
X85753771Y-62243435D01*
X85684057Y-62256869D01*
X85618147Y-62230481D01*
X85587390Y-62194986D01*
X85585728Y-62191421D01*
X85451844Y-62000215D01*
X85286791Y-61835162D01*
X85282283Y-61832005D01*
X85282280Y-61832003D01*
X85100094Y-61704435D01*
X85100092Y-61704434D01*
X85095585Y-61701278D01*
X85090603Y-61698955D01*
X85090598Y-61698952D01*
X84889017Y-61604953D01*
X84889015Y-61604952D01*
X84884035Y-61602630D01*
X84878727Y-61601208D01*
X84878725Y-61601207D01*
X84663884Y-61543641D01*
X84663882Y-61543641D01*
X84658569Y-61542217D01*
X84426037Y-61521873D01*
X84193505Y-61542217D01*
X84188192Y-61543641D01*
X84188190Y-61543641D01*
X83973349Y-61601207D01*
X83973347Y-61601208D01*
X83968039Y-61602630D01*
X83963059Y-61604952D01*
X83963057Y-61604953D01*
X83761476Y-61698952D01*
X83761471Y-61698955D01*
X83756489Y-61701278D01*
X83751982Y-61704434D01*
X83751980Y-61704435D01*
X83569794Y-61832003D01*
X83569791Y-61832005D01*
X83565283Y-61835162D01*
X83400230Y-62000215D01*
X83266346Y-62191421D01*
X83264574Y-62195222D01*
X83213484Y-62243936D01*
X83143770Y-62257372D01*
X83077859Y-62230986D01*
X83046629Y-62194946D01*
X83042132Y-62187158D01*
X83001838Y-62129611D01*
X82991360Y-62121236D01*
X82977912Y-62128304D01*
X81975132Y-63131084D01*
X81912820Y-63165110D01*
X81842005Y-63160045D01*
X81796942Y-63131084D01*
X80793440Y-62127582D01*
X80748214Y-62102886D01*
X80745630Y-62102323D01*
X80695438Y-62052111D01*
X80680644Y-61994126D01*
X80680221Y-61994149D01*
X80680105Y-61992015D01*
X80680037Y-61991747D01*
X80680037Y-61987335D01*
X80673282Y-61925153D01*
X80622152Y-61788764D01*
X80597331Y-61755646D01*
X81146304Y-61755646D01*
X81153372Y-61769094D01*
X81873225Y-62488947D01*
X81887169Y-62496561D01*
X81889002Y-62496430D01*
X81895617Y-62492179D01*
X82619424Y-61768372D01*
X82625854Y-61756598D01*
X82616557Y-61744582D01*
X82559839Y-61704868D01*
X82550353Y-61699390D01*
X82348845Y-61605425D01*
X82338553Y-61601679D01*
X82123796Y-61544135D01*
X82113001Y-61542232D01*
X81891512Y-61522854D01*
X81880562Y-61522854D01*
X81659073Y-61542232D01*
X81648278Y-61544135D01*
X81433521Y-61601679D01*
X81423229Y-61605425D01*
X81221721Y-61699390D01*
X81212235Y-61704868D01*
X81154679Y-61745168D01*
X81146304Y-61755646D01*
X80597331Y-61755646D01*
X80534798Y-61672208D01*
X80485254Y-61635076D01*
X80442739Y-61578218D01*
X80437713Y-61507400D01*
X80471773Y-61445106D01*
X80494984Y-61426818D01*
X80514372Y-61414937D01*
X80577376Y-61376328D01*
X80757448Y-61222531D01*
X80766142Y-61215106D01*
X80769898Y-61211898D01*
X80934328Y-61019376D01*
X81066616Y-60803502D01*
X81083134Y-60763626D01*
X81161611Y-60574164D01*
X81161612Y-60574162D01*
X81163505Y-60569591D01*
X81184929Y-60480354D01*
X81221454Y-60328216D01*
X81221455Y-60328210D01*
X81222609Y-60323403D01*
X81242474Y-60071000D01*
X81222609Y-59818597D01*
X81196472Y-59709725D01*
X81182037Y-59649600D01*
X81163505Y-59572409D01*
X81128896Y-59488855D01*
X81068511Y-59343072D01*
X81068509Y-59343068D01*
X81066616Y-59338498D01*
X80934328Y-59122624D01*
X80931119Y-59118867D01*
X80931117Y-59118864D01*
X80928545Y-59115853D01*
X80899512Y-59051064D01*
X80910116Y-58980864D01*
X80956989Y-58927540D01*
X81024354Y-58908020D01*
X84920886Y-58908020D01*
X84989007Y-58928022D01*
G37*
%TD.AperFunction*%
%TA.AperFunction,Conductor*%
G36*
X100080678Y-29484002D02*
G01*
X100127171Y-29537658D01*
X100137820Y-29603607D01*
X100132515Y-29652445D01*
X100132515Y-31748713D01*
X100139270Y-31810895D01*
X100190400Y-31947284D01*
X100277754Y-32063840D01*
X100394310Y-32151194D01*
X100530699Y-32202324D01*
X100592881Y-32209079D01*
X102689149Y-32209079D01*
X102751331Y-32202324D01*
X102826771Y-32174043D01*
X102897577Y-32168860D01*
X102959946Y-32202781D01*
X102994076Y-32265036D01*
X102997000Y-32292025D01*
X102997000Y-43079133D01*
X102976998Y-43147254D01*
X102923342Y-43193747D01*
X102853068Y-43203851D01*
X102826770Y-43197115D01*
X102817786Y-43193747D01*
X102751331Y-43168834D01*
X102689149Y-43162079D01*
X100592881Y-43162079D01*
X100530699Y-43168834D01*
X100394310Y-43219964D01*
X100277754Y-43307318D01*
X100190400Y-43423874D01*
X100139270Y-43560263D01*
X100132515Y-43622445D01*
X100132515Y-45718713D01*
X100139270Y-45780895D01*
X100190400Y-45917284D01*
X100277754Y-46033840D01*
X100394310Y-46121194D01*
X100530699Y-46172324D01*
X100592881Y-46179079D01*
X102689149Y-46179079D01*
X102751331Y-46172324D01*
X102826771Y-46144043D01*
X102897577Y-46138860D01*
X102959946Y-46172781D01*
X102994076Y-46235036D01*
X102997000Y-46262025D01*
X102997000Y-55246000D01*
X102976998Y-55314121D01*
X102923342Y-55360614D01*
X102871000Y-55372000D01*
X102116702Y-55372000D01*
X102115932Y-55371998D01*
X102115078Y-55371993D01*
X102038348Y-55371524D01*
X102029719Y-55373990D01*
X102029714Y-55373991D01*
X102009952Y-55379639D01*
X101993191Y-55383217D01*
X101972848Y-55386130D01*
X101972838Y-55386133D01*
X101963955Y-55387405D01*
X101940605Y-55398021D01*
X101923093Y-55404464D01*
X101910200Y-55408149D01*
X101898435Y-55411512D01*
X101873452Y-55427274D01*
X101858386Y-55435404D01*
X101831490Y-55447633D01*
X101812061Y-55464374D01*
X101797053Y-55475479D01*
X101775369Y-55489160D01*
X101756813Y-55510171D01*
X101755819Y-55511296D01*
X101743626Y-55523341D01*
X101730786Y-55534405D01*
X101721253Y-55542619D01*
X101716374Y-55550147D01*
X101716371Y-55550150D01*
X101707304Y-55564139D01*
X101696014Y-55579013D01*
X101679044Y-55598228D01*
X101675229Y-55606354D01*
X101675228Y-55606355D01*
X101674777Y-55607316D01*
X101666490Y-55624966D01*
X101658176Y-55639935D01*
X101642107Y-55664727D01*
X101639535Y-55673327D01*
X101634761Y-55689290D01*
X101628099Y-55706736D01*
X101617201Y-55729948D01*
X101615820Y-55738821D01*
X101612658Y-55759128D01*
X101608874Y-55775849D01*
X101602986Y-55795536D01*
X101602985Y-55795539D01*
X101600413Y-55804141D01*
X101600358Y-55813116D01*
X101600358Y-55813117D01*
X101600203Y-55838546D01*
X101600170Y-55839328D01*
X101600000Y-55840423D01*
X101600000Y-55871298D01*
X101599998Y-55872068D01*
X101599524Y-55949652D01*
X101599908Y-55950996D01*
X101600000Y-55952341D01*
X101600000Y-61205298D01*
X101599998Y-61206068D01*
X101599524Y-61283652D01*
X101601990Y-61292281D01*
X101601991Y-61292286D01*
X101607639Y-61312048D01*
X101611217Y-61328809D01*
X101614130Y-61349152D01*
X101614133Y-61349162D01*
X101615405Y-61358045D01*
X101626021Y-61381395D01*
X101632464Y-61398907D01*
X101639512Y-61423565D01*
X101655274Y-61448548D01*
X101663404Y-61463614D01*
X101670574Y-61479383D01*
X101675634Y-61490512D01*
X101674068Y-61491224D01*
X101690968Y-61549249D01*
X101670816Y-61617325D01*
X101618218Y-61663167D01*
X101541476Y-61698952D01*
X101541471Y-61698955D01*
X101536489Y-61701278D01*
X101531982Y-61704434D01*
X101531980Y-61704435D01*
X101349794Y-61832003D01*
X101349791Y-61832005D01*
X101345283Y-61835162D01*
X101180230Y-62000215D01*
X101177073Y-62004723D01*
X101177071Y-62004726D01*
X101102750Y-62110868D01*
X101047293Y-62155196D01*
X100976674Y-62162505D01*
X100913313Y-62130474D01*
X100896324Y-62110868D01*
X100822003Y-62004726D01*
X100822001Y-62004723D01*
X100818844Y-62000215D01*
X100653791Y-61835162D01*
X100649283Y-61832005D01*
X100649280Y-61832003D01*
X100467094Y-61704435D01*
X100467092Y-61704434D01*
X100462585Y-61701278D01*
X100457603Y-61698955D01*
X100457598Y-61698952D01*
X100256017Y-61604953D01*
X100256015Y-61604952D01*
X100251035Y-61602630D01*
X100245727Y-61601208D01*
X100245725Y-61601207D01*
X100030884Y-61543641D01*
X100030882Y-61543641D01*
X100025569Y-61542217D01*
X99793037Y-61521873D01*
X99560505Y-61542217D01*
X99555192Y-61543641D01*
X99555190Y-61543641D01*
X99340349Y-61601207D01*
X99340347Y-61601208D01*
X99335039Y-61602630D01*
X99330059Y-61604952D01*
X99330057Y-61604953D01*
X99128476Y-61698952D01*
X99128471Y-61698955D01*
X99123489Y-61701278D01*
X99118982Y-61704434D01*
X99118980Y-61704435D01*
X98936794Y-61832003D01*
X98936791Y-61832005D01*
X98932283Y-61835162D01*
X98767230Y-62000215D01*
X98764073Y-62004723D01*
X98764071Y-62004726D01*
X98639716Y-62182323D01*
X98633346Y-62191421D01*
X98631023Y-62196403D01*
X98631020Y-62196408D01*
X98573732Y-62319263D01*
X98526814Y-62372548D01*
X98458537Y-62392009D01*
X98390577Y-62371467D01*
X98345342Y-62319263D01*
X98288054Y-62196408D01*
X98288051Y-62196403D01*
X98285728Y-62191421D01*
X98279358Y-62182323D01*
X98155003Y-62004726D01*
X98155001Y-62004723D01*
X98151844Y-62000215D01*
X97986791Y-61835162D01*
X97982283Y-61832005D01*
X97982280Y-61832003D01*
X97800094Y-61704435D01*
X97800092Y-61704434D01*
X97795585Y-61701278D01*
X97790603Y-61698955D01*
X97790598Y-61698952D01*
X97589017Y-61604953D01*
X97589015Y-61604952D01*
X97584035Y-61602630D01*
X97578727Y-61601208D01*
X97578725Y-61601207D01*
X97363884Y-61543641D01*
X97363882Y-61543641D01*
X97358569Y-61542217D01*
X97126037Y-61521873D01*
X96893505Y-61542217D01*
X96888192Y-61543641D01*
X96888190Y-61543641D01*
X96673349Y-61601207D01*
X96673347Y-61601208D01*
X96668039Y-61602630D01*
X96663059Y-61604952D01*
X96663057Y-61604953D01*
X96461476Y-61698952D01*
X96461471Y-61698955D01*
X96456489Y-61701278D01*
X96451982Y-61704434D01*
X96451980Y-61704435D01*
X96269794Y-61832003D01*
X96269791Y-61832005D01*
X96265283Y-61835162D01*
X96100230Y-62000215D01*
X95966346Y-62191421D01*
X95964763Y-62194816D01*
X95913771Y-62243435D01*
X95844057Y-62256869D01*
X95778147Y-62230481D01*
X95747390Y-62194986D01*
X95745728Y-62191421D01*
X95611844Y-62000215D01*
X95446791Y-61835162D01*
X95442283Y-61832005D01*
X95442280Y-61832003D01*
X95260094Y-61704435D01*
X95260092Y-61704434D01*
X95255585Y-61701278D01*
X95250603Y-61698955D01*
X95250598Y-61698952D01*
X95049017Y-61604953D01*
X95049015Y-61604952D01*
X95044035Y-61602630D01*
X95038727Y-61601208D01*
X95038725Y-61601207D01*
X94823884Y-61543641D01*
X94823882Y-61543641D01*
X94818569Y-61542217D01*
X94586037Y-61521873D01*
X94353505Y-61542217D01*
X94348192Y-61543641D01*
X94348190Y-61543641D01*
X94133349Y-61601207D01*
X94133347Y-61601208D01*
X94128039Y-61602630D01*
X94123059Y-61604952D01*
X94123057Y-61604953D01*
X93921476Y-61698952D01*
X93921471Y-61698955D01*
X93916489Y-61701278D01*
X93911982Y-61704434D01*
X93911980Y-61704435D01*
X93729794Y-61832003D01*
X93729791Y-61832005D01*
X93725283Y-61835162D01*
X93560230Y-62000215D01*
X93426346Y-62191421D01*
X93424763Y-62194816D01*
X93373771Y-62243435D01*
X93304057Y-62256869D01*
X93238147Y-62230481D01*
X93207390Y-62194986D01*
X93205728Y-62191421D01*
X93071844Y-62000215D01*
X92906791Y-61835162D01*
X92902283Y-61832005D01*
X92902280Y-61832003D01*
X92720094Y-61704435D01*
X92720092Y-61704434D01*
X92715585Y-61701278D01*
X92710603Y-61698955D01*
X92710598Y-61698952D01*
X92509017Y-61604953D01*
X92509015Y-61604952D01*
X92504035Y-61602630D01*
X92498727Y-61601208D01*
X92498725Y-61601207D01*
X92283884Y-61543641D01*
X92283882Y-61543641D01*
X92278569Y-61542217D01*
X92046037Y-61521873D01*
X91813505Y-61542217D01*
X91808192Y-61543641D01*
X91808190Y-61543641D01*
X91593349Y-61601207D01*
X91593347Y-61601208D01*
X91588039Y-61602630D01*
X91583059Y-61604952D01*
X91583057Y-61604953D01*
X91448574Y-61667664D01*
X91378383Y-61678325D01*
X91313570Y-61649345D01*
X91274713Y-61589926D01*
X91274150Y-61518931D01*
X91294498Y-61477904D01*
X91305202Y-61463622D01*
X91339615Y-61417705D01*
X91390745Y-61281316D01*
X91397500Y-61219134D01*
X91397500Y-58922866D01*
X91390745Y-58860684D01*
X91339615Y-58724295D01*
X91252261Y-58607739D01*
X91135705Y-58520385D01*
X91127304Y-58517236D01*
X91125449Y-58516220D01*
X91075303Y-58465961D01*
X91060290Y-58396570D01*
X91085176Y-58330078D01*
X91117758Y-58301846D01*
X91117225Y-58301135D01*
X91226601Y-58219162D01*
X91233781Y-58213781D01*
X91321135Y-58097225D01*
X91372265Y-57960836D01*
X91379020Y-57898654D01*
X91379020Y-55602386D01*
X91372265Y-55540204D01*
X91321135Y-55403815D01*
X91233781Y-55287259D01*
X91117225Y-55199905D01*
X90980836Y-55148775D01*
X90918654Y-55142020D01*
X88622386Y-55142020D01*
X88560204Y-55148775D01*
X88423815Y-55199905D01*
X88307259Y-55287259D01*
X88219905Y-55403815D01*
X88168775Y-55540204D01*
X88162020Y-55602386D01*
X88162020Y-57898654D01*
X88168775Y-57960836D01*
X88219905Y-58097225D01*
X88307259Y-58213781D01*
X88423815Y-58301135D01*
X88432216Y-58304284D01*
X88434071Y-58305300D01*
X88484217Y-58355559D01*
X88499230Y-58424950D01*
X88474344Y-58491442D01*
X88441762Y-58519674D01*
X88442295Y-58520385D01*
X88325739Y-58607739D01*
X88238385Y-58724295D01*
X88187255Y-58860684D01*
X88180500Y-58922866D01*
X88180500Y-60019446D01*
X88160498Y-60087567D01*
X88106842Y-60134060D01*
X88036568Y-60144164D01*
X87971988Y-60114670D01*
X87965405Y-60108541D01*
X86869171Y-59012306D01*
X85739132Y-57882267D01*
X85731592Y-57873981D01*
X85727480Y-57867502D01*
X85677828Y-57820876D01*
X85674987Y-57818122D01*
X85655250Y-57798385D01*
X85652053Y-57795905D01*
X85643031Y-57788200D01*
X85616580Y-57763361D01*
X85610801Y-57757934D01*
X85603855Y-57754115D01*
X85603852Y-57754113D01*
X85593046Y-57748172D01*
X85576527Y-57737321D01*
X85576063Y-57736961D01*
X85560521Y-57724906D01*
X85553252Y-57721761D01*
X85553248Y-57721758D01*
X85519943Y-57707346D01*
X85509293Y-57702129D01*
X85470540Y-57680825D01*
X85450917Y-57675787D01*
X85432214Y-57669383D01*
X85420900Y-57664487D01*
X85420899Y-57664487D01*
X85413625Y-57661339D01*
X85405802Y-57660100D01*
X85405792Y-57660097D01*
X85369956Y-57654421D01*
X85358336Y-57652015D01*
X85323191Y-57642992D01*
X85323190Y-57642992D01*
X85315510Y-57641020D01*
X85295256Y-57641020D01*
X85275545Y-57639469D01*
X85263366Y-57637540D01*
X85255537Y-57636300D01*
X85227189Y-57638980D01*
X85157491Y-57625478D01*
X85106154Y-57576437D01*
X85089480Y-57507426D01*
X85112764Y-57440356D01*
X85126237Y-57424444D01*
X85197911Y-57352770D01*
X85212323Y-57340384D01*
X85223918Y-57331851D01*
X85223923Y-57331846D01*
X85229818Y-57327508D01*
X85234557Y-57321930D01*
X85234560Y-57321927D01*
X85264035Y-57287232D01*
X85270965Y-57279716D01*
X85276660Y-57274021D01*
X85281518Y-57267880D01*
X85294281Y-57251749D01*
X85297072Y-57248345D01*
X85339591Y-57198297D01*
X85339592Y-57198295D01*
X85344333Y-57192715D01*
X85347661Y-57186199D01*
X85351020Y-57181162D01*
X85354194Y-57176023D01*
X85358734Y-57170284D01*
X85389636Y-57104163D01*
X85391569Y-57100209D01*
X85409176Y-57065728D01*
X85424769Y-57035192D01*
X85426510Y-57028076D01*
X85428604Y-57022446D01*
X85430523Y-57016679D01*
X85433621Y-57010050D01*
X85436156Y-56997866D01*
X85448482Y-56938604D01*
X85449453Y-56934315D01*
X85454980Y-56911729D01*
X85466808Y-56863390D01*
X85467500Y-56852236D01*
X85467536Y-56852238D01*
X85467775Y-56848248D01*
X85468150Y-56844050D01*
X85469640Y-56836885D01*
X85467546Y-56759496D01*
X85467500Y-56756088D01*
X85467500Y-53542411D01*
X85487502Y-53474290D01*
X85504405Y-53453316D01*
X88910851Y-50046870D01*
X88973748Y-50012719D01*
X89030344Y-50000689D01*
X89030353Y-50000686D01*
X89036808Y-49999314D01*
X89042839Y-49996629D01*
X89205242Y-49924323D01*
X89205244Y-49924322D01*
X89211272Y-49921638D01*
X89220186Y-49915162D01*
X89314101Y-49846928D01*
X89365773Y-49809386D01*
X89397506Y-49774143D01*
X89489141Y-49672372D01*
X89489142Y-49672371D01*
X89493560Y-49667464D01*
X89499602Y-49657000D01*
X89549164Y-49571155D01*
X89600546Y-49522161D01*
X89670259Y-49508724D01*
X89736171Y-49535111D01*
X89747378Y-49545059D01*
X93057595Y-52855276D01*
X93091621Y-52917588D01*
X93094500Y-52944371D01*
X93094500Y-55066930D01*
X93093067Y-55085880D01*
X93089801Y-55107349D01*
X93090394Y-55114641D01*
X93090394Y-55114644D01*
X93094085Y-55160018D01*
X93094500Y-55170233D01*
X93094500Y-55178293D01*
X93094925Y-55181937D01*
X93097789Y-55206507D01*
X93098222Y-55210882D01*
X93101079Y-55246000D01*
X93104140Y-55283637D01*
X93106396Y-55290601D01*
X93107587Y-55296560D01*
X93108971Y-55302415D01*
X93109818Y-55309681D01*
X93134735Y-55378327D01*
X93136152Y-55382455D01*
X93155640Y-55442610D01*
X93158649Y-55451899D01*
X93162445Y-55458154D01*
X93164951Y-55463628D01*
X93167670Y-55469058D01*
X93170167Y-55475937D01*
X93174180Y-55482057D01*
X93174180Y-55482058D01*
X93210186Y-55536976D01*
X93212523Y-55540680D01*
X93250405Y-55603107D01*
X93254121Y-55607315D01*
X93254122Y-55607316D01*
X93257803Y-55611484D01*
X93257776Y-55611508D01*
X93260429Y-55614500D01*
X93263132Y-55617733D01*
X93267144Y-55623852D01*
X93272456Y-55628884D01*
X93323383Y-55677128D01*
X93325825Y-55679506D01*
X94845595Y-57199276D01*
X94879621Y-57261588D01*
X94882500Y-57288371D01*
X94882500Y-57947400D01*
X94882837Y-57950646D01*
X94882837Y-57950650D01*
X94888418Y-58004433D01*
X94893474Y-58053166D01*
X94949450Y-58220946D01*
X95042522Y-58371348D01*
X95167697Y-58496305D01*
X95205609Y-58519674D01*
X95219236Y-58528074D01*
X95266729Y-58580846D01*
X95278153Y-58650918D01*
X95249879Y-58716042D01*
X95230955Y-58734418D01*
X95223080Y-58740604D01*
X95219148Y-58745135D01*
X95219145Y-58745138D01*
X95120184Y-58859181D01*
X95084448Y-58900363D01*
X95081448Y-58905549D01*
X95081445Y-58905553D01*
X95027033Y-58999608D01*
X94978527Y-59083454D01*
X94909139Y-59283271D01*
X94908278Y-59289206D01*
X94908278Y-59289208D01*
X94885123Y-59448909D01*
X94878787Y-59492604D01*
X94888567Y-59703899D01*
X94938125Y-59909534D01*
X94940607Y-59914992D01*
X94940608Y-59914996D01*
X94988099Y-60019446D01*
X95025674Y-60102087D01*
X95148054Y-60274611D01*
X95300850Y-60420881D01*
X95478548Y-60535620D01*
X95484114Y-60537863D01*
X95669168Y-60612442D01*
X95669171Y-60612443D01*
X95674737Y-60614686D01*
X95882337Y-60655228D01*
X95887899Y-60655500D01*
X96593846Y-60655500D01*
X96751566Y-60640452D01*
X96954534Y-60580908D01*
X96959862Y-60578164D01*
X97137249Y-60486804D01*
X97137252Y-60486802D01*
X97142580Y-60484058D01*
X97308920Y-60353396D01*
X97442433Y-60199536D01*
X97472230Y-60174400D01*
X97513107Y-60149595D01*
X97521484Y-60142197D01*
X97521508Y-60142224D01*
X97524500Y-60139571D01*
X97527733Y-60136868D01*
X97533852Y-60132856D01*
X97587128Y-60076617D01*
X97589506Y-60074175D01*
X98278911Y-59384770D01*
X98293323Y-59372384D01*
X98304918Y-59363851D01*
X98304923Y-59363846D01*
X98310818Y-59359508D01*
X98315557Y-59353930D01*
X98315560Y-59353927D01*
X98345035Y-59319232D01*
X98351965Y-59311716D01*
X98357660Y-59306021D01*
X98370962Y-59289208D01*
X98375281Y-59283749D01*
X98378072Y-59280345D01*
X98420591Y-59230297D01*
X98420592Y-59230295D01*
X98425333Y-59224715D01*
X98428661Y-59218199D01*
X98432028Y-59213150D01*
X98435195Y-59208021D01*
X98439734Y-59202284D01*
X98470655Y-59136125D01*
X98472561Y-59132225D01*
X98475312Y-59126838D01*
X98505769Y-59067192D01*
X98507508Y-59060084D01*
X98509607Y-59054441D01*
X98511524Y-59048678D01*
X98514622Y-59042050D01*
X98529487Y-58970583D01*
X98530457Y-58966299D01*
X98533306Y-58954655D01*
X98547808Y-58895390D01*
X98548500Y-58884236D01*
X98548536Y-58884238D01*
X98548775Y-58880245D01*
X98549149Y-58876053D01*
X98550640Y-58868885D01*
X98548546Y-58791479D01*
X98548500Y-58788072D01*
X98548500Y-52518063D01*
X98549933Y-52499114D01*
X98550317Y-52496592D01*
X98553198Y-52477651D01*
X98548915Y-52424990D01*
X98548500Y-52414777D01*
X98548500Y-52406707D01*
X98548078Y-52403087D01*
X98548077Y-52403069D01*
X98545208Y-52378461D01*
X98544775Y-52374086D01*
X98539454Y-52308661D01*
X98539453Y-52308658D01*
X98538860Y-52301363D01*
X98536604Y-52294399D01*
X98535413Y-52288440D01*
X98534029Y-52282585D01*
X98533182Y-52275319D01*
X98508265Y-52206673D01*
X98506848Y-52202545D01*
X98486607Y-52140064D01*
X98486606Y-52140062D01*
X98484351Y-52133101D01*
X98480555Y-52126846D01*
X98478049Y-52121372D01*
X98475330Y-52115942D01*
X98472833Y-52109063D01*
X98432809Y-52048016D01*
X98430472Y-52044312D01*
X98429116Y-52042076D01*
X98408228Y-52007654D01*
X98395509Y-51986693D01*
X98395505Y-51986688D01*
X98392595Y-51981892D01*
X98385197Y-51973516D01*
X98385223Y-51973493D01*
X98382574Y-51970503D01*
X98379866Y-51967264D01*
X98375856Y-51961148D01*
X98370549Y-51956121D01*
X98370546Y-51956117D01*
X98319617Y-51907872D01*
X98317175Y-51905494D01*
X80326420Y-33914739D01*
X80292394Y-33852427D01*
X80289515Y-33825644D01*
X80289515Y-32700445D01*
X80282760Y-32638263D01*
X80231630Y-32501874D01*
X80144276Y-32385318D01*
X80064334Y-32325404D01*
X80021819Y-32268546D01*
X80016793Y-32197728D01*
X80050853Y-32135434D01*
X80064334Y-32123753D01*
X80137096Y-32069221D01*
X80144276Y-32063840D01*
X80231630Y-31947284D01*
X80282760Y-31810895D01*
X80289515Y-31748713D01*
X80289515Y-29652445D01*
X80284210Y-29603607D01*
X80296738Y-29533725D01*
X80345060Y-29481709D01*
X80409473Y-29464000D01*
X100012557Y-29464000D01*
X100080678Y-29484002D01*
G37*
%TD.AperFunction*%
%TA.AperFunction,Conductor*%
G36*
X82599329Y-42401081D02*
G01*
X82620303Y-42417984D01*
X88336932Y-48134613D01*
X88370958Y-48196925D01*
X88365893Y-48267740D01*
X88323346Y-48324576D01*
X88309210Y-48332874D01*
X88309521Y-48333413D01*
X88303798Y-48336717D01*
X88297768Y-48339402D01*
X88292427Y-48343282D01*
X88292426Y-48343283D01*
X88250170Y-48373984D01*
X88143267Y-48451654D01*
X88015480Y-48593576D01*
X87919993Y-48758964D01*
X87900892Y-48817752D01*
X87865133Y-48927805D01*
X87834395Y-48977964D01*
X84220089Y-52592270D01*
X84205677Y-52604656D01*
X84194082Y-52613189D01*
X84194077Y-52613194D01*
X84188182Y-52617532D01*
X84183443Y-52623110D01*
X84183440Y-52623113D01*
X84153965Y-52657808D01*
X84147035Y-52665324D01*
X84141340Y-52671019D01*
X84139060Y-52673901D01*
X84123719Y-52693291D01*
X84120928Y-52696695D01*
X84104224Y-52716357D01*
X84073667Y-52752325D01*
X84070339Y-52758841D01*
X84066972Y-52763890D01*
X84063805Y-52769019D01*
X84059266Y-52774756D01*
X84028345Y-52840915D01*
X84026442Y-52844809D01*
X83993231Y-52909848D01*
X83991492Y-52916956D01*
X83989393Y-52922599D01*
X83987476Y-52928362D01*
X83984378Y-52934990D01*
X83982888Y-52942152D01*
X83982888Y-52942153D01*
X83969514Y-53006452D01*
X83968544Y-53010736D01*
X83951192Y-53081650D01*
X83950500Y-53092804D01*
X83950464Y-53092802D01*
X83950225Y-53096795D01*
X83949851Y-53100987D01*
X83948360Y-53108155D01*
X83948558Y-53115472D01*
X83950454Y-53185561D01*
X83950500Y-53188968D01*
X83950500Y-56312227D01*
X83930498Y-56380348D01*
X83875749Y-56427334D01*
X83750278Y-56483197D01*
X83750276Y-56483198D01*
X83744248Y-56485882D01*
X83738907Y-56489762D01*
X83738906Y-56489763D01*
X83727408Y-56498117D01*
X83589747Y-56598134D01*
X83585326Y-56603044D01*
X83585325Y-56603045D01*
X83513450Y-56682871D01*
X83461960Y-56740056D01*
X83366473Y-56905444D01*
X83307458Y-57087072D01*
X83306768Y-57093633D01*
X83306768Y-57093635D01*
X83289116Y-57261588D01*
X83287496Y-57277000D01*
X83288186Y-57283565D01*
X83302459Y-57419361D01*
X83307458Y-57466928D01*
X83309497Y-57473203D01*
X83310433Y-57476083D01*
X83310483Y-57477842D01*
X83310871Y-57479666D01*
X83310537Y-57479737D01*
X83312461Y-57547051D01*
X83275798Y-57607849D01*
X83212086Y-57639175D01*
X83190600Y-57641020D01*
X81171264Y-57641020D01*
X81103143Y-57621018D01*
X81056650Y-57567362D01*
X81046546Y-57497088D01*
X81054855Y-57466802D01*
X81143131Y-57253684D01*
X81143132Y-57253682D01*
X81145025Y-57249111D01*
X81174015Y-57128358D01*
X81202974Y-57007736D01*
X81202975Y-57007730D01*
X81204129Y-57002923D01*
X81223994Y-56750520D01*
X81204129Y-56498117D01*
X81202124Y-56489763D01*
X81146180Y-56256741D01*
X81145025Y-56251929D01*
X81136290Y-56230841D01*
X81050031Y-56022592D01*
X81050029Y-56022588D01*
X81048136Y-56018018D01*
X80915848Y-55802144D01*
X80751418Y-55609622D01*
X80558896Y-55445192D01*
X80343022Y-55312904D01*
X80338452Y-55311011D01*
X80338448Y-55311009D01*
X80113684Y-55217909D01*
X80113682Y-55217908D01*
X80109111Y-55216015D01*
X79967165Y-55181937D01*
X79867736Y-55158066D01*
X79867730Y-55158065D01*
X79862923Y-55156911D01*
X79741106Y-55147324D01*
X79655629Y-55140596D01*
X79589287Y-55115310D01*
X79547148Y-55058172D01*
X79539515Y-55014984D01*
X79539515Y-46305079D01*
X79559517Y-46236958D01*
X79613173Y-46190465D01*
X79665515Y-46179079D01*
X79829149Y-46179079D01*
X79891331Y-46172324D01*
X80027720Y-46121194D01*
X80144276Y-46033840D01*
X80231630Y-45917284D01*
X80282760Y-45780895D01*
X80289515Y-45718713D01*
X80289515Y-43622445D01*
X80282760Y-43560263D01*
X80231630Y-43423874D01*
X80144276Y-43307318D01*
X80064334Y-43247404D01*
X80021819Y-43190546D01*
X80016793Y-43119728D01*
X80050853Y-43057434D01*
X80064334Y-43045753D01*
X80137096Y-42991221D01*
X80144276Y-42985840D01*
X80231630Y-42869284D01*
X80282760Y-42732895D01*
X80289515Y-42670713D01*
X80289515Y-42507079D01*
X80309517Y-42438958D01*
X80363173Y-42392465D01*
X80415515Y-42381079D01*
X82531208Y-42381079D01*
X82599329Y-42401081D01*
G37*
%TD.AperFunction*%
%TA.AperFunction,Conductor*%
G36*
X60314047Y-41402022D02*
G01*
X60335021Y-41418925D01*
X67833597Y-48917501D01*
X67867623Y-48979813D01*
X67862558Y-49050628D01*
X67820011Y-49107464D01*
X67753491Y-49132275D01*
X67741809Y-49132172D01*
X67740405Y-49131880D01*
X67733085Y-49132078D01*
X67662999Y-49133974D01*
X67659592Y-49134020D01*
X65199590Y-49134020D01*
X65180640Y-49132587D01*
X65166405Y-49130421D01*
X65166401Y-49130421D01*
X65159171Y-49129321D01*
X65151879Y-49129914D01*
X65151876Y-49129914D01*
X65106502Y-49133605D01*
X65096287Y-49134020D01*
X65088227Y-49134020D01*
X65084593Y-49134444D01*
X65084587Y-49134444D01*
X65071562Y-49135963D01*
X65060000Y-49137311D01*
X65055652Y-49137741D01*
X64982884Y-49143660D01*
X64975923Y-49145915D01*
X64969983Y-49147102D01*
X64964108Y-49148491D01*
X64956839Y-49149338D01*
X64888190Y-49174256D01*
X64884062Y-49175673D01*
X64821584Y-49195913D01*
X64821582Y-49195914D01*
X64814621Y-49198169D01*
X64808366Y-49201965D01*
X64802892Y-49204471D01*
X64797462Y-49207190D01*
X64790583Y-49209687D01*
X64784463Y-49213700D01*
X64784462Y-49213700D01*
X64729544Y-49249706D01*
X64725840Y-49252043D01*
X64663413Y-49289925D01*
X64655036Y-49297323D01*
X64655012Y-49297296D01*
X64652020Y-49299949D01*
X64648787Y-49302652D01*
X64642668Y-49306664D01*
X64589392Y-49362903D01*
X64587014Y-49365345D01*
X59578370Y-54373989D01*
X59570097Y-54381557D01*
X59568788Y-54382652D01*
X59562668Y-54386664D01*
X59557636Y-54391976D01*
X59509392Y-54442903D01*
X59507014Y-54445345D01*
X58759244Y-55193115D01*
X58696932Y-55227141D01*
X58670149Y-55230020D01*
X51963397Y-55230020D01*
X51895276Y-55210018D01*
X51860184Y-55176291D01*
X51840879Y-55148720D01*
X51840877Y-55148718D01*
X51837720Y-55144209D01*
X51675822Y-54982311D01*
X51671314Y-54979154D01*
X51671311Y-54979152D01*
X51514370Y-54869261D01*
X51488271Y-54850986D01*
X51483289Y-54848663D01*
X51483284Y-54848660D01*
X51449065Y-54832704D01*
X51395780Y-54785787D01*
X51376319Y-54717510D01*
X51396861Y-54649550D01*
X51449065Y-54604314D01*
X51483284Y-54588358D01*
X51483289Y-54588355D01*
X51488271Y-54586032D01*
X51611657Y-54499636D01*
X51671311Y-54457866D01*
X51671314Y-54457864D01*
X51675822Y-54454707D01*
X51837720Y-54292809D01*
X51861490Y-54258863D01*
X51922988Y-54171034D01*
X51969045Y-54105258D01*
X51971368Y-54100276D01*
X51971371Y-54100271D01*
X52063483Y-53902734D01*
X52063483Y-53902733D01*
X52065806Y-53897752D01*
X52074197Y-53866439D01*
X52123641Y-53681911D01*
X52123641Y-53681909D01*
X52125065Y-53676596D01*
X52145020Y-53448509D01*
X52125065Y-53220422D01*
X52116637Y-53188968D01*
X52067229Y-53004576D01*
X52067228Y-53004574D01*
X52065806Y-52999266D01*
X52063483Y-52994284D01*
X51971371Y-52796747D01*
X51971368Y-52796742D01*
X51969045Y-52791760D01*
X51853398Y-52626599D01*
X51840879Y-52608720D01*
X51840877Y-52608717D01*
X51837720Y-52604209D01*
X51675822Y-52442311D01*
X51671314Y-52439154D01*
X51671311Y-52439152D01*
X51548660Y-52353271D01*
X51488271Y-52310986D01*
X51483289Y-52308663D01*
X51483284Y-52308660D01*
X51449065Y-52292704D01*
X51395780Y-52245787D01*
X51376319Y-52177510D01*
X51396861Y-52109550D01*
X51449065Y-52064314D01*
X51483284Y-52048358D01*
X51483289Y-52048355D01*
X51488271Y-52046032D01*
X51616683Y-51956117D01*
X51671311Y-51917866D01*
X51671314Y-51917864D01*
X51675822Y-51914707D01*
X51837720Y-51752809D01*
X51843979Y-51743871D01*
X51913032Y-51645252D01*
X51969045Y-51565258D01*
X51971368Y-51560276D01*
X51971371Y-51560271D01*
X52063483Y-51362734D01*
X52063483Y-51362733D01*
X52065806Y-51357752D01*
X52100951Y-51226592D01*
X52123641Y-51141911D01*
X52123641Y-51141909D01*
X52125065Y-51136596D01*
X52145020Y-50908509D01*
X52125065Y-50680422D01*
X52122546Y-50671022D01*
X52067229Y-50464576D01*
X52067228Y-50464574D01*
X52065806Y-50459266D01*
X52005974Y-50330955D01*
X51971371Y-50256747D01*
X51971368Y-50256742D01*
X51969045Y-50251760D01*
X51837720Y-50064209D01*
X51675822Y-49902311D01*
X51671314Y-49899154D01*
X51671311Y-49899152D01*
X51548657Y-49813269D01*
X51488271Y-49770986D01*
X51483289Y-49768663D01*
X51483284Y-49768660D01*
X51449065Y-49752704D01*
X51395780Y-49705787D01*
X51381874Y-49657000D01*
X52807496Y-49657000D01*
X52827458Y-49846928D01*
X52886473Y-50028556D01*
X52889776Y-50034278D01*
X52889777Y-50034279D01*
X52904807Y-50060312D01*
X52981960Y-50193944D01*
X53109747Y-50335866D01*
X53264248Y-50448118D01*
X53270276Y-50450802D01*
X53270278Y-50450803D01*
X53301213Y-50464576D01*
X53438712Y-50525794D01*
X53522863Y-50543681D01*
X53619056Y-50564128D01*
X53619061Y-50564128D01*
X53625513Y-50565500D01*
X53816487Y-50565500D01*
X53822939Y-50564128D01*
X53822944Y-50564128D01*
X53919137Y-50543681D01*
X54003288Y-50525794D01*
X54140787Y-50464576D01*
X54171722Y-50450803D01*
X54171724Y-50450802D01*
X54177752Y-50448118D01*
X54332253Y-50335866D01*
X54460040Y-50193944D01*
X54537193Y-50060312D01*
X54552223Y-50034279D01*
X54552224Y-50034278D01*
X54555527Y-50028556D01*
X54614542Y-49846928D01*
X54634504Y-49657000D01*
X54628807Y-49602793D01*
X54615232Y-49473635D01*
X54615232Y-49473633D01*
X54614542Y-49467072D01*
X54555527Y-49285444D01*
X54496381Y-49183000D01*
X54479500Y-49120001D01*
X54479500Y-43970999D01*
X54496381Y-43907999D01*
X54552223Y-43811279D01*
X54552224Y-43811278D01*
X54555527Y-43805556D01*
X54614542Y-43623928D01*
X54621234Y-43560263D01*
X54633814Y-43440565D01*
X54634504Y-43434000D01*
X54619788Y-43293984D01*
X54615232Y-43250635D01*
X54615232Y-43250633D01*
X54614542Y-43244072D01*
X54555527Y-43062444D01*
X54545891Y-43045753D01*
X54463341Y-42902774D01*
X54460040Y-42897056D01*
X54427464Y-42860876D01*
X54336675Y-42760045D01*
X54336674Y-42760044D01*
X54332253Y-42755134D01*
X54233157Y-42683136D01*
X54183094Y-42646763D01*
X54183093Y-42646762D01*
X54177752Y-42642882D01*
X54171724Y-42640198D01*
X54171722Y-42640197D01*
X54009319Y-42567891D01*
X54009318Y-42567891D01*
X54003288Y-42565206D01*
X53909887Y-42545353D01*
X53822944Y-42526872D01*
X53822939Y-42526872D01*
X53816487Y-42525500D01*
X53625513Y-42525500D01*
X53619061Y-42526872D01*
X53619056Y-42526872D01*
X53532113Y-42545353D01*
X53438712Y-42565206D01*
X53432682Y-42567891D01*
X53432681Y-42567891D01*
X53270278Y-42640197D01*
X53270276Y-42640198D01*
X53264248Y-42642882D01*
X53258907Y-42646762D01*
X53258906Y-42646763D01*
X53208843Y-42683136D01*
X53109747Y-42755134D01*
X53105326Y-42760044D01*
X53105325Y-42760045D01*
X53014537Y-42860876D01*
X52981960Y-42897056D01*
X52978659Y-42902774D01*
X52896110Y-43045753D01*
X52886473Y-43062444D01*
X52827458Y-43244072D01*
X52826768Y-43250633D01*
X52826768Y-43250635D01*
X52822212Y-43293984D01*
X52807496Y-43434000D01*
X52808186Y-43440565D01*
X52820767Y-43560263D01*
X52827458Y-43623928D01*
X52886473Y-43805556D01*
X52889776Y-43811278D01*
X52889777Y-43811279D01*
X52945619Y-43907999D01*
X52962500Y-43970999D01*
X52962500Y-49120001D01*
X52945619Y-49183000D01*
X52886473Y-49285444D01*
X52827458Y-49467072D01*
X52826768Y-49473633D01*
X52826768Y-49473635D01*
X52813193Y-49602793D01*
X52807496Y-49657000D01*
X51381874Y-49657000D01*
X51376319Y-49637510D01*
X51396861Y-49569550D01*
X51449065Y-49524314D01*
X51483284Y-49508358D01*
X51483289Y-49508355D01*
X51488271Y-49506032D01*
X51618255Y-49415016D01*
X51671311Y-49377866D01*
X51671314Y-49377864D01*
X51675822Y-49374707D01*
X51837720Y-49212809D01*
X51843559Y-49204471D01*
X51902705Y-49120001D01*
X51969045Y-49025258D01*
X51971368Y-49020276D01*
X51971371Y-49020271D01*
X52063483Y-48822734D01*
X52063483Y-48822733D01*
X52065806Y-48817752D01*
X52125065Y-48596596D01*
X52145020Y-48368509D01*
X52125065Y-48140422D01*
X52123641Y-48135107D01*
X52067229Y-47924576D01*
X52067228Y-47924574D01*
X52065806Y-47919266D01*
X52051383Y-47888335D01*
X51971371Y-47716747D01*
X51971368Y-47716742D01*
X51969045Y-47711760D01*
X51837720Y-47524209D01*
X51675822Y-47362311D01*
X51671314Y-47359154D01*
X51671311Y-47359152D01*
X51514370Y-47249261D01*
X51488271Y-47230986D01*
X51483289Y-47228663D01*
X51483284Y-47228660D01*
X51449065Y-47212704D01*
X51395780Y-47165787D01*
X51376319Y-47097510D01*
X51396861Y-47029550D01*
X51449065Y-46984314D01*
X51483284Y-46968358D01*
X51483289Y-46968355D01*
X51488271Y-46966032D01*
X51611657Y-46879636D01*
X51671311Y-46837866D01*
X51671314Y-46837864D01*
X51675822Y-46834707D01*
X51837720Y-46672809D01*
X51969045Y-46485258D01*
X51971368Y-46480276D01*
X51971371Y-46480271D01*
X52063483Y-46282734D01*
X52063483Y-46282733D01*
X52065806Y-46277752D01*
X52092345Y-46178710D01*
X52123641Y-46061911D01*
X52123641Y-46061909D01*
X52125065Y-46056596D01*
X52145020Y-45828509D01*
X52125065Y-45600422D01*
X52065806Y-45379266D01*
X52063483Y-45374284D01*
X51971371Y-45176747D01*
X51971368Y-45176742D01*
X51969045Y-45171760D01*
X51837720Y-44984209D01*
X51675822Y-44822311D01*
X51671314Y-44819154D01*
X51671311Y-44819152D01*
X51514370Y-44709261D01*
X51488271Y-44690986D01*
X51483289Y-44688663D01*
X51483284Y-44688660D01*
X51449065Y-44672704D01*
X51395780Y-44625787D01*
X51376319Y-44557510D01*
X51396861Y-44489550D01*
X51449065Y-44444314D01*
X51483284Y-44428358D01*
X51483289Y-44428355D01*
X51488271Y-44426032D01*
X51611657Y-44339636D01*
X51671311Y-44297866D01*
X51671314Y-44297864D01*
X51675822Y-44294707D01*
X51837720Y-44132809D01*
X51969045Y-43945258D01*
X51971368Y-43940276D01*
X51971371Y-43940271D01*
X52063483Y-43742734D01*
X52063483Y-43742733D01*
X52065806Y-43737752D01*
X52111260Y-43568119D01*
X52123641Y-43521911D01*
X52123641Y-43521909D01*
X52125065Y-43516596D01*
X52145020Y-43288509D01*
X52125065Y-43060422D01*
X52123641Y-43055107D01*
X52067229Y-42844576D01*
X52067228Y-42844574D01*
X52065806Y-42839266D01*
X52026575Y-42755134D01*
X51971371Y-42636747D01*
X51971368Y-42636742D01*
X51969045Y-42631760D01*
X51889948Y-42518798D01*
X51840879Y-42448720D01*
X51840877Y-42448717D01*
X51837720Y-42444209D01*
X51675822Y-42282311D01*
X51671314Y-42279154D01*
X51671311Y-42279152D01*
X51511965Y-42167577D01*
X51488271Y-42150986D01*
X51483289Y-42148663D01*
X51483284Y-42148660D01*
X51449065Y-42132704D01*
X51395780Y-42085787D01*
X51376319Y-42017510D01*
X51396861Y-41949550D01*
X51449065Y-41904314D01*
X51483284Y-41888358D01*
X51483289Y-41888355D01*
X51488271Y-41886032D01*
X51611657Y-41799636D01*
X51671311Y-41757866D01*
X51671314Y-41757864D01*
X51675822Y-41754707D01*
X51837720Y-41592809D01*
X51947695Y-41435749D01*
X52003152Y-41391421D01*
X52050908Y-41382020D01*
X60245926Y-41382020D01*
X60314047Y-41402022D01*
G37*
%TD.AperFunction*%
%TA.AperFunction,Conductor*%
G36*
X72651340Y-36850002D02*
G01*
X72697833Y-36903658D01*
X72707937Y-36973932D01*
X72678443Y-37038512D01*
X72643803Y-37064661D01*
X72644524Y-37065910D01*
X72639761Y-37068660D01*
X72634773Y-37070986D01*
X72584698Y-37106049D01*
X72451733Y-37199152D01*
X72451730Y-37199154D01*
X72447222Y-37202311D01*
X72285324Y-37364209D01*
X72153999Y-37551760D01*
X72151676Y-37556742D01*
X72151673Y-37556747D01*
X72059561Y-37754284D01*
X72057238Y-37759266D01*
X71997979Y-37980422D01*
X71978024Y-38208509D01*
X71997979Y-38436596D01*
X72057238Y-38657752D01*
X72059561Y-38662733D01*
X72059561Y-38662734D01*
X72151673Y-38860271D01*
X72151676Y-38860276D01*
X72153999Y-38865258D01*
X72285324Y-39052809D01*
X72447222Y-39214707D01*
X72451730Y-39217864D01*
X72451733Y-39217866D01*
X72511964Y-39260040D01*
X72634773Y-39346032D01*
X72639755Y-39348355D01*
X72639760Y-39348358D01*
X72673979Y-39364314D01*
X72727264Y-39411231D01*
X72746725Y-39479508D01*
X72726183Y-39547468D01*
X72673979Y-39592704D01*
X72639760Y-39608660D01*
X72639755Y-39608663D01*
X72634773Y-39610986D01*
X72552922Y-39668299D01*
X72451733Y-39739152D01*
X72451730Y-39739154D01*
X72447222Y-39742311D01*
X72285324Y-39904209D01*
X72153999Y-40091760D01*
X72151676Y-40096742D01*
X72151673Y-40096747D01*
X72072518Y-40266498D01*
X72057238Y-40299266D01*
X72055816Y-40304574D01*
X72055815Y-40304576D01*
X72038636Y-40368688D01*
X71997979Y-40520422D01*
X71978024Y-40748509D01*
X71997979Y-40976596D01*
X71999403Y-40981909D01*
X71999403Y-40981911D01*
X72040067Y-41133668D01*
X72057238Y-41197752D01*
X72059561Y-41202733D01*
X72059561Y-41202734D01*
X72151673Y-41400271D01*
X72151676Y-41400276D01*
X72153999Y-41405258D01*
X72285324Y-41592809D01*
X72447222Y-41754707D01*
X72451730Y-41757864D01*
X72451733Y-41757866D01*
X72511387Y-41799636D01*
X72634773Y-41886032D01*
X72639755Y-41888355D01*
X72639760Y-41888358D01*
X72673979Y-41904314D01*
X72727264Y-41951231D01*
X72746725Y-42019508D01*
X72726183Y-42087468D01*
X72673979Y-42132704D01*
X72639760Y-42148660D01*
X72639755Y-42148663D01*
X72634773Y-42150986D01*
X72611079Y-42167577D01*
X72451733Y-42279152D01*
X72451730Y-42279154D01*
X72447222Y-42282311D01*
X72285324Y-42444209D01*
X72282167Y-42448717D01*
X72282165Y-42448720D01*
X72233096Y-42518798D01*
X72153999Y-42631760D01*
X72151676Y-42636742D01*
X72151673Y-42636747D01*
X72096469Y-42755134D01*
X72057238Y-42839266D01*
X72055816Y-42844574D01*
X72055815Y-42844576D01*
X71999403Y-43055107D01*
X71997979Y-43060422D01*
X71978024Y-43288509D01*
X71997979Y-43516596D01*
X71999403Y-43521909D01*
X71999403Y-43521911D01*
X72011785Y-43568119D01*
X72057238Y-43737752D01*
X72059561Y-43742733D01*
X72059561Y-43742734D01*
X72151673Y-43940271D01*
X72151676Y-43940276D01*
X72153999Y-43945258D01*
X72285324Y-44132809D01*
X72447222Y-44294707D01*
X72451730Y-44297864D01*
X72451733Y-44297866D01*
X72511387Y-44339636D01*
X72634773Y-44426032D01*
X72639755Y-44428355D01*
X72639760Y-44428358D01*
X72673979Y-44444314D01*
X72727264Y-44491231D01*
X72746725Y-44559508D01*
X72726183Y-44627468D01*
X72673979Y-44672704D01*
X72639760Y-44688660D01*
X72639755Y-44688663D01*
X72634773Y-44690986D01*
X72608674Y-44709261D01*
X72451733Y-44819152D01*
X72451730Y-44819154D01*
X72447222Y-44822311D01*
X72285324Y-44984209D01*
X72153999Y-45171760D01*
X72151676Y-45176742D01*
X72151673Y-45176747D01*
X72059561Y-45374284D01*
X72057238Y-45379266D01*
X71997979Y-45600422D01*
X71978024Y-45828509D01*
X71997979Y-46056596D01*
X71999403Y-46061909D01*
X71999403Y-46061911D01*
X72030700Y-46178710D01*
X72057238Y-46277752D01*
X72059561Y-46282733D01*
X72059561Y-46282734D01*
X72151673Y-46480271D01*
X72151676Y-46480276D01*
X72153999Y-46485258D01*
X72285324Y-46672809D01*
X72447222Y-46834707D01*
X72451730Y-46837864D01*
X72451733Y-46837866D01*
X72511387Y-46879636D01*
X72634773Y-46966032D01*
X72639755Y-46968355D01*
X72639760Y-46968358D01*
X72673979Y-46984314D01*
X72727264Y-47031231D01*
X72746725Y-47099508D01*
X72726183Y-47167468D01*
X72673979Y-47212704D01*
X72639760Y-47228660D01*
X72639755Y-47228663D01*
X72634773Y-47230986D01*
X72608674Y-47249261D01*
X72451733Y-47359152D01*
X72451730Y-47359154D01*
X72447222Y-47362311D01*
X72285324Y-47524209D01*
X72153999Y-47711760D01*
X72151676Y-47716742D01*
X72151673Y-47716747D01*
X72071661Y-47888335D01*
X72057238Y-47919266D01*
X72055816Y-47924574D01*
X72055815Y-47924576D01*
X71999403Y-48135107D01*
X71997979Y-48140422D01*
X71978024Y-48368509D01*
X71997979Y-48596596D01*
X72057238Y-48817752D01*
X72059561Y-48822733D01*
X72059561Y-48822734D01*
X72151673Y-49020271D01*
X72151676Y-49020276D01*
X72153999Y-49025258D01*
X72220339Y-49120001D01*
X72279486Y-49204471D01*
X72285324Y-49212809D01*
X72447222Y-49374707D01*
X72451730Y-49377864D01*
X72451733Y-49377866D01*
X72504789Y-49415016D01*
X72634773Y-49506032D01*
X72639755Y-49508355D01*
X72639760Y-49508358D01*
X72673979Y-49524314D01*
X72727264Y-49571231D01*
X72746725Y-49639508D01*
X72726183Y-49707468D01*
X72673979Y-49752704D01*
X72639760Y-49768660D01*
X72639755Y-49768663D01*
X72634773Y-49770986D01*
X72574387Y-49813269D01*
X72451733Y-49899152D01*
X72451730Y-49899154D01*
X72447222Y-49902311D01*
X72285324Y-50064209D01*
X72153999Y-50251760D01*
X72151676Y-50256742D01*
X72151673Y-50256747D01*
X72117070Y-50330955D01*
X72057238Y-50459266D01*
X72055816Y-50464574D01*
X72055815Y-50464576D01*
X72000498Y-50671022D01*
X71997979Y-50680422D01*
X71978024Y-50908509D01*
X71978503Y-50913984D01*
X71978503Y-50913985D01*
X71982522Y-50959926D01*
X71968532Y-51029531D01*
X71919133Y-51080523D01*
X71850007Y-51096713D01*
X71783101Y-51072960D01*
X71767906Y-51060002D01*
X66541889Y-45833984D01*
X61064172Y-40356267D01*
X61056632Y-40347981D01*
X61052520Y-40341502D01*
X61002868Y-40294876D01*
X61000027Y-40292122D01*
X60980290Y-40272385D01*
X60977093Y-40269905D01*
X60968071Y-40262200D01*
X60941620Y-40237361D01*
X60935841Y-40231934D01*
X60928895Y-40228115D01*
X60928892Y-40228113D01*
X60918086Y-40222172D01*
X60901567Y-40211321D01*
X60901103Y-40210961D01*
X60885561Y-40198906D01*
X60878292Y-40195761D01*
X60878288Y-40195758D01*
X60844983Y-40181346D01*
X60834333Y-40176129D01*
X60795580Y-40154825D01*
X60775957Y-40149787D01*
X60757254Y-40143383D01*
X60745940Y-40138487D01*
X60745939Y-40138487D01*
X60738665Y-40135339D01*
X60730842Y-40134100D01*
X60730832Y-40134097D01*
X60694996Y-40128421D01*
X60683376Y-40126015D01*
X60648231Y-40116992D01*
X60648230Y-40116992D01*
X60640550Y-40115020D01*
X60620296Y-40115020D01*
X60600585Y-40113469D01*
X60588406Y-40111540D01*
X60580577Y-40110300D01*
X60536697Y-40114448D01*
X60536559Y-40114461D01*
X60524701Y-40115020D01*
X52050923Y-40115020D01*
X51982802Y-40095018D01*
X51947710Y-40061291D01*
X51840879Y-39908720D01*
X51840877Y-39908717D01*
X51837720Y-39904209D01*
X51808887Y-39875376D01*
X51774861Y-39813064D01*
X51779926Y-39742249D01*
X51822473Y-39685413D01*
X51853754Y-39668299D01*
X51869815Y-39662278D01*
X51869818Y-39662276D01*
X51878227Y-39659124D01*
X51994783Y-39571770D01*
X52082137Y-39455214D01*
X52133267Y-39318825D01*
X52140022Y-39256643D01*
X52140022Y-37160375D01*
X52133267Y-37098193D01*
X52096542Y-37000229D01*
X52091359Y-36929423D01*
X52125280Y-36867054D01*
X52187535Y-36832924D01*
X52214524Y-36830000D01*
X72583219Y-36830000D01*
X72651340Y-36850002D01*
G37*
%TD.AperFunction*%
%TD*%
M02*
