%TF.GenerationSoftware,KiCad,Pcbnew,(6.0.2)*%
%TF.CreationDate,2022-05-25T22:27:01-04:00*%
%TF.ProjectId,breakout_slime,62726561-6b6f-4757-945f-736c696d652e,v0.1.4*%
%TF.SameCoordinates,Original*%
%TF.FileFunction,Copper,L1,Top*%
%TF.FilePolarity,Positive*%
%FSLAX46Y46*%
G04 Gerber Fmt 4.6, Leading zero omitted, Abs format (unit mm)*
G04 Created by KiCad (PCBNEW (6.0.2)) date 2022-05-25 22:27:01*
%MOMM*%
%LPD*%
G01*
G04 APERTURE LIST*
G04 Aperture macros list*
%AMRoundRect*
0 Rectangle with rounded corners*
0 $1 Rounding radius*
0 $2 $3 $4 $5 $6 $7 $8 $9 X,Y pos of 4 corners*
0 Add a 4 corners polygon primitive as box body*
4,1,4,$2,$3,$4,$5,$6,$7,$8,$9,$2,$3,0*
0 Add four circle primitives for the rounded corners*
1,1,$1+$1,$2,$3*
1,1,$1+$1,$4,$5*
1,1,$1+$1,$6,$7*
1,1,$1+$1,$8,$9*
0 Add four rect primitives between the rounded corners*
20,1,$1+$1,$2,$3,$4,$5,0*
20,1,$1+$1,$4,$5,$6,$7,0*
20,1,$1+$1,$6,$7,$8,$9,0*
20,1,$1+$1,$8,$9,$2,$3,0*%
G04 Aperture macros list end*
%TA.AperFunction,ComponentPad*%
%ADD10C,1.600000*%
%TD*%
%TA.AperFunction,ComponentPad*%
%ADD11O,1.600000X1.600000*%
%TD*%
%TA.AperFunction,ComponentPad*%
%ADD12C,1.651000*%
%TD*%
%TA.AperFunction,ComponentPad*%
%ADD13R,1.651000X1.651000*%
%TD*%
%TA.AperFunction,ComponentPad*%
%ADD14R,2.000000X2.000000*%
%TD*%
%TA.AperFunction,ComponentPad*%
%ADD15O,2.000000X1.600000*%
%TD*%
%TA.AperFunction,ComponentPad*%
%ADD16R,2.200000X2.200000*%
%TD*%
%TA.AperFunction,ComponentPad*%
%ADD17O,2.200000X2.200000*%
%TD*%
%TA.AperFunction,ComponentPad*%
%ADD18RoundRect,0.250000X0.350000X0.625000X-0.350000X0.625000X-0.350000X-0.625000X0.350000X-0.625000X0*%
%TD*%
%TA.AperFunction,ComponentPad*%
%ADD19O,1.200000X1.750000*%
%TD*%
%TA.AperFunction,ComponentPad*%
%ADD20O,2.200000X3.500000*%
%TD*%
%TA.AperFunction,ComponentPad*%
%ADD21R,1.500000X2.500000*%
%TD*%
%TA.AperFunction,ComponentPad*%
%ADD22O,1.500000X2.500000*%
%TD*%
%TA.AperFunction,ComponentPad*%
%ADD23RoundRect,0.250000X-0.625000X0.350000X-0.625000X-0.350000X0.625000X-0.350000X0.625000X0.350000X0*%
%TD*%
%TA.AperFunction,ComponentPad*%
%ADD24O,1.750000X1.200000*%
%TD*%
%TA.AperFunction,ViaPad*%
%ADD25C,0.800000*%
%TD*%
%TA.AperFunction,Conductor*%
%ADD26C,0.500000*%
%TD*%
%TA.AperFunction,Conductor*%
%ADD27C,0.250000*%
%TD*%
G04 APERTURE END LIST*
D10*
%TO.P,R1,1*%
%TO.N,Net-(R1-Pad1)*%
X76673634Y-57293815D03*
D11*
%TO.P,R1,2*%
%TO.N,B+*%
X76673634Y-47133815D03*
%TD*%
D12*
%TO.P,U3,*%
%TO.N,*%
X102206037Y-62860969D03*
X99793037Y-62860969D03*
D13*
%TO.P,U3,1,VCC*%
%TO.N,+3V3*%
X79346037Y-62860969D03*
D12*
%TO.P,U3,2,GND*%
%TO.N,GND*%
X81886037Y-62860969D03*
%TO.P,U3,3,SCL*%
%TO.N,SCL*%
X84426037Y-62860969D03*
%TO.P,U3,4,SDA*%
%TO.N,SDA*%
X86966037Y-62860969D03*
%TO.P,U3,5,AD0_BNO/INT_ICM*%
%TO.N,Net-(JP1-Pad1)*%
X89506037Y-62860969D03*
%TO.P,U3,6,AD0_ICM*%
%TO.N,unconnected-(U3-Pad6)*%
X92046037Y-62860969D03*
%TO.P,U3,7,INT_BNO/AD0_MPU*%
%TO.N,INT1*%
X94586037Y-62860969D03*
%TO.P,U3,8,INT_MPU*%
%TO.N,unconnected-(U3-Pad8)*%
X97126037Y-62860969D03*
%TD*%
D14*
%TO.P,U2,1,~{RST}*%
%TO.N,unconnected-(U2-Pad1)*%
X50631522Y-38208509D03*
D15*
%TO.P,U2,2,A0*%
%TO.N,Net-(R1-Pad1)*%
X50631522Y-40748509D03*
%TO.P,U2,3,D0*%
%TO.N,unconnected-(U2-Pad3)*%
X50631522Y-43288509D03*
%TO.P,U2,4,SCK/D5*%
%TO.N,INT1*%
X50631522Y-45828509D03*
%TO.P,U2,5,MISO/D6*%
%TO.N,INT2*%
X50631522Y-48368509D03*
%TO.P,U2,6,MOSI/D7*%
%TO.N,unconnected-(U2-Pad6)*%
X50631522Y-50908509D03*
%TO.P,U2,7,CS/D8*%
%TO.N,unconnected-(U2-Pad7)*%
X50631522Y-53448509D03*
%TO.P,U2,8,3V3*%
%TO.N,+3V3*%
X50631522Y-55988509D03*
%TO.P,U2,9,5V*%
%TO.N,+5V*%
X73491522Y-55988509D03*
%TO.P,U2,10,GND*%
%TO.N,GND*%
X73491522Y-53448509D03*
%TO.P,U2,11,D4*%
%TO.N,unconnected-(U2-Pad11)*%
X73491522Y-50908509D03*
%TO.P,U2,12,D3*%
%TO.N,unconnected-(U2-Pad12)*%
X73491522Y-48368509D03*
%TO.P,U2,13,SDA/D2*%
%TO.N,SDA*%
X73491522Y-45828509D03*
%TO.P,U2,14,SCL/D1*%
%TO.N,SCL*%
X73491522Y-43288509D03*
%TO.P,U2,15,RX*%
%TO.N,unconnected-(U2-Pad15)*%
X73491522Y-40748509D03*
%TO.P,U2,16,TX*%
%TO.N,unconnected-(U2-Pad16)*%
X73491522Y-38208509D03*
%TD*%
D14*
%TO.P,U1,1,In+*%
%TO.N,Net-(D1-Pad2)*%
X101641015Y-44670579D03*
%TO.P,U1,2,In-*%
%TO.N,unconnected-(U1-Pad2)*%
X101641015Y-30700579D03*
%TO.P,U1,3,Out-*%
%TO.N,Net-(SW1-Pad3)*%
X78781015Y-30700579D03*
%TO.P,U1,4,B-*%
%TO.N,Net-(J1-Pad2)*%
X78781015Y-33748579D03*
%TO.P,U1,5,B+*%
%TO.N,B+*%
X78781015Y-41622579D03*
%TO.P,U1,6,Out+*%
%TO.N,Net-(D2-Pad2)*%
X78781015Y-44670579D03*
%TD*%
D16*
%TO.P,D2,1,K*%
%TO.N,+5V*%
X89770520Y-56750520D03*
D17*
%TO.P,D2,2,A*%
%TO.N,Net-(D2-Pad2)*%
X79610520Y-56750520D03*
%TD*%
D18*
%TO.P,J2,1,Pin_1*%
%TO.N,SDA*%
X75311000Y-60325000D03*
D19*
%TO.P,J2,2,Pin_2*%
%TO.N,+3V3*%
X73311000Y-60325000D03*
%TO.P,J2,3,Pin_3*%
%TO.N,INT2*%
X71311000Y-60325000D03*
%TO.P,J2,4,Pin_4*%
%TO.N,GND*%
X69311000Y-60325000D03*
%TO.P,J2,5,Pin_5*%
%TO.N,SCL*%
X67311000Y-60325000D03*
%TD*%
D16*
%TO.P,D1,1,K*%
%TO.N,+5V*%
X89789000Y-60071000D03*
D17*
%TO.P,D1,2,A*%
%TO.N,Net-(D1-Pad2)*%
X79629000Y-60071000D03*
%TD*%
D20*
%TO.P,SW1,*%
%TO.N,*%
X58674000Y-60814509D03*
X50474000Y-60814509D03*
D21*
%TO.P,SW1,1,A*%
%TO.N,unconnected-(SW1-Pad1)*%
X56574000Y-60814509D03*
D22*
%TO.P,SW1,2,B*%
%TO.N,GND*%
X54574000Y-60814509D03*
%TO.P,SW1,3,C*%
%TO.N,Net-(SW1-Pad3)*%
X52574000Y-60814509D03*
%TD*%
D23*
%TO.P,J1,1,Pin_1*%
%TO.N,B+*%
X96266000Y-57547000D03*
D24*
%TO.P,J1,2,Pin_2*%
%TO.N,Net-(J1-Pad2)*%
X96266000Y-59547000D03*
%TD*%
D25*
%TO.N,Net-(D1-Pad2)*%
X88754520Y-49130520D03*
X84201000Y-57277000D03*
%TO.N,+3V3*%
X69196520Y-51416520D03*
%TO.N,GND*%
X92457105Y-60374427D03*
X76200000Y-50800000D03*
X99060000Y-38100000D03*
X70993000Y-56515000D03*
X51943000Y-52197000D03*
X93980000Y-43180000D03*
X51803147Y-57892192D03*
X93980000Y-33020000D03*
X88900000Y-33020000D03*
X87249000Y-58166000D03*
X86360000Y-43180000D03*
X101600000Y-53340000D03*
X68580000Y-40640000D03*
X71374000Y-39370000D03*
X66040000Y-48260000D03*
X84836000Y-60071000D03*
X63500000Y-45720000D03*
X70612000Y-53086000D03*
X61879222Y-62372795D03*
X81280000Y-43180000D03*
X81280000Y-38100000D03*
X96520000Y-48260000D03*
X93980000Y-38100000D03*
X99060000Y-58420000D03*
X79654400Y-53340000D03*
X55372000Y-47117000D03*
X75946000Y-31877000D03*
X88900000Y-38100000D03*
X88900000Y-53340000D03*
X101600000Y-48260000D03*
X75946000Y-38354000D03*
X55880000Y-43180000D03*
X53848000Y-38100000D03*
X99060000Y-33020000D03*
X86360000Y-48260000D03*
X63500000Y-40640000D03*
X99060000Y-43180000D03*
X72390000Y-61976000D03*
X58191400Y-57277000D03*
X61932100Y-56681339D03*
X83820000Y-33020000D03*
X75641034Y-62954936D03*
X95614624Y-52385288D03*
X70054757Y-48254103D03*
X77216000Y-60833000D03*
X81280000Y-48260000D03*
X55880000Y-53340000D03*
X58420000Y-43180000D03*
X60960000Y-50800000D03*
X83820000Y-45720000D03*
X74676000Y-44577000D03*
X83820000Y-50800000D03*
X68580000Y-45720000D03*
%TO.N,SCL*%
X66675000Y-56388000D03*
%TO.N,INT1*%
X65386520Y-51670520D03*
%TO.N,Net-(R1-Pad1)*%
X76816520Y-52686520D03*
%TO.N,Net-(SW1-Pad3)*%
X53721000Y-43434000D03*
X53721000Y-49657000D03*
%TD*%
D26*
%TO.N,+5V*%
X78613000Y-58420000D02*
X78105000Y-58928000D01*
X89416230Y-56396230D02*
X82795770Y-56396230D01*
X80772000Y-58420000D02*
X78613000Y-58420000D01*
X74676000Y-57172987D02*
X73491522Y-55988509D01*
X82795770Y-56396230D02*
X80772000Y-58420000D01*
X78105000Y-58928000D02*
X75819000Y-58928000D01*
X89770520Y-56750520D02*
X89770520Y-60052520D01*
X75819000Y-58928000D02*
X74676000Y-57785000D01*
X74676000Y-57785000D02*
X74676000Y-57172987D01*
%TO.N,Net-(D1-Pad2)*%
X84201000Y-57277000D02*
X83693000Y-57277000D01*
X93214450Y-44670590D02*
X88754520Y-49130520D01*
X83693000Y-57277000D02*
X80917480Y-60052520D01*
X101641026Y-44670590D02*
X93214450Y-44670590D01*
X80917480Y-60052520D02*
X79610520Y-60052520D01*
D27*
%TO.N,SDA*%
X91313000Y-61396022D02*
X90998064Y-61710958D01*
X71755000Y-47565040D02*
X73491520Y-45828520D01*
X78594520Y-49384520D02*
X83439000Y-54229000D01*
X90998064Y-61710958D02*
X87411974Y-61710958D01*
X73152000Y-57531000D02*
X71755000Y-56134000D01*
X91313000Y-55443978D02*
X91313000Y-61396022D01*
X90098022Y-54229000D02*
X91313000Y-55443978D01*
X76816520Y-49384520D02*
X78594520Y-49384520D01*
X73160614Y-57531000D02*
X73152000Y-57531000D01*
X87411974Y-61710958D02*
X86614000Y-62508932D01*
X73491520Y-46059520D02*
X76816520Y-49384520D01*
X83439000Y-54229000D02*
X90098022Y-54229000D01*
X75311000Y-59681386D02*
X73160614Y-57531000D01*
X71755000Y-56134000D02*
X71755000Y-47565040D01*
D26*
%TO.N,+3V3*%
X69215000Y-56007000D02*
X73311000Y-60103000D01*
X69215000Y-51435000D02*
X69215000Y-56007000D01*
X69196520Y-51416520D02*
X69215000Y-51435000D01*
D27*
%TO.N,INT2*%
X50631520Y-48368520D02*
X57004520Y-48368520D01*
X59798520Y-57004520D02*
X61068520Y-58274520D01*
X59798520Y-51162520D02*
X59798520Y-57004520D01*
X68942520Y-58274520D02*
X70993000Y-60325000D01*
X57004520Y-48368520D02*
X59798520Y-51162520D01*
X61068520Y-58274520D02*
X68942520Y-58274520D01*
D26*
%TO.N,GND*%
X75946000Y-38354000D02*
X74841971Y-39458029D01*
X74841971Y-39458029D02*
X71462029Y-39458029D01*
X71462029Y-39458029D02*
X71374000Y-39370000D01*
D27*
%TO.N,SCL*%
X74833356Y-62738000D02*
X75860398Y-61710958D01*
X66802000Y-56261000D02*
X66802000Y-49978040D01*
X75860398Y-61710958D02*
X83276026Y-61710958D01*
X71382614Y-62738000D02*
X74833356Y-62738000D01*
X83276026Y-61710958D02*
X84426048Y-62860980D01*
X66802000Y-49978040D02*
X73491520Y-43288520D01*
X66675000Y-56388000D02*
X66802000Y-56261000D01*
X67311000Y-60325000D02*
X67311000Y-61858614D01*
X67311000Y-61858614D02*
X68190386Y-62738000D01*
X68190386Y-62738000D02*
X71374000Y-62738000D01*
%TO.N,INT1*%
X74320400Y-42011600D02*
X76962000Y-44653200D01*
X65132520Y-51416520D02*
X65386520Y-51670520D01*
X76962000Y-44653200D02*
X76962000Y-45500586D01*
X93091000Y-54610000D02*
X93091000Y-58293000D01*
X63361440Y-42011600D02*
X74320400Y-42011600D01*
X88119520Y-49638520D02*
X93091000Y-54610000D01*
X76962000Y-45500586D02*
X81099934Y-49638520D01*
X50631520Y-45828520D02*
X59544520Y-45828520D01*
X81099934Y-49638520D02*
X88119520Y-49638520D01*
X93091000Y-58293000D02*
X94586048Y-59788048D01*
X59544520Y-45828520D02*
X65132520Y-51416520D01*
X59544520Y-45828520D02*
X63361440Y-42011600D01*
X94586048Y-59788048D02*
X94586048Y-62860980D01*
%TO.N,Net-(R1-Pad1)*%
X76816520Y-57258520D02*
X76816520Y-52686520D01*
D26*
%TO.N,Net-(SW1-Pad3)*%
X76581000Y-35433000D02*
X76581000Y-32900594D01*
X72517000Y-36957000D02*
X75057000Y-36957000D01*
X76581000Y-32900594D02*
X78781015Y-30700579D01*
X52750509Y-58247491D02*
X52750509Y-60814509D01*
X70866000Y-38608000D02*
X72517000Y-36957000D01*
X53721000Y-57277000D02*
X52750509Y-58247491D01*
X56896000Y-38608000D02*
X70866000Y-38608000D01*
X53721000Y-41783000D02*
X56896000Y-38608000D01*
X53721000Y-49657000D02*
X53721000Y-57277000D01*
X75057000Y-36957000D02*
X76581000Y-35433000D01*
X53721000Y-43434000D02*
X53721000Y-41783000D01*
%TD*%
%TA.AperFunction,Conductor*%
%TO.N,GND*%
G36*
X56758047Y-49022022D02*
G01*
X56779021Y-49038925D01*
X59128115Y-51388019D01*
X59162141Y-51450331D01*
X59165020Y-51477114D01*
X59165020Y-56925753D01*
X59164493Y-56936936D01*
X59162818Y-56944429D01*
X59163067Y-56952355D01*
X59163067Y-56952356D01*
X59164958Y-57012506D01*
X59165020Y-57016465D01*
X59165020Y-57044376D01*
X59165517Y-57048310D01*
X59165517Y-57048311D01*
X59165525Y-57048376D01*
X59166458Y-57060213D01*
X59167847Y-57104409D01*
X59173212Y-57122875D01*
X59173498Y-57123859D01*
X59177507Y-57143220D01*
X59180046Y-57163317D01*
X59182965Y-57170688D01*
X59182965Y-57170690D01*
X59196324Y-57204432D01*
X59200169Y-57215662D01*
X59212502Y-57258113D01*
X59216535Y-57264932D01*
X59216537Y-57264937D01*
X59222813Y-57275548D01*
X59231508Y-57293296D01*
X59238968Y-57312137D01*
X59243630Y-57318553D01*
X59243630Y-57318554D01*
X59264956Y-57347907D01*
X59271472Y-57357827D01*
X59293978Y-57395882D01*
X59308299Y-57410203D01*
X59321139Y-57425236D01*
X59333048Y-57441627D01*
X59339154Y-57446678D01*
X59367125Y-57469818D01*
X59375904Y-57477808D01*
X60564863Y-58666767D01*
X60572407Y-58675057D01*
X60576520Y-58681538D01*
X60582297Y-58686963D01*
X60626187Y-58728178D01*
X60629029Y-58730933D01*
X60648750Y-58750654D01*
X60651945Y-58753132D01*
X60660967Y-58760838D01*
X60693199Y-58791106D01*
X60700148Y-58794926D01*
X60710952Y-58800866D01*
X60727476Y-58811719D01*
X60743479Y-58824133D01*
X60784063Y-58841696D01*
X60794693Y-58846903D01*
X60833460Y-58868215D01*
X60841137Y-58870186D01*
X60841142Y-58870188D01*
X60853078Y-58873252D01*
X60871786Y-58879657D01*
X60890375Y-58887701D01*
X60898203Y-58888941D01*
X60898210Y-58888943D01*
X60934044Y-58894619D01*
X60945664Y-58897025D01*
X60976509Y-58904944D01*
X60988490Y-58908020D01*
X61008744Y-58908020D01*
X61028454Y-58909571D01*
X61048463Y-58912740D01*
X61056355Y-58911994D01*
X61092481Y-58908579D01*
X61104339Y-58908020D01*
X66609543Y-58908020D01*
X66677664Y-58928022D01*
X66724157Y-58981678D01*
X66734261Y-59051952D01*
X66704767Y-59116532D01*
X66682443Y-59136790D01*
X66583389Y-59207054D01*
X66437119Y-59359850D01*
X66322380Y-59537548D01*
X66320137Y-59543114D01*
X66272489Y-59661345D01*
X66243314Y-59733737D01*
X66202772Y-59941337D01*
X66202500Y-59946899D01*
X66202500Y-60652846D01*
X66217548Y-60810566D01*
X66277092Y-61013534D01*
X66279836Y-61018861D01*
X66279836Y-61018862D01*
X66370230Y-61194372D01*
X66373942Y-61201580D01*
X66504604Y-61367920D01*
X66634082Y-61480275D01*
X66672421Y-61540027D01*
X66677500Y-61575439D01*
X66677500Y-61779847D01*
X66676973Y-61791030D01*
X66675298Y-61798523D01*
X66675547Y-61806449D01*
X66675547Y-61806450D01*
X66677438Y-61866600D01*
X66677500Y-61870559D01*
X66677500Y-61898470D01*
X66677997Y-61902404D01*
X66677997Y-61902405D01*
X66678005Y-61902470D01*
X66678938Y-61914307D01*
X66680327Y-61958503D01*
X66685978Y-61977953D01*
X66689987Y-61997314D01*
X66690354Y-62000215D01*
X66692526Y-62017411D01*
X66695445Y-62024782D01*
X66695445Y-62024784D01*
X66708804Y-62058526D01*
X66712649Y-62069756D01*
X66722743Y-62104500D01*
X66724982Y-62112207D01*
X66729015Y-62119026D01*
X66729017Y-62119031D01*
X66735293Y-62129642D01*
X66743988Y-62147390D01*
X66751448Y-62166231D01*
X66756110Y-62172647D01*
X66756110Y-62172648D01*
X66777436Y-62202001D01*
X66783952Y-62211921D01*
X66794929Y-62230481D01*
X66806458Y-62249976D01*
X66820779Y-62264297D01*
X66833619Y-62279330D01*
X66845528Y-62295721D01*
X66851634Y-62300772D01*
X66879605Y-62323912D01*
X66888384Y-62331902D01*
X67686729Y-63130247D01*
X67694273Y-63138537D01*
X67698386Y-63145018D01*
X67704163Y-63150443D01*
X67748053Y-63191658D01*
X67750895Y-63194413D01*
X67770617Y-63214135D01*
X67773741Y-63216558D01*
X67773745Y-63216562D01*
X67773810Y-63216612D01*
X67782831Y-63224317D01*
X67815065Y-63254586D01*
X67822013Y-63258405D01*
X67822015Y-63258407D01*
X67832818Y-63264346D01*
X67849345Y-63275202D01*
X67859084Y-63282757D01*
X67859086Y-63282758D01*
X67865346Y-63287614D01*
X67905926Y-63305174D01*
X67916574Y-63310391D01*
X67941362Y-63324018D01*
X67955326Y-63331695D01*
X67963002Y-63333666D01*
X67963005Y-63333667D01*
X67974948Y-63336733D01*
X67993653Y-63343137D01*
X68012241Y-63351181D01*
X68020064Y-63352420D01*
X68020074Y-63352423D01*
X68055910Y-63358099D01*
X68067530Y-63360505D01*
X68099345Y-63368673D01*
X68110356Y-63371500D01*
X68130610Y-63371500D01*
X68150320Y-63373051D01*
X68170329Y-63376220D01*
X68178221Y-63375474D01*
X68196966Y-63373702D01*
X68214348Y-63372059D01*
X68226205Y-63371500D01*
X74754589Y-63371500D01*
X74765772Y-63372027D01*
X74773265Y-63373702D01*
X74781191Y-63373453D01*
X74781192Y-63373453D01*
X74841342Y-63371562D01*
X74845301Y-63371500D01*
X74873212Y-63371500D01*
X74877147Y-63371003D01*
X74877212Y-63370995D01*
X74889049Y-63370062D01*
X74921307Y-63369048D01*
X74925326Y-63368922D01*
X74933245Y-63368673D01*
X74952699Y-63363021D01*
X74972056Y-63359013D01*
X74984286Y-63357468D01*
X74984287Y-63357468D01*
X74992153Y-63356474D01*
X74999524Y-63353555D01*
X74999526Y-63353555D01*
X75033268Y-63340196D01*
X75044498Y-63336351D01*
X75079339Y-63326229D01*
X75079340Y-63326229D01*
X75086949Y-63324018D01*
X75093768Y-63319985D01*
X75093773Y-63319983D01*
X75104384Y-63313707D01*
X75122132Y-63305012D01*
X75140973Y-63297552D01*
X75176743Y-63271564D01*
X75186663Y-63265048D01*
X75217891Y-63246580D01*
X75217894Y-63246578D01*
X75224718Y-63242542D01*
X75239039Y-63228221D01*
X75254073Y-63215380D01*
X75255787Y-63214135D01*
X75270463Y-63203472D01*
X75275513Y-63197368D01*
X75275518Y-63197363D01*
X75298649Y-63169402D01*
X75306639Y-63160621D01*
X76085899Y-62381362D01*
X76148211Y-62347337D01*
X76174994Y-62344458D01*
X77886037Y-62344458D01*
X77954158Y-62364460D01*
X78000651Y-62418116D01*
X78012037Y-62470458D01*
X78012037Y-63628000D01*
X77992035Y-63696121D01*
X77938379Y-63742614D01*
X77886037Y-63754000D01*
X49529000Y-63754000D01*
X49460879Y-63733998D01*
X49414386Y-63680342D01*
X49403000Y-63628000D01*
X49403000Y-62919683D01*
X49423002Y-62851562D01*
X49476658Y-62805069D01*
X49546932Y-62794965D01*
X49594835Y-62812250D01*
X49737278Y-62899539D01*
X49741498Y-62902125D01*
X49746068Y-62904018D01*
X49746072Y-62904020D01*
X49970836Y-62997120D01*
X49975409Y-62999014D01*
X50060032Y-63019330D01*
X50216784Y-63056963D01*
X50216790Y-63056964D01*
X50221597Y-63058118D01*
X50474000Y-63077983D01*
X50726403Y-63058118D01*
X50731210Y-63056964D01*
X50731216Y-63056963D01*
X50887968Y-63019330D01*
X50972591Y-62999014D01*
X50977164Y-62997120D01*
X51201928Y-62904020D01*
X51201932Y-62904018D01*
X51206502Y-62902125D01*
X51422376Y-62769837D01*
X51614898Y-62605407D01*
X51769383Y-62424529D01*
X51828834Y-62385720D01*
X51899828Y-62385214D01*
X51935466Y-62401776D01*
X51965262Y-62421799D01*
X52170967Y-62512097D01*
X52176418Y-62513406D01*
X52176422Y-62513407D01*
X52383954Y-62563231D01*
X52389411Y-62564541D01*
X52473475Y-62569388D01*
X52608083Y-62577149D01*
X52608086Y-62577149D01*
X52613690Y-62577472D01*
X52836715Y-62550484D01*
X53051435Y-62484427D01*
X53056415Y-62481857D01*
X53056419Y-62481855D01*
X53246081Y-62383963D01*
X53246082Y-62383963D01*
X53251064Y-62381391D01*
X53256065Y-62377554D01*
X53325972Y-62323912D01*
X53429292Y-62244632D01*
X53433058Y-62240493D01*
X53433068Y-62240484D01*
X53480818Y-62188007D01*
X53541458Y-62151085D01*
X53612434Y-62152808D01*
X53661696Y-62182323D01*
X53775082Y-62292202D01*
X53783779Y-62299244D01*
X53960844Y-62418228D01*
X53970642Y-62423614D01*
X54165990Y-62509366D01*
X54176582Y-62512931D01*
X54302384Y-62543133D01*
X54316470Y-62542428D01*
X54320000Y-62533549D01*
X54320000Y-62532920D01*
X54828000Y-62532920D01*
X54832105Y-62546902D01*
X54841728Y-62548395D01*
X54841973Y-62548343D01*
X55045883Y-62485611D01*
X55056229Y-62481390D01*
X55245814Y-62383538D01*
X55255243Y-62377554D01*
X55260715Y-62373355D01*
X55326936Y-62347756D01*
X55396485Y-62362022D01*
X55438242Y-62397752D01*
X55460739Y-62427770D01*
X55577295Y-62515124D01*
X55713684Y-62566254D01*
X55775866Y-62573009D01*
X57372134Y-62573009D01*
X57375529Y-62572640D01*
X57375533Y-62572640D01*
X57428586Y-62566877D01*
X57498469Y-62579406D01*
X57530760Y-62602664D01*
X57533102Y-62605407D01*
X57725624Y-62769837D01*
X57941498Y-62902125D01*
X57946068Y-62904018D01*
X57946072Y-62904020D01*
X58170836Y-62997120D01*
X58175409Y-62999014D01*
X58260032Y-63019330D01*
X58416784Y-63056963D01*
X58416790Y-63056964D01*
X58421597Y-63058118D01*
X58674000Y-63077983D01*
X58926403Y-63058118D01*
X58931210Y-63056964D01*
X58931216Y-63056963D01*
X59087968Y-63019330D01*
X59172591Y-62999014D01*
X59177164Y-62997120D01*
X59401928Y-62904020D01*
X59401932Y-62904018D01*
X59406502Y-62902125D01*
X59622376Y-62769837D01*
X59814898Y-62605407D01*
X59979328Y-62412885D01*
X60111616Y-62197011D01*
X60113932Y-62191421D01*
X60206611Y-61967673D01*
X60206612Y-61967671D01*
X60208505Y-61963100D01*
X60248016Y-61798523D01*
X60266454Y-61721725D01*
X60266455Y-61721719D01*
X60267609Y-61716912D01*
X60278193Y-61582435D01*
X60282307Y-61530164D01*
X60282307Y-61530157D01*
X60282500Y-61527708D01*
X60282500Y-60101310D01*
X60280115Y-60071000D01*
X60270256Y-59945742D01*
X60267609Y-59912106D01*
X60246070Y-59822386D01*
X60209660Y-59670730D01*
X60208505Y-59665918D01*
X60157638Y-59543114D01*
X60113511Y-59436581D01*
X60113509Y-59436577D01*
X60111616Y-59432007D01*
X59979328Y-59216133D01*
X59814898Y-59023611D01*
X59622376Y-58859181D01*
X59406502Y-58726893D01*
X59401932Y-58725000D01*
X59401928Y-58724998D01*
X59177164Y-58631898D01*
X59177162Y-58631897D01*
X59172591Y-58630004D01*
X59076913Y-58607034D01*
X58931216Y-58572055D01*
X58931210Y-58572054D01*
X58926403Y-58570900D01*
X58674000Y-58551035D01*
X58421597Y-58570900D01*
X58416790Y-58572054D01*
X58416784Y-58572055D01*
X58271087Y-58607034D01*
X58175409Y-58630004D01*
X58170838Y-58631897D01*
X58170836Y-58631898D01*
X57946072Y-58724998D01*
X57946068Y-58725000D01*
X57941498Y-58726893D01*
X57725624Y-58859181D01*
X57533102Y-59023611D01*
X57530907Y-59026181D01*
X57468976Y-59059999D01*
X57428586Y-59062141D01*
X57375533Y-59056378D01*
X57375529Y-59056378D01*
X57372134Y-59056009D01*
X55775866Y-59056009D01*
X55713684Y-59062764D01*
X55577295Y-59113894D01*
X55460739Y-59201248D01*
X55436119Y-59234098D01*
X55379262Y-59276611D01*
X55308444Y-59281637D01*
X55265019Y-59263113D01*
X55187148Y-59210786D01*
X55177358Y-59205404D01*
X54982010Y-59119652D01*
X54971418Y-59116087D01*
X54845616Y-59085885D01*
X54831530Y-59086590D01*
X54828000Y-59095469D01*
X54828000Y-62532920D01*
X54320000Y-62532920D01*
X54320000Y-59096098D01*
X54315895Y-59082116D01*
X54306272Y-59080623D01*
X54306027Y-59080675D01*
X54102117Y-59143407D01*
X54091771Y-59147628D01*
X53902186Y-59245480D01*
X53892755Y-59251466D01*
X53723499Y-59381341D01*
X53720289Y-59384292D01*
X53656605Y-59415673D01*
X53586064Y-59407643D01*
X53531063Y-59362750D01*
X53509009Y-59291538D01*
X53509009Y-58613862D01*
X53529011Y-58545741D01*
X53545914Y-58524767D01*
X54209911Y-57860770D01*
X54224323Y-57848384D01*
X54235918Y-57839851D01*
X54235923Y-57839846D01*
X54241818Y-57835508D01*
X54246557Y-57829930D01*
X54246560Y-57829927D01*
X54276035Y-57795232D01*
X54282965Y-57787716D01*
X54288661Y-57782020D01*
X54290924Y-57779159D01*
X54290929Y-57779154D01*
X54306293Y-57759734D01*
X54309082Y-57756333D01*
X54351592Y-57706296D01*
X54351594Y-57706294D01*
X54356333Y-57700715D01*
X54359662Y-57694195D01*
X54363028Y-57689148D01*
X54366193Y-57684024D01*
X54370735Y-57678283D01*
X54381888Y-57654421D01*
X54401634Y-57612170D01*
X54403565Y-57608218D01*
X54433442Y-57549708D01*
X54433443Y-57549706D01*
X54436769Y-57543192D01*
X54438508Y-57536086D01*
X54440609Y-57530436D01*
X54442524Y-57524679D01*
X54445622Y-57518050D01*
X54460491Y-57446565D01*
X54461461Y-57442282D01*
X54478808Y-57371390D01*
X54479500Y-57360236D01*
X54479535Y-57360238D01*
X54479775Y-57356266D01*
X54480152Y-57352045D01*
X54481641Y-57344885D01*
X54479546Y-57267458D01*
X54479500Y-57264050D01*
X54479500Y-50193999D01*
X54496381Y-50130999D01*
X54502288Y-50120769D01*
X54542590Y-50050963D01*
X54552223Y-50034279D01*
X54552224Y-50034278D01*
X54555527Y-50028556D01*
X54614542Y-49846928D01*
X54619794Y-49796963D01*
X54633814Y-49663565D01*
X54634504Y-49657000D01*
X54625952Y-49575634D01*
X54615232Y-49473635D01*
X54615232Y-49473633D01*
X54614542Y-49467072D01*
X54555527Y-49285444D01*
X54501011Y-49191019D01*
X54484273Y-49122025D01*
X54507493Y-49054933D01*
X54563300Y-49011046D01*
X54610130Y-49002020D01*
X56689926Y-49002020D01*
X56758047Y-49022022D01*
G37*
%TD.AperFunction*%
%TA.AperFunction,Conductor*%
G36*
X100074636Y-45449092D02*
G01*
X100121129Y-45502748D01*
X100132515Y-45555090D01*
X100132515Y-45718713D01*
X100139270Y-45780895D01*
X100190400Y-45917284D01*
X100277754Y-46033840D01*
X100394310Y-46121194D01*
X100530699Y-46172324D01*
X100592881Y-46179079D01*
X102689149Y-46179079D01*
X102751331Y-46172324D01*
X102826771Y-46144043D01*
X102897577Y-46138860D01*
X102959946Y-46172781D01*
X102994076Y-46235036D01*
X102997000Y-46262025D01*
X102997000Y-55246000D01*
X102976998Y-55314121D01*
X102923342Y-55360614D01*
X102871000Y-55372000D01*
X102116702Y-55372000D01*
X102115932Y-55371998D01*
X102115078Y-55371993D01*
X102038348Y-55371524D01*
X102029719Y-55373990D01*
X102029714Y-55373991D01*
X102009952Y-55379639D01*
X101993191Y-55383217D01*
X101972848Y-55386130D01*
X101972838Y-55386133D01*
X101963955Y-55387405D01*
X101940605Y-55398021D01*
X101923093Y-55404464D01*
X101910453Y-55408077D01*
X101898435Y-55411512D01*
X101873452Y-55427274D01*
X101858386Y-55435404D01*
X101831490Y-55447633D01*
X101812061Y-55464374D01*
X101797053Y-55475479D01*
X101775369Y-55489160D01*
X101769427Y-55495888D01*
X101755819Y-55511296D01*
X101743627Y-55523340D01*
X101721253Y-55542619D01*
X101716374Y-55550147D01*
X101716371Y-55550150D01*
X101707304Y-55564139D01*
X101696014Y-55579013D01*
X101679044Y-55598228D01*
X101675229Y-55606354D01*
X101675228Y-55606355D01*
X101673694Y-55609622D01*
X101666490Y-55624966D01*
X101658176Y-55639935D01*
X101642107Y-55664727D01*
X101639535Y-55673327D01*
X101634761Y-55689290D01*
X101628099Y-55706736D01*
X101617201Y-55729948D01*
X101615820Y-55738821D01*
X101612658Y-55759128D01*
X101608874Y-55775849D01*
X101602986Y-55795536D01*
X101602985Y-55795539D01*
X101600413Y-55804141D01*
X101600358Y-55813116D01*
X101600358Y-55813117D01*
X101600203Y-55838546D01*
X101600170Y-55839328D01*
X101600000Y-55840423D01*
X101600000Y-55871298D01*
X101599998Y-55872068D01*
X101599524Y-55949652D01*
X101599908Y-55950996D01*
X101600000Y-55952341D01*
X101600000Y-61205298D01*
X101599998Y-61206068D01*
X101599524Y-61283652D01*
X101601990Y-61292281D01*
X101601991Y-61292286D01*
X101607639Y-61312048D01*
X101611217Y-61328809D01*
X101614130Y-61349152D01*
X101614133Y-61349162D01*
X101615405Y-61358045D01*
X101626021Y-61381395D01*
X101632464Y-61398907D01*
X101639512Y-61423565D01*
X101655274Y-61448548D01*
X101663404Y-61463614D01*
X101670979Y-61480274D01*
X101675634Y-61490512D01*
X101674068Y-61491224D01*
X101690968Y-61549249D01*
X101670816Y-61617325D01*
X101618218Y-61663167D01*
X101541476Y-61698952D01*
X101541471Y-61698955D01*
X101536489Y-61701278D01*
X101531982Y-61704434D01*
X101531980Y-61704435D01*
X101349794Y-61832003D01*
X101349791Y-61832005D01*
X101345283Y-61835162D01*
X101180230Y-62000215D01*
X101177073Y-62004723D01*
X101177071Y-62004726D01*
X101102750Y-62110868D01*
X101047293Y-62155196D01*
X100976674Y-62162505D01*
X100913313Y-62130474D01*
X100896324Y-62110868D01*
X100822003Y-62004726D01*
X100822001Y-62004723D01*
X100818844Y-62000215D01*
X100653791Y-61835162D01*
X100649283Y-61832005D01*
X100649280Y-61832003D01*
X100467094Y-61704435D01*
X100467092Y-61704434D01*
X100462585Y-61701278D01*
X100457603Y-61698955D01*
X100457598Y-61698952D01*
X100256017Y-61604953D01*
X100256015Y-61604952D01*
X100251035Y-61602630D01*
X100245727Y-61601208D01*
X100245725Y-61601207D01*
X100030884Y-61543641D01*
X100030882Y-61543641D01*
X100025569Y-61542217D01*
X99793037Y-61521873D01*
X99560505Y-61542217D01*
X99555192Y-61543641D01*
X99555190Y-61543641D01*
X99340349Y-61601207D01*
X99340347Y-61601208D01*
X99335039Y-61602630D01*
X99330059Y-61604952D01*
X99330057Y-61604953D01*
X99128476Y-61698952D01*
X99128471Y-61698955D01*
X99123489Y-61701278D01*
X99118982Y-61704434D01*
X99118980Y-61704435D01*
X98936794Y-61832003D01*
X98936791Y-61832005D01*
X98932283Y-61835162D01*
X98767230Y-62000215D01*
X98764073Y-62004723D01*
X98764071Y-62004726D01*
X98639716Y-62182323D01*
X98633346Y-62191421D01*
X98631023Y-62196403D01*
X98631020Y-62196408D01*
X98573732Y-62319263D01*
X98526814Y-62372548D01*
X98458537Y-62392009D01*
X98390577Y-62371467D01*
X98345342Y-62319263D01*
X98288054Y-62196408D01*
X98288051Y-62196403D01*
X98285728Y-62191421D01*
X98279358Y-62182323D01*
X98155003Y-62004726D01*
X98155001Y-62004723D01*
X98151844Y-62000215D01*
X97986791Y-61835162D01*
X97982283Y-61832005D01*
X97982280Y-61832003D01*
X97800094Y-61704435D01*
X97800092Y-61704434D01*
X97795585Y-61701278D01*
X97790603Y-61698955D01*
X97790598Y-61698952D01*
X97589017Y-61604953D01*
X97589015Y-61604952D01*
X97584035Y-61602630D01*
X97578727Y-61601208D01*
X97578725Y-61601207D01*
X97363884Y-61543641D01*
X97363882Y-61543641D01*
X97358569Y-61542217D01*
X97126037Y-61521873D01*
X96893505Y-61542217D01*
X96888192Y-61543641D01*
X96888190Y-61543641D01*
X96673349Y-61601207D01*
X96673347Y-61601208D01*
X96668039Y-61602630D01*
X96663059Y-61604952D01*
X96663057Y-61604953D01*
X96461476Y-61698952D01*
X96461471Y-61698955D01*
X96456489Y-61701278D01*
X96451982Y-61704434D01*
X96451980Y-61704435D01*
X96269794Y-61832003D01*
X96269791Y-61832005D01*
X96265283Y-61835162D01*
X96100230Y-62000215D01*
X96097073Y-62004723D01*
X96097071Y-62004726D01*
X96059400Y-62058526D01*
X95966346Y-62191421D01*
X95964763Y-62194816D01*
X95913771Y-62243435D01*
X95844057Y-62256869D01*
X95778147Y-62230481D01*
X95747390Y-62194986D01*
X95745728Y-62191421D01*
X95652674Y-62058526D01*
X95615003Y-62004726D01*
X95615001Y-62004723D01*
X95611844Y-62000215D01*
X95446791Y-61835162D01*
X95442283Y-61832005D01*
X95442280Y-61832003D01*
X95273277Y-61713666D01*
X95228949Y-61658209D01*
X95219548Y-61610453D01*
X95219548Y-60599726D01*
X95239550Y-60531605D01*
X95293206Y-60485112D01*
X95363480Y-60475008D01*
X95413896Y-60493875D01*
X95473503Y-60532363D01*
X95473507Y-60532365D01*
X95478548Y-60535620D01*
X95484114Y-60537863D01*
X95669168Y-60612442D01*
X95669171Y-60612443D01*
X95674737Y-60614686D01*
X95882337Y-60655228D01*
X95887899Y-60655500D01*
X96593846Y-60655500D01*
X96751566Y-60640452D01*
X96954534Y-60580908D01*
X96959862Y-60578164D01*
X97137249Y-60486804D01*
X97137252Y-60486802D01*
X97142580Y-60484058D01*
X97308920Y-60353396D01*
X97312852Y-60348865D01*
X97312855Y-60348862D01*
X97443621Y-60198167D01*
X97447552Y-60193637D01*
X97450552Y-60188451D01*
X97450555Y-60188447D01*
X97550467Y-60015742D01*
X97553473Y-60010546D01*
X97622861Y-59810729D01*
X97623722Y-59804792D01*
X97652352Y-59607336D01*
X97652352Y-59607333D01*
X97653213Y-59601396D01*
X97643433Y-59390101D01*
X97605754Y-59233757D01*
X97595281Y-59190299D01*
X97595280Y-59190297D01*
X97593875Y-59184466D01*
X97577013Y-59147379D01*
X97533624Y-59051952D01*
X97506326Y-58991913D01*
X97383946Y-58819389D01*
X97379617Y-58815245D01*
X97379611Y-58815238D01*
X97288683Y-58728194D01*
X97253306Y-58666639D01*
X97256825Y-58595730D01*
X97298121Y-58537979D01*
X97309504Y-58530035D01*
X97365348Y-58495478D01*
X97490305Y-58370303D01*
X97497260Y-58359020D01*
X97579275Y-58225968D01*
X97579276Y-58225966D01*
X97583115Y-58219738D01*
X97638797Y-58051861D01*
X97649500Y-57947400D01*
X97649500Y-57146600D01*
X97649163Y-57143350D01*
X97639238Y-57047692D01*
X97639237Y-57047688D01*
X97638526Y-57040834D01*
X97582550Y-56873054D01*
X97489478Y-56722652D01*
X97364303Y-56597695D01*
X97321588Y-56571365D01*
X97219968Y-56508725D01*
X97219966Y-56508724D01*
X97213738Y-56504885D01*
X97112512Y-56471310D01*
X97052389Y-56451368D01*
X97052387Y-56451368D01*
X97045861Y-56449203D01*
X97039025Y-56448503D01*
X97039022Y-56448502D01*
X96995969Y-56444091D01*
X96941400Y-56438500D01*
X95590600Y-56438500D01*
X95587354Y-56438837D01*
X95587350Y-56438837D01*
X95491692Y-56448762D01*
X95491688Y-56448763D01*
X95484834Y-56449474D01*
X95478298Y-56451655D01*
X95478296Y-56451655D01*
X95369172Y-56488062D01*
X95317054Y-56505450D01*
X95166652Y-56598522D01*
X95041695Y-56723697D01*
X95037855Y-56729927D01*
X95037854Y-56729928D01*
X94994090Y-56800927D01*
X94948885Y-56874262D01*
X94946581Y-56881209D01*
X94901719Y-57016465D01*
X94893203Y-57042139D01*
X94892503Y-57048975D01*
X94892502Y-57048978D01*
X94890786Y-57065728D01*
X94882500Y-57146600D01*
X94882500Y-57947400D01*
X94882837Y-57950646D01*
X94882837Y-57950650D01*
X94889755Y-58017318D01*
X94893474Y-58053166D01*
X94895655Y-58059702D01*
X94895655Y-58059704D01*
X94937624Y-58185500D01*
X94949450Y-58220946D01*
X95042522Y-58371348D01*
X95167697Y-58496305D01*
X95205609Y-58519674D01*
X95219236Y-58528074D01*
X95266729Y-58580846D01*
X95278153Y-58650918D01*
X95249879Y-58716042D01*
X95230955Y-58734418D01*
X95223080Y-58740604D01*
X95219148Y-58745135D01*
X95219145Y-58745138D01*
X95120184Y-58859181D01*
X95084448Y-58900363D01*
X95081448Y-58905549D01*
X95081445Y-58905553D01*
X94986953Y-59068889D01*
X94935528Y-59117838D01*
X94865802Y-59131213D01*
X94799914Y-59104769D01*
X94788794Y-59094889D01*
X93761405Y-58067500D01*
X93727379Y-58005188D01*
X93724500Y-57978405D01*
X93724500Y-54688763D01*
X93725027Y-54677579D01*
X93726701Y-54670091D01*
X93724562Y-54602032D01*
X93724500Y-54598075D01*
X93724500Y-54570144D01*
X93723994Y-54566138D01*
X93723061Y-54554292D01*
X93722308Y-54530305D01*
X93721673Y-54510110D01*
X93716022Y-54490658D01*
X93712014Y-54471306D01*
X93710468Y-54459068D01*
X93710467Y-54459066D01*
X93709474Y-54451203D01*
X93693194Y-54410086D01*
X93689359Y-54398885D01*
X93677018Y-54356406D01*
X93672985Y-54349587D01*
X93672983Y-54349582D01*
X93666707Y-54338971D01*
X93658010Y-54321221D01*
X93650552Y-54302383D01*
X93624571Y-54266623D01*
X93618053Y-54256701D01*
X93599578Y-54225460D01*
X93599574Y-54225455D01*
X93595542Y-54218637D01*
X93581218Y-54204313D01*
X93568376Y-54189278D01*
X93556472Y-54172893D01*
X93522406Y-54144711D01*
X93513627Y-54136722D01*
X89364727Y-49987822D01*
X89330701Y-49925510D01*
X89335766Y-49854695D01*
X89366278Y-49809841D01*
X89365773Y-49809386D01*
X89369104Y-49805687D01*
X89369105Y-49805685D01*
X89381844Y-49791538D01*
X89489141Y-49672372D01*
X89489142Y-49672371D01*
X89493560Y-49667464D01*
X89558222Y-49555466D01*
X89585743Y-49507799D01*
X89585744Y-49507798D01*
X89589047Y-49502076D01*
X89643907Y-49333234D01*
X89674645Y-49283076D01*
X93491726Y-45465995D01*
X93554038Y-45431969D01*
X93580821Y-45429090D01*
X100006515Y-45429090D01*
X100074636Y-45449092D01*
G37*
%TD.AperFunction*%
%TA.AperFunction,Conductor*%
G36*
X78081990Y-47524116D02*
G01*
X78111612Y-47546102D01*
X80596277Y-50030767D01*
X80603821Y-50039057D01*
X80607934Y-50045538D01*
X80613711Y-50050963D01*
X80657601Y-50092178D01*
X80660443Y-50094933D01*
X80680164Y-50114654D01*
X80683359Y-50117132D01*
X80692381Y-50124838D01*
X80724613Y-50155106D01*
X80731562Y-50158926D01*
X80742366Y-50164866D01*
X80758890Y-50175719D01*
X80774893Y-50188133D01*
X80815477Y-50205696D01*
X80826107Y-50210903D01*
X80864874Y-50232215D01*
X80872551Y-50234186D01*
X80872556Y-50234188D01*
X80884492Y-50237252D01*
X80903200Y-50243657D01*
X80921789Y-50251701D01*
X80929614Y-50252940D01*
X80929616Y-50252941D01*
X80965453Y-50258617D01*
X80977074Y-50261024D01*
X81012223Y-50270048D01*
X81019904Y-50272020D01*
X81040165Y-50272020D01*
X81059874Y-50273571D01*
X81079877Y-50276739D01*
X81087769Y-50275993D01*
X81092996Y-50275499D01*
X81123888Y-50272579D01*
X81135745Y-50272020D01*
X87804926Y-50272020D01*
X87873047Y-50292022D01*
X87894021Y-50308925D01*
X92420595Y-54835499D01*
X92454621Y-54897811D01*
X92457500Y-54924594D01*
X92457500Y-58214233D01*
X92456973Y-58225416D01*
X92455298Y-58232909D01*
X92455547Y-58240835D01*
X92455547Y-58240836D01*
X92457438Y-58300986D01*
X92457500Y-58304945D01*
X92457500Y-58332856D01*
X92457997Y-58336790D01*
X92457997Y-58336791D01*
X92458005Y-58336856D01*
X92458938Y-58348693D01*
X92460327Y-58392889D01*
X92465978Y-58412339D01*
X92469987Y-58431700D01*
X92472526Y-58451797D01*
X92475445Y-58459168D01*
X92475445Y-58459170D01*
X92488804Y-58492912D01*
X92492649Y-58504142D01*
X92497368Y-58520385D01*
X92504982Y-58546593D01*
X92509015Y-58553412D01*
X92509017Y-58553417D01*
X92515293Y-58564028D01*
X92523988Y-58581776D01*
X92531448Y-58600617D01*
X92536110Y-58607033D01*
X92536110Y-58607034D01*
X92557436Y-58636387D01*
X92563952Y-58646307D01*
X92579809Y-58673119D01*
X92586458Y-58684362D01*
X92600779Y-58698683D01*
X92613619Y-58713716D01*
X92625528Y-58730107D01*
X92646978Y-58747852D01*
X92659605Y-58758298D01*
X92668384Y-58766288D01*
X93915643Y-60013547D01*
X93949669Y-60075859D01*
X93952548Y-60102642D01*
X93952548Y-61610438D01*
X93932546Y-61678559D01*
X93898820Y-61713650D01*
X93886895Y-61722000D01*
X93729794Y-61832003D01*
X93729791Y-61832005D01*
X93725283Y-61835162D01*
X93560230Y-62000215D01*
X93557073Y-62004723D01*
X93557071Y-62004726D01*
X93519400Y-62058526D01*
X93426346Y-62191421D01*
X93424763Y-62194816D01*
X93373771Y-62243435D01*
X93304057Y-62256869D01*
X93238147Y-62230481D01*
X93207390Y-62194986D01*
X93205728Y-62191421D01*
X93112674Y-62058526D01*
X93075003Y-62004726D01*
X93075001Y-62004723D01*
X93071844Y-62000215D01*
X92906791Y-61835162D01*
X92902283Y-61832005D01*
X92902280Y-61832003D01*
X92720094Y-61704435D01*
X92720092Y-61704434D01*
X92715585Y-61701278D01*
X92710603Y-61698955D01*
X92710598Y-61698952D01*
X92509017Y-61604953D01*
X92509015Y-61604952D01*
X92504035Y-61602630D01*
X92498727Y-61601208D01*
X92498725Y-61601207D01*
X92283884Y-61543641D01*
X92283882Y-61543641D01*
X92278569Y-61542217D01*
X92128068Y-61529050D01*
X92065093Y-61523540D01*
X91998975Y-61497676D01*
X91957336Y-61440173D01*
X91950634Y-61409878D01*
X91947059Y-61372062D01*
X91946500Y-61360203D01*
X91946500Y-55522741D01*
X91947027Y-55511557D01*
X91948701Y-55504069D01*
X91946562Y-55436010D01*
X91946500Y-55432053D01*
X91946500Y-55404122D01*
X91945994Y-55400116D01*
X91945061Y-55388270D01*
X91944613Y-55373991D01*
X91943673Y-55344088D01*
X91938022Y-55324636D01*
X91934014Y-55305284D01*
X91932467Y-55293041D01*
X91931474Y-55285181D01*
X91928556Y-55277810D01*
X91915200Y-55244075D01*
X91911355Y-55232848D01*
X91910721Y-55230665D01*
X91899018Y-55190385D01*
X91894984Y-55183563D01*
X91894981Y-55183557D01*
X91888706Y-55172946D01*
X91880010Y-55155196D01*
X91875472Y-55143734D01*
X91875469Y-55143729D01*
X91872552Y-55136361D01*
X91846573Y-55100603D01*
X91840057Y-55090685D01*
X91821575Y-55059435D01*
X91817542Y-55052615D01*
X91803218Y-55038291D01*
X91790376Y-55023256D01*
X91778472Y-55006871D01*
X91744406Y-54978689D01*
X91735627Y-54970700D01*
X90601674Y-53836747D01*
X90594134Y-53828461D01*
X90590022Y-53821982D01*
X90540370Y-53775356D01*
X90537529Y-53772602D01*
X90517792Y-53752865D01*
X90514595Y-53750385D01*
X90505573Y-53742680D01*
X90479122Y-53717841D01*
X90473343Y-53712414D01*
X90466397Y-53708595D01*
X90466394Y-53708593D01*
X90455588Y-53702652D01*
X90439069Y-53691801D01*
X90438605Y-53691441D01*
X90423063Y-53679386D01*
X90415794Y-53676241D01*
X90415790Y-53676238D01*
X90382485Y-53661826D01*
X90371835Y-53656609D01*
X90333082Y-53635305D01*
X90313459Y-53630267D01*
X90294756Y-53623863D01*
X90283442Y-53618967D01*
X90283441Y-53618967D01*
X90276167Y-53615819D01*
X90268344Y-53614580D01*
X90268334Y-53614577D01*
X90232498Y-53608901D01*
X90220878Y-53606495D01*
X90185733Y-53597472D01*
X90185732Y-53597472D01*
X90178052Y-53595500D01*
X90157798Y-53595500D01*
X90138087Y-53593949D01*
X90125908Y-53592020D01*
X90118079Y-53590780D01*
X90110187Y-53591526D01*
X90074061Y-53594941D01*
X90062203Y-53595500D01*
X83753595Y-53595500D01*
X83685474Y-53575498D01*
X83664500Y-53558595D01*
X79098172Y-48992267D01*
X79090632Y-48983981D01*
X79086520Y-48977502D01*
X79036868Y-48930876D01*
X79034027Y-48928122D01*
X79014290Y-48908385D01*
X79011093Y-48905905D01*
X79002071Y-48898200D01*
X78975620Y-48873361D01*
X78969841Y-48867934D01*
X78962895Y-48864115D01*
X78962892Y-48864113D01*
X78952086Y-48858172D01*
X78935567Y-48847321D01*
X78935103Y-48846961D01*
X78919561Y-48834906D01*
X78912292Y-48831761D01*
X78912288Y-48831758D01*
X78878983Y-48817346D01*
X78868333Y-48812129D01*
X78829580Y-48790825D01*
X78809957Y-48785787D01*
X78791254Y-48779383D01*
X78779940Y-48774487D01*
X78779939Y-48774487D01*
X78772665Y-48771339D01*
X78764842Y-48770100D01*
X78764832Y-48770097D01*
X78728996Y-48764421D01*
X78717376Y-48762015D01*
X78682231Y-48752992D01*
X78682230Y-48752992D01*
X78674550Y-48751020D01*
X78654296Y-48751020D01*
X78634585Y-48749469D01*
X78622406Y-48747540D01*
X78614577Y-48746300D01*
X78606685Y-48747046D01*
X78570559Y-48750461D01*
X78558701Y-48751020D01*
X77131114Y-48751020D01*
X77062993Y-48731018D01*
X77042019Y-48714115D01*
X76940530Y-48612626D01*
X76906504Y-48550314D01*
X76911569Y-48479499D01*
X76954116Y-48422663D01*
X76997014Y-48401824D01*
X77117567Y-48369522D01*
X77117569Y-48369521D01*
X77122877Y-48368099D01*
X77127859Y-48365776D01*
X77325396Y-48273664D01*
X77325401Y-48273661D01*
X77330383Y-48271338D01*
X77435245Y-48197913D01*
X77513423Y-48143172D01*
X77513426Y-48143170D01*
X77517934Y-48140013D01*
X77679832Y-47978115D01*
X77811157Y-47790564D01*
X77813480Y-47785582D01*
X77813483Y-47785577D01*
X77907918Y-47583058D01*
X77910052Y-47584053D01*
X77946181Y-47534954D01*
X78012494Y-47509596D01*
X78081990Y-47524116D01*
G37*
%TD.AperFunction*%
%TA.AperFunction,Conductor*%
G36*
X88104141Y-57174732D02*
G01*
X88150634Y-57228388D01*
X88162020Y-57280730D01*
X88162020Y-57898654D01*
X88168775Y-57960836D01*
X88219905Y-58097225D01*
X88307259Y-58213781D01*
X88423815Y-58301135D01*
X88432216Y-58304284D01*
X88434071Y-58305300D01*
X88484217Y-58355559D01*
X88499230Y-58424950D01*
X88474344Y-58491442D01*
X88441762Y-58519674D01*
X88442295Y-58520385D01*
X88325739Y-58607739D01*
X88238385Y-58724295D01*
X88187255Y-58860684D01*
X88180500Y-58922866D01*
X88180500Y-60951458D01*
X88160498Y-61019579D01*
X88106842Y-61066072D01*
X88054500Y-61077458D01*
X87490742Y-61077458D01*
X87479559Y-61076931D01*
X87472066Y-61075256D01*
X87464140Y-61075505D01*
X87464139Y-61075505D01*
X87403976Y-61077396D01*
X87400018Y-61077458D01*
X87372118Y-61077458D01*
X87368128Y-61077962D01*
X87356294Y-61078894D01*
X87312085Y-61080284D01*
X87304469Y-61082497D01*
X87304467Y-61082497D01*
X87292626Y-61085937D01*
X87273267Y-61089946D01*
X87271957Y-61090112D01*
X87253177Y-61092484D01*
X87245811Y-61095400D01*
X87245805Y-61095402D01*
X87212072Y-61108758D01*
X87200842Y-61112603D01*
X87184802Y-61117263D01*
X87158381Y-61124939D01*
X87151558Y-61128974D01*
X87140940Y-61135253D01*
X87123187Y-61143950D01*
X87115542Y-61146977D01*
X87104357Y-61151406D01*
X87090679Y-61161344D01*
X87068586Y-61177395D01*
X87058669Y-61183909D01*
X87020612Y-61206416D01*
X87006291Y-61220737D01*
X86991258Y-61233577D01*
X86974867Y-61245486D01*
X86969816Y-61251591D01*
X86969811Y-61251596D01*
X86946675Y-61279562D01*
X86938687Y-61288340D01*
X86690861Y-61536166D01*
X86634378Y-61568778D01*
X86583408Y-61582435D01*
X86513349Y-61601207D01*
X86513347Y-61601208D01*
X86508039Y-61602630D01*
X86503059Y-61604952D01*
X86503057Y-61604953D01*
X86301476Y-61698952D01*
X86301471Y-61698955D01*
X86296489Y-61701278D01*
X86291982Y-61704434D01*
X86291980Y-61704435D01*
X86109794Y-61832003D01*
X86109791Y-61832005D01*
X86105283Y-61835162D01*
X85940230Y-62000215D01*
X85937073Y-62004723D01*
X85937071Y-62004726D01*
X85899400Y-62058526D01*
X85806346Y-62191421D01*
X85804763Y-62194816D01*
X85753771Y-62243435D01*
X85684057Y-62256869D01*
X85618147Y-62230481D01*
X85587390Y-62194986D01*
X85585728Y-62191421D01*
X85492674Y-62058526D01*
X85455003Y-62004726D01*
X85455001Y-62004723D01*
X85451844Y-62000215D01*
X85286791Y-61835162D01*
X85282283Y-61832005D01*
X85282280Y-61832003D01*
X85100094Y-61704435D01*
X85100092Y-61704434D01*
X85095585Y-61701278D01*
X85090603Y-61698955D01*
X85090598Y-61698952D01*
X84889017Y-61604953D01*
X84889015Y-61604952D01*
X84884035Y-61602630D01*
X84878727Y-61601208D01*
X84878725Y-61601207D01*
X84663884Y-61543641D01*
X84663882Y-61543641D01*
X84658569Y-61542217D01*
X84426037Y-61521873D01*
X84193505Y-61542217D01*
X84188186Y-61543642D01*
X84188187Y-61543642D01*
X84113673Y-61563607D01*
X84042697Y-61561917D01*
X83991968Y-61530995D01*
X83779678Y-61318705D01*
X83772138Y-61310419D01*
X83768026Y-61303940D01*
X83718374Y-61257314D01*
X83715533Y-61254560D01*
X83695796Y-61234823D01*
X83692599Y-61232343D01*
X83683577Y-61224638D01*
X83670182Y-61212059D01*
X83651347Y-61194372D01*
X83644401Y-61190553D01*
X83644398Y-61190551D01*
X83633592Y-61184610D01*
X83617073Y-61173759D01*
X83616609Y-61173399D01*
X83601067Y-61161344D01*
X83593798Y-61158199D01*
X83593794Y-61158196D01*
X83560489Y-61143784D01*
X83549839Y-61138567D01*
X83511086Y-61117263D01*
X83491463Y-61112225D01*
X83472760Y-61105821D01*
X83461446Y-61100925D01*
X83461445Y-61100925D01*
X83454171Y-61097777D01*
X83446348Y-61096538D01*
X83446338Y-61096535D01*
X83410502Y-61090859D01*
X83398882Y-61088453D01*
X83363737Y-61079430D01*
X83363736Y-61079430D01*
X83356056Y-61077458D01*
X83335802Y-61077458D01*
X83316091Y-61075907D01*
X83303912Y-61073978D01*
X83296083Y-61072738D01*
X83266812Y-61075505D01*
X83252065Y-61076899D01*
X83240207Y-61077458D01*
X81123725Y-61077458D01*
X81055604Y-61057456D01*
X81009111Y-61003800D01*
X80999007Y-60933526D01*
X81016293Y-60885623D01*
X81042148Y-60843432D01*
X81094796Y-60795800D01*
X81106584Y-60790830D01*
X81161807Y-60770785D01*
X81165935Y-60769368D01*
X81228416Y-60749127D01*
X81228418Y-60749126D01*
X81235379Y-60746871D01*
X81241634Y-60743075D01*
X81247108Y-60740569D01*
X81252538Y-60737850D01*
X81259417Y-60735353D01*
X81265538Y-60731340D01*
X81320456Y-60695334D01*
X81324160Y-60692997D01*
X81386587Y-60655115D01*
X81394964Y-60647717D01*
X81394988Y-60647744D01*
X81397980Y-60645091D01*
X81401213Y-60642388D01*
X81407332Y-60638376D01*
X81460608Y-60582137D01*
X81462986Y-60579695D01*
X83852337Y-58190344D01*
X83914649Y-58156318D01*
X83967629Y-58156192D01*
X84099056Y-58184128D01*
X84099061Y-58184128D01*
X84105513Y-58185500D01*
X84296487Y-58185500D01*
X84302939Y-58184128D01*
X84302944Y-58184128D01*
X84396446Y-58164253D01*
X84483288Y-58145794D01*
X84489319Y-58143109D01*
X84651722Y-58070803D01*
X84651724Y-58070802D01*
X84657752Y-58068118D01*
X84812253Y-57955866D01*
X84819876Y-57947400D01*
X84935621Y-57818852D01*
X84935622Y-57818851D01*
X84940040Y-57813944D01*
X85002191Y-57706296D01*
X85032223Y-57654279D01*
X85032224Y-57654278D01*
X85035527Y-57648556D01*
X85094542Y-57466928D01*
X85096671Y-57446678D01*
X85113814Y-57283565D01*
X85114504Y-57277000D01*
X85114897Y-57277041D01*
X85133816Y-57212609D01*
X85187472Y-57166116D01*
X85239814Y-57154730D01*
X88036020Y-57154730D01*
X88104141Y-57174732D01*
G37*
%TD.AperFunction*%
%TA.AperFunction,Conductor*%
G36*
X69507121Y-60091002D02*
G01*
X69553614Y-60144658D01*
X69565000Y-60197000D01*
X69565000Y-61660402D01*
X69568973Y-61673933D01*
X69578399Y-61675288D01*
X69667537Y-61653806D01*
X69678832Y-61649917D01*
X69860382Y-61567371D01*
X69870724Y-61561424D01*
X70033397Y-61446032D01*
X70042425Y-61438239D01*
X70180342Y-61294169D01*
X70187741Y-61284800D01*
X70205418Y-61257423D01*
X70259172Y-61211045D01*
X70329468Y-61201091D01*
X70393985Y-61230722D01*
X70410356Y-61247937D01*
X70504604Y-61367920D01*
X70509133Y-61371850D01*
X70509138Y-61371855D01*
X70629215Y-61476052D01*
X70664363Y-61506552D01*
X70669549Y-61509552D01*
X70669553Y-61509555D01*
X70762986Y-61563607D01*
X70847454Y-61612473D01*
X71047271Y-61681861D01*
X71053206Y-61682722D01*
X71053208Y-61682722D01*
X71250664Y-61711352D01*
X71250667Y-61711352D01*
X71256604Y-61712213D01*
X71467899Y-61702433D01*
X71599077Y-61670819D01*
X71667701Y-61654281D01*
X71667703Y-61654280D01*
X71673534Y-61652875D01*
X71678992Y-61650393D01*
X71678996Y-61650392D01*
X71828458Y-61582435D01*
X71866087Y-61565326D01*
X72014933Y-61459742D01*
X72033725Y-61446412D01*
X72033726Y-61446411D01*
X72038611Y-61442946D01*
X72184881Y-61290150D01*
X72195344Y-61273946D01*
X72205746Y-61257837D01*
X72259501Y-61211460D01*
X72329797Y-61201507D01*
X72394314Y-61231139D01*
X72410681Y-61248351D01*
X72504604Y-61367920D01*
X72509133Y-61371850D01*
X72509138Y-61371855D01*
X72629215Y-61476052D01*
X72664363Y-61506552D01*
X72669549Y-61509552D01*
X72669553Y-61509555D01*
X72762986Y-61563607D01*
X72847454Y-61612473D01*
X73047271Y-61681861D01*
X73053206Y-61682722D01*
X73053208Y-61682722D01*
X73250664Y-61711352D01*
X73250667Y-61711352D01*
X73256604Y-61712213D01*
X73467899Y-61702433D01*
X73599077Y-61670819D01*
X73667701Y-61654281D01*
X73667703Y-61654280D01*
X73673534Y-61652875D01*
X73678992Y-61650393D01*
X73678996Y-61650392D01*
X73828458Y-61582435D01*
X73866087Y-61565326D01*
X74014933Y-61459742D01*
X74033725Y-61446412D01*
X74033726Y-61446411D01*
X74038611Y-61442946D01*
X74042753Y-61438619D01*
X74042759Y-61438614D01*
X74129806Y-61347683D01*
X74191361Y-61312306D01*
X74262270Y-61315825D01*
X74320021Y-61357121D01*
X74327965Y-61368504D01*
X74362522Y-61424348D01*
X74487697Y-61549305D01*
X74493927Y-61553145D01*
X74493928Y-61553146D01*
X74593367Y-61614441D01*
X74638262Y-61642115D01*
X74674942Y-61654281D01*
X74741107Y-61676227D01*
X74799467Y-61716657D01*
X74826704Y-61782222D01*
X74814171Y-61852103D01*
X74790535Y-61884915D01*
X74607855Y-62067595D01*
X74545543Y-62101621D01*
X74518760Y-62104500D01*
X68504981Y-62104500D01*
X68436860Y-62084498D01*
X68415885Y-62067595D01*
X67999416Y-61651125D01*
X67965391Y-61588813D01*
X67970456Y-61517997D01*
X68015613Y-61459260D01*
X68033721Y-61446416D01*
X68033729Y-61446409D01*
X68038611Y-61442946D01*
X68184881Y-61290150D01*
X68188130Y-61285119D01*
X68188135Y-61285112D01*
X68206033Y-61257393D01*
X68259789Y-61211016D01*
X68330085Y-61201063D01*
X68394602Y-61230696D01*
X68410970Y-61247909D01*
X68501262Y-61362857D01*
X68509499Y-61371506D01*
X68660123Y-61502212D01*
X68669847Y-61509147D01*
X68842467Y-61609010D01*
X68853331Y-61613984D01*
X69041727Y-61679407D01*
X69042716Y-61679648D01*
X69053008Y-61678180D01*
X69057000Y-61664615D01*
X69057000Y-60197000D01*
X69077002Y-60128879D01*
X69130658Y-60082386D01*
X69183000Y-60071000D01*
X69439000Y-60071000D01*
X69507121Y-60091002D01*
G37*
%TD.AperFunction*%
%TA.AperFunction,Conductor*%
G36*
X77977602Y-59706502D02*
G01*
X78024095Y-59760158D01*
X78035093Y-59822385D01*
X78015526Y-60071000D01*
X78035391Y-60323403D01*
X78036545Y-60328210D01*
X78036546Y-60328216D01*
X78043481Y-60357102D01*
X78094495Y-60569591D01*
X78096388Y-60574162D01*
X78096389Y-60574164D01*
X78188796Y-60797253D01*
X78191384Y-60803502D01*
X78193970Y-60807722D01*
X78241708Y-60885623D01*
X78260246Y-60954156D01*
X78238790Y-61021833D01*
X78184151Y-61067166D01*
X78134275Y-61077458D01*
X76545500Y-61077458D01*
X76477379Y-61057456D01*
X76430886Y-61003800D01*
X76419500Y-60951458D01*
X76419500Y-59812500D01*
X76439502Y-59744379D01*
X76493158Y-59697886D01*
X76545500Y-59686500D01*
X77909481Y-59686500D01*
X77977602Y-59706502D01*
G37*
%TD.AperFunction*%
%TA.AperFunction,Conductor*%
G36*
X52899991Y-49022022D02*
G01*
X52946484Y-49075678D01*
X52956588Y-49145952D01*
X52940989Y-49191019D01*
X52886473Y-49285444D01*
X52827458Y-49467072D01*
X52826768Y-49473633D01*
X52826768Y-49473635D01*
X52816048Y-49575634D01*
X52807496Y-49657000D01*
X52808186Y-49663565D01*
X52822207Y-49796963D01*
X52827458Y-49846928D01*
X52886473Y-50028556D01*
X52889776Y-50034278D01*
X52889777Y-50034279D01*
X52899410Y-50050963D01*
X52939713Y-50120769D01*
X52945619Y-50130999D01*
X52962500Y-50193999D01*
X52962500Y-56910629D01*
X52942498Y-56978750D01*
X52925595Y-56999724D01*
X52261598Y-57663721D01*
X52247186Y-57676107D01*
X52235591Y-57684640D01*
X52235586Y-57684645D01*
X52229691Y-57688983D01*
X52224952Y-57694561D01*
X52224949Y-57694564D01*
X52195474Y-57729259D01*
X52188544Y-57736775D01*
X52182849Y-57742470D01*
X52180569Y-57745352D01*
X52165228Y-57764742D01*
X52162437Y-57768146D01*
X52119979Y-57818122D01*
X52115176Y-57823776D01*
X52111848Y-57830292D01*
X52108481Y-57835341D01*
X52105314Y-57840470D01*
X52100775Y-57846207D01*
X52069854Y-57912366D01*
X52067951Y-57916260D01*
X52034740Y-57981299D01*
X52033001Y-57988407D01*
X52030902Y-57994050D01*
X52028985Y-57999813D01*
X52025887Y-58006441D01*
X52024397Y-58013603D01*
X52024397Y-58013604D01*
X52011023Y-58077903D01*
X52010053Y-58082187D01*
X51992701Y-58153101D01*
X51992009Y-58164255D01*
X51991973Y-58164253D01*
X51991734Y-58168246D01*
X51991360Y-58172438D01*
X51989869Y-58179606D01*
X51990599Y-58206601D01*
X51991963Y-58257012D01*
X51992009Y-58260419D01*
X51992009Y-59121796D01*
X51972007Y-59189917D01*
X51923810Y-59233756D01*
X51922731Y-59234313D01*
X51853026Y-59247788D01*
X51787100Y-59221439D01*
X51769121Y-59204182D01*
X51618111Y-59027372D01*
X51618106Y-59027367D01*
X51614898Y-59023611D01*
X51422376Y-58859181D01*
X51206502Y-58726893D01*
X51201932Y-58725000D01*
X51201928Y-58724998D01*
X50977164Y-58631898D01*
X50977162Y-58631897D01*
X50972591Y-58630004D01*
X50876913Y-58607034D01*
X50731216Y-58572055D01*
X50731210Y-58572054D01*
X50726403Y-58570900D01*
X50474000Y-58551035D01*
X50221597Y-58570900D01*
X50216790Y-58572054D01*
X50216784Y-58572055D01*
X50071087Y-58607034D01*
X49975409Y-58630004D01*
X49970838Y-58631897D01*
X49970836Y-58631898D01*
X49746072Y-58724998D01*
X49746068Y-58725000D01*
X49741498Y-58726893D01*
X49737278Y-58729479D01*
X49594835Y-58816768D01*
X49526301Y-58835306D01*
X49458624Y-58813850D01*
X49413292Y-58759210D01*
X49403000Y-58709335D01*
X49403000Y-57107757D01*
X49423002Y-57039636D01*
X49476658Y-56993143D01*
X49546932Y-56983039D01*
X49601270Y-57004544D01*
X49774773Y-57126032D01*
X49779755Y-57128355D01*
X49779760Y-57128358D01*
X49942903Y-57204432D01*
X49982279Y-57222793D01*
X49987587Y-57224215D01*
X49987589Y-57224216D01*
X50198120Y-57280628D01*
X50198122Y-57280628D01*
X50203435Y-57282052D01*
X50303002Y-57290763D01*
X50371671Y-57296771D01*
X50371678Y-57296771D01*
X50374395Y-57297009D01*
X50888649Y-57297009D01*
X50891366Y-57296771D01*
X50891373Y-57296771D01*
X50960042Y-57290763D01*
X51059609Y-57282052D01*
X51064922Y-57280628D01*
X51064924Y-57280628D01*
X51275455Y-57224216D01*
X51275457Y-57224215D01*
X51280765Y-57222793D01*
X51320141Y-57204432D01*
X51483284Y-57128358D01*
X51483289Y-57128355D01*
X51488271Y-57126032D01*
X51619283Y-57034296D01*
X51671311Y-56997866D01*
X51671314Y-56997864D01*
X51675822Y-56994707D01*
X51837720Y-56832809D01*
X51969045Y-56645258D01*
X51971368Y-56640276D01*
X51971371Y-56640271D01*
X52063483Y-56442734D01*
X52063483Y-56442733D01*
X52065806Y-56437752D01*
X52072288Y-56413563D01*
X52123641Y-56221911D01*
X52123641Y-56221909D01*
X52125065Y-56216596D01*
X52145020Y-55988509D01*
X52125065Y-55760422D01*
X52123641Y-55755107D01*
X52067229Y-55544576D01*
X52067228Y-55544574D01*
X52065806Y-55539266D01*
X52053985Y-55513916D01*
X51971371Y-55336747D01*
X51971368Y-55336742D01*
X51969045Y-55331760D01*
X51846614Y-55156911D01*
X51840879Y-55148720D01*
X51840877Y-55148717D01*
X51837720Y-55144209D01*
X51675822Y-54982311D01*
X51671314Y-54979154D01*
X51671311Y-54979152D01*
X51555144Y-54897811D01*
X51488271Y-54850986D01*
X51483289Y-54848663D01*
X51483284Y-54848660D01*
X51449065Y-54832704D01*
X51395780Y-54785787D01*
X51376319Y-54717510D01*
X51396861Y-54649550D01*
X51449065Y-54604314D01*
X51483284Y-54588358D01*
X51483289Y-54588355D01*
X51488271Y-54586032D01*
X51638076Y-54481137D01*
X51671311Y-54457866D01*
X51671314Y-54457864D01*
X51675822Y-54454707D01*
X51837720Y-54292809D01*
X51856055Y-54266625D01*
X51910213Y-54189278D01*
X51969045Y-54105258D01*
X51971368Y-54100276D01*
X51971371Y-54100271D01*
X52063483Y-53902734D01*
X52063483Y-53902733D01*
X52065806Y-53897752D01*
X52082153Y-53836747D01*
X52123641Y-53681911D01*
X52123641Y-53681909D01*
X52125065Y-53676596D01*
X52145020Y-53448509D01*
X52125065Y-53220422D01*
X52123641Y-53215107D01*
X52067229Y-53004576D01*
X52067228Y-53004574D01*
X52065806Y-52999266D01*
X52011463Y-52882726D01*
X51971371Y-52796747D01*
X51971368Y-52796742D01*
X51969045Y-52791760D01*
X51837720Y-52604209D01*
X51675822Y-52442311D01*
X51671314Y-52439154D01*
X51671311Y-52439152D01*
X51544861Y-52350611D01*
X51488271Y-52310986D01*
X51483289Y-52308663D01*
X51483284Y-52308660D01*
X51449065Y-52292704D01*
X51395780Y-52245787D01*
X51376319Y-52177510D01*
X51396861Y-52109550D01*
X51449065Y-52064314D01*
X51483284Y-52048358D01*
X51483289Y-52048355D01*
X51488271Y-52046032D01*
X51622895Y-51951767D01*
X51671311Y-51917866D01*
X51671314Y-51917864D01*
X51675822Y-51914707D01*
X51837720Y-51752809D01*
X51878040Y-51695227D01*
X51965888Y-51569766D01*
X51969045Y-51565258D01*
X51971368Y-51560276D01*
X51971371Y-51560271D01*
X52063483Y-51362734D01*
X52063483Y-51362733D01*
X52065806Y-51357752D01*
X52100951Y-51226592D01*
X52123641Y-51141911D01*
X52123641Y-51141909D01*
X52125065Y-51136596D01*
X52145020Y-50908509D01*
X52125065Y-50680422D01*
X52109603Y-50622717D01*
X52067229Y-50464576D01*
X52067228Y-50464574D01*
X52065806Y-50459266D01*
X52063483Y-50454284D01*
X51971371Y-50256747D01*
X51971368Y-50256742D01*
X51969045Y-50251760D01*
X51837720Y-50064209D01*
X51675822Y-49902311D01*
X51671314Y-49899154D01*
X51671311Y-49899152D01*
X51568674Y-49827285D01*
X51488271Y-49770986D01*
X51483289Y-49768663D01*
X51483284Y-49768660D01*
X51449065Y-49752704D01*
X51395780Y-49705787D01*
X51376319Y-49637510D01*
X51396861Y-49569550D01*
X51449065Y-49524314D01*
X51483284Y-49508358D01*
X51483289Y-49508355D01*
X51488271Y-49506032D01*
X51611657Y-49419636D01*
X51671311Y-49377866D01*
X51671314Y-49377864D01*
X51675822Y-49374707D01*
X51837720Y-49212809D01*
X51933741Y-49075678D01*
X51947695Y-49055749D01*
X52003152Y-49011421D01*
X52050908Y-49002020D01*
X52831870Y-49002020D01*
X52899991Y-49022022D01*
G37*
%TD.AperFunction*%
%TA.AperFunction,Conductor*%
G36*
X71909579Y-45870531D02*
G01*
X71966415Y-45913078D01*
X71991068Y-45977605D01*
X71997979Y-46056596D01*
X71999403Y-46061909D01*
X71999403Y-46061911D01*
X72057238Y-46277752D01*
X72054361Y-46278523D01*
X72058791Y-46336601D01*
X72024640Y-46399495D01*
X71362747Y-47061388D01*
X71354461Y-47068928D01*
X71347982Y-47073040D01*
X71342557Y-47078817D01*
X71301357Y-47122691D01*
X71298602Y-47125533D01*
X71278865Y-47145270D01*
X71276385Y-47148467D01*
X71268682Y-47157487D01*
X71238414Y-47189719D01*
X71234595Y-47196665D01*
X71234593Y-47196668D01*
X71228652Y-47207474D01*
X71217801Y-47223993D01*
X71205386Y-47239999D01*
X71202241Y-47247268D01*
X71202238Y-47247272D01*
X71187826Y-47280577D01*
X71182609Y-47291227D01*
X71161305Y-47329980D01*
X71159334Y-47337655D01*
X71159334Y-47337656D01*
X71156267Y-47349602D01*
X71149863Y-47368306D01*
X71141819Y-47386895D01*
X71140580Y-47394718D01*
X71140577Y-47394728D01*
X71134901Y-47430564D01*
X71132495Y-47442184D01*
X71121500Y-47485010D01*
X71121500Y-47505264D01*
X71119949Y-47524974D01*
X71116780Y-47544983D01*
X71117526Y-47552875D01*
X71120941Y-47589001D01*
X71121500Y-47600859D01*
X71121500Y-56055233D01*
X71120973Y-56066416D01*
X71119298Y-56073909D01*
X71119547Y-56081835D01*
X71119547Y-56081836D01*
X71121438Y-56141986D01*
X71121500Y-56145945D01*
X71121500Y-56173856D01*
X71121997Y-56177790D01*
X71121997Y-56177791D01*
X71122005Y-56177856D01*
X71122938Y-56189693D01*
X71124327Y-56233889D01*
X71129384Y-56251294D01*
X71129978Y-56253339D01*
X71133987Y-56272700D01*
X71135473Y-56284459D01*
X71136526Y-56292797D01*
X71139445Y-56300168D01*
X71139445Y-56300170D01*
X71152804Y-56333912D01*
X71156649Y-56345142D01*
X71168982Y-56387593D01*
X71173015Y-56394412D01*
X71173017Y-56394417D01*
X71179293Y-56405028D01*
X71187988Y-56422776D01*
X71195448Y-56441617D01*
X71200110Y-56448033D01*
X71200110Y-56448034D01*
X71221436Y-56477387D01*
X71227952Y-56487307D01*
X71240619Y-56508725D01*
X71250458Y-56525362D01*
X71264779Y-56539683D01*
X71277619Y-56554716D01*
X71289528Y-56571107D01*
X71305362Y-56584206D01*
X71323605Y-56599298D01*
X71332384Y-56607288D01*
X72648343Y-57923247D01*
X72655887Y-57931537D01*
X72660000Y-57938018D01*
X72665777Y-57943443D01*
X72709667Y-57984658D01*
X72712509Y-57987413D01*
X72732230Y-58007134D01*
X72735425Y-58009612D01*
X72744447Y-58017318D01*
X72770900Y-58042160D01*
X72770904Y-58042163D01*
X72776679Y-58047586D01*
X72782546Y-58050811D01*
X72796084Y-58062374D01*
X73456942Y-58723232D01*
X73490968Y-58785544D01*
X73485903Y-58856359D01*
X73443356Y-58913195D01*
X73376836Y-58938006D01*
X73367620Y-58938109D01*
X73365396Y-58937787D01*
X73359408Y-58938064D01*
X73359405Y-58938064D01*
X73280545Y-58941714D01*
X73211573Y-58924883D01*
X73185625Y-58904944D01*
X70010405Y-55729724D01*
X69976379Y-55667412D01*
X69973500Y-55640629D01*
X69973500Y-51921511D01*
X69990381Y-51858511D01*
X69991840Y-51855985D01*
X70031047Y-51788076D01*
X70090062Y-51606448D01*
X70093918Y-51569766D01*
X70109334Y-51423085D01*
X70110024Y-51416520D01*
X70090062Y-51226592D01*
X70031047Y-51044964D01*
X70007237Y-51003723D01*
X69956902Y-50916542D01*
X69935560Y-50879576D01*
X69925503Y-50868406D01*
X69812195Y-50742565D01*
X69812194Y-50742564D01*
X69807773Y-50737654D01*
X69653272Y-50625402D01*
X69647244Y-50622718D01*
X69647242Y-50622717D01*
X69484839Y-50550411D01*
X69484838Y-50550411D01*
X69478808Y-50547726D01*
X69385407Y-50527873D01*
X69298464Y-50509392D01*
X69298459Y-50509392D01*
X69292007Y-50508020D01*
X69101033Y-50508020D01*
X69094581Y-50509392D01*
X69094576Y-50509392D01*
X69007633Y-50527873D01*
X68914232Y-50547726D01*
X68908202Y-50550411D01*
X68908201Y-50550411D01*
X68745798Y-50622717D01*
X68745796Y-50622718D01*
X68739768Y-50625402D01*
X68585267Y-50737654D01*
X68580846Y-50742564D01*
X68580845Y-50742565D01*
X68467538Y-50868406D01*
X68457480Y-50879576D01*
X68436138Y-50916542D01*
X68385804Y-51003723D01*
X68361993Y-51044964D01*
X68302978Y-51226592D01*
X68283016Y-51416520D01*
X68283706Y-51423085D01*
X68299123Y-51569766D01*
X68302978Y-51606448D01*
X68361993Y-51788076D01*
X68435104Y-51914707D01*
X68439619Y-51922528D01*
X68456500Y-51985528D01*
X68456500Y-55939930D01*
X68455067Y-55958880D01*
X68451801Y-55980349D01*
X68452394Y-55987641D01*
X68452394Y-55987644D01*
X68456085Y-56033018D01*
X68456500Y-56043233D01*
X68456500Y-56051293D01*
X68457988Y-56064058D01*
X68459789Y-56079507D01*
X68460222Y-56083882D01*
X68465109Y-56143958D01*
X68466140Y-56156637D01*
X68468396Y-56163601D01*
X68469587Y-56169560D01*
X68470971Y-56175415D01*
X68471818Y-56182681D01*
X68496735Y-56251327D01*
X68498152Y-56255455D01*
X68509834Y-56291514D01*
X68520649Y-56324899D01*
X68524445Y-56331154D01*
X68526951Y-56336628D01*
X68529670Y-56342058D01*
X68532167Y-56348937D01*
X68536180Y-56355057D01*
X68536180Y-56355058D01*
X68572186Y-56409976D01*
X68574523Y-56413680D01*
X68612405Y-56476107D01*
X68616121Y-56480315D01*
X68616122Y-56480316D01*
X68619803Y-56484484D01*
X68619776Y-56484508D01*
X68622429Y-56487500D01*
X68625132Y-56490733D01*
X68629144Y-56496852D01*
X68634456Y-56501884D01*
X68685383Y-56550128D01*
X68687825Y-56552506D01*
X70946390Y-58811071D01*
X70980416Y-58873383D01*
X70975351Y-58944198D01*
X70932804Y-59001034D01*
X70909450Y-59014864D01*
X70817940Y-59056472D01*
X70761622Y-59082078D01*
X70691331Y-59092064D01*
X70626800Y-59062464D01*
X70620376Y-59056472D01*
X70064051Y-58500146D01*
X69446172Y-57882267D01*
X69438632Y-57873981D01*
X69434520Y-57867502D01*
X69384868Y-57820876D01*
X69382027Y-57818122D01*
X69362290Y-57798385D01*
X69359093Y-57795905D01*
X69350071Y-57788200D01*
X69323620Y-57763361D01*
X69317841Y-57757934D01*
X69310895Y-57754115D01*
X69310892Y-57754113D01*
X69300086Y-57748172D01*
X69283567Y-57737321D01*
X69282863Y-57736775D01*
X69267561Y-57724906D01*
X69260292Y-57721761D01*
X69260288Y-57721758D01*
X69226983Y-57707346D01*
X69216333Y-57702129D01*
X69177580Y-57680825D01*
X69157957Y-57675787D01*
X69139254Y-57669383D01*
X69127940Y-57664487D01*
X69127939Y-57664487D01*
X69120665Y-57661339D01*
X69112842Y-57660100D01*
X69112832Y-57660097D01*
X69076996Y-57654421D01*
X69065376Y-57652015D01*
X69030231Y-57642992D01*
X69030230Y-57642992D01*
X69022550Y-57641020D01*
X69002296Y-57641020D01*
X68982585Y-57639469D01*
X68970406Y-57637540D01*
X68962577Y-57636300D01*
X68954685Y-57637046D01*
X68918559Y-57640461D01*
X68906701Y-57641020D01*
X61383115Y-57641020D01*
X61314994Y-57621018D01*
X61294020Y-57604115D01*
X60468925Y-56779020D01*
X60434899Y-56716708D01*
X60432020Y-56689925D01*
X60432020Y-51241288D01*
X60432547Y-51230105D01*
X60434222Y-51222612D01*
X60432082Y-51154521D01*
X60432020Y-51150564D01*
X60432020Y-51122664D01*
X60431516Y-51118673D01*
X60430583Y-51106831D01*
X60429443Y-51070556D01*
X60429194Y-51062631D01*
X60426982Y-51055017D01*
X60426981Y-51055012D01*
X60423543Y-51043179D01*
X60419532Y-51023815D01*
X60417987Y-51011584D01*
X60416994Y-51003723D01*
X60414077Y-50996356D01*
X60414076Y-50996351D01*
X60400718Y-50962612D01*
X60396874Y-50951385D01*
X60386750Y-50916542D01*
X60384538Y-50908927D01*
X60374227Y-50891492D01*
X60365532Y-50873744D01*
X60358072Y-50854903D01*
X60332084Y-50819133D01*
X60325568Y-50809213D01*
X60307100Y-50777985D01*
X60307098Y-50777982D01*
X60303062Y-50771158D01*
X60288741Y-50756837D01*
X60275900Y-50741803D01*
X60263992Y-50725413D01*
X60229915Y-50697222D01*
X60221136Y-50689232D01*
X57508172Y-47976267D01*
X57500632Y-47967981D01*
X57496520Y-47961502D01*
X57446868Y-47914876D01*
X57444027Y-47912122D01*
X57424290Y-47892385D01*
X57421093Y-47889905D01*
X57412071Y-47882200D01*
X57385620Y-47857361D01*
X57379841Y-47851934D01*
X57372895Y-47848115D01*
X57372892Y-47848113D01*
X57362086Y-47842172D01*
X57345567Y-47831321D01*
X57345103Y-47830961D01*
X57329561Y-47818906D01*
X57322292Y-47815761D01*
X57322288Y-47815758D01*
X57288983Y-47801346D01*
X57278333Y-47796129D01*
X57239580Y-47774825D01*
X57219957Y-47769787D01*
X57201254Y-47763383D01*
X57189940Y-47758487D01*
X57189939Y-47758487D01*
X57182665Y-47755339D01*
X57174842Y-47754100D01*
X57174832Y-47754097D01*
X57138996Y-47748421D01*
X57127376Y-47746015D01*
X57092231Y-47736992D01*
X57092230Y-47736992D01*
X57084550Y-47735020D01*
X57064296Y-47735020D01*
X57044585Y-47733469D01*
X57032406Y-47731540D01*
X57024577Y-47730300D01*
X57016685Y-47731046D01*
X56980559Y-47734461D01*
X56968701Y-47735020D01*
X52050923Y-47735020D01*
X51982802Y-47715018D01*
X51947710Y-47681291D01*
X51840879Y-47528720D01*
X51840877Y-47528717D01*
X51837720Y-47524209D01*
X51675822Y-47362311D01*
X51671314Y-47359154D01*
X51671311Y-47359152D01*
X51593133Y-47304411D01*
X51488271Y-47230986D01*
X51483289Y-47228663D01*
X51483284Y-47228660D01*
X51449065Y-47212704D01*
X51395780Y-47165787D01*
X51376319Y-47097510D01*
X51396861Y-47029550D01*
X51449065Y-46984314D01*
X51483284Y-46968358D01*
X51483289Y-46968355D01*
X51488271Y-46966032D01*
X51629820Y-46866918D01*
X51671311Y-46837866D01*
X51671314Y-46837864D01*
X51675822Y-46834707D01*
X51837720Y-46672809D01*
X51917779Y-46558474D01*
X51947695Y-46515749D01*
X52003152Y-46471421D01*
X52050908Y-46462020D01*
X59229926Y-46462020D01*
X59298047Y-46482022D01*
X59319021Y-46498925D01*
X64439398Y-51619302D01*
X64473424Y-51681614D01*
X64475613Y-51695227D01*
X64488344Y-51816354D01*
X64492978Y-51860448D01*
X64551993Y-52042076D01*
X64647480Y-52207464D01*
X64651898Y-52212371D01*
X64651899Y-52212372D01*
X64743534Y-52314143D01*
X64775267Y-52349386D01*
X64863970Y-52413833D01*
X64920855Y-52455162D01*
X64929768Y-52461638D01*
X64935796Y-52464322D01*
X64935798Y-52464323D01*
X65008276Y-52496592D01*
X65104232Y-52539314D01*
X65197632Y-52559167D01*
X65284576Y-52577648D01*
X65284581Y-52577648D01*
X65291033Y-52579020D01*
X65482007Y-52579020D01*
X65488459Y-52577648D01*
X65488464Y-52577648D01*
X65575407Y-52559167D01*
X65668808Y-52539314D01*
X65764764Y-52496592D01*
X65837242Y-52464323D01*
X65837244Y-52464322D01*
X65843272Y-52461638D01*
X65852186Y-52455162D01*
X65884343Y-52431798D01*
X65968440Y-52370698D01*
X66035306Y-52346840D01*
X66104458Y-52362920D01*
X66153938Y-52413833D01*
X66168500Y-52472634D01*
X66168500Y-55568826D01*
X66148498Y-55636947D01*
X66116561Y-55670762D01*
X66063747Y-55709134D01*
X66059326Y-55714044D01*
X66059325Y-55714045D01*
X65942844Y-55843411D01*
X65935960Y-55851056D01*
X65881308Y-55945716D01*
X65850804Y-55998551D01*
X65840473Y-56016444D01*
X65781458Y-56198072D01*
X65780768Y-56204633D01*
X65780768Y-56204635D01*
X65765602Y-56348937D01*
X65761496Y-56388000D01*
X65762186Y-56394565D01*
X65778176Y-56546697D01*
X65781458Y-56577928D01*
X65840473Y-56759556D01*
X65843776Y-56765278D01*
X65843777Y-56765279D01*
X65864359Y-56800927D01*
X65935960Y-56924944D01*
X65940378Y-56929851D01*
X65940379Y-56929852D01*
X66057762Y-57060219D01*
X66063747Y-57066866D01*
X66218248Y-57179118D01*
X66224276Y-57181802D01*
X66224278Y-57181803D01*
X66378582Y-57250503D01*
X66392712Y-57256794D01*
X66480942Y-57275548D01*
X66573056Y-57295128D01*
X66573061Y-57295128D01*
X66579513Y-57296500D01*
X66770487Y-57296500D01*
X66776939Y-57295128D01*
X66776944Y-57295128D01*
X66869058Y-57275548D01*
X66957288Y-57256794D01*
X66971418Y-57250503D01*
X67125722Y-57181803D01*
X67125724Y-57181802D01*
X67131752Y-57179118D01*
X67286253Y-57066866D01*
X67292238Y-57060219D01*
X67409621Y-56929852D01*
X67409622Y-56929851D01*
X67414040Y-56924944D01*
X67485641Y-56800927D01*
X67506223Y-56765279D01*
X67506224Y-56765278D01*
X67509527Y-56759556D01*
X67568542Y-56577928D01*
X67571825Y-56546697D01*
X67587814Y-56394565D01*
X67588504Y-56388000D01*
X67584398Y-56348937D01*
X67569232Y-56204635D01*
X67569232Y-56204633D01*
X67568542Y-56198072D01*
X67509527Y-56016444D01*
X67499197Y-55998551D01*
X67452381Y-55917465D01*
X67435500Y-55854465D01*
X67435500Y-50292634D01*
X67455502Y-50224513D01*
X67472405Y-50203539D01*
X71776452Y-45899492D01*
X71838764Y-45865466D01*
X71909579Y-45870531D01*
G37*
%TD.AperFunction*%
%TA.AperFunction,Conductor*%
G36*
X75131085Y-48607752D02*
G01*
X75170580Y-48634484D01*
X75744393Y-49208298D01*
X76312868Y-49776773D01*
X76320408Y-49785059D01*
X76324520Y-49791538D01*
X76330297Y-49796963D01*
X76374171Y-49838163D01*
X76377013Y-49840918D01*
X76396750Y-49860655D01*
X76399947Y-49863135D01*
X76408967Y-49870838D01*
X76441199Y-49901106D01*
X76448145Y-49904925D01*
X76448148Y-49904927D01*
X76458954Y-49910868D01*
X76475473Y-49921719D01*
X76491479Y-49934134D01*
X76498748Y-49937279D01*
X76498752Y-49937282D01*
X76532057Y-49951694D01*
X76542707Y-49956911D01*
X76581460Y-49978215D01*
X76589135Y-49980186D01*
X76589136Y-49980186D01*
X76601082Y-49983253D01*
X76619787Y-49989657D01*
X76638375Y-49997701D01*
X76646198Y-49998940D01*
X76646208Y-49998943D01*
X76682044Y-50004619D01*
X76693664Y-50007025D01*
X76720283Y-50013859D01*
X76736490Y-50018020D01*
X76756744Y-50018020D01*
X76776454Y-50019571D01*
X76796463Y-50022740D01*
X76804355Y-50021994D01*
X76840481Y-50018579D01*
X76852339Y-50018020D01*
X78279926Y-50018020D01*
X78348047Y-50038022D01*
X78369021Y-50054925D01*
X82935343Y-54621247D01*
X82942887Y-54629537D01*
X82947000Y-54636018D01*
X82952777Y-54641443D01*
X82996667Y-54682658D01*
X82999509Y-54685413D01*
X83019230Y-54705134D01*
X83022425Y-54707612D01*
X83031447Y-54715318D01*
X83063679Y-54745586D01*
X83070628Y-54749406D01*
X83081432Y-54755346D01*
X83097956Y-54766199D01*
X83113959Y-54778613D01*
X83154543Y-54796176D01*
X83165173Y-54801383D01*
X83203940Y-54822695D01*
X83211617Y-54824666D01*
X83211622Y-54824668D01*
X83223558Y-54827732D01*
X83242266Y-54834137D01*
X83260855Y-54842181D01*
X83268683Y-54843421D01*
X83268690Y-54843423D01*
X83304524Y-54849099D01*
X83316144Y-54851505D01*
X83351289Y-54860528D01*
X83358970Y-54862500D01*
X83379224Y-54862500D01*
X83398934Y-54864051D01*
X83418943Y-54867220D01*
X83426835Y-54866474D01*
X83462961Y-54863059D01*
X83474819Y-54862500D01*
X89783428Y-54862500D01*
X89851549Y-54882502D01*
X89872523Y-54899405D01*
X89900043Y-54926925D01*
X89934069Y-54989237D01*
X89929004Y-55060052D01*
X89886457Y-55116888D01*
X89819937Y-55141699D01*
X89810948Y-55142020D01*
X88622386Y-55142020D01*
X88560204Y-55148775D01*
X88423815Y-55199905D01*
X88307259Y-55287259D01*
X88219905Y-55403815D01*
X88168775Y-55540204D01*
X88168484Y-55542880D01*
X88134414Y-55602521D01*
X88071459Y-55635342D01*
X88047047Y-55637730D01*
X82862840Y-55637730D01*
X82843890Y-55636297D01*
X82829655Y-55634131D01*
X82829651Y-55634131D01*
X82822421Y-55633031D01*
X82815129Y-55633624D01*
X82815126Y-55633624D01*
X82769752Y-55637315D01*
X82759537Y-55637730D01*
X82751477Y-55637730D01*
X82738187Y-55639279D01*
X82723263Y-55641019D01*
X82718888Y-55641452D01*
X82653431Y-55646776D01*
X82653428Y-55646777D01*
X82646133Y-55647370D01*
X82639169Y-55649626D01*
X82633210Y-55650817D01*
X82627355Y-55652201D01*
X82620089Y-55653048D01*
X82551443Y-55677965D01*
X82547315Y-55679382D01*
X82484834Y-55699623D01*
X82484832Y-55699624D01*
X82477871Y-55701879D01*
X82471616Y-55705675D01*
X82466142Y-55708181D01*
X82460712Y-55710900D01*
X82453833Y-55713397D01*
X82447713Y-55717410D01*
X82447712Y-55717410D01*
X82392794Y-55753416D01*
X82389090Y-55755753D01*
X82326663Y-55793635D01*
X82318286Y-55801033D01*
X82318262Y-55801006D01*
X82315270Y-55803659D01*
X82312037Y-55806362D01*
X82305918Y-55810374D01*
X82300886Y-55815686D01*
X82252642Y-55866613D01*
X82250264Y-55869055D01*
X81427822Y-56691497D01*
X81365510Y-56725523D01*
X81294695Y-56720458D01*
X81237859Y-56677911D01*
X81213115Y-56612288D01*
X81205736Y-56518535D01*
X81204129Y-56498117D01*
X81201716Y-56488062D01*
X81160872Y-56317936D01*
X81145025Y-56251929D01*
X81137553Y-56233889D01*
X81050031Y-56022592D01*
X81050029Y-56022588D01*
X81048136Y-56018018D01*
X80915848Y-55802144D01*
X80751418Y-55609622D01*
X80558896Y-55445192D01*
X80343022Y-55312904D01*
X80338452Y-55311011D01*
X80338448Y-55311009D01*
X80113684Y-55217909D01*
X80113682Y-55217908D01*
X80109111Y-55216015D01*
X80024488Y-55195699D01*
X79867736Y-55158066D01*
X79867730Y-55158065D01*
X79862923Y-55156911D01*
X79610520Y-55137046D01*
X79358117Y-55156911D01*
X79353310Y-55158065D01*
X79353304Y-55158066D01*
X79196552Y-55195699D01*
X79111929Y-55216015D01*
X79107358Y-55217908D01*
X79107356Y-55217909D01*
X78882592Y-55311009D01*
X78882588Y-55311011D01*
X78878018Y-55312904D01*
X78662144Y-55445192D01*
X78469622Y-55609622D01*
X78305192Y-55802144D01*
X78172904Y-56018018D01*
X78171011Y-56022588D01*
X78171009Y-56022592D01*
X78083487Y-56233889D01*
X78076015Y-56251929D01*
X78060168Y-56317936D01*
X78019325Y-56488062D01*
X78016911Y-56498117D01*
X78015304Y-56518535D01*
X78013825Y-56537326D01*
X77988539Y-56603667D01*
X77931401Y-56645806D01*
X77860551Y-56650365D01*
X77798483Y-56615895D01*
X77785000Y-56599710D01*
X77682991Y-56454026D01*
X77682989Y-56454023D01*
X77679832Y-56449515D01*
X77517934Y-56287617D01*
X77503751Y-56277686D01*
X77459422Y-56222230D01*
X77450020Y-56174472D01*
X77450020Y-53389044D01*
X77470022Y-53320923D01*
X77482378Y-53304741D01*
X77555560Y-53223464D01*
X77651047Y-53058076D01*
X77710062Y-52876448D01*
X77718413Y-52796998D01*
X77729334Y-52693085D01*
X77730024Y-52686520D01*
X77720963Y-52600312D01*
X77710752Y-52503155D01*
X77710752Y-52503153D01*
X77710062Y-52496592D01*
X77651047Y-52314964D01*
X77647408Y-52308660D01*
X77608918Y-52241995D01*
X77555560Y-52149576D01*
X77519521Y-52109550D01*
X77432195Y-52012565D01*
X77432194Y-52012564D01*
X77427773Y-52007654D01*
X77294479Y-51910810D01*
X77278614Y-51899283D01*
X77278613Y-51899282D01*
X77273272Y-51895402D01*
X77267244Y-51892718D01*
X77267242Y-51892717D01*
X77104839Y-51820411D01*
X77104838Y-51820411D01*
X77098808Y-51817726D01*
X76986241Y-51793799D01*
X76918464Y-51779392D01*
X76918459Y-51779392D01*
X76912007Y-51778020D01*
X76721033Y-51778020D01*
X76714581Y-51779392D01*
X76714576Y-51779392D01*
X76646799Y-51793799D01*
X76534232Y-51817726D01*
X76528202Y-51820411D01*
X76528201Y-51820411D01*
X76365798Y-51892717D01*
X76365796Y-51892718D01*
X76359768Y-51895402D01*
X76354427Y-51899282D01*
X76354426Y-51899283D01*
X76338561Y-51910810D01*
X76205267Y-52007654D01*
X76200846Y-52012564D01*
X76200845Y-52012565D01*
X76113520Y-52109550D01*
X76077480Y-52149576D01*
X76024122Y-52241995D01*
X75985633Y-52308660D01*
X75981993Y-52314964D01*
X75922978Y-52496592D01*
X75922288Y-52503153D01*
X75922288Y-52503155D01*
X75912077Y-52600312D01*
X75903016Y-52686520D01*
X75903706Y-52693085D01*
X75914628Y-52796998D01*
X75922978Y-52876448D01*
X75981993Y-53058076D01*
X76077480Y-53223464D01*
X76150657Y-53304735D01*
X76181373Y-53368741D01*
X76183020Y-53389044D01*
X76183020Y-55998551D01*
X76163018Y-56066672D01*
X76110270Y-56112746D01*
X76021872Y-56153966D01*
X76021867Y-56153969D01*
X76016885Y-56156292D01*
X75930762Y-56216596D01*
X75833845Y-56284458D01*
X75833844Y-56284459D01*
X75829334Y-56287617D01*
X75667436Y-56449515D01*
X75664279Y-56454023D01*
X75664277Y-56454026D01*
X75614327Y-56525362D01*
X75536111Y-56637066D01*
X75533787Y-56642051D01*
X75533783Y-56642057D01*
X75506218Y-56701172D01*
X75459301Y-56754458D01*
X75391024Y-56773919D01*
X75323064Y-56753378D01*
X75284305Y-56713289D01*
X75281511Y-56708685D01*
X75281509Y-56708683D01*
X75278595Y-56703880D01*
X75271197Y-56695503D01*
X75271224Y-56695479D01*
X75268571Y-56692487D01*
X75265868Y-56689254D01*
X75261856Y-56683135D01*
X75205617Y-56629859D01*
X75203175Y-56627481D01*
X74995767Y-56420073D01*
X74961741Y-56357761D01*
X74963155Y-56298367D01*
X74983641Y-56221911D01*
X74983641Y-56221909D01*
X74985065Y-56216596D01*
X75005020Y-55988509D01*
X74985065Y-55760422D01*
X74983641Y-55755107D01*
X74927229Y-55544576D01*
X74927228Y-55544574D01*
X74925806Y-55539266D01*
X74913985Y-55513916D01*
X74831371Y-55336747D01*
X74831368Y-55336742D01*
X74829045Y-55331760D01*
X74706614Y-55156911D01*
X74700879Y-55148720D01*
X74700877Y-55148717D01*
X74697720Y-55144209D01*
X74535822Y-54982311D01*
X74531314Y-54979154D01*
X74531311Y-54979152D01*
X74415144Y-54897811D01*
X74348271Y-54850986D01*
X74343289Y-54848663D01*
X74343284Y-54848660D01*
X74308473Y-54832428D01*
X74255188Y-54785511D01*
X74235727Y-54717234D01*
X74256269Y-54649274D01*
X74308473Y-54604038D01*
X74343033Y-54587923D01*
X74352529Y-54582440D01*
X74530989Y-54457481D01*
X74539397Y-54450425D01*
X74693438Y-54296384D01*
X74700494Y-54287976D01*
X74825453Y-54109516D01*
X74830936Y-54100020D01*
X74923012Y-53902562D01*
X74926758Y-53892270D01*
X74972916Y-53720006D01*
X74972580Y-53705910D01*
X74964638Y-53702509D01*
X73363522Y-53702509D01*
X73295401Y-53682507D01*
X73248908Y-53628851D01*
X73237522Y-53576509D01*
X73237522Y-53320509D01*
X73257524Y-53252388D01*
X73311180Y-53205895D01*
X73363522Y-53194509D01*
X74959489Y-53194509D01*
X74973020Y-53190536D01*
X74974249Y-53181987D01*
X74926758Y-53004748D01*
X74923012Y-52994456D01*
X74830936Y-52796998D01*
X74825453Y-52787502D01*
X74700494Y-52609042D01*
X74693438Y-52600634D01*
X74539397Y-52446593D01*
X74530989Y-52439537D01*
X74352529Y-52314578D01*
X74343033Y-52309095D01*
X74308473Y-52292980D01*
X74255188Y-52246063D01*
X74235727Y-52177786D01*
X74256269Y-52109826D01*
X74308473Y-52064590D01*
X74343284Y-52048358D01*
X74343289Y-52048355D01*
X74348271Y-52046032D01*
X74482895Y-51951767D01*
X74531311Y-51917866D01*
X74531314Y-51917864D01*
X74535822Y-51914707D01*
X74697720Y-51752809D01*
X74738040Y-51695227D01*
X74825888Y-51569766D01*
X74829045Y-51565258D01*
X74831368Y-51560276D01*
X74831371Y-51560271D01*
X74923483Y-51362734D01*
X74923483Y-51362733D01*
X74925806Y-51357752D01*
X74960951Y-51226592D01*
X74983641Y-51141911D01*
X74983641Y-51141909D01*
X74985065Y-51136596D01*
X75005020Y-50908509D01*
X74985065Y-50680422D01*
X74969603Y-50622717D01*
X74927229Y-50464576D01*
X74927228Y-50464574D01*
X74925806Y-50459266D01*
X74923483Y-50454284D01*
X74831371Y-50256747D01*
X74831368Y-50256742D01*
X74829045Y-50251760D01*
X74697720Y-50064209D01*
X74535822Y-49902311D01*
X74531314Y-49899154D01*
X74531311Y-49899152D01*
X74428674Y-49827285D01*
X74348271Y-49770986D01*
X74343289Y-49768663D01*
X74343284Y-49768660D01*
X74309065Y-49752704D01*
X74255780Y-49705787D01*
X74236319Y-49637510D01*
X74256861Y-49569550D01*
X74309065Y-49524314D01*
X74343284Y-49508358D01*
X74343289Y-49508355D01*
X74348271Y-49506032D01*
X74471657Y-49419636D01*
X74531311Y-49377866D01*
X74531314Y-49377864D01*
X74535822Y-49374707D01*
X74697720Y-49212809D01*
X74829045Y-49025258D01*
X74831368Y-49020276D01*
X74831371Y-49020271D01*
X74923483Y-48822734D01*
X74923483Y-48822733D01*
X74925806Y-48817752D01*
X74938243Y-48771339D01*
X74959778Y-48690968D01*
X74996730Y-48630345D01*
X75060591Y-48599324D01*
X75131085Y-48607752D01*
G37*
%TD.AperFunction*%
%TA.AperFunction,Conductor*%
G36*
X72018120Y-42665102D02*
G01*
X72064613Y-42718758D01*
X72074717Y-42789032D01*
X72064195Y-42824346D01*
X72057238Y-42839266D01*
X72055814Y-42844581D01*
X72001910Y-43045753D01*
X71997979Y-43060422D01*
X71978024Y-43288509D01*
X71997979Y-43516596D01*
X71999403Y-43521909D01*
X71999403Y-43521911D01*
X72057238Y-43737752D01*
X72054561Y-43738469D01*
X72058557Y-43797678D01*
X72024640Y-43859496D01*
X69215837Y-46668298D01*
X66409747Y-49474388D01*
X66401461Y-49481928D01*
X66394982Y-49486040D01*
X66389557Y-49491817D01*
X66348357Y-49535691D01*
X66345602Y-49538533D01*
X66325865Y-49558270D01*
X66323385Y-49561467D01*
X66315682Y-49570487D01*
X66285414Y-49602719D01*
X66281595Y-49609665D01*
X66281593Y-49609668D01*
X66275652Y-49620474D01*
X66264801Y-49636993D01*
X66252386Y-49652999D01*
X66249241Y-49660268D01*
X66249238Y-49660272D01*
X66234826Y-49693577D01*
X66229609Y-49704227D01*
X66208305Y-49742980D01*
X66206334Y-49750655D01*
X66206334Y-49750656D01*
X66203267Y-49762602D01*
X66196863Y-49781306D01*
X66188819Y-49799895D01*
X66187580Y-49807718D01*
X66187577Y-49807728D01*
X66181901Y-49843564D01*
X66179495Y-49855184D01*
X66176519Y-49866775D01*
X66168500Y-49898010D01*
X66168500Y-49918264D01*
X66166949Y-49937974D01*
X66163780Y-49957983D01*
X66167535Y-49997701D01*
X66167941Y-50002001D01*
X66168500Y-50013859D01*
X66168500Y-50868406D01*
X66148498Y-50936527D01*
X66094842Y-50983020D01*
X66024568Y-50993124D01*
X65968441Y-50970343D01*
X65874514Y-50902101D01*
X65848614Y-50883283D01*
X65848613Y-50883282D01*
X65843272Y-50879402D01*
X65837244Y-50876718D01*
X65837242Y-50876717D01*
X65674839Y-50804411D01*
X65674838Y-50804411D01*
X65668808Y-50801726D01*
X65557116Y-50777985D01*
X65488464Y-50763392D01*
X65488459Y-50763392D01*
X65482007Y-50762020D01*
X65426115Y-50762020D01*
X65357994Y-50742018D01*
X65337020Y-50725115D01*
X60529520Y-45917615D01*
X60495494Y-45855303D01*
X60500559Y-45784488D01*
X60529520Y-45739425D01*
X63586940Y-42682005D01*
X63649252Y-42647979D01*
X63676035Y-42645100D01*
X71949999Y-42645100D01*
X72018120Y-42665102D01*
G37*
%TD.AperFunction*%
%TA.AperFunction,Conductor*%
G36*
X100080678Y-29484002D02*
G01*
X100127171Y-29537658D01*
X100137820Y-29603607D01*
X100132515Y-29652445D01*
X100132515Y-31748713D01*
X100139270Y-31810895D01*
X100190400Y-31947284D01*
X100277754Y-32063840D01*
X100394310Y-32151194D01*
X100530699Y-32202324D01*
X100592881Y-32209079D01*
X102689149Y-32209079D01*
X102751331Y-32202324D01*
X102826771Y-32174043D01*
X102897577Y-32168860D01*
X102959946Y-32202781D01*
X102994076Y-32265036D01*
X102997000Y-32292025D01*
X102997000Y-43079133D01*
X102976998Y-43147254D01*
X102923342Y-43193747D01*
X102853068Y-43203851D01*
X102826770Y-43197115D01*
X102817786Y-43193747D01*
X102751331Y-43168834D01*
X102689149Y-43162079D01*
X100592881Y-43162079D01*
X100530699Y-43168834D01*
X100394310Y-43219964D01*
X100277754Y-43307318D01*
X100190400Y-43423874D01*
X100139270Y-43560263D01*
X100132515Y-43622445D01*
X100132515Y-43786090D01*
X100112513Y-43854211D01*
X100058857Y-43900704D01*
X100006515Y-43912090D01*
X93281513Y-43912090D01*
X93262564Y-43910657D01*
X93262357Y-43910626D01*
X93241101Y-43907392D01*
X93233809Y-43907985D01*
X93233806Y-43907985D01*
X93188441Y-43911675D01*
X93178227Y-43912090D01*
X93170157Y-43912090D01*
X93166537Y-43912512D01*
X93166519Y-43912513D01*
X93141911Y-43915382D01*
X93137550Y-43915814D01*
X93112431Y-43917857D01*
X93072111Y-43921136D01*
X93072108Y-43921137D01*
X93064813Y-43921730D01*
X93057849Y-43923986D01*
X93051890Y-43925177D01*
X93046035Y-43926561D01*
X93038769Y-43927408D01*
X92970123Y-43952325D01*
X92965995Y-43953742D01*
X92903514Y-43973983D01*
X92903512Y-43973984D01*
X92896551Y-43976239D01*
X92890296Y-43980035D01*
X92884822Y-43982541D01*
X92879392Y-43985260D01*
X92872513Y-43987757D01*
X92811466Y-44027781D01*
X92807777Y-44030108D01*
X92787585Y-44042361D01*
X92750143Y-44065081D01*
X92750138Y-44065085D01*
X92745342Y-44067995D01*
X92736966Y-44075393D01*
X92736943Y-44075367D01*
X92733953Y-44078016D01*
X92730714Y-44080724D01*
X92724598Y-44084734D01*
X92719571Y-44090041D01*
X92719567Y-44090044D01*
X92671322Y-44140973D01*
X92668944Y-44143415D01*
X88598189Y-48214170D01*
X88535292Y-48248321D01*
X88478696Y-48260351D01*
X88478687Y-48260354D01*
X88472232Y-48261726D01*
X88466202Y-48264411D01*
X88466201Y-48264411D01*
X88303798Y-48336717D01*
X88303796Y-48336718D01*
X88297768Y-48339402D01*
X88292427Y-48343282D01*
X88292426Y-48343283D01*
X88242363Y-48379656D01*
X88143267Y-48451654D01*
X88015480Y-48593576D01*
X87991862Y-48634484D01*
X87926589Y-48747540D01*
X87919993Y-48758964D01*
X87899273Y-48822734D01*
X87868333Y-48917956D01*
X87828259Y-48976562D01*
X87762863Y-49004199D01*
X87748500Y-49005020D01*
X81414529Y-49005020D01*
X81346408Y-48985018D01*
X81325434Y-48968115D01*
X78751493Y-46394174D01*
X78717467Y-46331862D01*
X78722532Y-46261047D01*
X78765079Y-46204211D01*
X78831599Y-46179400D01*
X78840588Y-46179079D01*
X79829149Y-46179079D01*
X79891331Y-46172324D01*
X80027720Y-46121194D01*
X80144276Y-46033840D01*
X80231630Y-45917284D01*
X80282760Y-45780895D01*
X80289515Y-45718713D01*
X80289515Y-43622445D01*
X80282760Y-43560263D01*
X80231630Y-43423874D01*
X80144276Y-43307318D01*
X80064334Y-43247404D01*
X80021819Y-43190546D01*
X80016793Y-43119728D01*
X80050853Y-43057434D01*
X80064334Y-43045753D01*
X80137096Y-42991221D01*
X80144276Y-42985840D01*
X80231630Y-42869284D01*
X80282760Y-42732895D01*
X80289515Y-42670713D01*
X80289515Y-40574445D01*
X80282760Y-40512263D01*
X80231630Y-40375874D01*
X80144276Y-40259318D01*
X80027720Y-40171964D01*
X79891331Y-40120834D01*
X79829149Y-40114079D01*
X77732881Y-40114079D01*
X77670699Y-40120834D01*
X77534310Y-40171964D01*
X77417754Y-40259318D01*
X77330400Y-40375874D01*
X77279270Y-40512263D01*
X77272515Y-40574445D01*
X77272515Y-42670713D01*
X77279270Y-42732895D01*
X77330400Y-42869284D01*
X77417754Y-42985840D01*
X77424934Y-42991221D01*
X77497696Y-43045753D01*
X77540211Y-43102612D01*
X77545237Y-43173430D01*
X77511177Y-43235724D01*
X77497698Y-43247403D01*
X77417754Y-43307318D01*
X77330400Y-43423874D01*
X77279270Y-43560263D01*
X77272515Y-43622445D01*
X77272515Y-43763621D01*
X77252513Y-43831742D01*
X77198857Y-43878235D01*
X77128583Y-43888339D01*
X77064003Y-43858845D01*
X77057420Y-43852716D01*
X76043971Y-42839266D01*
X74824052Y-41619347D01*
X74816514Y-41611064D01*
X74812400Y-41604582D01*
X74806618Y-41599153D01*
X74806420Y-41598913D01*
X74778409Y-41533676D01*
X74790114Y-41463651D01*
X74800290Y-41446324D01*
X74816362Y-41423371D01*
X74829045Y-41405258D01*
X74831368Y-41400276D01*
X74831371Y-41400271D01*
X74923483Y-41202734D01*
X74923483Y-41202733D01*
X74925806Y-41197752D01*
X74985065Y-40976596D01*
X75005020Y-40748509D01*
X74985065Y-40520422D01*
X74925806Y-40299266D01*
X74868956Y-40177350D01*
X74831371Y-40096747D01*
X74831368Y-40096742D01*
X74829045Y-40091760D01*
X74697720Y-39904209D01*
X74535822Y-39742311D01*
X74531314Y-39739154D01*
X74531311Y-39739152D01*
X74430122Y-39668299D01*
X74348271Y-39610986D01*
X74343289Y-39608663D01*
X74343284Y-39608660D01*
X74309065Y-39592704D01*
X74255780Y-39545787D01*
X74236319Y-39477510D01*
X74256861Y-39409550D01*
X74309065Y-39364314D01*
X74343284Y-39348358D01*
X74343289Y-39348355D01*
X74348271Y-39346032D01*
X74471080Y-39260040D01*
X74531311Y-39217866D01*
X74531314Y-39217864D01*
X74535822Y-39214707D01*
X74697720Y-39052809D01*
X74829045Y-38865258D01*
X74831368Y-38860276D01*
X74831371Y-38860271D01*
X74923483Y-38662734D01*
X74923483Y-38662733D01*
X74925806Y-38657752D01*
X74931586Y-38636183D01*
X74983641Y-38441911D01*
X74983641Y-38441909D01*
X74985065Y-38436596D01*
X75005020Y-38208509D01*
X74985065Y-37980422D01*
X74983641Y-37975107D01*
X74956898Y-37875301D01*
X74958588Y-37804325D01*
X74998382Y-37745529D01*
X75068389Y-37717105D01*
X75077409Y-37716371D01*
X75083019Y-37715915D01*
X75093233Y-37715500D01*
X75101293Y-37715500D01*
X75114583Y-37713951D01*
X75129507Y-37712211D01*
X75133882Y-37711778D01*
X75199339Y-37706454D01*
X75199342Y-37706453D01*
X75206637Y-37705860D01*
X75213601Y-37703604D01*
X75219560Y-37702413D01*
X75225415Y-37701029D01*
X75232681Y-37700182D01*
X75301327Y-37675265D01*
X75305455Y-37673848D01*
X75367936Y-37653607D01*
X75367938Y-37653606D01*
X75374899Y-37651351D01*
X75381154Y-37647555D01*
X75386628Y-37645049D01*
X75392058Y-37642330D01*
X75398937Y-37639833D01*
X75459976Y-37599814D01*
X75463680Y-37597477D01*
X75526107Y-37559595D01*
X75534484Y-37552197D01*
X75534508Y-37552224D01*
X75537500Y-37549571D01*
X75540733Y-37546868D01*
X75546852Y-37542856D01*
X75600128Y-37486617D01*
X75602506Y-37484175D01*
X77069911Y-36016770D01*
X77084323Y-36004384D01*
X77095918Y-35995851D01*
X77095923Y-35995846D01*
X77101818Y-35991508D01*
X77106557Y-35985930D01*
X77106560Y-35985927D01*
X77136035Y-35951232D01*
X77142965Y-35943716D01*
X77148660Y-35938021D01*
X77166281Y-35915749D01*
X77169072Y-35912345D01*
X77211591Y-35862297D01*
X77211592Y-35862295D01*
X77216333Y-35856715D01*
X77219661Y-35850199D01*
X77223020Y-35845162D01*
X77226194Y-35840023D01*
X77230734Y-35834284D01*
X77261636Y-35768163D01*
X77263569Y-35764209D01*
X77267239Y-35757021D01*
X77296769Y-35699192D01*
X77298510Y-35692076D01*
X77300604Y-35686446D01*
X77302523Y-35680679D01*
X77305621Y-35674050D01*
X77320483Y-35602600D01*
X77321453Y-35598315D01*
X77337473Y-35532844D01*
X77338808Y-35527390D01*
X77339500Y-35516236D01*
X77339536Y-35516238D01*
X77339775Y-35512248D01*
X77340150Y-35508050D01*
X77341640Y-35500885D01*
X77339546Y-35423479D01*
X77339500Y-35420072D01*
X77339500Y-35303718D01*
X77359502Y-35235597D01*
X77413158Y-35189104D01*
X77483432Y-35179000D01*
X77526011Y-35193199D01*
X77527124Y-35193808D01*
X77534310Y-35199194D01*
X77670699Y-35250324D01*
X77732881Y-35257079D01*
X79829149Y-35257079D01*
X79891331Y-35250324D01*
X80027720Y-35199194D01*
X80144276Y-35111840D01*
X80231630Y-34995284D01*
X80282760Y-34858895D01*
X80289515Y-34796713D01*
X80289515Y-32700445D01*
X80282760Y-32638263D01*
X80231630Y-32501874D01*
X80144276Y-32385318D01*
X80064334Y-32325404D01*
X80021819Y-32268546D01*
X80016793Y-32197728D01*
X80050853Y-32135434D01*
X80064334Y-32123753D01*
X80137096Y-32069221D01*
X80144276Y-32063840D01*
X80231630Y-31947284D01*
X80282760Y-31810895D01*
X80289515Y-31748713D01*
X80289515Y-29652445D01*
X80284210Y-29603607D01*
X80296738Y-29533725D01*
X80345060Y-29481709D01*
X80409473Y-29464000D01*
X100012557Y-29464000D01*
X100080678Y-29484002D01*
G37*
%TD.AperFunction*%
%TA.AperFunction,Conductor*%
G36*
X75104415Y-43695296D02*
G01*
X75124551Y-43711655D01*
X76291595Y-44878699D01*
X76325621Y-44941011D01*
X76328500Y-44967794D01*
X76328500Y-45421819D01*
X76327973Y-45433002D01*
X76326298Y-45440495D01*
X76326547Y-45448421D01*
X76326547Y-45448422D01*
X76328438Y-45508572D01*
X76328500Y-45512531D01*
X76328500Y-45540442D01*
X76328997Y-45544376D01*
X76328997Y-45544377D01*
X76329005Y-45544442D01*
X76329938Y-45556279D01*
X76331327Y-45600475D01*
X76336978Y-45619925D01*
X76340987Y-45639286D01*
X76343526Y-45659383D01*
X76346445Y-45666754D01*
X76346445Y-45666756D01*
X76359804Y-45700498D01*
X76363647Y-45711722D01*
X76368314Y-45727785D01*
X76368115Y-45798780D01*
X76329564Y-45858398D01*
X76279931Y-45884648D01*
X76229709Y-45898105D01*
X76229698Y-45898109D01*
X76224391Y-45899531D01*
X76219410Y-45901854D01*
X76219409Y-45901854D01*
X76021872Y-45993966D01*
X76021867Y-45993969D01*
X76016885Y-45996292D01*
X75930762Y-46056596D01*
X75833845Y-46124458D01*
X75833842Y-46124460D01*
X75829334Y-46127617D01*
X75667436Y-46289515D01*
X75664279Y-46294023D01*
X75664277Y-46294026D01*
X75609536Y-46372204D01*
X75536111Y-46477066D01*
X75533788Y-46482048D01*
X75533785Y-46482053D01*
X75444835Y-46672809D01*
X75439350Y-46684572D01*
X75437928Y-46689879D01*
X75405625Y-46810435D01*
X75368673Y-46871057D01*
X75304812Y-46902079D01*
X75234318Y-46893650D01*
X75194822Y-46866918D01*
X74886379Y-46558474D01*
X74852354Y-46496162D01*
X74857419Y-46425346D01*
X74861280Y-46416129D01*
X74923483Y-46282734D01*
X74923483Y-46282733D01*
X74925806Y-46277752D01*
X74945512Y-46204211D01*
X74983641Y-46061911D01*
X74983641Y-46061909D01*
X74985065Y-46056596D01*
X75005020Y-45828509D01*
X74985065Y-45600422D01*
X74982957Y-45592556D01*
X74927229Y-45384576D01*
X74927228Y-45384574D01*
X74925806Y-45379266D01*
X74923483Y-45374284D01*
X74831371Y-45176747D01*
X74831368Y-45176742D01*
X74829045Y-45171760D01*
X74697720Y-44984209D01*
X74535822Y-44822311D01*
X74531314Y-44819154D01*
X74531311Y-44819152D01*
X74374370Y-44709261D01*
X74348271Y-44690986D01*
X74343289Y-44688663D01*
X74343284Y-44688660D01*
X74309065Y-44672704D01*
X74255780Y-44625787D01*
X74236319Y-44557510D01*
X74256861Y-44489550D01*
X74309065Y-44444314D01*
X74343284Y-44428358D01*
X74343289Y-44428355D01*
X74348271Y-44426032D01*
X74471657Y-44339636D01*
X74531311Y-44297866D01*
X74531314Y-44297864D01*
X74535822Y-44294707D01*
X74697720Y-44132809D01*
X74708966Y-44116749D01*
X74769625Y-44030118D01*
X74829045Y-43945258D01*
X74831368Y-43940276D01*
X74831371Y-43940271D01*
X74921261Y-43747500D01*
X74968178Y-43694215D01*
X75036456Y-43674754D01*
X75104415Y-43695296D01*
G37*
%TD.AperFunction*%
%TA.AperFunction,Conductor*%
G36*
X71335250Y-36850002D02*
G01*
X71381743Y-36903658D01*
X71391847Y-36973932D01*
X71362353Y-37038512D01*
X71356224Y-37045095D01*
X70588724Y-37812595D01*
X70526412Y-37846621D01*
X70499629Y-37849500D01*
X56963070Y-37849500D01*
X56944120Y-37848067D01*
X56929885Y-37845901D01*
X56929881Y-37845901D01*
X56922651Y-37844801D01*
X56915359Y-37845394D01*
X56915356Y-37845394D01*
X56869982Y-37849085D01*
X56859767Y-37849500D01*
X56851707Y-37849500D01*
X56838417Y-37851049D01*
X56823493Y-37852789D01*
X56819118Y-37853222D01*
X56753661Y-37858546D01*
X56753658Y-37858547D01*
X56746363Y-37859140D01*
X56739399Y-37861396D01*
X56733440Y-37862587D01*
X56727585Y-37863971D01*
X56720319Y-37864818D01*
X56651673Y-37889735D01*
X56647545Y-37891152D01*
X56585064Y-37911393D01*
X56585062Y-37911394D01*
X56578101Y-37913649D01*
X56571846Y-37917445D01*
X56566372Y-37919951D01*
X56560942Y-37922670D01*
X56554063Y-37925167D01*
X56547943Y-37929180D01*
X56547942Y-37929180D01*
X56493024Y-37965186D01*
X56489320Y-37967523D01*
X56426893Y-38005405D01*
X56418516Y-38012803D01*
X56418492Y-38012776D01*
X56415500Y-38015429D01*
X56412267Y-38018132D01*
X56406148Y-38022144D01*
X56401116Y-38027456D01*
X56352872Y-38078383D01*
X56350494Y-38080825D01*
X53232089Y-41199230D01*
X53217677Y-41211616D01*
X53206082Y-41220149D01*
X53206077Y-41220154D01*
X53200182Y-41224492D01*
X53195443Y-41230070D01*
X53195440Y-41230073D01*
X53165965Y-41264768D01*
X53159035Y-41272284D01*
X53153340Y-41277979D01*
X53151060Y-41280861D01*
X53135719Y-41300251D01*
X53132928Y-41303655D01*
X53090409Y-41353703D01*
X53085667Y-41359285D01*
X53082339Y-41365801D01*
X53078972Y-41370850D01*
X53075805Y-41375979D01*
X53071266Y-41381716D01*
X53040345Y-41447875D01*
X53038442Y-41451769D01*
X53005231Y-41516808D01*
X53003492Y-41523916D01*
X53001393Y-41529559D01*
X52999476Y-41535322D01*
X52996378Y-41541950D01*
X52994888Y-41549112D01*
X52994888Y-41549113D01*
X52981514Y-41613412D01*
X52980544Y-41617696D01*
X52963192Y-41688610D01*
X52962500Y-41699764D01*
X52962464Y-41699762D01*
X52962225Y-41703755D01*
X52961851Y-41707947D01*
X52960360Y-41715115D01*
X52960558Y-41722432D01*
X52962454Y-41792521D01*
X52962500Y-41795928D01*
X52962500Y-42897001D01*
X52945619Y-42960001D01*
X52896110Y-43045753D01*
X52886473Y-43062444D01*
X52827458Y-43244072D01*
X52826768Y-43250633D01*
X52826768Y-43250635D01*
X52822212Y-43293984D01*
X52807496Y-43434000D01*
X52808186Y-43440565D01*
X52820767Y-43560263D01*
X52827458Y-43623928D01*
X52886473Y-43805556D01*
X52889776Y-43811278D01*
X52889777Y-43811279D01*
X52913701Y-43852716D01*
X52981960Y-43970944D01*
X52986378Y-43975851D01*
X52986379Y-43975852D01*
X52992402Y-43982541D01*
X53109747Y-44112866D01*
X53264248Y-44225118D01*
X53270276Y-44227802D01*
X53270278Y-44227803D01*
X53394341Y-44283039D01*
X53438712Y-44302794D01*
X53532113Y-44322647D01*
X53619056Y-44341128D01*
X53619061Y-44341128D01*
X53625513Y-44342500D01*
X53816487Y-44342500D01*
X53822939Y-44341128D01*
X53822944Y-44341128D01*
X53909887Y-44322647D01*
X54003288Y-44302794D01*
X54047659Y-44283039D01*
X54171722Y-44227803D01*
X54171724Y-44227802D01*
X54177752Y-44225118D01*
X54332253Y-44112866D01*
X54449598Y-43982541D01*
X54455621Y-43975852D01*
X54455622Y-43975851D01*
X54460040Y-43970944D01*
X54528299Y-43852716D01*
X54552223Y-43811279D01*
X54552224Y-43811278D01*
X54555527Y-43805556D01*
X54614542Y-43623928D01*
X54621234Y-43560263D01*
X54633814Y-43440565D01*
X54634504Y-43434000D01*
X54619788Y-43293984D01*
X54615232Y-43250635D01*
X54615232Y-43250633D01*
X54614542Y-43244072D01*
X54555527Y-43062444D01*
X54545891Y-43045753D01*
X54496381Y-42960001D01*
X54479500Y-42897001D01*
X54479500Y-42149371D01*
X54499502Y-42081250D01*
X54516405Y-42060276D01*
X57173276Y-39403405D01*
X57235588Y-39369379D01*
X57262371Y-39366500D01*
X70798930Y-39366500D01*
X70817880Y-39367933D01*
X70832115Y-39370099D01*
X70832119Y-39370099D01*
X70839349Y-39371199D01*
X70846641Y-39370606D01*
X70846644Y-39370606D01*
X70892018Y-39366915D01*
X70902233Y-39366500D01*
X70910293Y-39366500D01*
X70929044Y-39364314D01*
X70938507Y-39363211D01*
X70942882Y-39362778D01*
X71008339Y-39357454D01*
X71008342Y-39357453D01*
X71015637Y-39356860D01*
X71022601Y-39354604D01*
X71028560Y-39353413D01*
X71034415Y-39352029D01*
X71041681Y-39351182D01*
X71110327Y-39326265D01*
X71114455Y-39324848D01*
X71176936Y-39304607D01*
X71176938Y-39304606D01*
X71183899Y-39302351D01*
X71190154Y-39298555D01*
X71195628Y-39296049D01*
X71201058Y-39293330D01*
X71207937Y-39290833D01*
X71268976Y-39250814D01*
X71272680Y-39248477D01*
X71335107Y-39210595D01*
X71343484Y-39203197D01*
X71343508Y-39203224D01*
X71346500Y-39200571D01*
X71349733Y-39197868D01*
X71355852Y-39193856D01*
X71409128Y-39137617D01*
X71411506Y-39135175D01*
X71876472Y-38670209D01*
X71938784Y-38636183D01*
X72009599Y-38641248D01*
X72066435Y-38683795D01*
X72079762Y-38706055D01*
X72151671Y-38860267D01*
X72151675Y-38860273D01*
X72153999Y-38865258D01*
X72285324Y-39052809D01*
X72447222Y-39214707D01*
X72451730Y-39217864D01*
X72451733Y-39217866D01*
X72511964Y-39260040D01*
X72634773Y-39346032D01*
X72639755Y-39348355D01*
X72639760Y-39348358D01*
X72673979Y-39364314D01*
X72727264Y-39411231D01*
X72746725Y-39479508D01*
X72726183Y-39547468D01*
X72673979Y-39592704D01*
X72639760Y-39608660D01*
X72639755Y-39608663D01*
X72634773Y-39610986D01*
X72552922Y-39668299D01*
X72451733Y-39739152D01*
X72451730Y-39739154D01*
X72447222Y-39742311D01*
X72285324Y-39904209D01*
X72153999Y-40091760D01*
X72151676Y-40096742D01*
X72151673Y-40096747D01*
X72114088Y-40177350D01*
X72057238Y-40299266D01*
X71997979Y-40520422D01*
X71978024Y-40748509D01*
X71997979Y-40976596D01*
X72057238Y-41197752D01*
X72059561Y-41202734D01*
X72061444Y-41207907D01*
X72059247Y-41208707D01*
X72068411Y-41269042D01*
X72039431Y-41333855D01*
X71980011Y-41372711D01*
X71943555Y-41378100D01*
X63440207Y-41378100D01*
X63429024Y-41377573D01*
X63421531Y-41375898D01*
X63413605Y-41376147D01*
X63413604Y-41376147D01*
X63353454Y-41378038D01*
X63349495Y-41378100D01*
X63321584Y-41378100D01*
X63317650Y-41378597D01*
X63317649Y-41378597D01*
X63317584Y-41378605D01*
X63305747Y-41379538D01*
X63273489Y-41380552D01*
X63269470Y-41380678D01*
X63261551Y-41380927D01*
X63242097Y-41386579D01*
X63222740Y-41390587D01*
X63210510Y-41392132D01*
X63210509Y-41392132D01*
X63202643Y-41393126D01*
X63195272Y-41396045D01*
X63195270Y-41396045D01*
X63161528Y-41409404D01*
X63150298Y-41413249D01*
X63115457Y-41423371D01*
X63115456Y-41423371D01*
X63107847Y-41425582D01*
X63101028Y-41429615D01*
X63101023Y-41429617D01*
X63090412Y-41435893D01*
X63072664Y-41444588D01*
X63053823Y-41452048D01*
X63047407Y-41456710D01*
X63047406Y-41456710D01*
X63018053Y-41478036D01*
X63008133Y-41484552D01*
X62976905Y-41503020D01*
X62976902Y-41503022D01*
X62970078Y-41507058D01*
X62955757Y-41521379D01*
X62940724Y-41534219D01*
X62924333Y-41546128D01*
X62919282Y-41552234D01*
X62896142Y-41580205D01*
X62888152Y-41588984D01*
X59319020Y-45158115D01*
X59256708Y-45192141D01*
X59229925Y-45195020D01*
X52050923Y-45195020D01*
X51982802Y-45175018D01*
X51947710Y-45141291D01*
X51840879Y-44988720D01*
X51840877Y-44988717D01*
X51837720Y-44984209D01*
X51675822Y-44822311D01*
X51671314Y-44819154D01*
X51671311Y-44819152D01*
X51514370Y-44709261D01*
X51488271Y-44690986D01*
X51483289Y-44688663D01*
X51483284Y-44688660D01*
X51449065Y-44672704D01*
X51395780Y-44625787D01*
X51376319Y-44557510D01*
X51396861Y-44489550D01*
X51449065Y-44444314D01*
X51483284Y-44428358D01*
X51483289Y-44428355D01*
X51488271Y-44426032D01*
X51611657Y-44339636D01*
X51671311Y-44297866D01*
X51671314Y-44297864D01*
X51675822Y-44294707D01*
X51837720Y-44132809D01*
X51848966Y-44116749D01*
X51909625Y-44030118D01*
X51969045Y-43945258D01*
X51971368Y-43940276D01*
X51971371Y-43940271D01*
X52063483Y-43742734D01*
X52063483Y-43742733D01*
X52065806Y-43737752D01*
X52082687Y-43674754D01*
X52123641Y-43521911D01*
X52123641Y-43521909D01*
X52125065Y-43516596D01*
X52145020Y-43288509D01*
X52125065Y-43060422D01*
X52123641Y-43055107D01*
X52067229Y-42844576D01*
X52067228Y-42844574D01*
X52065806Y-42839266D01*
X52016205Y-42732895D01*
X51971371Y-42636747D01*
X51971368Y-42636742D01*
X51969045Y-42631760D01*
X51837720Y-42444209D01*
X51675822Y-42282311D01*
X51671314Y-42279154D01*
X51671311Y-42279152D01*
X51514370Y-42169261D01*
X51488271Y-42150986D01*
X51483289Y-42148663D01*
X51483284Y-42148660D01*
X51449065Y-42132704D01*
X51395780Y-42085787D01*
X51376319Y-42017510D01*
X51396861Y-41949550D01*
X51449065Y-41904314D01*
X51483284Y-41888358D01*
X51483289Y-41888355D01*
X51488271Y-41886032D01*
X51611657Y-41799636D01*
X51671311Y-41757866D01*
X51671314Y-41757864D01*
X51675822Y-41754707D01*
X51837720Y-41592809D01*
X51846546Y-41580205D01*
X51900591Y-41503020D01*
X51969045Y-41405258D01*
X51971368Y-41400276D01*
X51971371Y-41400271D01*
X52063483Y-41202734D01*
X52063483Y-41202733D01*
X52065806Y-41197752D01*
X52125065Y-40976596D01*
X52145020Y-40748509D01*
X52125065Y-40520422D01*
X52065806Y-40299266D01*
X52008956Y-40177350D01*
X51971371Y-40096747D01*
X51971368Y-40096742D01*
X51969045Y-40091760D01*
X51837720Y-39904209D01*
X51808887Y-39875376D01*
X51774861Y-39813064D01*
X51779926Y-39742249D01*
X51822473Y-39685413D01*
X51853754Y-39668299D01*
X51869815Y-39662278D01*
X51869818Y-39662276D01*
X51878227Y-39659124D01*
X51994783Y-39571770D01*
X52082137Y-39455214D01*
X52133267Y-39318825D01*
X52140022Y-39256643D01*
X52140022Y-37160375D01*
X52133267Y-37098193D01*
X52096542Y-37000229D01*
X52091359Y-36929423D01*
X52125280Y-36867054D01*
X52187535Y-36832924D01*
X52214524Y-36830000D01*
X71267129Y-36830000D01*
X71335250Y-36850002D01*
G37*
%TD.AperFunction*%
%TA.AperFunction,Conductor*%
G36*
X77220678Y-29484002D02*
G01*
X77267171Y-29537658D01*
X77277820Y-29603607D01*
X77272515Y-29652445D01*
X77272515Y-31084208D01*
X77252513Y-31152329D01*
X77235610Y-31173303D01*
X76092089Y-32316824D01*
X76077677Y-32329210D01*
X76066082Y-32337743D01*
X76066077Y-32337748D01*
X76060182Y-32342086D01*
X76055443Y-32347664D01*
X76055440Y-32347667D01*
X76025965Y-32382362D01*
X76019035Y-32389878D01*
X76013340Y-32395573D01*
X76011060Y-32398455D01*
X75995719Y-32417845D01*
X75992928Y-32421249D01*
X75950409Y-32471297D01*
X75945667Y-32476879D01*
X75942339Y-32483395D01*
X75938972Y-32488444D01*
X75935805Y-32493573D01*
X75931266Y-32499310D01*
X75900345Y-32565469D01*
X75898442Y-32569363D01*
X75865231Y-32634402D01*
X75863492Y-32641510D01*
X75861393Y-32647153D01*
X75859476Y-32652916D01*
X75856378Y-32659544D01*
X75854888Y-32666706D01*
X75854888Y-32666707D01*
X75841514Y-32731006D01*
X75840544Y-32735290D01*
X75823192Y-32806204D01*
X75822500Y-32817358D01*
X75822464Y-32817356D01*
X75822225Y-32821349D01*
X75821851Y-32825541D01*
X75820360Y-32832709D01*
X75820558Y-32840026D01*
X75822454Y-32910115D01*
X75822500Y-32913522D01*
X75822500Y-35066629D01*
X75802498Y-35134750D01*
X75785595Y-35155724D01*
X75526095Y-35415224D01*
X75463783Y-35449250D01*
X75392968Y-35444185D01*
X75336132Y-35401638D01*
X75311321Y-35335118D01*
X75311000Y-35326129D01*
X75311000Y-29590000D01*
X75331002Y-29521879D01*
X75384658Y-29475386D01*
X75437000Y-29464000D01*
X77152557Y-29464000D01*
X77220678Y-29484002D01*
G37*
%TD.AperFunction*%
%TD*%
M02*
