%TF.GenerationSoftware,KiCad,Pcbnew,(6.0.2)*%
%TF.CreationDate,2022-04-13T16:43:27-04:00*%
%TF.ProjectId,breakout_slime,62726561-6b6f-4757-945f-736c696d652e,v0.1.3*%
%TF.SameCoordinates,Original*%
%TF.FileFunction,Copper,L1,Top*%
%TF.FilePolarity,Positive*%
%FSLAX46Y46*%
G04 Gerber Fmt 4.6, Leading zero omitted, Abs format (unit mm)*
G04 Created by KiCad (PCBNEW (6.0.2)) date 2022-04-13 16:43:27*
%MOMM*%
%LPD*%
G01*
G04 APERTURE LIST*
G04 Aperture macros list*
%AMRoundRect*
0 Rectangle with rounded corners*
0 $1 Rounding radius*
0 $2 $3 $4 $5 $6 $7 $8 $9 X,Y pos of 4 corners*
0 Add a 4 corners polygon primitive as box body*
4,1,4,$2,$3,$4,$5,$6,$7,$8,$9,$2,$3,0*
0 Add four circle primitives for the rounded corners*
1,1,$1+$1,$2,$3*
1,1,$1+$1,$4,$5*
1,1,$1+$1,$6,$7*
1,1,$1+$1,$8,$9*
0 Add four rect primitives between the rounded corners*
20,1,$1+$1,$2,$3,$4,$5,0*
20,1,$1+$1,$4,$5,$6,$7,0*
20,1,$1+$1,$6,$7,$8,$9,0*
20,1,$1+$1,$8,$9,$2,$3,0*%
G04 Aperture macros list end*
%TA.AperFunction,ComponentPad*%
%ADD10C,1.600000*%
%TD*%
%TA.AperFunction,ComponentPad*%
%ADD11O,1.600000X1.600000*%
%TD*%
%TA.AperFunction,ComponentPad*%
%ADD12C,1.651000*%
%TD*%
%TA.AperFunction,ComponentPad*%
%ADD13R,1.651000X1.651000*%
%TD*%
%TA.AperFunction,ComponentPad*%
%ADD14R,2.000000X2.000000*%
%TD*%
%TA.AperFunction,ComponentPad*%
%ADD15O,2.000000X1.600000*%
%TD*%
%TA.AperFunction,ComponentPad*%
%ADD16R,2.200000X2.200000*%
%TD*%
%TA.AperFunction,ComponentPad*%
%ADD17O,2.200000X2.200000*%
%TD*%
%TA.AperFunction,ComponentPad*%
%ADD18RoundRect,0.250000X0.350000X0.625000X-0.350000X0.625000X-0.350000X-0.625000X0.350000X-0.625000X0*%
%TD*%
%TA.AperFunction,ComponentPad*%
%ADD19O,1.200000X1.750000*%
%TD*%
%TA.AperFunction,ComponentPad*%
%ADD20O,2.200000X3.500000*%
%TD*%
%TA.AperFunction,ComponentPad*%
%ADD21R,1.500000X2.500000*%
%TD*%
%TA.AperFunction,ComponentPad*%
%ADD22O,1.500000X2.500000*%
%TD*%
%TA.AperFunction,ComponentPad*%
%ADD23RoundRect,0.250000X-0.625000X0.350000X-0.625000X-0.350000X0.625000X-0.350000X0.625000X0.350000X0*%
%TD*%
%TA.AperFunction,ComponentPad*%
%ADD24O,1.750000X1.200000*%
%TD*%
%TA.AperFunction,ViaPad*%
%ADD25C,0.800000*%
%TD*%
%TA.AperFunction,Conductor*%
%ADD26C,0.500000*%
%TD*%
%TA.AperFunction,Conductor*%
%ADD27C,0.250000*%
%TD*%
G04 APERTURE END LIST*
D10*
%TO.P,R1,1*%
%TO.N,Net-(R1-Pad1)*%
X76673634Y-57293815D03*
D11*
%TO.P,R1,2*%
%TO.N,B+*%
X76673634Y-47133815D03*
%TD*%
D12*
%TO.P,U3,*%
%TO.N,*%
X102206037Y-62860969D03*
X99793037Y-62860969D03*
D13*
%TO.P,U3,1,VCC*%
%TO.N,+3V3*%
X79346037Y-62860969D03*
D12*
%TO.P,U3,2,GND*%
%TO.N,GND*%
X81886037Y-62860969D03*
%TO.P,U3,3,SCL*%
%TO.N,SCL*%
X84426037Y-62860969D03*
%TO.P,U3,4,SDA*%
%TO.N,SDA*%
X86966037Y-62860969D03*
%TO.P,U3,5,AD0_BNO/INT_ICM*%
%TO.N,Net-(JP1-Pad1)*%
X89506037Y-62860969D03*
%TO.P,U3,6,AD0_ICM*%
%TO.N,unconnected-(U3-Pad6)*%
X92046037Y-62860969D03*
%TO.P,U3,7,INT_BNO/AD0_MPU*%
%TO.N,INT1*%
X94586037Y-62860969D03*
%TO.P,U3,8,INT_MPU*%
%TO.N,unconnected-(U3-Pad8)*%
X97126037Y-62860969D03*
%TD*%
D14*
%TO.P,U2,1,~{RST}*%
%TO.N,unconnected-(U2-Pad1)*%
X50631522Y-38208509D03*
D15*
%TO.P,U2,2,A0*%
%TO.N,Net-(R1-Pad1)*%
X50631522Y-40748509D03*
%TO.P,U2,3,D0*%
%TO.N,unconnected-(U2-Pad3)*%
X50631522Y-43288509D03*
%TO.P,U2,4,SCK/D5*%
%TO.N,INT1*%
X50631522Y-45828509D03*
%TO.P,U2,5,MISO/D6*%
%TO.N,INT2*%
X50631522Y-48368509D03*
%TO.P,U2,6,MOSI/D7*%
%TO.N,unconnected-(U2-Pad6)*%
X50631522Y-50908509D03*
%TO.P,U2,7,CS/D8*%
%TO.N,unconnected-(U2-Pad7)*%
X50631522Y-53448509D03*
%TO.P,U2,8,3V3*%
%TO.N,+3V3*%
X50631522Y-55988509D03*
%TO.P,U2,9,5V*%
%TO.N,+5V*%
X73491522Y-55988509D03*
%TO.P,U2,10,GND*%
%TO.N,GND*%
X73491522Y-53448509D03*
%TO.P,U2,11,D4*%
%TO.N,unconnected-(U2-Pad11)*%
X73491522Y-50908509D03*
%TO.P,U2,12,D3*%
%TO.N,unconnected-(U2-Pad12)*%
X73491522Y-48368509D03*
%TO.P,U2,13,SDA/D2*%
%TO.N,SDA*%
X73491522Y-45828509D03*
%TO.P,U2,14,SCL/D1*%
%TO.N,SCL*%
X73491522Y-43288509D03*
%TO.P,U2,15,RX*%
%TO.N,unconnected-(U2-Pad15)*%
X73491522Y-40748509D03*
%TO.P,U2,16,TX*%
%TO.N,unconnected-(U2-Pad16)*%
X73491522Y-38208509D03*
%TD*%
D14*
%TO.P,U1,1,In+*%
%TO.N,Net-(D1-Pad2)*%
X101641015Y-44670579D03*
%TO.P,U1,2,In-*%
%TO.N,unconnected-(U1-Pad2)*%
X101641015Y-30700579D03*
%TO.P,U1,3,Out-*%
%TO.N,Net-(SW1-Pad3)*%
X78781015Y-30700579D03*
%TO.P,U1,4,B-*%
%TO.N,Net-(J1-Pad2)*%
X78781015Y-33748579D03*
%TO.P,U1,5,B+*%
%TO.N,B+*%
X78781015Y-41622579D03*
%TO.P,U1,6,Out+*%
%TO.N,Net-(D2-Pad2)*%
X78781015Y-44670579D03*
%TD*%
D16*
%TO.P,D2,1,K*%
%TO.N,+5V*%
X89770520Y-56750520D03*
D17*
%TO.P,D2,2,A*%
%TO.N,Net-(D2-Pad2)*%
X79610520Y-56750520D03*
%TD*%
D18*
%TO.P,J2,1,Pin_1*%
%TO.N,SDA*%
X71164520Y-60142520D03*
D19*
%TO.P,J2,2,Pin_2*%
%TO.N,+3V3*%
X69164520Y-60142520D03*
%TO.P,J2,3,Pin_3*%
%TO.N,INT2*%
X67164520Y-60142520D03*
%TO.P,J2,4,Pin_4*%
%TO.N,GND*%
X65164520Y-60142520D03*
%TO.P,J2,5,Pin_5*%
%TO.N,SCL*%
X63164520Y-60142520D03*
%TD*%
D16*
%TO.P,D1,1,K*%
%TO.N,+5V*%
X85198520Y-60052520D03*
D17*
%TO.P,D1,2,A*%
%TO.N,Net-(D1-Pad2)*%
X75038520Y-60052520D03*
%TD*%
D20*
%TO.P,SW1,*%
%TO.N,*%
X58850509Y-60814509D03*
X50650509Y-60814509D03*
D21*
%TO.P,SW1,1,A*%
%TO.N,unconnected-(SW1-Pad1)*%
X56750509Y-60814509D03*
D22*
%TO.P,SW1,2,B*%
%TO.N,GND*%
X54750509Y-60814509D03*
%TO.P,SW1,3,C*%
%TO.N,Net-(SW1-Pad3)*%
X52750509Y-60814509D03*
%TD*%
D23*
%TO.P,J1,1,Pin_1*%
%TO.N,B+*%
X96266000Y-57547000D03*
D24*
%TO.P,J1,2,Pin_2*%
%TO.N,Net-(J1-Pad2)*%
X96266000Y-59547000D03*
%TD*%
D25*
%TO.N,Net-(D1-Pad2)*%
X88754520Y-49130520D03*
X83166520Y-56496520D03*
%TO.N,+3V3*%
X69196520Y-51416520D03*
%TO.N,GND*%
X92457105Y-60374427D03*
X76200000Y-50800000D03*
X99060000Y-38100000D03*
X89408000Y-59817000D03*
X51943000Y-52197000D03*
X93980000Y-43180000D03*
X51803147Y-57892192D03*
X93980000Y-33020000D03*
X88900000Y-33020000D03*
X86360000Y-43180000D03*
X101600000Y-53340000D03*
X68580000Y-40640000D03*
X71374000Y-39370000D03*
X66040000Y-48260000D03*
X63500000Y-45720000D03*
X70960621Y-62885079D03*
X61879222Y-62372795D03*
X81280000Y-43180000D03*
X81280000Y-38100000D03*
X96520000Y-48260000D03*
X93980000Y-38100000D03*
X70241042Y-57226835D03*
X99060000Y-58420000D03*
X79654400Y-53340000D03*
X72898000Y-58293000D03*
X55372000Y-47117000D03*
X75946000Y-31877000D03*
X88900000Y-38100000D03*
X88900000Y-53340000D03*
X101600000Y-48260000D03*
X75946000Y-38354000D03*
X55880000Y-43180000D03*
X81026000Y-60346945D03*
X53848000Y-38100000D03*
X99060000Y-33020000D03*
X86360000Y-48260000D03*
X63500000Y-40640000D03*
X99060000Y-43180000D03*
X58191400Y-57277000D03*
X61932100Y-56681339D03*
X83820000Y-33020000D03*
X75641034Y-62954936D03*
X95614624Y-52385288D03*
X70054757Y-48254103D03*
X81280000Y-48260000D03*
X55880000Y-53340000D03*
X58420000Y-43180000D03*
X60960000Y-50800000D03*
X83820000Y-45720000D03*
X74676000Y-44577000D03*
X83820000Y-50800000D03*
X68580000Y-45720000D03*
%TO.N,INT1*%
X65386520Y-51670520D03*
%TO.N,Net-(R1-Pad1)*%
X76816520Y-52686520D03*
%TO.N,Net-(SW1-Pad3)*%
X53721000Y-43434000D03*
X53721000Y-49657000D03*
%TD*%
D26*
%TO.N,Net-(D1-Pad2)*%
X93214450Y-44670590D02*
X88754520Y-49130520D01*
X101641026Y-44670590D02*
X93214450Y-44670590D01*
X83166520Y-56496520D02*
X79610520Y-60052520D01*
X79610520Y-60052520D02*
X75038520Y-60052520D01*
D27*
%TO.N,SDA*%
X76816520Y-49384520D02*
X78594520Y-49384520D01*
X72244520Y-45828520D02*
X73491520Y-45828520D01*
X84944520Y-53956520D02*
X86966048Y-55978048D01*
X71164520Y-46908520D02*
X72244520Y-45828520D01*
X86966048Y-55978048D02*
X86966048Y-62860980D01*
X71164520Y-60142520D02*
X71164520Y-46908520D01*
X78594520Y-49384520D02*
X83166520Y-53956520D01*
X73491520Y-46059520D02*
X76816520Y-49384520D01*
X83166520Y-53956520D02*
X84944520Y-53956520D01*
D26*
%TO.N,+3V3*%
X69164520Y-51448520D02*
X69164520Y-60142520D01*
X69196520Y-51416520D02*
X69164520Y-51448520D01*
D27*
%TO.N,INT2*%
X50631520Y-48368520D02*
X57004520Y-48368520D01*
X59798520Y-51162520D02*
X59798520Y-57004520D01*
X57004520Y-48368520D02*
X59798520Y-51162520D01*
X59798520Y-57004520D02*
X61068520Y-58274520D01*
X67164520Y-60142520D02*
X65296520Y-58274520D01*
X61068520Y-58274520D02*
X65296520Y-58274520D01*
D26*
%TO.N,GND*%
X75946000Y-38354000D02*
X74841971Y-39458029D01*
X74841971Y-39458029D02*
X71462029Y-39458029D01*
X71462029Y-39458029D02*
X71374000Y-39370000D01*
D27*
%TO.N,SCL*%
X63164520Y-60142520D02*
X65252000Y-62230000D01*
X83141588Y-61576520D02*
X69614480Y-61576520D01*
X68240000Y-61427000D02*
X68961000Y-62148000D01*
X65252000Y-62230000D02*
X68961000Y-62230000D01*
X84426048Y-62860980D02*
X83141588Y-61576520D01*
X68240000Y-48540040D02*
X73491520Y-43288520D01*
X68961000Y-62148000D02*
X68961000Y-62230000D01*
X68240000Y-61427000D02*
X68240000Y-48540040D01*
X69614480Y-61576520D02*
X68961000Y-62230000D01*
%TO.N,INT1*%
X76962000Y-45500586D02*
X76962000Y-44653200D01*
X65132520Y-51416520D02*
X65386520Y-51670520D01*
X76962000Y-44653200D02*
X74320400Y-42011600D01*
X81099934Y-49638520D02*
X76962000Y-45500586D01*
X92818520Y-54718520D02*
X87738520Y-49638520D01*
X50631520Y-45828520D02*
X59544520Y-45828520D01*
X92818520Y-58528520D02*
X92818520Y-54718520D01*
X94586048Y-62860980D02*
X94586048Y-60320980D01*
X74320400Y-42011600D02*
X63361440Y-42011600D01*
X59544520Y-45828520D02*
X65132520Y-51416520D01*
X92806054Y-58540986D02*
X92818520Y-58528520D01*
X94586048Y-60320980D02*
X92806054Y-58540986D01*
X63361440Y-42011600D02*
X59544520Y-45828520D01*
X87738520Y-49638520D02*
X81099934Y-49638520D01*
%TO.N,Net-(R1-Pad1)*%
X76816520Y-57258520D02*
X76816520Y-52686520D01*
D26*
%TO.N,Net-(SW1-Pad3)*%
X76581000Y-35433000D02*
X76581000Y-32900594D01*
X72517000Y-36957000D02*
X75057000Y-36957000D01*
X76581000Y-32900594D02*
X78781015Y-30700579D01*
X52750509Y-58247491D02*
X52750509Y-60814509D01*
X70866000Y-38608000D02*
X72517000Y-36957000D01*
X53721000Y-57277000D02*
X52750509Y-58247491D01*
X56896000Y-38608000D02*
X70866000Y-38608000D01*
X53721000Y-41783000D02*
X56896000Y-38608000D01*
X53721000Y-49657000D02*
X53721000Y-57277000D01*
X75057000Y-36957000D02*
X76581000Y-35433000D01*
X53721000Y-43434000D02*
X53721000Y-41783000D01*
%TD*%
%TA.AperFunction,Conductor*%
%TO.N,GND*%
G36*
X56758047Y-49022022D02*
G01*
X56779021Y-49038925D01*
X59128115Y-51388019D01*
X59162141Y-51450331D01*
X59165020Y-51477114D01*
X59165020Y-56925753D01*
X59164493Y-56936936D01*
X59162818Y-56944429D01*
X59163067Y-56952355D01*
X59163067Y-56952356D01*
X59164958Y-57012506D01*
X59165020Y-57016465D01*
X59165020Y-57044376D01*
X59165517Y-57048310D01*
X59165517Y-57048311D01*
X59165525Y-57048376D01*
X59166458Y-57060213D01*
X59167847Y-57104409D01*
X59173212Y-57122875D01*
X59173498Y-57123859D01*
X59177507Y-57143220D01*
X59180046Y-57163317D01*
X59182965Y-57170688D01*
X59182965Y-57170690D01*
X59196324Y-57204432D01*
X59200169Y-57215662D01*
X59201566Y-57220470D01*
X59212502Y-57258113D01*
X59216535Y-57264932D01*
X59216537Y-57264937D01*
X59222813Y-57275548D01*
X59231508Y-57293296D01*
X59238968Y-57312137D01*
X59243630Y-57318553D01*
X59243630Y-57318554D01*
X59264956Y-57347907D01*
X59271472Y-57357827D01*
X59288416Y-57386477D01*
X59293978Y-57395882D01*
X59308299Y-57410203D01*
X59321139Y-57425236D01*
X59333048Y-57441627D01*
X59339154Y-57446678D01*
X59367125Y-57469818D01*
X59375904Y-57477808D01*
X60564863Y-58666767D01*
X60572407Y-58675057D01*
X60576520Y-58681538D01*
X60582297Y-58686963D01*
X60626187Y-58728178D01*
X60629029Y-58730933D01*
X60648750Y-58750654D01*
X60651945Y-58753132D01*
X60660967Y-58760838D01*
X60693199Y-58791106D01*
X60700148Y-58794926D01*
X60710952Y-58800866D01*
X60727476Y-58811719D01*
X60743479Y-58824133D01*
X60784063Y-58841696D01*
X60794693Y-58846903D01*
X60833460Y-58868215D01*
X60841137Y-58870186D01*
X60841142Y-58870188D01*
X60853078Y-58873252D01*
X60871786Y-58879657D01*
X60890375Y-58887701D01*
X60898203Y-58888941D01*
X60898210Y-58888943D01*
X60934044Y-58894619D01*
X60945664Y-58897025D01*
X60978881Y-58905553D01*
X60988490Y-58908020D01*
X61008744Y-58908020D01*
X61028454Y-58909571D01*
X61048463Y-58912740D01*
X61056355Y-58911994D01*
X61081987Y-58909571D01*
X61092482Y-58908579D01*
X61104339Y-58908020D01*
X62253439Y-58908020D01*
X62321560Y-58928022D01*
X62368053Y-58981678D01*
X62378157Y-59051952D01*
X62344457Y-59121151D01*
X62290639Y-59177370D01*
X62175900Y-59355068D01*
X62173657Y-59360634D01*
X62099995Y-59543414D01*
X62096834Y-59551257D01*
X62056292Y-59758857D01*
X62056020Y-59764419D01*
X62056020Y-60470366D01*
X62071068Y-60628086D01*
X62130612Y-60831054D01*
X62133356Y-60836381D01*
X62133356Y-60836382D01*
X62223698Y-61011791D01*
X62227462Y-61019100D01*
X62358124Y-61185440D01*
X62362655Y-61189372D01*
X62362658Y-61189375D01*
X62471303Y-61283652D01*
X62517883Y-61324072D01*
X62523069Y-61327072D01*
X62523073Y-61327075D01*
X62647240Y-61398907D01*
X62700974Y-61429993D01*
X62900791Y-61499381D01*
X62906726Y-61500242D01*
X62906728Y-61500242D01*
X63104184Y-61528872D01*
X63104187Y-61528872D01*
X63110124Y-61529733D01*
X63321419Y-61519953D01*
X63443581Y-61490512D01*
X63514338Y-61473460D01*
X63585249Y-61476945D01*
X63632954Y-61506858D01*
X64748343Y-62622247D01*
X64755887Y-62630537D01*
X64760000Y-62637018D01*
X64765777Y-62642443D01*
X64809667Y-62683658D01*
X64812509Y-62686413D01*
X64832231Y-62706135D01*
X64835355Y-62708558D01*
X64835359Y-62708562D01*
X64835424Y-62708612D01*
X64844445Y-62716317D01*
X64876679Y-62746586D01*
X64883627Y-62750405D01*
X64883629Y-62750407D01*
X64894432Y-62756346D01*
X64910959Y-62767202D01*
X64920698Y-62774757D01*
X64920700Y-62774758D01*
X64926960Y-62779614D01*
X64967540Y-62797174D01*
X64978188Y-62802391D01*
X65002976Y-62816018D01*
X65016940Y-62823695D01*
X65024616Y-62825666D01*
X65024619Y-62825667D01*
X65036562Y-62828733D01*
X65055267Y-62835137D01*
X65073855Y-62843181D01*
X65081678Y-62844420D01*
X65081688Y-62844423D01*
X65117524Y-62850099D01*
X65129144Y-62852505D01*
X65152912Y-62858607D01*
X65171970Y-62863500D01*
X65192224Y-62863500D01*
X65211934Y-62865051D01*
X65231943Y-62868220D01*
X65239835Y-62867474D01*
X65265467Y-62865051D01*
X65275962Y-62864059D01*
X65287819Y-62863500D01*
X68882232Y-62863500D01*
X68893421Y-62864028D01*
X68900909Y-62865702D01*
X68908579Y-62865461D01*
X68909162Y-62865544D01*
X68912789Y-62865829D01*
X68913374Y-62865838D01*
X68920906Y-62867275D01*
X68976951Y-62863749D01*
X68984862Y-62863500D01*
X69000856Y-62863500D01*
X69004791Y-62863003D01*
X69004856Y-62862995D01*
X69016693Y-62862062D01*
X69060889Y-62860673D01*
X69068258Y-62858532D01*
X69068840Y-62858468D01*
X69072422Y-62857844D01*
X69072992Y-62857707D01*
X69080650Y-62857225D01*
X69088188Y-62854776D01*
X69088487Y-62854679D01*
X69111631Y-62849506D01*
X69111935Y-62849468D01*
X69111940Y-62849467D01*
X69119797Y-62848474D01*
X69127163Y-62845557D01*
X69127165Y-62845557D01*
X69160912Y-62832196D01*
X69172142Y-62828351D01*
X69190312Y-62823072D01*
X69214593Y-62816018D01*
X69221194Y-62812114D01*
X69221756Y-62811902D01*
X69225047Y-62810415D01*
X69225572Y-62810137D01*
X69232875Y-62807764D01*
X69239572Y-62803514D01*
X69239831Y-62803350D01*
X69260958Y-62792585D01*
X69261242Y-62792473D01*
X69261250Y-62792469D01*
X69268617Y-62789552D01*
X69304387Y-62763564D01*
X69314307Y-62757048D01*
X69345538Y-62738578D01*
X69345539Y-62738577D01*
X69352362Y-62734542D01*
X69357786Y-62729118D01*
X69358268Y-62728779D01*
X69361103Y-62726508D01*
X69361537Y-62726113D01*
X69368018Y-62722000D01*
X69373659Y-62715993D01*
X69391446Y-62700312D01*
X69391691Y-62700134D01*
X69391693Y-62700132D01*
X69398107Y-62695472D01*
X69426298Y-62661395D01*
X69434288Y-62652616D01*
X69839979Y-62246925D01*
X69902291Y-62212899D01*
X69929074Y-62210020D01*
X77886037Y-62210020D01*
X77954158Y-62230022D01*
X78000651Y-62283678D01*
X78012037Y-62336020D01*
X78012037Y-63628000D01*
X77992035Y-63696121D01*
X77938379Y-63742614D01*
X77886037Y-63754000D01*
X49529000Y-63754000D01*
X49460879Y-63733998D01*
X49414386Y-63680342D01*
X49403000Y-63628000D01*
X49403000Y-62787668D01*
X49423002Y-62719547D01*
X49476658Y-62673054D01*
X49546932Y-62662950D01*
X49610830Y-62691857D01*
X49643251Y-62719547D01*
X49698374Y-62766627D01*
X49698378Y-62766630D01*
X49702133Y-62769837D01*
X49918007Y-62902125D01*
X49922577Y-62904018D01*
X49922581Y-62904020D01*
X50147345Y-62997120D01*
X50151918Y-62999014D01*
X50236541Y-63019330D01*
X50393293Y-63056963D01*
X50393299Y-63056964D01*
X50398106Y-63058118D01*
X50650509Y-63077983D01*
X50902912Y-63058118D01*
X50907719Y-63056964D01*
X50907725Y-63056963D01*
X51064477Y-63019330D01*
X51149100Y-62999014D01*
X51153673Y-62997120D01*
X51378437Y-62904020D01*
X51378441Y-62904018D01*
X51383011Y-62902125D01*
X51598885Y-62769837D01*
X51791407Y-62605407D01*
X51945892Y-62424529D01*
X52005343Y-62385720D01*
X52076337Y-62385214D01*
X52111975Y-62401776D01*
X52141771Y-62421799D01*
X52347476Y-62512097D01*
X52352927Y-62513406D01*
X52352931Y-62513407D01*
X52560463Y-62563231D01*
X52565920Y-62564541D01*
X52649984Y-62569388D01*
X52784592Y-62577149D01*
X52784595Y-62577149D01*
X52790199Y-62577472D01*
X53013224Y-62550484D01*
X53227944Y-62484427D01*
X53232924Y-62481857D01*
X53232928Y-62481855D01*
X53422590Y-62383963D01*
X53422591Y-62383963D01*
X53427573Y-62381391D01*
X53432574Y-62377554D01*
X53471407Y-62347756D01*
X53605801Y-62244632D01*
X53609567Y-62240493D01*
X53609577Y-62240484D01*
X53657327Y-62188007D01*
X53717967Y-62151085D01*
X53788943Y-62152808D01*
X53838205Y-62182323D01*
X53951591Y-62292202D01*
X53960288Y-62299244D01*
X54137353Y-62418228D01*
X54147151Y-62423614D01*
X54342499Y-62509366D01*
X54353091Y-62512931D01*
X54478893Y-62543133D01*
X54492979Y-62542428D01*
X54496509Y-62533549D01*
X54496509Y-62532920D01*
X55004509Y-62532920D01*
X55008614Y-62546902D01*
X55018237Y-62548395D01*
X55018482Y-62548343D01*
X55222392Y-62485611D01*
X55232738Y-62481390D01*
X55422323Y-62383538D01*
X55431752Y-62377554D01*
X55437224Y-62373355D01*
X55503445Y-62347756D01*
X55572994Y-62362022D01*
X55614751Y-62397752D01*
X55637248Y-62427770D01*
X55753804Y-62515124D01*
X55890193Y-62566254D01*
X55952375Y-62573009D01*
X57548643Y-62573009D01*
X57552038Y-62572640D01*
X57552042Y-62572640D01*
X57605095Y-62566877D01*
X57674978Y-62579406D01*
X57707269Y-62602664D01*
X57709611Y-62605407D01*
X57902133Y-62769837D01*
X58118007Y-62902125D01*
X58122577Y-62904018D01*
X58122581Y-62904020D01*
X58347345Y-62997120D01*
X58351918Y-62999014D01*
X58436541Y-63019330D01*
X58593293Y-63056963D01*
X58593299Y-63056964D01*
X58598106Y-63058118D01*
X58850509Y-63077983D01*
X59102912Y-63058118D01*
X59107719Y-63056964D01*
X59107725Y-63056963D01*
X59264477Y-63019330D01*
X59349100Y-62999014D01*
X59353673Y-62997120D01*
X59578437Y-62904020D01*
X59578441Y-62904018D01*
X59583011Y-62902125D01*
X59798885Y-62769837D01*
X59991407Y-62605407D01*
X60155837Y-62412885D01*
X60288125Y-62197011D01*
X60290441Y-62191421D01*
X60383120Y-61967673D01*
X60383121Y-61967671D01*
X60385014Y-61963100D01*
X60405897Y-61876115D01*
X60442963Y-61721725D01*
X60442964Y-61721719D01*
X60444118Y-61716912D01*
X60453595Y-61596500D01*
X60458816Y-61530164D01*
X60458816Y-61530157D01*
X60459009Y-61527708D01*
X60459009Y-60101310D01*
X60444118Y-59912106D01*
X60418355Y-59804792D01*
X60405330Y-59750541D01*
X60385014Y-59665918D01*
X60337520Y-59551257D01*
X60290020Y-59436581D01*
X60290018Y-59436577D01*
X60288125Y-59432007D01*
X60155837Y-59216133D01*
X59991407Y-59023611D01*
X59798885Y-58859181D01*
X59589604Y-58730933D01*
X59587231Y-58729479D01*
X59583011Y-58726893D01*
X59578441Y-58725000D01*
X59578437Y-58724998D01*
X59353673Y-58631898D01*
X59353671Y-58631897D01*
X59349100Y-58630004D01*
X59209291Y-58596439D01*
X59107725Y-58572055D01*
X59107719Y-58572054D01*
X59102912Y-58570900D01*
X58850509Y-58551035D01*
X58598106Y-58570900D01*
X58593299Y-58572054D01*
X58593293Y-58572055D01*
X58491727Y-58596439D01*
X58351918Y-58630004D01*
X58347347Y-58631897D01*
X58347345Y-58631898D01*
X58122581Y-58724998D01*
X58122577Y-58725000D01*
X58118007Y-58726893D01*
X58113787Y-58729479D01*
X58111414Y-58730933D01*
X57902133Y-58859181D01*
X57709611Y-59023611D01*
X57707416Y-59026181D01*
X57645485Y-59059999D01*
X57605095Y-59062141D01*
X57552042Y-59056378D01*
X57552038Y-59056378D01*
X57548643Y-59056009D01*
X55952375Y-59056009D01*
X55890193Y-59062764D01*
X55753804Y-59113894D01*
X55637248Y-59201248D01*
X55612628Y-59234098D01*
X55555771Y-59276611D01*
X55484953Y-59281637D01*
X55441528Y-59263113D01*
X55363657Y-59210786D01*
X55353867Y-59205404D01*
X55158519Y-59119652D01*
X55147927Y-59116087D01*
X55022125Y-59085885D01*
X55008039Y-59086590D01*
X55004509Y-59095469D01*
X55004509Y-62532920D01*
X54496509Y-62532920D01*
X54496509Y-59096098D01*
X54492404Y-59082116D01*
X54482781Y-59080623D01*
X54482536Y-59080675D01*
X54278626Y-59143407D01*
X54268280Y-59147628D01*
X54078695Y-59245480D01*
X54069264Y-59251466D01*
X53900008Y-59381341D01*
X53891779Y-59388907D01*
X53844389Y-59440988D01*
X53783748Y-59477911D01*
X53712773Y-59476188D01*
X53663510Y-59446673D01*
X53547324Y-59334081D01*
X53512324Y-59272311D01*
X53509009Y-59243597D01*
X53509009Y-58613862D01*
X53529011Y-58545741D01*
X53545914Y-58524767D01*
X54209911Y-57860770D01*
X54224323Y-57848384D01*
X54235918Y-57839851D01*
X54235923Y-57839846D01*
X54241818Y-57835508D01*
X54246557Y-57829930D01*
X54246560Y-57829927D01*
X54276035Y-57795232D01*
X54282965Y-57787716D01*
X54288661Y-57782020D01*
X54290924Y-57779159D01*
X54290929Y-57779154D01*
X54306293Y-57759734D01*
X54309082Y-57756333D01*
X54351592Y-57706296D01*
X54351594Y-57706294D01*
X54356333Y-57700715D01*
X54359662Y-57694195D01*
X54363028Y-57689148D01*
X54366193Y-57684024D01*
X54370735Y-57678283D01*
X54381888Y-57654421D01*
X54401634Y-57612170D01*
X54403565Y-57608218D01*
X54433442Y-57549708D01*
X54433443Y-57549706D01*
X54436769Y-57543192D01*
X54438508Y-57536086D01*
X54440609Y-57530436D01*
X54442524Y-57524679D01*
X54445622Y-57518050D01*
X54460491Y-57446565D01*
X54461461Y-57442282D01*
X54478808Y-57371390D01*
X54479500Y-57360236D01*
X54479535Y-57360238D01*
X54479775Y-57356266D01*
X54480152Y-57352045D01*
X54481641Y-57344885D01*
X54479546Y-57267458D01*
X54479500Y-57264050D01*
X54479500Y-50193999D01*
X54496381Y-50130999D01*
X54502288Y-50120769D01*
X54542590Y-50050963D01*
X54552223Y-50034279D01*
X54552224Y-50034278D01*
X54555527Y-50028556D01*
X54614542Y-49846928D01*
X54619794Y-49796963D01*
X54633814Y-49663565D01*
X54634504Y-49657000D01*
X54628807Y-49602793D01*
X54615232Y-49473635D01*
X54615232Y-49473633D01*
X54614542Y-49467072D01*
X54555527Y-49285444D01*
X54501011Y-49191019D01*
X54484273Y-49122025D01*
X54507493Y-49054933D01*
X54563300Y-49011046D01*
X54610130Y-49002020D01*
X56689926Y-49002020D01*
X56758047Y-49022022D01*
G37*
%TD.AperFunction*%
%TA.AperFunction,Conductor*%
G36*
X100074636Y-45449092D02*
G01*
X100121129Y-45502748D01*
X100132515Y-45555090D01*
X100132515Y-45718713D01*
X100139270Y-45780895D01*
X100190400Y-45917284D01*
X100277754Y-46033840D01*
X100394310Y-46121194D01*
X100530699Y-46172324D01*
X100592881Y-46179079D01*
X102689149Y-46179079D01*
X102751331Y-46172324D01*
X102826771Y-46144043D01*
X102897577Y-46138860D01*
X102959946Y-46172781D01*
X102994076Y-46235036D01*
X102997000Y-46262025D01*
X102997000Y-55246000D01*
X102976998Y-55314121D01*
X102923342Y-55360614D01*
X102871000Y-55372000D01*
X102116702Y-55372000D01*
X102115932Y-55371998D01*
X102115078Y-55371993D01*
X102038348Y-55371524D01*
X102029719Y-55373990D01*
X102029714Y-55373991D01*
X102009952Y-55379639D01*
X101993191Y-55383217D01*
X101972848Y-55386130D01*
X101972838Y-55386133D01*
X101963955Y-55387405D01*
X101940605Y-55398021D01*
X101923093Y-55404464D01*
X101910200Y-55408149D01*
X101898435Y-55411512D01*
X101873452Y-55427274D01*
X101858386Y-55435404D01*
X101831490Y-55447633D01*
X101812061Y-55464374D01*
X101797053Y-55475479D01*
X101775369Y-55489160D01*
X101769427Y-55495888D01*
X101755819Y-55511296D01*
X101743626Y-55523341D01*
X101729065Y-55535888D01*
X101721253Y-55542619D01*
X101716374Y-55550147D01*
X101716371Y-55550150D01*
X101707304Y-55564139D01*
X101696014Y-55579013D01*
X101692175Y-55583360D01*
X101679044Y-55598228D01*
X101675229Y-55606354D01*
X101675228Y-55606355D01*
X101673694Y-55609622D01*
X101666490Y-55624966D01*
X101658176Y-55639935D01*
X101642107Y-55664727D01*
X101639535Y-55673327D01*
X101634761Y-55689290D01*
X101628099Y-55706736D01*
X101617201Y-55729948D01*
X101615820Y-55738821D01*
X101612658Y-55759128D01*
X101608874Y-55775849D01*
X101602986Y-55795536D01*
X101602985Y-55795539D01*
X101600413Y-55804141D01*
X101600358Y-55813116D01*
X101600358Y-55813117D01*
X101600203Y-55838546D01*
X101600170Y-55839328D01*
X101600000Y-55840423D01*
X101600000Y-55871298D01*
X101599998Y-55872068D01*
X101599655Y-55928288D01*
X101599524Y-55949652D01*
X101599908Y-55950996D01*
X101600000Y-55952341D01*
X101600000Y-61205298D01*
X101599998Y-61206068D01*
X101599524Y-61283652D01*
X101601990Y-61292281D01*
X101601991Y-61292286D01*
X101607639Y-61312048D01*
X101611217Y-61328809D01*
X101614130Y-61349152D01*
X101614133Y-61349162D01*
X101615405Y-61358045D01*
X101626021Y-61381395D01*
X101632464Y-61398907D01*
X101639512Y-61423565D01*
X101655274Y-61448548D01*
X101663404Y-61463614D01*
X101675633Y-61490510D01*
X101675634Y-61490512D01*
X101674068Y-61491224D01*
X101690968Y-61549249D01*
X101670816Y-61617325D01*
X101618218Y-61663167D01*
X101541476Y-61698952D01*
X101541471Y-61698955D01*
X101536489Y-61701278D01*
X101531982Y-61704434D01*
X101531980Y-61704435D01*
X101349794Y-61832003D01*
X101349791Y-61832005D01*
X101345283Y-61835162D01*
X101180230Y-62000215D01*
X101177073Y-62004723D01*
X101177071Y-62004726D01*
X101102750Y-62110868D01*
X101047293Y-62155196D01*
X100976674Y-62162505D01*
X100913313Y-62130474D01*
X100896324Y-62110868D01*
X100822003Y-62004726D01*
X100822001Y-62004723D01*
X100818844Y-62000215D01*
X100653791Y-61835162D01*
X100649283Y-61832005D01*
X100649280Y-61832003D01*
X100467094Y-61704435D01*
X100467092Y-61704434D01*
X100462585Y-61701278D01*
X100457603Y-61698955D01*
X100457598Y-61698952D01*
X100256017Y-61604953D01*
X100256015Y-61604952D01*
X100251035Y-61602630D01*
X100245727Y-61601208D01*
X100245725Y-61601207D01*
X100030884Y-61543641D01*
X100030882Y-61543641D01*
X100025569Y-61542217D01*
X99793037Y-61521873D01*
X99560505Y-61542217D01*
X99555192Y-61543641D01*
X99555190Y-61543641D01*
X99340349Y-61601207D01*
X99340347Y-61601208D01*
X99335039Y-61602630D01*
X99330059Y-61604952D01*
X99330057Y-61604953D01*
X99128476Y-61698952D01*
X99128471Y-61698955D01*
X99123489Y-61701278D01*
X99118982Y-61704434D01*
X99118980Y-61704435D01*
X98936794Y-61832003D01*
X98936791Y-61832005D01*
X98932283Y-61835162D01*
X98767230Y-62000215D01*
X98764073Y-62004723D01*
X98764071Y-62004726D01*
X98639716Y-62182323D01*
X98633346Y-62191421D01*
X98631023Y-62196403D01*
X98631020Y-62196408D01*
X98573732Y-62319263D01*
X98526814Y-62372548D01*
X98458537Y-62392009D01*
X98390577Y-62371467D01*
X98345342Y-62319263D01*
X98288054Y-62196408D01*
X98288051Y-62196403D01*
X98285728Y-62191421D01*
X98279358Y-62182323D01*
X98155003Y-62004726D01*
X98155001Y-62004723D01*
X98151844Y-62000215D01*
X97986791Y-61835162D01*
X97982283Y-61832005D01*
X97982280Y-61832003D01*
X97800094Y-61704435D01*
X97800092Y-61704434D01*
X97795585Y-61701278D01*
X97790603Y-61698955D01*
X97790598Y-61698952D01*
X97589017Y-61604953D01*
X97589015Y-61604952D01*
X97584035Y-61602630D01*
X97578727Y-61601208D01*
X97578725Y-61601207D01*
X97363884Y-61543641D01*
X97363882Y-61543641D01*
X97358569Y-61542217D01*
X97126037Y-61521873D01*
X96893505Y-61542217D01*
X96888192Y-61543641D01*
X96888190Y-61543641D01*
X96673349Y-61601207D01*
X96673347Y-61601208D01*
X96668039Y-61602630D01*
X96663059Y-61604952D01*
X96663057Y-61604953D01*
X96461476Y-61698952D01*
X96461471Y-61698955D01*
X96456489Y-61701278D01*
X96451982Y-61704434D01*
X96451980Y-61704435D01*
X96269794Y-61832003D01*
X96269791Y-61832005D01*
X96265283Y-61835162D01*
X96100230Y-62000215D01*
X95966346Y-62191421D01*
X95964763Y-62194816D01*
X95913771Y-62243435D01*
X95844057Y-62256869D01*
X95778147Y-62230481D01*
X95747390Y-62194986D01*
X95745728Y-62191421D01*
X95611844Y-62000215D01*
X95446791Y-61835162D01*
X95442283Y-61832005D01*
X95442280Y-61832003D01*
X95273277Y-61713666D01*
X95228949Y-61658209D01*
X95219548Y-61610453D01*
X95219548Y-60599726D01*
X95239550Y-60531605D01*
X95293206Y-60485112D01*
X95363480Y-60475008D01*
X95413896Y-60493875D01*
X95473503Y-60532363D01*
X95473507Y-60532365D01*
X95478548Y-60535620D01*
X95538646Y-60559840D01*
X95669168Y-60612442D01*
X95669171Y-60612443D01*
X95674737Y-60614686D01*
X95882337Y-60655228D01*
X95887899Y-60655500D01*
X96593846Y-60655500D01*
X96751566Y-60640452D01*
X96954534Y-60580908D01*
X96959862Y-60578164D01*
X97137249Y-60486804D01*
X97137252Y-60486802D01*
X97142580Y-60484058D01*
X97308920Y-60353396D01*
X97312852Y-60348865D01*
X97312855Y-60348862D01*
X97443621Y-60198167D01*
X97447552Y-60193637D01*
X97450552Y-60188451D01*
X97450555Y-60188447D01*
X97550467Y-60015742D01*
X97553473Y-60010546D01*
X97622861Y-59810729D01*
X97629576Y-59764419D01*
X97652352Y-59607336D01*
X97652352Y-59607333D01*
X97653213Y-59601396D01*
X97643433Y-59390101D01*
X97598921Y-59205404D01*
X97595281Y-59190299D01*
X97595280Y-59190297D01*
X97593875Y-59184466D01*
X97588822Y-59173351D01*
X97517931Y-59017437D01*
X97506326Y-58991913D01*
X97410341Y-58856599D01*
X97387412Y-58824275D01*
X97387411Y-58824274D01*
X97383946Y-58819389D01*
X97379617Y-58815245D01*
X97379611Y-58815238D01*
X97288683Y-58728194D01*
X97253306Y-58666639D01*
X97256825Y-58595730D01*
X97298121Y-58537979D01*
X97309504Y-58530035D01*
X97365348Y-58495478D01*
X97490305Y-58370303D01*
X97497260Y-58359020D01*
X97579275Y-58225968D01*
X97579276Y-58225966D01*
X97583115Y-58219738D01*
X97638797Y-58051861D01*
X97649500Y-57947400D01*
X97649500Y-57146600D01*
X97649163Y-57143350D01*
X97639238Y-57047692D01*
X97639237Y-57047688D01*
X97638526Y-57040834D01*
X97634160Y-57027746D01*
X97584868Y-56880002D01*
X97582550Y-56873054D01*
X97489478Y-56722652D01*
X97364303Y-56597695D01*
X97266367Y-56537326D01*
X97219968Y-56508725D01*
X97219966Y-56508724D01*
X97213738Y-56504885D01*
X97133995Y-56478436D01*
X97052389Y-56451368D01*
X97052387Y-56451368D01*
X97045861Y-56449203D01*
X97039025Y-56448503D01*
X97039022Y-56448502D01*
X96995969Y-56444091D01*
X96941400Y-56438500D01*
X95590600Y-56438500D01*
X95587354Y-56438837D01*
X95587350Y-56438837D01*
X95491692Y-56448762D01*
X95491688Y-56448763D01*
X95484834Y-56449474D01*
X95478298Y-56451655D01*
X95478296Y-56451655D01*
X95363498Y-56489955D01*
X95317054Y-56505450D01*
X95166652Y-56598522D01*
X95041695Y-56723697D01*
X95037855Y-56729927D01*
X95037854Y-56729928D01*
X94994090Y-56800927D01*
X94948885Y-56874262D01*
X94946581Y-56881209D01*
X94901719Y-57016465D01*
X94893203Y-57042139D01*
X94892503Y-57048975D01*
X94892502Y-57048978D01*
X94890050Y-57072909D01*
X94882500Y-57146600D01*
X94882500Y-57947400D01*
X94893474Y-58053166D01*
X94895655Y-58059702D01*
X94895655Y-58059704D01*
X94903158Y-58082192D01*
X94949450Y-58220946D01*
X95042522Y-58371348D01*
X95167697Y-58496305D01*
X95173927Y-58500145D01*
X95173928Y-58500146D01*
X95186425Y-58507849D01*
X95207645Y-58520929D01*
X95219236Y-58528074D01*
X95266729Y-58580846D01*
X95278153Y-58650918D01*
X95249879Y-58716042D01*
X95230955Y-58734418D01*
X95223080Y-58740604D01*
X95219148Y-58745135D01*
X95219145Y-58745138D01*
X95120184Y-58859181D01*
X95084448Y-58900363D01*
X95081448Y-58905549D01*
X95081445Y-58905553D01*
X95040563Y-58976221D01*
X94978527Y-59083454D01*
X94909139Y-59283271D01*
X94887574Y-59432007D01*
X94886334Y-59440556D01*
X94856764Y-59505102D01*
X94796993Y-59543414D01*
X94725996Y-59543330D01*
X94672543Y-59511571D01*
X94166796Y-59005823D01*
X93488925Y-58327952D01*
X93454899Y-58265640D01*
X93452020Y-58238857D01*
X93452020Y-54797287D01*
X93452547Y-54786104D01*
X93454222Y-54778611D01*
X93452082Y-54710520D01*
X93452020Y-54706563D01*
X93452020Y-54678664D01*
X93451516Y-54674673D01*
X93450583Y-54662831D01*
X93450219Y-54651231D01*
X93449194Y-54618631D01*
X93446982Y-54611017D01*
X93446981Y-54611012D01*
X93443543Y-54599179D01*
X93439532Y-54579815D01*
X93437987Y-54567584D01*
X93436994Y-54559723D01*
X93434077Y-54552356D01*
X93434076Y-54552351D01*
X93420718Y-54518612D01*
X93416874Y-54507385D01*
X93406750Y-54472542D01*
X93404538Y-54464927D01*
X93396189Y-54450810D01*
X93394227Y-54447492D01*
X93385532Y-54429744D01*
X93378072Y-54410903D01*
X93352084Y-54375133D01*
X93345568Y-54365213D01*
X93327100Y-54333985D01*
X93327098Y-54333982D01*
X93323062Y-54327158D01*
X93308741Y-54312837D01*
X93295900Y-54297803D01*
X93288651Y-54287826D01*
X93283992Y-54281413D01*
X93249915Y-54253222D01*
X93241136Y-54245232D01*
X89137666Y-50141761D01*
X89103640Y-50079449D01*
X89108705Y-50008633D01*
X89151252Y-49951798D01*
X89175513Y-49937559D01*
X89205239Y-49924324D01*
X89211272Y-49921638D01*
X89220186Y-49915162D01*
X89291871Y-49863079D01*
X89365773Y-49809386D01*
X89376959Y-49796963D01*
X89489141Y-49672372D01*
X89489142Y-49672371D01*
X89493560Y-49667464D01*
X89589047Y-49502076D01*
X89643907Y-49333234D01*
X89674645Y-49283076D01*
X93491726Y-45465995D01*
X93554038Y-45431969D01*
X93580821Y-45429090D01*
X100006515Y-45429090D01*
X100074636Y-45449092D01*
G37*
%TD.AperFunction*%
%TA.AperFunction,Conductor*%
G36*
X78081990Y-47524116D02*
G01*
X78111612Y-47546102D01*
X80596277Y-50030767D01*
X80603821Y-50039057D01*
X80607934Y-50045538D01*
X80613711Y-50050963D01*
X80657601Y-50092178D01*
X80660443Y-50094933D01*
X80680164Y-50114654D01*
X80683359Y-50117132D01*
X80692381Y-50124838D01*
X80724613Y-50155106D01*
X80731562Y-50158926D01*
X80742366Y-50164866D01*
X80758890Y-50175719D01*
X80774893Y-50188133D01*
X80815477Y-50205696D01*
X80826107Y-50210903D01*
X80864874Y-50232215D01*
X80872551Y-50234186D01*
X80872556Y-50234188D01*
X80884492Y-50237252D01*
X80903200Y-50243657D01*
X80921789Y-50251701D01*
X80929614Y-50252940D01*
X80929616Y-50252941D01*
X80965453Y-50258617D01*
X80977074Y-50261024D01*
X81012223Y-50270048D01*
X81019904Y-50272020D01*
X81040165Y-50272020D01*
X81059874Y-50273571D01*
X81079877Y-50276739D01*
X81087769Y-50275993D01*
X81092996Y-50275499D01*
X81123888Y-50272579D01*
X81135745Y-50272020D01*
X87423926Y-50272020D01*
X87492047Y-50292022D01*
X87513021Y-50308925D01*
X92148115Y-54944020D01*
X92182141Y-55006332D01*
X92185020Y-55033115D01*
X92185020Y-58401366D01*
X92181985Y-58428853D01*
X92176465Y-58453549D01*
X92170352Y-58480895D01*
X92170601Y-58488818D01*
X92170601Y-58488819D01*
X92170611Y-58489127D01*
X92169121Y-58512801D01*
X92167834Y-58520929D01*
X92168580Y-58528821D01*
X92168580Y-58528822D01*
X92173119Y-58576844D01*
X92173616Y-58584741D01*
X92173736Y-58588550D01*
X92175381Y-58640875D01*
X92177593Y-58648487D01*
X92177678Y-58648780D01*
X92182122Y-58672080D01*
X92182897Y-58680278D01*
X92185581Y-58687732D01*
X92201925Y-58733130D01*
X92204371Y-58740659D01*
X92217824Y-58786967D01*
X92217826Y-58786971D01*
X92220036Y-58794579D01*
X92224071Y-58801402D01*
X92224073Y-58801406D01*
X92224231Y-58801674D01*
X92234321Y-58823118D01*
X92234426Y-58823409D01*
X92234430Y-58823417D01*
X92237115Y-58830875D01*
X92268700Y-58877351D01*
X92272909Y-58883982D01*
X92301512Y-58932348D01*
X92307332Y-58938168D01*
X92322448Y-58956439D01*
X92327082Y-58963257D01*
X92333030Y-58968501D01*
X92333031Y-58968502D01*
X92369217Y-59000404D01*
X92374987Y-59005823D01*
X93915643Y-60546479D01*
X93949669Y-60608791D01*
X93952548Y-60635574D01*
X93952548Y-61610438D01*
X93932546Y-61678559D01*
X93898820Y-61713650D01*
X93886895Y-61722000D01*
X93729794Y-61832003D01*
X93729791Y-61832005D01*
X93725283Y-61835162D01*
X93560230Y-62000215D01*
X93426346Y-62191421D01*
X93424763Y-62194816D01*
X93373771Y-62243435D01*
X93304057Y-62256869D01*
X93238147Y-62230481D01*
X93207390Y-62194986D01*
X93205728Y-62191421D01*
X93071844Y-62000215D01*
X92906791Y-61835162D01*
X92902283Y-61832005D01*
X92902280Y-61832003D01*
X92720094Y-61704435D01*
X92720092Y-61704434D01*
X92715585Y-61701278D01*
X92710603Y-61698955D01*
X92710598Y-61698952D01*
X92509017Y-61604953D01*
X92509015Y-61604952D01*
X92504035Y-61602630D01*
X92498727Y-61601208D01*
X92498725Y-61601207D01*
X92283884Y-61543641D01*
X92283882Y-61543641D01*
X92278569Y-61542217D01*
X92046037Y-61521873D01*
X91813505Y-61542217D01*
X91808192Y-61543641D01*
X91808190Y-61543641D01*
X91593349Y-61601207D01*
X91593347Y-61601208D01*
X91588039Y-61602630D01*
X91583059Y-61604952D01*
X91583057Y-61604953D01*
X91381476Y-61698952D01*
X91381471Y-61698955D01*
X91376489Y-61701278D01*
X91371982Y-61704434D01*
X91371980Y-61704435D01*
X91189794Y-61832003D01*
X91189791Y-61832005D01*
X91185283Y-61835162D01*
X91020230Y-62000215D01*
X90886346Y-62191421D01*
X90884763Y-62194816D01*
X90833771Y-62243435D01*
X90764057Y-62256869D01*
X90698147Y-62230481D01*
X90667390Y-62194986D01*
X90665728Y-62191421D01*
X90531844Y-62000215D01*
X90366791Y-61835162D01*
X90362283Y-61832005D01*
X90362280Y-61832003D01*
X90180094Y-61704435D01*
X90180092Y-61704434D01*
X90175585Y-61701278D01*
X90170603Y-61698955D01*
X90170598Y-61698952D01*
X89969017Y-61604953D01*
X89969015Y-61604952D01*
X89964035Y-61602630D01*
X89958727Y-61601208D01*
X89958725Y-61601207D01*
X89743884Y-61543641D01*
X89743882Y-61543641D01*
X89738569Y-61542217D01*
X89506037Y-61521873D01*
X89273505Y-61542217D01*
X89268192Y-61543641D01*
X89268190Y-61543641D01*
X89053349Y-61601207D01*
X89053347Y-61601208D01*
X89048039Y-61602630D01*
X89043059Y-61604952D01*
X89043057Y-61604953D01*
X88841476Y-61698952D01*
X88841471Y-61698955D01*
X88836489Y-61701278D01*
X88831982Y-61704434D01*
X88831980Y-61704435D01*
X88649794Y-61832003D01*
X88649791Y-61832005D01*
X88645283Y-61835162D01*
X88480230Y-62000215D01*
X88346346Y-62191421D01*
X88344763Y-62194816D01*
X88293771Y-62243435D01*
X88224057Y-62256869D01*
X88158147Y-62230481D01*
X88127390Y-62194986D01*
X88125728Y-62191421D01*
X87991844Y-62000215D01*
X87826791Y-61835162D01*
X87822283Y-61832005D01*
X87822280Y-61832003D01*
X87653277Y-61713666D01*
X87608949Y-61658209D01*
X87599548Y-61610453D01*
X87599548Y-57898654D01*
X88162020Y-57898654D01*
X88168775Y-57960836D01*
X88219905Y-58097225D01*
X88307259Y-58213781D01*
X88423815Y-58301135D01*
X88560204Y-58352265D01*
X88622386Y-58359020D01*
X90918654Y-58359020D01*
X90980836Y-58352265D01*
X91117225Y-58301135D01*
X91233781Y-58213781D01*
X91321135Y-58097225D01*
X91372265Y-57960836D01*
X91379020Y-57898654D01*
X91379020Y-55602386D01*
X91372265Y-55540204D01*
X91321135Y-55403815D01*
X91233781Y-55287259D01*
X91117225Y-55199905D01*
X90980836Y-55148775D01*
X90918654Y-55142020D01*
X88622386Y-55142020D01*
X88560204Y-55148775D01*
X88423815Y-55199905D01*
X88307259Y-55287259D01*
X88219905Y-55403815D01*
X88168775Y-55540204D01*
X88162020Y-55602386D01*
X88162020Y-57898654D01*
X87599548Y-57898654D01*
X87599548Y-56056815D01*
X87600075Y-56045632D01*
X87601750Y-56038139D01*
X87601118Y-56018018D01*
X87599610Y-55970062D01*
X87599548Y-55966103D01*
X87599548Y-55938192D01*
X87599043Y-55934192D01*
X87598110Y-55922349D01*
X87596970Y-55886077D01*
X87596721Y-55878158D01*
X87591070Y-55858706D01*
X87587062Y-55839354D01*
X87585515Y-55827111D01*
X87584522Y-55819251D01*
X87581604Y-55811880D01*
X87568248Y-55778145D01*
X87564403Y-55766918D01*
X87560971Y-55755107D01*
X87552066Y-55724455D01*
X87548032Y-55717633D01*
X87548029Y-55717627D01*
X87541754Y-55707016D01*
X87533058Y-55689266D01*
X87528520Y-55677804D01*
X87528517Y-55677799D01*
X87525600Y-55670431D01*
X87499621Y-55634673D01*
X87493105Y-55624755D01*
X87481896Y-55605803D01*
X87470590Y-55586685D01*
X87456266Y-55572361D01*
X87443424Y-55557326D01*
X87431520Y-55540941D01*
X87397454Y-55512759D01*
X87388675Y-55504770D01*
X85448172Y-53564267D01*
X85440632Y-53555981D01*
X85436520Y-53549502D01*
X85386868Y-53502876D01*
X85384027Y-53500122D01*
X85364290Y-53480385D01*
X85361093Y-53477905D01*
X85352071Y-53470200D01*
X85325620Y-53445361D01*
X85319841Y-53439934D01*
X85312895Y-53436115D01*
X85312892Y-53436113D01*
X85302086Y-53430172D01*
X85285567Y-53419321D01*
X85285103Y-53418961D01*
X85269561Y-53406906D01*
X85262292Y-53403761D01*
X85262288Y-53403758D01*
X85228983Y-53389346D01*
X85218333Y-53384129D01*
X85179580Y-53362825D01*
X85159957Y-53357787D01*
X85141254Y-53351383D01*
X85129940Y-53346487D01*
X85129939Y-53346487D01*
X85122665Y-53343339D01*
X85114842Y-53342100D01*
X85114832Y-53342097D01*
X85078996Y-53336421D01*
X85067376Y-53334015D01*
X85032231Y-53324992D01*
X85032230Y-53324992D01*
X85024550Y-53323020D01*
X85004296Y-53323020D01*
X84984585Y-53321469D01*
X84972406Y-53319540D01*
X84964577Y-53318300D01*
X84956685Y-53319046D01*
X84920559Y-53322461D01*
X84908701Y-53323020D01*
X83481115Y-53323020D01*
X83412994Y-53303018D01*
X83392020Y-53286115D01*
X79098172Y-48992267D01*
X79090632Y-48983981D01*
X79086520Y-48977502D01*
X79036868Y-48930876D01*
X79034027Y-48928122D01*
X79014290Y-48908385D01*
X79011093Y-48905905D01*
X79002071Y-48898200D01*
X78975620Y-48873361D01*
X78969841Y-48867934D01*
X78962895Y-48864115D01*
X78962892Y-48864113D01*
X78952086Y-48858172D01*
X78935567Y-48847321D01*
X78935103Y-48846961D01*
X78919561Y-48834906D01*
X78912292Y-48831761D01*
X78912288Y-48831758D01*
X78878983Y-48817346D01*
X78868333Y-48812129D01*
X78829580Y-48790825D01*
X78809957Y-48785787D01*
X78791254Y-48779383D01*
X78779940Y-48774487D01*
X78779939Y-48774487D01*
X78772665Y-48771339D01*
X78764842Y-48770100D01*
X78764832Y-48770097D01*
X78728996Y-48764421D01*
X78717376Y-48762015D01*
X78682231Y-48752992D01*
X78682230Y-48752992D01*
X78674550Y-48751020D01*
X78654296Y-48751020D01*
X78634585Y-48749469D01*
X78622406Y-48747540D01*
X78614577Y-48746300D01*
X78606685Y-48747046D01*
X78570559Y-48750461D01*
X78558701Y-48751020D01*
X77131114Y-48751020D01*
X77062993Y-48731018D01*
X77042019Y-48714115D01*
X76940530Y-48612626D01*
X76906504Y-48550314D01*
X76911569Y-48479499D01*
X76954116Y-48422663D01*
X76997014Y-48401824D01*
X77117567Y-48369522D01*
X77117569Y-48369521D01*
X77122877Y-48368099D01*
X77151783Y-48354620D01*
X77325396Y-48273664D01*
X77325401Y-48273661D01*
X77330383Y-48271338D01*
X77472726Y-48171668D01*
X77513423Y-48143172D01*
X77513426Y-48143170D01*
X77517934Y-48140013D01*
X77679832Y-47978115D01*
X77811157Y-47790564D01*
X77813480Y-47785582D01*
X77813483Y-47785577D01*
X77907918Y-47583058D01*
X77910052Y-47584053D01*
X77946181Y-47534954D01*
X78012494Y-47509596D01*
X78081990Y-47524116D01*
G37*
%TD.AperFunction*%
%TA.AperFunction,Conductor*%
G36*
X75131085Y-48607752D02*
G01*
X75170580Y-48634484D01*
X75744393Y-49208298D01*
X76312868Y-49776773D01*
X76320408Y-49785059D01*
X76324520Y-49791538D01*
X76330297Y-49796963D01*
X76374171Y-49838163D01*
X76377013Y-49840918D01*
X76396750Y-49860655D01*
X76399947Y-49863135D01*
X76408967Y-49870838D01*
X76441199Y-49901106D01*
X76448145Y-49904925D01*
X76448148Y-49904927D01*
X76458954Y-49910868D01*
X76475473Y-49921719D01*
X76491479Y-49934134D01*
X76498748Y-49937279D01*
X76498752Y-49937282D01*
X76532057Y-49951694D01*
X76542707Y-49956911D01*
X76581460Y-49978215D01*
X76589135Y-49980186D01*
X76589136Y-49980186D01*
X76601082Y-49983253D01*
X76619787Y-49989657D01*
X76638375Y-49997701D01*
X76646198Y-49998940D01*
X76646208Y-49998943D01*
X76682044Y-50004619D01*
X76693664Y-50007025D01*
X76728809Y-50016048D01*
X76736490Y-50018020D01*
X76756744Y-50018020D01*
X76776454Y-50019571D01*
X76796463Y-50022740D01*
X76804355Y-50021994D01*
X76840481Y-50018579D01*
X76852339Y-50018020D01*
X78279926Y-50018020D01*
X78348047Y-50038022D01*
X78369021Y-50054925D01*
X82662863Y-54348767D01*
X82670407Y-54357057D01*
X82674520Y-54363538D01*
X82680297Y-54368963D01*
X82724187Y-54410178D01*
X82727029Y-54412933D01*
X82746750Y-54432654D01*
X82749945Y-54435132D01*
X82758967Y-54442838D01*
X82791199Y-54473106D01*
X82798148Y-54476926D01*
X82808952Y-54482866D01*
X82825476Y-54493719D01*
X82841479Y-54506133D01*
X82882063Y-54523696D01*
X82892693Y-54528903D01*
X82931460Y-54550215D01*
X82939137Y-54552186D01*
X82939142Y-54552188D01*
X82951078Y-54555252D01*
X82969786Y-54561657D01*
X82988375Y-54569701D01*
X82996200Y-54570940D01*
X82996202Y-54570941D01*
X83032039Y-54576617D01*
X83043660Y-54579024D01*
X83078809Y-54588048D01*
X83086490Y-54590020D01*
X83106751Y-54590020D01*
X83126460Y-54591571D01*
X83146463Y-54594739D01*
X83154355Y-54593993D01*
X83159582Y-54593499D01*
X83190474Y-54590579D01*
X83202331Y-54590020D01*
X84629926Y-54590020D01*
X84698047Y-54610022D01*
X84719021Y-54626925D01*
X86295643Y-56203547D01*
X86329669Y-56265859D01*
X86332548Y-56292642D01*
X86332548Y-58318020D01*
X86312546Y-58386141D01*
X86258890Y-58432634D01*
X86206548Y-58444020D01*
X84050386Y-58444020D01*
X83988204Y-58450775D01*
X83851815Y-58501905D01*
X83735259Y-58589259D01*
X83647905Y-58705815D01*
X83596775Y-58842204D01*
X83590020Y-58904386D01*
X83590020Y-60887073D01*
X83570018Y-60955194D01*
X83516362Y-61001687D01*
X83446088Y-61011791D01*
X83403322Y-60997489D01*
X83376648Y-60982825D01*
X83357025Y-60977787D01*
X83338322Y-60971383D01*
X83327008Y-60966487D01*
X83327007Y-60966487D01*
X83319733Y-60963339D01*
X83311910Y-60962100D01*
X83311900Y-60962097D01*
X83276064Y-60956421D01*
X83264444Y-60954015D01*
X83229299Y-60944992D01*
X83229298Y-60944992D01*
X83221618Y-60943020D01*
X83201364Y-60943020D01*
X83181653Y-60941469D01*
X83169474Y-60939540D01*
X83161645Y-60938300D01*
X83153753Y-60939046D01*
X83117627Y-60942461D01*
X83105769Y-60943020D01*
X80057698Y-60943020D01*
X79989577Y-60923018D01*
X79943084Y-60869362D01*
X79932980Y-60799088D01*
X79962474Y-60734508D01*
X79988613Y-60711648D01*
X80013496Y-60695334D01*
X80017200Y-60692997D01*
X80079627Y-60655115D01*
X80088004Y-60647717D01*
X80088028Y-60647744D01*
X80091020Y-60645091D01*
X80094253Y-60642388D01*
X80100372Y-60638376D01*
X80153648Y-60582137D01*
X80156026Y-60579695D01*
X83322851Y-57412870D01*
X83385748Y-57378719D01*
X83442344Y-57366689D01*
X83442353Y-57366686D01*
X83448808Y-57365314D01*
X83460209Y-57360238D01*
X83617242Y-57290323D01*
X83617244Y-57290322D01*
X83623272Y-57287638D01*
X83630961Y-57282052D01*
X83708874Y-57225444D01*
X83777773Y-57175386D01*
X83788640Y-57163317D01*
X83901141Y-57038372D01*
X83901142Y-57038371D01*
X83905560Y-57033464D01*
X84001047Y-56868076D01*
X84060062Y-56686448D01*
X84063855Y-56650365D01*
X84079334Y-56503085D01*
X84080024Y-56496520D01*
X84075051Y-56449203D01*
X84060752Y-56313155D01*
X84060752Y-56313153D01*
X84060062Y-56306592D01*
X84001047Y-56124964D01*
X83905560Y-55959576D01*
X83896625Y-55949652D01*
X83782195Y-55822565D01*
X83782194Y-55822564D01*
X83777773Y-55817654D01*
X83623272Y-55705402D01*
X83617244Y-55702718D01*
X83617242Y-55702717D01*
X83454839Y-55630411D01*
X83454838Y-55630411D01*
X83448808Y-55627726D01*
X83355407Y-55607873D01*
X83268464Y-55589392D01*
X83268459Y-55589392D01*
X83262007Y-55588020D01*
X83071033Y-55588020D01*
X83064581Y-55589392D01*
X83064576Y-55589392D01*
X82977633Y-55607873D01*
X82884232Y-55627726D01*
X82878202Y-55630411D01*
X82878201Y-55630411D01*
X82715798Y-55702717D01*
X82715796Y-55702718D01*
X82709768Y-55705402D01*
X82555267Y-55817654D01*
X82550846Y-55822564D01*
X82550845Y-55822565D01*
X82436416Y-55949652D01*
X82427480Y-55959576D01*
X82331993Y-56124964D01*
X82279144Y-56287617D01*
X82277133Y-56293805D01*
X82246395Y-56343964D01*
X81398941Y-57191418D01*
X81336629Y-57225444D01*
X81265814Y-57220379D01*
X81208978Y-57177832D01*
X81184167Y-57111312D01*
X81187327Y-57072909D01*
X81202974Y-57007736D01*
X81202975Y-57007730D01*
X81204129Y-57002923D01*
X81223994Y-56750520D01*
X81223333Y-56742115D01*
X81215753Y-56645806D01*
X81204129Y-56498117D01*
X81202170Y-56489955D01*
X81158148Y-56306592D01*
X81145025Y-56251929D01*
X81140110Y-56240063D01*
X81050031Y-56022592D01*
X81050029Y-56022588D01*
X81048136Y-56018018D01*
X80915848Y-55802144D01*
X80751418Y-55609622D01*
X80732548Y-55593505D01*
X80698164Y-55564139D01*
X80558896Y-55445192D01*
X80343022Y-55312904D01*
X80338452Y-55311011D01*
X80338448Y-55311009D01*
X80113684Y-55217909D01*
X80113682Y-55217908D01*
X80109111Y-55216015D01*
X80024488Y-55195699D01*
X79867736Y-55158066D01*
X79867730Y-55158065D01*
X79862923Y-55156911D01*
X79610520Y-55137046D01*
X79358117Y-55156911D01*
X79353310Y-55158065D01*
X79353304Y-55158066D01*
X79196552Y-55195699D01*
X79111929Y-55216015D01*
X79107358Y-55217908D01*
X79107356Y-55217909D01*
X78882592Y-55311009D01*
X78882588Y-55311011D01*
X78878018Y-55312904D01*
X78662144Y-55445192D01*
X78522876Y-55564139D01*
X78488493Y-55593505D01*
X78469622Y-55609622D01*
X78305192Y-55802144D01*
X78172904Y-56018018D01*
X78171011Y-56022588D01*
X78171009Y-56022592D01*
X78080930Y-56240063D01*
X78076015Y-56251929D01*
X78062892Y-56306592D01*
X78018871Y-56489955D01*
X78016911Y-56498117D01*
X78014685Y-56526397D01*
X78013825Y-56537326D01*
X77988539Y-56603667D01*
X77931401Y-56645806D01*
X77860551Y-56650365D01*
X77798483Y-56615895D01*
X77785000Y-56599710D01*
X77682991Y-56454026D01*
X77682989Y-56454023D01*
X77679832Y-56449515D01*
X77517934Y-56287617D01*
X77503751Y-56277686D01*
X77459422Y-56222230D01*
X77450020Y-56174472D01*
X77450020Y-53389044D01*
X77470022Y-53320923D01*
X77482378Y-53304741D01*
X77555560Y-53223464D01*
X77624084Y-53104778D01*
X77647743Y-53063799D01*
X77647744Y-53063798D01*
X77651047Y-53058076D01*
X77710062Y-52876448D01*
X77718413Y-52796998D01*
X77729334Y-52693085D01*
X77730024Y-52686520D01*
X77720963Y-52600312D01*
X77710752Y-52503155D01*
X77710752Y-52503153D01*
X77710062Y-52496592D01*
X77651047Y-52314964D01*
X77647408Y-52308660D01*
X77611108Y-52245787D01*
X77555560Y-52149576D01*
X77519521Y-52109550D01*
X77432195Y-52012565D01*
X77432194Y-52012564D01*
X77427773Y-52007654D01*
X77294479Y-51910810D01*
X77278614Y-51899283D01*
X77278613Y-51899282D01*
X77273272Y-51895402D01*
X77267244Y-51892718D01*
X77267242Y-51892717D01*
X77104839Y-51820411D01*
X77104838Y-51820411D01*
X77098808Y-51817726D01*
X76986241Y-51793799D01*
X76918464Y-51779392D01*
X76918459Y-51779392D01*
X76912007Y-51778020D01*
X76721033Y-51778020D01*
X76714581Y-51779392D01*
X76714576Y-51779392D01*
X76646799Y-51793799D01*
X76534232Y-51817726D01*
X76528202Y-51820411D01*
X76528201Y-51820411D01*
X76365798Y-51892717D01*
X76365796Y-51892718D01*
X76359768Y-51895402D01*
X76354427Y-51899282D01*
X76354426Y-51899283D01*
X76338561Y-51910810D01*
X76205267Y-52007654D01*
X76200846Y-52012564D01*
X76200845Y-52012565D01*
X76113520Y-52109550D01*
X76077480Y-52149576D01*
X76021932Y-52245787D01*
X75985633Y-52308660D01*
X75981993Y-52314964D01*
X75922978Y-52496592D01*
X75922288Y-52503153D01*
X75922288Y-52503155D01*
X75912077Y-52600312D01*
X75903016Y-52686520D01*
X75903706Y-52693085D01*
X75914628Y-52796998D01*
X75922978Y-52876448D01*
X75981993Y-53058076D01*
X75985296Y-53063798D01*
X75985297Y-53063799D01*
X76008956Y-53104778D01*
X76077480Y-53223464D01*
X76150657Y-53304735D01*
X76181373Y-53368741D01*
X76183020Y-53389044D01*
X76183020Y-55998551D01*
X76163018Y-56066672D01*
X76110270Y-56112746D01*
X76021872Y-56153966D01*
X76021867Y-56153969D01*
X76016885Y-56156292D01*
X75930762Y-56216596D01*
X75833845Y-56284458D01*
X75833844Y-56284459D01*
X75829334Y-56287617D01*
X75667436Y-56449515D01*
X75664279Y-56454023D01*
X75664277Y-56454026D01*
X75625570Y-56509306D01*
X75536111Y-56637066D01*
X75533788Y-56642048D01*
X75533785Y-56642053D01*
X75444835Y-56832809D01*
X75439350Y-56844572D01*
X75437928Y-56849880D01*
X75437927Y-56849882D01*
X75381567Y-57060219D01*
X75380091Y-57065728D01*
X75360136Y-57293815D01*
X75380091Y-57521902D01*
X75381515Y-57527215D01*
X75381515Y-57527217D01*
X75435653Y-57729259D01*
X75439350Y-57743058D01*
X75441673Y-57748039D01*
X75441673Y-57748040D01*
X75533785Y-57945577D01*
X75533788Y-57945582D01*
X75536111Y-57950564D01*
X75667436Y-58138115D01*
X75829334Y-58300013D01*
X75833842Y-58303170D01*
X75833845Y-58303172D01*
X75868342Y-58327327D01*
X76016885Y-58431338D01*
X76021867Y-58433661D01*
X76021872Y-58433664D01*
X76217245Y-58524767D01*
X76224391Y-58528099D01*
X76229699Y-58529521D01*
X76229701Y-58529522D01*
X76440232Y-58585934D01*
X76440234Y-58585934D01*
X76445547Y-58587358D01*
X76673634Y-58607313D01*
X76901721Y-58587358D01*
X76907034Y-58585934D01*
X76907036Y-58585934D01*
X77117567Y-58529522D01*
X77117569Y-58529521D01*
X77122877Y-58528099D01*
X77130023Y-58524767D01*
X77325396Y-58433664D01*
X77325401Y-58433661D01*
X77330383Y-58431338D01*
X77478926Y-58327327D01*
X77513423Y-58303172D01*
X77513426Y-58303170D01*
X77517934Y-58300013D01*
X77679832Y-58138115D01*
X77811157Y-57950564D01*
X77813480Y-57945582D01*
X77813483Y-57945577D01*
X77905595Y-57748040D01*
X77905595Y-57748039D01*
X77907918Y-57743058D01*
X77922363Y-57689148D01*
X77961109Y-57544549D01*
X77998061Y-57483927D01*
X78061922Y-57452905D01*
X78132416Y-57461334D01*
X78190248Y-57511326D01*
X78305192Y-57698896D01*
X78431008Y-57846207D01*
X78456473Y-57876022D01*
X78469622Y-57891418D01*
X78662144Y-58055848D01*
X78878018Y-58188136D01*
X78882588Y-58190029D01*
X78882592Y-58190031D01*
X79065129Y-58265640D01*
X79111929Y-58285025D01*
X79158127Y-58296116D01*
X79353304Y-58342974D01*
X79353310Y-58342975D01*
X79358117Y-58344129D01*
X79610520Y-58363994D01*
X79862923Y-58344129D01*
X79867730Y-58342975D01*
X79867736Y-58342974D01*
X79932909Y-58327327D01*
X80003817Y-58330874D01*
X80061551Y-58372194D01*
X80087781Y-58438168D01*
X80074178Y-58507849D01*
X80051418Y-58538941D01*
X79333244Y-59257115D01*
X79270932Y-59291141D01*
X79244149Y-59294020D01*
X76530768Y-59294020D01*
X76462647Y-59274018D01*
X76423335Y-59233855D01*
X76367908Y-59143407D01*
X76343848Y-59104144D01*
X76191293Y-58925526D01*
X76182626Y-58915378D01*
X76179418Y-58911622D01*
X75986896Y-58747192D01*
X75771022Y-58614904D01*
X75766452Y-58613011D01*
X75766448Y-58613009D01*
X75541684Y-58519909D01*
X75541682Y-58519908D01*
X75537111Y-58518015D01*
X75415500Y-58488819D01*
X75295736Y-58460066D01*
X75295730Y-58460065D01*
X75290923Y-58458911D01*
X75038520Y-58439046D01*
X74786117Y-58458911D01*
X74781310Y-58460065D01*
X74781304Y-58460066D01*
X74661540Y-58488819D01*
X74539929Y-58518015D01*
X74535358Y-58519908D01*
X74535356Y-58519909D01*
X74310592Y-58613009D01*
X74310588Y-58613011D01*
X74306018Y-58614904D01*
X74090144Y-58747192D01*
X73897622Y-58911622D01*
X73894414Y-58915378D01*
X73885747Y-58925526D01*
X73733192Y-59104144D01*
X73630139Y-59272311D01*
X73608358Y-59307855D01*
X73600904Y-59320018D01*
X73599011Y-59324588D01*
X73599009Y-59324592D01*
X73505909Y-59549356D01*
X73504015Y-59553929D01*
X73502860Y-59558741D01*
X73453109Y-59765971D01*
X73444911Y-59800117D01*
X73425046Y-60052520D01*
X73444911Y-60304923D01*
X73446065Y-60309730D01*
X73446066Y-60309736D01*
X73472750Y-60420881D01*
X73504015Y-60551111D01*
X73505908Y-60555682D01*
X73505909Y-60555684D01*
X73594185Y-60768802D01*
X73601774Y-60839392D01*
X73569995Y-60902879D01*
X73508936Y-60939106D01*
X73477776Y-60943020D01*
X72399020Y-60943020D01*
X72330899Y-60923018D01*
X72284406Y-60869362D01*
X72273020Y-60817020D01*
X72273020Y-59467120D01*
X72271657Y-59453986D01*
X72262758Y-59368212D01*
X72262757Y-59368208D01*
X72262046Y-59361354D01*
X72258269Y-59350031D01*
X72208388Y-59200522D01*
X72206070Y-59193574D01*
X72112998Y-59043172D01*
X71987823Y-58918215D01*
X71977127Y-58911622D01*
X71857904Y-58838131D01*
X71810410Y-58785358D01*
X71798020Y-58730871D01*
X71798020Y-56427404D01*
X71818022Y-56359283D01*
X71871678Y-56312790D01*
X71941952Y-56302686D01*
X72006532Y-56332180D01*
X72045727Y-56394791D01*
X72057238Y-56437752D01*
X72059561Y-56442733D01*
X72059561Y-56442734D01*
X72151673Y-56640271D01*
X72151676Y-56640276D01*
X72153999Y-56645258D01*
X72285324Y-56832809D01*
X72447222Y-56994707D01*
X72451730Y-56997864D01*
X72451733Y-56997866D01*
X72503761Y-57034296D01*
X72634773Y-57126032D01*
X72639755Y-57128355D01*
X72639760Y-57128358D01*
X72802903Y-57204432D01*
X72842279Y-57222793D01*
X72847587Y-57224215D01*
X72847589Y-57224216D01*
X73058120Y-57280628D01*
X73058122Y-57280628D01*
X73063435Y-57282052D01*
X73163002Y-57290763D01*
X73231671Y-57296771D01*
X73231678Y-57296771D01*
X73234395Y-57297009D01*
X73748649Y-57297009D01*
X73751366Y-57296771D01*
X73751373Y-57296771D01*
X73820042Y-57290763D01*
X73919609Y-57282052D01*
X73924922Y-57280628D01*
X73924924Y-57280628D01*
X74135455Y-57224216D01*
X74135457Y-57224215D01*
X74140765Y-57222793D01*
X74180141Y-57204432D01*
X74343284Y-57128358D01*
X74343289Y-57128355D01*
X74348271Y-57126032D01*
X74479283Y-57034296D01*
X74531311Y-56997866D01*
X74531314Y-56997864D01*
X74535822Y-56994707D01*
X74697720Y-56832809D01*
X74829045Y-56645258D01*
X74831368Y-56640276D01*
X74831371Y-56640271D01*
X74923483Y-56442734D01*
X74923483Y-56442733D01*
X74925806Y-56437752D01*
X74937738Y-56393224D01*
X74983641Y-56221911D01*
X74983641Y-56221909D01*
X74985065Y-56216596D01*
X75005020Y-55988509D01*
X74985065Y-55760422D01*
X74979277Y-55738821D01*
X74927229Y-55544576D01*
X74927228Y-55544573D01*
X74925806Y-55539266D01*
X74913446Y-55512760D01*
X74831371Y-55336747D01*
X74831368Y-55336742D01*
X74829045Y-55331760D01*
X74706614Y-55156911D01*
X74700879Y-55148720D01*
X74700877Y-55148717D01*
X74697720Y-55144209D01*
X74535822Y-54982311D01*
X74531314Y-54979154D01*
X74531311Y-54979152D01*
X74374370Y-54869261D01*
X74348271Y-54850986D01*
X74343289Y-54848663D01*
X74343284Y-54848660D01*
X74308473Y-54832428D01*
X74255188Y-54785511D01*
X74235727Y-54717234D01*
X74256269Y-54649274D01*
X74308473Y-54604038D01*
X74343033Y-54587923D01*
X74352529Y-54582440D01*
X74530989Y-54457481D01*
X74539397Y-54450425D01*
X74693438Y-54296384D01*
X74700494Y-54287976D01*
X74825453Y-54109516D01*
X74830936Y-54100020D01*
X74923012Y-53902562D01*
X74926758Y-53892270D01*
X74972916Y-53720006D01*
X74972580Y-53705910D01*
X74964638Y-53702509D01*
X73363522Y-53702509D01*
X73295401Y-53682507D01*
X73248908Y-53628851D01*
X73237522Y-53576509D01*
X73237522Y-53320509D01*
X73257524Y-53252388D01*
X73311180Y-53205895D01*
X73363522Y-53194509D01*
X74959489Y-53194509D01*
X74973020Y-53190536D01*
X74974249Y-53181987D01*
X74926758Y-53004748D01*
X74923012Y-52994456D01*
X74830936Y-52796998D01*
X74825453Y-52787502D01*
X74700494Y-52609042D01*
X74693438Y-52600634D01*
X74539397Y-52446593D01*
X74530989Y-52439537D01*
X74352529Y-52314578D01*
X74343033Y-52309095D01*
X74308473Y-52292980D01*
X74255188Y-52246063D01*
X74235727Y-52177786D01*
X74256269Y-52109826D01*
X74308473Y-52064590D01*
X74343284Y-52048358D01*
X74343289Y-52048355D01*
X74348271Y-52046032D01*
X74471657Y-51959636D01*
X74531311Y-51917866D01*
X74531314Y-51917864D01*
X74535822Y-51914707D01*
X74697720Y-51752809D01*
X74738040Y-51695227D01*
X74825888Y-51569766D01*
X74829045Y-51565258D01*
X74831368Y-51560276D01*
X74831371Y-51560271D01*
X74923483Y-51362734D01*
X74923483Y-51362733D01*
X74925806Y-51357752D01*
X74960951Y-51226592D01*
X74983641Y-51141911D01*
X74983641Y-51141909D01*
X74985065Y-51136596D01*
X75005020Y-50908509D01*
X74985065Y-50680422D01*
X74953561Y-50562848D01*
X74927229Y-50464576D01*
X74927228Y-50464573D01*
X74925806Y-50459266D01*
X74898537Y-50400786D01*
X74831371Y-50256747D01*
X74831368Y-50256742D01*
X74829045Y-50251760D01*
X74697720Y-50064209D01*
X74535822Y-49902311D01*
X74531314Y-49899154D01*
X74531311Y-49899152D01*
X74408657Y-49813269D01*
X74348271Y-49770986D01*
X74343289Y-49768663D01*
X74343284Y-49768660D01*
X74309065Y-49752704D01*
X74255780Y-49705787D01*
X74236319Y-49637510D01*
X74256861Y-49569550D01*
X74309065Y-49524314D01*
X74343284Y-49508358D01*
X74343289Y-49508355D01*
X74348271Y-49506032D01*
X74471657Y-49419636D01*
X74531311Y-49377866D01*
X74531314Y-49377864D01*
X74535822Y-49374707D01*
X74697720Y-49212809D01*
X74829045Y-49025258D01*
X74831368Y-49020276D01*
X74831371Y-49020271D01*
X74923483Y-48822734D01*
X74923483Y-48822733D01*
X74925806Y-48817752D01*
X74938243Y-48771339D01*
X74959778Y-48690968D01*
X74996730Y-48630345D01*
X75060591Y-48599324D01*
X75131085Y-48607752D01*
G37*
%TD.AperFunction*%
%TA.AperFunction,Conductor*%
G36*
X70449052Y-47331058D02*
G01*
X70505888Y-47373605D01*
X70530699Y-47440125D01*
X70531020Y-47449114D01*
X70531020Y-58730739D01*
X70511018Y-58798860D01*
X70471323Y-58837883D01*
X70340172Y-58919042D01*
X70215215Y-59044217D01*
X70211375Y-59050447D01*
X70211374Y-59050448D01*
X70205487Y-59059999D01*
X70186177Y-59091326D01*
X70183446Y-59095756D01*
X70130674Y-59143249D01*
X70060602Y-59154673D01*
X69995478Y-59126399D01*
X69977102Y-59107475D01*
X69970916Y-59099600D01*
X69966385Y-59095668D01*
X69962250Y-59091326D01*
X69963102Y-59090514D01*
X69928099Y-59035963D01*
X69923020Y-59000550D01*
X69923020Y-52008945D01*
X69939901Y-51945945D01*
X70027743Y-51793799D01*
X70027744Y-51793798D01*
X70031047Y-51788076D01*
X70090062Y-51606448D01*
X70093918Y-51569766D01*
X70109334Y-51423085D01*
X70110024Y-51416520D01*
X70095600Y-51279283D01*
X70090752Y-51233155D01*
X70090752Y-51233153D01*
X70090062Y-51226592D01*
X70031047Y-51044964D01*
X70007237Y-51003723D01*
X69956902Y-50916542D01*
X69935560Y-50879576D01*
X69913345Y-50854903D01*
X69812195Y-50742565D01*
X69812194Y-50742564D01*
X69807773Y-50737654D01*
X69653272Y-50625402D01*
X69647244Y-50622718D01*
X69647242Y-50622717D01*
X69484839Y-50550411D01*
X69484838Y-50550411D01*
X69478808Y-50547726D01*
X69367342Y-50524033D01*
X69298464Y-50509392D01*
X69298459Y-50509392D01*
X69292007Y-50508020D01*
X69101033Y-50508020D01*
X69094581Y-50509392D01*
X69094576Y-50509392D01*
X69025697Y-50524033D01*
X68954906Y-50518631D01*
X68898273Y-50475814D01*
X68873780Y-50409176D01*
X68873500Y-50400786D01*
X68873500Y-48854634D01*
X68893502Y-48786513D01*
X68910405Y-48765539D01*
X70315925Y-47360019D01*
X70378237Y-47325993D01*
X70449052Y-47331058D01*
G37*
%TD.AperFunction*%
%TA.AperFunction,Conductor*%
G36*
X52899991Y-49022022D02*
G01*
X52946484Y-49075678D01*
X52956588Y-49145952D01*
X52940989Y-49191019D01*
X52886473Y-49285444D01*
X52827458Y-49467072D01*
X52826768Y-49473633D01*
X52826768Y-49473635D01*
X52813193Y-49602793D01*
X52807496Y-49657000D01*
X52808186Y-49663565D01*
X52822207Y-49796963D01*
X52827458Y-49846928D01*
X52886473Y-50028556D01*
X52889776Y-50034278D01*
X52889777Y-50034279D01*
X52899410Y-50050963D01*
X52939713Y-50120769D01*
X52945619Y-50130999D01*
X52962500Y-50193999D01*
X52962500Y-56910629D01*
X52942498Y-56978750D01*
X52925595Y-56999724D01*
X52261598Y-57663721D01*
X52247186Y-57676107D01*
X52235591Y-57684640D01*
X52235586Y-57684645D01*
X52229691Y-57688983D01*
X52224952Y-57694561D01*
X52224949Y-57694564D01*
X52195474Y-57729259D01*
X52188544Y-57736775D01*
X52182849Y-57742470D01*
X52180569Y-57745352D01*
X52165228Y-57764742D01*
X52162437Y-57768146D01*
X52136747Y-57798385D01*
X52115176Y-57823776D01*
X52111848Y-57830292D01*
X52108481Y-57835341D01*
X52105314Y-57840470D01*
X52100775Y-57846207D01*
X52069854Y-57912366D01*
X52067951Y-57916260D01*
X52034740Y-57981299D01*
X52033001Y-57988407D01*
X52030902Y-57994050D01*
X52028985Y-57999813D01*
X52025887Y-58006441D01*
X52024397Y-58013603D01*
X52024397Y-58013604D01*
X52011023Y-58077903D01*
X52010053Y-58082187D01*
X51992701Y-58153101D01*
X51992009Y-58164255D01*
X51991973Y-58164253D01*
X51991734Y-58168246D01*
X51991360Y-58172438D01*
X51989869Y-58179606D01*
X51990067Y-58186923D01*
X51991963Y-58257012D01*
X51992009Y-58260419D01*
X51992009Y-58921626D01*
X51972007Y-58989747D01*
X51918351Y-59036240D01*
X51848077Y-59046344D01*
X51784178Y-59017437D01*
X51764235Y-59000404D01*
X51598885Y-58859181D01*
X51389604Y-58730933D01*
X51387231Y-58729479D01*
X51383011Y-58726893D01*
X51378441Y-58725000D01*
X51378437Y-58724998D01*
X51153673Y-58631898D01*
X51153671Y-58631897D01*
X51149100Y-58630004D01*
X51009291Y-58596439D01*
X50907725Y-58572055D01*
X50907719Y-58572054D01*
X50902912Y-58570900D01*
X50650509Y-58551035D01*
X50398106Y-58570900D01*
X50393299Y-58572054D01*
X50393293Y-58572055D01*
X50291727Y-58596439D01*
X50151918Y-58630004D01*
X50147347Y-58631897D01*
X50147345Y-58631898D01*
X49922581Y-58724998D01*
X49922577Y-58725000D01*
X49918007Y-58726893D01*
X49913787Y-58729479D01*
X49911414Y-58730933D01*
X49702133Y-58859181D01*
X49698378Y-58862388D01*
X49698374Y-58862391D01*
X49653915Y-58900363D01*
X49624454Y-58925526D01*
X49610831Y-58937161D01*
X49546041Y-58966192D01*
X49475841Y-58955587D01*
X49422519Y-58908713D01*
X49403000Y-58841350D01*
X49403000Y-57107757D01*
X49423002Y-57039636D01*
X49476658Y-56993143D01*
X49546932Y-56983039D01*
X49601270Y-57004544D01*
X49774773Y-57126032D01*
X49779755Y-57128355D01*
X49779760Y-57128358D01*
X49942903Y-57204432D01*
X49982279Y-57222793D01*
X49987587Y-57224215D01*
X49987589Y-57224216D01*
X50198120Y-57280628D01*
X50198122Y-57280628D01*
X50203435Y-57282052D01*
X50303002Y-57290763D01*
X50371671Y-57296771D01*
X50371678Y-57296771D01*
X50374395Y-57297009D01*
X50888649Y-57297009D01*
X50891366Y-57296771D01*
X50891373Y-57296771D01*
X50960042Y-57290763D01*
X51059609Y-57282052D01*
X51064922Y-57280628D01*
X51064924Y-57280628D01*
X51275455Y-57224216D01*
X51275457Y-57224215D01*
X51280765Y-57222793D01*
X51320141Y-57204432D01*
X51483284Y-57128358D01*
X51483289Y-57128355D01*
X51488271Y-57126032D01*
X51619283Y-57034296D01*
X51671311Y-56997866D01*
X51671314Y-56997864D01*
X51675822Y-56994707D01*
X51837720Y-56832809D01*
X51969045Y-56645258D01*
X51971368Y-56640276D01*
X51971371Y-56640271D01*
X52063483Y-56442734D01*
X52063483Y-56442733D01*
X52065806Y-56437752D01*
X52077738Y-56393224D01*
X52123641Y-56221911D01*
X52123641Y-56221909D01*
X52125065Y-56216596D01*
X52145020Y-55988509D01*
X52125065Y-55760422D01*
X52119277Y-55738821D01*
X52067229Y-55544576D01*
X52067228Y-55544573D01*
X52065806Y-55539266D01*
X52053446Y-55512760D01*
X51971371Y-55336747D01*
X51971368Y-55336742D01*
X51969045Y-55331760D01*
X51846614Y-55156911D01*
X51840879Y-55148720D01*
X51840877Y-55148717D01*
X51837720Y-55144209D01*
X51675822Y-54982311D01*
X51671314Y-54979154D01*
X51671311Y-54979152D01*
X51514370Y-54869261D01*
X51488271Y-54850986D01*
X51483289Y-54848663D01*
X51483284Y-54848660D01*
X51449065Y-54832704D01*
X51395780Y-54785787D01*
X51376319Y-54717510D01*
X51396861Y-54649550D01*
X51449065Y-54604314D01*
X51483284Y-54588358D01*
X51483289Y-54588355D01*
X51488271Y-54586032D01*
X51593133Y-54512607D01*
X51671311Y-54457866D01*
X51671314Y-54457864D01*
X51675822Y-54454707D01*
X51837720Y-54292809D01*
X51849237Y-54276362D01*
X51965888Y-54109766D01*
X51969045Y-54105258D01*
X51971368Y-54100276D01*
X51971371Y-54100271D01*
X52063483Y-53902734D01*
X52063483Y-53902733D01*
X52065806Y-53897752D01*
X52125065Y-53676596D01*
X52145020Y-53448509D01*
X52125065Y-53220422D01*
X52123641Y-53215107D01*
X52067229Y-53004576D01*
X52067228Y-53004574D01*
X52065806Y-52999266D01*
X52011463Y-52882726D01*
X51971371Y-52796747D01*
X51971368Y-52796742D01*
X51969045Y-52791760D01*
X51837720Y-52604209D01*
X51675822Y-52442311D01*
X51671314Y-52439154D01*
X51671311Y-52439152D01*
X51548657Y-52353269D01*
X51488271Y-52310986D01*
X51483289Y-52308663D01*
X51483284Y-52308660D01*
X51449065Y-52292704D01*
X51395780Y-52245787D01*
X51376319Y-52177510D01*
X51396861Y-52109550D01*
X51449065Y-52064314D01*
X51483284Y-52048358D01*
X51483289Y-52048355D01*
X51488271Y-52046032D01*
X51611657Y-51959636D01*
X51671311Y-51917866D01*
X51671314Y-51917864D01*
X51675822Y-51914707D01*
X51837720Y-51752809D01*
X51878040Y-51695227D01*
X51965888Y-51569766D01*
X51969045Y-51565258D01*
X51971368Y-51560276D01*
X51971371Y-51560271D01*
X52063483Y-51362734D01*
X52063483Y-51362733D01*
X52065806Y-51357752D01*
X52100951Y-51226592D01*
X52123641Y-51141911D01*
X52123641Y-51141909D01*
X52125065Y-51136596D01*
X52145020Y-50908509D01*
X52125065Y-50680422D01*
X52093561Y-50562848D01*
X52067229Y-50464576D01*
X52067228Y-50464573D01*
X52065806Y-50459266D01*
X52038537Y-50400786D01*
X51971371Y-50256747D01*
X51971368Y-50256742D01*
X51969045Y-50251760D01*
X51837720Y-50064209D01*
X51675822Y-49902311D01*
X51671314Y-49899154D01*
X51671311Y-49899152D01*
X51548657Y-49813269D01*
X51488271Y-49770986D01*
X51483289Y-49768663D01*
X51483284Y-49768660D01*
X51449065Y-49752704D01*
X51395780Y-49705787D01*
X51376319Y-49637510D01*
X51396861Y-49569550D01*
X51449065Y-49524314D01*
X51483284Y-49508358D01*
X51483289Y-49508355D01*
X51488271Y-49506032D01*
X51611657Y-49419636D01*
X51671311Y-49377866D01*
X51671314Y-49377864D01*
X51675822Y-49374707D01*
X51837720Y-49212809D01*
X51933741Y-49075678D01*
X51947695Y-49055749D01*
X52003152Y-49011421D01*
X52050908Y-49002020D01*
X52831870Y-49002020D01*
X52899991Y-49022022D01*
G37*
%TD.AperFunction*%
%TA.AperFunction,Conductor*%
G36*
X72018120Y-42665102D02*
G01*
X72064613Y-42718758D01*
X72074717Y-42789032D01*
X72064195Y-42824346D01*
X72057238Y-42839266D01*
X72055814Y-42844581D01*
X72001910Y-43045753D01*
X71997979Y-43060422D01*
X71978024Y-43288509D01*
X71997979Y-43516596D01*
X71999403Y-43521909D01*
X71999403Y-43521911D01*
X72057238Y-43737752D01*
X72054561Y-43738469D01*
X72058557Y-43797678D01*
X72024640Y-43859496D01*
X69890169Y-45993966D01*
X67847747Y-48036388D01*
X67839461Y-48043928D01*
X67832982Y-48048040D01*
X67827557Y-48053817D01*
X67786357Y-48097691D01*
X67783602Y-48100533D01*
X67763865Y-48120270D01*
X67761385Y-48123467D01*
X67753682Y-48132487D01*
X67723414Y-48164719D01*
X67719595Y-48171665D01*
X67719593Y-48171668D01*
X67713652Y-48182474D01*
X67702801Y-48198993D01*
X67690386Y-48214999D01*
X67687241Y-48222268D01*
X67687238Y-48222272D01*
X67672826Y-48255577D01*
X67667609Y-48266227D01*
X67646305Y-48304980D01*
X67644334Y-48312655D01*
X67644334Y-48312656D01*
X67641267Y-48324602D01*
X67634863Y-48343306D01*
X67626819Y-48361895D01*
X67625580Y-48369718D01*
X67625577Y-48369728D01*
X67619901Y-48405564D01*
X67617495Y-48417184D01*
X67614883Y-48427358D01*
X67606500Y-48460010D01*
X67606500Y-48480264D01*
X67604949Y-48499974D01*
X67601780Y-48519983D01*
X67602526Y-48527875D01*
X67605941Y-48564001D01*
X67606500Y-48575859D01*
X67606500Y-58670422D01*
X67586498Y-58738543D01*
X67532842Y-58785036D01*
X67462568Y-58795140D01*
X67439170Y-58789451D01*
X67433916Y-58787627D01*
X67433917Y-58787627D01*
X67428249Y-58785659D01*
X67422314Y-58784798D01*
X67422312Y-58784798D01*
X67224856Y-58756168D01*
X67224853Y-58756168D01*
X67218916Y-58755307D01*
X67007621Y-58765087D01*
X66883808Y-58794926D01*
X66814703Y-58811580D01*
X66743792Y-58808095D01*
X66696087Y-58778182D01*
X65800172Y-57882267D01*
X65792632Y-57873981D01*
X65788520Y-57867502D01*
X65738868Y-57820876D01*
X65736027Y-57818122D01*
X65716290Y-57798385D01*
X65713093Y-57795905D01*
X65704071Y-57788200D01*
X65677620Y-57763361D01*
X65671841Y-57757934D01*
X65664895Y-57754115D01*
X65664892Y-57754113D01*
X65654086Y-57748172D01*
X65637567Y-57737321D01*
X65636863Y-57736775D01*
X65621561Y-57724906D01*
X65614292Y-57721761D01*
X65614288Y-57721758D01*
X65580983Y-57707346D01*
X65570333Y-57702129D01*
X65531580Y-57680825D01*
X65511957Y-57675787D01*
X65493254Y-57669383D01*
X65481940Y-57664487D01*
X65481939Y-57664487D01*
X65474665Y-57661339D01*
X65466842Y-57660100D01*
X65466832Y-57660097D01*
X65430996Y-57654421D01*
X65419376Y-57652015D01*
X65384231Y-57642992D01*
X65384230Y-57642992D01*
X65376550Y-57641020D01*
X65356296Y-57641020D01*
X65336585Y-57639469D01*
X65324406Y-57637540D01*
X65316577Y-57636300D01*
X65308685Y-57637046D01*
X65272559Y-57640461D01*
X65260701Y-57641020D01*
X61383115Y-57641020D01*
X61314994Y-57621018D01*
X61294020Y-57604115D01*
X60468925Y-56779020D01*
X60434899Y-56716708D01*
X60432020Y-56689925D01*
X60432020Y-51241288D01*
X60432547Y-51230105D01*
X60434222Y-51222612D01*
X60432082Y-51154521D01*
X60432020Y-51150564D01*
X60432020Y-51122664D01*
X60431516Y-51118673D01*
X60430583Y-51106831D01*
X60429443Y-51070556D01*
X60429194Y-51062631D01*
X60426982Y-51055017D01*
X60426981Y-51055012D01*
X60423543Y-51043179D01*
X60419532Y-51023815D01*
X60417987Y-51011584D01*
X60416994Y-51003723D01*
X60414077Y-50996356D01*
X60414076Y-50996351D01*
X60400718Y-50962612D01*
X60396874Y-50951385D01*
X60386750Y-50916542D01*
X60384538Y-50908927D01*
X60374227Y-50891492D01*
X60365532Y-50873744D01*
X60358072Y-50854903D01*
X60332084Y-50819133D01*
X60325568Y-50809213D01*
X60307100Y-50777985D01*
X60307098Y-50777982D01*
X60303062Y-50771158D01*
X60288741Y-50756837D01*
X60275900Y-50741803D01*
X60263992Y-50725413D01*
X60229915Y-50697222D01*
X60221136Y-50689232D01*
X57508172Y-47976267D01*
X57500632Y-47967981D01*
X57496520Y-47961502D01*
X57446868Y-47914876D01*
X57444027Y-47912122D01*
X57424290Y-47892385D01*
X57421093Y-47889905D01*
X57412071Y-47882200D01*
X57385620Y-47857361D01*
X57379841Y-47851934D01*
X57372895Y-47848115D01*
X57372892Y-47848113D01*
X57362086Y-47842172D01*
X57345567Y-47831321D01*
X57345103Y-47830961D01*
X57329561Y-47818906D01*
X57322292Y-47815761D01*
X57322288Y-47815758D01*
X57288983Y-47801346D01*
X57278333Y-47796129D01*
X57239580Y-47774825D01*
X57219957Y-47769787D01*
X57201254Y-47763383D01*
X57189940Y-47758487D01*
X57189939Y-47758487D01*
X57182665Y-47755339D01*
X57174842Y-47754100D01*
X57174832Y-47754097D01*
X57138996Y-47748421D01*
X57127376Y-47746015D01*
X57092231Y-47736992D01*
X57092230Y-47736992D01*
X57084550Y-47735020D01*
X57064296Y-47735020D01*
X57044585Y-47733469D01*
X57032406Y-47731540D01*
X57024577Y-47730300D01*
X57016685Y-47731046D01*
X56980559Y-47734461D01*
X56968701Y-47735020D01*
X52050923Y-47735020D01*
X51982802Y-47715018D01*
X51947710Y-47681291D01*
X51840879Y-47528720D01*
X51840877Y-47528717D01*
X51837720Y-47524209D01*
X51675822Y-47362311D01*
X51671314Y-47359154D01*
X51671311Y-47359152D01*
X51514370Y-47249261D01*
X51488271Y-47230986D01*
X51483289Y-47228663D01*
X51483284Y-47228660D01*
X51449065Y-47212704D01*
X51395780Y-47165787D01*
X51376319Y-47097510D01*
X51396861Y-47029550D01*
X51449065Y-46984314D01*
X51483284Y-46968358D01*
X51483289Y-46968355D01*
X51488271Y-46966032D01*
X51629820Y-46866918D01*
X51671311Y-46837866D01*
X51671314Y-46837864D01*
X51675822Y-46834707D01*
X51837720Y-46672809D01*
X51917779Y-46558474D01*
X51947695Y-46515749D01*
X52003152Y-46471421D01*
X52050908Y-46462020D01*
X59229926Y-46462020D01*
X59298047Y-46482022D01*
X59319021Y-46498925D01*
X64439398Y-51619302D01*
X64473424Y-51681614D01*
X64475613Y-51695227D01*
X64488344Y-51816354D01*
X64492978Y-51860448D01*
X64551993Y-52042076D01*
X64647480Y-52207464D01*
X64651898Y-52212371D01*
X64651899Y-52212372D01*
X64743534Y-52314143D01*
X64775267Y-52349386D01*
X64874363Y-52421384D01*
X64920855Y-52455162D01*
X64929768Y-52461638D01*
X64935796Y-52464322D01*
X64935798Y-52464323D01*
X65008276Y-52496592D01*
X65104232Y-52539314D01*
X65197632Y-52559167D01*
X65284576Y-52577648D01*
X65284581Y-52577648D01*
X65291033Y-52579020D01*
X65482007Y-52579020D01*
X65488459Y-52577648D01*
X65488464Y-52577648D01*
X65575407Y-52559167D01*
X65668808Y-52539314D01*
X65764764Y-52496592D01*
X65837242Y-52464323D01*
X65837244Y-52464322D01*
X65843272Y-52461638D01*
X65852186Y-52455162D01*
X65898677Y-52421384D01*
X65997773Y-52349386D01*
X66029506Y-52314143D01*
X66121141Y-52212372D01*
X66121142Y-52212371D01*
X66125560Y-52207464D01*
X66221047Y-52042076D01*
X66280062Y-51860448D01*
X66284697Y-51816354D01*
X66299334Y-51677085D01*
X66300024Y-51670520D01*
X66292600Y-51599885D01*
X66280752Y-51487155D01*
X66280752Y-51487153D01*
X66280062Y-51480592D01*
X66221047Y-51298964D01*
X66125560Y-51133576D01*
X66045774Y-51044964D01*
X66002195Y-50996565D01*
X66002194Y-50996564D01*
X65997773Y-50991654D01*
X65875799Y-50903034D01*
X65848614Y-50883283D01*
X65848613Y-50883282D01*
X65843272Y-50879402D01*
X65837244Y-50876718D01*
X65837242Y-50876717D01*
X65674839Y-50804411D01*
X65674838Y-50804411D01*
X65668808Y-50801726D01*
X65557116Y-50777985D01*
X65488464Y-50763392D01*
X65488459Y-50763392D01*
X65482007Y-50762020D01*
X65426115Y-50762020D01*
X65357994Y-50742018D01*
X65337020Y-50725115D01*
X60529520Y-45917615D01*
X60495494Y-45855303D01*
X60500559Y-45784488D01*
X60529520Y-45739425D01*
X63586940Y-42682005D01*
X63649252Y-42647979D01*
X63676035Y-42645100D01*
X71949999Y-42645100D01*
X72018120Y-42665102D01*
G37*
%TD.AperFunction*%
%TA.AperFunction,Conductor*%
G36*
X100080678Y-29484002D02*
G01*
X100127171Y-29537658D01*
X100137820Y-29603607D01*
X100132515Y-29652445D01*
X100132515Y-31748713D01*
X100139270Y-31810895D01*
X100190400Y-31947284D01*
X100277754Y-32063840D01*
X100394310Y-32151194D01*
X100530699Y-32202324D01*
X100592881Y-32209079D01*
X102689149Y-32209079D01*
X102751331Y-32202324D01*
X102826771Y-32174043D01*
X102897577Y-32168860D01*
X102959946Y-32202781D01*
X102994076Y-32265036D01*
X102997000Y-32292025D01*
X102997000Y-43079133D01*
X102976998Y-43147254D01*
X102923342Y-43193747D01*
X102853068Y-43203851D01*
X102826770Y-43197115D01*
X102817786Y-43193747D01*
X102751331Y-43168834D01*
X102689149Y-43162079D01*
X100592881Y-43162079D01*
X100530699Y-43168834D01*
X100394310Y-43219964D01*
X100277754Y-43307318D01*
X100190400Y-43423874D01*
X100139270Y-43560263D01*
X100132515Y-43622445D01*
X100132515Y-43786090D01*
X100112513Y-43854211D01*
X100058857Y-43900704D01*
X100006515Y-43912090D01*
X93281513Y-43912090D01*
X93262564Y-43910657D01*
X93262357Y-43910626D01*
X93241101Y-43907392D01*
X93233809Y-43907985D01*
X93233806Y-43907985D01*
X93188441Y-43911675D01*
X93178227Y-43912090D01*
X93170157Y-43912090D01*
X93166537Y-43912512D01*
X93166519Y-43912513D01*
X93141911Y-43915382D01*
X93137550Y-43915814D01*
X93112431Y-43917857D01*
X93072111Y-43921136D01*
X93072108Y-43921137D01*
X93064813Y-43921730D01*
X93057849Y-43923986D01*
X93051890Y-43925177D01*
X93046035Y-43926561D01*
X93038769Y-43927408D01*
X92970123Y-43952325D01*
X92965995Y-43953742D01*
X92903514Y-43973983D01*
X92903512Y-43973984D01*
X92896551Y-43976239D01*
X92890296Y-43980035D01*
X92884822Y-43982541D01*
X92879392Y-43985260D01*
X92872513Y-43987757D01*
X92811466Y-44027781D01*
X92807777Y-44030108D01*
X92787585Y-44042361D01*
X92750143Y-44065081D01*
X92750138Y-44065085D01*
X92745342Y-44067995D01*
X92736966Y-44075393D01*
X92736943Y-44075367D01*
X92733953Y-44078016D01*
X92730714Y-44080724D01*
X92724598Y-44084734D01*
X92719571Y-44090041D01*
X92719567Y-44090044D01*
X92671322Y-44140973D01*
X92668944Y-44143415D01*
X88598189Y-48214170D01*
X88535292Y-48248321D01*
X88478696Y-48260351D01*
X88478687Y-48260354D01*
X88472232Y-48261726D01*
X88466202Y-48264411D01*
X88466201Y-48264411D01*
X88303798Y-48336717D01*
X88303796Y-48336718D01*
X88297768Y-48339402D01*
X88292427Y-48343282D01*
X88292426Y-48343283D01*
X88256028Y-48369728D01*
X88143267Y-48451654D01*
X88138846Y-48456564D01*
X88138845Y-48456565D01*
X88088793Y-48512154D01*
X88015480Y-48593576D01*
X87991862Y-48634484D01*
X87926589Y-48747540D01*
X87919993Y-48758964D01*
X87899273Y-48822734D01*
X87869653Y-48913893D01*
X87829579Y-48972498D01*
X87764182Y-49000135D01*
X87758914Y-49000353D01*
X87758577Y-49000300D01*
X87757309Y-49000420D01*
X87757306Y-49000420D01*
X87714559Y-49004461D01*
X87702701Y-49005020D01*
X81414529Y-49005020D01*
X81346408Y-48985018D01*
X81325434Y-48968115D01*
X78751493Y-46394174D01*
X78717467Y-46331862D01*
X78722532Y-46261047D01*
X78765079Y-46204211D01*
X78831599Y-46179400D01*
X78840588Y-46179079D01*
X79829149Y-46179079D01*
X79891331Y-46172324D01*
X80027720Y-46121194D01*
X80144276Y-46033840D01*
X80231630Y-45917284D01*
X80282760Y-45780895D01*
X80289515Y-45718713D01*
X80289515Y-43622445D01*
X80282760Y-43560263D01*
X80231630Y-43423874D01*
X80144276Y-43307318D01*
X80064334Y-43247404D01*
X80021819Y-43190546D01*
X80016793Y-43119728D01*
X80050853Y-43057434D01*
X80064334Y-43045753D01*
X80137096Y-42991221D01*
X80144276Y-42985840D01*
X80231630Y-42869284D01*
X80282760Y-42732895D01*
X80289515Y-42670713D01*
X80289515Y-40574445D01*
X80282760Y-40512263D01*
X80231630Y-40375874D01*
X80144276Y-40259318D01*
X80027720Y-40171964D01*
X79891331Y-40120834D01*
X79829149Y-40114079D01*
X77732881Y-40114079D01*
X77670699Y-40120834D01*
X77534310Y-40171964D01*
X77417754Y-40259318D01*
X77330400Y-40375874D01*
X77279270Y-40512263D01*
X77272515Y-40574445D01*
X77272515Y-42670713D01*
X77279270Y-42732895D01*
X77330400Y-42869284D01*
X77417754Y-42985840D01*
X77424934Y-42991221D01*
X77497696Y-43045753D01*
X77540211Y-43102612D01*
X77545237Y-43173430D01*
X77511177Y-43235724D01*
X77497698Y-43247403D01*
X77417754Y-43307318D01*
X77330400Y-43423874D01*
X77279270Y-43560263D01*
X77272515Y-43622445D01*
X77272515Y-43763621D01*
X77252513Y-43831742D01*
X77198857Y-43878235D01*
X77128583Y-43888339D01*
X77064003Y-43858845D01*
X77057420Y-43852716D01*
X76043971Y-42839266D01*
X74824052Y-41619347D01*
X74816514Y-41611064D01*
X74812400Y-41604582D01*
X74806618Y-41599153D01*
X74806420Y-41598913D01*
X74778409Y-41533676D01*
X74790114Y-41463651D01*
X74800290Y-41446324D01*
X74816362Y-41423371D01*
X74829045Y-41405258D01*
X74831368Y-41400276D01*
X74831371Y-41400271D01*
X74923483Y-41202734D01*
X74923483Y-41202733D01*
X74925806Y-41197752D01*
X74985065Y-40976596D01*
X75005020Y-40748509D01*
X74985065Y-40520422D01*
X74925806Y-40299266D01*
X74868956Y-40177350D01*
X74831371Y-40096747D01*
X74831368Y-40096742D01*
X74829045Y-40091760D01*
X74697720Y-39904209D01*
X74535822Y-39742311D01*
X74531314Y-39739154D01*
X74531311Y-39739152D01*
X74430122Y-39668299D01*
X74348271Y-39610986D01*
X74343289Y-39608663D01*
X74343284Y-39608660D01*
X74309065Y-39592704D01*
X74255780Y-39545787D01*
X74236319Y-39477510D01*
X74256861Y-39409550D01*
X74309065Y-39364314D01*
X74343284Y-39348358D01*
X74343289Y-39348355D01*
X74348271Y-39346032D01*
X74471080Y-39260040D01*
X74531311Y-39217866D01*
X74531314Y-39217864D01*
X74535822Y-39214707D01*
X74697720Y-39052809D01*
X74829045Y-38865258D01*
X74831368Y-38860276D01*
X74831371Y-38860271D01*
X74923483Y-38662734D01*
X74923483Y-38662733D01*
X74925806Y-38657752D01*
X74931586Y-38636183D01*
X74983641Y-38441911D01*
X74983641Y-38441909D01*
X74985065Y-38436596D01*
X75005020Y-38208509D01*
X74985065Y-37980422D01*
X74983641Y-37975107D01*
X74956898Y-37875301D01*
X74958588Y-37804325D01*
X74998382Y-37745529D01*
X75068389Y-37717105D01*
X75077409Y-37716371D01*
X75083019Y-37715915D01*
X75093233Y-37715500D01*
X75101293Y-37715500D01*
X75114583Y-37713951D01*
X75129507Y-37712211D01*
X75133882Y-37711778D01*
X75199339Y-37706454D01*
X75199342Y-37706453D01*
X75206637Y-37705860D01*
X75213601Y-37703604D01*
X75219560Y-37702413D01*
X75225415Y-37701029D01*
X75232681Y-37700182D01*
X75301327Y-37675265D01*
X75305455Y-37673848D01*
X75367936Y-37653607D01*
X75367938Y-37653606D01*
X75374899Y-37651351D01*
X75381154Y-37647555D01*
X75386628Y-37645049D01*
X75392058Y-37642330D01*
X75398937Y-37639833D01*
X75459976Y-37599814D01*
X75463680Y-37597477D01*
X75526107Y-37559595D01*
X75534484Y-37552197D01*
X75534508Y-37552224D01*
X75537500Y-37549571D01*
X75540733Y-37546868D01*
X75546852Y-37542856D01*
X75600128Y-37486617D01*
X75602506Y-37484175D01*
X77069911Y-36016770D01*
X77084323Y-36004384D01*
X77095918Y-35995851D01*
X77095923Y-35995846D01*
X77101818Y-35991508D01*
X77106557Y-35985930D01*
X77106560Y-35985927D01*
X77136035Y-35951232D01*
X77142965Y-35943716D01*
X77148660Y-35938021D01*
X77166281Y-35915749D01*
X77169072Y-35912345D01*
X77211591Y-35862297D01*
X77211592Y-35862295D01*
X77216333Y-35856715D01*
X77219661Y-35850199D01*
X77223020Y-35845162D01*
X77226194Y-35840023D01*
X77230734Y-35834284D01*
X77261636Y-35768163D01*
X77263569Y-35764209D01*
X77267239Y-35757021D01*
X77296769Y-35699192D01*
X77298510Y-35692076D01*
X77300604Y-35686446D01*
X77302523Y-35680679D01*
X77305621Y-35674050D01*
X77320483Y-35602600D01*
X77321453Y-35598315D01*
X77337473Y-35532844D01*
X77338808Y-35527390D01*
X77339500Y-35516236D01*
X77339536Y-35516238D01*
X77339775Y-35512248D01*
X77340150Y-35508050D01*
X77341640Y-35500885D01*
X77339546Y-35423479D01*
X77339500Y-35420072D01*
X77339500Y-35303718D01*
X77359502Y-35235597D01*
X77413158Y-35189104D01*
X77483432Y-35179000D01*
X77526011Y-35193199D01*
X77527124Y-35193808D01*
X77534310Y-35199194D01*
X77670699Y-35250324D01*
X77732881Y-35257079D01*
X79829149Y-35257079D01*
X79891331Y-35250324D01*
X80027720Y-35199194D01*
X80144276Y-35111840D01*
X80231630Y-34995284D01*
X80282760Y-34858895D01*
X80289515Y-34796713D01*
X80289515Y-32700445D01*
X80282760Y-32638263D01*
X80231630Y-32501874D01*
X80144276Y-32385318D01*
X80064334Y-32325404D01*
X80021819Y-32268546D01*
X80016793Y-32197728D01*
X80050853Y-32135434D01*
X80064334Y-32123753D01*
X80137096Y-32069221D01*
X80144276Y-32063840D01*
X80231630Y-31947284D01*
X80282760Y-31810895D01*
X80289515Y-31748713D01*
X80289515Y-29652445D01*
X80284210Y-29603607D01*
X80296738Y-29533725D01*
X80345060Y-29481709D01*
X80409473Y-29464000D01*
X100012557Y-29464000D01*
X100080678Y-29484002D01*
G37*
%TD.AperFunction*%
%TA.AperFunction,Conductor*%
G36*
X75104415Y-43695296D02*
G01*
X75124551Y-43711655D01*
X76291595Y-44878699D01*
X76325621Y-44941011D01*
X76328500Y-44967794D01*
X76328500Y-45421819D01*
X76327973Y-45433002D01*
X76326298Y-45440495D01*
X76326547Y-45448421D01*
X76326547Y-45448422D01*
X76328438Y-45508572D01*
X76328500Y-45512531D01*
X76328500Y-45540442D01*
X76328997Y-45544376D01*
X76328997Y-45544377D01*
X76329005Y-45544442D01*
X76329938Y-45556279D01*
X76331327Y-45600475D01*
X76336978Y-45619925D01*
X76340987Y-45639286D01*
X76343526Y-45659383D01*
X76346445Y-45666754D01*
X76346445Y-45666756D01*
X76359804Y-45700498D01*
X76363647Y-45711722D01*
X76368314Y-45727785D01*
X76368115Y-45798780D01*
X76329564Y-45858398D01*
X76279931Y-45884648D01*
X76229709Y-45898105D01*
X76229698Y-45898109D01*
X76224391Y-45899531D01*
X76219410Y-45901854D01*
X76219409Y-45901854D01*
X76021872Y-45993966D01*
X76021867Y-45993969D01*
X76016885Y-45996292D01*
X75930762Y-46056596D01*
X75833845Y-46124458D01*
X75833842Y-46124460D01*
X75829334Y-46127617D01*
X75667436Y-46289515D01*
X75536111Y-46477066D01*
X75533788Y-46482048D01*
X75533785Y-46482053D01*
X75444835Y-46672809D01*
X75439350Y-46684572D01*
X75437928Y-46689879D01*
X75405625Y-46810435D01*
X75368673Y-46871057D01*
X75304812Y-46902079D01*
X75234318Y-46893650D01*
X75194822Y-46866918D01*
X75095215Y-46767310D01*
X74886379Y-46558474D01*
X74852354Y-46496162D01*
X74857419Y-46425346D01*
X74861280Y-46416129D01*
X74923483Y-46282734D01*
X74923483Y-46282733D01*
X74925806Y-46277752D01*
X74945512Y-46204211D01*
X74983641Y-46061911D01*
X74983641Y-46061909D01*
X74985065Y-46056596D01*
X75005020Y-45828509D01*
X74985065Y-45600422D01*
X74982957Y-45592556D01*
X74927229Y-45384576D01*
X74927228Y-45384574D01*
X74925806Y-45379266D01*
X74923483Y-45374284D01*
X74831371Y-45176747D01*
X74831368Y-45176742D01*
X74829045Y-45171760D01*
X74697720Y-44984209D01*
X74535822Y-44822311D01*
X74531314Y-44819154D01*
X74531311Y-44819152D01*
X74374370Y-44709261D01*
X74348271Y-44690986D01*
X74343289Y-44688663D01*
X74343284Y-44688660D01*
X74309065Y-44672704D01*
X74255780Y-44625787D01*
X74236319Y-44557510D01*
X74256861Y-44489550D01*
X74309065Y-44444314D01*
X74343284Y-44428358D01*
X74343289Y-44428355D01*
X74348271Y-44426032D01*
X74471657Y-44339636D01*
X74531311Y-44297866D01*
X74531314Y-44297864D01*
X74535822Y-44294707D01*
X74697720Y-44132809D01*
X74708966Y-44116749D01*
X74769625Y-44030118D01*
X74829045Y-43945258D01*
X74831368Y-43940276D01*
X74831371Y-43940271D01*
X74921261Y-43747500D01*
X74968178Y-43694215D01*
X75036456Y-43674754D01*
X75104415Y-43695296D01*
G37*
%TD.AperFunction*%
%TA.AperFunction,Conductor*%
G36*
X71335250Y-36850002D02*
G01*
X71381743Y-36903658D01*
X71391847Y-36973932D01*
X71362353Y-37038512D01*
X71356224Y-37045095D01*
X70588724Y-37812595D01*
X70526412Y-37846621D01*
X70499629Y-37849500D01*
X56963070Y-37849500D01*
X56944120Y-37848067D01*
X56929885Y-37845901D01*
X56929881Y-37845901D01*
X56922651Y-37844801D01*
X56915359Y-37845394D01*
X56915356Y-37845394D01*
X56869982Y-37849085D01*
X56859767Y-37849500D01*
X56851707Y-37849500D01*
X56838417Y-37851049D01*
X56823493Y-37852789D01*
X56819118Y-37853222D01*
X56753661Y-37858546D01*
X56753658Y-37858547D01*
X56746363Y-37859140D01*
X56739399Y-37861396D01*
X56733440Y-37862587D01*
X56727585Y-37863971D01*
X56720319Y-37864818D01*
X56651673Y-37889735D01*
X56647545Y-37891152D01*
X56585064Y-37911393D01*
X56585062Y-37911394D01*
X56578101Y-37913649D01*
X56571846Y-37917445D01*
X56566372Y-37919951D01*
X56560942Y-37922670D01*
X56554063Y-37925167D01*
X56547943Y-37929180D01*
X56547942Y-37929180D01*
X56493024Y-37965186D01*
X56489320Y-37967523D01*
X56426893Y-38005405D01*
X56418516Y-38012803D01*
X56418492Y-38012776D01*
X56415500Y-38015429D01*
X56412267Y-38018132D01*
X56406148Y-38022144D01*
X56401116Y-38027456D01*
X56352872Y-38078383D01*
X56350494Y-38080825D01*
X53232089Y-41199230D01*
X53217677Y-41211616D01*
X53206082Y-41220149D01*
X53206077Y-41220154D01*
X53200182Y-41224492D01*
X53195443Y-41230070D01*
X53195440Y-41230073D01*
X53165965Y-41264768D01*
X53159035Y-41272284D01*
X53153340Y-41277979D01*
X53151060Y-41280861D01*
X53135719Y-41300251D01*
X53132928Y-41303655D01*
X53090409Y-41353703D01*
X53085667Y-41359285D01*
X53082339Y-41365801D01*
X53078972Y-41370850D01*
X53075805Y-41375979D01*
X53071266Y-41381716D01*
X53040345Y-41447875D01*
X53038442Y-41451769D01*
X53005231Y-41516808D01*
X53003492Y-41523916D01*
X53001393Y-41529559D01*
X52999476Y-41535322D01*
X52996378Y-41541950D01*
X52994888Y-41549112D01*
X52994888Y-41549113D01*
X52981514Y-41613412D01*
X52980544Y-41617696D01*
X52963192Y-41688610D01*
X52962500Y-41699764D01*
X52962464Y-41699762D01*
X52962225Y-41703755D01*
X52961851Y-41707947D01*
X52960360Y-41715115D01*
X52960558Y-41722432D01*
X52962454Y-41792521D01*
X52962500Y-41795928D01*
X52962500Y-42897001D01*
X52945619Y-42960001D01*
X52896110Y-43045753D01*
X52886473Y-43062444D01*
X52827458Y-43244072D01*
X52826768Y-43250633D01*
X52826768Y-43250635D01*
X52822212Y-43293984D01*
X52807496Y-43434000D01*
X52808186Y-43440565D01*
X52820767Y-43560263D01*
X52827458Y-43623928D01*
X52886473Y-43805556D01*
X52889776Y-43811278D01*
X52889777Y-43811279D01*
X52913701Y-43852716D01*
X52981960Y-43970944D01*
X52986378Y-43975851D01*
X52986379Y-43975852D01*
X52992402Y-43982541D01*
X53109747Y-44112866D01*
X53264248Y-44225118D01*
X53270276Y-44227802D01*
X53270278Y-44227803D01*
X53394341Y-44283039D01*
X53438712Y-44302794D01*
X53532113Y-44322647D01*
X53619056Y-44341128D01*
X53619061Y-44341128D01*
X53625513Y-44342500D01*
X53816487Y-44342500D01*
X53822939Y-44341128D01*
X53822944Y-44341128D01*
X53909887Y-44322647D01*
X54003288Y-44302794D01*
X54047659Y-44283039D01*
X54171722Y-44227803D01*
X54171724Y-44227802D01*
X54177752Y-44225118D01*
X54332253Y-44112866D01*
X54449598Y-43982541D01*
X54455621Y-43975852D01*
X54455622Y-43975851D01*
X54460040Y-43970944D01*
X54528299Y-43852716D01*
X54552223Y-43811279D01*
X54552224Y-43811278D01*
X54555527Y-43805556D01*
X54614542Y-43623928D01*
X54621234Y-43560263D01*
X54633814Y-43440565D01*
X54634504Y-43434000D01*
X54619788Y-43293984D01*
X54615232Y-43250635D01*
X54615232Y-43250633D01*
X54614542Y-43244072D01*
X54555527Y-43062444D01*
X54545891Y-43045753D01*
X54496381Y-42960001D01*
X54479500Y-42897001D01*
X54479500Y-42149371D01*
X54499502Y-42081250D01*
X54516405Y-42060276D01*
X57173276Y-39403405D01*
X57235588Y-39369379D01*
X57262371Y-39366500D01*
X70798930Y-39366500D01*
X70817880Y-39367933D01*
X70832115Y-39370099D01*
X70832119Y-39370099D01*
X70839349Y-39371199D01*
X70846641Y-39370606D01*
X70846644Y-39370606D01*
X70892018Y-39366915D01*
X70902233Y-39366500D01*
X70910293Y-39366500D01*
X70929044Y-39364314D01*
X70938507Y-39363211D01*
X70942882Y-39362778D01*
X71008339Y-39357454D01*
X71008342Y-39357453D01*
X71015637Y-39356860D01*
X71022601Y-39354604D01*
X71028560Y-39353413D01*
X71034415Y-39352029D01*
X71041681Y-39351182D01*
X71110327Y-39326265D01*
X71114455Y-39324848D01*
X71176936Y-39304607D01*
X71176938Y-39304606D01*
X71183899Y-39302351D01*
X71190154Y-39298555D01*
X71195628Y-39296049D01*
X71201058Y-39293330D01*
X71207937Y-39290833D01*
X71268976Y-39250814D01*
X71272680Y-39248477D01*
X71335107Y-39210595D01*
X71343484Y-39203197D01*
X71343508Y-39203224D01*
X71346500Y-39200571D01*
X71349733Y-39197868D01*
X71355852Y-39193856D01*
X71409128Y-39137617D01*
X71411506Y-39135175D01*
X71876472Y-38670209D01*
X71938784Y-38636183D01*
X72009599Y-38641248D01*
X72066435Y-38683795D01*
X72079762Y-38706055D01*
X72151671Y-38860267D01*
X72151675Y-38860273D01*
X72153999Y-38865258D01*
X72285324Y-39052809D01*
X72447222Y-39214707D01*
X72451730Y-39217864D01*
X72451733Y-39217866D01*
X72511964Y-39260040D01*
X72634773Y-39346032D01*
X72639755Y-39348355D01*
X72639760Y-39348358D01*
X72673979Y-39364314D01*
X72727264Y-39411231D01*
X72746725Y-39479508D01*
X72726183Y-39547468D01*
X72673979Y-39592704D01*
X72639760Y-39608660D01*
X72639755Y-39608663D01*
X72634773Y-39610986D01*
X72552922Y-39668299D01*
X72451733Y-39739152D01*
X72451730Y-39739154D01*
X72447222Y-39742311D01*
X72285324Y-39904209D01*
X72153999Y-40091760D01*
X72151676Y-40096742D01*
X72151673Y-40096747D01*
X72114088Y-40177350D01*
X72057238Y-40299266D01*
X71997979Y-40520422D01*
X71978024Y-40748509D01*
X71997979Y-40976596D01*
X72057238Y-41197752D01*
X72059561Y-41202734D01*
X72061444Y-41207907D01*
X72059247Y-41208707D01*
X72068411Y-41269042D01*
X72039431Y-41333855D01*
X71980011Y-41372711D01*
X71943555Y-41378100D01*
X63440207Y-41378100D01*
X63429024Y-41377573D01*
X63421531Y-41375898D01*
X63413605Y-41376147D01*
X63413604Y-41376147D01*
X63353454Y-41378038D01*
X63349495Y-41378100D01*
X63321584Y-41378100D01*
X63317650Y-41378597D01*
X63317649Y-41378597D01*
X63317584Y-41378605D01*
X63305747Y-41379538D01*
X63273489Y-41380552D01*
X63269470Y-41380678D01*
X63261551Y-41380927D01*
X63242097Y-41386579D01*
X63222740Y-41390587D01*
X63210510Y-41392132D01*
X63210509Y-41392132D01*
X63202643Y-41393126D01*
X63195272Y-41396045D01*
X63195270Y-41396045D01*
X63161528Y-41409404D01*
X63150298Y-41413249D01*
X63115457Y-41423371D01*
X63115456Y-41423371D01*
X63107847Y-41425582D01*
X63101028Y-41429615D01*
X63101023Y-41429617D01*
X63090412Y-41435893D01*
X63072664Y-41444588D01*
X63053823Y-41452048D01*
X63047407Y-41456710D01*
X63047406Y-41456710D01*
X63018053Y-41478036D01*
X63008133Y-41484552D01*
X62976905Y-41503020D01*
X62976902Y-41503022D01*
X62970078Y-41507058D01*
X62955757Y-41521379D01*
X62940724Y-41534219D01*
X62924333Y-41546128D01*
X62919282Y-41552234D01*
X62896142Y-41580205D01*
X62888152Y-41588984D01*
X59319020Y-45158115D01*
X59256708Y-45192141D01*
X59229925Y-45195020D01*
X52050923Y-45195020D01*
X51982802Y-45175018D01*
X51947710Y-45141291D01*
X51840879Y-44988720D01*
X51840877Y-44988717D01*
X51837720Y-44984209D01*
X51675822Y-44822311D01*
X51671314Y-44819154D01*
X51671311Y-44819152D01*
X51514370Y-44709261D01*
X51488271Y-44690986D01*
X51483289Y-44688663D01*
X51483284Y-44688660D01*
X51449065Y-44672704D01*
X51395780Y-44625787D01*
X51376319Y-44557510D01*
X51396861Y-44489550D01*
X51449065Y-44444314D01*
X51483284Y-44428358D01*
X51483289Y-44428355D01*
X51488271Y-44426032D01*
X51611657Y-44339636D01*
X51671311Y-44297866D01*
X51671314Y-44297864D01*
X51675822Y-44294707D01*
X51837720Y-44132809D01*
X51848966Y-44116749D01*
X51909625Y-44030118D01*
X51969045Y-43945258D01*
X51971368Y-43940276D01*
X51971371Y-43940271D01*
X52063483Y-43742734D01*
X52063483Y-43742733D01*
X52065806Y-43737752D01*
X52082687Y-43674754D01*
X52123641Y-43521911D01*
X52123641Y-43521909D01*
X52125065Y-43516596D01*
X52145020Y-43288509D01*
X52125065Y-43060422D01*
X52123641Y-43055107D01*
X52067229Y-42844576D01*
X52067228Y-42844574D01*
X52065806Y-42839266D01*
X52016205Y-42732895D01*
X51971371Y-42636747D01*
X51971368Y-42636742D01*
X51969045Y-42631760D01*
X51837720Y-42444209D01*
X51675822Y-42282311D01*
X51671314Y-42279154D01*
X51671311Y-42279152D01*
X51514370Y-42169261D01*
X51488271Y-42150986D01*
X51483289Y-42148663D01*
X51483284Y-42148660D01*
X51449065Y-42132704D01*
X51395780Y-42085787D01*
X51376319Y-42017510D01*
X51396861Y-41949550D01*
X51449065Y-41904314D01*
X51483284Y-41888358D01*
X51483289Y-41888355D01*
X51488271Y-41886032D01*
X51611657Y-41799636D01*
X51671311Y-41757866D01*
X51671314Y-41757864D01*
X51675822Y-41754707D01*
X51837720Y-41592809D01*
X51846546Y-41580205D01*
X51900591Y-41503020D01*
X51969045Y-41405258D01*
X51971368Y-41400276D01*
X51971371Y-41400271D01*
X52063483Y-41202734D01*
X52063483Y-41202733D01*
X52065806Y-41197752D01*
X52125065Y-40976596D01*
X52145020Y-40748509D01*
X52125065Y-40520422D01*
X52065806Y-40299266D01*
X52008956Y-40177350D01*
X51971371Y-40096747D01*
X51971368Y-40096742D01*
X51969045Y-40091760D01*
X51837720Y-39904209D01*
X51808887Y-39875376D01*
X51774861Y-39813064D01*
X51779926Y-39742249D01*
X51822473Y-39685413D01*
X51853754Y-39668299D01*
X51869815Y-39662278D01*
X51869818Y-39662276D01*
X51878227Y-39659124D01*
X51994783Y-39571770D01*
X52082137Y-39455214D01*
X52133267Y-39318825D01*
X52140022Y-39256643D01*
X52140022Y-37160375D01*
X52133267Y-37098193D01*
X52096542Y-37000229D01*
X52091359Y-36929423D01*
X52125280Y-36867054D01*
X52187535Y-36832924D01*
X52214524Y-36830000D01*
X71267129Y-36830000D01*
X71335250Y-36850002D01*
G37*
%TD.AperFunction*%
%TA.AperFunction,Conductor*%
G36*
X77220678Y-29484002D02*
G01*
X77267171Y-29537658D01*
X77277820Y-29603607D01*
X77272515Y-29652445D01*
X77272515Y-31084208D01*
X77252513Y-31152329D01*
X77235610Y-31173303D01*
X76092089Y-32316824D01*
X76077677Y-32329210D01*
X76066082Y-32337743D01*
X76066077Y-32337748D01*
X76060182Y-32342086D01*
X76055443Y-32347664D01*
X76055440Y-32347667D01*
X76025965Y-32382362D01*
X76019035Y-32389878D01*
X76013340Y-32395573D01*
X76011060Y-32398455D01*
X75995719Y-32417845D01*
X75992928Y-32421249D01*
X75950409Y-32471297D01*
X75945667Y-32476879D01*
X75942339Y-32483395D01*
X75938972Y-32488444D01*
X75935805Y-32493573D01*
X75931266Y-32499310D01*
X75900345Y-32565469D01*
X75898442Y-32569363D01*
X75865231Y-32634402D01*
X75863492Y-32641510D01*
X75861393Y-32647153D01*
X75859476Y-32652916D01*
X75856378Y-32659544D01*
X75854888Y-32666706D01*
X75854888Y-32666707D01*
X75841514Y-32731006D01*
X75840544Y-32735290D01*
X75823192Y-32806204D01*
X75822500Y-32817358D01*
X75822464Y-32817356D01*
X75822225Y-32821349D01*
X75821851Y-32825541D01*
X75820360Y-32832709D01*
X75820558Y-32840026D01*
X75822454Y-32910115D01*
X75822500Y-32913522D01*
X75822500Y-35066629D01*
X75802498Y-35134750D01*
X75785595Y-35155724D01*
X75526095Y-35415224D01*
X75463783Y-35449250D01*
X75392968Y-35444185D01*
X75336132Y-35401638D01*
X75311321Y-35335118D01*
X75311000Y-35326129D01*
X75311000Y-29590000D01*
X75331002Y-29521879D01*
X75384658Y-29475386D01*
X75437000Y-29464000D01*
X77152557Y-29464000D01*
X77220678Y-29484002D01*
G37*
%TD.AperFunction*%
%TD*%
M02*
